G04*
G04 #@! TF.GenerationSoftware,Altium Limited,Altium Designer,23.0.1 (38)*
G04*
G04 Layer_Color=32896*
%FSLAX25Y25*%
%MOIN*%
G70*
G04*
G04 #@! TF.SameCoordinates,CCA4EEAC-205A-4764-8855-BE0F0513998D*
G04*
G04*
G04 #@! TF.FilePolarity,Positive*
G04*
G01*
G75*
%ADD10C,0.01000*%
%ADD13C,0.00787*%
%ADD14C,0.00394*%
%ADD15C,0.00800*%
%ADD16C,0.00591*%
%ADD19C,0.00700*%
%ADD20C,0.00799*%
%ADD23R,0.06000X0.02000*%
%ADD24R,0.02500X0.06000*%
%ADD26R,0.06000X0.02500*%
%ADD27R,0.02000X0.06000*%
%ADD28R,0.01300X0.03000*%
%ADD173C,0.00984*%
%ADD174C,0.02362*%
%ADD175C,0.00799*%
%ADD176R,0.03000X0.01300*%
G36*
X697276Y-140318D02*
X697382Y-140337D01*
X697497Y-140375D01*
X697632Y-140414D01*
X697776Y-140481D01*
X697930Y-140568D01*
X697651Y-141279D01*
X697641Y-141269D01*
X697603Y-141250D01*
X697545Y-141221D01*
X697478Y-141192D01*
X697392Y-141163D01*
X697296Y-141135D01*
X697190Y-141115D01*
X697084Y-141106D01*
X697046D01*
X696997Y-141115D01*
X696930Y-141125D01*
X696863Y-141144D01*
X696786Y-141173D01*
X696709Y-141211D01*
X696632Y-141260D01*
X696623Y-141269D01*
X696603Y-141288D01*
X696565Y-141327D01*
X696527Y-141375D01*
X696479Y-141432D01*
X696431Y-141509D01*
X696392Y-141596D01*
X696354Y-141692D01*
X696344Y-141711D01*
X696335Y-141759D01*
X696315Y-141846D01*
X696296Y-141961D01*
X696267Y-142096D01*
X696248Y-142249D01*
X696238Y-142413D01*
X696229Y-142595D01*
Y-144988D01*
X695450D01*
Y-140414D01*
X696152D01*
Y-141096D01*
X696162Y-141086D01*
X696200Y-141029D01*
X696248Y-140942D01*
X696306Y-140846D01*
X696383Y-140741D01*
X696469Y-140635D01*
X696546Y-140539D01*
X696632Y-140471D01*
X696642Y-140462D01*
X696671Y-140443D01*
X696719Y-140424D01*
X696786Y-140385D01*
X696853Y-140356D01*
X696940Y-140337D01*
X697036Y-140318D01*
X697132Y-140308D01*
X697199D01*
X697276Y-140318D01*
D02*
G37*
G36*
X674404D02*
X674462D01*
X674529Y-140327D01*
X674674Y-140356D01*
X674847Y-140404D01*
X675020Y-140471D01*
X675183Y-140568D01*
X675337Y-140692D01*
X675356Y-140712D01*
X675394Y-140760D01*
X675452Y-140856D01*
X675529Y-140981D01*
X675596Y-141144D01*
X675654Y-141336D01*
X675692Y-141577D01*
X675711Y-141711D01*
Y-141855D01*
Y-144988D01*
X674933D01*
Y-142115D01*
Y-142105D01*
Y-142096D01*
Y-142038D01*
Y-141951D01*
X674923Y-141855D01*
X674904Y-141634D01*
X674885Y-141529D01*
X674856Y-141442D01*
Y-141432D01*
X674837Y-141404D01*
X674818Y-141365D01*
X674789Y-141317D01*
X674750Y-141269D01*
X674702Y-141211D01*
X674645Y-141154D01*
X674577Y-141106D01*
X674568Y-141096D01*
X674539Y-141086D01*
X674501Y-141067D01*
X674452Y-141039D01*
X674385Y-141019D01*
X674299Y-141000D01*
X674212Y-140990D01*
X674116Y-140981D01*
X674039D01*
X673943Y-141000D01*
X673837Y-141019D01*
X673712Y-141058D01*
X673578Y-141115D01*
X673434Y-141202D01*
X673309Y-141308D01*
X673299Y-141327D01*
X673261Y-141365D01*
X673213Y-141442D01*
X673155Y-141557D01*
X673088Y-141702D01*
X673040Y-141875D01*
X673001Y-142086D01*
X672992Y-142336D01*
Y-144988D01*
X672213D01*
Y-142019D01*
Y-142009D01*
Y-141999D01*
Y-141971D01*
Y-141932D01*
X672204Y-141836D01*
X672194Y-141730D01*
X672165Y-141596D01*
X672136Y-141471D01*
X672088Y-141346D01*
X672021Y-141240D01*
X672012Y-141231D01*
X671983Y-141202D01*
X671944Y-141154D01*
X671877Y-141106D01*
X671791Y-141067D01*
X671685Y-141019D01*
X671560Y-140990D01*
X671406Y-140981D01*
X671348D01*
X671291Y-140990D01*
X671204Y-141000D01*
X671118Y-141019D01*
X671012Y-141058D01*
X670906Y-141096D01*
X670801Y-141154D01*
X670791Y-141163D01*
X670753Y-141183D01*
X670705Y-141231D01*
X670647Y-141279D01*
X670580Y-141356D01*
X670512Y-141442D01*
X670455Y-141548D01*
X670397Y-141663D01*
X670388Y-141682D01*
X670378Y-141721D01*
X670359Y-141798D01*
X670339Y-141903D01*
X670311Y-142038D01*
X670291Y-142201D01*
X670282Y-142394D01*
X670272Y-142614D01*
Y-144988D01*
X669494D01*
Y-140414D01*
X670186D01*
Y-141058D01*
X670195Y-141039D01*
X670224Y-141000D01*
X670272Y-140942D01*
X670339Y-140866D01*
X670416Y-140779D01*
X670512Y-140692D01*
X670628Y-140596D01*
X670753Y-140520D01*
X670772Y-140510D01*
X670820Y-140491D01*
X670897Y-140452D01*
X670993Y-140414D01*
X671118Y-140375D01*
X671252Y-140337D01*
X671416Y-140318D01*
X671579Y-140308D01*
X671666D01*
X671762Y-140318D01*
X671877Y-140337D01*
X672002Y-140356D01*
X672146Y-140395D01*
X672281Y-140452D01*
X672406Y-140520D01*
X672425Y-140529D01*
X672463Y-140558D01*
X672521Y-140606D01*
X672588Y-140673D01*
X672665Y-140760D01*
X672742Y-140856D01*
X672809Y-140981D01*
X672867Y-141115D01*
X672877Y-141106D01*
X672896Y-141077D01*
X672925Y-141039D01*
X672963Y-140990D01*
X673021Y-140923D01*
X673088Y-140856D01*
X673165Y-140789D01*
X673251Y-140712D01*
X673347Y-140635D01*
X673453Y-140568D01*
X673703Y-140433D01*
X673837Y-140385D01*
X673982Y-140347D01*
X674126Y-140318D01*
X674289Y-140308D01*
X674356D01*
X674404Y-140318D01*
D02*
G37*
G36*
X688137Y-144988D02*
X687407D01*
X685667Y-140414D01*
X686484D01*
X687464Y-143162D01*
X687474Y-143182D01*
X687493Y-143239D01*
X687522Y-143326D01*
X687561Y-143441D01*
X687609Y-143576D01*
X687657Y-143729D01*
X687714Y-143902D01*
X687762Y-144075D01*
X687772Y-144056D01*
X687782Y-144008D01*
X687810Y-143931D01*
X687839Y-143835D01*
X687878Y-143710D01*
X687926Y-143556D01*
X687983Y-143393D01*
X688051Y-143210D01*
X689069Y-140414D01*
X689867D01*
X688137Y-144988D01*
D02*
G37*
G36*
X707261Y-145065D02*
Y-145075D01*
X707251Y-145094D01*
X707232Y-145132D01*
X707213Y-145190D01*
X707194Y-145248D01*
X707165Y-145315D01*
X707107Y-145478D01*
X707030Y-145651D01*
X706963Y-145815D01*
X706896Y-145978D01*
X706857Y-146045D01*
X706829Y-146103D01*
X706819Y-146122D01*
X706790Y-146161D01*
X706752Y-146228D01*
X706694Y-146314D01*
X706617Y-146401D01*
X706540Y-146497D01*
X706444Y-146583D01*
X706348Y-146660D01*
X706339Y-146670D01*
X706300Y-146689D01*
X706242Y-146718D01*
X706166Y-146747D01*
X706079Y-146785D01*
X705964Y-146814D01*
X705848Y-146833D01*
X705714Y-146843D01*
X705675D01*
X705627Y-146833D01*
X705570D01*
X705493Y-146824D01*
X705406Y-146804D01*
X705214Y-146747D01*
X705128Y-146026D01*
X705137D01*
X705166Y-146036D01*
X705214Y-146045D01*
X705281Y-146064D01*
X705416Y-146093D01*
X705570Y-146103D01*
X705618D01*
X705656Y-146093D01*
X705723D01*
X705858Y-146064D01*
X705925Y-146045D01*
X705983Y-146017D01*
X705993D01*
X706012Y-145997D01*
X706041Y-145978D01*
X706069Y-145949D01*
X706156Y-145872D01*
X706242Y-145767D01*
Y-145757D01*
X706252Y-145738D01*
X706271Y-145709D01*
X706300Y-145651D01*
X706329Y-145574D01*
X706367Y-145478D01*
X706415Y-145344D01*
X706473Y-145190D01*
X706483Y-145180D01*
X706492Y-145142D01*
X706521Y-145084D01*
X706550Y-144998D01*
X704810Y-140414D01*
X705637D01*
X706588Y-143047D01*
Y-143057D01*
X706598Y-143066D01*
X706607Y-143095D01*
X706617Y-143133D01*
X706656Y-143239D01*
X706704Y-143374D01*
X706752Y-143527D01*
X706809Y-143710D01*
X706867Y-143902D01*
X706925Y-144104D01*
Y-144095D01*
X706934Y-144085D01*
Y-144056D01*
X706953Y-144018D01*
X706973Y-143912D01*
X707011Y-143787D01*
X707059Y-143633D01*
X707117Y-143460D01*
X707174Y-143278D01*
X707242Y-143085D01*
X708222Y-140414D01*
X708991D01*
X707261Y-145065D01*
D02*
G37*
G36*
X702475Y-140318D02*
X702610Y-140327D01*
X702764Y-140347D01*
X702927Y-140366D01*
X703081Y-140404D01*
X703225Y-140452D01*
X703244Y-140462D01*
X703282Y-140471D01*
X703350Y-140510D01*
X703427Y-140548D01*
X703513Y-140596D01*
X703609Y-140654D01*
X703686Y-140721D01*
X703763Y-140798D01*
X703773Y-140808D01*
X703792Y-140837D01*
X703821Y-140875D01*
X703859Y-140942D01*
X703897Y-141019D01*
X703936Y-141106D01*
X703974Y-141211D01*
X704003Y-141327D01*
Y-141336D01*
X704013Y-141365D01*
X704023Y-141413D01*
X704032Y-141490D01*
Y-141586D01*
X704042Y-141711D01*
X704051Y-141855D01*
Y-142038D01*
Y-143076D01*
Y-143085D01*
Y-143124D01*
Y-143182D01*
Y-143249D01*
Y-143335D01*
Y-143431D01*
X704061Y-143652D01*
Y-143893D01*
X704071Y-144114D01*
X704080Y-144219D01*
Y-144306D01*
X704090Y-144383D01*
X704099Y-144450D01*
Y-144460D01*
X704109Y-144498D01*
X704119Y-144556D01*
X704138Y-144623D01*
X704167Y-144700D01*
X704205Y-144796D01*
X704291Y-144988D01*
X703484D01*
X703475Y-144979D01*
X703465Y-144950D01*
X703446Y-144892D01*
X703417Y-144825D01*
X703388Y-144738D01*
X703369Y-144642D01*
X703350Y-144536D01*
X703331Y-144412D01*
X703311Y-144431D01*
X703254Y-144469D01*
X703177Y-144536D01*
X703061Y-144613D01*
X702937Y-144710D01*
X702792Y-144796D01*
X702648Y-144873D01*
X702494Y-144940D01*
X702475Y-144950D01*
X702427Y-144959D01*
X702350Y-144988D01*
X702245Y-145017D01*
X702110Y-145046D01*
X701966Y-145065D01*
X701812Y-145084D01*
X701639Y-145094D01*
X701572D01*
X701514Y-145084D01*
X701457D01*
X701380Y-145075D01*
X701216Y-145046D01*
X701024Y-145007D01*
X700842Y-144940D01*
X700649Y-144854D01*
X700486Y-144729D01*
X700467Y-144710D01*
X700419Y-144661D01*
X700361Y-144585D01*
X700284Y-144469D01*
X700207Y-144335D01*
X700150Y-144181D01*
X700102Y-143989D01*
X700082Y-143787D01*
Y-143768D01*
Y-143729D01*
X700092Y-143662D01*
X700102Y-143585D01*
X700121Y-143489D01*
X700140Y-143383D01*
X700178Y-143278D01*
X700226Y-143172D01*
X700236Y-143162D01*
X700255Y-143124D01*
X700284Y-143076D01*
X700332Y-143008D01*
X700390Y-142941D01*
X700467Y-142864D01*
X700544Y-142797D01*
X700630Y-142730D01*
X700640Y-142720D01*
X700678Y-142701D01*
X700726Y-142672D01*
X700794Y-142634D01*
X700880Y-142586D01*
X700967Y-142547D01*
X701072Y-142509D01*
X701188Y-142470D01*
X701197D01*
X701236Y-142461D01*
X701284Y-142451D01*
X701361Y-142432D01*
X701457Y-142413D01*
X701581Y-142394D01*
X701716Y-142374D01*
X701879Y-142355D01*
X701889D01*
X701918Y-142345D01*
X701966D01*
X702033Y-142336D01*
X702110Y-142326D01*
X702197Y-142317D01*
X702408Y-142278D01*
X702629Y-142240D01*
X702860Y-142201D01*
X703081Y-142144D01*
X703177Y-142115D01*
X703263Y-142086D01*
Y-142076D01*
Y-142057D01*
X703273Y-141999D01*
Y-141932D01*
Y-141903D01*
Y-141884D01*
Y-141875D01*
Y-141865D01*
Y-141807D01*
X703263Y-141721D01*
X703244Y-141625D01*
X703215Y-141519D01*
X703177Y-141404D01*
X703129Y-141308D01*
X703052Y-141221D01*
X703042Y-141211D01*
X702994Y-141183D01*
X702927Y-141135D01*
X702831Y-141086D01*
X702706Y-141039D01*
X702552Y-140990D01*
X702369Y-140962D01*
X702168Y-140952D01*
X702081D01*
X701985Y-140962D01*
X701860Y-140971D01*
X701726Y-141000D01*
X701601Y-141029D01*
X701466Y-141077D01*
X701361Y-141144D01*
X701351Y-141154D01*
X701322Y-141183D01*
X701274Y-141231D01*
X701216Y-141298D01*
X701149Y-141394D01*
X701091Y-141509D01*
X701024Y-141654D01*
X700976Y-141817D01*
X700217Y-141711D01*
Y-141702D01*
X700226Y-141692D01*
X700236Y-141634D01*
X700265Y-141548D01*
X700294Y-141432D01*
X700342Y-141308D01*
X700399Y-141183D01*
X700467Y-141048D01*
X700553Y-140933D01*
X700563Y-140923D01*
X700601Y-140885D01*
X700649Y-140827D01*
X700726Y-140760D01*
X700822Y-140692D01*
X700947Y-140616D01*
X701082Y-140539D01*
X701236Y-140471D01*
X701245D01*
X701255Y-140462D01*
X701284Y-140452D01*
X701312Y-140443D01*
X701408Y-140424D01*
X701534Y-140385D01*
X701687Y-140356D01*
X701860Y-140337D01*
X702062Y-140318D01*
X702273Y-140308D01*
X702369D01*
X702475Y-140318D01*
D02*
G37*
G36*
X699150Y-144988D02*
X698372D01*
Y-138674D01*
X699150D01*
Y-144988D01*
D02*
G37*
G36*
X651523Y-138684D02*
X651590D01*
X651754Y-138694D01*
X651936Y-138723D01*
X652129Y-138751D01*
X652321Y-138799D01*
X652494Y-138867D01*
X652503D01*
X652513Y-138876D01*
X652570Y-138905D01*
X652647Y-138953D01*
X652743Y-139011D01*
X652859Y-139097D01*
X652974Y-139203D01*
X653080Y-139318D01*
X653186Y-139462D01*
X653195Y-139482D01*
X653224Y-139530D01*
X653262Y-139616D01*
X653310Y-139722D01*
X653359Y-139847D01*
X653397Y-139981D01*
X653426Y-140135D01*
X653435Y-140298D01*
Y-140318D01*
Y-140366D01*
X653426Y-140443D01*
X653407Y-140548D01*
X653378Y-140664D01*
X653339Y-140789D01*
X653291Y-140933D01*
X653214Y-141067D01*
X653205Y-141086D01*
X653176Y-141125D01*
X653118Y-141192D01*
X653051Y-141269D01*
X652955Y-141365D01*
X652840Y-141452D01*
X652705Y-141548D01*
X652542Y-141634D01*
X652551D01*
X652570Y-141644D01*
X652599Y-141654D01*
X652638Y-141663D01*
X652743Y-141711D01*
X652868Y-141769D01*
X653013Y-141855D01*
X653157Y-141951D01*
X653301Y-142067D01*
X653426Y-142211D01*
X653435Y-142230D01*
X653474Y-142278D01*
X653522Y-142365D01*
X653589Y-142480D01*
X653647Y-142624D01*
X653695Y-142778D01*
X653733Y-142961D01*
X653743Y-143162D01*
Y-143182D01*
Y-143239D01*
X653733Y-143326D01*
X653724Y-143431D01*
X653695Y-143556D01*
X653666Y-143701D01*
X653618Y-143845D01*
X653551Y-143989D01*
X653541Y-144008D01*
X653522Y-144056D01*
X653474Y-144123D01*
X653426Y-144210D01*
X653359Y-144306D01*
X653282Y-144402D01*
X653186Y-144498D01*
X653090Y-144585D01*
X653080Y-144594D01*
X653041Y-144613D01*
X652984Y-144652D01*
X652897Y-144700D01*
X652801Y-144748D01*
X652676Y-144796D01*
X652542Y-144844D01*
X652397Y-144892D01*
X652378D01*
X652321Y-144911D01*
X652234Y-144921D01*
X652119Y-144940D01*
X651965Y-144959D01*
X651792Y-144969D01*
X651600Y-144988D01*
X648976D01*
Y-138674D01*
X651456D01*
X651523Y-138684D01*
D02*
G37*
G36*
X663055Y-140414D02*
X663833D01*
Y-141019D01*
X663055D01*
Y-143701D01*
Y-143710D01*
Y-143748D01*
Y-143806D01*
X663065Y-143873D01*
X663074Y-144018D01*
X663084Y-144075D01*
X663094Y-144123D01*
X663103Y-144142D01*
X663122Y-144181D01*
X663161Y-144229D01*
X663218Y-144277D01*
X663238Y-144287D01*
X663286Y-144296D01*
X663372Y-144316D01*
X663487Y-144325D01*
X663584D01*
X663632Y-144316D01*
X663689D01*
X663833Y-144296D01*
X663939Y-144979D01*
X663920D01*
X663881Y-144988D01*
X663824Y-144998D01*
X663737Y-145007D01*
X663651Y-145027D01*
X663555Y-145036D01*
X663353Y-145046D01*
X663286D01*
X663209Y-145036D01*
X663113Y-145027D01*
X663007Y-145017D01*
X662892Y-144988D01*
X662786Y-144959D01*
X662690Y-144921D01*
X662680Y-144911D01*
X662651Y-144892D01*
X662613Y-144863D01*
X662565Y-144825D01*
X662507Y-144777D01*
X662459Y-144719D01*
X662402Y-144652D01*
X662363Y-144575D01*
Y-144565D01*
X662354Y-144527D01*
X662334Y-144469D01*
X662325Y-144373D01*
X662305Y-144248D01*
X662296Y-144181D01*
X662286Y-144095D01*
Y-143998D01*
X662277Y-143893D01*
Y-143777D01*
Y-143652D01*
Y-141019D01*
X661700D01*
Y-140414D01*
X662277D01*
Y-139289D01*
X663055Y-138819D01*
Y-140414D01*
D02*
G37*
G36*
X660604D02*
X661383D01*
Y-141019D01*
X660604D01*
Y-143701D01*
Y-143710D01*
Y-143748D01*
Y-143806D01*
X660614Y-143873D01*
X660624Y-144018D01*
X660633Y-144075D01*
X660643Y-144123D01*
X660652Y-144142D01*
X660672Y-144181D01*
X660710Y-144229D01*
X660768Y-144277D01*
X660787Y-144287D01*
X660835Y-144296D01*
X660922Y-144316D01*
X661037Y-144325D01*
X661133D01*
X661181Y-144316D01*
X661239D01*
X661383Y-144296D01*
X661489Y-144979D01*
X661469D01*
X661431Y-144988D01*
X661373Y-144998D01*
X661287Y-145007D01*
X661200Y-145027D01*
X661104Y-145036D01*
X660902Y-145046D01*
X660835D01*
X660758Y-145036D01*
X660662Y-145027D01*
X660556Y-145017D01*
X660441Y-144988D01*
X660335Y-144959D01*
X660239Y-144921D01*
X660230Y-144911D01*
X660201Y-144892D01*
X660162Y-144863D01*
X660114Y-144825D01*
X660057Y-144777D01*
X660009Y-144719D01*
X659951Y-144652D01*
X659913Y-144575D01*
Y-144565D01*
X659903Y-144527D01*
X659884Y-144469D01*
X659874Y-144373D01*
X659855Y-144248D01*
X659845Y-144181D01*
X659836Y-144095D01*
Y-143998D01*
X659826Y-143893D01*
Y-143777D01*
Y-143652D01*
Y-141019D01*
X659249D01*
Y-140414D01*
X659826D01*
Y-139289D01*
X660604Y-138819D01*
Y-140414D01*
D02*
G37*
G36*
X692577Y-140318D02*
X692654Y-140327D01*
X692750Y-140337D01*
X692846Y-140356D01*
X692961Y-140385D01*
X693192Y-140462D01*
X693317Y-140510D01*
X693442Y-140577D01*
X693567Y-140645D01*
X693692Y-140731D01*
X693807Y-140827D01*
X693922Y-140942D01*
X693932Y-140952D01*
X693951Y-140971D01*
X693980Y-141010D01*
X694019Y-141058D01*
X694057Y-141125D01*
X694105Y-141202D01*
X694163Y-141288D01*
X694220Y-141394D01*
X694268Y-141519D01*
X694326Y-141644D01*
X694374Y-141788D01*
X694422Y-141951D01*
X694451Y-142115D01*
X694480Y-142297D01*
X694499Y-142490D01*
X694509Y-142701D01*
Y-142711D01*
Y-142749D01*
Y-142816D01*
X694499Y-142903D01*
X691097D01*
Y-142912D01*
Y-142932D01*
X691107Y-142980D01*
Y-143028D01*
X691116Y-143095D01*
X691126Y-143162D01*
X691164Y-143335D01*
X691222Y-143518D01*
X691289Y-143710D01*
X691395Y-143902D01*
X691520Y-144066D01*
X691539Y-144085D01*
X691587Y-144123D01*
X691674Y-144191D01*
X691779Y-144258D01*
X691924Y-144335D01*
X692087Y-144402D01*
X692269Y-144440D01*
X692471Y-144460D01*
X692548D01*
X692625Y-144450D01*
X692721Y-144431D01*
X692836Y-144402D01*
X692961Y-144364D01*
X693086Y-144316D01*
X693202Y-144239D01*
X693211Y-144229D01*
X693250Y-144191D01*
X693307Y-144142D01*
X693375Y-144056D01*
X693451Y-143960D01*
X693528Y-143835D01*
X693605Y-143681D01*
X693682Y-143508D01*
X694480Y-143614D01*
Y-143624D01*
X694470Y-143643D01*
X694460Y-143681D01*
X694441Y-143729D01*
X694422Y-143787D01*
X694393Y-143854D01*
X694316Y-144018D01*
X694220Y-144191D01*
X694105Y-144373D01*
X693951Y-144556D01*
X693778Y-144710D01*
X693769D01*
X693759Y-144729D01*
X693730Y-144748D01*
X693682Y-144767D01*
X693634Y-144796D01*
X693576Y-144834D01*
X693509Y-144863D01*
X693423Y-144902D01*
X693240Y-144969D01*
X693009Y-145036D01*
X692760Y-145075D01*
X692471Y-145094D01*
X692375D01*
X692308Y-145084D01*
X692221Y-145075D01*
X692125Y-145065D01*
X692020Y-145046D01*
X691895Y-145017D01*
X691645Y-144940D01*
X691510Y-144892D01*
X691385Y-144834D01*
X691251Y-144767D01*
X691126Y-144681D01*
X691001Y-144585D01*
X690886Y-144479D01*
X690876Y-144469D01*
X690857Y-144450D01*
X690828Y-144412D01*
X690799Y-144364D01*
X690751Y-144306D01*
X690703Y-144229D01*
X690645Y-144133D01*
X690597Y-144027D01*
X690540Y-143912D01*
X690482Y-143787D01*
X690434Y-143643D01*
X690395Y-143489D01*
X690357Y-143326D01*
X690328Y-143143D01*
X690309Y-142951D01*
X690299Y-142749D01*
Y-142739D01*
Y-142701D01*
Y-142634D01*
X690309Y-142557D01*
X690319Y-142461D01*
X690328Y-142345D01*
X690347Y-142220D01*
X690376Y-142086D01*
X690444Y-141798D01*
X690492Y-141654D01*
X690549Y-141500D01*
X690617Y-141356D01*
X690693Y-141211D01*
X690780Y-141077D01*
X690886Y-140952D01*
X690895Y-140942D01*
X690914Y-140923D01*
X690943Y-140894D01*
X690991Y-140846D01*
X691049Y-140798D01*
X691126Y-140750D01*
X691203Y-140692D01*
X691299Y-140625D01*
X691404Y-140568D01*
X691520Y-140510D01*
X691645Y-140462D01*
X691789Y-140404D01*
X691933Y-140366D01*
X692087Y-140337D01*
X692250Y-140318D01*
X692423Y-140308D01*
X692510D01*
X692577Y-140318D01*
D02*
G37*
G36*
X682294Y-138578D02*
X682371D01*
X682467Y-138588D01*
X682563Y-138607D01*
X682679Y-138617D01*
X682919Y-138674D01*
X683188Y-138751D01*
X683457Y-138847D01*
X683592Y-138915D01*
X683726Y-138992D01*
X683736D01*
X683755Y-139011D01*
X683793Y-139030D01*
X683842Y-139068D01*
X683899Y-139107D01*
X683966Y-139164D01*
X684120Y-139289D01*
X684293Y-139453D01*
X684476Y-139655D01*
X684639Y-139885D01*
X684793Y-140154D01*
Y-140164D01*
X684812Y-140193D01*
X684831Y-140231D01*
X684851Y-140289D01*
X684879Y-140356D01*
X684908Y-140443D01*
X684947Y-140539D01*
X684985Y-140645D01*
X685014Y-140769D01*
X685052Y-140894D01*
X685110Y-141183D01*
X685148Y-141500D01*
X685168Y-141846D01*
Y-141855D01*
Y-141884D01*
Y-141942D01*
X685158Y-142009D01*
Y-142096D01*
X685148Y-142192D01*
X685139Y-142297D01*
X685120Y-142422D01*
X685072Y-142691D01*
X685004Y-142980D01*
X684908Y-143278D01*
X684774Y-143566D01*
Y-143576D01*
X684754Y-143595D01*
X684735Y-143633D01*
X684706Y-143691D01*
X684658Y-143748D01*
X684610Y-143825D01*
X684495Y-143989D01*
X684341Y-144171D01*
X684149Y-144364D01*
X683928Y-144546D01*
X683678Y-144710D01*
X683669D01*
X683649Y-144729D01*
X683611Y-144748D01*
X683553Y-144767D01*
X683486Y-144796D01*
X683409Y-144834D01*
X683322Y-144863D01*
X683217Y-144902D01*
X682996Y-144969D01*
X682736Y-145036D01*
X682448Y-145075D01*
X682150Y-145094D01*
X682064D01*
X681996Y-145084D01*
X681919D01*
X681833Y-145075D01*
X681727Y-145055D01*
X681612Y-145036D01*
X681372Y-144988D01*
X681103Y-144911D01*
X680824Y-144806D01*
X680689Y-144748D01*
X680555Y-144671D01*
X680545Y-144661D01*
X680526Y-144652D01*
X680488Y-144623D01*
X680440Y-144594D01*
X680382Y-144546D01*
X680315Y-144498D01*
X680161Y-144364D01*
X679988Y-144191D01*
X679805Y-143998D01*
X679642Y-143758D01*
X679488Y-143499D01*
Y-143489D01*
X679469Y-143460D01*
X679459Y-143422D01*
X679430Y-143364D01*
X679402Y-143297D01*
X679373Y-143220D01*
X679344Y-143124D01*
X679315Y-143018D01*
X679277Y-142903D01*
X679248Y-142788D01*
X679190Y-142518D01*
X679152Y-142230D01*
X679133Y-141923D01*
Y-141903D01*
Y-141855D01*
X679142Y-141769D01*
Y-141663D01*
X679161Y-141529D01*
X679181Y-141375D01*
X679200Y-141211D01*
X679238Y-141019D01*
X679286Y-140827D01*
X679334Y-140625D01*
X679402Y-140424D01*
X679488Y-140222D01*
X679584Y-140020D01*
X679690Y-139818D01*
X679824Y-139635D01*
X679969Y-139462D01*
X679978Y-139453D01*
X680007Y-139424D01*
X680055Y-139376D01*
X680122Y-139318D01*
X680209Y-139251D01*
X680305Y-139184D01*
X680420Y-139097D01*
X680555Y-139011D01*
X680709Y-138934D01*
X680872Y-138847D01*
X681055Y-138780D01*
X681247Y-138703D01*
X681449Y-138655D01*
X681670Y-138607D01*
X681910Y-138578D01*
X682150Y-138569D01*
X682237D01*
X682294Y-138578D01*
D02*
G37*
G36*
X666601Y-140318D02*
X666688Y-140327D01*
X666774Y-140337D01*
X666880Y-140356D01*
X666995Y-140385D01*
X667235Y-140462D01*
X667360Y-140510D01*
X667495Y-140568D01*
X667620Y-140645D01*
X667745Y-140731D01*
X667870Y-140827D01*
X667985Y-140933D01*
X667995Y-140942D01*
X668014Y-140962D01*
X668043Y-141000D01*
X668081Y-141048D01*
X668129Y-141106D01*
X668177Y-141183D01*
X668235Y-141279D01*
X668293Y-141375D01*
X668340Y-141490D01*
X668398Y-141625D01*
X668446Y-141759D01*
X668494Y-141913D01*
X668533Y-142076D01*
X668562Y-142259D01*
X668581Y-142442D01*
X668590Y-142643D01*
Y-142653D01*
Y-142682D01*
Y-142730D01*
Y-142788D01*
X668581Y-142864D01*
Y-142951D01*
X668571Y-143047D01*
X668562Y-143153D01*
X668523Y-143374D01*
X668475Y-143604D01*
X668408Y-143835D01*
X668321Y-144037D01*
Y-144046D01*
X668312Y-144056D01*
X668273Y-144123D01*
X668206Y-144210D01*
X668119Y-144325D01*
X668014Y-144450D01*
X667879Y-144575D01*
X667726Y-144700D01*
X667543Y-144815D01*
X667533D01*
X667524Y-144825D01*
X667495Y-144844D01*
X667456Y-144854D01*
X667351Y-144902D01*
X667216Y-144950D01*
X667053Y-145007D01*
X666870Y-145046D01*
X666668Y-145084D01*
X666447Y-145094D01*
X666351D01*
X666284Y-145084D01*
X666207Y-145075D01*
X666111Y-145065D01*
X666005Y-145046D01*
X665890Y-145017D01*
X665650Y-144940D01*
X665515Y-144892D01*
X665390Y-144834D01*
X665256Y-144767D01*
X665131Y-144681D01*
X665006Y-144585D01*
X664890Y-144479D01*
X664881Y-144469D01*
X664862Y-144450D01*
X664833Y-144412D01*
X664804Y-144364D01*
X664756Y-144296D01*
X664708Y-144219D01*
X664650Y-144133D01*
X664602Y-144027D01*
X664545Y-143902D01*
X664487Y-143777D01*
X664439Y-143624D01*
X664400Y-143470D01*
X664362Y-143297D01*
X664333Y-143114D01*
X664314Y-142912D01*
X664304Y-142701D01*
Y-142682D01*
Y-142643D01*
X664314Y-142576D01*
Y-142490D01*
X664324Y-142384D01*
X664343Y-142269D01*
X664362Y-142134D01*
X664391Y-141990D01*
X664429Y-141836D01*
X664477Y-141682D01*
X664535Y-141529D01*
X664602Y-141375D01*
X664679Y-141221D01*
X664775Y-141077D01*
X664881Y-140942D01*
X665006Y-140817D01*
X665016Y-140808D01*
X665035Y-140798D01*
X665063Y-140769D01*
X665112Y-140741D01*
X665169Y-140702D01*
X665237Y-140654D01*
X665313Y-140606D01*
X665410Y-140558D01*
X665506Y-140520D01*
X665611Y-140471D01*
X665861Y-140385D01*
X666140Y-140327D01*
X666294Y-140318D01*
X666447Y-140308D01*
X666534D01*
X666601Y-140318D01*
D02*
G37*
G36*
X656799D02*
X656885Y-140327D01*
X656972Y-140337D01*
X657078Y-140356D01*
X657193Y-140385D01*
X657433Y-140462D01*
X657558Y-140510D01*
X657693Y-140568D01*
X657818Y-140645D01*
X657942Y-140731D01*
X658067Y-140827D01*
X658183Y-140933D01*
X658192Y-140942D01*
X658212Y-140962D01*
X658240Y-141000D01*
X658279Y-141048D01*
X658327Y-141106D01*
X658375Y-141183D01*
X658433Y-141279D01*
X658490Y-141375D01*
X658538Y-141490D01*
X658596Y-141625D01*
X658644Y-141759D01*
X658692Y-141913D01*
X658731Y-142076D01*
X658759Y-142259D01*
X658779Y-142442D01*
X658788Y-142643D01*
Y-142653D01*
Y-142682D01*
Y-142730D01*
Y-142788D01*
X658779Y-142864D01*
Y-142951D01*
X658769Y-143047D01*
X658759Y-143153D01*
X658721Y-143374D01*
X658673Y-143604D01*
X658606Y-143835D01*
X658519Y-144037D01*
Y-144046D01*
X658509Y-144056D01*
X658471Y-144123D01*
X658404Y-144210D01*
X658317Y-144325D01*
X658212Y-144450D01*
X658077Y-144575D01*
X657923Y-144700D01*
X657741Y-144815D01*
X657731D01*
X657722Y-144825D01*
X657693Y-144844D01*
X657654Y-144854D01*
X657549Y-144902D01*
X657414Y-144950D01*
X657251Y-145007D01*
X657068Y-145046D01*
X656866Y-145084D01*
X656645Y-145094D01*
X656549D01*
X656482Y-145084D01*
X656405Y-145075D01*
X656309Y-145065D01*
X656203Y-145046D01*
X656088Y-145017D01*
X655848Y-144940D01*
X655713Y-144892D01*
X655588Y-144834D01*
X655453Y-144767D01*
X655329Y-144681D01*
X655204Y-144585D01*
X655088Y-144479D01*
X655079Y-144469D01*
X655059Y-144450D01*
X655031Y-144412D01*
X655002Y-144364D01*
X654954Y-144296D01*
X654906Y-144219D01*
X654848Y-144133D01*
X654800Y-144027D01*
X654742Y-143902D01*
X654685Y-143777D01*
X654637Y-143624D01*
X654598Y-143470D01*
X654560Y-143297D01*
X654531Y-143114D01*
X654512Y-142912D01*
X654502Y-142701D01*
Y-142682D01*
Y-142643D01*
X654512Y-142576D01*
Y-142490D01*
X654521Y-142384D01*
X654541Y-142269D01*
X654560Y-142134D01*
X654589Y-141990D01*
X654627Y-141836D01*
X654675Y-141682D01*
X654733Y-141529D01*
X654800Y-141375D01*
X654877Y-141221D01*
X654973Y-141077D01*
X655079Y-140942D01*
X655204Y-140817D01*
X655213Y-140808D01*
X655232Y-140798D01*
X655261Y-140769D01*
X655309Y-140741D01*
X655367Y-140702D01*
X655434Y-140654D01*
X655511Y-140606D01*
X655607Y-140558D01*
X655703Y-140520D01*
X655809Y-140471D01*
X656059Y-140385D01*
X656338Y-140327D01*
X656491Y-140318D01*
X656645Y-140308D01*
X656732D01*
X656799Y-140318D01*
D02*
G37*
G36*
X194071Y318301D02*
X194121Y318295D01*
X194167Y318285D01*
X194211Y318276D01*
X194289Y318245D01*
X194323Y318226D01*
X194355Y318210D01*
X194386Y318192D01*
X194411Y318173D01*
X194433Y318157D01*
X194448Y318145D01*
X194464Y318132D01*
X194473Y318123D01*
X194479Y318117D01*
X194483Y318114D01*
X194514Y318076D01*
X194542Y318039D01*
X194567Y317998D01*
X194585Y317954D01*
X194604Y317914D01*
X194620Y317870D01*
X194642Y317792D01*
X194648Y317755D01*
X194654Y317721D01*
X194657Y317689D01*
X194660Y317664D01*
X194663Y317642D01*
Y317624D01*
Y317614D01*
Y317611D01*
X194660Y317555D01*
X194657Y317502D01*
X194648Y317455D01*
X194635Y317408D01*
X194623Y317365D01*
X194607Y317324D01*
X194592Y317287D01*
X194576Y317256D01*
X194561Y317224D01*
X194545Y317199D01*
X194529Y317178D01*
X194517Y317159D01*
X194504Y317143D01*
X194495Y317134D01*
X194492Y317128D01*
X194489Y317125D01*
X194454Y317093D01*
X194420Y317065D01*
X194383Y317040D01*
X194348Y317019D01*
X194311Y317000D01*
X194277Y316984D01*
X194208Y316962D01*
X194149Y316950D01*
X194124Y316947D01*
X194102Y316944D01*
X194083Y316940D01*
X194058D01*
X194002Y316944D01*
X193949Y316953D01*
X193902Y316962D01*
X193862Y316978D01*
X193827Y316990D01*
X193799Y317000D01*
X193784Y317009D01*
X193777Y317012D01*
X193731Y317043D01*
X193690Y317075D01*
X193653Y317109D01*
X193624Y317140D01*
X193599Y317165D01*
X193584Y317190D01*
X193571Y317202D01*
X193568Y317209D01*
Y317187D01*
Y317171D01*
Y317162D01*
Y317159D01*
Y317100D01*
X193575Y317043D01*
X193581Y316993D01*
X193587Y316947D01*
X193593Y316906D01*
X193599Y316875D01*
X193603Y316866D01*
Y316856D01*
X193606Y316853D01*
Y316850D01*
X193621Y316797D01*
X193637Y316750D01*
X193653Y316710D01*
X193665Y316675D01*
X193681Y316647D01*
X193690Y316625D01*
X193696Y316613D01*
X193699Y316610D01*
X193721Y316579D01*
X193746Y316550D01*
X193768Y316526D01*
X193793Y316507D01*
X193812Y316491D01*
X193827Y316479D01*
X193840Y316473D01*
X193843Y316469D01*
X193877Y316451D01*
X193912Y316438D01*
X193946Y316429D01*
X193977Y316423D01*
X194005Y316419D01*
X194027Y316416D01*
X194046D01*
X194096Y316419D01*
X194139Y316429D01*
X194177Y316441D01*
X194208Y316454D01*
X194236Y316466D01*
X194255Y316479D01*
X194267Y316488D01*
X194270Y316491D01*
X194301Y316522D01*
X194326Y316563D01*
X194345Y316603D01*
X194361Y316644D01*
X194373Y316678D01*
X194379Y316710D01*
X194383Y316722D01*
X194386Y316731D01*
Y316735D01*
Y316738D01*
X194626Y316719D01*
X194610Y316632D01*
X194585Y316557D01*
X194557Y316491D01*
X194526Y316438D01*
X194495Y316398D01*
X194470Y316366D01*
X194451Y316348D01*
X194448Y316344D01*
X194445Y316341D01*
X194383Y316298D01*
X194320Y316266D01*
X194255Y316242D01*
X194192Y316226D01*
X194136Y316217D01*
X194111Y316213D01*
X194093D01*
X194074Y316210D01*
X194052D01*
X193971Y316217D01*
X193893Y316229D01*
X193827Y316248D01*
X193768Y316270D01*
X193721Y316291D01*
X193702Y316301D01*
X193687Y316310D01*
X193671Y316320D01*
X193662Y316323D01*
X193659Y316329D01*
X193656D01*
X193596Y316379D01*
X193546Y316435D01*
X193503Y316494D01*
X193465Y316554D01*
X193437Y316603D01*
X193428Y316625D01*
X193419Y316647D01*
X193412Y316663D01*
X193406Y316675D01*
X193403Y316682D01*
Y316685D01*
X193387Y316731D01*
X193375Y316778D01*
X193353Y316881D01*
X193337Y316987D01*
X193325Y317087D01*
X193322Y317134D01*
X193319Y317175D01*
Y317215D01*
X193316Y317246D01*
Y317274D01*
Y317293D01*
Y317309D01*
Y317312D01*
Y317380D01*
X193319Y317446D01*
X193325Y317505D01*
X193328Y317561D01*
X193334Y317611D01*
X193344Y317658D01*
X193350Y317702D01*
X193359Y317739D01*
X193369Y317774D01*
X193375Y317805D01*
X193381Y317830D01*
X193391Y317848D01*
X193394Y317864D01*
X193400Y317877D01*
X193403Y317883D01*
Y317886D01*
X193437Y317958D01*
X193478Y318020D01*
X193521Y318070D01*
X193562Y318117D01*
X193599Y318151D01*
X193628Y318176D01*
X193640Y318182D01*
X193649Y318189D01*
X193653Y318195D01*
X193656D01*
X193718Y318232D01*
X193784Y318257D01*
X193843Y318276D01*
X193899Y318291D01*
X193949Y318298D01*
X193971Y318301D01*
X193986D01*
X194002Y318304D01*
X194021D01*
X194071Y318301D01*
D02*
G37*
G36*
X198370Y318054D02*
X197696D01*
Y316245D01*
X197425D01*
Y318054D01*
X196751D01*
Y318295D01*
X198370D01*
Y318054D01*
D02*
G37*
G36*
X196470Y316245D02*
X196198D01*
Y317081D01*
X195674D01*
X195596Y317084D01*
X195525Y317087D01*
X195459Y317096D01*
X195397Y317109D01*
X195344Y317121D01*
X195294Y317137D01*
X195250Y317153D01*
X195213Y317171D01*
X195178Y317187D01*
X195150Y317202D01*
X195128Y317218D01*
X195106Y317231D01*
X195094Y317243D01*
X195085Y317252D01*
X195078Y317256D01*
X195075Y317259D01*
X195044Y317293D01*
X195019Y317331D01*
X194997Y317368D01*
X194979Y317405D01*
X194947Y317477D01*
X194929Y317549D01*
X194919Y317580D01*
X194916Y317608D01*
X194913Y317636D01*
X194910Y317658D01*
X194907Y317677D01*
Y317689D01*
Y317699D01*
Y317702D01*
X194910Y317758D01*
X194916Y317811D01*
X194925Y317858D01*
X194938Y317898D01*
X194950Y317933D01*
X194960Y317958D01*
X194966Y317973D01*
X194969Y317979D01*
X194994Y318026D01*
X195022Y318064D01*
X195050Y318098D01*
X195075Y318126D01*
X195097Y318148D01*
X195116Y318163D01*
X195131Y318173D01*
X195135Y318176D01*
X195175Y318201D01*
X195219Y318223D01*
X195259Y318238D01*
X195300Y318251D01*
X195334Y318260D01*
X195362Y318267D01*
X195381Y318273D01*
X195387D01*
X195431Y318279D01*
X195481Y318285D01*
X195534Y318288D01*
X195584Y318291D01*
X195631Y318295D01*
X196470D01*
Y316245D01*
D02*
G37*
%LPC*%
G36*
X703263Y-142691D02*
X703244Y-142701D01*
X703215Y-142711D01*
X703186Y-142720D01*
X703138Y-142739D01*
X703081Y-142749D01*
X703023Y-142768D01*
X702946Y-142797D01*
X702860Y-142816D01*
X702764Y-142836D01*
X702668Y-142864D01*
X702552Y-142893D01*
X702427Y-142912D01*
X702293Y-142941D01*
X702148Y-142961D01*
X701995Y-142989D01*
X701975D01*
X701918Y-142999D01*
X701831Y-143018D01*
X701726Y-143037D01*
X701505Y-143085D01*
X701399Y-143114D01*
X701312Y-143143D01*
X701303D01*
X701284Y-143162D01*
X701245Y-143182D01*
X701207Y-143210D01*
X701111Y-143287D01*
X701015Y-143403D01*
Y-143412D01*
X700995Y-143431D01*
X700986Y-143460D01*
X700967Y-143508D01*
X700928Y-143624D01*
X700918Y-143691D01*
X700909Y-143768D01*
Y-143777D01*
Y-143816D01*
X700918Y-143873D01*
X700938Y-143950D01*
X700967Y-144027D01*
X701005Y-144114D01*
X701063Y-144200D01*
X701139Y-144287D01*
X701149Y-144296D01*
X701188Y-144316D01*
X701236Y-144354D01*
X701312Y-144383D01*
X701408Y-144421D01*
X701534Y-144460D01*
X701668Y-144479D01*
X701831Y-144489D01*
X701908D01*
X701985Y-144479D01*
X702101Y-144460D01*
X702216Y-144440D01*
X702350Y-144412D01*
X702485Y-144364D01*
X702619Y-144296D01*
X702639Y-144287D01*
X702677Y-144258D01*
X702744Y-144219D01*
X702821Y-144152D01*
X702898Y-144085D01*
X702985Y-143989D01*
X703071Y-143883D01*
X703138Y-143758D01*
X703148Y-143748D01*
X703158Y-143710D01*
X703177Y-143652D01*
X703206Y-143566D01*
X703225Y-143451D01*
X703244Y-143316D01*
X703254Y-143162D01*
X703263Y-142980D01*
Y-142691D01*
D02*
G37*
G36*
X651302Y-139414D02*
X649812D01*
Y-141336D01*
X651360D01*
X651475Y-141327D01*
X651610Y-141317D01*
X651744Y-141308D01*
X651859Y-141288D01*
X651965Y-141269D01*
X651975Y-141260D01*
X652013Y-141250D01*
X652071Y-141231D01*
X652148Y-141192D01*
X652225Y-141154D01*
X652301Y-141096D01*
X652378Y-141029D01*
X652446Y-140952D01*
X652455Y-140942D01*
X652474Y-140914D01*
X652494Y-140866D01*
X652532Y-140798D01*
X652561Y-140721D01*
X652580Y-140625D01*
X652599Y-140520D01*
X652609Y-140395D01*
Y-140385D01*
Y-140337D01*
X652599Y-140279D01*
X652590Y-140202D01*
X652570Y-140116D01*
X652542Y-140029D01*
X652503Y-139933D01*
X652455Y-139837D01*
X652446Y-139828D01*
X652426Y-139799D01*
X652388Y-139760D01*
X652340Y-139703D01*
X652282Y-139655D01*
X652205Y-139597D01*
X652119Y-139549D01*
X652023Y-139511D01*
X652013D01*
X651965Y-139491D01*
X651898Y-139482D01*
X651802Y-139462D01*
X651667Y-139443D01*
X651504Y-139434D01*
X651302Y-139414D01*
D02*
G37*
G36*
X651475Y-142076D02*
X649812D01*
Y-144248D01*
X651600D01*
X651792Y-144239D01*
X651879Y-144229D01*
X651946Y-144219D01*
X651956D01*
X651994Y-144210D01*
X652052Y-144200D01*
X652119Y-144181D01*
X652273Y-144133D01*
X652426Y-144056D01*
X652436Y-144046D01*
X652465Y-144037D01*
X652494Y-144008D01*
X652542Y-143960D01*
X652599Y-143912D01*
X652647Y-143854D01*
X652705Y-143777D01*
X652753Y-143701D01*
X652763Y-143691D01*
X652772Y-143662D01*
X652792Y-143614D01*
X652820Y-143547D01*
X652840Y-143470D01*
X652859Y-143374D01*
X652868Y-143278D01*
X652878Y-143162D01*
Y-143143D01*
Y-143105D01*
X652868Y-143037D01*
X652859Y-142961D01*
X652830Y-142864D01*
X652801Y-142759D01*
X652753Y-142653D01*
X652686Y-142557D01*
X652676Y-142547D01*
X652657Y-142509D01*
X652609Y-142470D01*
X652551Y-142413D01*
X652484Y-142345D01*
X652397Y-142288D01*
X652301Y-142230D01*
X652186Y-142182D01*
X652167Y-142173D01*
X652129Y-142163D01*
X652052Y-142144D01*
X651956Y-142124D01*
X651821Y-142105D01*
X651667Y-142096D01*
X651475Y-142076D01*
D02*
G37*
G36*
X692433Y-140942D02*
X692385D01*
X692346Y-140952D01*
X692241Y-140962D01*
X692116Y-140990D01*
X691971Y-141029D01*
X691827Y-141096D01*
X691674Y-141183D01*
X691530Y-141308D01*
X691510Y-141327D01*
X691472Y-141375D01*
X691414Y-141452D01*
X691347Y-141567D01*
X691280Y-141702D01*
X691212Y-141865D01*
X691164Y-142057D01*
X691136Y-142269D01*
X693692D01*
Y-142259D01*
Y-142240D01*
X693682Y-142211D01*
Y-142173D01*
X693663Y-142067D01*
X693634Y-141942D01*
X693596Y-141807D01*
X693538Y-141663D01*
X693480Y-141519D01*
X693394Y-141404D01*
Y-141394D01*
X693375Y-141384D01*
X693327Y-141327D01*
X693240Y-141260D01*
X693134Y-141173D01*
X692990Y-141086D01*
X692827Y-141010D01*
X692644Y-140962D01*
X692538Y-140952D01*
X692433Y-140942D01*
D02*
G37*
G36*
X682150Y-139289D02*
X682064D01*
X682006Y-139299D01*
X681929Y-139309D01*
X681833Y-139318D01*
X681737Y-139338D01*
X681631Y-139366D01*
X681391Y-139443D01*
X681266Y-139491D01*
X681141Y-139549D01*
X681006Y-139616D01*
X680882Y-139703D01*
X680757Y-139799D01*
X680632Y-139904D01*
X680622Y-139914D01*
X680603Y-139933D01*
X680574Y-139972D01*
X680536Y-140020D01*
X680488Y-140087D01*
X680430Y-140174D01*
X680372Y-140270D01*
X680315Y-140385D01*
X680257Y-140520D01*
X680199Y-140664D01*
X680142Y-140827D01*
X680094Y-141019D01*
X680055Y-141221D01*
X680026Y-141432D01*
X680007Y-141673D01*
X679997Y-141932D01*
Y-141942D01*
Y-141980D01*
Y-142038D01*
X680007Y-142124D01*
X680017Y-142220D01*
X680026Y-142326D01*
X680046Y-142451D01*
X680074Y-142586D01*
X680142Y-142874D01*
X680199Y-143018D01*
X680257Y-143172D01*
X680324Y-143316D01*
X680401Y-143460D01*
X680497Y-143604D01*
X680603Y-143729D01*
X680613Y-143739D01*
X680632Y-143758D01*
X680670Y-143787D01*
X680718Y-143835D01*
X680776Y-143883D01*
X680843Y-143931D01*
X680930Y-143998D01*
X681026Y-144056D01*
X681131Y-144114D01*
X681247Y-144171D01*
X681372Y-144229D01*
X681516Y-144277D01*
X681660Y-144325D01*
X681814Y-144354D01*
X681967Y-144373D01*
X682140Y-144383D01*
X682227D01*
X682294Y-144373D01*
X682381Y-144364D01*
X682467Y-144344D01*
X682573Y-144325D01*
X682688Y-144296D01*
X682929Y-144219D01*
X683063Y-144171D01*
X683188Y-144104D01*
X683322Y-144027D01*
X683448Y-143941D01*
X683572Y-143845D01*
X683688Y-143729D01*
X683697Y-143720D01*
X683716Y-143701D01*
X683745Y-143662D01*
X683784Y-143604D01*
X683832Y-143537D01*
X683880Y-143451D01*
X683938Y-143354D01*
X683995Y-143249D01*
X684053Y-143114D01*
X684110Y-142980D01*
X684159Y-142826D01*
X684207Y-142653D01*
X684245Y-142470D01*
X684274Y-142278D01*
X684293Y-142067D01*
X684303Y-141846D01*
Y-141836D01*
Y-141807D01*
Y-141769D01*
Y-141721D01*
X684293Y-141654D01*
Y-141567D01*
X684274Y-141384D01*
X684235Y-141183D01*
X684187Y-140952D01*
X684120Y-140721D01*
X684034Y-140500D01*
Y-140491D01*
X684024Y-140471D01*
X684005Y-140443D01*
X683986Y-140404D01*
X683928Y-140298D01*
X683842Y-140174D01*
X683736Y-140029D01*
X683601Y-139876D01*
X683448Y-139732D01*
X683275Y-139607D01*
X683265D01*
X683255Y-139597D01*
X683226Y-139578D01*
X683188Y-139558D01*
X683082Y-139511D01*
X682948Y-139443D01*
X682784Y-139386D01*
X682592Y-139338D01*
X682381Y-139299D01*
X682150Y-139289D01*
D02*
G37*
G36*
X666553Y-140952D02*
X666390D01*
X666351Y-140962D01*
X666246Y-140971D01*
X666111Y-141010D01*
X665957Y-141058D01*
X665794Y-141135D01*
X665630Y-141250D01*
X665554Y-141317D01*
X665477Y-141394D01*
X665457Y-141413D01*
X665438Y-141442D01*
X665419Y-141471D01*
X665390Y-141519D01*
X665361Y-141577D01*
X665323Y-141644D01*
X665294Y-141721D01*
X665256Y-141807D01*
X665217Y-141903D01*
X665189Y-142009D01*
X665160Y-142134D01*
X665140Y-142259D01*
X665121Y-142403D01*
X665102Y-142547D01*
Y-142711D01*
Y-142720D01*
Y-142749D01*
Y-142797D01*
X665112Y-142855D01*
Y-142922D01*
X665121Y-143008D01*
X665150Y-143201D01*
X665198Y-143412D01*
X665256Y-143633D01*
X665352Y-143845D01*
X665410Y-143941D01*
X665477Y-144027D01*
X665496Y-144046D01*
X665544Y-144095D01*
X665630Y-144162D01*
X665746Y-144239D01*
X665880Y-144325D01*
X666053Y-144392D01*
X666236Y-144440D01*
X666342Y-144450D01*
X666447Y-144460D01*
X666505D01*
X666543Y-144450D01*
X666649Y-144440D01*
X666784Y-144402D01*
X666937Y-144354D01*
X667101Y-144277D01*
X667255Y-144171D01*
X667332Y-144104D01*
X667408Y-144027D01*
Y-144018D01*
X667428Y-144008D01*
X667447Y-143979D01*
X667466Y-143941D01*
X667495Y-143893D01*
X667533Y-143835D01*
X667562Y-143768D01*
X667601Y-143691D01*
X667639Y-143604D01*
X667668Y-143508D01*
X667706Y-143393D01*
X667735Y-143268D01*
X667754Y-143143D01*
X667773Y-142999D01*
X667793Y-142845D01*
Y-142682D01*
Y-142672D01*
Y-142643D01*
Y-142605D01*
X667783Y-142538D01*
Y-142470D01*
X667773Y-142394D01*
X667745Y-142201D01*
X667697Y-141999D01*
X667629Y-141779D01*
X667533Y-141577D01*
X667399Y-141394D01*
Y-141384D01*
X667380Y-141375D01*
X667332Y-141327D01*
X667245Y-141250D01*
X667139Y-141173D01*
X666995Y-141096D01*
X666832Y-141019D01*
X666649Y-140971D01*
X666553Y-140952D01*
D02*
G37*
G36*
X656751D02*
X656588D01*
X656549Y-140962D01*
X656443Y-140971D01*
X656309Y-141010D01*
X656155Y-141058D01*
X655992Y-141135D01*
X655828Y-141250D01*
X655751Y-141317D01*
X655675Y-141394D01*
X655655Y-141413D01*
X655636Y-141442D01*
X655617Y-141471D01*
X655588Y-141519D01*
X655559Y-141577D01*
X655521Y-141644D01*
X655492Y-141721D01*
X655453Y-141807D01*
X655415Y-141903D01*
X655386Y-142009D01*
X655357Y-142134D01*
X655338Y-142259D01*
X655319Y-142403D01*
X655300Y-142547D01*
Y-142711D01*
Y-142720D01*
Y-142749D01*
Y-142797D01*
X655309Y-142855D01*
Y-142922D01*
X655319Y-143008D01*
X655348Y-143201D01*
X655396Y-143412D01*
X655453Y-143633D01*
X655550Y-143845D01*
X655607Y-143941D01*
X655675Y-144027D01*
X655694Y-144046D01*
X655742Y-144095D01*
X655828Y-144162D01*
X655944Y-144239D01*
X656078Y-144325D01*
X656251Y-144392D01*
X656434Y-144440D01*
X656539Y-144450D01*
X656645Y-144460D01*
X656703D01*
X656741Y-144450D01*
X656847Y-144440D01*
X656982Y-144402D01*
X657135Y-144354D01*
X657299Y-144277D01*
X657452Y-144171D01*
X657529Y-144104D01*
X657606Y-144027D01*
Y-144018D01*
X657625Y-144008D01*
X657645Y-143979D01*
X657664Y-143941D01*
X657693Y-143893D01*
X657731Y-143835D01*
X657760Y-143768D01*
X657798Y-143691D01*
X657837Y-143604D01*
X657866Y-143508D01*
X657904Y-143393D01*
X657933Y-143268D01*
X657952Y-143143D01*
X657971Y-142999D01*
X657991Y-142845D01*
Y-142682D01*
Y-142672D01*
Y-142643D01*
Y-142605D01*
X657981Y-142538D01*
Y-142470D01*
X657971Y-142394D01*
X657942Y-142201D01*
X657895Y-141999D01*
X657827Y-141779D01*
X657731Y-141577D01*
X657597Y-141394D01*
Y-141384D01*
X657577Y-141375D01*
X657529Y-141327D01*
X657443Y-141250D01*
X657337Y-141173D01*
X657193Y-141096D01*
X657030Y-141019D01*
X656847Y-140971D01*
X656751Y-140952D01*
D02*
G37*
G36*
X194005Y318095D02*
X193990D01*
X193930Y318089D01*
X193877Y318076D01*
X193830Y318054D01*
X193790Y318033D01*
X193755Y318007D01*
X193734Y317986D01*
X193718Y317973D01*
X193712Y317967D01*
X193674Y317914D01*
X193646Y317858D01*
X193624Y317802D01*
X193612Y317745D01*
X193603Y317695D01*
X193599Y317677D01*
Y317658D01*
X193596Y317642D01*
Y317630D01*
Y317624D01*
Y317621D01*
X193603Y317546D01*
X193615Y317477D01*
X193634Y317421D01*
X193653Y317371D01*
X193674Y317334D01*
X193693Y317305D01*
X193706Y317290D01*
X193712Y317284D01*
X193755Y317243D01*
X193802Y317212D01*
X193852Y317193D01*
X193896Y317178D01*
X193937Y317168D01*
X193968Y317165D01*
X193980Y317162D01*
X193996D01*
X194058Y317168D01*
X194114Y317181D01*
X194164Y317199D01*
X194208Y317224D01*
X194242Y317246D01*
X194267Y317265D01*
X194283Y317277D01*
X194289Y317284D01*
X194326Y317334D01*
X194355Y317384D01*
X194376Y317437D01*
X194389Y317490D01*
X194398Y317533D01*
X194401Y317571D01*
X194404Y317583D01*
Y317593D01*
Y317599D01*
Y317602D01*
X194398Y317680D01*
X194386Y317748D01*
X194367Y317811D01*
X194342Y317861D01*
X194320Y317901D01*
X194301Y317933D01*
X194289Y317951D01*
X194283Y317958D01*
X194258Y317983D01*
X194233Y318004D01*
X194183Y318036D01*
X194136Y318060D01*
X194089Y318079D01*
X194049Y318089D01*
X194018Y318092D01*
X194005Y318095D01*
D02*
G37*
G36*
X196198Y318054D02*
X195615D01*
X195559Y318051D01*
X195515Y318048D01*
X195481Y318045D01*
X195456Y318042D01*
X195437Y318039D01*
X195428Y318036D01*
X195425D01*
X195387Y318020D01*
X195353Y318004D01*
X195325Y317983D01*
X195300Y317964D01*
X195278Y317945D01*
X195266Y317930D01*
X195256Y317917D01*
X195253Y317914D01*
X195231Y317880D01*
X195216Y317842D01*
X195203Y317805D01*
X195197Y317770D01*
X195191Y317739D01*
X195188Y317714D01*
Y317699D01*
Y317692D01*
X195194Y317630D01*
X195206Y317574D01*
X195222Y317527D01*
X195244Y317490D01*
X195266Y317458D01*
X195281Y317437D01*
X195294Y317421D01*
X195300Y317418D01*
X195322Y317402D01*
X195347Y317387D01*
X195403Y317362D01*
X195465Y317346D01*
X195528Y317334D01*
X195584Y317327D01*
X195606Y317324D01*
X195627D01*
X195646Y317321D01*
X196198D01*
Y318054D01*
D02*
G37*
%LPD*%
D10*
X256784Y107564D02*
G03*
X256784Y107564I-934J0D01*
G01*
X235209Y339138D02*
G03*
X235209Y339138I-599J0D01*
G01*
X272955Y276063D02*
G03*
X272955Y278563I0J1250D01*
G01*
X50378Y90320D02*
G03*
X47878Y90320I-1250J0D01*
G01*
X50378Y65949D02*
G03*
X47878Y65949I-1250J0D01*
G01*
X113350Y126008D02*
G03*
X113350Y128508I0J1250D01*
G01*
X60051Y329296D02*
G03*
X60051Y329296I-599J0D01*
G01*
X27610Y221304D02*
G03*
X27610Y221304I-599J0D01*
G01*
X123595Y331977D02*
G03*
X123595Y331977I-599J0D01*
G01*
X176395Y331713D02*
G03*
X176395Y331713I-599J0D01*
G01*
X272955Y278563D02*
Y283823D01*
Y270754D02*
Y276063D01*
Y270754D02*
X292955D01*
Y283823D01*
X272955D02*
X292955D01*
X42618Y90320D02*
Y110319D01*
X55687D01*
Y90320D02*
Y110319D01*
X50378Y90320D02*
X55687D01*
X42618D02*
X47878D01*
X42618Y65949D02*
Y85949D01*
X55687D01*
Y65949D02*
Y85949D01*
X50378Y65949D02*
X55687D01*
X42618D02*
X47878D01*
X113350Y133768D02*
X133350D01*
Y120700D02*
Y133768D01*
X113350Y120700D02*
X133350D01*
X113350D02*
Y126008D01*
Y128508D02*
Y133768D01*
X83252Y146442D02*
Y176875D01*
X76402D02*
X83252D01*
X314764Y173228D02*
X335354D01*
X303189Y130984D02*
Y134705D01*
X343721Y63346D02*
X359488D01*
X313228Y130984D02*
Y163347D01*
X303189D02*
X313228D01*
X303189Y134705D02*
Y163347D01*
Y130984D02*
X313228D01*
X333642Y263425D02*
X359508D01*
X343642Y265020D02*
X359547D01*
X335570Y173256D02*
X353976D01*
X335570Y164989D02*
Y173256D01*
Y164989D02*
X353976D01*
Y173256D01*
X335570Y183256D02*
X353976D01*
X335570Y174989D02*
Y183256D01*
Y174989D02*
X353976D01*
Y183256D01*
X335374Y265020D02*
Y283425D01*
Y265020D02*
X343642D01*
Y283425D01*
X335374D02*
X343642D01*
X325374Y245020D02*
Y263425D01*
Y245020D02*
X333642D01*
Y263425D01*
X325374D02*
X333642D01*
X291535Y111614D02*
X315472D01*
Y103110D02*
Y111614D01*
X315472Y44961D02*
Y53425D01*
X333484D01*
Y44961D02*
Y53425D01*
X315472Y44961D02*
X333484D01*
X315472Y54961D02*
Y63425D01*
X333484D01*
Y54961D02*
Y63425D01*
X315472Y54961D02*
X333484D01*
X315472Y64961D02*
Y73425D01*
X333484D01*
Y64961D02*
Y73425D01*
X315472Y64961D02*
X333484D01*
X315472Y74961D02*
X333484D01*
Y83425D01*
X315472D02*
X333484D01*
X315472Y74961D02*
Y83425D01*
X335354Y74961D02*
Y83425D01*
X353465D01*
Y74961D02*
Y83425D01*
X335354Y74961D02*
X353465D01*
X315472Y163347D02*
X353465D01*
X315472Y143858D02*
Y163347D01*
Y143858D02*
X353465D01*
Y163347D01*
X335354Y124665D02*
X353465D01*
Y133346D01*
X335354D02*
X353465D01*
X335354Y124665D02*
Y133346D01*
X335157Y45039D02*
X343721D01*
X335157D02*
Y63346D01*
X343721D01*
Y45039D02*
Y63346D01*
X315472Y85000D02*
X323858D01*
X315472Y86870D02*
Y103110D01*
X323858D01*
Y85000D02*
Y103110D01*
X315472Y85000D02*
Y86870D01*
X345295Y194350D02*
X353858D01*
X345295D02*
Y223484D01*
X353858D01*
Y194350D02*
Y223484D01*
X74236Y176875D02*
Y217268D01*
X76402Y176875D02*
Y176993D01*
X77740Y178489D01*
X77661Y175536D02*
X77740Y178489D01*
X76402Y176875D02*
X77661Y175536D01*
X45631Y292076D02*
Y286078D01*
X42632D01*
X41633Y287078D01*
Y291076D01*
X42632Y292076D01*
X45631D01*
X39633D02*
X35634D01*
Y291076D01*
X39633Y287078D01*
Y286078D01*
X131358Y294335D02*
Y288337D01*
X128359D01*
X127359Y289337D01*
Y293336D01*
X128359Y294335D01*
X131358D01*
X125360Y288337D02*
X123360D01*
X124360D01*
Y294335D01*
X125360Y293336D01*
X117362Y288337D02*
Y294335D01*
X120361Y291336D01*
X116363D01*
X41653Y36654D02*
Y39852D01*
X40054D01*
X39521Y39319D01*
Y38253D01*
X40054Y37720D01*
X41653D01*
X36322Y39319D02*
X36855Y39852D01*
X37921D01*
X38455Y39319D01*
Y37187D01*
X37921Y36654D01*
X36855D01*
X36322Y37187D01*
Y38253D01*
X37388D01*
X35256Y36654D02*
Y39852D01*
X33123Y36654D01*
Y39852D01*
X32057D02*
Y36654D01*
X30457D01*
X29924Y37187D01*
Y39319D01*
X30457Y39852D01*
X32057D01*
X45276Y343602D02*
Y345735D01*
X44209Y346801D01*
X43143Y345735D01*
Y343602D01*
Y345202D01*
X45276D01*
X39944Y346268D02*
X40477Y346801D01*
X41543D01*
X42077Y346268D01*
Y344135D01*
X41543Y343602D01*
X40477D01*
X39944Y344135D01*
Y345202D01*
X41010D01*
X38878Y343602D02*
Y346801D01*
X36745Y343602D01*
Y346801D01*
X35679D02*
Y343602D01*
X34079D01*
X33546Y344135D01*
Y346268D01*
X34079Y346801D01*
X35679D01*
X304173Y341467D02*
X302041D01*
X303107D01*
Y338268D01*
X300974D02*
Y341467D01*
X299375D01*
X298842Y340933D01*
Y339867D01*
X299375Y339334D01*
X300974D01*
X295643Y338268D02*
X297775D01*
X295643Y340400D01*
Y340933D01*
X296176Y341467D01*
X297242D01*
X297775Y340933D01*
X315000Y330640D02*
X312867D01*
X313934D01*
Y327441D01*
X311801D02*
Y330640D01*
X310202D01*
X309668Y330107D01*
Y329040D01*
X310202Y328507D01*
X311801D01*
X308602Y327441D02*
X307536D01*
X308069D01*
Y330640D01*
X308602Y330107D01*
X324449Y320482D02*
Y317284D01*
X322849D01*
X322316Y317817D01*
Y319949D01*
X322849Y320482D01*
X324449D01*
X319117Y319949D02*
X319650Y320482D01*
X320717D01*
X321250Y319949D01*
Y317817D01*
X320717Y317284D01*
X319650D01*
X319117Y317817D01*
Y318883D01*
X320183D01*
X318051Y317284D02*
Y320482D01*
X315918Y317284D01*
Y320482D01*
X314852D02*
Y317284D01*
X313252D01*
X312719Y317817D01*
Y319949D01*
X313252Y320482D01*
X314852D01*
X14449Y349882D02*
G03*
X45Y335005I609J-15002D01*
G01*
X326575Y341220D02*
G03*
X314724Y349882I-12571J-4763D01*
G01*
X326575Y341339D02*
G03*
X338898Y331928I13326J4677D01*
G01*
X361631Y319611D02*
G03*
X349410Y331906I-12330J-35D01*
G01*
X339435Y14356D02*
G03*
X327284Y8150I-253J-14503D01*
G01*
X348242Y14356D02*
G03*
X361631Y27953I-102J13490D01*
G01*
X311967Y-72D02*
G03*
X327284Y8150I575J17307D01*
G01*
X29278Y2252D02*
G03*
X34488Y-72I4950J4095D01*
G01*
X29278Y2252D02*
G03*
X21524Y6947I-10086J-7908D01*
G01*
X39Y18032D02*
G03*
X11317Y6947I11796J722D01*
G01*
X39Y18032D02*
Y334880D01*
X14449Y349882D02*
X16575D01*
X314724D01*
X338898Y331928D02*
X349301D01*
X361631Y27953D02*
X361631Y319611D01*
X339181Y14356D02*
X348242D01*
X34488Y-72D02*
X311967Y-72D01*
X11317Y6947D02*
X21524D01*
D13*
X100476Y165260D02*
G03*
X100476Y165260I-394J0D01*
G01*
X230063Y239237D02*
X249748D01*
X230063Y232150D02*
X249748D01*
X230063D02*
Y239237D01*
X249748Y232150D02*
Y239237D01*
X282268Y141796D02*
Y191402D01*
X232661Y141796D02*
Y191402D01*
Y141796D02*
X282268D01*
X232661Y191402D02*
X282268D01*
X81559Y250359D02*
Y257249D01*
X68961Y250359D02*
Y257249D01*
Y250359D02*
X81559D01*
X68961Y257249D02*
X81559D01*
X170866Y147544D02*
X171766D01*
X176128D02*
X177028D01*
X170768Y144644D02*
X177067D01*
X170768Y138686D02*
X171668D01*
X170768D02*
Y147544D01*
X177067Y138686D02*
Y147544D01*
X176167Y138686D02*
X177067D01*
X22421Y294229D02*
Y306827D01*
X29311Y294229D02*
Y306827D01*
X22421Y294229D02*
X29311D01*
X22421Y306827D02*
X29311D01*
X24044Y247851D02*
Y260449D01*
X30934Y247851D02*
Y260449D01*
X24044Y247851D02*
X30934D01*
X24044Y260449D02*
X30934D01*
X108484Y305922D02*
X115374D01*
X108484Y293323D02*
X115374D01*
Y305922D01*
X108484Y293323D02*
Y305922D01*
X106949Y247300D02*
Y259898D01*
X113839Y247300D02*
Y259898D01*
X106949Y247300D02*
X113839D01*
X106949Y259898D02*
X113839D01*
X178212Y293115D02*
Y305713D01*
X185102Y293115D02*
Y305713D01*
X178212Y293115D02*
X185102D01*
X178212Y305713D02*
X185102D01*
X177346Y246540D02*
Y259138D01*
X184236Y246540D02*
Y259138D01*
X177346Y246540D02*
X184236D01*
X177346Y259138D02*
X184236D01*
X200295Y279907D02*
Y280807D01*
Y274645D02*
Y275545D01*
X197395Y274606D02*
Y280906D01*
X191437Y280006D02*
Y280906D01*
X200295D01*
X191437Y274606D02*
X200295D01*
X191437D02*
Y275506D01*
X191339Y227165D02*
Y228065D01*
Y227165D02*
X200197D01*
X191339Y233465D02*
X200197D01*
X191339Y232565D02*
Y233465D01*
X197297Y227165D02*
Y233465D01*
X200197Y227204D02*
Y228104D01*
Y232466D02*
Y233366D01*
D14*
X247140Y106678D02*
G03*
X248419Y106678I640J0D01*
G01*
X213054Y150949D02*
X220988Y158883D01*
X203311Y160693D02*
X213054Y150949D01*
X203311Y160693D02*
X211245Y168627D01*
X220988Y158883D01*
X248468Y107071D02*
X253252D01*
X242307D02*
X247140D01*
X242307Y68390D02*
Y107071D01*
Y68390D02*
X253252D01*
Y107071D01*
X247140Y106481D02*
Y107071D01*
X248419Y107022D02*
X248468Y107071D01*
X248419Y106383D02*
Y107022D01*
X178685Y70300D02*
X184984D01*
X178685Y61638D02*
X184984D01*
X186677Y115930D02*
Y118292D01*
X190614Y115930D02*
Y118292D01*
X256185Y121363D02*
X257563D01*
X250083Y116737D02*
Y122150D01*
X256185Y117327D02*
X257563D01*
X73882Y276166D02*
X76244D01*
X73882Y272229D02*
X76244D01*
X277362Y257441D02*
X278937D01*
X277362Y255079D02*
X278937D01*
X307940Y187776D02*
X309291Y188948D01*
X310643Y187776D01*
X235505Y8611D02*
X236856Y9783D01*
X234153Y9783D02*
X235505Y8611D01*
X298817Y230557D02*
X300168Y231728D01*
X301519Y230557D01*
X170684Y100546D02*
X172036Y101718D01*
X169333Y101718D02*
X170684Y100546D01*
X291874Y230557D02*
X293226Y231728D01*
X294577Y230557D01*
X284932Y230557D02*
X286283Y231728D01*
X287635Y230557D01*
X162308Y100750D02*
X163659Y101921D01*
X160956Y101921D02*
X162308Y100750D01*
X269866Y99985D02*
Y102347D01*
X265929Y99985D02*
Y102347D01*
X273232Y100516D02*
Y101894D01*
X272642Y107997D02*
X278055D01*
X277268Y100516D02*
Y101894D01*
X225772Y85024D02*
Y87386D01*
X221835Y85024D02*
Y87386D01*
X214807Y85320D02*
Y86698D01*
X214216Y92800D02*
X219630D01*
X218842Y85320D02*
Y86698D01*
X279787Y79867D02*
Y86166D01*
X271126Y79867D02*
Y86166D01*
X135614Y110772D02*
Y112347D01*
X137976Y110772D02*
Y112347D01*
X112307Y110958D02*
Y112533D01*
X109945Y110958D02*
Y112533D01*
X138842Y149985D02*
X140417D01*
X138842Y152347D02*
X140417D01*
X88567Y177505D02*
X90142D01*
X88567Y175142D02*
X90142D01*
X88567Y159106D02*
X90142D01*
X88567Y156743D02*
X90142D01*
X179039Y124473D02*
X185338D01*
X179039Y133134D02*
X185338D01*
X208764Y98134D02*
Y104434D01*
X200102Y98134D02*
Y104434D01*
X203976Y19410D02*
X206339D01*
X203976Y23346D02*
X206339D01*
X293646Y196402D02*
Y197977D01*
X296008Y196402D02*
Y197977D01*
X252465Y209316D02*
X254039D01*
X252465Y211678D02*
X254039D01*
X299492Y197839D02*
Y199217D01*
X298902Y205319D02*
X304315D01*
X303527Y197839D02*
Y199217D01*
X252405Y214257D02*
X253783D01*
X246303Y213666D02*
Y219079D01*
X252405Y218292D02*
X253783D01*
X241047Y251993D02*
X243409D01*
X241047Y255930D02*
X243409D01*
X240181Y211756D02*
X241756D01*
X240181Y214119D02*
X241756D01*
X241736Y259178D02*
X243114D01*
X235634Y258587D02*
Y264001D01*
X241736Y263213D02*
X243114D01*
X298449Y186442D02*
X300024D01*
X298449Y188804D02*
X300024D01*
X255693Y235536D02*
Y237111D01*
X253331Y235536D02*
Y237111D01*
X269039Y219473D02*
Y221048D01*
X266677Y219473D02*
Y221048D01*
X203387Y152066D02*
X205057Y150396D01*
X206171Y154850D02*
X207841Y153179D01*
X276480Y219316D02*
Y220890D01*
X274118Y219316D02*
Y220890D01*
X205108Y163821D02*
X206778Y165491D01*
X202324Y166605D02*
X203994Y168275D01*
X73606Y269119D02*
X75181D01*
X73606Y266757D02*
X75181D01*
X47425Y285024D02*
X49000D01*
X47425Y282662D02*
X49000D01*
X22504Y284001D02*
X24079D01*
X22504Y281638D02*
X24079D01*
X49039Y240457D02*
X50614D01*
X49039Y238095D02*
X50614D01*
X25063Y236914D02*
X26638D01*
X25063Y234552D02*
X26638D01*
X133803Y285733D02*
X135378D01*
X133803Y283371D02*
X135378D01*
X50811Y333843D02*
Y335418D01*
X53173Y333843D02*
Y335418D01*
X78527Y335615D02*
Y337190D01*
X76165Y335615D02*
Y337190D01*
X108803Y283410D02*
X110378D01*
X108803Y281048D02*
X110378D01*
X36476Y216608D02*
Y218183D01*
X34113Y216608D02*
Y218183D01*
X21008Y205575D02*
X22583D01*
X21008Y203213D02*
X22583D01*
X131992Y239001D02*
X133567D01*
X131992Y236638D02*
X133567D01*
X107189Y236560D02*
X108764D01*
X107189Y234197D02*
X108764D01*
X114039Y336442D02*
Y338016D01*
X116402Y336442D02*
Y338016D01*
X140929Y340260D02*
Y341835D01*
X138567Y340260D02*
Y341835D01*
X202937Y284552D02*
X204512D01*
X202937Y282190D02*
X204512D01*
X178252Y282780D02*
X179827D01*
X178252Y280418D02*
X179827D01*
X196087Y235654D02*
X197661D01*
X196087Y238016D02*
X197661D01*
X166327Y336442D02*
Y338016D01*
X168690Y336442D02*
Y338016D01*
X194551Y338174D02*
Y339749D01*
X192189Y338174D02*
Y339749D01*
X177110Y236520D02*
X178685D01*
X177110Y234158D02*
X178685D01*
X165614Y297977D02*
Y299552D01*
X167976Y297977D02*
Y299552D01*
X87228Y252504D02*
Y254867D01*
X91165Y252504D02*
Y254867D01*
X89197Y298961D02*
Y301323D01*
X93134Y298961D02*
Y301323D01*
X158449Y298292D02*
Y300654D01*
X162386Y298292D02*
Y300654D01*
X4591Y299867D02*
Y302229D01*
X8528Y299867D02*
Y302229D01*
X5102Y253528D02*
Y255890D01*
X9039Y253528D02*
Y255890D01*
X154507Y252178D02*
Y254540D01*
X158444Y252178D02*
Y254540D01*
X94197Y252150D02*
Y253725D01*
X96559Y252150D02*
Y253725D01*
X95890Y298371D02*
Y299945D01*
X98252Y298371D02*
Y299945D01*
X162696Y251390D02*
Y252965D01*
X165058Y251390D02*
Y252965D01*
X10654Y299079D02*
Y300654D01*
X13016Y299079D02*
Y300654D01*
X11520Y252701D02*
Y254276D01*
X13882Y252701D02*
Y254276D01*
X124787Y327504D02*
X126362D01*
X124787Y329867D02*
X126362D01*
X62583Y324394D02*
X64157D01*
X62583Y326757D02*
X64157D01*
X22976Y224355D02*
X24551D01*
X22976Y221993D02*
X24551D01*
X179315Y327150D02*
X180890D01*
X179315Y329512D02*
X180890D01*
X178685Y42780D02*
X184984D01*
X178685Y51442D02*
X184984D01*
X305995Y230557D02*
X307346Y231728D01*
X308698Y230557D01*
X104294Y15552D02*
X105645Y14381D01*
X106997Y15552D01*
X232543Y322544D02*
X234118D01*
X232543Y324906D02*
X234118D01*
X244590Y332053D02*
Y333628D01*
X242228Y332053D02*
Y333628D01*
X230929Y344788D02*
X232504D01*
X230929Y342426D02*
X232504D01*
X217858Y175536D02*
Y177111D01*
X215496Y175536D02*
Y177111D01*
X212051Y179335D02*
Y180713D01*
X207228Y173233D02*
X212642D01*
X208016Y179335D02*
Y180713D01*
X256086Y124316D02*
X257661D01*
X256086Y126678D02*
X257661D01*
X58291Y236835D02*
Y238410D01*
X60654Y236835D02*
Y238410D01*
X59315Y255969D02*
Y257544D01*
X56953Y255969D02*
Y257544D01*
X241447Y9783D02*
X242798Y8611D01*
X244149Y9783D01*
X130609Y235335D02*
X127854D01*
X128773D01*
X130609Y237171D01*
X129232Y235794D01*
X127854Y237171D01*
X306594Y192416D02*
Y189961D01*
Y190779D01*
X304958Y192416D01*
X306185Y191188D01*
X304958Y189961D01*
X46161Y280812D02*
X43406D01*
X44324D01*
X46161Y282648D01*
X44783Y281271D01*
X43406Y282648D01*
X46850Y226969D02*
X44094D01*
X45013D01*
X46850Y228805D01*
X45472Y227428D01*
X44094Y228805D01*
X131889Y283071D02*
X129134D01*
X130052D01*
X131889Y284908D01*
X130511Y283530D01*
X129134Y284908D01*
D15*
X232783Y326587D02*
Y338087D01*
X228783Y326587D02*
X232783D01*
X228783D02*
Y338087D01*
X232783D01*
X61279Y330347D02*
X65280D01*
Y341847D01*
X61279D02*
X65280D01*
X61279Y330347D02*
Y341847D01*
X21185Y220253D02*
X25185D01*
X21185Y208753D02*
Y220253D01*
Y208753D02*
X25185D01*
Y220253D01*
X124823Y333028D02*
X128823D01*
Y344528D01*
X124823D02*
X128823D01*
X124823Y333028D02*
Y344528D01*
X177623Y332764D02*
X181623D01*
Y344264D01*
X177623D02*
X181623D01*
X177623Y332764D02*
Y344264D01*
X313078Y173058D02*
X312661Y173474D01*
X311828D01*
X311412Y173058D01*
Y172641D01*
X311828Y172224D01*
X312245D01*
X311828D01*
X311412Y171808D01*
Y171391D01*
X311828Y170975D01*
X312661D01*
X313078Y171391D01*
X310579Y173474D02*
Y171808D01*
X309746Y170975D01*
X308913Y171808D01*
Y173474D01*
X308080Y173058D02*
X307663Y173474D01*
X306830D01*
X306413Y173058D01*
Y172641D01*
X306830Y172224D01*
X307246D01*
X306830D01*
X306413Y171808D01*
Y171391D01*
X306830Y170975D01*
X307663D01*
X308080Y171391D01*
X311412Y168555D02*
X313078D01*
Y166056D01*
X311412D01*
X313078Y167306D02*
X312245D01*
X310579Y166056D02*
Y168555D01*
X309329D01*
X308913Y168139D01*
Y167306D01*
X309329Y166889D01*
X310579D01*
X306413Y168139D02*
X306830Y168555D01*
X307663D01*
X308080Y168139D01*
Y167722D01*
X307663Y167306D01*
X306830D01*
X306413Y166889D01*
Y166472D01*
X306830Y166056D01*
X307663D01*
X308080Y166472D01*
X221102Y151270D02*
Y150737D01*
X220036Y149670D01*
X218970Y150737D01*
Y151270D01*
X220036Y149670D02*
Y148071D01*
X217903D02*
X216837D01*
X217370D01*
Y151270D01*
X217903Y150737D01*
X260079Y66585D02*
Y63919D01*
X259546Y63386D01*
X258479D01*
X257946Y63919D01*
Y66585D01*
X254747D02*
X256880D01*
Y64985D01*
X255814Y65518D01*
X255280D01*
X254747Y64985D01*
Y63919D01*
X255280Y63386D01*
X256347D01*
X256880Y63919D01*
X108504Y164301D02*
Y161635D01*
X107971Y161102D01*
X106904D01*
X106371Y161635D01*
Y164301D01*
X105305D02*
X103172D01*
Y163768D01*
X105305Y161635D01*
Y161102D01*
X220850Y332790D02*
Y330124D01*
X220317Y329591D01*
X219251D01*
X218718Y330124D01*
Y332790D01*
X215519Y329591D02*
X217651D01*
X215519Y331724D01*
Y332257D01*
X216052Y332790D01*
X217118D01*
X217651Y332257D01*
X212320Y332790D02*
X213386Y332257D01*
X214452Y331191D01*
Y330124D01*
X213919Y329591D01*
X212853D01*
X212320Y330124D01*
Y330658D01*
X212853Y331191D01*
X214452D01*
X228898Y229813D02*
Y227147D01*
X228364Y226614D01*
X227298D01*
X226765Y227147D01*
Y229813D01*
X225699Y226614D02*
X224632D01*
X225166D01*
Y229813D01*
X225699Y229280D01*
X223033D02*
X222500Y229813D01*
X221433D01*
X220900Y229280D01*
Y228747D01*
X221433Y228214D01*
X221967D01*
X221433D01*
X220900Y227680D01*
Y227147D01*
X221433Y226614D01*
X222500D01*
X223033Y227147D01*
X270664Y283258D02*
Y280592D01*
X270131Y280059D01*
X269064D01*
X268531Y280592D01*
Y283258D01*
X265332Y280059D02*
X267465D01*
X265332Y282192D01*
Y282725D01*
X265865Y283258D01*
X266932D01*
X267465Y282725D01*
X264266D02*
X263733Y283258D01*
X262666D01*
X262133Y282725D01*
Y282192D01*
X262666Y281659D01*
X262133Y281125D01*
Y280592D01*
X262666Y280059D01*
X263733D01*
X264266Y280592D01*
Y281125D01*
X263733Y281659D01*
X264266Y282192D01*
Y282725D01*
X263733Y281659D02*
X262666D01*
X128937Y226034D02*
Y222835D01*
X127338D01*
X126804Y223368D01*
Y225500D01*
X127338Y226034D01*
X128937D01*
X125738Y222835D02*
X124672D01*
X125205D01*
Y226034D01*
X125738Y225500D01*
X120940Y226034D02*
X122006Y225500D01*
X123072Y224434D01*
Y223368D01*
X122539Y222835D01*
X121473D01*
X120940Y223368D01*
Y223901D01*
X121473Y224434D01*
X123072D01*
X166339Y162402D02*
Y165601D01*
X164739D01*
X164206Y165067D01*
Y164001D01*
X164739Y163468D01*
X166339D01*
X165272D02*
X164206Y162402D01*
X163140Y162935D02*
X162606Y162402D01*
X161540D01*
X161007Y162935D01*
Y165067D01*
X161540Y165601D01*
X162606D01*
X163140Y165067D01*
Y164534D01*
X162606Y164001D01*
X161007D01*
X157808Y162402D02*
X159941D01*
X157808Y164534D01*
Y165067D01*
X158341Y165601D01*
X159407D01*
X159941Y165067D01*
X232677Y204813D02*
Y202147D01*
X232144Y201614D01*
X231078D01*
X230544Y202147D01*
Y204813D01*
X229478Y201614D02*
X228412D01*
X228945D01*
Y204813D01*
X229478Y204280D01*
X224680Y201614D02*
X226812D01*
X224680Y203747D01*
Y204280D01*
X225213Y204813D01*
X226279D01*
X226812Y204280D01*
X68110Y248120D02*
Y245454D01*
X67577Y244921D01*
X66511D01*
X65978Y245454D01*
Y248120D01*
X62779Y244921D02*
X64911D01*
X62779Y247054D01*
Y247587D01*
X63312Y248120D01*
X64378D01*
X64911Y247587D01*
X61712Y248120D02*
X59580D01*
Y247587D01*
X61712Y245454D01*
Y244921D01*
X199048Y67766D02*
X201181D01*
Y66166D01*
X200115D01*
X201181D01*
Y64567D01*
X197982Y67766D02*
Y64567D01*
X196383D01*
X195850Y65100D01*
Y65633D01*
X196383Y66166D01*
X197982D01*
X196383D01*
X195850Y66700D01*
Y67233D01*
X196383Y67766D01*
X197982D01*
X193184Y64567D02*
Y67766D01*
X194783Y66166D01*
X192650D01*
X192667Y118025D02*
Y120158D01*
X194267D01*
Y119091D01*
Y120158D01*
X195866D01*
X192667Y116958D02*
X195866D01*
Y115359D01*
X195333Y114826D01*
X194800D01*
X194267Y115359D01*
Y116958D01*
Y115359D01*
X193734Y114826D01*
X193200D01*
X192667Y115359D01*
Y116958D01*
X195866Y113760D02*
Y112693D01*
Y113226D01*
X192667D01*
X193200Y113760D01*
X142913Y129577D02*
Y126378D01*
X141314D01*
X140781Y126911D01*
Y129044D01*
X141314Y129577D01*
X142913D01*
X137582D02*
X138648Y129044D01*
X139714Y127977D01*
Y126911D01*
X139181Y126378D01*
X138115D01*
X137582Y126911D01*
Y127444D01*
X138115Y127977D01*
X139714D01*
X246474Y120446D02*
X247007Y120979D01*
X248073D01*
X248606Y120446D01*
Y118313D01*
X248073Y117780D01*
X247007D01*
X246474Y118313D01*
X245407Y117780D02*
X244341D01*
X244874D01*
Y120979D01*
X245407Y120446D01*
X240609Y117780D02*
X242741D01*
X240609Y119913D01*
Y120446D01*
X241142Y120979D01*
X242208D01*
X242741Y120446D01*
X237410Y120979D02*
X239543D01*
Y119380D01*
X238476Y119913D01*
X237943D01*
X237410Y119380D01*
Y118313D01*
X237943Y117780D01*
X239009D01*
X239543Y118313D01*
X92356Y275028D02*
X92889Y275561D01*
X93955D01*
X94488Y275028D01*
Y272895D01*
X93955Y272362D01*
X92889D01*
X92356Y272895D01*
X91289Y272362D02*
X90223D01*
X90756D01*
Y275561D01*
X91289Y275028D01*
X88623D02*
X88090Y275561D01*
X87024D01*
X86491Y275028D01*
Y274495D01*
X87024Y273962D01*
X87557D01*
X87024D01*
X86491Y273429D01*
Y272895D01*
X87024Y272362D01*
X88090D01*
X88623Y272895D01*
X85425Y275028D02*
X84891Y275561D01*
X83825D01*
X83292Y275028D01*
Y272895D01*
X83825Y272362D01*
X84891D01*
X85425Y272895D01*
Y275028D01*
X280151Y252036D02*
X280684Y252569D01*
X281750D01*
X282283Y252036D01*
Y249903D01*
X281750Y249370D01*
X280684D01*
X280151Y249903D01*
X279084Y249370D02*
X278018D01*
X278551D01*
Y252569D01*
X279084Y252036D01*
X276419D02*
X275886Y252569D01*
X274819D01*
X274286Y252036D01*
Y251503D01*
X274819Y250970D01*
X275352D01*
X274819D01*
X274286Y250436D01*
Y249903D01*
X274819Y249370D01*
X275886D01*
X276419Y249903D01*
X273220Y252036D02*
X272687Y252569D01*
X271620D01*
X271087Y252036D01*
Y251503D01*
X271620Y250970D01*
X272153D01*
X271620D01*
X271087Y250436D01*
Y249903D01*
X271620Y249370D01*
X272687D01*
X273220Y249903D01*
X272740Y205388D02*
Y204855D01*
X271674Y203789D01*
X270607Y204855D01*
Y205388D01*
X271674Y203789D02*
Y202190D01*
X267408D02*
X269541D01*
X267408Y204322D01*
Y204855D01*
X267942Y205388D01*
X269008D01*
X269541Y204855D01*
X119134Y103425D02*
Y100226D01*
X120733D01*
X121266Y100759D01*
Y101826D01*
X120733Y102359D01*
X119134D01*
X120200D02*
X121266Y103425D01*
X122333Y102892D02*
X122866Y103425D01*
X123932D01*
X124466Y102892D01*
Y100759D01*
X123932Y100226D01*
X122866D01*
X122333Y100759D01*
Y101293D01*
X122866Y101826D01*
X124466D01*
X125532Y100759D02*
X126065Y100226D01*
X127131D01*
X127664Y100759D01*
Y101293D01*
X127131Y101826D01*
X126598D01*
X127131D01*
X127664Y102359D01*
Y102892D01*
X127131Y103425D01*
X126065D01*
X125532Y102892D01*
X290433Y134538D02*
Y132405D01*
X289367Y131339D01*
X288300Y132405D01*
Y134538D01*
X285635Y131339D02*
Y134538D01*
X287234Y132938D01*
X285102D01*
X313114Y208275D02*
X312698Y208691D01*
Y209524D01*
X313114Y209941D01*
X313531D01*
X313947Y209524D01*
Y208691D01*
X314364Y208275D01*
X314780D01*
X315197Y208691D01*
Y209524D01*
X314780Y209941D01*
X312698Y207442D02*
X313114D01*
X313947Y206609D01*
X313114Y205776D01*
X312698D01*
X313947Y206609D02*
X315197D01*
X313114Y203276D02*
X312698Y203693D01*
Y204526D01*
X313114Y204943D01*
X313531D01*
X313947Y204526D01*
Y203693D01*
X314364Y203276D01*
X314780D01*
X315197Y203693D01*
Y204526D01*
X314780Y204943D01*
X312698Y202443D02*
Y200777D01*
Y201610D01*
X315197D01*
X312698Y198278D02*
Y199944D01*
X315197D01*
Y198278D01*
X313947Y199944D02*
Y199111D01*
X315197Y197445D02*
X312698D01*
X313531Y196612D01*
X312698Y195779D01*
X315197D01*
X315613Y194946D02*
Y193280D01*
X312698Y190780D02*
Y192447D01*
X313947D01*
Y191614D01*
Y192447D01*
X315197D01*
Y189947D02*
X313531D01*
X312698Y189114D01*
X313531Y188281D01*
X315197D01*
X313947D01*
Y189947D01*
X312698Y187448D02*
X314780D01*
X315197Y187032D01*
Y186199D01*
X314780Y185782D01*
X312698D01*
Y184949D02*
X315197D01*
Y183283D01*
X312698Y182450D02*
Y180784D01*
Y181617D01*
X315197D01*
X250984Y327008D02*
X247785D01*
Y325408D01*
X248318Y324875D01*
X249385D01*
X249918Y325408D01*
Y327008D01*
Y325942D02*
X250984Y324875D01*
X248318Y323809D02*
X247785Y323276D01*
Y322209D01*
X248318Y321676D01*
X248852D01*
X249385Y322209D01*
X249918Y321676D01*
X250451D01*
X250984Y322209D01*
Y323276D01*
X250451Y323809D01*
X249918D01*
X249385Y323276D01*
X248852Y323809D01*
X248318D01*
X249385Y323276D02*
Y322209D01*
X247785Y318477D02*
X248318Y319544D01*
X249385Y320610D01*
X250451D01*
X250984Y320077D01*
Y319010D01*
X250451Y318477D01*
X249918D01*
X249385Y319010D01*
Y320610D01*
X302799Y240634D02*
X302383Y240217D01*
Y239384D01*
X302799Y238967D01*
X303216D01*
X303632Y239384D01*
Y239801D01*
Y239384D01*
X304049Y238967D01*
X304465D01*
X304882Y239384D01*
Y240217D01*
X304465Y240634D01*
X302383Y238135D02*
X304049D01*
X304882Y237301D01*
X304049Y236468D01*
X302383D01*
X302799Y235635D02*
X302383Y235219D01*
Y234386D01*
X302799Y233969D01*
X303216D01*
X303632Y234386D01*
Y234802D01*
Y234386D01*
X304049Y233969D01*
X304465D01*
X304882Y234386D01*
Y235219D01*
X304465Y235635D01*
X305298Y233136D02*
Y231470D01*
X304882Y230637D02*
X303216D01*
X302383Y229804D01*
X303216Y228971D01*
X304882D01*
X303632D01*
Y230637D01*
X304882Y228138D02*
X302383D01*
X304882Y226472D01*
X302383D01*
Y225639D02*
Y223972D01*
Y224805D01*
X304882D01*
X175011Y117441D02*
X174478Y116908D01*
Y115841D01*
X175011Y115308D01*
X175545D01*
X176078Y115841D01*
Y116375D01*
Y115841D01*
X176611Y115308D01*
X177144D01*
X177677Y115841D01*
Y116908D01*
X177144Y117441D01*
X174478Y114242D02*
X176611D01*
X177677Y113176D01*
X176611Y112109D01*
X174478D01*
X175011Y111043D02*
X174478Y110510D01*
Y109443D01*
X175011Y108910D01*
X175545D01*
X176078Y109443D01*
Y109977D01*
Y109443D01*
X176611Y108910D01*
X177144D01*
X177677Y109443D01*
Y110510D01*
X177144Y111043D01*
X178210Y107844D02*
Y105711D01*
X174478Y102512D02*
Y104645D01*
X177677D01*
Y102512D01*
X176078Y104645D02*
Y103579D01*
X177677Y101446D02*
X174478D01*
Y99847D01*
X175011Y99313D01*
X176078D01*
X176611Y99847D01*
Y101446D01*
X175011Y96114D02*
X174478Y96648D01*
Y97714D01*
X175011Y98247D01*
X175545D01*
X176078Y97714D01*
Y96648D01*
X176611Y96114D01*
X177144D01*
X177677Y96648D01*
Y97714D01*
X177144Y98247D01*
X178210Y95048D02*
Y92915D01*
X174478Y91849D02*
X177677D01*
Y90250D01*
X177144Y89717D01*
X176611D01*
X176078Y90250D01*
Y91849D01*
Y90250D01*
X175545Y89717D01*
X175011D01*
X174478Y90250D01*
Y91849D01*
Y86518D02*
Y88650D01*
X177677D01*
Y86518D01*
X176078Y88650D02*
Y87584D01*
X177677Y85451D02*
X175545D01*
X174478Y84385D01*
X175545Y83319D01*
X177677D01*
X176078D01*
Y85451D01*
X175011Y80120D02*
X174478Y80653D01*
Y81719D01*
X175011Y82252D01*
X177144D01*
X177677Y81719D01*
Y80653D01*
X177144Y80120D01*
X174478Y77454D02*
Y78520D01*
X175011Y79053D01*
X177144D01*
X177677Y78520D01*
Y77454D01*
X177144Y76921D01*
X175011D01*
X174478Y77454D01*
X177677Y75854D02*
X174478D01*
X177677Y73722D01*
X174478D01*
X313025Y30955D02*
X314091Y30422D01*
X315158Y29355D01*
Y28289D01*
X314624Y27756D01*
X313558D01*
X313025Y28289D01*
Y28822D01*
X313558Y29355D01*
X315158D01*
X311959Y30955D02*
Y28822D01*
X310892Y27756D01*
X309826Y28822D01*
Y30955D01*
X308759Y27223D02*
X306627D01*
X305561Y27756D02*
Y30955D01*
X303961D01*
X303428Y30422D01*
Y29355D01*
X303961Y28822D01*
X305561D01*
X304494D02*
X303428Y27756D01*
X302362D02*
Y29888D01*
X301295Y30955D01*
X300229Y29888D01*
Y27756D01*
Y29355D01*
X302362D01*
X299163Y30955D02*
Y27756D01*
X297563D01*
X297030Y28289D01*
Y30422D01*
X297563Y30955D01*
X299163D01*
X295964D02*
X294897D01*
X295430D01*
Y27756D01*
X295964D01*
X294897D01*
X291698Y30955D02*
X292765D01*
X293298Y30422D01*
Y28289D01*
X292765Y27756D01*
X291698D01*
X291165Y28289D01*
Y30422D01*
X291698Y30955D01*
X290099Y27223D02*
X287966D01*
X286900Y27756D02*
X285834D01*
X286367D01*
Y30955D01*
X286900Y30422D01*
X154400Y115308D02*
Y117441D01*
X155999D01*
X155466Y116375D01*
Y115841D01*
X155999Y115308D01*
X157065D01*
X157598Y115841D01*
Y116908D01*
X157065Y117441D01*
X154400Y114242D02*
X156532D01*
X157598Y113176D01*
X156532Y112109D01*
X154400D01*
X158132Y111043D02*
Y108910D01*
X157598Y107844D02*
X154400D01*
Y106245D01*
X154933Y105711D01*
X155999D01*
X156532Y106245D01*
Y107844D01*
X157598Y104645D02*
X155466D01*
X154400Y103579D01*
X155466Y102512D01*
X157598D01*
X155999D01*
Y104645D01*
X154400Y101446D02*
X154933D01*
X155999Y100380D01*
X154933Y99313D01*
X154400D01*
X155999Y100380D02*
X157598D01*
X154400Y98247D02*
X157598D01*
Y96114D01*
X154400Y93449D02*
Y94515D01*
X154933Y95048D01*
X157065D01*
X157598Y94515D01*
Y93449D01*
X157065Y92915D01*
X154933D01*
X154400Y93449D01*
X157598Y91849D02*
X155466D01*
X154400Y90783D01*
X155466Y89717D01*
X157598D01*
X155999D01*
Y91849D01*
X154400Y88650D02*
X157598D01*
Y87051D01*
X157065Y86518D01*
X154933D01*
X154400Y87051D01*
Y88650D01*
X154933Y83319D02*
X154400Y83852D01*
Y84918D01*
X154933Y85451D01*
X155466D01*
X155999Y84918D01*
Y83852D01*
X156532Y83319D01*
X157065D01*
X157598Y83852D01*
Y84918D01*
X157065Y85451D01*
X158132Y82252D02*
Y80120D01*
X154400Y79053D02*
X157598D01*
Y76921D01*
X154400Y73722D02*
Y75854D01*
X157598D01*
Y73722D01*
X155999Y75854D02*
Y74788D01*
X154400Y72655D02*
X157598D01*
Y71056D01*
X157065Y70523D01*
X154933D01*
X154400Y71056D01*
Y72655D01*
X266744Y115859D02*
X266211Y116393D01*
Y117459D01*
X266744Y117992D01*
X268876D01*
X269409Y117459D01*
Y116393D01*
X268876Y115859D01*
X266744Y114793D02*
X266211Y114260D01*
Y113194D01*
X266744Y112661D01*
X267277D01*
X267810Y113194D01*
Y113727D01*
Y113194D01*
X268343Y112661D01*
X268876D01*
X269409Y113194D01*
Y114260D01*
X268876Y114793D01*
X269409Y109462D02*
Y111594D01*
X267277Y109462D01*
X266744D01*
X266211Y109995D01*
Y111061D01*
X266744Y111594D01*
X274185Y115978D02*
X273651Y116511D01*
Y117577D01*
X274185Y118110D01*
X276317D01*
X276850Y117577D01*
Y116511D01*
X276317Y115978D01*
X274185Y114911D02*
X273651Y114378D01*
Y113312D01*
X274185Y112779D01*
X274718D01*
X275251Y113312D01*
Y113845D01*
Y113312D01*
X275784Y112779D01*
X276317D01*
X276850Y113312D01*
Y114378D01*
X276317Y114911D01*
X274185Y111712D02*
X273651Y111179D01*
Y110113D01*
X274185Y109580D01*
X274718D01*
X275251Y110113D01*
Y110646D01*
Y110113D01*
X275784Y109580D01*
X276317D01*
X276850Y110113D01*
Y111179D01*
X276317Y111712D01*
X228633Y88222D02*
X228100Y88755D01*
Y89821D01*
X228633Y90354D01*
X230766D01*
X231299Y89821D01*
Y88755D01*
X230766Y88222D01*
X228633Y87155D02*
X228100Y86622D01*
Y85556D01*
X228633Y85023D01*
X229167D01*
X229700Y85556D01*
Y86089D01*
Y85556D01*
X230233Y85023D01*
X230766D01*
X231299Y85556D01*
Y86622D01*
X230766Y87155D01*
X231299Y82357D02*
X228100D01*
X229700Y83956D01*
Y81824D01*
X209618Y88104D02*
X209085Y88637D01*
Y89703D01*
X209618Y90236D01*
X211750D01*
X212283Y89703D01*
Y88637D01*
X211750Y88104D01*
X209618Y87037D02*
X209085Y86504D01*
Y85438D01*
X209618Y84905D01*
X210151D01*
X210684Y85438D01*
Y85971D01*
Y85438D01*
X211217Y84905D01*
X211750D01*
X212283Y85438D01*
Y86504D01*
X211750Y87037D01*
X209085Y81706D02*
Y83838D01*
X210684D01*
X210151Y82772D01*
Y82239D01*
X210684Y81706D01*
X211750D01*
X212283Y82239D01*
Y83305D01*
X211750Y83838D01*
X266232Y85230D02*
X265699Y85763D01*
Y86829D01*
X266232Y87362D01*
X268365D01*
X268898Y86829D01*
Y85763D01*
X268365Y85230D01*
X266232Y84163D02*
X265699Y83630D01*
Y82564D01*
X266232Y82031D01*
X266765D01*
X267298Y82564D01*
Y83097D01*
Y82564D01*
X267831Y82031D01*
X268365D01*
X268898Y82564D01*
Y83630D01*
X268365Y84163D01*
X265699Y78832D02*
X266232Y79898D01*
X267298Y80964D01*
X268365D01*
X268898Y80431D01*
Y79365D01*
X268365Y78832D01*
X267831D01*
X267298Y79365D01*
Y80964D01*
X140759Y113694D02*
X140226Y114227D01*
Y115294D01*
X140759Y115827D01*
X142892D01*
X143425Y115294D01*
Y114227D01*
X142892Y113694D01*
X140759Y112628D02*
X140226Y112095D01*
Y111028D01*
X140759Y110495D01*
X141293D01*
X141826Y111028D01*
Y111562D01*
Y111028D01*
X142359Y110495D01*
X142892D01*
X143425Y111028D01*
Y112095D01*
X142892Y112628D01*
X140226Y109429D02*
Y107296D01*
X140759D01*
X142892Y109429D01*
X143425D01*
X104775Y113615D02*
X104242Y114149D01*
Y115215D01*
X104775Y115748D01*
X106908D01*
X107441Y115215D01*
Y114149D01*
X106908Y113615D01*
X104775Y112549D02*
X104242Y112016D01*
Y110950D01*
X104775Y110416D01*
X105308D01*
X105842Y110950D01*
Y111483D01*
Y110950D01*
X106375Y110416D01*
X106908D01*
X107441Y110950D01*
Y112016D01*
X106908Y112549D01*
X104775Y109350D02*
X104242Y108817D01*
Y107751D01*
X104775Y107218D01*
X105308D01*
X105842Y107751D01*
X106375Y107218D01*
X106908D01*
X107441Y107751D01*
Y108817D01*
X106908Y109350D01*
X106375D01*
X105842Y108817D01*
X105308Y109350D01*
X104775D01*
X105842Y108817D02*
Y107751D01*
X131450Y152710D02*
X131983Y153243D01*
X133049D01*
X133583Y152710D01*
Y150578D01*
X133049Y150044D01*
X131983D01*
X131450Y150578D01*
X130384Y152710D02*
X129850Y153243D01*
X128784D01*
X128251Y152710D01*
Y152177D01*
X128784Y151644D01*
X129317D01*
X128784D01*
X128251Y151111D01*
Y150578D01*
X128784Y150044D01*
X129850D01*
X130384Y150578D01*
X127185D02*
X126652Y150044D01*
X125585D01*
X125052Y150578D01*
Y152710D01*
X125585Y153243D01*
X126652D01*
X127185Y152710D01*
Y152177D01*
X126652Y151644D01*
X125052D01*
X70371Y215722D02*
X70904Y216255D01*
X71971D01*
X72504Y215722D01*
Y213589D01*
X71971Y213056D01*
X70904D01*
X70371Y213589D01*
X67705Y213056D02*
Y216255D01*
X69305Y214655D01*
X67172D01*
X66106Y215722D02*
X65573Y216255D01*
X64506D01*
X63973Y215722D01*
Y213589D01*
X64506Y213056D01*
X65573D01*
X66106Y213589D01*
Y215722D01*
X70371Y192546D02*
X70904Y193079D01*
X71971D01*
X72504Y192546D01*
Y190413D01*
X71971Y189880D01*
X70904D01*
X70371Y190413D01*
X67705Y189880D02*
Y193079D01*
X69305Y191479D01*
X67172D01*
X66106Y189880D02*
X65040D01*
X65573D01*
Y193079D01*
X66106Y192546D01*
X184521Y137784D02*
X185054Y138317D01*
X186120D01*
X186653Y137784D01*
Y135651D01*
X186120Y135118D01*
X185054D01*
X184521Y135651D01*
X181322Y138317D02*
X183455D01*
Y136718D01*
X182388Y137251D01*
X181855D01*
X181322Y136718D01*
Y135651D01*
X181855Y135118D01*
X182921D01*
X183455Y135651D01*
X180256Y137784D02*
X179722Y138317D01*
X178656D01*
X178123Y137784D01*
Y135651D01*
X178656Y135118D01*
X179722D01*
X180256Y135651D01*
Y137784D01*
X195405Y102434D02*
X194872Y102968D01*
Y104034D01*
X195405Y104567D01*
X197538D01*
X198071Y104034D01*
Y102968D01*
X197538Y102434D01*
X194872Y99235D02*
Y101368D01*
X196471D01*
X195938Y100302D01*
Y99769D01*
X196471Y99235D01*
X197538D01*
X198071Y99769D01*
Y100835D01*
X197538Y101368D01*
X198071Y98169D02*
Y97103D01*
Y97636D01*
X194872D01*
X195405Y98169D01*
X218203Y21972D02*
X218736Y22505D01*
X219803D01*
X220336Y21972D01*
Y19840D01*
X219803Y19307D01*
X218736D01*
X218203Y19840D01*
X215004Y22505D02*
X217137D01*
Y20906D01*
X216071Y21439D01*
X215537D01*
X215004Y20906D01*
Y19840D01*
X215537Y19307D01*
X216604D01*
X217137Y19840D01*
X213938Y22505D02*
X211805D01*
Y21972D01*
X213938Y19840D01*
Y19307D01*
X287728Y199403D02*
X287195Y199936D01*
Y201002D01*
X287728Y201535D01*
X289861D01*
X290394Y201002D01*
Y199936D01*
X289861Y199403D01*
X287195Y196204D02*
Y198337D01*
X288794D01*
X288261Y197270D01*
Y196737D01*
X288794Y196204D01*
X289861D01*
X290394Y196737D01*
Y197803D01*
X289861Y198337D01*
X287728Y195138D02*
X287195Y194604D01*
Y193538D01*
X287728Y193005D01*
X288261D01*
X288794Y193538D01*
X289327Y193005D01*
X289861D01*
X290394Y193538D01*
Y194604D01*
X289861Y195138D01*
X289327D01*
X288794Y194604D01*
X288261Y195138D01*
X287728D01*
X288794Y194604D02*
Y193538D01*
X254875Y206170D02*
X255408Y206703D01*
X256475D01*
X257008Y206170D01*
Y204037D01*
X256475Y203504D01*
X255408D01*
X254875Y204037D01*
X251676Y206703D02*
X253809D01*
Y205103D01*
X252743Y205637D01*
X252209D01*
X251676Y205103D01*
Y204037D01*
X252209Y203504D01*
X253276D01*
X253809Y204037D01*
X250610D02*
X250077Y203504D01*
X249010D01*
X248477Y204037D01*
Y206170D01*
X249010Y206703D01*
X250077D01*
X250610Y206170D01*
Y205637D01*
X250077Y205103D01*
X248477D01*
X306665Y200820D02*
X306132Y201353D01*
Y202420D01*
X306665Y202953D01*
X308798D01*
X309331Y202420D01*
Y201353D01*
X308798Y200820D01*
X306132Y197621D02*
X306665Y198688D01*
X307731Y199754D01*
X308798D01*
X309331Y199221D01*
Y198154D01*
X308798Y197621D01*
X308264D01*
X307731Y198154D01*
Y199754D01*
X306665Y196555D02*
X306132Y196022D01*
Y194955D01*
X306665Y194422D01*
X308798D01*
X309331Y194955D01*
Y196022D01*
X308798Y196555D01*
X306665D01*
X256923Y223178D02*
X257456Y223711D01*
X258522D01*
X259055Y223178D01*
Y221045D01*
X258522Y220512D01*
X257456D01*
X256923Y221045D01*
X253724Y223711D02*
X254790Y223178D01*
X255856Y222111D01*
Y221045D01*
X255323Y220512D01*
X254257D01*
X253724Y221045D01*
Y221578D01*
X254257Y222111D01*
X255856D01*
X252657Y220512D02*
X251591D01*
X252124D01*
Y223711D01*
X252657Y223178D01*
X232001Y255461D02*
X232534Y255994D01*
X233601D01*
X234134Y255461D01*
Y253328D01*
X233601Y252795D01*
X232534D01*
X232001Y253328D01*
X228802Y255994D02*
X229869Y255461D01*
X230935Y254395D01*
Y253328D01*
X230402Y252795D01*
X229335D01*
X228802Y253328D01*
Y253862D01*
X229335Y254395D01*
X230935D01*
X225603Y252795D02*
X227736D01*
X225603Y254928D01*
Y255461D01*
X226136Y255994D01*
X227203D01*
X227736Y255461D01*
X232395Y214422D02*
X232928Y214955D01*
X233994D01*
X234528Y214422D01*
Y212290D01*
X233994Y211756D01*
X232928D01*
X232395Y212290D01*
X229196Y214955D02*
X230262Y214422D01*
X231329Y213356D01*
Y212290D01*
X230795Y211756D01*
X229729D01*
X229196Y212290D01*
Y212823D01*
X229729Y213356D01*
X231329D01*
X228130Y214422D02*
X227596Y214955D01*
X226530D01*
X225997Y214422D01*
Y213889D01*
X226530Y213356D01*
X227063D01*
X226530D01*
X225997Y212823D01*
Y212290D01*
X226530Y211756D01*
X227596D01*
X228130Y212290D01*
X232001Y262626D02*
X232534Y263160D01*
X233601D01*
X234134Y262626D01*
Y260494D01*
X233601Y259961D01*
X232534D01*
X232001Y260494D01*
X228802Y263160D02*
X229869Y262626D01*
X230935Y261560D01*
Y260494D01*
X230402Y259961D01*
X229335D01*
X228802Y260494D01*
Y261027D01*
X229335Y261560D01*
X230935D01*
X226136Y259961D02*
Y263160D01*
X227736Y261560D01*
X225603D01*
X301052Y184094D02*
X301552Y184593D01*
X302551D01*
X303051Y184094D01*
Y182094D01*
X302551Y181595D01*
X301552D01*
X301052Y182094D01*
X298053Y184593D02*
X299053Y184094D01*
X300052Y183094D01*
Y182094D01*
X299552Y181595D01*
X298553D01*
X298053Y182094D01*
Y182594D01*
X298553Y183094D01*
X300052D01*
X295054Y184593D02*
X297053D01*
Y183094D01*
X296053Y183594D01*
X295554D01*
X295054Y183094D01*
Y182094D01*
X295554Y181595D01*
X296553D01*
X297053Y182094D01*
X253358Y249521D02*
X252825Y250054D01*
Y251120D01*
X253358Y251654D01*
X255490D01*
X256024Y251120D01*
Y250054D01*
X255490Y249521D01*
X252825Y246322D02*
X253358Y247388D01*
X254424Y248455D01*
X255490D01*
X256024Y247921D01*
Y246855D01*
X255490Y246322D01*
X254957D01*
X254424Y246855D01*
Y248455D01*
X252825Y243123D02*
X253358Y244189D01*
X254424Y245256D01*
X255490D01*
X256024Y244722D01*
Y243656D01*
X255490Y243123D01*
X254957D01*
X254424Y243656D01*
Y245256D01*
X266901Y232159D02*
X266368Y232692D01*
Y233758D01*
X266901Y234291D01*
X269034D01*
X269567Y233758D01*
Y232692D01*
X269034Y232159D01*
X266368Y228960D02*
X266901Y230026D01*
X267968Y231092D01*
X269034D01*
X269567Y230559D01*
Y229493D01*
X269034Y228960D01*
X268501D01*
X267968Y229493D01*
Y231092D01*
X266368Y227893D02*
Y225761D01*
X266901D01*
X269034Y227893D01*
X269567D01*
X200111Y150422D02*
X200645Y150955D01*
X201711D01*
X202244Y150422D01*
Y148289D01*
X201711Y147756D01*
X200645D01*
X200111Y148289D01*
X196913Y150955D02*
X197979Y150422D01*
X199045Y149355D01*
Y148289D01*
X198512Y147756D01*
X197446D01*
X196913Y148289D01*
Y148822D01*
X197446Y149355D01*
X199045D01*
X195846Y150422D02*
X195313Y150955D01*
X194247D01*
X193713Y150422D01*
Y149889D01*
X194247Y149355D01*
X193713Y148822D01*
Y148289D01*
X194247Y147756D01*
X195313D01*
X195846Y148289D01*
Y148822D01*
X195313Y149355D01*
X195846Y149889D01*
Y150422D01*
X195313Y149355D02*
X194247D01*
X274066Y232277D02*
X273533Y232810D01*
Y233876D01*
X274066Y234409D01*
X276199D01*
X276732Y233876D01*
Y232810D01*
X276199Y232277D01*
X273533Y229078D02*
X274066Y230144D01*
X275133Y231210D01*
X276199D01*
X276732Y230677D01*
Y229611D01*
X276199Y229078D01*
X275666D01*
X275133Y229611D01*
Y231210D01*
X276199Y228011D02*
X276732Y227478D01*
Y226412D01*
X276199Y225879D01*
X274066D01*
X273533Y226412D01*
Y227478D01*
X274066Y228011D01*
X274600D01*
X275133Y227478D01*
Y225879D01*
X199088Y171209D02*
X199621Y171742D01*
X200687D01*
X201220Y171209D01*
Y169077D01*
X200687Y168543D01*
X199621D01*
X199088Y169077D01*
X198021Y171742D02*
X195889D01*
Y171209D01*
X198021Y169077D01*
Y168543D01*
X194823Y171209D02*
X194289Y171742D01*
X193223D01*
X192690Y171209D01*
Y169077D01*
X193223Y168543D01*
X194289D01*
X194823Y169077D01*
Y171209D01*
X88497Y268926D02*
X89030Y269459D01*
X90097D01*
X90630Y268926D01*
Y266793D01*
X90097Y266260D01*
X89030D01*
X88497Y266793D01*
X87431Y269459D02*
X85298D01*
Y268926D01*
X87431Y266793D01*
Y266260D01*
X84232D02*
X83166D01*
X83699D01*
Y269459D01*
X84232Y268926D01*
X63088Y285761D02*
X63621Y286294D01*
X64687D01*
X65220Y285761D01*
Y283628D01*
X64687Y283095D01*
X63621D01*
X63088Y283628D01*
X62021Y286294D02*
X59889D01*
Y285761D01*
X62021Y283628D01*
Y283095D01*
X56690D02*
X58823D01*
X56690Y285228D01*
Y285761D01*
X57223Y286294D01*
X58289D01*
X58823Y285761D01*
X14560Y283650D02*
X15093Y284183D01*
X16160D01*
X16693Y283650D01*
Y281517D01*
X16160Y280984D01*
X15093D01*
X14560Y281517D01*
X13494Y284183D02*
X11361D01*
Y283650D01*
X13494Y281517D01*
Y280984D01*
X10295Y283650D02*
X9762Y284183D01*
X8696D01*
X8162Y283650D01*
Y283117D01*
X8696Y282584D01*
X9229D01*
X8696D01*
X8162Y282051D01*
Y281517D01*
X8696Y280984D01*
X9762D01*
X10295Y281517D01*
X28025Y231524D02*
X28558Y232057D01*
X29624D01*
X30158Y231524D01*
Y229391D01*
X29624Y228858D01*
X28558D01*
X28025Y229391D01*
X26959Y232057D02*
X24826D01*
Y231524D01*
X26959Y229391D01*
Y228858D01*
X21627Y232057D02*
X23760D01*
Y230458D01*
X22693Y230991D01*
X22160D01*
X21627Y230458D01*
Y229391D01*
X22160Y228858D01*
X23226D01*
X23760Y229391D01*
X150017Y285328D02*
X150550Y285861D01*
X151616D01*
X152149Y285328D01*
Y283195D01*
X151616Y282662D01*
X150550D01*
X150017Y283195D01*
X148951Y285861D02*
X146818D01*
Y285328D01*
X148951Y283195D01*
Y282662D01*
X143619Y285861D02*
X144685Y285328D01*
X145752Y284261D01*
Y283195D01*
X145218Y282662D01*
X144152D01*
X143619Y283195D01*
Y283728D01*
X144152Y284261D01*
X145752D01*
X50641Y325938D02*
X50108Y326471D01*
Y327538D01*
X50641Y328071D01*
X52774D01*
X53307Y327538D01*
Y326471D01*
X52774Y325938D01*
X50641Y324872D02*
X50108Y324339D01*
Y323272D01*
X50641Y322739D01*
X51174D01*
X51708Y323272D01*
X52241Y322739D01*
X52774D01*
X53307Y323272D01*
Y324339D01*
X52774Y324872D01*
X52241D01*
X51708Y324339D01*
X51174Y324872D01*
X50641D01*
X51708Y324339D02*
Y323272D01*
X50641Y321673D02*
X50108Y321140D01*
Y320074D01*
X50641Y319540D01*
X51174D01*
X51708Y320074D01*
Y320607D01*
Y320074D01*
X52241Y319540D01*
X52774D01*
X53307Y320074D01*
Y321140D01*
X52774Y321673D01*
X81862Y338340D02*
X81329Y338873D01*
Y339939D01*
X81862Y340472D01*
X83994D01*
X84528Y339939D01*
Y338873D01*
X83994Y338340D01*
X81862Y337274D02*
X81329Y336740D01*
Y335674D01*
X81862Y335141D01*
X82395D01*
X82928Y335674D01*
X83461Y335141D01*
X83994D01*
X84528Y335674D01*
Y336740D01*
X83994Y337274D01*
X83461D01*
X82928Y336740D01*
X82395Y337274D01*
X81862D01*
X82928Y336740D02*
Y335674D01*
X84528Y332475D02*
X81329D01*
X82928Y334074D01*
Y331942D01*
X111962Y277981D02*
X112495Y278514D01*
X113561D01*
X114094Y277981D01*
Y275848D01*
X113561Y275315D01*
X112495D01*
X111962Y275848D01*
X110896Y277981D02*
X110362Y278514D01*
X109296D01*
X108763Y277981D01*
Y277448D01*
X109296Y276914D01*
X108763Y276381D01*
Y275848D01*
X109296Y275315D01*
X110362D01*
X110896Y275848D01*
Y276381D01*
X110362Y276914D01*
X110896Y277448D01*
Y277981D01*
X110362Y276914D02*
X109296D01*
X105564Y278514D02*
X107697D01*
Y276914D01*
X106630Y277448D01*
X106097D01*
X105564Y276914D01*
Y275848D01*
X106097Y275315D01*
X107163D01*
X107697Y275848D01*
X34444Y208537D02*
X33911Y209070D01*
Y210136D01*
X34444Y210669D01*
X36577D01*
X37110Y210136D01*
Y209070D01*
X36577Y208537D01*
X34444Y207470D02*
X33911Y206937D01*
Y205871D01*
X34444Y205338D01*
X34977D01*
X35511Y205871D01*
X36044Y205338D01*
X36577D01*
X37110Y205871D01*
Y206937D01*
X36577Y207470D01*
X36044D01*
X35511Y206937D01*
X34977Y207470D01*
X34444D01*
X35511Y206937D02*
Y205871D01*
X33911Y202139D02*
X34444Y203205D01*
X35511Y204271D01*
X36577D01*
X37110Y203738D01*
Y202672D01*
X36577Y202139D01*
X36044D01*
X35511Y202672D01*
Y204271D01*
X24505Y200264D02*
X25038Y200797D01*
X26105D01*
X26638Y200264D01*
Y198132D01*
X26105Y197598D01*
X25038D01*
X24505Y198132D01*
X23439Y200264D02*
X22906Y200797D01*
X21839D01*
X21306Y200264D01*
Y199731D01*
X21839Y199198D01*
X21306Y198665D01*
Y198132D01*
X21839Y197598D01*
X22906D01*
X23439Y198132D01*
Y198665D01*
X22906Y199198D01*
X23439Y199731D01*
Y200264D01*
X22906Y199198D02*
X21839D01*
X20240Y200797D02*
X18107D01*
Y200264D01*
X20240Y198132D01*
Y197598D01*
X146135Y238926D02*
X146668Y239459D01*
X147735D01*
X148268Y238926D01*
Y236793D01*
X147735Y236260D01*
X146668D01*
X146135Y236793D01*
X145069Y238926D02*
X144536Y239459D01*
X143469D01*
X142936Y238926D01*
Y238392D01*
X143469Y237859D01*
X142936Y237326D01*
Y236793D01*
X143469Y236260D01*
X144536D01*
X145069Y236793D01*
Y237326D01*
X144536Y237859D01*
X145069Y238392D01*
Y238926D01*
X144536Y237859D02*
X143469D01*
X141870Y238926D02*
X141337Y239459D01*
X140270D01*
X139737Y238926D01*
Y238392D01*
X140270Y237859D01*
X139737Y237326D01*
Y236793D01*
X140270Y236260D01*
X141337D01*
X141870Y236793D01*
Y237326D01*
X141337Y237859D01*
X141870Y238392D01*
Y238926D01*
X141337Y237859D02*
X140270D01*
X110426Y231288D02*
X110960Y231821D01*
X112026D01*
X112559Y231288D01*
Y229155D01*
X112026Y228622D01*
X110960D01*
X110426Y229155D01*
X109360Y231288D02*
X108827Y231821D01*
X107761D01*
X107227Y231288D01*
Y230755D01*
X107761Y230222D01*
X107227Y229688D01*
Y229155D01*
X107761Y228622D01*
X108827D01*
X109360Y229155D01*
Y229688D01*
X108827Y230222D01*
X109360Y230755D01*
Y231288D01*
X108827Y230222D02*
X107761D01*
X106161Y229155D02*
X105628Y228622D01*
X104562D01*
X104028Y229155D01*
Y231288D01*
X104562Y231821D01*
X105628D01*
X106161Y231288D01*
Y230755D01*
X105628Y230222D01*
X104028D01*
X115035Y328915D02*
X114502Y329448D01*
Y330515D01*
X115035Y331048D01*
X117168D01*
X117701Y330515D01*
Y329448D01*
X117168Y328915D01*
Y327849D02*
X117701Y327316D01*
Y326249D01*
X117168Y325716D01*
X115035D01*
X114502Y326249D01*
Y327316D01*
X115035Y327849D01*
X115568D01*
X116101Y327316D01*
Y325716D01*
X115035Y324650D02*
X114502Y324117D01*
Y323050D01*
X115035Y322517D01*
X117168D01*
X117701Y323050D01*
Y324117D01*
X117168Y324650D01*
X115035D01*
X144027Y342946D02*
X143494Y343479D01*
Y344546D01*
X144027Y345079D01*
X146160D01*
X146693Y344546D01*
Y343479D01*
X146160Y342946D01*
Y341880D02*
X146693Y341347D01*
Y340280D01*
X146160Y339747D01*
X144027D01*
X143494Y340280D01*
Y341347D01*
X144027Y341880D01*
X144560D01*
X145093Y341347D01*
Y339747D01*
X146693Y338681D02*
Y337614D01*
Y338148D01*
X143494D01*
X144027Y338681D01*
X218718Y283832D02*
X219251Y284365D01*
X220317D01*
X220850Y283832D01*
Y281699D01*
X220317Y281166D01*
X219251D01*
X218718Y281699D01*
X217651D02*
X217118Y281166D01*
X216052D01*
X215519Y281699D01*
Y283832D01*
X216052Y284365D01*
X217118D01*
X217651Y283832D01*
Y283299D01*
X217118Y282765D01*
X215519D01*
X214452Y283832D02*
X213919Y284365D01*
X212853D01*
X212320Y283832D01*
Y283299D01*
X212853Y282765D01*
X213386D01*
X212853D01*
X212320Y282232D01*
Y281699D01*
X212853Y281166D01*
X213919D01*
X214452Y281699D01*
X175765Y277060D02*
X176298Y277593D01*
X177364D01*
X177898Y277060D01*
Y274927D01*
X177364Y274394D01*
X176298D01*
X175765Y274927D01*
X174699D02*
X174165Y274394D01*
X173099D01*
X172566Y274927D01*
Y277060D01*
X173099Y277593D01*
X174165D01*
X174699Y277060D01*
Y276527D01*
X174165Y275994D01*
X172566D01*
X169900Y274394D02*
Y277593D01*
X171500Y275994D01*
X169367D01*
X209757Y237548D02*
X210290Y238081D01*
X211357D01*
X211890Y237548D01*
Y235415D01*
X211357Y234882D01*
X210290D01*
X209757Y235415D01*
X208691D02*
X208158Y234882D01*
X207091D01*
X206558Y235415D01*
Y237548D01*
X207091Y238081D01*
X208158D01*
X208691Y237548D01*
Y237015D01*
X208158Y236481D01*
X206558D01*
X205492Y238081D02*
X203359D01*
Y237548D01*
X205492Y235415D01*
Y234882D01*
X171568Y330501D02*
X172101Y331034D01*
X173168D01*
X173701Y330501D01*
Y328368D01*
X173168Y327835D01*
X172101D01*
X171568Y328368D01*
X170502D02*
X169969Y327835D01*
X168902D01*
X168369Y328368D01*
Y330501D01*
X168902Y331034D01*
X169969D01*
X170502Y330501D01*
Y329967D01*
X169969Y329434D01*
X168369D01*
X167303Y330501D02*
X166770Y331034D01*
X165703D01*
X165170Y330501D01*
Y329967D01*
X165703Y329434D01*
X165170Y328901D01*
Y328368D01*
X165703Y327835D01*
X166770D01*
X167303Y328368D01*
Y328901D01*
X166770Y329434D01*
X167303Y329967D01*
Y330501D01*
X166770Y329434D02*
X165703D01*
X203340Y342823D02*
X203873Y343356D01*
X204939D01*
X205472Y342823D01*
Y340691D01*
X204939Y340158D01*
X203873D01*
X203340Y340691D01*
X202274D02*
X201740Y340158D01*
X200674D01*
X200141Y340691D01*
Y342823D01*
X200674Y343356D01*
X201740D01*
X202274Y342823D01*
Y342290D01*
X201740Y341757D01*
X200141D01*
X199074Y340691D02*
X198541Y340158D01*
X197475D01*
X196942Y340691D01*
Y342823D01*
X197475Y343356D01*
X198541D01*
X199074Y342823D01*
Y342290D01*
X198541Y341757D01*
X196942D01*
X181411Y231012D02*
X181944Y231545D01*
X183010D01*
X183543Y231012D01*
Y228880D01*
X183010Y228346D01*
X181944D01*
X181411Y228880D01*
X180344Y228346D02*
X179278D01*
X179811D01*
Y231545D01*
X180344Y231012D01*
X177679D02*
X177145Y231545D01*
X176079D01*
X175546Y231012D01*
Y228880D01*
X176079Y228346D01*
X177145D01*
X177679Y228880D01*
Y231012D01*
X174480D02*
X173946Y231545D01*
X172880D01*
X172347Y231012D01*
Y228880D01*
X172880Y228346D01*
X173946D01*
X174480Y228880D01*
Y231012D01*
X165681Y313891D02*
X165147Y314424D01*
Y315491D01*
X165681Y316024D01*
X167813D01*
X168347Y315491D01*
Y314424D01*
X167813Y313891D01*
X168347Y312825D02*
Y311758D01*
Y312292D01*
X165147D01*
X165681Y312825D01*
Y310159D02*
X165147Y309626D01*
Y308559D01*
X165681Y308026D01*
X167813D01*
X168347Y308559D01*
Y309626D01*
X167813Y310159D01*
X165681D01*
X168347Y306960D02*
Y305894D01*
Y306427D01*
X165147D01*
X165681Y306960D01*
X87964Y244481D02*
X87431Y245015D01*
Y246081D01*
X87964Y246614D01*
X90097D01*
X90630Y246081D01*
Y245015D01*
X90097Y244481D01*
X90630Y243415D02*
Y242349D01*
Y242882D01*
X87431D01*
X87964Y243415D01*
Y240749D02*
X87431Y240216D01*
Y239150D01*
X87964Y238617D01*
X90097D01*
X90630Y239150D01*
Y240216D01*
X90097Y240749D01*
X87964D01*
X90630Y235418D02*
Y237550D01*
X88497Y235418D01*
X87964D01*
X87431Y235951D01*
Y237017D01*
X87964Y237550D01*
X90051Y317237D02*
X89518Y317771D01*
Y318837D01*
X90051Y319370D01*
X92183D01*
X92716Y318837D01*
Y317771D01*
X92183Y317237D01*
X92716Y316171D02*
Y315105D01*
Y315638D01*
X89518D01*
X90051Y316171D01*
Y313505D02*
X89518Y312972D01*
Y311906D01*
X90051Y311373D01*
X92183D01*
X92716Y311906D01*
Y312972D01*
X92183Y313505D01*
X90051D01*
Y310306D02*
X89518Y309773D01*
Y308707D01*
X90051Y308174D01*
X90584D01*
X91117Y308707D01*
Y309240D01*
Y308707D01*
X91650Y308174D01*
X92183D01*
X92716Y308707D01*
Y309773D01*
X92183Y310306D01*
X153397Y302986D02*
X152864Y303519D01*
Y304585D01*
X153397Y305118D01*
X155530D01*
X156063Y304585D01*
Y303519D01*
X155530Y302986D01*
X156063Y301919D02*
Y300853D01*
Y301386D01*
X152864D01*
X153397Y301919D01*
Y299253D02*
X152864Y298720D01*
Y297654D01*
X153397Y297121D01*
X155530D01*
X156063Y297654D01*
Y298720D01*
X155530Y299253D01*
X153397D01*
X156063Y294455D02*
X152864D01*
X154464Y296054D01*
Y293922D01*
X5444Y317946D02*
X4911Y318479D01*
Y319546D01*
X5444Y320079D01*
X7577D01*
X8110Y319546D01*
Y318479D01*
X7577Y317946D01*
X8110Y316880D02*
Y315813D01*
Y316347D01*
X4911D01*
X5444Y316880D01*
Y314214D02*
X4911Y313681D01*
Y312614D01*
X5444Y312081D01*
X7577D01*
X8110Y312614D01*
Y313681D01*
X7577Y314214D01*
X5444D01*
X4911Y308882D02*
Y311015D01*
X6511D01*
X5978Y309949D01*
Y309416D01*
X6511Y308882D01*
X7577D01*
X8110Y309416D01*
Y310482D01*
X7577Y311015D01*
X6311Y271332D02*
X5777Y271865D01*
Y272931D01*
X6311Y273465D01*
X8443D01*
X8976Y272931D01*
Y271865D01*
X8443Y271332D01*
X8976Y270266D02*
Y269199D01*
Y269732D01*
X5777D01*
X6311Y270266D01*
Y267600D02*
X5777Y267067D01*
Y266000D01*
X6311Y265467D01*
X8443D01*
X8976Y266000D01*
Y267067D01*
X8443Y267600D01*
X6311D01*
X5777Y262268D02*
X6311Y263334D01*
X7377Y264401D01*
X8443D01*
X8976Y263868D01*
Y262801D01*
X8443Y262268D01*
X7910D01*
X7377Y262801D01*
Y264401D01*
X155563Y269757D02*
X155029Y270290D01*
Y271357D01*
X155563Y271890D01*
X157695D01*
X158228Y271357D01*
Y270290D01*
X157695Y269757D01*
X158228Y268691D02*
Y267624D01*
Y268158D01*
X155029D01*
X155563Y268691D01*
Y266025D02*
X155029Y265492D01*
Y264425D01*
X155563Y263892D01*
X157695D01*
X158228Y264425D01*
Y265492D01*
X157695Y266025D01*
X155563D01*
X155029Y262826D02*
Y260693D01*
X155563D01*
X157695Y262826D01*
X158228D01*
X94381Y244442D02*
X93848Y244975D01*
Y246042D01*
X94381Y246575D01*
X96514D01*
X97047Y246042D01*
Y244975D01*
X96514Y244442D01*
X97047Y243376D02*
Y242309D01*
Y242843D01*
X93848D01*
X94381Y243376D01*
Y240710D02*
X93848Y240177D01*
Y239111D01*
X94381Y238577D01*
X96514D01*
X97047Y239111D01*
Y240177D01*
X96514Y240710D01*
X94381D01*
Y237511D02*
X93848Y236978D01*
Y235912D01*
X94381Y235378D01*
X94915D01*
X95448Y235912D01*
X95981Y235378D01*
X96514D01*
X97047Y235912D01*
Y236978D01*
X96514Y237511D01*
X95981D01*
X95448Y236978D01*
X94915Y237511D01*
X94381D01*
X95448Y236978D02*
Y235912D01*
X96114Y317041D02*
X95581Y317574D01*
Y318640D01*
X96114Y319173D01*
X98246D01*
X98779Y318640D01*
Y317574D01*
X98246Y317041D01*
X98779Y315974D02*
Y314908D01*
Y315441D01*
X95581D01*
X96114Y315974D01*
Y313309D02*
X95581Y312775D01*
Y311709D01*
X96114Y311176D01*
X98246D01*
X98779Y311709D01*
Y312775D01*
X98246Y313309D01*
X96114D01*
X98246Y310109D02*
X98779Y309576D01*
Y308510D01*
X98246Y307977D01*
X96114D01*
X95581Y308510D01*
Y309576D01*
X96114Y310109D01*
X96647D01*
X97180Y309576D01*
Y307977D01*
X162807Y267041D02*
X162274Y267574D01*
Y268640D01*
X162807Y269173D01*
X164939D01*
X165472Y268640D01*
Y267574D01*
X164939Y267041D01*
X165472Y265974D02*
Y264908D01*
Y265441D01*
X162274D01*
X162807Y265974D01*
X165472Y263309D02*
Y262242D01*
Y262775D01*
X162274D01*
X162807Y263309D01*
Y260643D02*
X162274Y260109D01*
Y259043D01*
X162807Y258510D01*
X164939D01*
X165472Y259043D01*
Y260109D01*
X164939Y260643D01*
X162807D01*
X10759Y314521D02*
X10226Y315054D01*
Y316120D01*
X10759Y316653D01*
X12892D01*
X13425Y316120D01*
Y315054D01*
X12892Y314521D01*
X13425Y313455D02*
Y312388D01*
Y312921D01*
X10226D01*
X10759Y313455D01*
X13425Y310789D02*
Y309722D01*
Y310256D01*
X10226D01*
X10759Y310789D01*
X13425Y308123D02*
Y307057D01*
Y307590D01*
X10226D01*
X10759Y308123D01*
X11822Y268891D02*
X11289Y269424D01*
Y270491D01*
X11822Y271024D01*
X13955D01*
X14488Y270491D01*
Y269424D01*
X13955Y268891D01*
X14488Y267825D02*
Y266758D01*
Y267291D01*
X11289D01*
X11822Y267825D01*
X14488Y265159D02*
Y264092D01*
Y264626D01*
X11289D01*
X11822Y265159D01*
X14488Y260360D02*
Y262493D01*
X12355Y260360D01*
X11822D01*
X11289Y260894D01*
Y261960D01*
X11822Y262493D01*
X128615Y324674D02*
X129149Y325207D01*
X130215D01*
X130748Y324674D01*
Y322541D01*
X130215Y322008D01*
X129149D01*
X128615Y322541D01*
X127549Y322008D02*
X126483D01*
X127016D01*
Y325207D01*
X127549Y324674D01*
X124883Y322008D02*
X123817D01*
X124350D01*
Y325207D01*
X124883Y324674D01*
X122218D02*
X121684Y325207D01*
X120618D01*
X120085Y324674D01*
Y324141D01*
X120618Y323607D01*
X121151D01*
X120618D01*
X120085Y323074D01*
Y322541D01*
X120618Y322008D01*
X121684D01*
X122218Y322541D01*
X78182Y326839D02*
X78715Y327372D01*
X79782D01*
X80315Y326839D01*
Y324706D01*
X79782Y324173D01*
X78715D01*
X78182Y324706D01*
X77116Y324173D02*
X76050D01*
X76583D01*
Y327372D01*
X77116Y326839D01*
X74450Y324173D02*
X73384D01*
X73917D01*
Y327372D01*
X74450Y326839D01*
X70185Y324173D02*
Y327372D01*
X71784Y325773D01*
X69652D01*
X15308Y224359D02*
X15842Y224892D01*
X16908D01*
X17441Y224359D01*
Y222226D01*
X16908Y221693D01*
X15842D01*
X15308Y222226D01*
X14242Y221693D02*
X13176D01*
X13709D01*
Y224892D01*
X14242Y224359D01*
X11576Y221693D02*
X10510D01*
X11043D01*
Y224892D01*
X11576Y224359D01*
X6778Y224892D02*
X8910D01*
Y223292D01*
X7844Y223826D01*
X7311D01*
X6778Y223292D01*
Y222226D01*
X7311Y221693D01*
X8377D01*
X8910Y222226D01*
X183222Y324162D02*
X183755Y324695D01*
X184821D01*
X185354Y324162D01*
Y322029D01*
X184821Y321496D01*
X183755D01*
X183222Y322029D01*
X182155Y321496D02*
X181089D01*
X181622D01*
Y324695D01*
X182155Y324162D01*
X179490Y321496D02*
X178423D01*
X178956D01*
Y324695D01*
X179490Y324162D01*
X174691Y324695D02*
X175757Y324162D01*
X176824Y323095D01*
Y322029D01*
X176291Y321496D01*
X175224D01*
X174691Y322029D01*
Y322562D01*
X175224Y323095D01*
X176824D01*
X103734Y144516D02*
X104267Y145049D01*
X105333D01*
X105866Y144516D01*
Y142384D01*
X105333Y141850D01*
X104267D01*
X103734Y142384D01*
X100534Y144516D02*
X101068Y145049D01*
X102134D01*
X102667Y144516D01*
Y142384D01*
X102134Y141850D01*
X101068D01*
X100534Y142384D01*
X171441Y199011D02*
Y195812D01*
X169841D01*
X169308Y196345D01*
Y198477D01*
X169841Y199011D01*
X171441D01*
X166109D02*
X168242D01*
Y197411D01*
X167176Y197944D01*
X166642D01*
X166109Y197411D01*
Y196345D01*
X166642Y195812D01*
X167709D01*
X168242Y196345D01*
X184799Y147608D02*
Y144409D01*
X183200D01*
X182667Y144943D01*
Y147075D01*
X183200Y147608D01*
X184799D01*
X181600Y147075D02*
X181067Y147608D01*
X180001D01*
X179468Y147075D01*
Y146542D01*
X180001Y146009D01*
X179468Y145476D01*
Y144943D01*
X180001Y144409D01*
X181067D01*
X181600Y144943D01*
Y145476D01*
X181067Y146009D01*
X181600Y146542D01*
Y147075D01*
X181067Y146009D02*
X180001D01*
X91496Y142608D02*
Y139409D01*
X89897D01*
X89363Y139943D01*
Y142075D01*
X89897Y142608D01*
X91496D01*
X86164Y142075D02*
X86698Y142608D01*
X87764D01*
X88297Y142075D01*
Y139943D01*
X87764Y139409D01*
X86698D01*
X86164Y139943D01*
X198930Y48790D02*
X201063D01*
Y47190D01*
X199997D01*
X201063D01*
Y45591D01*
X197864Y48790D02*
Y45591D01*
X196265D01*
X195731Y46124D01*
Y46657D01*
X196265Y47190D01*
X197864D01*
X196265D01*
X195731Y47723D01*
Y48256D01*
X196265Y48790D01*
X197864D01*
X194665Y48256D02*
X194132Y48790D01*
X193066D01*
X192532Y48256D01*
Y47723D01*
X193066Y47190D01*
X193599D01*
X193066D01*
X192532Y46657D01*
Y46124D01*
X193066Y45591D01*
X194132D01*
X194665Y46124D01*
X308852Y89852D02*
X309918D01*
X309385D01*
Y87187D01*
X309918Y86654D01*
X310451D01*
X310984Y87187D01*
X307785Y86120D02*
X305653D01*
X304586Y89852D02*
Y87720D01*
X303520Y86654D01*
X302454Y87720D01*
Y89852D01*
X301387Y86654D02*
X300321D01*
X300854D01*
Y89852D01*
X301387Y89319D01*
X194953Y213301D02*
X196020D01*
X195486D01*
Y210635D01*
X196020Y210102D01*
X196553D01*
X197086Y210635D01*
X193887Y209569D02*
X191754D01*
X190688Y213301D02*
Y211169D01*
X189622Y210102D01*
X188555Y211169D01*
Y213301D01*
X187489Y212768D02*
X186956Y213301D01*
X185889D01*
X185356Y212768D01*
Y212235D01*
X185889Y211702D01*
X186423D01*
X185889D01*
X185356Y211169D01*
Y210635D01*
X185889Y210102D01*
X186956D01*
X187489Y210635D01*
X217470Y257395D02*
Y258461D01*
Y257928D01*
X220136D01*
X220669Y258461D01*
Y258994D01*
X220136Y259528D01*
X221202Y256329D02*
Y254196D01*
X217470Y253130D02*
X219603D01*
X220669Y252063D01*
X219603Y250997D01*
X217470D01*
X220669Y248331D02*
X217470D01*
X219070Y249931D01*
Y247798D01*
X225521Y315104D02*
X226587D01*
X226054D01*
Y312438D01*
X226587Y311905D01*
X227120D01*
X227654Y312438D01*
X224455Y311372D02*
X222322D01*
X221256Y315104D02*
Y312971D01*
X220189Y311905D01*
X219123Y312971D01*
Y315104D01*
X215924D02*
X218057D01*
Y313504D01*
X216990Y314038D01*
X216457D01*
X215924Y313504D01*
Y312438D01*
X216457Y311905D01*
X217524D01*
X218057Y312438D01*
X38482Y111975D02*
Y114107D01*
X39015Y114640D01*
X40081D01*
X40614Y114107D01*
Y111975D01*
X40081Y111442D01*
X39015D01*
X39548Y112508D02*
X38482Y111442D01*
X39015D02*
X38482Y111975D01*
X35282Y114640D02*
X37415D01*
Y113041D01*
X36349Y113574D01*
X35816D01*
X35282Y113041D01*
Y111975D01*
X35816Y111442D01*
X36882D01*
X37415Y111975D01*
X36907Y61581D02*
Y63714D01*
X37440Y64247D01*
X38506D01*
X39039Y63714D01*
Y61581D01*
X38506Y61048D01*
X37440D01*
X37973Y62114D02*
X36907Y61048D01*
X37440D02*
X36907Y61581D01*
X33708Y64247D02*
X34774Y63714D01*
X35840Y62647D01*
Y61581D01*
X35307Y61048D01*
X34241D01*
X33708Y61581D01*
Y62114D01*
X34241Y62647D01*
X35840D01*
X243976Y30748D02*
X240777D01*
Y29149D01*
X241311Y28615D01*
X242377D01*
X242910Y29149D01*
Y30748D01*
Y29682D02*
X243976Y28615D01*
Y27549D02*
Y26483D01*
Y27016D01*
X240777D01*
X241311Y27549D01*
X236987Y30748D02*
X233788D01*
Y29149D01*
X234321Y28615D01*
X235387D01*
X235920Y29149D01*
Y30748D01*
Y29682D02*
X236987Y28615D01*
X234321Y27549D02*
X233788Y27016D01*
Y25950D01*
X234321Y25416D01*
X234854D01*
X235387Y25950D01*
X235920Y25416D01*
X236454D01*
X236987Y25950D01*
Y27016D01*
X236454Y27549D01*
X235920D01*
X235387Y27016D01*
X234854Y27549D01*
X234321D01*
X235387Y27016D02*
Y25950D01*
X228740Y60079D02*
X225541D01*
Y58479D01*
X226074Y57946D01*
X227141D01*
X227674Y58479D01*
Y60079D01*
Y59012D02*
X228740Y57946D01*
Y54747D02*
Y56880D01*
X226607Y54747D01*
X226074D01*
X225541Y55280D01*
Y56347D01*
X226074Y56880D01*
X225541Y53681D02*
Y51548D01*
X226074D01*
X228207Y53681D01*
X228740D01*
X107598Y40394D02*
X104400D01*
Y38794D01*
X104933Y38261D01*
X105999D01*
X106532Y38794D01*
Y40394D01*
Y39327D02*
X107598Y38261D01*
X104933Y37195D02*
X104400Y36662D01*
Y35595D01*
X104933Y35062D01*
X105466D01*
X105999Y35595D01*
Y36128D01*
Y35595D01*
X106532Y35062D01*
X107065D01*
X107598Y35595D01*
Y36662D01*
X107065Y37195D01*
X107598Y33996D02*
Y32929D01*
Y33463D01*
X104400D01*
X104933Y33996D01*
X72504Y184086D02*
Y187285D01*
X70904D01*
X70371Y186752D01*
Y185685D01*
X70904Y185152D01*
X72504D01*
X71438D02*
X70371Y184086D01*
X69305Y186752D02*
X68772Y187285D01*
X67705D01*
X67172Y186752D01*
Y186219D01*
X67705Y185685D01*
X68239D01*
X67705D01*
X67172Y185152D01*
Y184619D01*
X67705Y184086D01*
X68772D01*
X69305Y184619D01*
X66106Y186752D02*
X65573Y187285D01*
X64506D01*
X63973Y186752D01*
Y186219D01*
X64506Y185685D01*
X65040D01*
X64506D01*
X63973Y185152D01*
Y184619D01*
X64506Y184086D01*
X65573D01*
X66106Y184619D01*
X72504Y201468D02*
Y204667D01*
X70904D01*
X70371Y204134D01*
Y203067D01*
X70904Y202534D01*
X72504D01*
X71438D02*
X70371Y201468D01*
X69305Y204134D02*
X68772Y204667D01*
X67705D01*
X67172Y204134D01*
Y203600D01*
X67705Y203067D01*
X68239D01*
X67705D01*
X67172Y202534D01*
Y202001D01*
X67705Y201468D01*
X68772D01*
X69305Y202001D01*
X64506Y201468D02*
Y204667D01*
X66106Y203067D01*
X63973D01*
X162008Y152732D02*
Y155931D01*
X160408D01*
X159875Y155398D01*
Y154332D01*
X160408Y153799D01*
X162008D01*
X160942D02*
X159875Y152732D01*
X158809Y155398D02*
X158276Y155931D01*
X157209D01*
X156676Y155398D01*
Y154865D01*
X157209Y154332D01*
X157743D01*
X157209D01*
X156676Y153799D01*
Y153266D01*
X157209Y152732D01*
X158276D01*
X158809Y153266D01*
X155610Y155931D02*
X153477D01*
Y155398D01*
X155610Y153266D01*
Y152732D01*
X133465Y144764D02*
Y147963D01*
X131865D01*
X131332Y147430D01*
Y146363D01*
X131865Y145830D01*
X133465D01*
X132398D02*
X131332Y144764D01*
X130266Y147430D02*
X129732Y147963D01*
X128666D01*
X128133Y147430D01*
Y146896D01*
X128666Y146363D01*
X129199D01*
X128666D01*
X128133Y145830D01*
Y145297D01*
X128666Y144764D01*
X129732D01*
X130266Y145297D01*
X127067Y147430D02*
X126533Y147963D01*
X125467D01*
X124934Y147430D01*
Y146896D01*
X125467Y146363D01*
X124934Y145830D01*
Y145297D01*
X125467Y144764D01*
X126533D01*
X127067Y145297D01*
Y145830D01*
X126533Y146363D01*
X127067Y146896D01*
Y147430D01*
X126533Y146363D02*
X125467D01*
X72504Y178292D02*
Y181491D01*
X70904D01*
X70371Y180958D01*
Y179891D01*
X70904Y179358D01*
X72504D01*
X71438D02*
X70371Y178292D01*
X69305Y180958D02*
X68772Y181491D01*
X67705D01*
X67172Y180958D01*
Y180425D01*
X67705Y179891D01*
X68239D01*
X67705D01*
X67172Y179358D01*
Y178825D01*
X67705Y178292D01*
X68772D01*
X69305Y178825D01*
X66106D02*
X65573Y178292D01*
X64506D01*
X63973Y178825D01*
Y180958D01*
X64506Y181491D01*
X65573D01*
X66106Y180958D01*
Y180425D01*
X65573Y179891D01*
X63973D01*
X72504Y195674D02*
Y198873D01*
X70904D01*
X70371Y198340D01*
Y197273D01*
X70904Y196740D01*
X72504D01*
X71438D02*
X70371Y195674D01*
X67705D02*
Y198873D01*
X69305Y197273D01*
X67172D01*
X66106Y198340D02*
X65573Y198873D01*
X64506D01*
X63973Y198340D01*
Y196207D01*
X64506Y195674D01*
X65573D01*
X66106Y196207D01*
Y198340D01*
X146653Y167004D02*
Y170203D01*
X145054D01*
X144521Y169669D01*
Y168603D01*
X145054Y168070D01*
X146653D01*
X145587D02*
X144521Y167004D01*
X141855D02*
Y170203D01*
X143455Y168603D01*
X141322D01*
X138123Y167004D02*
X140256D01*
X138123Y169136D01*
Y169669D01*
X138656Y170203D01*
X139722D01*
X140256Y169669D01*
X72504Y207262D02*
Y210461D01*
X70904D01*
X70371Y209928D01*
Y208861D01*
X70904Y208328D01*
X72504D01*
X71438D02*
X70371Y207262D01*
X67705D02*
Y210461D01*
X69305Y208861D01*
X67172D01*
X66106Y209928D02*
X65573Y210461D01*
X64506D01*
X63973Y209928D01*
Y209394D01*
X64506Y208861D01*
X65040D01*
X64506D01*
X63973Y208328D01*
Y207795D01*
X64506Y207262D01*
X65573D01*
X66106Y207795D01*
X147660Y172736D02*
Y175935D01*
X146060D01*
X145527Y175402D01*
Y174336D01*
X146060Y173802D01*
X147660D01*
X146593D02*
X145527Y172736D01*
X142861D02*
Y175935D01*
X144461Y174336D01*
X142328D01*
X139662Y172736D02*
Y175935D01*
X141262Y174336D01*
X139129D01*
X256598Y327008D02*
X253399D01*
Y325408D01*
X253932Y324875D01*
X254999D01*
X255532Y325408D01*
Y327008D01*
Y325942D02*
X256598Y324875D01*
Y322209D02*
X253399D01*
X254999Y323809D01*
Y321676D01*
X253399Y318477D02*
Y320610D01*
X254999D01*
X254466Y319544D01*
Y319010D01*
X254999Y318477D01*
X256065D01*
X256598Y319010D01*
Y320077D01*
X256065Y320610D01*
X158701Y183819D02*
Y187018D01*
X157101D01*
X156568Y186485D01*
Y185418D01*
X157101Y184885D01*
X158701D01*
X157634D02*
X156568Y183819D01*
X153902D02*
Y187018D01*
X155502Y185418D01*
X153369D01*
X150170Y187018D02*
X151236Y186485D01*
X152303Y185418D01*
Y184352D01*
X151770Y183819D01*
X150703D01*
X150170Y184352D01*
Y184885D01*
X150703Y185418D01*
X152303D01*
X90378Y190890D02*
Y194089D01*
X88778D01*
X88245Y193556D01*
Y192490D01*
X88778Y191957D01*
X90378D01*
X89311D02*
X88245Y190890D01*
X85579D02*
Y194089D01*
X87179Y192490D01*
X85046D01*
X83980Y194089D02*
X81847D01*
Y193556D01*
X83980Y191423D01*
Y190890D01*
X172351Y127323D02*
X169152D01*
Y125723D01*
X169685Y125190D01*
X170751D01*
X171284Y125723D01*
Y127323D01*
Y126257D02*
X172351Y125190D01*
X169152Y121991D02*
Y124124D01*
X170751D01*
X170218Y123057D01*
Y122524D01*
X170751Y121991D01*
X171818D01*
X172351Y122524D01*
Y123591D01*
X171818Y124124D01*
X169685Y120925D02*
X169152Y120392D01*
Y119325D01*
X169685Y118792D01*
X170218D01*
X170751Y119325D01*
Y119859D01*
Y119325D01*
X171284Y118792D01*
X171818D01*
X172351Y119325D01*
Y120392D01*
X171818Y120925D01*
X164213Y127323D02*
X161014D01*
Y125723D01*
X161547Y125190D01*
X162613D01*
X163146Y125723D01*
Y127323D01*
Y126257D02*
X164213Y125190D01*
X161014Y121991D02*
Y124124D01*
X162613D01*
X162080Y123057D01*
Y122524D01*
X162613Y121991D01*
X163679D01*
X164213Y122524D01*
Y123591D01*
X163679Y124124D01*
X161547Y120925D02*
X161014Y120392D01*
Y119325D01*
X161547Y118792D01*
X162080D01*
X162613Y119325D01*
X163146Y118792D01*
X163679D01*
X164213Y119325D01*
Y120392D01*
X163679Y120925D01*
X163146D01*
X162613Y120392D01*
X162080Y120925D01*
X161547D01*
X162613Y120392D02*
Y119325D01*
X218976Y29803D02*
Y33002D01*
X217377D01*
X216844Y32469D01*
Y31403D01*
X217377Y30869D01*
X218976D01*
X217910D02*
X216844Y29803D01*
X213645Y33002D02*
X214711Y32469D01*
X215777Y31403D01*
Y30336D01*
X215244Y29803D01*
X214178D01*
X213645Y30336D01*
Y30869D01*
X214178Y31403D01*
X215777D01*
X210446Y29803D02*
X212578D01*
X210446Y31936D01*
Y32469D01*
X210979Y33002D01*
X212045D01*
X212578Y32469D01*
X147660Y177515D02*
Y180714D01*
X146060D01*
X145527Y180181D01*
Y179115D01*
X146060Y178582D01*
X147660D01*
X146593D02*
X145527Y177515D01*
X142328Y180714D02*
X143394Y180181D01*
X144461Y179115D01*
Y178048D01*
X143927Y177515D01*
X142861D01*
X142328Y178048D01*
Y178582D01*
X142861Y179115D01*
X144461D01*
X139662Y177515D02*
Y180714D01*
X141262Y179115D01*
X139129D01*
X314685Y275861D02*
Y279060D01*
X313086D01*
X312552Y278526D01*
Y277460D01*
X313086Y276927D01*
X314685D01*
X313619D02*
X312552Y275861D01*
X309353Y279060D02*
X310420Y278526D01*
X311486Y277460D01*
Y276394D01*
X310953Y275861D01*
X309887D01*
X309353Y276394D01*
Y276927D01*
X309887Y277460D01*
X311486D01*
X306154Y279060D02*
X308287D01*
Y277460D01*
X307221Y277993D01*
X306688D01*
X306154Y277460D01*
Y276394D01*
X306688Y275861D01*
X307754D01*
X308287Y276394D01*
X314567Y280866D02*
Y284065D01*
X312967D01*
X312434Y283532D01*
Y282466D01*
X312967Y281932D01*
X314567D01*
X313501D02*
X312434Y280866D01*
X309235Y284065D02*
X310302Y283532D01*
X311368Y282466D01*
Y281399D01*
X310835Y280866D01*
X309769D01*
X309235Y281399D01*
Y281932D01*
X309769Y282466D01*
X311368D01*
X306036Y284065D02*
X307103Y283532D01*
X308169Y282466D01*
Y281399D01*
X307636Y280866D01*
X306570D01*
X306036Y281399D01*
Y281932D01*
X306570Y282466D01*
X308169D01*
X99410Y287800D02*
Y290999D01*
X97810D01*
X97277Y290466D01*
Y289399D01*
X97810Y288866D01*
X99410D01*
X98343D02*
X97277Y287800D01*
X94078Y290999D02*
X95144Y290466D01*
X96210Y289399D01*
Y288333D01*
X95677Y287800D01*
X94611D01*
X94078Y288333D01*
Y288866D01*
X94611Y289399D01*
X96210D01*
X93011Y290999D02*
X90879D01*
Y290466D01*
X93011Y288333D01*
Y287800D01*
X42559Y323110D02*
X39360D01*
Y321511D01*
X39893Y320978D01*
X40960D01*
X41493Y321511D01*
Y323110D01*
Y322044D02*
X42559Y320978D01*
X39360Y317779D02*
X39893Y318845D01*
X40960Y319911D01*
X42026D01*
X42559Y319378D01*
Y318312D01*
X42026Y317779D01*
X41493D01*
X40960Y318312D01*
Y319911D01*
X42026Y316712D02*
X42559Y316179D01*
Y315113D01*
X42026Y314580D01*
X39893D01*
X39360Y315113D01*
Y316179D01*
X39893Y316712D01*
X40426D01*
X40960Y316179D01*
Y314580D01*
X48071Y210669D02*
X44872D01*
Y209070D01*
X45405Y208537D01*
X46471D01*
X47005Y209070D01*
Y210669D01*
Y209603D02*
X48071Y208537D01*
X44872Y207470D02*
Y205338D01*
X45405D01*
X47538Y207470D01*
X48071D01*
X45405Y204271D02*
X44872Y203738D01*
Y202672D01*
X45405Y202139D01*
X47538D01*
X48071Y202672D01*
Y203738D01*
X47538Y204271D01*
X45405D01*
X47874Y328228D02*
X44675D01*
Y326629D01*
X45208Y326096D01*
X46275D01*
X46808Y326629D01*
Y328228D01*
Y327162D02*
X47874Y326096D01*
X44675Y325029D02*
Y322897D01*
X45208D01*
X47341Y325029D01*
X47874D01*
Y321830D02*
Y320764D01*
Y321297D01*
X44675D01*
X45208Y321830D01*
X123721Y239961D02*
Y243160D01*
X122121D01*
X121588Y242626D01*
Y241560D01*
X122121Y241027D01*
X123721D01*
X122654D02*
X121588Y239961D01*
X120521Y243160D02*
X118389D01*
Y242626D01*
X120521Y240494D01*
Y239961D01*
X115190D02*
X117323D01*
X115190Y242093D01*
Y242626D01*
X115723Y243160D01*
X116789D01*
X117323Y242626D01*
X42677Y210669D02*
X39478D01*
Y209070D01*
X40011Y208537D01*
X41078D01*
X41611Y209070D01*
Y210669D01*
Y209603D02*
X42677Y208537D01*
X39478Y207470D02*
Y205338D01*
X40011D01*
X42144Y207470D01*
X42677D01*
X40011Y204271D02*
X39478Y203738D01*
Y202672D01*
X40011Y202139D01*
X40545D01*
X41078Y202672D01*
Y203205D01*
Y202672D01*
X41611Y202139D01*
X42144D01*
X42677Y202672D01*
Y203738D01*
X42144Y204271D01*
X102008Y335984D02*
X98809D01*
Y334385D01*
X99342Y333852D01*
X100408D01*
X100942Y334385D01*
Y335984D01*
Y334918D02*
X102008Y333852D01*
X98809Y332785D02*
Y330653D01*
X99342D01*
X101475Y332785D01*
X102008D01*
Y327987D02*
X98809D01*
X100408Y329586D01*
Y327454D01*
X111772Y330984D02*
X108573D01*
Y329385D01*
X109106Y328852D01*
X110172D01*
X110705Y329385D01*
Y330984D01*
Y329918D02*
X111772Y328852D01*
X108573Y327785D02*
Y325653D01*
X109106D01*
X111239Y327785D01*
X111772D01*
X108573Y322454D02*
X109106Y323520D01*
X110172Y324586D01*
X111239D01*
X111772Y324053D01*
Y322987D01*
X111239Y322454D01*
X110705D01*
X110172Y322987D01*
Y324586D01*
X169291Y240634D02*
Y243833D01*
X167692D01*
X167159Y243300D01*
Y242234D01*
X167692Y241701D01*
X169291D01*
X168225D02*
X167159Y240634D01*
X166092Y243833D02*
X163960D01*
Y243300D01*
X166092Y241168D01*
Y240634D01*
X162893Y241168D02*
X162360Y240634D01*
X161294D01*
X160761Y241168D01*
Y243300D01*
X161294Y243833D01*
X162360D01*
X162893Y243300D01*
Y242767D01*
X162360Y242234D01*
X160761D01*
X153268Y340827D02*
X150069D01*
Y339227D01*
X150602Y338694D01*
X151668D01*
X152201Y339227D01*
Y340827D01*
Y339760D02*
X153268Y338694D01*
X150602Y337628D02*
X150069Y337095D01*
Y336028D01*
X150602Y335495D01*
X151135D01*
X151668Y336028D01*
X152201Y335495D01*
X152735D01*
X153268Y336028D01*
Y337095D01*
X152735Y337628D01*
X152201D01*
X151668Y337095D01*
X151135Y337628D01*
X150602D01*
X151668Y337095D02*
Y336028D01*
X153268Y334429D02*
Y333363D01*
Y333896D01*
X150069D01*
X150602Y334429D01*
X163465Y327835D02*
Y331034D01*
X161865D01*
X161332Y330501D01*
Y329434D01*
X161865Y328901D01*
X163465D01*
X162398D02*
X161332Y327835D01*
X160266Y330501D02*
X159732Y331034D01*
X158666D01*
X158133Y330501D01*
Y329967D01*
X158666Y329434D01*
X158133Y328901D01*
Y328368D01*
X158666Y327835D01*
X159732D01*
X160266Y328368D01*
Y328901D01*
X159732Y329434D01*
X160266Y329967D01*
Y330501D01*
X159732Y329434D02*
X158666D01*
X154934Y327835D02*
X157067D01*
X154934Y329967D01*
Y330501D01*
X155467Y331034D01*
X156534D01*
X157067Y330501D01*
X123770Y190926D02*
Y194125D01*
X122170D01*
X121637Y193592D01*
Y192525D01*
X122170Y191992D01*
X123770D01*
X122704D02*
X121637Y190926D01*
X118438Y193592D02*
X118972Y194125D01*
X120038D01*
X120571Y193592D01*
Y193058D01*
X120038Y192525D01*
X118972D01*
X118438Y191992D01*
Y191459D01*
X118972Y190926D01*
X120038D01*
X120571Y191459D01*
X115773Y190926D02*
X116839D01*
X117372Y191459D01*
Y192525D01*
X116839Y193058D01*
X115773D01*
X115239Y192525D01*
Y191992D01*
X117372D01*
X114173Y190926D02*
Y193058D01*
X112574D01*
X112040Y192525D01*
Y190926D01*
X110974D02*
X109375D01*
X108842Y191459D01*
X109375Y191992D01*
X110441D01*
X110974Y192525D01*
X110441Y193058D01*
X108842D01*
X106176Y190926D02*
X107242D01*
X107775Y191459D01*
Y192525D01*
X107242Y193058D01*
X106176D01*
X105642Y192525D01*
Y191992D01*
X107775D01*
X104576Y190926D02*
X103510D01*
X104043D01*
Y194125D01*
X104576Y193592D01*
X310224Y241567D02*
X309808Y241983D01*
Y242816D01*
X310224Y243233D01*
X310641D01*
X311057Y242816D01*
Y241983D01*
X311474Y241567D01*
X311891D01*
X312307Y241983D01*
Y242816D01*
X311891Y243233D01*
X309808Y240734D02*
X310224D01*
X311057Y239901D01*
X310224Y239068D01*
X309808D01*
X311057Y239901D02*
X312307D01*
X310224Y236568D02*
X309808Y236985D01*
Y237818D01*
X310224Y238234D01*
X310641D01*
X311057Y237818D01*
Y236985D01*
X311474Y236568D01*
X311891D01*
X312307Y236985D01*
Y237818D01*
X311891Y238234D01*
X309808Y235735D02*
Y234069D01*
Y234902D01*
X312307D01*
X309808Y231570D02*
Y233236D01*
X312307D01*
Y231570D01*
X311057Y233236D02*
Y232403D01*
X312307Y230737D02*
X309808D01*
X310641Y229904D01*
X309808Y229071D01*
X312307D01*
X312723Y228238D02*
Y226572D01*
X309808Y224489D02*
Y225322D01*
X310224Y225739D01*
X311891D01*
X312307Y225322D01*
Y224489D01*
X311891Y224072D01*
X310224D01*
X309808Y224489D01*
X312307Y223239D02*
X309808D01*
X312307Y221573D01*
X309808D01*
X110433Y124262D02*
Y121596D01*
X109900Y121063D01*
X108834D01*
X108300Y121596D01*
Y124262D01*
X105102D02*
X106168Y123729D01*
X107234Y122662D01*
Y121596D01*
X106701Y121063D01*
X105635D01*
X105102Y121596D01*
Y122129D01*
X105635Y122662D01*
X107234D01*
X36913Y311845D02*
Y309179D01*
X36380Y308646D01*
X35314D01*
X34781Y309179D01*
Y311845D01*
X33714Y308646D02*
X32648D01*
X33181D01*
Y311845D01*
X33714Y311312D01*
X28916Y311845D02*
X31049D01*
Y310246D01*
X29982Y310779D01*
X29449D01*
X28916Y310246D01*
Y309179D01*
X29449Y308646D01*
X30515D01*
X31049Y309179D01*
X38465Y265286D02*
Y262620D01*
X37931Y262087D01*
X36865D01*
X36332Y262620D01*
Y265286D01*
X35266Y262087D02*
X34199D01*
X34732D01*
Y265286D01*
X35266Y264752D01*
X30467Y265286D02*
X31534Y264752D01*
X32600Y263686D01*
Y262620D01*
X32067Y262087D01*
X31000D01*
X30467Y262620D01*
Y263153D01*
X31000Y263686D01*
X32600D01*
X67165Y346978D02*
Y344313D01*
X66632Y343779D01*
X65566D01*
X65033Y344313D01*
Y346978D01*
X63966Y343779D02*
X62900D01*
X63433D01*
Y346978D01*
X63966Y346445D01*
X61301Y346978D02*
X59168D01*
Y346445D01*
X61301Y344313D01*
Y343779D01*
X116299Y311349D02*
Y308683D01*
X115766Y308150D01*
X114700D01*
X114167Y308683D01*
Y311349D01*
X113100Y308150D02*
X112034D01*
X112567D01*
Y311349D01*
X113100Y310815D01*
X110434D02*
X109901Y311349D01*
X108835D01*
X108302Y310815D01*
Y310282D01*
X108835Y309749D01*
X108302Y309216D01*
Y308683D01*
X108835Y308150D01*
X109901D01*
X110434Y308683D01*
Y309216D01*
X109901Y309749D01*
X110434Y310282D01*
Y310815D01*
X109901Y309749D02*
X108835D01*
X12587Y214499D02*
Y211833D01*
X12054Y211300D01*
X10988D01*
X10455Y211833D01*
Y214499D01*
X9388Y211300D02*
X8322D01*
X8855D01*
Y214499D01*
X9388Y213966D01*
X6723Y211833D02*
X6189Y211300D01*
X5123D01*
X4590Y211833D01*
Y213966D01*
X5123Y214499D01*
X6189D01*
X6723Y213966D01*
Y213433D01*
X6189Y212899D01*
X4590D01*
X114803Y264852D02*
Y262187D01*
X114270Y261653D01*
X113204D01*
X112671Y262187D01*
Y264852D01*
X109471Y261653D02*
X111604D01*
X109471Y263786D01*
Y264319D01*
X110005Y264852D01*
X111071D01*
X111604Y264319D01*
X108405D02*
X107872Y264852D01*
X106806D01*
X106273Y264319D01*
Y262187D01*
X106806Y261653D01*
X107872D01*
X108405Y262187D01*
Y264319D01*
X116732Y346624D02*
Y343958D01*
X116199Y343425D01*
X115133D01*
X114600Y343958D01*
Y346624D01*
X111401Y343425D02*
X113533D01*
X111401Y345558D01*
Y346091D01*
X111934Y346624D01*
X113000D01*
X113533Y346091D01*
X110334Y343425D02*
X109268D01*
X109801D01*
Y346624D01*
X110334Y346091D01*
X192570Y312125D02*
Y309459D01*
X192037Y308926D01*
X190971D01*
X190437Y309459D01*
Y312125D01*
X187238Y308926D02*
X189371D01*
X187238Y311058D01*
Y311592D01*
X187772Y312125D01*
X188838D01*
X189371Y311592D01*
X184039Y308926D02*
X186172D01*
X184039Y311058D01*
Y311592D01*
X184573Y312125D01*
X185639D01*
X186172Y311592D01*
X169646Y347136D02*
Y344470D01*
X169113Y343937D01*
X168046D01*
X167513Y344470D01*
Y347136D01*
X164314Y343937D02*
X166447D01*
X164314Y346070D01*
Y346603D01*
X164847Y347136D01*
X165913D01*
X166447Y346603D01*
X161648Y343937D02*
Y347136D01*
X163248Y345536D01*
X161115D01*
X184961Y264341D02*
Y261675D01*
X184427Y261142D01*
X183361D01*
X182828Y261675D01*
Y264341D01*
X179629Y261142D02*
X181762D01*
X179629Y263274D01*
Y263808D01*
X180162Y264341D01*
X181228D01*
X181762Y263808D01*
X176430Y264341D02*
X178563D01*
Y262741D01*
X177496Y263274D01*
X176963D01*
X176430Y262741D01*
Y261675D01*
X176963Y261142D01*
X178030D01*
X178563Y261675D01*
X119213Y8042D02*
Y5909D01*
X118146Y4843D01*
X117080Y5909D01*
Y8042D01*
X116014D02*
Y4843D01*
X114414D01*
X113881Y5376D01*
Y5909D01*
X114414Y6442D01*
X116014D01*
X114414D01*
X113881Y6975D01*
Y7508D01*
X114414Y8042D01*
X116014D01*
X112815D02*
Y5376D01*
X112282Y4843D01*
X111215D01*
X110682Y5376D01*
Y8042D01*
X107483Y7508D02*
X108016Y8042D01*
X109082D01*
X109616Y7508D01*
Y6975D01*
X109082Y6442D01*
X108016D01*
X107483Y5909D01*
Y5376D01*
X108016Y4843D01*
X109082D01*
X109616Y5376D01*
X106417Y4309D02*
X104284D01*
X103218Y8042D02*
Y4843D01*
X101085D01*
X97886Y8042D02*
X100019D01*
Y4843D01*
X97886D01*
X100019Y6442D02*
X98953D01*
X96820Y8042D02*
Y4843D01*
X95220D01*
X94687Y5376D01*
Y7508D01*
X95220Y8042D01*
X96820D01*
X224938Y324383D02*
X225471Y324916D01*
X226538D01*
X227071Y324383D01*
Y322250D01*
X226538Y321717D01*
X225471D01*
X224938Y322250D01*
X223872Y321717D02*
X222806D01*
X223339D01*
Y324916D01*
X223872Y324383D01*
X221206Y321717D02*
X220140D01*
X220673D01*
Y324916D01*
X221206Y324383D01*
X218540Y322250D02*
X218007Y321717D01*
X216941D01*
X216408Y322250D01*
Y324383D01*
X216941Y324916D01*
X218007D01*
X218540Y324383D01*
Y323850D01*
X218007Y323317D01*
X216408D01*
X242334Y324875D02*
X241801Y325408D01*
Y326475D01*
X242334Y327008D01*
X244467D01*
X245000Y326475D01*
Y325408D01*
X244467Y324875D01*
X245000Y323809D02*
Y322743D01*
Y323276D01*
X241801D01*
X242334Y323809D01*
X245000Y319010D02*
Y321143D01*
X242867Y319010D01*
X242334D01*
X241801Y319544D01*
Y320610D01*
X242334Y321143D01*
Y317944D02*
X241801Y317411D01*
Y316345D01*
X242334Y315811D01*
X244467D01*
X245000Y316345D01*
Y317411D01*
X244467Y317944D01*
X242334D01*
X188264Y278293D02*
Y275094D01*
X186664D01*
X186131Y275627D01*
Y277760D01*
X186664Y278293D01*
X188264D01*
X185065Y275094D02*
X183999D01*
X184532D01*
Y278293D01*
X185065Y277760D01*
X182399Y278293D02*
X180266D01*
Y277760D01*
X182399Y275627D01*
Y275094D01*
X199780Y225419D02*
Y222220D01*
X198180D01*
X197647Y222753D01*
Y224886D01*
X198180Y225419D01*
X199780D01*
X196581Y222220D02*
X195514D01*
X196047D01*
Y225419D01*
X196581Y224886D01*
X193915D02*
X193382Y225419D01*
X192315D01*
X191782Y224886D01*
Y224353D01*
X192315Y223819D01*
X191782Y223286D01*
Y222753D01*
X192315Y222220D01*
X193382D01*
X193915Y222753D01*
Y223286D01*
X193382Y223819D01*
X193915Y224353D01*
Y224886D01*
X193382Y223819D02*
X192315D01*
X298622Y105000D02*
Y108199D01*
X297023D01*
X296489Y107666D01*
Y106599D01*
X297023Y106066D01*
X298622D01*
X297556D02*
X296489Y105000D01*
X295423Y107666D02*
X294890Y108199D01*
X293824D01*
X293290Y107666D01*
Y107133D01*
X293824Y106599D01*
X293290Y106066D01*
Y105533D01*
X293824Y105000D01*
X294890D01*
X295423Y105533D01*
Y106066D01*
X294890Y106599D01*
X295423Y107133D01*
Y107666D01*
X294890Y106599D02*
X293824D01*
X292224Y108199D02*
X290091D01*
Y107666D01*
X292224Y105533D01*
Y105000D01*
X223143Y344752D02*
X223676Y345286D01*
X224742D01*
X225276Y344752D01*
Y342620D01*
X224742Y342087D01*
X223676D01*
X223143Y342620D01*
X222077Y342087D02*
X221010D01*
X221544D01*
Y345286D01*
X222077Y344752D01*
X217278Y342087D02*
X219411D01*
X217278Y344219D01*
Y344752D01*
X217811Y345286D01*
X218878D01*
X219411Y344752D01*
X216212Y342087D02*
X215145D01*
X215679D01*
Y345286D01*
X216212Y344752D01*
X215523Y191686D02*
X214990Y192219D01*
Y193286D01*
X215523Y193819D01*
X217656D01*
X218189Y193286D01*
Y192219D01*
X217656Y191686D01*
X218189Y190620D02*
Y189554D01*
Y190087D01*
X214990D01*
X215523Y190620D01*
X218189Y185821D02*
Y187954D01*
X216056Y185821D01*
X215523D01*
X214990Y186355D01*
Y187421D01*
X215523Y187954D01*
X218189Y182623D02*
Y184755D01*
X216056Y182623D01*
X215523D01*
X214990Y183156D01*
Y184222D01*
X215523Y184755D01*
X203122Y184048D02*
X202588Y184582D01*
Y185648D01*
X203122Y186181D01*
X205254D01*
X205787Y185648D01*
Y184582D01*
X205254Y184048D01*
X205787Y182982D02*
Y181916D01*
Y182449D01*
X202588D01*
X203122Y182982D01*
X205787Y178184D02*
Y180316D01*
X203655Y178184D01*
X203122D01*
X202588Y178717D01*
Y179783D01*
X203122Y180316D01*
Y177117D02*
X202588Y176584D01*
Y175518D01*
X203122Y174985D01*
X203655D01*
X204188Y175518D01*
Y176051D01*
Y175518D01*
X204721Y174985D01*
X205254D01*
X205787Y175518D01*
Y176584D01*
X205254Y177117D01*
X246198Y127060D02*
X246731Y127593D01*
X247797D01*
X248331Y127060D01*
Y124927D01*
X247797Y124394D01*
X246731D01*
X246198Y124927D01*
X245132Y124394D02*
X244065D01*
X244599D01*
Y127593D01*
X245132Y127060D01*
X240333Y124394D02*
X242466D01*
X240333Y126527D01*
Y127060D01*
X240866Y127593D01*
X241933D01*
X242466Y127060D01*
X237667Y124394D02*
Y127593D01*
X239267Y125994D01*
X237134D01*
X225187Y106765D02*
Y107831D01*
Y107298D01*
X227853D01*
X228386Y107831D01*
Y108364D01*
X227853Y108898D01*
X228919Y105699D02*
Y103566D01*
X225187Y102500D02*
X227320D01*
X228386Y101433D01*
X227320Y100367D01*
X225187D01*
Y97168D02*
X225720Y98234D01*
X226786Y99301D01*
X227853D01*
X228386Y98768D01*
Y97701D01*
X227853Y97168D01*
X227320D01*
X226786Y97701D01*
Y99301D01*
X58303Y228600D02*
X57770Y229133D01*
Y230200D01*
X58303Y230733D01*
X60435D01*
X60968Y230200D01*
Y229133D01*
X60435Y228600D01*
X60968Y227534D02*
Y226468D01*
Y227001D01*
X57770D01*
X58303Y227534D01*
X60968Y222736D02*
Y224868D01*
X58836Y222736D01*
X58303D01*
X57770Y223269D01*
Y224335D01*
X58303Y224868D01*
Y221669D02*
X57770Y221136D01*
Y220070D01*
X58303Y219536D01*
X58836D01*
X59369Y220070D01*
X59902Y219536D01*
X60435D01*
X60968Y220070D01*
Y221136D01*
X60435Y221669D01*
X59902D01*
X59369Y221136D01*
X58836Y221669D01*
X58303D01*
X59369Y221136D02*
Y220070D01*
X56704Y272986D02*
X56171Y273519D01*
Y274585D01*
X56704Y275118D01*
X58837D01*
X59370Y274585D01*
Y273519D01*
X58837Y272986D01*
X59370Y271919D02*
Y270853D01*
Y271386D01*
X56171D01*
X56704Y271919D01*
X59370Y267121D02*
Y269253D01*
X57237Y267121D01*
X56704D01*
X56171Y267654D01*
Y268720D01*
X56704Y269253D01*
X58837Y266054D02*
X59370Y265521D01*
Y264455D01*
X58837Y263922D01*
X56704D01*
X56171Y264455D01*
Y265521D01*
X56704Y266054D01*
X57237D01*
X57771Y265521D01*
Y263922D01*
X65650Y274803D02*
X62451D01*
Y273204D01*
X62984Y272671D01*
X64050D01*
X64583Y273204D01*
Y274803D01*
Y273737D02*
X65650Y272671D01*
X62984Y271604D02*
X62451Y271071D01*
Y270005D01*
X62984Y269472D01*
X63517D01*
X64050Y270005D01*
Y270538D01*
Y270005D01*
X64583Y269472D01*
X65116D01*
X65650Y270005D01*
Y271071D01*
X65116Y271604D01*
X62451Y266273D02*
X62984Y267339D01*
X64050Y268405D01*
X65116D01*
X65650Y267872D01*
Y266806D01*
X65116Y266273D01*
X64583D01*
X64050Y266806D01*
Y268405D01*
X330151Y19242D02*
X332283D01*
Y17643D01*
X331217Y18176D01*
X330684D01*
X330151Y17643D01*
Y16577D01*
X330684Y16043D01*
X331750D01*
X332283Y16577D01*
X329084Y19242D02*
Y17110D01*
X328018Y16043D01*
X326952Y17110D01*
Y19242D01*
X325886Y15510D02*
X323753D01*
X322687Y16043D02*
Y19242D01*
X321087D01*
X320554Y18709D01*
Y17643D01*
X321087Y17110D01*
X322687D01*
X321620D02*
X320554Y16043D01*
X319488D02*
Y18176D01*
X318421Y19242D01*
X317355Y18176D01*
Y16043D01*
Y17643D01*
X319488D01*
X316289Y19242D02*
Y16043D01*
X314689D01*
X314156Y16577D01*
Y18709D01*
X314689Y19242D01*
X316289D01*
X313090D02*
X312023D01*
X312557D01*
Y16043D01*
X313090D01*
X312023D01*
X308824Y19242D02*
X309891D01*
X310424Y18709D01*
Y16577D01*
X309891Y16043D01*
X308824D01*
X308291Y16577D01*
Y18709D01*
X308824Y19242D01*
X307225Y15510D02*
X305092D01*
X304026Y18709D02*
X303493Y19242D01*
X302426D01*
X301893Y18709D01*
Y16577D01*
X302426Y16043D01*
X303493D01*
X304026Y16577D01*
Y18709D01*
X298543Y95157D02*
Y98356D01*
X296944D01*
X296411Y97823D01*
Y96757D01*
X296944Y96224D01*
X298543D01*
X297477D02*
X296411Y95157D01*
X295344Y97823D02*
X294811Y98356D01*
X293745D01*
X293212Y97823D01*
Y97290D01*
X293745Y96757D01*
X293212Y96224D01*
Y95691D01*
X293745Y95157D01*
X294811D01*
X295344Y95691D01*
Y96224D01*
X294811Y96757D01*
X295344Y97290D01*
Y97823D01*
X294811Y96757D02*
X293745D01*
X292145Y97823D02*
X291612Y98356D01*
X290546D01*
X290013Y97823D01*
Y97290D01*
X290546Y96757D01*
X290013Y96224D01*
Y95691D01*
X290546Y95157D01*
X291612D01*
X292145Y95691D01*
Y96224D01*
X291612Y96757D01*
X292145Y97290D01*
Y97823D01*
X291612Y96757D02*
X290546D01*
X308071Y270079D02*
Y273278D01*
X306471D01*
X305938Y272744D01*
Y271678D01*
X306471Y271145D01*
X308071D01*
X307005D02*
X305938Y270079D01*
X304872Y272744D02*
X304339Y273278D01*
X303272D01*
X302739Y272744D01*
Y272211D01*
X303272Y271678D01*
X302739Y271145D01*
Y270612D01*
X303272Y270079D01*
X304339D01*
X304872Y270612D01*
Y271145D01*
X304339Y271678D01*
X304872Y272211D01*
Y272744D01*
X304339Y271678D02*
X303272D01*
X301673Y270612D02*
X301140Y270079D01*
X300074D01*
X299540Y270612D01*
Y272744D01*
X300074Y273278D01*
X301140D01*
X301673Y272744D01*
Y272211D01*
X301140Y271678D01*
X299540D01*
X295158Y253622D02*
Y256821D01*
X293558D01*
X293025Y256288D01*
Y255222D01*
X293558Y254688D01*
X295158D01*
X294091D02*
X293025Y253622D01*
X291958Y254155D02*
X291425Y253622D01*
X290359D01*
X289826Y254155D01*
Y256288D01*
X290359Y256821D01*
X291425D01*
X291958Y256288D01*
Y255755D01*
X291425Y255222D01*
X289826D01*
X288759Y256288D02*
X288226Y256821D01*
X287160D01*
X286627Y256288D01*
Y254155D01*
X287160Y253622D01*
X288226D01*
X288759Y254155D01*
Y256288D01*
X294803Y244055D02*
Y247254D01*
X293204D01*
X292670Y246721D01*
Y245655D01*
X293204Y245121D01*
X294803D01*
X293737D02*
X292670Y244055D01*
X291604Y244588D02*
X291071Y244055D01*
X290005D01*
X289472Y244588D01*
Y246721D01*
X290005Y247254D01*
X291071D01*
X291604Y246721D01*
Y246188D01*
X291071Y245655D01*
X289472D01*
X288405Y244055D02*
X287339D01*
X287872D01*
Y247254D01*
X288405Y246721D01*
X316457Y33465D02*
Y36663D01*
X314857D01*
X314324Y36130D01*
Y35064D01*
X314857Y34531D01*
X316457D01*
X315390D02*
X314324Y33465D01*
X313258Y32931D02*
X311125D01*
X307926Y36663D02*
X310059D01*
Y33465D01*
X307926D01*
X310059Y35064D02*
X308992D01*
X304727Y36130D02*
X305260Y36663D01*
X306327D01*
X306860Y36130D01*
Y35597D01*
X306327Y35064D01*
X305260D01*
X304727Y34531D01*
Y33998D01*
X305260Y33465D01*
X306327D01*
X306860Y33998D01*
X303661Y36663D02*
Y33465D01*
X302061D01*
X301528Y33998D01*
Y36130D01*
X302061Y36663D01*
X303661D01*
X300984Y156742D02*
Y154610D01*
X299918Y153543D01*
X298852Y154610D01*
Y156742D01*
X297785Y153543D02*
X296719D01*
X297252D01*
Y156742D01*
X297785Y156209D01*
X301279Y151919D02*
Y149787D01*
X300213Y148721D01*
X299147Y149787D01*
Y151919D01*
X295948Y148721D02*
X298081D01*
X295948Y150853D01*
Y151386D01*
X296481Y151919D01*
X297547D01*
X298081Y151386D01*
X315394Y126427D02*
Y124295D01*
X314327Y123228D01*
X313261Y124295D01*
Y126427D01*
X312195Y125894D02*
X311662Y126427D01*
X310595D01*
X310062Y125894D01*
Y125361D01*
X310595Y124828D01*
X311128D01*
X310595D01*
X310062Y124295D01*
Y123761D01*
X310595Y123228D01*
X311662D01*
X312195Y123761D01*
X85055Y228362D02*
Y231561D01*
X83456D01*
X82923Y231027D01*
Y229961D01*
X83456Y229428D01*
X85055D01*
X83989D02*
X82923Y228362D01*
X81856D02*
X80257D01*
X79724Y228895D01*
X80257Y229428D01*
X81323D01*
X81856Y229961D01*
X81323Y230494D01*
X79724D01*
X77058Y228362D02*
X78124D01*
X78657Y228895D01*
Y229961D01*
X78124Y230494D01*
X77058D01*
X76525Y229961D01*
Y229428D01*
X78657D01*
X75458Y228362D02*
Y230494D01*
X73859D01*
X73326Y229961D01*
Y228362D01*
X72259D02*
X70660D01*
X70127Y228895D01*
X70660Y229428D01*
X71726D01*
X72259Y229961D01*
X71726Y230494D01*
X70127D01*
X67461Y228362D02*
X68527D01*
X69060Y228895D01*
Y229961D01*
X68527Y230494D01*
X67461D01*
X66928Y229961D01*
Y229428D01*
X69060D01*
X65861Y231027D02*
X65328Y231561D01*
X64262D01*
X63729Y231027D01*
Y230494D01*
X64262Y229961D01*
X64795D01*
X64262D01*
X63729Y229428D01*
Y228895D01*
X64262Y228362D01*
X65328D01*
X65861Y228895D01*
X303189Y173256D02*
Y176255D01*
X301690D01*
X301190Y175756D01*
Y174756D01*
X301690Y174256D01*
X303189D01*
X302189D02*
X301190Y173256D01*
X300190Y175756D02*
X299690Y176255D01*
X298690D01*
X298191Y175756D01*
Y175256D01*
X298690Y174756D01*
X298191Y174256D01*
Y173756D01*
X298690Y173256D01*
X299690D01*
X300190Y173756D01*
Y174256D01*
X299690Y174756D01*
X300190Y175256D01*
Y175756D01*
X299690Y174756D02*
X298690D01*
X297191Y175756D02*
X296691Y176255D01*
X295691D01*
X295192Y175756D01*
Y173756D01*
X295691Y173256D01*
X296691D01*
X297191Y173756D01*
Y175756D01*
X188681Y158230D02*
Y161430D01*
X187082D01*
X186548Y160896D01*
Y159830D01*
X187082Y159297D01*
X188681D01*
X187615D02*
X186548Y158230D01*
X185482Y160896D02*
X184949Y161430D01*
X183883D01*
X183350Y160896D01*
Y160363D01*
X183883Y159830D01*
X183350Y159297D01*
Y158764D01*
X183883Y158230D01*
X184949D01*
X185482Y158764D01*
Y159297D01*
X184949Y159830D01*
X185482Y160363D01*
Y160896D01*
X184949Y159830D02*
X183883D01*
X182283Y160896D02*
X181750Y161430D01*
X180684D01*
X180150Y160896D01*
Y160363D01*
X180684Y159830D01*
X181217D01*
X180684D01*
X180150Y159297D01*
Y158764D01*
X180684Y158230D01*
X181750D01*
X182283Y158764D01*
X188681Y152854D02*
Y156053D01*
X187082D01*
X186548Y155520D01*
Y154454D01*
X187082Y153921D01*
X188681D01*
X187615D02*
X186548Y152854D01*
X185482Y155520D02*
X184949Y156053D01*
X183883D01*
X183350Y155520D01*
Y154987D01*
X183883Y154454D01*
X183350Y153921D01*
Y153387D01*
X183883Y152854D01*
X184949D01*
X185482Y153387D01*
Y153921D01*
X184949Y154454D01*
X185482Y154987D01*
Y155520D01*
X184949Y154454D02*
X183883D01*
X180684Y152854D02*
Y156053D01*
X182283Y154454D01*
X180150D01*
X19921Y148868D02*
Y146736D01*
X18855Y145669D01*
X17789Y146736D01*
Y148868D01*
X16722Y145136D02*
X14590D01*
X11391Y148335D02*
X11924Y148868D01*
X12990D01*
X13523Y148335D01*
Y146202D01*
X12990Y145669D01*
X11924D01*
X11391Y146202D01*
X10324Y145669D02*
Y148868D01*
X9258Y147802D01*
X8192Y148868D01*
Y145669D01*
X26368Y130354D02*
X28501D01*
X29567Y129288D01*
X28501Y128222D01*
X26368D01*
Y127155D02*
X29567D01*
Y125556D01*
X29034Y125023D01*
X28501D01*
X27968Y125556D01*
Y127155D01*
Y125556D01*
X27434Y125023D01*
X26901D01*
X26368Y125556D01*
Y127155D01*
X29567Y123956D02*
X27434D01*
X26368Y122890D01*
X27434Y121824D01*
X29567D01*
X27968D01*
Y123956D01*
X26368Y120757D02*
Y118625D01*
Y119691D01*
X29567D01*
X27968Y117558D02*
Y115426D01*
X26368Y109488D02*
X28501D01*
X29567Y108422D01*
X28501Y107355D01*
X26368D01*
Y106289D02*
X29567D01*
Y104690D01*
X29034Y104156D01*
X28501D01*
X27968Y104690D01*
Y106289D01*
Y104690D01*
X27434Y104156D01*
X26901D01*
X26368Y104690D01*
Y106289D01*
X29567Y103090D02*
X27434D01*
X26368Y102024D01*
X27434Y100958D01*
X29567D01*
X27968D01*
Y103090D01*
X26368Y99891D02*
Y97759D01*
Y98825D01*
X29567D01*
X27968Y96692D02*
Y94560D01*
X26901Y95626D02*
X29034D01*
X356151Y303248D02*
X358817D01*
X359350Y302715D01*
Y301648D01*
X358817Y301115D01*
X356151D01*
X359350Y300049D02*
X357218D01*
X356151Y298983D01*
X357218Y297916D01*
X359350D01*
X357751D01*
Y300049D01*
X359350Y296850D02*
X356151D01*
Y295251D01*
X356685Y294718D01*
X357751D01*
X358284Y295251D01*
Y296850D01*
Y295784D02*
X359350Y294718D01*
X356151Y293651D02*
Y291518D01*
Y292585D01*
X359350D01*
X359884Y290452D02*
Y288319D01*
X359350Y287253D02*
X356151D01*
Y285654D01*
X356685Y285121D01*
X357751D01*
X358284Y285654D01*
Y287253D01*
Y286187D02*
X359350Y285121D01*
Y284054D02*
X357218D01*
X356151Y282988D01*
X357218Y281922D01*
X359350D01*
X357751D01*
Y284054D01*
X356151Y280855D02*
X359350D01*
Y279256D01*
X358817Y278723D01*
X356685D01*
X356151Y279256D01*
Y280855D01*
Y277656D02*
Y276590D01*
Y277123D01*
X359350D01*
Y277656D01*
Y276590D01*
X356151Y273391D02*
Y274457D01*
X356685Y274991D01*
X358817D01*
X359350Y274457D01*
Y273391D01*
X358817Y272858D01*
X356685D01*
X356151Y273391D01*
X359884Y271792D02*
Y269659D01*
X359350Y268593D02*
Y267526D01*
Y268059D01*
X356151D01*
X356685Y268593D01*
X356053Y259324D02*
Y261457D01*
X359252D01*
Y259324D01*
X357652Y261457D02*
Y260390D01*
X359252Y258258D02*
X356053D01*
X359252Y256125D01*
X356053D01*
X359785Y255059D02*
Y252926D01*
X359252Y251860D02*
X356053D01*
Y250260D01*
X356586Y249727D01*
X357652D01*
X358186Y250260D01*
Y251860D01*
Y250794D02*
X359252Y249727D01*
Y248661D02*
X357119D01*
X356053Y247594D01*
X357119Y246528D01*
X359252D01*
X357652D01*
Y248661D01*
X356053Y245462D02*
X359252D01*
Y243862D01*
X358719Y243329D01*
X356586D01*
X356053Y243862D01*
Y245462D01*
Y242263D02*
Y241196D01*
Y241730D01*
X359252D01*
Y242263D01*
Y241196D01*
X356053Y237998D02*
Y239064D01*
X356586Y239597D01*
X358719D01*
X359252Y239064D01*
Y237998D01*
X358719Y237464D01*
X356586D01*
X356053Y237998D01*
X356586Y234265D02*
X356053Y234799D01*
Y235865D01*
X356586Y236398D01*
X357119D01*
X357652Y235865D01*
Y234799D01*
X358186Y234265D01*
X358719D01*
X359252Y234799D01*
Y235865D01*
X358719Y236398D01*
X356053Y190466D02*
Y192598D01*
X357652D01*
X357119Y191532D01*
Y190999D01*
X357652Y190466D01*
X358719D01*
X359252Y190999D01*
Y192065D01*
X358719Y192598D01*
X356053Y189400D02*
X358186D01*
X359252Y188333D01*
X358186Y187267D01*
X356053D01*
X359785Y186200D02*
Y184068D01*
X359252Y183001D02*
X356053D01*
Y181402D01*
X356586Y180869D01*
X357652D01*
X358186Y181402D01*
Y183001D01*
X359252Y179803D02*
X357119D01*
X356053Y178736D01*
X357119Y177670D01*
X359252D01*
X357652D01*
Y179803D01*
X356053Y176604D02*
X356586D01*
X357652Y175537D01*
X356586Y174471D01*
X356053D01*
X357652Y175537D02*
X359252D01*
X356053Y173405D02*
X359252D01*
Y171272D01*
X356053Y168606D02*
Y169673D01*
X356586Y170206D01*
X358719D01*
X359252Y169673D01*
Y168606D01*
X358719Y168073D01*
X356586D01*
X356053Y168606D01*
X359252Y167007D02*
X357119D01*
X356053Y165940D01*
X357119Y164874D01*
X359252D01*
X357652D01*
Y167007D01*
X356053Y163808D02*
X359252D01*
Y162208D01*
X358719Y161675D01*
X356586D01*
X356053Y162208D01*
Y163808D01*
X313583Y113740D02*
Y115873D01*
X312516Y116939D01*
X311450Y115873D01*
Y113740D01*
Y115340D01*
X313583D01*
X310384Y116939D02*
Y113740D01*
X308784D01*
X308251Y114273D01*
Y116406D01*
X308784Y116939D01*
X310384D01*
X307185D02*
Y113740D01*
X305585D01*
X305052Y114273D01*
Y116406D01*
X305585Y116939D01*
X307185D01*
X303986Y113207D02*
X301853D01*
X300787Y116939D02*
X299721D01*
X300254D01*
Y113740D01*
X300787D01*
X299721D01*
X295988D02*
X298121D01*
X295988Y115873D01*
Y116406D01*
X296521Y116939D01*
X297588D01*
X298121Y116406D01*
X292789D02*
X293323Y116939D01*
X294389D01*
X294922Y116406D01*
Y114273D01*
X294389Y113740D01*
X293323D01*
X292789Y114273D01*
X311056Y82923D02*
X313189D01*
Y81324D01*
X312123Y81857D01*
X311590D01*
X311056Y81324D01*
Y80258D01*
X311590Y79724D01*
X312656D01*
X313189Y80258D01*
X309990Y82923D02*
Y80791D01*
X308924Y79724D01*
X307857Y80791D01*
Y82923D01*
X306791Y79191D02*
X304658D01*
X301993Y82923D02*
X303059D01*
X303592Y82390D01*
Y80258D01*
X303059Y79724D01*
X301993D01*
X301459Y80258D01*
Y82390D01*
X301993Y82923D01*
X300393D02*
Y79724D01*
X298794D01*
X298260Y80258D01*
Y80791D01*
X298794Y81324D01*
X300393D01*
X298794D01*
X298260Y81857D01*
Y82390D01*
X298794Y82923D01*
X300393D01*
X297194D02*
Y79724D01*
X295595D01*
X295061Y80258D01*
Y82390D01*
X295595Y82923D01*
X297194D01*
X293995D02*
Y79724D01*
Y81324D01*
X291863D01*
Y82923D01*
Y79724D01*
X311056Y73041D02*
X313189D01*
Y71442D01*
X312123Y71975D01*
X311590D01*
X311056Y71442D01*
Y70376D01*
X311590Y69842D01*
X312656D01*
X313189Y70376D01*
X309990Y73041D02*
Y70909D01*
X308924Y69842D01*
X307857Y70909D01*
Y73041D01*
X306791Y69309D02*
X304658D01*
X303592Y69842D02*
Y73041D01*
X301993D01*
X301459Y72508D01*
Y71442D01*
X301993Y70909D01*
X303592D01*
X300393Y69842D02*
Y71975D01*
X299327Y73041D01*
X298260Y71975D01*
Y69842D01*
Y71442D01*
X300393D01*
X297194Y73041D02*
Y72508D01*
X296128Y71442D01*
X295061Y72508D01*
Y73041D01*
X296128Y71442D02*
Y69842D01*
X293995Y73041D02*
Y69842D01*
X291863D01*
X289197Y73041D02*
X290263D01*
X290796Y72508D01*
Y70376D01*
X290263Y69842D01*
X289197D01*
X288664Y70376D01*
Y72508D01*
X289197Y73041D01*
X287597Y69842D02*
Y71975D01*
X286531Y73041D01*
X285465Y71975D01*
Y69842D01*
Y71442D01*
X287597D01*
X284398Y73041D02*
Y69842D01*
X282799D01*
X282266Y70376D01*
Y72508D01*
X282799Y73041D01*
X284398D01*
X311056Y62963D02*
X313189D01*
Y61363D01*
X312123Y61896D01*
X311590D01*
X311056Y61363D01*
Y60297D01*
X311590Y59764D01*
X312656D01*
X313189Y60297D01*
X309990Y62963D02*
Y60830D01*
X308924Y59764D01*
X307857Y60830D01*
Y62963D01*
X306791Y59231D02*
X304658D01*
X303592Y59764D02*
Y62963D01*
X301993D01*
X301459Y62430D01*
Y61363D01*
X301993Y60830D01*
X303592D01*
X302526D02*
X301459Y59764D01*
X300393D02*
Y61896D01*
X299327Y62963D01*
X298260Y61896D01*
Y59764D01*
Y61363D01*
X300393D01*
X297194Y62963D02*
Y59764D01*
X295595D01*
X295061Y60297D01*
Y62430D01*
X295595Y62963D01*
X297194D01*
X293995D02*
X292929D01*
X293462D01*
Y59764D01*
X293995D01*
X292929D01*
X289730Y62963D02*
X290796D01*
X291329Y62430D01*
Y60297D01*
X290796Y59764D01*
X289730D01*
X289197Y60297D01*
Y62430D01*
X289730Y62963D01*
X288130Y59231D02*
X285998D01*
X284931Y62430D02*
X284398Y62963D01*
X283332D01*
X282799Y62430D01*
Y60297D01*
X283332Y59764D01*
X284398D01*
X284931Y60297D01*
Y62430D01*
X331489Y43317D02*
X332556Y42784D01*
X333622Y41718D01*
Y40651D01*
X333089Y40118D01*
X332023D01*
X331489Y40651D01*
Y41184D01*
X332023Y41718D01*
X333622D01*
X330423Y43317D02*
Y41184D01*
X329357Y40118D01*
X328290Y41184D01*
Y43317D01*
X327224Y39585D02*
X325092D01*
X324025Y40118D02*
Y43317D01*
X322426D01*
X321892Y42784D01*
Y41718D01*
X322426Y41184D01*
X324025D01*
X322959D02*
X321892Y40118D01*
X320826D02*
Y42251D01*
X319760Y43317D01*
X318693Y42251D01*
Y40118D01*
Y41718D01*
X320826D01*
X317627Y43317D02*
Y40118D01*
X316028D01*
X315495Y40651D01*
Y42784D01*
X316028Y43317D01*
X317627D01*
X314428D02*
X313362D01*
X313895D01*
Y40118D01*
X314428D01*
X313362D01*
X310163Y43317D02*
X311229D01*
X311762Y42784D01*
Y40651D01*
X311229Y40118D01*
X310163D01*
X309630Y40651D01*
Y42784D01*
X310163Y43317D01*
X308563Y39585D02*
X306431D01*
X305364Y40118D02*
X304298D01*
X304831D01*
Y43317D01*
X305364Y42784D01*
X355974Y89040D02*
X359173D01*
Y87441D01*
X358640Y86907D01*
X358107D01*
X357574Y87441D01*
Y89040D01*
Y87441D01*
X357041Y86907D01*
X356507D01*
X355974Y87441D01*
Y89040D01*
X359173Y85841D02*
X357041D01*
X355974Y84775D01*
X357041Y83708D01*
X359173D01*
X357574D01*
Y85841D01*
X355974Y82642D02*
Y80509D01*
Y81576D01*
X359173D01*
X359706Y79443D02*
Y77311D01*
X355974Y76244D02*
X358107D01*
X359173Y75178D01*
X358107Y74111D01*
X355974D01*
X356507Y70912D02*
X355974Y71446D01*
Y72512D01*
X356507Y73045D01*
X358640D01*
X359173Y72512D01*
Y71446D01*
X358640Y70912D01*
X356507Y67713D02*
X355974Y68247D01*
Y69313D01*
X356507Y69846D01*
X358640D01*
X359173Y69313D01*
Y68247D01*
X358640Y67713D01*
X356507Y155604D02*
X355974Y156137D01*
Y157203D01*
X356507Y157736D01*
X358640D01*
X359173Y157203D01*
Y156137D01*
X358640Y155604D01*
X357574D01*
Y156670D01*
X359173Y154537D02*
X355974D01*
X359173Y152405D01*
X355974D01*
Y151338D02*
X359173D01*
Y149739D01*
X358640Y149206D01*
X356507D01*
X355974Y149739D01*
Y151338D01*
X359272Y139528D02*
X357139D01*
X356073Y138461D01*
X357139Y137395D01*
X359272D01*
X357672D01*
Y139528D01*
X359272Y136329D02*
X356073D01*
X359272Y134196D01*
X356073D01*
Y133130D02*
Y130997D01*
Y132063D01*
X359272D01*
X359805Y129931D02*
Y127798D01*
X356073Y126732D02*
X358205D01*
X359272Y125665D01*
X358205Y124599D01*
X356073D01*
X356606Y121400D02*
X356073Y121933D01*
Y123000D01*
X356606Y123533D01*
X358738D01*
X359272Y123000D01*
Y121933D01*
X358738Y121400D01*
X356606Y118201D02*
X356073Y118734D01*
Y119801D01*
X356606Y120334D01*
X358738D01*
X359272Y119801D01*
Y118734D01*
X358738Y118201D01*
X356132Y59560D02*
Y61693D01*
X359331D01*
Y59560D01*
X357731Y61693D02*
Y60627D01*
X359331Y58494D02*
X356132D01*
Y56894D01*
X356665Y56361D01*
X357731D01*
X358264Y56894D01*
Y58494D01*
X356665Y53162D02*
X356132Y53695D01*
Y54762D01*
X356665Y55295D01*
X357198D01*
X357731Y54762D01*
Y53695D01*
X358264Y53162D01*
X358798D01*
X359331Y53695D01*
Y54762D01*
X358798Y55295D01*
X359864Y52096D02*
Y49963D01*
X356132Y48897D02*
Y47831D01*
Y48364D01*
X359331D01*
Y48897D01*
Y47831D01*
Y44099D02*
Y46231D01*
X357198Y44099D01*
X356665D01*
X356132Y44632D01*
Y45698D01*
X356665Y46231D01*
Y40900D02*
X356132Y41433D01*
Y42499D01*
X356665Y43032D01*
X358798D01*
X359331Y42499D01*
Y41433D01*
X358798Y40900D01*
X359173Y220335D02*
X357041D01*
X355974Y219268D01*
X357041Y218202D01*
X359173D01*
X357574D01*
Y220335D01*
X355974Y217136D02*
X359173D01*
Y215536D01*
X358640Y215003D01*
X356507D01*
X355974Y215536D01*
Y217136D01*
Y213937D02*
X359173D01*
Y212337D01*
X358640Y211804D01*
X356507D01*
X355974Y212337D01*
Y213937D01*
X359706Y210738D02*
Y208605D01*
X356507Y205406D02*
X355974Y205939D01*
Y207006D01*
X356507Y207539D01*
X358640D01*
X359173Y207006D01*
Y205939D01*
X358640Y205406D01*
X357574D01*
Y206472D01*
X359173Y204340D02*
X355974D01*
Y202740D01*
X356507Y202207D01*
X357574D01*
X358107Y202740D01*
Y204340D01*
X355974Y201141D02*
Y200075D01*
Y200608D01*
X359173D01*
Y201141D01*
Y200075D01*
X355974Y196876D02*
Y197942D01*
X356507Y198475D01*
X358640D01*
X359173Y197942D01*
Y196876D01*
X358640Y196342D01*
X356507D01*
X355974Y196876D01*
X53740Y173081D02*
Y170948D01*
X52674Y169882D01*
X51608Y170948D01*
Y173081D01*
X50541Y169349D02*
X48408D01*
X45210Y172548D02*
X45743Y173081D01*
X46809D01*
X47342Y172548D01*
Y170415D01*
X46809Y169882D01*
X45743D01*
X45210Y170415D01*
X44143Y169882D02*
Y173081D01*
X43077Y172014D01*
X42011Y173081D01*
Y169882D01*
X53740Y143671D02*
Y141539D01*
X52674Y140472D01*
X51608Y141539D01*
Y143671D01*
X50541D02*
Y140472D01*
X48942D01*
X48408Y141006D01*
Y141539D01*
X48942Y142072D01*
X50541D01*
X48942D01*
X48408Y142605D01*
Y143138D01*
X48942Y143671D01*
X50541D01*
X47342Y140472D02*
Y142605D01*
X46276Y143671D01*
X45210Y142605D01*
Y140472D01*
Y142072D01*
X47342D01*
X44143Y143671D02*
X42011D01*
X43077D01*
Y140472D01*
X40944Y142072D02*
X38812D01*
X39878Y143138D02*
Y141006D01*
X53740Y163396D02*
Y161263D01*
X52674Y160197D01*
X51608Y161263D01*
Y163396D01*
X50541D02*
Y160197D01*
X48942D01*
X48408Y160730D01*
Y161263D01*
X48942Y161796D01*
X50541D01*
X48942D01*
X48408Y162329D01*
Y162863D01*
X48942Y163396D01*
X50541D01*
X47342Y160197D02*
Y162329D01*
X46276Y163396D01*
X45210Y162329D01*
Y160197D01*
Y161796D01*
X47342D01*
X44143Y163396D02*
X42011D01*
X43077D01*
Y160197D01*
X40944Y161796D02*
X38812D01*
X53740Y153042D02*
Y150909D01*
X52674Y149843D01*
X51608Y150909D01*
Y153042D01*
X50541D02*
Y149843D01*
X48942D01*
X48408Y150376D01*
Y150909D01*
X48942Y151442D01*
X50541D01*
X48942D01*
X48408Y151975D01*
Y152508D01*
X48942Y153042D01*
X50541D01*
X47342Y149843D02*
Y151975D01*
X46276Y153042D01*
X45210Y151975D01*
Y149843D01*
Y151442D01*
X47342D01*
X44143Y153042D02*
X42011D01*
X43077D01*
Y149843D01*
X40944Y151442D02*
X38812D01*
X53740Y133238D02*
Y131106D01*
X52674Y130039D01*
X51608Y131106D01*
Y133238D01*
X50541D02*
Y130039D01*
X48942D01*
X48408Y130572D01*
Y131106D01*
X48942Y131639D01*
X50541D01*
X48942D01*
X48408Y132172D01*
Y132705D01*
X48942Y133238D01*
X50541D01*
X47342Y130039D02*
Y132172D01*
X46276Y133238D01*
X45210Y132172D01*
Y130039D01*
Y131639D01*
X47342D01*
X44143Y133238D02*
X42011D01*
X43077D01*
Y130039D01*
X40944Y131639D02*
X38812D01*
X39878Y132705D02*
Y130572D01*
X71181Y120758D02*
Y118625D01*
X70115Y117559D01*
X69049Y118625D01*
Y120758D01*
X67982D02*
Y117559D01*
X66383D01*
X65850Y118092D01*
Y118625D01*
X66383Y119158D01*
X67982D01*
X66383D01*
X65850Y119692D01*
Y120225D01*
X66383Y120758D01*
X67982D01*
X64783Y119692D02*
Y118092D01*
X64250Y117559D01*
X62651D01*
Y119692D01*
X61584Y117559D02*
X59985D01*
X59452Y118092D01*
X59985Y118625D01*
X61051D01*
X61584Y119158D01*
X61051Y119692D01*
X59452D01*
X58385Y117026D02*
X56253D01*
X55186Y120758D02*
X53054D01*
X54120D01*
Y117559D01*
X51987D02*
Y120758D01*
X50388D01*
X49855Y120225D01*
Y119158D01*
X50388Y118625D01*
X51987D01*
D16*
X213021Y150044D02*
G03*
X213021Y150044I-315J0D01*
G01*
X101264Y166442D02*
Y178253D01*
X125476D01*
X101264Y166442D02*
X125476D01*
Y178253D01*
X129626Y233155D02*
Y234055D01*
Y227893D02*
Y228793D01*
X126726Y227854D02*
Y234154D01*
X120768Y233254D02*
Y234154D01*
X129626D01*
X120768Y227854D02*
X129626D01*
X120768D02*
Y228754D01*
X138409Y131323D02*
Y132535D01*
Y131323D02*
X164098D01*
X138311Y141135D02*
Y142347D01*
X164098Y131323D02*
Y132335D01*
X164197Y141235D02*
Y142347D01*
X136835Y131225D02*
Y142249D01*
X138311Y142347D02*
X164197D01*
X259157Y207583D02*
X272543D01*
Y214276D01*
X259157D02*
X272543D01*
X259157Y207583D02*
Y214276D01*
X160653Y200466D02*
Y201678D01*
X134965D02*
X160653D01*
X160752Y190654D02*
Y191866D01*
X134965Y200666D02*
Y201678D01*
X134866Y190654D02*
Y191766D01*
X162228Y190753D02*
Y201776D01*
X134866Y190654D02*
X160752D01*
X36319Y273331D02*
Y274231D01*
Y273331D02*
X45177D01*
X36319Y279630D02*
X45177D01*
X36319Y278731D02*
Y279630D01*
X42277Y273331D02*
Y279630D01*
X45177Y273370D02*
Y274270D01*
Y278632D02*
Y279532D01*
X37500Y230217D02*
Y231117D01*
Y230217D02*
X46358D01*
X37500Y236516D02*
X46358D01*
X37500Y235616D02*
Y236516D01*
X43458Y230217D02*
Y236516D01*
X46358Y230255D02*
Y231155D01*
Y235517D02*
Y236417D01*
X122047Y275590D02*
Y276490D01*
Y275590D02*
X130905D01*
X122047Y281890D02*
X130905D01*
X122047Y280990D02*
Y281890D01*
X128006Y275590D02*
Y281890D01*
X130905Y275629D02*
Y276529D01*
Y280891D02*
Y281791D01*
D19*
X295791Y241260D02*
X295375Y240843D01*
Y240010D01*
X295791Y239594D01*
X296208D01*
X296624Y240010D01*
Y240427D01*
Y240010D01*
X297041Y239594D01*
X297458D01*
X297874Y240010D01*
Y240843D01*
X297458Y241260D01*
X295375Y238761D02*
X297041D01*
X297874Y237928D01*
X297041Y237094D01*
X295375D01*
X295791Y236262D02*
X295375Y235845D01*
Y235012D01*
X295791Y234595D01*
X296208D01*
X296624Y235012D01*
Y235428D01*
Y235012D01*
X297041Y234595D01*
X297458D01*
X297874Y235012D01*
Y235845D01*
X297458Y236262D01*
X298290Y233762D02*
Y232096D01*
X297874Y231263D02*
X295375D01*
X296208Y230430D01*
X295375Y229597D01*
X297874D01*
X295791Y227098D02*
X295375Y227514D01*
Y228347D01*
X295791Y228764D01*
X297458D01*
X297874Y228347D01*
Y227514D01*
X297458Y227098D01*
X295375Y226265D02*
X297458D01*
X297874Y225848D01*
Y225015D01*
X297458Y224599D01*
X295375D01*
X281799Y240634D02*
X281383Y240217D01*
Y239384D01*
X281799Y238967D01*
X282216D01*
X282632Y239384D01*
Y239801D01*
Y239384D01*
X283049Y238967D01*
X283465D01*
X283882Y239384D01*
Y240217D01*
X283465Y240634D01*
X281383Y238135D02*
X283049D01*
X283882Y237301D01*
X283049Y236468D01*
X281383D01*
X281799Y235635D02*
X281383Y235219D01*
Y234386D01*
X281799Y233969D01*
X282216D01*
X282632Y234386D01*
Y234802D01*
Y234386D01*
X283049Y233969D01*
X283465D01*
X283882Y234386D01*
Y235219D01*
X283465Y235635D01*
X284298Y233136D02*
Y231470D01*
X281383Y229387D02*
Y230220D01*
X281799Y230637D01*
X283465D01*
X283882Y230220D01*
Y229387D01*
X283465Y228971D01*
X281799D01*
X281383Y229387D01*
Y228138D02*
X283882D01*
Y226888D01*
X283465Y226472D01*
X283049D01*
X282632Y226888D01*
Y228138D01*
Y226888D01*
X282216Y226472D01*
X281799D01*
X281383Y226888D01*
Y228138D01*
Y225639D02*
X283882D01*
Y224389D01*
X283465Y223972D01*
X281799D01*
X281383Y224389D01*
Y225639D01*
Y223139D02*
X283882D01*
X282632D01*
Y221473D01*
X281383D01*
X283882D01*
X287874Y213937D02*
X284875D01*
Y212438D01*
X285375Y211938D01*
X286374D01*
X286874Y212438D01*
Y213937D01*
Y212937D02*
X287874Y211938D01*
Y210938D02*
Y209938D01*
Y210438D01*
X284875D01*
X285375Y210938D01*
Y208439D02*
X284875Y207939D01*
Y206939D01*
X285375Y206439D01*
X285875D01*
X286374Y206939D01*
X286874Y206439D01*
X287374D01*
X287874Y206939D01*
Y207939D01*
X287374Y208439D01*
X286874D01*
X286374Y207939D01*
X285875Y208439D01*
X285375D01*
X286374Y207939D02*
Y206939D01*
X302795Y214488D02*
X299796D01*
Y212989D01*
X300296Y212489D01*
X301296D01*
X301796Y212989D01*
Y214488D01*
Y213489D02*
X302795Y212489D01*
Y209490D02*
Y211489D01*
X300796Y209490D01*
X300296D01*
X299796Y209990D01*
Y210989D01*
X300296Y211489D01*
Y208490D02*
X299796Y207990D01*
Y206991D01*
X300296Y206491D01*
X300796D01*
X301296Y206991D01*
Y207490D01*
Y206991D01*
X301796Y206491D01*
X302295D01*
X302795Y206991D01*
Y207990D01*
X302295Y208490D01*
X309409Y214370D02*
X306410D01*
Y212871D01*
X306910Y212371D01*
X307910D01*
X308410Y212871D01*
Y214370D01*
Y213370D02*
X309409Y212371D01*
X306410Y209372D02*
X306910Y210371D01*
X307910Y211371D01*
X308910D01*
X309409Y210871D01*
Y209872D01*
X308910Y209372D01*
X308410D01*
X307910Y209872D01*
Y211371D01*
X306910Y208372D02*
X306410Y207872D01*
Y206873D01*
X306910Y206373D01*
X308910D01*
X309409Y206873D01*
Y207872D01*
X308910Y208372D01*
X306910D01*
X295286Y214237D02*
X292287D01*
Y212737D01*
X292787Y212238D01*
X293787D01*
X294286Y212737D01*
Y214237D01*
Y213237D02*
X295286Y212238D01*
X292287Y209239D02*
X292787Y210238D01*
X293787Y211238D01*
X294786D01*
X295286Y210738D01*
Y209738D01*
X294786Y209239D01*
X294286D01*
X293787Y209738D01*
Y211238D01*
X295286Y208239D02*
Y207239D01*
Y207739D01*
X292287D01*
X292787Y208239D01*
D20*
X168799Y286452D02*
Y289652D01*
X167199D01*
X166666Y289119D01*
Y288052D01*
X167199Y287519D01*
X168799D01*
X167733D02*
X166666Y286452D01*
X165600Y289652D02*
X163466D01*
Y289119D01*
X165600Y286985D01*
Y286452D01*
X162400Y289652D02*
X160266D01*
Y289119D01*
X162400Y286985D01*
Y286452D01*
X207874Y301378D02*
X204674D01*
Y299778D01*
X205208Y299245D01*
X206274D01*
X206807Y299778D01*
Y301378D01*
Y300311D02*
X207874Y299245D01*
X204674Y298178D02*
Y296045D01*
X205208D01*
X207341Y298178D01*
X207874D01*
X204674Y292845D02*
Y294978D01*
X206274D01*
X205741Y293912D01*
Y293378D01*
X206274Y292845D01*
X207341D01*
X207874Y293378D01*
Y294445D01*
X207341Y294978D01*
X227706Y43733D02*
Y45866D01*
X229306D01*
X228772Y44800D01*
Y44266D01*
X229306Y43733D01*
X230372D01*
X230906Y44266D01*
Y45333D01*
X230372Y45866D01*
X227706Y42666D02*
X229839D01*
X230906Y41600D01*
X229839Y40533D01*
X227706D01*
X231439Y39467D02*
Y37333D01*
X230906Y36267D02*
X227706D01*
Y34667D01*
X228239Y34134D01*
X229306D01*
X229839Y34667D01*
Y36267D01*
Y35200D02*
X230906Y34134D01*
Y33067D02*
X228772D01*
X227706Y32000D01*
X228772Y30934D01*
X230906D01*
X229306D01*
Y33067D01*
X227706Y29867D02*
X230906D01*
Y28267D01*
X230372Y27734D01*
X228239D01*
X227706Y28267D01*
Y29867D01*
Y26668D02*
Y25601D01*
Y26134D01*
X230906D01*
Y26668D01*
Y25601D01*
X227706Y22401D02*
Y23468D01*
X228239Y24001D01*
X230372D01*
X230906Y23468D01*
Y22401D01*
X230372Y21868D01*
X228239D01*
X227706Y22401D01*
X231439Y20801D02*
Y18668D01*
X228239Y17602D02*
X227706Y17068D01*
Y16002D01*
X228239Y15468D01*
X230372D01*
X230906Y16002D01*
Y17068D01*
X230372Y17602D01*
X228239D01*
X231439Y14402D02*
Y12269D01*
X227706Y11202D02*
X230906D01*
Y9069D01*
X227706Y5869D02*
Y8002D01*
X230906D01*
Y5869D01*
X229306Y8002D02*
Y6936D01*
X227706Y4803D02*
X230906D01*
Y3203D01*
X230372Y2669D01*
X228239D01*
X227706Y3203D01*
Y4803D01*
X40560Y240393D02*
X41059Y240893D01*
X42059D01*
X42559Y240393D01*
Y238393D01*
X42059Y237894D01*
X41059D01*
X40560Y238393D01*
X39560Y240893D02*
X37561D01*
Y240393D01*
X39560Y238393D01*
Y237894D01*
X35061D02*
Y240893D01*
X36561Y239393D01*
X34562D01*
X246702Y43438D02*
X247235Y44504D01*
X248302Y45571D01*
X249368D01*
X249902Y45038D01*
Y43971D01*
X249368Y43438D01*
X248835D01*
X248302Y43971D01*
Y45571D01*
X246702Y42371D02*
X248835D01*
X249902Y41304D01*
X248835Y40238D01*
X246702D01*
X250435Y39171D02*
Y37038D01*
X249902Y35972D02*
X246702D01*
Y34372D01*
X247235Y33838D01*
X248302D01*
X248835Y34372D01*
Y35972D01*
Y34905D02*
X249902Y33838D01*
Y32772D02*
X247768D01*
X246702Y31705D01*
X247768Y30639D01*
X249902D01*
X248302D01*
Y32772D01*
X246702Y29572D02*
X249902D01*
Y27972D01*
X249368Y27439D01*
X247235D01*
X246702Y27972D01*
Y29572D01*
Y26372D02*
Y25306D01*
Y25839D01*
X249902D01*
Y26372D01*
Y25306D01*
X246702Y22106D02*
Y23173D01*
X247235Y23706D01*
X249368D01*
X249902Y23173D01*
Y22106D01*
X249368Y21573D01*
X247235D01*
X246702Y22106D01*
X250435Y20506D02*
Y18373D01*
X249902Y17306D02*
Y16240D01*
Y16773D01*
X246702D01*
X247235Y17306D01*
X250435Y14640D02*
Y12507D01*
X246702Y11440D02*
X249902D01*
Y9307D01*
X246702Y6107D02*
Y8240D01*
X249902D01*
Y6107D01*
X248302Y8240D02*
Y7174D01*
X246702Y5041D02*
X249902D01*
Y3441D01*
X249368Y2907D01*
X247235D01*
X246702Y3441D01*
Y5041D01*
X52067Y302165D02*
X48867D01*
Y300566D01*
X49400Y300032D01*
X50467D01*
X51000Y300566D01*
Y302165D01*
Y301099D02*
X52067Y300032D01*
Y296832D02*
Y298966D01*
X49934Y296832D01*
X49400D01*
X48867Y297366D01*
Y298432D01*
X49400Y298966D01*
X51534Y295766D02*
X52067Y295233D01*
Y294166D01*
X51534Y293633D01*
X49400D01*
X48867Y294166D01*
Y295233D01*
X49400Y295766D01*
X49934D01*
X50467Y295233D01*
Y293633D01*
X13189Y287894D02*
Y291093D01*
X11589D01*
X11056Y290560D01*
Y289494D01*
X11589Y288960D01*
X13189D01*
X12122D02*
X11056Y287894D01*
X9989Y290560D02*
X9456Y291093D01*
X8389D01*
X7856Y290560D01*
Y290027D01*
X8389Y289494D01*
X8923D01*
X8389D01*
X7856Y288960D01*
Y288427D01*
X8389Y287894D01*
X9456D01*
X9989Y288427D01*
X6790Y290560D02*
X6256Y291093D01*
X5190D01*
X4656Y290560D01*
Y288427D01*
X5190Y287894D01*
X6256D01*
X6790Y288427D01*
Y290560D01*
X53839Y255413D02*
X50639D01*
Y253814D01*
X51172Y253280D01*
X52239D01*
X52772Y253814D01*
Y255413D01*
Y254347D02*
X53839Y253280D01*
Y250614D02*
X50639D01*
X52239Y252214D01*
Y250080D01*
X53839Y249014D02*
Y247947D01*
Y248481D01*
X50639D01*
X51172Y249014D01*
X16240Y240945D02*
Y243944D01*
X14741D01*
X14241Y243444D01*
Y242444D01*
X14741Y241945D01*
X16240D01*
X15240D02*
X14241Y240945D01*
X11742D02*
Y243944D01*
X13241Y242444D01*
X11242D01*
X10242Y243444D02*
X9742Y243944D01*
X8743D01*
X8243Y243444D01*
Y242944D01*
X8743Y242444D01*
X8243Y241945D01*
Y241445D01*
X8743Y240945D01*
X9742D01*
X10242Y241445D01*
Y241945D01*
X9742Y242444D01*
X10242Y242944D01*
Y243444D01*
X9742Y242444D02*
X8743D01*
X137992Y301181D02*
X134792D01*
Y299581D01*
X135326Y299048D01*
X136392D01*
X136925Y299581D01*
Y301181D01*
Y300114D02*
X137992Y299048D01*
Y296381D02*
X134792D01*
X136392Y297981D01*
Y295848D01*
X137459Y294782D02*
X137992Y294248D01*
Y293182D01*
X137459Y292648D01*
X135326D01*
X134792Y293182D01*
Y294248D01*
X135326Y294782D01*
X135859D01*
X136392Y294248D01*
Y292648D01*
X207579Y254921D02*
X204379D01*
Y253321D01*
X204912Y252788D01*
X205979D01*
X206512Y253321D01*
Y254921D01*
Y253855D02*
X207579Y252788D01*
X204379Y251722D02*
Y249588D01*
X204912D01*
X207045Y251722D01*
X207579D01*
X204912Y248522D02*
X204379Y247989D01*
Y246922D01*
X204912Y246389D01*
X205446D01*
X205979Y246922D01*
X206512Y246389D01*
X207045D01*
X207579Y246922D01*
Y247989D01*
X207045Y248522D01*
X206512D01*
X205979Y247989D01*
X205446Y248522D01*
X204912D01*
X205979Y247989D02*
Y246922D01*
X137106Y255906D02*
X133906D01*
Y254306D01*
X134440Y253772D01*
X135506D01*
X136040Y254306D01*
Y255906D01*
Y254839D02*
X137106Y253772D01*
X133906Y250573D02*
X134440Y251639D01*
X135506Y252706D01*
X136573D01*
X137106Y252172D01*
Y251106D01*
X136573Y250573D01*
X136040D01*
X135506Y251106D01*
Y252706D01*
X134440Y249506D02*
X133906Y248973D01*
Y247906D01*
X134440Y247373D01*
X134973D01*
X135506Y247906D01*
X136040Y247373D01*
X136573D01*
X137106Y247906D01*
Y248973D01*
X136573Y249506D01*
X136040D01*
X135506Y248973D01*
X134973Y249506D01*
X134440D01*
X135506Y248973D02*
Y247906D01*
D23*
X288113Y123017D02*
D03*
X219149Y238936D02*
D03*
X226953Y68328D02*
D03*
X220181Y103055D02*
D03*
X64275Y257938D02*
D03*
X298543Y164606D02*
D03*
X298543Y140787D02*
D03*
D24*
X123464Y95157D02*
D03*
X137976Y185969D02*
D03*
X87622Y185969D02*
D03*
X113724Y184316D02*
D03*
X72874Y236575D02*
D03*
D26*
X199039Y296715D02*
D03*
X43307Y298134D02*
D03*
X44685Y251590D02*
D03*
X129134Y297111D02*
D03*
X198031Y250312D02*
D03*
X127681Y251067D02*
D03*
D27*
X177229Y288287D02*
D03*
X292835Y88543D02*
D03*
X191478Y218149D02*
D03*
X235985Y312795D02*
D03*
X107610Y289434D02*
D03*
X106835Y241929D02*
D03*
X177166Y242052D02*
D03*
X307386Y106330D02*
D03*
X307385Y96724D02*
D03*
X303572Y265354D02*
D03*
X303572Y255315D02*
D03*
X303571Y245709D02*
D03*
X324764Y35157D02*
D03*
X302247Y126378D02*
D03*
X21654Y289370D02*
D03*
X24552Y242618D02*
D03*
D28*
X151584Y163977D02*
D03*
X89734Y153128D02*
D03*
X89752Y166927D02*
D03*
X157784Y159130D02*
D03*
X139796Y146442D02*
D03*
X89751Y148528D02*
D03*
X89751Y162328D02*
D03*
X152845Y168504D02*
D03*
X89734Y171527D02*
D03*
X153830Y174337D02*
D03*
X204030Y31166D02*
D03*
X153929Y178838D02*
D03*
X300046Y277362D02*
D03*
Y282575D02*
D03*
X299206Y179079D02*
D03*
X172527Y159731D02*
D03*
X172527Y154232D02*
D03*
D173*
X229551Y245142D02*
G03*
X229551Y245142I-492J0D01*
G01*
X231579Y196422D02*
G03*
X231579Y196422I-492J0D01*
G01*
X68862Y261776D02*
G03*
X68862Y261776I-492J0D01*
G01*
X18386Y293638D02*
G03*
X18386Y293638I-492J0D01*
G01*
X20008Y247260D02*
G03*
X20008Y247260I-492J0D01*
G01*
X104449Y292733D02*
G03*
X104449Y292733I-492J0D01*
G01*
X102913Y246709D02*
G03*
X102913Y246709I-492J0D01*
G01*
X174177Y292524D02*
G03*
X174177Y292524I-492J0D01*
G01*
X173311Y245949D02*
G03*
X173311Y245949I-492J0D01*
G01*
D174*
X237779Y187465D02*
G03*
X237779Y187465I-1181J0D01*
G01*
D175*
X42028Y228688D02*
Y225689D01*
X40528D01*
X40028Y226189D01*
Y228188D01*
X40528Y228688D01*
X42028D01*
X39028Y225689D02*
X38029D01*
X38529D01*
Y228688D01*
X39028Y228188D01*
X34530Y225689D02*
X36529D01*
X34530Y227688D01*
Y228188D01*
X35030Y228688D01*
X36029D01*
X36529Y228188D01*
D176*
X249374Y333033D02*
D03*
X242711Y19724D02*
D03*
X235416Y19725D02*
D03*
X286285Y219979D02*
D03*
X300338Y220448D02*
D03*
X105606Y25615D02*
D03*
X254588Y333052D02*
D03*
X170684Y112003D02*
D03*
X162307Y112227D02*
D03*
X307388Y219994D02*
D03*
X293224Y219995D02*
D03*
X41126Y329363D02*
D03*
X46478Y217608D02*
D03*
X46303Y334403D02*
D03*
X41260Y217589D02*
D03*
X105376Y331097D02*
D03*
X110023Y337042D02*
D03*
X156328Y337607D02*
D03*
X161821Y337627D02*
D03*
M02*
