G04*
G04 #@! TF.GenerationSoftware,Altium Limited,Altium Designer,22.10.1 (41)*
G04*
G04 Layer_Color=128*
%FSLAX25Y25*%
%MOIN*%
G70*
G04*
G04 #@! TF.SameCoordinates,259FC9CF-E4F6-480E-B3ED-B57B647CB087*
G04*
G04*
G04 #@! TF.FilePolarity,Positive*
G04*
G01*
G75*
%ADD11C,0.01000*%
%ADD33R,0.03543X0.03543*%
%ADD35R,0.04331X0.08661*%
%ADD36R,0.04134X0.04724*%
%ADD39R,0.09843X0.06693*%
%ADD43R,0.08661X0.02756*%
%ADD44R,0.03150X0.03150*%
%ADD45R,0.06000X0.06000*%
%ADD47R,0.06000X0.04724*%
%ADD48C,0.05118*%
%ADD50R,0.04724X0.04134*%
%ADD51R,0.08661X0.04331*%
%ADD56R,0.02756X0.08661*%
%ADD58R,0.04724X0.06000*%
%ADD119R,0.04134X0.03150*%
%ADD120R,0.06102X0.01181*%
%ADD121R,0.03543X0.00787*%
%ADD122R,0.12598X0.09449*%
%ADD125O,0.02362X0.08661*%
%ADD126R,0.03150X0.03150*%
%ADD127R,0.03000X0.03000*%
%ADD128P,0.05568X4X180.0*%
%ADD129R,0.03937X0.05118*%
%ADD130R,0.02480X0.03543*%
%ADD131R,0.02480X0.03504*%
%ADD132R,0.05000X0.02000*%
%ADD133R,0.04724X0.04724*%
%ADD134R,0.01772X0.05906*%
%ADD135R,0.05906X0.02244*%
%ADD136R,0.02244X0.05906*%
%ADD137R,0.04724X0.04724*%
%ADD138R,0.03543X0.03543*%
G04:AMPARAMS|DCode=139|XSize=41.34mil|YSize=47.24mil|CornerRadius=0mil|HoleSize=0mil|Usage=FLASHONLY|Rotation=135.000|XOffset=0mil|YOffset=0mil|HoleType=Round|Shape=Rectangle|*
%AMROTATEDRECTD139*
4,1,4,0.03132,0.00209,-0.00209,-0.03132,-0.03132,-0.00209,0.00209,0.03132,0.03132,0.00209,0.0*
%
%ADD139ROTATEDRECTD139*%

G04:AMPARAMS|DCode=140|XSize=41.34mil|YSize=47.24mil|CornerRadius=0mil|HoleSize=0mil|Usage=FLASHONLY|Rotation=225.000|XOffset=0mil|YOffset=0mil|HoleType=Round|Shape=Rectangle|*
%AMROTATEDRECTD140*
4,1,4,-0.00209,0.03132,0.03132,-0.00209,0.00209,-0.03132,-0.03132,0.00209,-0.00209,0.03132,0.0*
%
%ADD140ROTATEDRECTD140*%

%ADD141R,0.03504X0.02480*%
%ADD142R,0.03543X0.02480*%
%ADD143R,0.05906X0.01772*%
%ADD171O,0.06090X0.00381*%
%ADD172O,0.00381X0.06090*%
G36*
X674384Y-140324D02*
X674448D01*
X674512Y-140333D01*
X674667Y-140360D01*
X674831Y-140406D01*
X675004Y-140479D01*
X675177Y-140570D01*
X675322Y-140697D01*
X675341Y-140716D01*
X675377Y-140770D01*
X675441Y-140852D01*
X675468Y-140916D01*
X675505Y-140980D01*
X675541Y-141062D01*
X675568Y-141144D01*
X675605Y-141235D01*
X675632Y-141344D01*
X675651Y-141454D01*
X675669Y-141581D01*
X675687Y-141709D01*
Y-141854D01*
Y-144988D01*
X674913D01*
Y-142119D01*
Y-142109D01*
Y-142100D01*
Y-142046D01*
Y-141964D01*
X674903Y-141864D01*
X674894Y-141754D01*
X674885Y-141645D01*
X674867Y-141535D01*
X674840Y-141454D01*
Y-141444D01*
X674822Y-141417D01*
X674803Y-141381D01*
X674776Y-141335D01*
X674740Y-141280D01*
X674694Y-141226D01*
X674639Y-141171D01*
X674566Y-141116D01*
X674557Y-141107D01*
X674530Y-141098D01*
X674494Y-141080D01*
X674430Y-141053D01*
X674366Y-141025D01*
X674284Y-141007D01*
X674202Y-140998D01*
X674102Y-140989D01*
X674056D01*
X674020Y-140998D01*
X673929Y-141007D01*
X673819Y-141025D01*
X673692Y-141071D01*
X673555Y-141126D01*
X673419Y-141208D01*
X673291Y-141317D01*
X673282Y-141335D01*
X673245Y-141381D01*
X673191Y-141454D01*
X673136Y-141563D01*
X673072Y-141709D01*
X673027Y-141882D01*
X672990Y-142091D01*
X672972Y-142337D01*
Y-144988D01*
X672198D01*
Y-142027D01*
Y-142018D01*
Y-142000D01*
Y-141982D01*
Y-141946D01*
X672189Y-141845D01*
X672170Y-141736D01*
X672152Y-141608D01*
X672116Y-141481D01*
X672070Y-141362D01*
X672007Y-141253D01*
X671997Y-141244D01*
X671970Y-141208D01*
X671924Y-141171D01*
X671861Y-141116D01*
X671779Y-141071D01*
X671669Y-141025D01*
X671542Y-140998D01*
X671387Y-140989D01*
X671332D01*
X671269Y-140998D01*
X671196Y-141007D01*
X671105Y-141034D01*
X670995Y-141062D01*
X670895Y-141107D01*
X670786Y-141162D01*
X670777Y-141171D01*
X670740Y-141198D01*
X670695Y-141235D01*
X670631Y-141289D01*
X670567Y-141362D01*
X670503Y-141454D01*
X670439Y-141554D01*
X670385Y-141672D01*
X670376Y-141690D01*
X670367Y-141736D01*
X670348Y-141809D01*
X670321Y-141909D01*
X670294Y-142046D01*
X670276Y-142210D01*
X670266Y-142401D01*
X670257Y-142620D01*
Y-144988D01*
X669483D01*
Y-140415D01*
X670175D01*
Y-141071D01*
X670185Y-141053D01*
X670212Y-141016D01*
X670266Y-140953D01*
X670330Y-140880D01*
X670412Y-140788D01*
X670512Y-140697D01*
X670622Y-140606D01*
X670749Y-140524D01*
X670767Y-140515D01*
X670813Y-140488D01*
X670886Y-140461D01*
X670986Y-140415D01*
X671105Y-140378D01*
X671241Y-140351D01*
X671396Y-140324D01*
X671560Y-140315D01*
X671642D01*
X671742Y-140324D01*
X671852Y-140342D01*
X671988Y-140369D01*
X672125Y-140406D01*
X672261Y-140461D01*
X672389Y-140533D01*
X672407Y-140542D01*
X672444Y-140570D01*
X672498Y-140615D01*
X672571Y-140688D01*
X672644Y-140770D01*
X672726Y-140870D01*
X672799Y-140989D01*
X672854Y-141126D01*
X672863Y-141116D01*
X672881Y-141089D01*
X672908Y-141053D01*
X672954Y-140998D01*
X673009Y-140934D01*
X673072Y-140870D01*
X673145Y-140798D01*
X673236Y-140716D01*
X673337Y-140643D01*
X673437Y-140570D01*
X673555Y-140506D01*
X673683Y-140442D01*
X673819Y-140388D01*
X673965Y-140351D01*
X674111Y-140324D01*
X674275Y-140315D01*
X674339D01*
X674384Y-140324D01*
D02*
G37*
G36*
X691748D02*
X691885Y-140333D01*
X692030Y-140351D01*
X692185Y-140388D01*
X692349Y-140424D01*
X692504Y-140479D01*
X692513D01*
X692522Y-140488D01*
X692568Y-140506D01*
X692641Y-140542D01*
X692732Y-140588D01*
X692832Y-140652D01*
X692932Y-140725D01*
X693023Y-140807D01*
X693105Y-140898D01*
X693114Y-140907D01*
X693132Y-140943D01*
X693169Y-141007D01*
X693215Y-141080D01*
X693260Y-141189D01*
X693306Y-141308D01*
X693342Y-141444D01*
X693378Y-141599D01*
X692622Y-141700D01*
Y-141681D01*
X692613Y-141645D01*
X692595Y-141581D01*
X692568Y-141499D01*
X692522Y-141417D01*
X692467Y-141326D01*
X692404Y-141235D01*
X692313Y-141153D01*
X692304Y-141144D01*
X692267Y-141126D01*
X692212Y-141089D01*
X692131Y-141053D01*
X692039Y-141016D01*
X691921Y-140980D01*
X691775Y-140962D01*
X691620Y-140953D01*
X691529D01*
X691438Y-140962D01*
X691320Y-140971D01*
X691201Y-140998D01*
X691074Y-141025D01*
X690955Y-141071D01*
X690855Y-141135D01*
X690846Y-141144D01*
X690819Y-141162D01*
X690782Y-141198D01*
X690746Y-141253D01*
X690700Y-141308D01*
X690664Y-141381D01*
X690636Y-141463D01*
X690627Y-141545D01*
Y-141554D01*
Y-141572D01*
X690636Y-141599D01*
Y-141636D01*
X690664Y-141727D01*
X690718Y-141818D01*
X690728Y-141827D01*
X690737Y-141836D01*
X690755Y-141864D01*
X690791Y-141891D01*
X690828Y-141918D01*
X690882Y-141955D01*
X690946Y-141982D01*
X691019Y-142018D01*
X691028D01*
X691046Y-142027D01*
X691083Y-142037D01*
X691147Y-142064D01*
X691238Y-142091D01*
X691356Y-142119D01*
X691429Y-142146D01*
X691511Y-142164D01*
X691602Y-142191D01*
X691702Y-142219D01*
X691711D01*
X691739Y-142228D01*
X691784Y-142237D01*
X691839Y-142255D01*
X691903Y-142273D01*
X691985Y-142292D01*
X692158Y-142346D01*
X692349Y-142401D01*
X692540Y-142465D01*
X692713Y-142528D01*
X692786Y-142556D01*
X692850Y-142583D01*
X692868Y-142592D01*
X692905Y-142611D01*
X692959Y-142638D01*
X693041Y-142683D01*
X693123Y-142738D01*
X693205Y-142811D01*
X693287Y-142893D01*
X693360Y-142984D01*
X693369Y-142993D01*
X693388Y-143029D01*
X693424Y-143084D01*
X693461Y-143166D01*
X693488Y-143266D01*
X693524Y-143376D01*
X693542Y-143503D01*
X693552Y-143649D01*
Y-143667D01*
Y-143713D01*
X693542Y-143786D01*
X693524Y-143886D01*
X693497Y-143995D01*
X693451Y-144114D01*
X693397Y-144250D01*
X693324Y-144378D01*
X693315Y-144396D01*
X693278Y-144432D01*
X693233Y-144496D01*
X693160Y-144569D01*
X693060Y-144651D01*
X692950Y-144742D01*
X692823Y-144824D01*
X692668Y-144906D01*
X692659D01*
X692650Y-144915D01*
X692595Y-144933D01*
X692504Y-144961D01*
X692385Y-144997D01*
X692240Y-145034D01*
X692076Y-145061D01*
X691903Y-145079D01*
X691702Y-145088D01*
X691620D01*
X691557Y-145079D01*
X691484D01*
X691393Y-145070D01*
X691301Y-145061D01*
X691201Y-145043D01*
X690983Y-144997D01*
X690755Y-144933D01*
X690536Y-144842D01*
X690436Y-144788D01*
X690345Y-144724D01*
X690336Y-144715D01*
X690327Y-144706D01*
X690272Y-144651D01*
X690190Y-144569D01*
X690099Y-144442D01*
X689999Y-144287D01*
X689898Y-144105D01*
X689817Y-143877D01*
X689753Y-143622D01*
X690518Y-143503D01*
Y-143512D01*
Y-143521D01*
X690536Y-143576D01*
X690554Y-143667D01*
X690591Y-143767D01*
X690636Y-143877D01*
X690691Y-143995D01*
X690773Y-144114D01*
X690873Y-144214D01*
X690892Y-144223D01*
X690928Y-144250D01*
X691001Y-144287D01*
X691092Y-144332D01*
X691210Y-144378D01*
X691347Y-144414D01*
X691511Y-144442D01*
X691702Y-144451D01*
X691793D01*
X691885Y-144442D01*
X692003Y-144423D01*
X692131Y-144396D01*
X692267Y-144360D01*
X692385Y-144314D01*
X692495Y-144241D01*
X692504Y-144232D01*
X692540Y-144205D01*
X692577Y-144159D01*
X692631Y-144095D01*
X692677Y-144023D01*
X692723Y-143931D01*
X692750Y-143840D01*
X692759Y-143731D01*
Y-143722D01*
Y-143685D01*
X692750Y-143640D01*
X692732Y-143576D01*
X692704Y-143512D01*
X692659Y-143449D01*
X692604Y-143376D01*
X692522Y-143321D01*
X692513Y-143312D01*
X692486Y-143303D01*
X692440Y-143275D01*
X692367Y-143248D01*
X692258Y-143212D01*
X692194Y-143184D01*
X692121Y-143166D01*
X692039Y-143139D01*
X691948Y-143112D01*
X691848Y-143084D01*
X691730Y-143057D01*
X691720D01*
X691693Y-143048D01*
X691648Y-143039D01*
X691593Y-143020D01*
X691520Y-143002D01*
X691438Y-142975D01*
X691265Y-142929D01*
X691065Y-142866D01*
X690873Y-142811D01*
X690691Y-142747D01*
X690609Y-142711D01*
X690545Y-142683D01*
X690527Y-142674D01*
X690491Y-142656D01*
X690436Y-142620D01*
X690363Y-142574D01*
X690281Y-142510D01*
X690199Y-142437D01*
X690117Y-142355D01*
X690044Y-142255D01*
X690035Y-142246D01*
X690017Y-142210D01*
X689990Y-142146D01*
X689962Y-142073D01*
X689935Y-141982D01*
X689908Y-141873D01*
X689889Y-141763D01*
X689880Y-141636D01*
Y-141618D01*
Y-141581D01*
X689889Y-141526D01*
X689898Y-141444D01*
X689917Y-141362D01*
X689935Y-141262D01*
X689971Y-141171D01*
X690017Y-141071D01*
X690026Y-141062D01*
X690044Y-141025D01*
X690072Y-140980D01*
X690117Y-140916D01*
X690172Y-140852D01*
X690236Y-140770D01*
X690308Y-140697D01*
X690400Y-140634D01*
X690409Y-140624D01*
X690436Y-140615D01*
X690472Y-140588D01*
X690527Y-140561D01*
X690600Y-140524D01*
X690682Y-140488D01*
X690782Y-140451D01*
X690892Y-140415D01*
X690910Y-140406D01*
X690946Y-140397D01*
X691010Y-140378D01*
X691092Y-140360D01*
X691192Y-140342D01*
X691301Y-140333D01*
X691429Y-140315D01*
X691648D01*
X691748Y-140324D01*
D02*
G37*
G36*
X687293D02*
X687430Y-140333D01*
X687585Y-140351D01*
X687739Y-140378D01*
X687894Y-140415D01*
X688040Y-140461D01*
X688058Y-140470D01*
X688104Y-140488D01*
X688168Y-140515D01*
X688250Y-140552D01*
X688341Y-140606D01*
X688432Y-140661D01*
X688514Y-140734D01*
X688587Y-140807D01*
X688596Y-140816D01*
X688614Y-140843D01*
X688641Y-140889D01*
X688678Y-140943D01*
X688723Y-141025D01*
X688760Y-141107D01*
X688796Y-141208D01*
X688824Y-141326D01*
Y-141335D01*
X688833Y-141362D01*
X688842Y-141417D01*
X688851Y-141490D01*
Y-141590D01*
X688860Y-141709D01*
X688869Y-141864D01*
Y-142037D01*
Y-143075D01*
Y-143084D01*
Y-143121D01*
Y-143175D01*
Y-143248D01*
Y-143330D01*
Y-143430D01*
X688878Y-143649D01*
Y-143877D01*
X688887Y-144105D01*
X688896Y-144205D01*
Y-144296D01*
X688905Y-144378D01*
X688915Y-144442D01*
Y-144451D01*
X688924Y-144487D01*
X688933Y-144542D01*
X688960Y-144615D01*
X688978Y-144697D01*
X689015Y-144788D01*
X689060Y-144888D01*
X689106Y-144988D01*
X688295D01*
X688286Y-144979D01*
X688277Y-144943D01*
X688259Y-144897D01*
X688231Y-144824D01*
X688204Y-144742D01*
X688186Y-144642D01*
X688168Y-144533D01*
X688149Y-144414D01*
X688140D01*
X688131Y-144432D01*
X688076Y-144478D01*
X687994Y-144542D01*
X687885Y-144624D01*
X687748Y-144706D01*
X687612Y-144797D01*
X687466Y-144879D01*
X687311Y-144943D01*
X687293Y-144952D01*
X687238Y-144961D01*
X687156Y-144988D01*
X687056Y-145016D01*
X686929Y-145043D01*
X686783Y-145061D01*
X686619Y-145079D01*
X686455Y-145088D01*
X686382D01*
X686327Y-145079D01*
X686264D01*
X686191Y-145070D01*
X686027Y-145043D01*
X685845Y-144997D01*
X685644Y-144933D01*
X685462Y-144842D01*
X685298Y-144724D01*
X685280Y-144706D01*
X685234Y-144660D01*
X685170Y-144578D01*
X685098Y-144469D01*
X685025Y-144332D01*
X684961Y-144177D01*
X684915Y-143986D01*
X684906Y-143895D01*
X684897Y-143786D01*
Y-143767D01*
Y-143731D01*
X684906Y-143667D01*
X684915Y-143585D01*
X684934Y-143485D01*
X684961Y-143385D01*
X684997Y-143275D01*
X685043Y-143175D01*
X685052Y-143166D01*
X685070Y-143130D01*
X685107Y-143075D01*
X685152Y-143011D01*
X685207Y-142938D01*
X685280Y-142866D01*
X685353Y-142793D01*
X685444Y-142729D01*
X685453Y-142720D01*
X685489Y-142702D01*
X685535Y-142665D01*
X685608Y-142629D01*
X685690Y-142592D01*
X685790Y-142547D01*
X685890Y-142510D01*
X686009Y-142474D01*
X686018D01*
X686054Y-142465D01*
X686109Y-142446D01*
X686182Y-142437D01*
X686273Y-142419D01*
X686391Y-142401D01*
X686528Y-142374D01*
X686692Y-142355D01*
X686701D01*
X686737Y-142346D01*
X686783D01*
X686847Y-142337D01*
X686919Y-142328D01*
X687011Y-142310D01*
X687111Y-142301D01*
X687220Y-142282D01*
X687439Y-142237D01*
X687676Y-142191D01*
X687885Y-142137D01*
X687985Y-142109D01*
X688076Y-142082D01*
Y-142073D01*
Y-142055D01*
X688086Y-142000D01*
Y-141936D01*
Y-141900D01*
Y-141882D01*
Y-141873D01*
Y-141864D01*
Y-141809D01*
X688076Y-141718D01*
X688058Y-141618D01*
X688031Y-141508D01*
X687985Y-141399D01*
X687931Y-141299D01*
X687858Y-141217D01*
X687849Y-141208D01*
X687803Y-141171D01*
X687730Y-141135D01*
X687639Y-141080D01*
X687512Y-141034D01*
X687366Y-140989D01*
X687184Y-140962D01*
X686974Y-140953D01*
X686883D01*
X686792Y-140962D01*
X686664Y-140980D01*
X686537Y-140998D01*
X686400Y-141034D01*
X686273Y-141080D01*
X686163Y-141144D01*
X686154Y-141153D01*
X686118Y-141180D01*
X686072Y-141226D01*
X686018Y-141299D01*
X685963Y-141390D01*
X685899Y-141508D01*
X685845Y-141654D01*
X685790Y-141818D01*
X685034Y-141718D01*
Y-141709D01*
X685043Y-141700D01*
Y-141672D01*
X685052Y-141636D01*
X685079Y-141554D01*
X685116Y-141435D01*
X685161Y-141317D01*
X685216Y-141189D01*
X685289Y-141062D01*
X685371Y-140943D01*
X685380Y-140934D01*
X685416Y-140898D01*
X685471Y-140843D01*
X685544Y-140770D01*
X685644Y-140697D01*
X685763Y-140624D01*
X685899Y-140542D01*
X686054Y-140479D01*
X686063D01*
X686072Y-140470D01*
X686100Y-140461D01*
X686136Y-140451D01*
X686227Y-140424D01*
X686355Y-140397D01*
X686501Y-140369D01*
X686683Y-140342D01*
X686874Y-140324D01*
X687093Y-140315D01*
X687193D01*
X687293Y-140324D01*
D02*
G37*
G36*
X682109Y-138693D02*
X682264Y-138702D01*
X682428Y-138711D01*
X682583Y-138730D01*
X682720Y-138748D01*
X682738D01*
X682802Y-138766D01*
X682884Y-138784D01*
X682993Y-138812D01*
X683111Y-138857D01*
X683239Y-138912D01*
X683376Y-138976D01*
X683494Y-139049D01*
X683512Y-139058D01*
X683549Y-139085D01*
X683603Y-139140D01*
X683676Y-139203D01*
X683758Y-139285D01*
X683840Y-139395D01*
X683931Y-139513D01*
X684004Y-139650D01*
X684013Y-139668D01*
X684032Y-139714D01*
X684068Y-139795D01*
X684104Y-139905D01*
X684132Y-140032D01*
X684168Y-140178D01*
X684187Y-140342D01*
X684196Y-140515D01*
Y-140524D01*
Y-140552D01*
Y-140588D01*
X684187Y-140652D01*
X684177Y-140716D01*
X684168Y-140798D01*
X684150Y-140889D01*
X684132Y-140989D01*
X684068Y-141198D01*
X684032Y-141308D01*
X683977Y-141426D01*
X683913Y-141545D01*
X683849Y-141654D01*
X683768Y-141763D01*
X683676Y-141873D01*
X683667Y-141882D01*
X683649Y-141900D01*
X683622Y-141927D01*
X683576Y-141955D01*
X683522Y-142000D01*
X683449Y-142046D01*
X683357Y-142100D01*
X683257Y-142146D01*
X683139Y-142201D01*
X683002Y-142255D01*
X682857Y-142301D01*
X682683Y-142337D01*
X682501Y-142374D01*
X682301Y-142401D01*
X682073Y-142419D01*
X681836Y-142428D01*
X680224D01*
Y-144988D01*
X679386D01*
Y-138684D01*
X681973D01*
X682109Y-138693D01*
D02*
G37*
G36*
X651518D02*
X651591D01*
X651755Y-138711D01*
X651937Y-138730D01*
X652128Y-138766D01*
X652320Y-138812D01*
X652493Y-138875D01*
X652502D01*
X652511Y-138884D01*
X652566Y-138912D01*
X652648Y-138957D01*
X652739Y-139021D01*
X652848Y-139103D01*
X652967Y-139203D01*
X653076Y-139331D01*
X653176Y-139468D01*
X653185Y-139486D01*
X653212Y-139540D01*
X653258Y-139613D01*
X653304Y-139723D01*
X653349Y-139850D01*
X653395Y-139987D01*
X653422Y-140142D01*
X653431Y-140297D01*
Y-140315D01*
Y-140360D01*
X653422Y-140442D01*
X653404Y-140542D01*
X653376Y-140661D01*
X653331Y-140788D01*
X653276Y-140916D01*
X653203Y-141053D01*
X653194Y-141071D01*
X653167Y-141107D01*
X653112Y-141180D01*
X653039Y-141253D01*
X652948Y-141344D01*
X652839Y-141444D01*
X652702Y-141535D01*
X652548Y-141627D01*
X652557D01*
X652575Y-141636D01*
X652602Y-141645D01*
X652639Y-141663D01*
X652748Y-141700D01*
X652876Y-141763D01*
X653012Y-141845D01*
X653167Y-141946D01*
X653304Y-142064D01*
X653431Y-142210D01*
X653440Y-142228D01*
X653477Y-142282D01*
X653531Y-142365D01*
X653586Y-142474D01*
X653641Y-142620D01*
X653695Y-142774D01*
X653732Y-142957D01*
X653741Y-143157D01*
Y-143166D01*
Y-143175D01*
Y-143230D01*
X653732Y-143321D01*
X653714Y-143430D01*
X653695Y-143558D01*
X653659Y-143695D01*
X653613Y-143840D01*
X653550Y-143986D01*
X653541Y-144004D01*
X653513Y-144050D01*
X653477Y-144114D01*
X653422Y-144205D01*
X653349Y-144296D01*
X653276Y-144396D01*
X653185Y-144496D01*
X653085Y-144578D01*
X653076Y-144587D01*
X653039Y-144615D01*
X652976Y-144651D01*
X652894Y-144688D01*
X652794Y-144742D01*
X652675Y-144797D01*
X652548Y-144842D01*
X652393Y-144888D01*
X652374D01*
X652320Y-144906D01*
X652229Y-144915D01*
X652110Y-144933D01*
X651965Y-144952D01*
X651791Y-144970D01*
X651600Y-144979D01*
X651381Y-144988D01*
X648976D01*
Y-138684D01*
X651454D01*
X651518Y-138693D01*
D02*
G37*
G36*
X695374Y-140415D02*
X696157D01*
Y-141016D01*
X695374D01*
Y-143704D01*
Y-143722D01*
Y-143758D01*
Y-143813D01*
X695383Y-143877D01*
X695392Y-144023D01*
X695401Y-144086D01*
X695410Y-144132D01*
X695419Y-144150D01*
X695446Y-144186D01*
X695483Y-144232D01*
X695547Y-144278D01*
X695565Y-144287D01*
X695611Y-144305D01*
X695692Y-144323D01*
X695811Y-144332D01*
X695902D01*
X695948Y-144323D01*
X696011D01*
X696084Y-144314D01*
X696157Y-144305D01*
X696257Y-144988D01*
X696239D01*
X696203Y-144997D01*
X696139Y-145006D01*
X696057Y-145016D01*
X695966Y-145034D01*
X695865Y-145043D01*
X695665Y-145052D01*
X695592D01*
X695519Y-145043D01*
X695428Y-145034D01*
X695319Y-145025D01*
X695210Y-144997D01*
X695109Y-144970D01*
X695009Y-144924D01*
X695000Y-144915D01*
X694973Y-144897D01*
X694936Y-144870D01*
X694882Y-144824D01*
X694836Y-144779D01*
X694781Y-144715D01*
X694727Y-144651D01*
X694690Y-144569D01*
Y-144560D01*
X694672Y-144524D01*
X694663Y-144460D01*
X694645Y-144369D01*
X694627Y-144250D01*
X694618Y-144177D01*
Y-144095D01*
X694608Y-143995D01*
X694599Y-143895D01*
Y-143786D01*
Y-143658D01*
Y-141016D01*
X694025D01*
Y-140415D01*
X694599D01*
Y-139285D01*
X695374Y-138821D01*
Y-140415D01*
D02*
G37*
G36*
X663042D02*
X663826D01*
Y-141016D01*
X663042D01*
Y-143704D01*
Y-143722D01*
Y-143758D01*
Y-143813D01*
X663051Y-143877D01*
X663060Y-144023D01*
X663069Y-144086D01*
X663079Y-144132D01*
X663088Y-144150D01*
X663115Y-144186D01*
X663152Y-144232D01*
X663215Y-144278D01*
X663234Y-144287D01*
X663279Y-144305D01*
X663361Y-144323D01*
X663480Y-144332D01*
X663571D01*
X663616Y-144323D01*
X663680D01*
X663753Y-144314D01*
X663826Y-144305D01*
X663926Y-144988D01*
X663908D01*
X663871Y-144997D01*
X663807Y-145006D01*
X663726Y-145016D01*
X663634Y-145034D01*
X663534Y-145043D01*
X663334Y-145052D01*
X663261D01*
X663188Y-145043D01*
X663097Y-145034D01*
X662988Y-145025D01*
X662878Y-144997D01*
X662778Y-144970D01*
X662678Y-144924D01*
X662669Y-144915D01*
X662641Y-144897D01*
X662605Y-144870D01*
X662550Y-144824D01*
X662505Y-144779D01*
X662450Y-144715D01*
X662395Y-144651D01*
X662359Y-144569D01*
Y-144560D01*
X662341Y-144524D01*
X662332Y-144460D01*
X662313Y-144369D01*
X662295Y-144250D01*
X662286Y-144177D01*
Y-144095D01*
X662277Y-143995D01*
X662268Y-143895D01*
Y-143786D01*
Y-143658D01*
Y-141016D01*
X661694D01*
Y-140415D01*
X662268D01*
Y-139285D01*
X663042Y-138821D01*
Y-140415D01*
D02*
G37*
G36*
X660592D02*
X661375D01*
Y-141016D01*
X660592D01*
Y-143704D01*
Y-143722D01*
Y-143758D01*
Y-143813D01*
X660601Y-143877D01*
X660610Y-144023D01*
X660619Y-144086D01*
X660628Y-144132D01*
X660637Y-144150D01*
X660665Y-144186D01*
X660701Y-144232D01*
X660765Y-144278D01*
X660783Y-144287D01*
X660828Y-144305D01*
X660911Y-144323D01*
X661029Y-144332D01*
X661120D01*
X661166Y-144323D01*
X661229D01*
X661302Y-144314D01*
X661375Y-144305D01*
X661475Y-144988D01*
X661457D01*
X661421Y-144997D01*
X661357Y-145006D01*
X661275Y-145016D01*
X661184Y-145034D01*
X661084Y-145043D01*
X660883Y-145052D01*
X660810D01*
X660737Y-145043D01*
X660646Y-145034D01*
X660537Y-145025D01*
X660428Y-144997D01*
X660327Y-144970D01*
X660227Y-144924D01*
X660218Y-144915D01*
X660191Y-144897D01*
X660154Y-144870D01*
X660100Y-144824D01*
X660054Y-144779D01*
X660000Y-144715D01*
X659945Y-144651D01*
X659908Y-144569D01*
Y-144560D01*
X659890Y-144524D01*
X659881Y-144460D01*
X659863Y-144369D01*
X659845Y-144250D01*
X659835Y-144177D01*
Y-144095D01*
X659826Y-143995D01*
X659817Y-143895D01*
Y-143786D01*
Y-143658D01*
Y-141016D01*
X659243D01*
Y-140415D01*
X659817D01*
Y-139285D01*
X660592Y-138821D01*
Y-140415D01*
D02*
G37*
G36*
X698945Y-140324D02*
X699018Y-140333D01*
X699109Y-140351D01*
X699209Y-140369D01*
X699327Y-140397D01*
X699437Y-140424D01*
X699564Y-140470D01*
X699683Y-140515D01*
X699810Y-140579D01*
X699938Y-140652D01*
X700065Y-140734D01*
X700184Y-140834D01*
X700293Y-140943D01*
X700302Y-140953D01*
X700320Y-140971D01*
X700348Y-141007D01*
X700384Y-141062D01*
X700430Y-141126D01*
X700475Y-141198D01*
X700530Y-141289D01*
X700585Y-141399D01*
X700639Y-141517D01*
X700694Y-141645D01*
X700739Y-141791D01*
X700785Y-141946D01*
X700821Y-142119D01*
X700849Y-142301D01*
X700867Y-142492D01*
X700876Y-142702D01*
Y-142711D01*
Y-142747D01*
Y-142811D01*
X700867Y-142902D01*
X697451D01*
Y-142911D01*
Y-142938D01*
X697460Y-142975D01*
Y-143029D01*
X697469Y-143093D01*
X697487Y-143166D01*
X697514Y-143330D01*
X697569Y-143512D01*
X697642Y-143713D01*
X697742Y-143895D01*
X697870Y-144059D01*
X697879D01*
X697888Y-144077D01*
X697943Y-144123D01*
X698025Y-144186D01*
X698134Y-144250D01*
X698280Y-144323D01*
X698444Y-144387D01*
X698626Y-144432D01*
X698726Y-144442D01*
X698835Y-144451D01*
X698908D01*
X698990Y-144442D01*
X699090Y-144423D01*
X699200Y-144396D01*
X699327Y-144360D01*
X699446Y-144305D01*
X699564Y-144232D01*
X699573Y-144223D01*
X699619Y-144186D01*
X699674Y-144132D01*
X699737Y-144059D01*
X699810Y-143959D01*
X699892Y-143831D01*
X699974Y-143685D01*
X700047Y-143512D01*
X700849Y-143613D01*
Y-143622D01*
X700840Y-143640D01*
X700831Y-143676D01*
X700812Y-143731D01*
X700785Y-143786D01*
X700758Y-143859D01*
X700685Y-144013D01*
X700594Y-144186D01*
X700466Y-144369D01*
X700320Y-144542D01*
X700138Y-144706D01*
X700129D01*
X700111Y-144724D01*
X700083Y-144742D01*
X700047Y-144770D01*
X699992Y-144797D01*
X699938Y-144824D01*
X699865Y-144861D01*
X699783Y-144897D01*
X699692Y-144933D01*
X699601Y-144970D01*
X699373Y-145025D01*
X699118Y-145070D01*
X698835Y-145088D01*
X698735D01*
X698671Y-145079D01*
X698589Y-145070D01*
X698489Y-145052D01*
X698380Y-145034D01*
X698261Y-145016D01*
X698006Y-144943D01*
X697870Y-144888D01*
X697742Y-144833D01*
X697606Y-144760D01*
X697478Y-144678D01*
X697360Y-144587D01*
X697241Y-144478D01*
X697232Y-144469D01*
X697214Y-144451D01*
X697187Y-144414D01*
X697150Y-144360D01*
X697105Y-144296D01*
X697059Y-144223D01*
X697004Y-144132D01*
X696950Y-144032D01*
X696895Y-143913D01*
X696840Y-143786D01*
X696795Y-143640D01*
X696749Y-143485D01*
X696713Y-143321D01*
X696686Y-143139D01*
X696667Y-142948D01*
X696658Y-142747D01*
Y-142738D01*
Y-142692D01*
Y-142638D01*
X696667Y-142556D01*
X696676Y-142456D01*
X696686Y-142346D01*
X696704Y-142219D01*
X696731Y-142091D01*
X696804Y-141800D01*
X696849Y-141654D01*
X696904Y-141499D01*
X696977Y-141353D01*
X697059Y-141217D01*
X697150Y-141080D01*
X697250Y-140953D01*
X697259Y-140943D01*
X697278Y-140925D01*
X697314Y-140898D01*
X697360Y-140852D01*
X697414Y-140807D01*
X697487Y-140752D01*
X697569Y-140688D01*
X697669Y-140634D01*
X697769Y-140570D01*
X697888Y-140515D01*
X698015Y-140461D01*
X698152Y-140415D01*
X698298Y-140369D01*
X698453Y-140342D01*
X698617Y-140324D01*
X698790Y-140315D01*
X698881D01*
X698945Y-140324D01*
D02*
G37*
G36*
X666595D02*
X666677Y-140333D01*
X666768Y-140351D01*
X666868Y-140369D01*
X666987Y-140388D01*
X667233Y-140470D01*
X667360Y-140515D01*
X667488Y-140579D01*
X667615Y-140643D01*
X667743Y-140734D01*
X667861Y-140825D01*
X667980Y-140934D01*
X667989Y-140943D01*
X668007Y-140962D01*
X668035Y-140998D01*
X668071Y-141044D01*
X668117Y-141107D01*
X668171Y-141189D01*
X668226Y-141280D01*
X668281Y-141381D01*
X668335Y-141490D01*
X668390Y-141627D01*
X668444Y-141763D01*
X668490Y-141918D01*
X668526Y-142082D01*
X668554Y-142255D01*
X668572Y-142437D01*
X668581Y-142638D01*
Y-142647D01*
Y-142674D01*
Y-142720D01*
Y-142784D01*
X668572Y-142857D01*
X668563Y-142948D01*
Y-143039D01*
X668545Y-143139D01*
X668517Y-143367D01*
X668463Y-143594D01*
X668399Y-143822D01*
X668308Y-144032D01*
Y-144041D01*
X668299Y-144050D01*
X668281Y-144077D01*
X668262Y-144114D01*
X668198Y-144205D01*
X668117Y-144314D01*
X668007Y-144442D01*
X667871Y-144569D01*
X667716Y-144697D01*
X667533Y-144815D01*
X667524D01*
X667515Y-144824D01*
X667488Y-144842D01*
X667442Y-144861D01*
X667397Y-144879D01*
X667342Y-144897D01*
X667205Y-144952D01*
X667051Y-144997D01*
X666859Y-145043D01*
X666659Y-145079D01*
X666440Y-145088D01*
X666349D01*
X666276Y-145079D01*
X666194Y-145070D01*
X666103Y-145052D01*
X665994Y-145034D01*
X665884Y-145016D01*
X665639Y-144943D01*
X665502Y-144888D01*
X665374Y-144833D01*
X665247Y-144760D01*
X665119Y-144678D01*
X665001Y-144587D01*
X664882Y-144478D01*
X664873Y-144469D01*
X664855Y-144451D01*
X664828Y-144414D01*
X664791Y-144360D01*
X664746Y-144296D01*
X664700Y-144223D01*
X664646Y-144132D01*
X664591Y-144023D01*
X664536Y-143904D01*
X664482Y-143767D01*
X664436Y-143622D01*
X664391Y-143467D01*
X664354Y-143294D01*
X664327Y-143112D01*
X664309Y-142911D01*
X664299Y-142702D01*
Y-142683D01*
Y-142647D01*
X664309Y-142583D01*
Y-142492D01*
X664318Y-142392D01*
X664336Y-142264D01*
X664354Y-142137D01*
X664391Y-141991D01*
X664427Y-141845D01*
X664472Y-141690D01*
X664527Y-141526D01*
X664600Y-141372D01*
X664673Y-141226D01*
X664773Y-141080D01*
X664873Y-140943D01*
X665001Y-140825D01*
X665010Y-140816D01*
X665028Y-140807D01*
X665065Y-140779D01*
X665110Y-140743D01*
X665165Y-140707D01*
X665238Y-140661D01*
X665311Y-140615D01*
X665402Y-140570D01*
X665502Y-140524D01*
X665611Y-140479D01*
X665857Y-140397D01*
X666140Y-140333D01*
X666285Y-140324D01*
X666440Y-140315D01*
X666531D01*
X666595Y-140324D01*
D02*
G37*
G36*
X656793D02*
X656875Y-140333D01*
X656966Y-140351D01*
X657066Y-140369D01*
X657185Y-140388D01*
X657431Y-140470D01*
X657558Y-140515D01*
X657686Y-140579D01*
X657813Y-140643D01*
X657941Y-140734D01*
X658059Y-140825D01*
X658178Y-140934D01*
X658187Y-140943D01*
X658205Y-140962D01*
X658232Y-140998D01*
X658269Y-141044D01*
X658314Y-141107D01*
X658369Y-141189D01*
X658423Y-141280D01*
X658478Y-141381D01*
X658533Y-141490D01*
X658587Y-141627D01*
X658642Y-141763D01*
X658688Y-141918D01*
X658724Y-142082D01*
X658751Y-142255D01*
X658770Y-142437D01*
X658779Y-142638D01*
Y-142647D01*
Y-142674D01*
Y-142720D01*
Y-142784D01*
X658770Y-142857D01*
X658760Y-142948D01*
Y-143039D01*
X658742Y-143139D01*
X658715Y-143367D01*
X658660Y-143594D01*
X658597Y-143822D01*
X658505Y-144032D01*
Y-144041D01*
X658496Y-144050D01*
X658478Y-144077D01*
X658460Y-144114D01*
X658396Y-144205D01*
X658314Y-144314D01*
X658205Y-144442D01*
X658068Y-144569D01*
X657913Y-144697D01*
X657731Y-144815D01*
X657722D01*
X657713Y-144824D01*
X657686Y-144842D01*
X657640Y-144861D01*
X657594Y-144879D01*
X657540Y-144897D01*
X657403Y-144952D01*
X657248Y-144997D01*
X657057Y-145043D01*
X656856Y-145079D01*
X656638Y-145088D01*
X656547D01*
X656474Y-145079D01*
X656392Y-145070D01*
X656301Y-145052D01*
X656191Y-145034D01*
X656082Y-145016D01*
X655836Y-144943D01*
X655700Y-144888D01*
X655572Y-144833D01*
X655444Y-144760D01*
X655317Y-144678D01*
X655198Y-144587D01*
X655080Y-144478D01*
X655071Y-144469D01*
X655053Y-144451D01*
X655025Y-144414D01*
X654989Y-144360D01*
X654943Y-144296D01*
X654898Y-144223D01*
X654843Y-144132D01*
X654789Y-144023D01*
X654734Y-143904D01*
X654679Y-143767D01*
X654634Y-143622D01*
X654588Y-143467D01*
X654552Y-143294D01*
X654524Y-143112D01*
X654506Y-142911D01*
X654497Y-142702D01*
Y-142683D01*
Y-142647D01*
X654506Y-142583D01*
Y-142492D01*
X654515Y-142392D01*
X654533Y-142264D01*
X654552Y-142137D01*
X654588Y-141991D01*
X654625Y-141845D01*
X654670Y-141690D01*
X654725Y-141526D01*
X654798Y-141372D01*
X654871Y-141226D01*
X654971Y-141080D01*
X655071Y-140943D01*
X655198Y-140825D01*
X655208Y-140816D01*
X655226Y-140807D01*
X655262Y-140779D01*
X655308Y-140743D01*
X655363Y-140707D01*
X655435Y-140661D01*
X655508Y-140615D01*
X655599Y-140570D01*
X655700Y-140524D01*
X655809Y-140479D01*
X656055Y-140397D01*
X656337Y-140333D01*
X656483Y-140324D01*
X656638Y-140315D01*
X656729D01*
X656793Y-140324D01*
D02*
G37*
%LPC*%
G36*
X688086Y-142692D02*
X688076D01*
X688067Y-142702D01*
X688040Y-142711D01*
X688004Y-142720D01*
X687958Y-142738D01*
X687903Y-142756D01*
X687840Y-142774D01*
X687767Y-142793D01*
X687685Y-142820D01*
X687585Y-142838D01*
X687484Y-142866D01*
X687366Y-142893D01*
X687238Y-142920D01*
X687111Y-142948D01*
X686965Y-142966D01*
X686810Y-142993D01*
X686792D01*
X686737Y-143002D01*
X686646Y-143020D01*
X686546Y-143039D01*
X686437Y-143057D01*
X686327Y-143084D01*
X686227Y-143112D01*
X686136Y-143148D01*
X686127D01*
X686100Y-143166D01*
X686063Y-143184D01*
X686027Y-143212D01*
X685917Y-143285D01*
X685826Y-143394D01*
Y-143403D01*
X685808Y-143421D01*
X685799Y-143458D01*
X685781Y-143503D01*
X685763Y-143558D01*
X685744Y-143613D01*
X685735Y-143685D01*
X685726Y-143758D01*
Y-143767D01*
Y-143813D01*
X685735Y-143868D01*
X685753Y-143941D01*
X685781Y-144023D01*
X685826Y-144105D01*
X685881Y-144196D01*
X685954Y-144278D01*
X685963Y-144287D01*
X685999Y-144305D01*
X686054Y-144341D01*
X686127Y-144378D01*
X686227Y-144414D01*
X686346Y-144451D01*
X686482Y-144469D01*
X686646Y-144478D01*
X686719D01*
X686810Y-144469D01*
X686910Y-144451D01*
X687038Y-144432D01*
X687165Y-144396D01*
X687302Y-144351D01*
X687439Y-144287D01*
X687457Y-144278D01*
X687494Y-144250D01*
X687557Y-144205D01*
X687630Y-144141D01*
X687712Y-144068D01*
X687803Y-143977D01*
X687876Y-143868D01*
X687949Y-143749D01*
X687958Y-143740D01*
X687967Y-143704D01*
X687985Y-143640D01*
X688013Y-143558D01*
X688040Y-143449D01*
X688058Y-143321D01*
X688067Y-143166D01*
X688076Y-142984D01*
X688086Y-142692D01*
D02*
G37*
G36*
X682027Y-139431D02*
X680224D01*
Y-141681D01*
X681918D01*
X681982Y-141672D01*
X682046D01*
X682119Y-141663D01*
X682292Y-141645D01*
X682483Y-141608D01*
X682674Y-141554D01*
X682847Y-141481D01*
X682929Y-141435D01*
X682993Y-141381D01*
X683011Y-141362D01*
X683048Y-141326D01*
X683102Y-141253D01*
X683166Y-141162D01*
X683230Y-141044D01*
X683285Y-140898D01*
X683321Y-140734D01*
X683339Y-140542D01*
Y-140533D01*
Y-140524D01*
Y-140479D01*
X683330Y-140397D01*
X683312Y-140306D01*
X683294Y-140205D01*
X683257Y-140087D01*
X683203Y-139978D01*
X683139Y-139868D01*
X683130Y-139859D01*
X683102Y-139823D01*
X683057Y-139777D01*
X683002Y-139714D01*
X682920Y-139650D01*
X682829Y-139595D01*
X682729Y-139540D01*
X682611Y-139495D01*
X682601D01*
X682565Y-139486D01*
X682510Y-139477D01*
X682437Y-139458D01*
X682328Y-139449D01*
X682191Y-139440D01*
X682027Y-139431D01*
D02*
G37*
G36*
X651308D02*
X649815D01*
Y-141326D01*
X651363D01*
X651482Y-141317D01*
X651609Y-141308D01*
X651737Y-141299D01*
X651864Y-141280D01*
X651965Y-141262D01*
X651983Y-141253D01*
X652019Y-141244D01*
X652074Y-141217D01*
X652147Y-141180D01*
X652219Y-141144D01*
X652302Y-141089D01*
X652384Y-141016D01*
X652447Y-140943D01*
X652456Y-140934D01*
X652475Y-140907D01*
X652502Y-140852D01*
X652529Y-140788D01*
X652557Y-140716D01*
X652584Y-140624D01*
X652602Y-140515D01*
X652611Y-140397D01*
Y-140378D01*
Y-140342D01*
X652602Y-140287D01*
X652593Y-140215D01*
X652575Y-140123D01*
X652548Y-140032D01*
X652511Y-139941D01*
X652456Y-139850D01*
X652447Y-139841D01*
X652429Y-139814D01*
X652393Y-139768D01*
X652347Y-139723D01*
X652283Y-139668D01*
X652210Y-139613D01*
X652119Y-139559D01*
X652019Y-139522D01*
X652010D01*
X651965Y-139504D01*
X651901Y-139495D01*
X651800Y-139477D01*
X651664Y-139458D01*
X651509Y-139449D01*
X651308Y-139431D01*
D02*
G37*
G36*
X651473Y-142073D02*
X649815D01*
Y-144241D01*
X651609D01*
X651800Y-144232D01*
X651883Y-144223D01*
X651955Y-144214D01*
X651965D01*
X652001Y-144205D01*
X652056Y-144196D01*
X652119Y-144177D01*
X652274Y-144123D01*
X652429Y-144050D01*
X652438Y-144041D01*
X652465Y-144023D01*
X652502Y-143995D01*
X652548Y-143959D01*
X652593Y-143904D01*
X652657Y-143850D01*
X652702Y-143777D01*
X652757Y-143695D01*
X652766Y-143685D01*
X652775Y-143658D01*
X652794Y-143604D01*
X652821Y-143540D01*
X652848Y-143467D01*
X652866Y-143376D01*
X652876Y-143266D01*
X652885Y-143157D01*
Y-143139D01*
Y-143102D01*
X652876Y-143029D01*
X652857Y-142948D01*
X652839Y-142857D01*
X652803Y-142756D01*
X652757Y-142656D01*
X652693Y-142556D01*
X652684Y-142547D01*
X652657Y-142510D01*
X652620Y-142465D01*
X652566Y-142410D01*
X652493Y-142346D01*
X652402Y-142282D01*
X652302Y-142228D01*
X652183Y-142182D01*
X652165Y-142173D01*
X652128Y-142164D01*
X652046Y-142146D01*
X651946Y-142128D01*
X651819Y-142109D01*
X651664Y-142091D01*
X651473Y-142073D01*
D02*
G37*
G36*
X698799Y-140953D02*
X698744D01*
X698708Y-140962D01*
X698608Y-140971D01*
X698489Y-140998D01*
X698344Y-141044D01*
X698189Y-141107D01*
X698043Y-141198D01*
X697897Y-141317D01*
X697879Y-141335D01*
X697842Y-141381D01*
X697779Y-141463D01*
X697715Y-141572D01*
X697642Y-141700D01*
X697578Y-141864D01*
X697524Y-142055D01*
X697496Y-142264D01*
X700056D01*
Y-142255D01*
Y-142237D01*
X700047Y-142210D01*
Y-142173D01*
X700029Y-142064D01*
X700001Y-141946D01*
X699956Y-141800D01*
X699910Y-141663D01*
X699837Y-141526D01*
X699755Y-141408D01*
Y-141399D01*
X699737Y-141390D01*
X699692Y-141335D01*
X699610Y-141262D01*
X699500Y-141180D01*
X699364Y-141098D01*
X699200Y-141025D01*
X699009Y-140971D01*
X698908Y-140962D01*
X698799Y-140953D01*
D02*
G37*
G36*
X666440D02*
X666386D01*
X666340Y-140962D01*
X666240Y-140971D01*
X666103Y-141007D01*
X665948Y-141062D01*
X665784Y-141135D01*
X665629Y-141244D01*
X665548Y-141317D01*
X665475Y-141390D01*
Y-141399D01*
X665456Y-141408D01*
X665438Y-141435D01*
X665411Y-141472D01*
X665383Y-141517D01*
X665356Y-141572D01*
X665320Y-141645D01*
X665283Y-141718D01*
X665247Y-141809D01*
X665210Y-141900D01*
X665183Y-142009D01*
X665156Y-142128D01*
X665128Y-142255D01*
X665110Y-142392D01*
X665101Y-142547D01*
X665092Y-142702D01*
Y-142711D01*
Y-142738D01*
Y-142784D01*
X665101Y-142847D01*
Y-142920D01*
X665110Y-143002D01*
X665137Y-143193D01*
X665183Y-143412D01*
X665256Y-143631D01*
X665347Y-143840D01*
X665411Y-143931D01*
X665475Y-144023D01*
X665484D01*
X665493Y-144041D01*
X665548Y-144086D01*
X665629Y-144159D01*
X665739Y-144232D01*
X665875Y-144314D01*
X666039Y-144387D01*
X666231Y-144432D01*
X666331Y-144442D01*
X666440Y-144451D01*
X666495D01*
X666540Y-144442D01*
X666641Y-144423D01*
X666777Y-144396D01*
X666923Y-144341D01*
X667087Y-144269D01*
X667242Y-144159D01*
X667324Y-144086D01*
X667397Y-144013D01*
X667406Y-144004D01*
X667415Y-143995D01*
X667433Y-143968D01*
X667461Y-143931D01*
X667488Y-143886D01*
X667524Y-143831D01*
X667561Y-143758D01*
X667597Y-143685D01*
X667634Y-143594D01*
X667661Y-143494D01*
X667697Y-143385D01*
X667725Y-143266D01*
X667752Y-143130D01*
X667770Y-142993D01*
X667789Y-142838D01*
Y-142674D01*
Y-142665D01*
Y-142638D01*
Y-142592D01*
X667779Y-142538D01*
Y-142465D01*
X667770Y-142383D01*
X667743Y-142191D01*
X667697Y-141991D01*
X667625Y-141772D01*
X667524Y-141572D01*
X667470Y-141472D01*
X667397Y-141390D01*
Y-141381D01*
X667379Y-141372D01*
X667324Y-141317D01*
X667242Y-141253D01*
X667133Y-141171D01*
X666996Y-141089D01*
X666832Y-141016D01*
X666650Y-140971D01*
X666550Y-140962D01*
X666440Y-140953D01*
D02*
G37*
G36*
X656638D02*
X656583D01*
X656538Y-140962D01*
X656437Y-140971D01*
X656301Y-141007D01*
X656146Y-141062D01*
X655982Y-141135D01*
X655827Y-141244D01*
X655745Y-141317D01*
X655672Y-141390D01*
Y-141399D01*
X655654Y-141408D01*
X655636Y-141435D01*
X655609Y-141472D01*
X655581Y-141517D01*
X655554Y-141572D01*
X655517Y-141645D01*
X655481Y-141718D01*
X655444Y-141809D01*
X655408Y-141900D01*
X655381Y-142009D01*
X655353Y-142128D01*
X655326Y-142255D01*
X655308Y-142392D01*
X655299Y-142547D01*
X655290Y-142702D01*
Y-142711D01*
Y-142738D01*
Y-142784D01*
X655299Y-142847D01*
Y-142920D01*
X655308Y-143002D01*
X655335Y-143193D01*
X655381Y-143412D01*
X655454Y-143631D01*
X655545Y-143840D01*
X655609Y-143931D01*
X655672Y-144023D01*
X655681D01*
X655690Y-144041D01*
X655745Y-144086D01*
X655827Y-144159D01*
X655936Y-144232D01*
X656073Y-144314D01*
X656237Y-144387D01*
X656428Y-144432D01*
X656529Y-144442D01*
X656638Y-144451D01*
X656693D01*
X656738Y-144442D01*
X656838Y-144423D01*
X656975Y-144396D01*
X657121Y-144341D01*
X657285Y-144269D01*
X657440Y-144159D01*
X657522Y-144086D01*
X657594Y-144013D01*
X657604Y-144004D01*
X657613Y-143995D01*
X657631Y-143968D01*
X657658Y-143931D01*
X657686Y-143886D01*
X657722Y-143831D01*
X657758Y-143758D01*
X657795Y-143685D01*
X657831Y-143594D01*
X657859Y-143494D01*
X657895Y-143385D01*
X657922Y-143266D01*
X657950Y-143130D01*
X657968Y-142993D01*
X657986Y-142838D01*
Y-142674D01*
Y-142665D01*
Y-142638D01*
Y-142592D01*
X657977Y-142538D01*
Y-142465D01*
X657968Y-142383D01*
X657941Y-142191D01*
X657895Y-141991D01*
X657822Y-141772D01*
X657722Y-141572D01*
X657667Y-141472D01*
X657594Y-141390D01*
Y-141381D01*
X657576Y-141372D01*
X657522Y-141317D01*
X657440Y-141253D01*
X657330Y-141171D01*
X657194Y-141089D01*
X657030Y-141016D01*
X656847Y-140971D01*
X656747Y-140962D01*
X656638Y-140953D01*
D02*
G37*
%LPD*%
D11*
X14449Y349882D02*
G03*
X45Y335005I609J-15002D01*
G01*
X326575Y341220D02*
G03*
X314724Y349882I-12571J-4763D01*
G01*
X326575Y341339D02*
G03*
X338898Y331928I13326J4677D01*
G01*
X361631Y319611D02*
G03*
X349410Y331906I-12330J-35D01*
G01*
X339435Y14356D02*
G03*
X327284Y8150I-253J-14503D01*
G01*
X348242Y14356D02*
G03*
X361631Y27953I-102J13490D01*
G01*
X311967Y-72D02*
G03*
X327284Y8150I575J17307D01*
G01*
X29278Y2252D02*
G03*
X34488Y-72I4950J4095D01*
G01*
X29278Y2252D02*
G03*
X21524Y6947I-10086J-7908D01*
G01*
X39Y18032D02*
G03*
X11317Y6947I11796J722D01*
G01*
X39Y18032D02*
Y334880D01*
X14449Y349882D02*
X16575D01*
X314724D01*
X338898Y331928D02*
X349301D01*
X361631Y27953D02*
X361631Y319611D01*
X339181Y14356D02*
X348242D01*
X34488Y-72D02*
X311967Y-72D01*
X11317Y6947D02*
X21524D01*
D33*
X275394Y256260D02*
D03*
X280906D02*
D03*
X142386Y151166D02*
D03*
X136874D02*
D03*
X86598Y176323D02*
D03*
X92110D02*
D03*
X86598Y157924D02*
D03*
X92110D02*
D03*
X256008Y210497D02*
D03*
X250496D02*
D03*
X243724Y212938D02*
D03*
X238212D02*
D03*
X301992Y187623D02*
D03*
X296480D02*
D03*
X71638Y267938D02*
D03*
X77149D02*
D03*
X45457Y283843D02*
D03*
X50968D02*
D03*
X20535Y282820D02*
D03*
X26047D02*
D03*
X47071Y239276D02*
D03*
X52583D02*
D03*
X23094Y235733D02*
D03*
X28606D02*
D03*
X131835Y284552D02*
D03*
X137346D02*
D03*
X106835Y282229D02*
D03*
X112346D02*
D03*
X19039Y204394D02*
D03*
X24551D02*
D03*
X130024Y237820D02*
D03*
X135535D02*
D03*
X105220Y235379D02*
D03*
X110732D02*
D03*
X200968Y283371D02*
D03*
X206480D02*
D03*
X176283Y281599D02*
D03*
X181795D02*
D03*
X199630Y236835D02*
D03*
X194118D02*
D03*
X175142Y235339D02*
D03*
X180654D02*
D03*
X128331Y328686D02*
D03*
X122819D02*
D03*
X66126Y325575D02*
D03*
X60614D02*
D03*
X21008Y223174D02*
D03*
X26520D02*
D03*
X182858Y328331D02*
D03*
X177346D02*
D03*
X236087Y323725D02*
D03*
X230575D02*
D03*
X228961Y343607D02*
D03*
X234472D02*
D03*
X259630Y125497D02*
D03*
X254118D02*
D03*
D35*
X175535Y65969D02*
D03*
X188134D02*
D03*
X188488Y128804D02*
D03*
X175890D02*
D03*
X188134Y47111D02*
D03*
X175535D02*
D03*
D36*
X208799Y21378D02*
D03*
X201516D02*
D03*
X71421Y274197D02*
D03*
X78705D02*
D03*
X245870Y253961D02*
D03*
X238586D02*
D03*
D39*
X159079Y136835D02*
D03*
X143331D02*
D03*
X139984Y196166D02*
D03*
X155732D02*
D03*
D43*
X36913Y92819D02*
D03*
Y97820D02*
D03*
Y102820D02*
D03*
Y107819D02*
D03*
X61342Y92819D02*
D03*
Y97820D02*
D03*
Y102820D02*
D03*
Y107819D02*
D03*
X36913Y68449D02*
D03*
Y73449D02*
D03*
Y78449D02*
D03*
Y83449D02*
D03*
X61342Y68449D02*
D03*
Y73449D02*
D03*
Y78449D02*
D03*
Y83449D02*
D03*
D44*
X154325Y163976D02*
D03*
X148825D02*
D03*
X175268Y154232D02*
D03*
X169768D02*
D03*
Y159730D02*
D03*
X175268D02*
D03*
X297286Y282575D02*
D03*
X302786D02*
D03*
X297286Y277362D02*
D03*
X302786D02*
D03*
X301947Y179079D02*
D03*
X296447D02*
D03*
X92493Y153128D02*
D03*
X86993D02*
D03*
Y166927D02*
D03*
X92493D02*
D03*
X155026Y159129D02*
D03*
X160526D02*
D03*
X137037Y146442D02*
D03*
X142537D02*
D03*
X86993Y148528D02*
D03*
X92493D02*
D03*
X86993Y162327D02*
D03*
X92493D02*
D03*
X155604Y168504D02*
D03*
X150104D02*
D03*
X92493Y171527D02*
D03*
X86993D02*
D03*
X156589Y174337D02*
D03*
X151089D02*
D03*
X206789Y31166D02*
D03*
X201289D02*
D03*
X156687Y178839D02*
D03*
X151187D02*
D03*
D45*
X130215Y95157D02*
D03*
X116715D02*
D03*
X131226Y185969D02*
D03*
X144726D02*
D03*
X80872D02*
D03*
X94372D02*
D03*
D47*
X288113Y119016D02*
D03*
Y127016D02*
D03*
X219149Y242937D02*
D03*
Y234937D02*
D03*
X226953Y72331D02*
D03*
Y64331D02*
D03*
X220181Y107056D02*
D03*
Y99056D02*
D03*
X64275Y253938D02*
D03*
Y261938D02*
D03*
X298543Y168606D02*
D03*
Y160606D02*
D03*
Y144787D02*
D03*
Y136787D02*
D03*
D48*
X256063Y21496D02*
D03*
X282205Y333819D02*
D03*
X12362Y46811D02*
D03*
D50*
X267898Y104808D02*
D03*
Y97524D02*
D03*
X223803Y89847D02*
D03*
Y82564D02*
D03*
X89197Y250044D02*
D03*
Y257327D02*
D03*
X91165Y296501D02*
D03*
Y303784D02*
D03*
X160417Y295831D02*
D03*
Y303115D02*
D03*
X6559Y297406D02*
D03*
Y304690D02*
D03*
X7071Y251067D02*
D03*
Y258351D02*
D03*
X156475Y249717D02*
D03*
Y257001D02*
D03*
D51*
X275457Y89316D02*
D03*
Y76717D02*
D03*
X204433Y107583D02*
D03*
Y94985D02*
D03*
D56*
X115850Y139473D02*
D03*
X120850D02*
D03*
X125850D02*
D03*
X130850D02*
D03*
X115850Y115044D02*
D03*
X120850D02*
D03*
X125850D02*
D03*
X130850D02*
D03*
X290456Y265098D02*
D03*
X285455D02*
D03*
X280455D02*
D03*
X275455D02*
D03*
X290456Y289528D02*
D03*
X285455D02*
D03*
X280455D02*
D03*
X275455D02*
D03*
D58*
X328764Y35157D02*
D03*
X320764D02*
D03*
X173228Y288287D02*
D03*
X181228D02*
D03*
X296835Y88543D02*
D03*
X288835D02*
D03*
X195480Y218150D02*
D03*
X187480D02*
D03*
X239984Y312795D02*
D03*
X231984D02*
D03*
X103610Y289434D02*
D03*
X111610D02*
D03*
X102835Y241929D02*
D03*
X110835D02*
D03*
X173165Y242052D02*
D03*
X181165D02*
D03*
X311386Y106330D02*
D03*
X303386D02*
D03*
X311386Y96724D02*
D03*
X303386D02*
D03*
X307572Y265354D02*
D03*
X299572D02*
D03*
X307572Y255315D02*
D03*
X299572D02*
D03*
X307572Y245709D02*
D03*
X299572D02*
D03*
X306247Y126378D02*
D03*
X298247D02*
D03*
X17653Y289370D02*
D03*
X25653D02*
D03*
X28551Y242618D02*
D03*
X20551D02*
D03*
D119*
X188646Y113469D02*
D03*
Y120753D02*
D03*
D120*
X236362Y71048D02*
D03*
Y73607D02*
D03*
Y76166D02*
D03*
Y78725D02*
D03*
Y81284D02*
D03*
Y83843D02*
D03*
Y86402D02*
D03*
Y88961D02*
D03*
Y91520D02*
D03*
Y94079D02*
D03*
Y96638D02*
D03*
Y99197D02*
D03*
Y101757D02*
D03*
Y104316D02*
D03*
X259197Y71048D02*
D03*
Y73607D02*
D03*
Y76166D02*
D03*
Y78725D02*
D03*
Y81284D02*
D03*
Y83843D02*
D03*
Y86402D02*
D03*
Y88961D02*
D03*
Y91520D02*
D03*
Y94079D02*
D03*
Y96638D02*
D03*
Y99197D02*
D03*
Y101757D02*
D03*
Y104316D02*
D03*
D121*
X123016Y169197D02*
D03*
Y170772D02*
D03*
Y172347D02*
D03*
Y173922D02*
D03*
Y175497D02*
D03*
Y177071D02*
D03*
Y167623D02*
D03*
X103724Y177071D02*
D03*
Y175497D02*
D03*
Y173922D02*
D03*
Y167623D02*
D03*
Y169197D02*
D03*
Y170772D02*
D03*
Y172347D02*
D03*
D122*
X113272Y172347D02*
D03*
D125*
X247405Y226245D02*
D03*
X242405D02*
D03*
X237405D02*
D03*
X232405D02*
D03*
X247405Y245142D02*
D03*
X242405D02*
D03*
X237405D02*
D03*
X232405D02*
D03*
D126*
X105645Y12272D02*
D03*
X235505Y6502D02*
D03*
X309291Y191057D02*
D03*
X249374Y335793D02*
D03*
Y330293D02*
D03*
X300168Y233837D02*
D03*
X170684Y98437D02*
D03*
X293226Y233837D02*
D03*
X286283D02*
D03*
X162308Y98641D02*
D03*
X242711Y16965D02*
D03*
Y22465D02*
D03*
X235417Y16965D02*
D03*
Y22465D02*
D03*
X286283Y222735D02*
D03*
Y217235D02*
D03*
X300339Y223207D02*
D03*
Y217707D02*
D03*
X105606Y22856D02*
D03*
Y28356D02*
D03*
X254591Y330293D02*
D03*
Y335793D02*
D03*
X170684Y114764D02*
D03*
Y109264D02*
D03*
X162308Y109467D02*
D03*
Y114967D02*
D03*
X307386Y217235D02*
D03*
Y222735D02*
D03*
X293226Y217235D02*
D03*
Y222735D02*
D03*
X41126Y326605D02*
D03*
Y332105D02*
D03*
X46475Y214848D02*
D03*
Y220348D02*
D03*
X46303Y331644D02*
D03*
Y337144D02*
D03*
X41259Y220348D02*
D03*
Y214848D02*
D03*
X105378Y328337D02*
D03*
Y333837D02*
D03*
X110023Y334282D02*
D03*
Y339782D02*
D03*
X156327Y340368D02*
D03*
Y334868D02*
D03*
X161820D02*
D03*
Y340368D02*
D03*
X307346Y233837D02*
D03*
X242798Y6502D02*
D03*
D127*
X105645Y17772D02*
D03*
X235505Y12002D02*
D03*
X309291Y185557D02*
D03*
X300168Y228337D02*
D03*
X170684Y103937D02*
D03*
X293226Y228337D02*
D03*
X286283D02*
D03*
X162308Y104141D02*
D03*
X307346Y228337D02*
D03*
X242798Y12002D02*
D03*
D128*
X217300Y159370D02*
D03*
X211732Y164938D02*
D03*
X206999Y160206D02*
D03*
X212428Y154499D02*
D03*
D129*
X261913Y210930D02*
D03*
X269787D02*
D03*
D130*
X200197Y230315D02*
D03*
X129626Y231004D02*
D03*
X200295Y277756D02*
D03*
X45177Y276481D02*
D03*
X46358Y233366D02*
D03*
X130905Y278740D02*
D03*
D131*
X191535Y230315D02*
D03*
X120965Y231004D02*
D03*
X191634Y277756D02*
D03*
X36516Y276481D02*
D03*
X37697Y233366D02*
D03*
X122244Y278740D02*
D03*
D132*
X225260Y332347D02*
D03*
X236283Y328607D02*
D03*
Y336087D02*
D03*
Y332347D02*
D03*
X225260Y336087D02*
D03*
Y328607D02*
D03*
X68803Y339827D02*
D03*
Y332347D02*
D03*
X57780Y336087D02*
D03*
Y332347D02*
D03*
Y339827D02*
D03*
X68803Y336087D02*
D03*
X17661Y210772D02*
D03*
Y218253D02*
D03*
X28685Y214512D02*
D03*
Y218253D02*
D03*
Y210772D02*
D03*
X17661Y214512D02*
D03*
X132346Y342509D02*
D03*
Y335028D02*
D03*
X121323Y338768D02*
D03*
Y335028D02*
D03*
Y342509D02*
D03*
X132346Y338768D02*
D03*
X185146Y342245D02*
D03*
Y334764D02*
D03*
X174123Y338505D02*
D03*
Y334764D02*
D03*
Y342245D02*
D03*
X185146Y338505D02*
D03*
D133*
X253212Y119394D02*
D03*
X260535D02*
D03*
X256756Y216323D02*
D03*
X249433D02*
D03*
X246087Y261245D02*
D03*
X238764D02*
D03*
D134*
X71421Y261776D02*
D03*
X73980D02*
D03*
X76539D02*
D03*
X79098D02*
D03*
X71421Y245831D02*
D03*
X73980D02*
D03*
X76539D02*
D03*
X79098D02*
D03*
D135*
X79665Y238347D02*
D03*
Y234606D02*
D03*
X66083Y238445D02*
D03*
Y234705D02*
D03*
X106933Y182446D02*
D03*
Y186186D02*
D03*
X120516Y182347D02*
D03*
Y186087D02*
D03*
D136*
X200909Y289925D02*
D03*
X197169D02*
D03*
X201008Y303507D02*
D03*
X197268D02*
D03*
X41535Y304926D02*
D03*
X45276D02*
D03*
X41437Y291343D02*
D03*
X45177D02*
D03*
X42913Y258381D02*
D03*
X46654D02*
D03*
X42815Y244799D02*
D03*
X46555D02*
D03*
X127362Y303902D02*
D03*
X131102D02*
D03*
X127264Y290319D02*
D03*
X131004D02*
D03*
X196260Y257103D02*
D03*
X200000D02*
D03*
X196161Y243520D02*
D03*
X199902D02*
D03*
X125909Y257859D02*
D03*
X129650D02*
D03*
X125811Y244276D02*
D03*
X129551D02*
D03*
D137*
X275299Y97544D02*
D03*
Y104867D02*
D03*
X216874Y82347D02*
D03*
Y89670D02*
D03*
X301559Y194867D02*
D03*
Y202190D02*
D03*
X209984Y183686D02*
D03*
Y176363D02*
D03*
D138*
X136795Y108804D02*
D03*
Y114316D02*
D03*
X111126Y114501D02*
D03*
Y108990D02*
D03*
X294827Y194434D02*
D03*
Y199945D02*
D03*
X254512Y239079D02*
D03*
Y233568D02*
D03*
X267858Y223016D02*
D03*
Y217505D02*
D03*
X275299Y222859D02*
D03*
Y217347D02*
D03*
X51992Y331875D02*
D03*
Y337386D02*
D03*
X77346Y339158D02*
D03*
Y333646D02*
D03*
X35294Y220151D02*
D03*
Y214639D02*
D03*
X115220Y334473D02*
D03*
Y339985D02*
D03*
X139748Y343804D02*
D03*
Y338292D02*
D03*
X167508Y334473D02*
D03*
Y339985D02*
D03*
X193370Y341717D02*
D03*
Y336205D02*
D03*
X166795Y296008D02*
D03*
Y301520D02*
D03*
X95378Y250182D02*
D03*
Y255694D02*
D03*
X97071Y296402D02*
D03*
Y301914D02*
D03*
X163877Y249422D02*
D03*
Y254934D02*
D03*
X11835Y297111D02*
D03*
Y302623D02*
D03*
X12701Y250733D02*
D03*
Y256245D02*
D03*
X243409Y335596D02*
D03*
Y330084D02*
D03*
X216677Y179079D02*
D03*
Y173567D02*
D03*
X59472Y234867D02*
D03*
Y240379D02*
D03*
X58134Y259512D02*
D03*
Y254001D02*
D03*
D139*
X208189Y150048D02*
D03*
X203039Y155198D02*
D03*
D140*
X207126Y168623D02*
D03*
X201976Y163473D02*
D03*
D141*
X173917Y138883D02*
D03*
D142*
Y147544D02*
D03*
D143*
X33838Y304367D02*
D03*
Y301808D02*
D03*
Y299249D02*
D03*
Y296690D02*
D03*
X17894Y304367D02*
D03*
Y301808D02*
D03*
Y299249D02*
D03*
Y296690D02*
D03*
X35461Y250312D02*
D03*
Y257989D02*
D03*
Y255430D02*
D03*
Y252871D02*
D03*
X19516Y257989D02*
D03*
Y255430D02*
D03*
Y252871D02*
D03*
Y250312D02*
D03*
X103957Y295784D02*
D03*
Y298343D02*
D03*
Y300902D02*
D03*
Y303461D02*
D03*
X119902Y295784D02*
D03*
Y298343D02*
D03*
Y300902D02*
D03*
Y303461D02*
D03*
X118366Y257438D02*
D03*
Y254878D02*
D03*
Y252320D02*
D03*
Y249760D02*
D03*
X102421Y257438D02*
D03*
Y254878D02*
D03*
Y252320D02*
D03*
Y249760D02*
D03*
X189630Y303253D02*
D03*
Y300693D02*
D03*
Y298134D02*
D03*
Y295575D02*
D03*
X173685Y303253D02*
D03*
Y300693D02*
D03*
Y298134D02*
D03*
Y295575D02*
D03*
X188764Y256678D02*
D03*
Y254119D02*
D03*
Y251560D02*
D03*
Y249001D02*
D03*
X172819Y256678D02*
D03*
Y254119D02*
D03*
Y251560D02*
D03*
Y249001D02*
D03*
D171*
X227642Y190221D02*
D03*
Y188253D02*
D03*
Y186284D02*
D03*
Y184316D02*
D03*
Y182347D02*
D03*
Y180378D02*
D03*
Y178410D02*
D03*
Y176442D02*
D03*
Y174473D02*
D03*
Y172504D02*
D03*
Y170536D02*
D03*
Y168568D02*
D03*
Y166599D02*
D03*
Y164630D02*
D03*
Y162662D02*
D03*
Y160694D02*
D03*
Y158725D02*
D03*
Y156756D02*
D03*
Y154788D02*
D03*
Y152820D02*
D03*
Y150851D02*
D03*
Y148882D02*
D03*
Y146914D02*
D03*
Y144946D02*
D03*
Y142977D02*
D03*
X287287D02*
D03*
Y144946D02*
D03*
Y146914D02*
D03*
Y148882D02*
D03*
Y150851D02*
D03*
Y152820D02*
D03*
Y154788D02*
D03*
Y156756D02*
D03*
Y158725D02*
D03*
Y160694D02*
D03*
Y162662D02*
D03*
Y164630D02*
D03*
Y166599D02*
D03*
Y168568D02*
D03*
Y170536D02*
D03*
Y172504D02*
D03*
Y174473D02*
D03*
Y176442D02*
D03*
Y178410D02*
D03*
Y180378D02*
D03*
Y182347D02*
D03*
Y184316D02*
D03*
Y186284D02*
D03*
Y188253D02*
D03*
Y190221D02*
D03*
D172*
X233842Y136776D02*
D03*
X235811D02*
D03*
X237779D02*
D03*
X239748D02*
D03*
X241716D02*
D03*
X243685D02*
D03*
X245654D02*
D03*
X247622D02*
D03*
X249590D02*
D03*
X251559D02*
D03*
X253527D02*
D03*
X255496D02*
D03*
X257465D02*
D03*
X259433D02*
D03*
X261402D02*
D03*
X263370D02*
D03*
X265338D02*
D03*
X267307D02*
D03*
X269275D02*
D03*
X271244D02*
D03*
X273213D02*
D03*
X275181D02*
D03*
X277150D02*
D03*
X279118D02*
D03*
X281086D02*
D03*
Y196422D02*
D03*
X279118D02*
D03*
X277150D02*
D03*
X275181D02*
D03*
X273213D02*
D03*
X271244D02*
D03*
X269275D02*
D03*
X267307D02*
D03*
X265338D02*
D03*
X263370D02*
D03*
X261402D02*
D03*
X259433D02*
D03*
X257465D02*
D03*
X255496D02*
D03*
X253527D02*
D03*
X251559D02*
D03*
X249590D02*
D03*
X247622D02*
D03*
X245654D02*
D03*
X243685D02*
D03*
X241716D02*
D03*
X239748D02*
D03*
X237779D02*
D03*
X235811D02*
D03*
X233842D02*
D03*
M02*
