G04*
G04 #@! TF.GenerationSoftware,Altium Limited,Altium Designer,23.0.1 (38)*
G04*
G04 Layer_Color=16711935*
%FSLAX25Y25*%
%MOIN*%
G70*
G04*
G04 #@! TF.SameCoordinates,CCA4EEAC-205A-4764-8855-BE0F0513998D*
G04*
G04*
G04 #@! TF.FilePolarity,Negative*
G04*
G01*
G75*
%ADD10C,0.01000*%
%ADD60R,0.10061X0.04156*%
%ADD73R,0.05731X0.10061*%
%ADD76R,0.07400X0.06124*%
%ADD77R,0.05534X0.06124*%
%ADD78R,0.07400X0.07400*%
%ADD79R,0.06124X0.05534*%
%ADD80R,0.04943X0.04943*%
%ADD81R,0.10061X0.05731*%
%ADD82R,0.11243X0.08093*%
%ADD85R,0.04156X0.10061*%
%ADD87R,0.06124X0.07400*%
%ADD88R,0.04550X0.04550*%
%ADD90C,0.09843*%
%ADD91C,0.09274*%
%ADD92C,0.08487*%
%ADD93C,0.07306*%
%ADD94R,0.07306X0.07306*%
%ADD95C,0.25022*%
%ADD96C,0.08400*%
%ADD97R,0.08400X0.08400*%
%ADD98R,0.08400X0.08400*%
%ADD99C,0.03762*%
%ADD100C,0.06400*%
%ADD146P,0.07548X4X180.0*%
%ADD147R,0.07502X0.02581*%
%ADD148R,0.13998X0.10849*%
%ADD149R,0.04943X0.02187*%
%ADD150R,0.06400X0.03400*%
%ADD151O,0.03762X0.10061*%
%ADD152R,0.02874X0.03937*%
%ADD153R,0.02874X0.03898*%
%ADD154O,0.01581X0.07290*%
%ADD155O,0.07290X0.01581*%
%ADD156R,0.03172X0.07306*%
%ADD157R,0.05534X0.04550*%
%ADD158R,0.06124X0.06124*%
%ADD159R,0.05337X0.06518*%
%ADD160R,0.03644X0.07306*%
%ADD161R,0.04550X0.04550*%
%ADD162R,0.04400X0.04400*%
%ADD163R,0.06124X0.06124*%
%ADD164R,0.04943X0.04943*%
G04:AMPARAMS|DCode=165|XSize=55.34mil|YSize=61.24mil|CornerRadius=0mil|HoleSize=0mil|Usage=FLASHONLY|Rotation=135.000|XOffset=0mil|YOffset=0mil|HoleType=Round|Shape=Rectangle|*
%AMROTATEDRECTD165*
4,1,4,0.04122,0.00209,-0.00209,-0.04122,-0.04122,-0.00209,0.00209,0.04122,0.04122,0.00209,0.0*
%
%ADD165ROTATEDRECTD165*%

G04:AMPARAMS|DCode=166|XSize=55.34mil|YSize=61.24mil|CornerRadius=0mil|HoleSize=0mil|Usage=FLASHONLY|Rotation=225.000|XOffset=0mil|YOffset=0mil|HoleType=Round|Shape=Rectangle|*
%AMROTATEDRECTD166*
4,1,4,-0.00209,0.04122,0.04122,-0.00209,0.00209,-0.04122,-0.04122,0.00209,-0.00209,0.04122,0.0*
%
%ADD166ROTATEDRECTD166*%

%ADD167R,0.03937X0.02874*%
%ADD168R,0.03898X0.02874*%
%ADD169R,0.07306X0.03644*%
%ADD170R,0.07306X0.03172*%
G36*
X681746Y-138578D02*
X681814D01*
X681977Y-138598D01*
X682169Y-138626D01*
X682381Y-138665D01*
X682592Y-138723D01*
X682794Y-138799D01*
X682804D01*
X682813Y-138809D01*
X682842Y-138819D01*
X682880Y-138838D01*
X682977Y-138895D01*
X683102Y-138963D01*
X683236Y-139059D01*
X683371Y-139174D01*
X683505Y-139309D01*
X683620Y-139462D01*
X683630Y-139482D01*
X683669Y-139539D01*
X683716Y-139635D01*
X683765Y-139751D01*
X683822Y-139895D01*
X683880Y-140068D01*
X683918Y-140251D01*
X683938Y-140452D01*
X683140Y-140510D01*
Y-140500D01*
Y-140481D01*
X683130Y-140452D01*
X683121Y-140414D01*
X683102Y-140308D01*
X683063Y-140174D01*
X683005Y-140029D01*
X682929Y-139885D01*
X682823Y-139741D01*
X682698Y-139616D01*
X682679Y-139607D01*
X682631Y-139568D01*
X682544Y-139520D01*
X682429Y-139462D01*
X682275Y-139405D01*
X682083Y-139357D01*
X681862Y-139318D01*
X681602Y-139309D01*
X681477D01*
X681420Y-139318D01*
X681343D01*
X681180Y-139347D01*
X680997Y-139376D01*
X680814Y-139424D01*
X680641Y-139491D01*
X680564Y-139539D01*
X680497Y-139587D01*
X680488Y-139597D01*
X680449Y-139635D01*
X680392Y-139693D01*
X680334Y-139780D01*
X680267Y-139876D01*
X680219Y-139991D01*
X680180Y-140116D01*
X680161Y-140260D01*
Y-140279D01*
Y-140318D01*
X680170Y-140385D01*
X680190Y-140462D01*
X680219Y-140548D01*
X680267Y-140645D01*
X680324Y-140731D01*
X680401Y-140817D01*
X680411Y-140827D01*
X680459Y-140856D01*
X680488Y-140875D01*
X680526Y-140904D01*
X680584Y-140923D01*
X680651Y-140952D01*
X680728Y-140990D01*
X680814Y-141029D01*
X680910Y-141058D01*
X681026Y-141096D01*
X681160Y-141144D01*
X681304Y-141183D01*
X681468Y-141221D01*
X681650Y-141269D01*
X681660D01*
X681698Y-141279D01*
X681746Y-141288D01*
X681814Y-141308D01*
X681900Y-141327D01*
X681996Y-141356D01*
X682208Y-141404D01*
X682438Y-141471D01*
X682669Y-141538D01*
X682784Y-141567D01*
X682880Y-141605D01*
X682977Y-141644D01*
X683053Y-141673D01*
X683063D01*
X683082Y-141682D01*
X683102Y-141702D01*
X683140Y-141721D01*
X683236Y-141779D01*
X683361Y-141846D01*
X683496Y-141942D01*
X683630Y-142057D01*
X683755Y-142182D01*
X683861Y-142317D01*
X683870Y-142336D01*
X683899Y-142384D01*
X683947Y-142461D01*
X683995Y-142576D01*
X684043Y-142701D01*
X684091Y-142855D01*
X684120Y-143028D01*
X684130Y-143210D01*
Y-143220D01*
Y-143230D01*
Y-143258D01*
Y-143297D01*
X684110Y-143393D01*
X684091Y-143518D01*
X684062Y-143662D01*
X684005Y-143825D01*
X683938Y-143998D01*
X683842Y-144162D01*
X683832Y-144181D01*
X683784Y-144239D01*
X683726Y-144316D01*
X683630Y-144412D01*
X683515Y-144527D01*
X683371Y-144642D01*
X683198Y-144748D01*
X683005Y-144854D01*
X682996D01*
X682977Y-144863D01*
X682948Y-144873D01*
X682909Y-144892D01*
X682861Y-144911D01*
X682804Y-144931D01*
X682650Y-144969D01*
X682477Y-145017D01*
X682265Y-145055D01*
X682044Y-145084D01*
X681795Y-145094D01*
X681650D01*
X681583Y-145084D01*
X681497D01*
X681400Y-145075D01*
X681295Y-145065D01*
X681074Y-145036D01*
X680833Y-144988D01*
X680593Y-144931D01*
X680363Y-144854D01*
X680353D01*
X680334Y-144844D01*
X680305Y-144825D01*
X680267Y-144806D01*
X680161Y-144748D01*
X680036Y-144661D01*
X679882Y-144556D01*
X679738Y-144431D01*
X679584Y-144277D01*
X679450Y-144104D01*
Y-144095D01*
X679440Y-144085D01*
X679421Y-144056D01*
X679402Y-144018D01*
X679373Y-143970D01*
X679344Y-143912D01*
X679286Y-143768D01*
X679229Y-143604D01*
X679171Y-143403D01*
X679133Y-143191D01*
X679113Y-142961D01*
X679901Y-142893D01*
Y-142903D01*
Y-142912D01*
X679911Y-142970D01*
X679930Y-143057D01*
X679949Y-143172D01*
X679988Y-143297D01*
X680026Y-143431D01*
X680084Y-143556D01*
X680151Y-143681D01*
X680161Y-143691D01*
X680190Y-143729D01*
X680238Y-143787D01*
X680315Y-143854D01*
X680401Y-143931D01*
X680507Y-144018D01*
X680641Y-144095D01*
X680786Y-144171D01*
X680795D01*
X680805Y-144181D01*
X680862Y-144200D01*
X680949Y-144229D01*
X681074Y-144258D01*
X681208Y-144296D01*
X681381Y-144325D01*
X681564Y-144344D01*
X681756Y-144354D01*
X681833D01*
X681929Y-144344D01*
X682035Y-144335D01*
X682169Y-144325D01*
X682304Y-144296D01*
X682448Y-144267D01*
X682592Y-144219D01*
X682611Y-144210D01*
X682650Y-144191D01*
X682717Y-144162D01*
X682794Y-144114D01*
X682890Y-144056D01*
X682977Y-143989D01*
X683063Y-143912D01*
X683140Y-143825D01*
X683149Y-143816D01*
X683169Y-143777D01*
X683198Y-143729D01*
X683236Y-143662D01*
X683265Y-143585D01*
X683294Y-143489D01*
X683313Y-143393D01*
X683322Y-143287D01*
Y-143278D01*
Y-143239D01*
X683313Y-143182D01*
X683303Y-143114D01*
X683284Y-143028D01*
X683246Y-142941D01*
X683207Y-142855D01*
X683149Y-142768D01*
X683140Y-142759D01*
X683121Y-142730D01*
X683073Y-142691D01*
X683015Y-142634D01*
X682938Y-142576D01*
X682842Y-142518D01*
X682717Y-142451D01*
X682583Y-142394D01*
X682573Y-142384D01*
X682535Y-142374D01*
X682458Y-142355D01*
X682410Y-142336D01*
X682352Y-142317D01*
X682275Y-142297D01*
X682198Y-142278D01*
X682102Y-142249D01*
X682006Y-142220D01*
X681891Y-142192D01*
X681756Y-142163D01*
X681612Y-142124D01*
X681458Y-142086D01*
X681449D01*
X681420Y-142076D01*
X681372Y-142067D01*
X681314Y-142048D01*
X681247Y-142028D01*
X681170Y-142009D01*
X680987Y-141961D01*
X680786Y-141894D01*
X680584Y-141826D01*
X680401Y-141759D01*
X680315Y-141730D01*
X680247Y-141692D01*
X680238D01*
X680228Y-141682D01*
X680170Y-141644D01*
X680094Y-141596D01*
X679997Y-141529D01*
X679882Y-141442D01*
X679776Y-141346D01*
X679671Y-141231D01*
X679575Y-141106D01*
X679565Y-141086D01*
X679536Y-141039D01*
X679507Y-140971D01*
X679469Y-140875D01*
X679421Y-140760D01*
X679392Y-140625D01*
X679363Y-140471D01*
X679354Y-140318D01*
Y-140308D01*
Y-140298D01*
Y-140270D01*
Y-140231D01*
X679373Y-140145D01*
X679392Y-140029D01*
X679421Y-139885D01*
X679469Y-139741D01*
X679536Y-139578D01*
X679623Y-139424D01*
Y-139414D01*
X679632Y-139405D01*
X679671Y-139357D01*
X679738Y-139280D01*
X679824Y-139184D01*
X679930Y-139088D01*
X680065Y-138982D01*
X680228Y-138876D01*
X680411Y-138790D01*
X680420D01*
X680430Y-138780D01*
X680459Y-138770D01*
X680507Y-138751D01*
X680555Y-138742D01*
X680613Y-138723D01*
X680747Y-138674D01*
X680920Y-138636D01*
X681112Y-138607D01*
X681333Y-138578D01*
X681564Y-138569D01*
X681679D01*
X681746Y-138578D01*
D02*
G37*
G36*
X695710Y-144988D02*
X694989D01*
Y-144421D01*
X694979Y-144431D01*
X694970Y-144450D01*
X694941Y-144479D01*
X694903Y-144527D01*
X694864Y-144575D01*
X694806Y-144633D01*
X694739Y-144690D01*
X694662Y-144758D01*
X694576Y-144815D01*
X694480Y-144883D01*
X694374Y-144940D01*
X694268Y-144988D01*
X694143Y-145036D01*
X694009Y-145065D01*
X693865Y-145084D01*
X693711Y-145094D01*
X693653D01*
X693615Y-145084D01*
X693509Y-145075D01*
X693384Y-145055D01*
X693221Y-145017D01*
X693057Y-144969D01*
X692875Y-144892D01*
X692702Y-144796D01*
X692692D01*
X692683Y-144786D01*
X692625Y-144738D01*
X692548Y-144671D01*
X692442Y-144575D01*
X692337Y-144460D01*
X692212Y-144316D01*
X692106Y-144152D01*
X692000Y-143960D01*
Y-143950D01*
X691991Y-143931D01*
X691981Y-143902D01*
X691962Y-143864D01*
X691943Y-143816D01*
X691924Y-143748D01*
X691875Y-143595D01*
X691827Y-143412D01*
X691789Y-143201D01*
X691760Y-142970D01*
X691750Y-142711D01*
Y-142701D01*
Y-142682D01*
Y-142643D01*
Y-142595D01*
X691760Y-142538D01*
Y-142461D01*
X691779Y-142297D01*
X691808Y-142105D01*
X691847Y-141903D01*
X691895Y-141682D01*
X691971Y-141471D01*
Y-141461D01*
X691981Y-141442D01*
X692000Y-141413D01*
X692020Y-141375D01*
X692068Y-141279D01*
X692144Y-141154D01*
X692241Y-141010D01*
X692356Y-140866D01*
X692490Y-140731D01*
X692654Y-140606D01*
X692663D01*
X692673Y-140596D01*
X692731Y-140558D01*
X692827Y-140510D01*
X692952Y-140452D01*
X693106Y-140404D01*
X693279Y-140356D01*
X693471Y-140318D01*
X693673Y-140308D01*
X693740D01*
X693817Y-140318D01*
X693922Y-140327D01*
X694028Y-140356D01*
X694153Y-140385D01*
X694278Y-140433D01*
X694403Y-140491D01*
X694422Y-140500D01*
X694460Y-140520D01*
X694518Y-140558D01*
X694595Y-140616D01*
X694672Y-140673D01*
X694768Y-140750D01*
X694854Y-140846D01*
X694931Y-140942D01*
Y-138674D01*
X695710D01*
Y-144988D01*
D02*
G37*
G36*
X703657Y-140318D02*
X703763Y-140337D01*
X703878Y-140375D01*
X704013Y-140414D01*
X704157Y-140481D01*
X704311Y-140568D01*
X704032Y-141279D01*
X704023Y-141269D01*
X703984Y-141250D01*
X703926Y-141221D01*
X703859Y-141192D01*
X703773Y-141163D01*
X703677Y-141135D01*
X703571Y-141115D01*
X703465Y-141106D01*
X703427D01*
X703379Y-141115D01*
X703311Y-141125D01*
X703244Y-141144D01*
X703167Y-141173D01*
X703090Y-141211D01*
X703013Y-141260D01*
X703004Y-141269D01*
X702985Y-141288D01*
X702946Y-141327D01*
X702908Y-141375D01*
X702860Y-141432D01*
X702812Y-141509D01*
X702773Y-141596D01*
X702735Y-141692D01*
X702725Y-141711D01*
X702715Y-141759D01*
X702696Y-141846D01*
X702677Y-141961D01*
X702648Y-142096D01*
X702629Y-142249D01*
X702619Y-142413D01*
X702610Y-142595D01*
Y-144988D01*
X701831D01*
Y-140414D01*
X702533D01*
Y-141096D01*
X702542Y-141086D01*
X702581Y-141029D01*
X702629Y-140942D01*
X702687Y-140846D01*
X702764Y-140741D01*
X702850Y-140635D01*
X702927Y-140539D01*
X703013Y-140471D01*
X703023Y-140462D01*
X703052Y-140443D01*
X703100Y-140424D01*
X703167Y-140385D01*
X703234Y-140356D01*
X703321Y-140337D01*
X703417Y-140318D01*
X703513Y-140308D01*
X703580D01*
X703657Y-140318D01*
D02*
G37*
G36*
X674404D02*
X674462D01*
X674529Y-140327D01*
X674674Y-140356D01*
X674847Y-140404D01*
X675020Y-140471D01*
X675183Y-140568D01*
X675337Y-140692D01*
X675356Y-140712D01*
X675394Y-140760D01*
X675452Y-140856D01*
X675529Y-140981D01*
X675596Y-141144D01*
X675654Y-141336D01*
X675692Y-141577D01*
X675711Y-141711D01*
Y-141855D01*
Y-144988D01*
X674933D01*
Y-142115D01*
Y-142105D01*
Y-142096D01*
Y-142038D01*
Y-141951D01*
X674923Y-141855D01*
X674904Y-141634D01*
X674885Y-141529D01*
X674856Y-141442D01*
Y-141432D01*
X674837Y-141404D01*
X674818Y-141365D01*
X674789Y-141317D01*
X674750Y-141269D01*
X674702Y-141211D01*
X674645Y-141154D01*
X674577Y-141106D01*
X674568Y-141096D01*
X674539Y-141086D01*
X674501Y-141067D01*
X674452Y-141039D01*
X674385Y-141019D01*
X674299Y-141000D01*
X674212Y-140990D01*
X674116Y-140981D01*
X674039D01*
X673943Y-141000D01*
X673837Y-141019D01*
X673712Y-141058D01*
X673578Y-141115D01*
X673434Y-141202D01*
X673309Y-141308D01*
X673299Y-141327D01*
X673261Y-141365D01*
X673213Y-141442D01*
X673155Y-141557D01*
X673088Y-141702D01*
X673040Y-141875D01*
X673001Y-142086D01*
X672992Y-142336D01*
Y-144988D01*
X672213D01*
Y-142019D01*
Y-142009D01*
Y-141999D01*
Y-141971D01*
Y-141932D01*
X672204Y-141836D01*
X672194Y-141730D01*
X672165Y-141596D01*
X672136Y-141471D01*
X672088Y-141346D01*
X672021Y-141240D01*
X672012Y-141231D01*
X671983Y-141202D01*
X671944Y-141154D01*
X671877Y-141106D01*
X671791Y-141067D01*
X671685Y-141019D01*
X671560Y-140990D01*
X671406Y-140981D01*
X671348D01*
X671291Y-140990D01*
X671204Y-141000D01*
X671118Y-141019D01*
X671012Y-141058D01*
X670906Y-141096D01*
X670801Y-141154D01*
X670791Y-141163D01*
X670753Y-141183D01*
X670705Y-141231D01*
X670647Y-141279D01*
X670580Y-141356D01*
X670512Y-141442D01*
X670455Y-141548D01*
X670397Y-141663D01*
X670388Y-141682D01*
X670378Y-141721D01*
X670359Y-141798D01*
X670339Y-141903D01*
X670311Y-142038D01*
X670291Y-142201D01*
X670282Y-142394D01*
X670272Y-142614D01*
Y-144988D01*
X669494D01*
Y-140414D01*
X670186D01*
Y-141058D01*
X670195Y-141039D01*
X670224Y-141000D01*
X670272Y-140942D01*
X670339Y-140866D01*
X670416Y-140779D01*
X670512Y-140692D01*
X670628Y-140596D01*
X670753Y-140520D01*
X670772Y-140510D01*
X670820Y-140491D01*
X670897Y-140452D01*
X670993Y-140414D01*
X671118Y-140375D01*
X671252Y-140337D01*
X671416Y-140318D01*
X671579Y-140308D01*
X671666D01*
X671762Y-140318D01*
X671877Y-140337D01*
X672002Y-140356D01*
X672146Y-140395D01*
X672281Y-140452D01*
X672406Y-140520D01*
X672425Y-140529D01*
X672463Y-140558D01*
X672521Y-140606D01*
X672588Y-140673D01*
X672665Y-140760D01*
X672742Y-140856D01*
X672809Y-140981D01*
X672867Y-141115D01*
X672877Y-141106D01*
X672896Y-141077D01*
X672925Y-141039D01*
X672963Y-140990D01*
X673021Y-140923D01*
X673088Y-140856D01*
X673165Y-140789D01*
X673251Y-140712D01*
X673347Y-140635D01*
X673453Y-140568D01*
X673703Y-140433D01*
X673837Y-140385D01*
X673982Y-140347D01*
X674126Y-140318D01*
X674289Y-140308D01*
X674356D01*
X674404Y-140318D01*
D02*
G37*
G36*
X690837Y-144988D02*
X690059D01*
Y-138674D01*
X690837D01*
Y-144988D01*
D02*
G37*
G36*
X651523Y-138684D02*
X651590D01*
X651754Y-138694D01*
X651936Y-138723D01*
X652129Y-138751D01*
X652321Y-138799D01*
X652494Y-138867D01*
X652503D01*
X652513Y-138876D01*
X652570Y-138905D01*
X652647Y-138953D01*
X652743Y-139011D01*
X652859Y-139097D01*
X652974Y-139203D01*
X653080Y-139318D01*
X653186Y-139462D01*
X653195Y-139482D01*
X653224Y-139530D01*
X653262Y-139616D01*
X653310Y-139722D01*
X653359Y-139847D01*
X653397Y-139981D01*
X653426Y-140135D01*
X653435Y-140298D01*
Y-140318D01*
Y-140366D01*
X653426Y-140443D01*
X653407Y-140548D01*
X653378Y-140664D01*
X653339Y-140789D01*
X653291Y-140933D01*
X653214Y-141067D01*
X653205Y-141086D01*
X653176Y-141125D01*
X653118Y-141192D01*
X653051Y-141269D01*
X652955Y-141365D01*
X652840Y-141452D01*
X652705Y-141548D01*
X652542Y-141634D01*
X652551D01*
X652570Y-141644D01*
X652599Y-141654D01*
X652638Y-141663D01*
X652743Y-141711D01*
X652868Y-141769D01*
X653013Y-141855D01*
X653157Y-141951D01*
X653301Y-142067D01*
X653426Y-142211D01*
X653435Y-142230D01*
X653474Y-142278D01*
X653522Y-142365D01*
X653589Y-142480D01*
X653647Y-142624D01*
X653695Y-142778D01*
X653733Y-142961D01*
X653743Y-143162D01*
Y-143182D01*
Y-143239D01*
X653733Y-143326D01*
X653724Y-143431D01*
X653695Y-143556D01*
X653666Y-143701D01*
X653618Y-143845D01*
X653551Y-143989D01*
X653541Y-144008D01*
X653522Y-144056D01*
X653474Y-144123D01*
X653426Y-144210D01*
X653359Y-144306D01*
X653282Y-144402D01*
X653186Y-144498D01*
X653090Y-144585D01*
X653080Y-144594D01*
X653041Y-144613D01*
X652984Y-144652D01*
X652897Y-144700D01*
X652801Y-144748D01*
X652676Y-144796D01*
X652542Y-144844D01*
X652397Y-144892D01*
X652378D01*
X652321Y-144911D01*
X652234Y-144921D01*
X652119Y-144940D01*
X651965Y-144959D01*
X651792Y-144969D01*
X651600Y-144988D01*
X648976D01*
Y-138674D01*
X651456D01*
X651523Y-138684D01*
D02*
G37*
G36*
X663055Y-140414D02*
X663833D01*
Y-141019D01*
X663055D01*
Y-143701D01*
Y-143710D01*
Y-143748D01*
Y-143806D01*
X663065Y-143873D01*
X663074Y-144018D01*
X663084Y-144075D01*
X663094Y-144123D01*
X663103Y-144142D01*
X663122Y-144181D01*
X663161Y-144229D01*
X663218Y-144277D01*
X663238Y-144287D01*
X663286Y-144296D01*
X663372Y-144316D01*
X663487Y-144325D01*
X663584D01*
X663632Y-144316D01*
X663689D01*
X663833Y-144296D01*
X663939Y-144979D01*
X663920D01*
X663881Y-144988D01*
X663824Y-144998D01*
X663737Y-145007D01*
X663651Y-145027D01*
X663555Y-145036D01*
X663353Y-145046D01*
X663286D01*
X663209Y-145036D01*
X663113Y-145027D01*
X663007Y-145017D01*
X662892Y-144988D01*
X662786Y-144959D01*
X662690Y-144921D01*
X662680Y-144911D01*
X662651Y-144892D01*
X662613Y-144863D01*
X662565Y-144825D01*
X662507Y-144777D01*
X662459Y-144719D01*
X662402Y-144652D01*
X662363Y-144575D01*
Y-144565D01*
X662354Y-144527D01*
X662334Y-144469D01*
X662325Y-144373D01*
X662305Y-144248D01*
X662296Y-144181D01*
X662286Y-144095D01*
Y-143998D01*
X662277Y-143893D01*
Y-143777D01*
Y-143652D01*
Y-141019D01*
X661700D01*
Y-140414D01*
X662277D01*
Y-139289D01*
X663055Y-138819D01*
Y-140414D01*
D02*
G37*
G36*
X660604D02*
X661383D01*
Y-141019D01*
X660604D01*
Y-143701D01*
Y-143710D01*
Y-143748D01*
Y-143806D01*
X660614Y-143873D01*
X660624Y-144018D01*
X660633Y-144075D01*
X660643Y-144123D01*
X660652Y-144142D01*
X660672Y-144181D01*
X660710Y-144229D01*
X660768Y-144277D01*
X660787Y-144287D01*
X660835Y-144296D01*
X660922Y-144316D01*
X661037Y-144325D01*
X661133D01*
X661181Y-144316D01*
X661239D01*
X661383Y-144296D01*
X661489Y-144979D01*
X661469D01*
X661431Y-144988D01*
X661373Y-144998D01*
X661287Y-145007D01*
X661200Y-145027D01*
X661104Y-145036D01*
X660902Y-145046D01*
X660835D01*
X660758Y-145036D01*
X660662Y-145027D01*
X660556Y-145017D01*
X660441Y-144988D01*
X660335Y-144959D01*
X660239Y-144921D01*
X660230Y-144911D01*
X660201Y-144892D01*
X660162Y-144863D01*
X660114Y-144825D01*
X660057Y-144777D01*
X660009Y-144719D01*
X659951Y-144652D01*
X659913Y-144575D01*
Y-144565D01*
X659903Y-144527D01*
X659884Y-144469D01*
X659874Y-144373D01*
X659855Y-144248D01*
X659845Y-144181D01*
X659836Y-144095D01*
Y-143998D01*
X659826Y-143893D01*
Y-143777D01*
Y-143652D01*
Y-141019D01*
X659249D01*
Y-140414D01*
X659826D01*
Y-139289D01*
X660604Y-138819D01*
Y-140414D01*
D02*
G37*
G36*
X698958Y-140318D02*
X699035Y-140327D01*
X699131Y-140337D01*
X699227Y-140356D01*
X699342Y-140385D01*
X699573Y-140462D01*
X699698Y-140510D01*
X699823Y-140577D01*
X699948Y-140645D01*
X700073Y-140731D01*
X700188Y-140827D01*
X700303Y-140942D01*
X700313Y-140952D01*
X700332Y-140971D01*
X700361Y-141010D01*
X700399Y-141058D01*
X700438Y-141125D01*
X700486Y-141202D01*
X700544Y-141288D01*
X700601Y-141394D01*
X700649Y-141519D01*
X700707Y-141644D01*
X700755Y-141788D01*
X700803Y-141951D01*
X700832Y-142115D01*
X700861Y-142297D01*
X700880Y-142490D01*
X700890Y-142701D01*
Y-142711D01*
Y-142749D01*
Y-142816D01*
X700880Y-142903D01*
X697478D01*
Y-142912D01*
Y-142932D01*
X697488Y-142980D01*
Y-143028D01*
X697497Y-143095D01*
X697507Y-143162D01*
X697545Y-143335D01*
X697603Y-143518D01*
X697670Y-143710D01*
X697776Y-143902D01*
X697901Y-144066D01*
X697920Y-144085D01*
X697968Y-144123D01*
X698055Y-144191D01*
X698160Y-144258D01*
X698305Y-144335D01*
X698468Y-144402D01*
X698651Y-144440D01*
X698852Y-144460D01*
X698929D01*
X699006Y-144450D01*
X699102Y-144431D01*
X699218Y-144402D01*
X699342Y-144364D01*
X699467Y-144316D01*
X699583Y-144239D01*
X699592Y-144229D01*
X699631Y-144191D01*
X699688Y-144142D01*
X699756Y-144056D01*
X699832Y-143960D01*
X699909Y-143835D01*
X699986Y-143681D01*
X700063Y-143508D01*
X700861Y-143614D01*
Y-143624D01*
X700851Y-143643D01*
X700842Y-143681D01*
X700822Y-143729D01*
X700803Y-143787D01*
X700774Y-143854D01*
X700697Y-144018D01*
X700601Y-144191D01*
X700486Y-144373D01*
X700332Y-144556D01*
X700159Y-144710D01*
X700150D01*
X700140Y-144729D01*
X700111Y-144748D01*
X700063Y-144767D01*
X700015Y-144796D01*
X699957Y-144834D01*
X699890Y-144863D01*
X699804Y-144902D01*
X699621Y-144969D01*
X699390Y-145036D01*
X699141Y-145075D01*
X698852Y-145094D01*
X698756D01*
X698689Y-145084D01*
X698602Y-145075D01*
X698506Y-145065D01*
X698401Y-145046D01*
X698276Y-145017D01*
X698026Y-144940D01*
X697891Y-144892D01*
X697766Y-144834D01*
X697632Y-144767D01*
X697507Y-144681D01*
X697382Y-144585D01*
X697267Y-144479D01*
X697257Y-144469D01*
X697238Y-144450D01*
X697209Y-144412D01*
X697180Y-144364D01*
X697132Y-144306D01*
X697084Y-144229D01*
X697026Y-144133D01*
X696978Y-144027D01*
X696921Y-143912D01*
X696863Y-143787D01*
X696815Y-143643D01*
X696776Y-143489D01*
X696738Y-143326D01*
X696709Y-143143D01*
X696690Y-142951D01*
X696680Y-142749D01*
Y-142739D01*
Y-142701D01*
Y-142634D01*
X696690Y-142557D01*
X696700Y-142461D01*
X696709Y-142345D01*
X696729Y-142220D01*
X696757Y-142086D01*
X696825Y-141798D01*
X696873Y-141654D01*
X696930Y-141500D01*
X696997Y-141356D01*
X697074Y-141211D01*
X697161Y-141077D01*
X697267Y-140952D01*
X697276Y-140942D01*
X697296Y-140923D01*
X697324Y-140894D01*
X697372Y-140846D01*
X697430Y-140798D01*
X697507Y-140750D01*
X697584Y-140692D01*
X697680Y-140625D01*
X697786Y-140568D01*
X697901Y-140510D01*
X698026Y-140462D01*
X698170Y-140404D01*
X698314Y-140366D01*
X698468Y-140337D01*
X698631Y-140318D01*
X698804Y-140308D01*
X698891D01*
X698958Y-140318D01*
D02*
G37*
G36*
X687176D02*
X687263Y-140327D01*
X687349Y-140337D01*
X687455Y-140356D01*
X687570Y-140385D01*
X687810Y-140462D01*
X687935Y-140510D01*
X688070Y-140568D01*
X688195Y-140645D01*
X688320Y-140731D01*
X688445Y-140827D01*
X688560Y-140933D01*
X688570Y-140942D01*
X688589Y-140962D01*
X688618Y-141000D01*
X688656Y-141048D01*
X688704Y-141106D01*
X688752Y-141183D01*
X688810Y-141279D01*
X688868Y-141375D01*
X688915Y-141490D01*
X688973Y-141625D01*
X689021Y-141759D01*
X689069Y-141913D01*
X689108Y-142076D01*
X689137Y-142259D01*
X689156Y-142442D01*
X689165Y-142643D01*
Y-142653D01*
Y-142682D01*
Y-142730D01*
Y-142788D01*
X689156Y-142864D01*
Y-142951D01*
X689146Y-143047D01*
X689137Y-143153D01*
X689098Y-143374D01*
X689050Y-143604D01*
X688983Y-143835D01*
X688896Y-144037D01*
Y-144046D01*
X688887Y-144056D01*
X688848Y-144123D01*
X688781Y-144210D01*
X688694Y-144325D01*
X688589Y-144450D01*
X688454Y-144575D01*
X688301Y-144700D01*
X688118Y-144815D01*
X688108D01*
X688099Y-144825D01*
X688070Y-144844D01*
X688031Y-144854D01*
X687926Y-144902D01*
X687791Y-144950D01*
X687628Y-145007D01*
X687445Y-145046D01*
X687243Y-145084D01*
X687022Y-145094D01*
X686926D01*
X686859Y-145084D01*
X686782Y-145075D01*
X686686Y-145065D01*
X686580Y-145046D01*
X686465Y-145017D01*
X686225Y-144940D01*
X686090Y-144892D01*
X685965Y-144834D01*
X685831Y-144767D01*
X685706Y-144681D01*
X685581Y-144585D01*
X685465Y-144479D01*
X685456Y-144469D01*
X685437Y-144450D01*
X685408Y-144412D01*
X685379Y-144364D01*
X685331Y-144296D01*
X685283Y-144219D01*
X685225Y-144133D01*
X685177Y-144027D01*
X685120Y-143902D01*
X685062Y-143777D01*
X685014Y-143624D01*
X684975Y-143470D01*
X684937Y-143297D01*
X684908Y-143114D01*
X684889Y-142912D01*
X684879Y-142701D01*
Y-142682D01*
Y-142643D01*
X684889Y-142576D01*
Y-142490D01*
X684899Y-142384D01*
X684918Y-142269D01*
X684937Y-142134D01*
X684966Y-141990D01*
X685004Y-141836D01*
X685052Y-141682D01*
X685110Y-141529D01*
X685177Y-141375D01*
X685254Y-141221D01*
X685350Y-141077D01*
X685456Y-140942D01*
X685581Y-140817D01*
X685591Y-140808D01*
X685610Y-140798D01*
X685639Y-140769D01*
X685687Y-140741D01*
X685744Y-140702D01*
X685812Y-140654D01*
X685888Y-140606D01*
X685985Y-140558D01*
X686081Y-140520D01*
X686186Y-140471D01*
X686436Y-140385D01*
X686715Y-140327D01*
X686869Y-140318D01*
X687022Y-140308D01*
X687109D01*
X687176Y-140318D01*
D02*
G37*
G36*
X666601D02*
X666688Y-140327D01*
X666774Y-140337D01*
X666880Y-140356D01*
X666995Y-140385D01*
X667235Y-140462D01*
X667360Y-140510D01*
X667495Y-140568D01*
X667620Y-140645D01*
X667745Y-140731D01*
X667870Y-140827D01*
X667985Y-140933D01*
X667995Y-140942D01*
X668014Y-140962D01*
X668043Y-141000D01*
X668081Y-141048D01*
X668129Y-141106D01*
X668177Y-141183D01*
X668235Y-141279D01*
X668293Y-141375D01*
X668340Y-141490D01*
X668398Y-141625D01*
X668446Y-141759D01*
X668494Y-141913D01*
X668533Y-142076D01*
X668562Y-142259D01*
X668581Y-142442D01*
X668590Y-142643D01*
Y-142653D01*
Y-142682D01*
Y-142730D01*
Y-142788D01*
X668581Y-142864D01*
Y-142951D01*
X668571Y-143047D01*
X668562Y-143153D01*
X668523Y-143374D01*
X668475Y-143604D01*
X668408Y-143835D01*
X668321Y-144037D01*
Y-144046D01*
X668312Y-144056D01*
X668273Y-144123D01*
X668206Y-144210D01*
X668119Y-144325D01*
X668014Y-144450D01*
X667879Y-144575D01*
X667726Y-144700D01*
X667543Y-144815D01*
X667533D01*
X667524Y-144825D01*
X667495Y-144844D01*
X667456Y-144854D01*
X667351Y-144902D01*
X667216Y-144950D01*
X667053Y-145007D01*
X666870Y-145046D01*
X666668Y-145084D01*
X666447Y-145094D01*
X666351D01*
X666284Y-145084D01*
X666207Y-145075D01*
X666111Y-145065D01*
X666005Y-145046D01*
X665890Y-145017D01*
X665650Y-144940D01*
X665515Y-144892D01*
X665390Y-144834D01*
X665256Y-144767D01*
X665131Y-144681D01*
X665006Y-144585D01*
X664890Y-144479D01*
X664881Y-144469D01*
X664862Y-144450D01*
X664833Y-144412D01*
X664804Y-144364D01*
X664756Y-144296D01*
X664708Y-144219D01*
X664650Y-144133D01*
X664602Y-144027D01*
X664545Y-143902D01*
X664487Y-143777D01*
X664439Y-143624D01*
X664400Y-143470D01*
X664362Y-143297D01*
X664333Y-143114D01*
X664314Y-142912D01*
X664304Y-142701D01*
Y-142682D01*
Y-142643D01*
X664314Y-142576D01*
Y-142490D01*
X664324Y-142384D01*
X664343Y-142269D01*
X664362Y-142134D01*
X664391Y-141990D01*
X664429Y-141836D01*
X664477Y-141682D01*
X664535Y-141529D01*
X664602Y-141375D01*
X664679Y-141221D01*
X664775Y-141077D01*
X664881Y-140942D01*
X665006Y-140817D01*
X665016Y-140808D01*
X665035Y-140798D01*
X665063Y-140769D01*
X665112Y-140741D01*
X665169Y-140702D01*
X665237Y-140654D01*
X665313Y-140606D01*
X665410Y-140558D01*
X665506Y-140520D01*
X665611Y-140471D01*
X665861Y-140385D01*
X666140Y-140327D01*
X666294Y-140318D01*
X666447Y-140308D01*
X666534D01*
X666601Y-140318D01*
D02*
G37*
G36*
X656799D02*
X656885Y-140327D01*
X656972Y-140337D01*
X657078Y-140356D01*
X657193Y-140385D01*
X657433Y-140462D01*
X657558Y-140510D01*
X657693Y-140568D01*
X657818Y-140645D01*
X657942Y-140731D01*
X658067Y-140827D01*
X658183Y-140933D01*
X658192Y-140942D01*
X658212Y-140962D01*
X658240Y-141000D01*
X658279Y-141048D01*
X658327Y-141106D01*
X658375Y-141183D01*
X658433Y-141279D01*
X658490Y-141375D01*
X658538Y-141490D01*
X658596Y-141625D01*
X658644Y-141759D01*
X658692Y-141913D01*
X658731Y-142076D01*
X658759Y-142259D01*
X658779Y-142442D01*
X658788Y-142643D01*
Y-142653D01*
Y-142682D01*
Y-142730D01*
Y-142788D01*
X658779Y-142864D01*
Y-142951D01*
X658769Y-143047D01*
X658759Y-143153D01*
X658721Y-143374D01*
X658673Y-143604D01*
X658606Y-143835D01*
X658519Y-144037D01*
Y-144046D01*
X658509Y-144056D01*
X658471Y-144123D01*
X658404Y-144210D01*
X658317Y-144325D01*
X658212Y-144450D01*
X658077Y-144575D01*
X657923Y-144700D01*
X657741Y-144815D01*
X657731D01*
X657722Y-144825D01*
X657693Y-144844D01*
X657654Y-144854D01*
X657549Y-144902D01*
X657414Y-144950D01*
X657251Y-145007D01*
X657068Y-145046D01*
X656866Y-145084D01*
X656645Y-145094D01*
X656549D01*
X656482Y-145084D01*
X656405Y-145075D01*
X656309Y-145065D01*
X656203Y-145046D01*
X656088Y-145017D01*
X655848Y-144940D01*
X655713Y-144892D01*
X655588Y-144834D01*
X655453Y-144767D01*
X655329Y-144681D01*
X655204Y-144585D01*
X655088Y-144479D01*
X655079Y-144469D01*
X655059Y-144450D01*
X655031Y-144412D01*
X655002Y-144364D01*
X654954Y-144296D01*
X654906Y-144219D01*
X654848Y-144133D01*
X654800Y-144027D01*
X654742Y-143902D01*
X654685Y-143777D01*
X654637Y-143624D01*
X654598Y-143470D01*
X654560Y-143297D01*
X654531Y-143114D01*
X654512Y-142912D01*
X654502Y-142701D01*
Y-142682D01*
Y-142643D01*
X654512Y-142576D01*
Y-142490D01*
X654521Y-142384D01*
X654541Y-142269D01*
X654560Y-142134D01*
X654589Y-141990D01*
X654627Y-141836D01*
X654675Y-141682D01*
X654733Y-141529D01*
X654800Y-141375D01*
X654877Y-141221D01*
X654973Y-141077D01*
X655079Y-140942D01*
X655204Y-140817D01*
X655213Y-140808D01*
X655232Y-140798D01*
X655261Y-140769D01*
X655309Y-140741D01*
X655367Y-140702D01*
X655434Y-140654D01*
X655511Y-140606D01*
X655607Y-140558D01*
X655703Y-140520D01*
X655809Y-140471D01*
X656059Y-140385D01*
X656338Y-140327D01*
X656491Y-140318D01*
X656645Y-140308D01*
X656732D01*
X656799Y-140318D01*
D02*
G37*
%LPC*%
G36*
X693846Y-140952D02*
X693701D01*
X693663Y-140962D01*
X693567Y-140971D01*
X693451Y-141000D01*
X693317Y-141058D01*
X693173Y-141135D01*
X693029Y-141231D01*
X692961Y-141298D01*
X692894Y-141375D01*
X692875Y-141394D01*
X692865Y-141423D01*
X692836Y-141452D01*
X692817Y-141500D01*
X692788Y-141557D01*
X692750Y-141625D01*
X692721Y-141702D01*
X692692Y-141788D01*
X692654Y-141884D01*
X692625Y-141999D01*
X692606Y-142115D01*
X692577Y-142249D01*
X692567Y-142394D01*
X692548Y-142547D01*
Y-142711D01*
Y-142720D01*
Y-142749D01*
Y-142797D01*
X692558Y-142855D01*
Y-142932D01*
X692567Y-143008D01*
X692596Y-143210D01*
X692635Y-143422D01*
X692702Y-143643D01*
X692788Y-143845D01*
X692846Y-143941D01*
X692913Y-144027D01*
X692933Y-144046D01*
X692981Y-144095D01*
X693057Y-144162D01*
X693163Y-144239D01*
X693288Y-144325D01*
X693432Y-144392D01*
X693605Y-144440D01*
X693692Y-144450D01*
X693788Y-144460D01*
X693836D01*
X693874Y-144450D01*
X693970Y-144440D01*
X694086Y-144412D01*
X694220Y-144354D01*
X694364Y-144287D01*
X694518Y-144181D01*
X694585Y-144123D01*
X694653Y-144046D01*
Y-144037D01*
X694672Y-144027D01*
X694682Y-143998D01*
X694710Y-143970D01*
X694739Y-143921D01*
X694768Y-143873D01*
X694797Y-143806D01*
X694835Y-143729D01*
X694864Y-143652D01*
X694893Y-143556D01*
X694922Y-143451D01*
X694951Y-143335D01*
X694979Y-143210D01*
X694989Y-143076D01*
X695008Y-142932D01*
Y-142778D01*
Y-142768D01*
Y-142739D01*
Y-142691D01*
X694999Y-142624D01*
Y-142547D01*
X694989Y-142461D01*
X694960Y-142249D01*
X694922Y-142028D01*
X694854Y-141798D01*
X694768Y-141577D01*
X694710Y-141481D01*
X694643Y-141394D01*
Y-141384D01*
X694624Y-141375D01*
X694576Y-141327D01*
X694499Y-141250D01*
X694393Y-141173D01*
X694268Y-141096D01*
X694114Y-141019D01*
X693942Y-140971D01*
X693846Y-140952D01*
D02*
G37*
G36*
X651302Y-139414D02*
X649812D01*
Y-141336D01*
X651360D01*
X651475Y-141327D01*
X651610Y-141317D01*
X651744Y-141308D01*
X651859Y-141288D01*
X651965Y-141269D01*
X651975Y-141260D01*
X652013Y-141250D01*
X652071Y-141231D01*
X652148Y-141192D01*
X652225Y-141154D01*
X652301Y-141096D01*
X652378Y-141029D01*
X652446Y-140952D01*
X652455Y-140942D01*
X652474Y-140914D01*
X652494Y-140866D01*
X652532Y-140798D01*
X652561Y-140721D01*
X652580Y-140625D01*
X652599Y-140520D01*
X652609Y-140395D01*
Y-140385D01*
Y-140337D01*
X652599Y-140279D01*
X652590Y-140202D01*
X652570Y-140116D01*
X652542Y-140029D01*
X652503Y-139933D01*
X652455Y-139837D01*
X652446Y-139828D01*
X652426Y-139799D01*
X652388Y-139760D01*
X652340Y-139703D01*
X652282Y-139655D01*
X652205Y-139597D01*
X652119Y-139549D01*
X652023Y-139511D01*
X652013D01*
X651965Y-139491D01*
X651898Y-139482D01*
X651802Y-139462D01*
X651667Y-139443D01*
X651504Y-139434D01*
X651302Y-139414D01*
D02*
G37*
G36*
X651475Y-142076D02*
X649812D01*
Y-144248D01*
X651600D01*
X651792Y-144239D01*
X651879Y-144229D01*
X651946Y-144219D01*
X651956D01*
X651994Y-144210D01*
X652052Y-144200D01*
X652119Y-144181D01*
X652273Y-144133D01*
X652426Y-144056D01*
X652436Y-144046D01*
X652465Y-144037D01*
X652494Y-144008D01*
X652542Y-143960D01*
X652599Y-143912D01*
X652647Y-143854D01*
X652705Y-143777D01*
X652753Y-143701D01*
X652763Y-143691D01*
X652772Y-143662D01*
X652792Y-143614D01*
X652820Y-143547D01*
X652840Y-143470D01*
X652859Y-143374D01*
X652868Y-143278D01*
X652878Y-143162D01*
Y-143143D01*
Y-143105D01*
X652868Y-143037D01*
X652859Y-142961D01*
X652830Y-142864D01*
X652801Y-142759D01*
X652753Y-142653D01*
X652686Y-142557D01*
X652676Y-142547D01*
X652657Y-142509D01*
X652609Y-142470D01*
X652551Y-142413D01*
X652484Y-142345D01*
X652397Y-142288D01*
X652301Y-142230D01*
X652186Y-142182D01*
X652167Y-142173D01*
X652129Y-142163D01*
X652052Y-142144D01*
X651956Y-142124D01*
X651821Y-142105D01*
X651667Y-142096D01*
X651475Y-142076D01*
D02*
G37*
G36*
X698814Y-140942D02*
X698766D01*
X698727Y-140952D01*
X698622Y-140962D01*
X698497Y-140990D01*
X698353Y-141029D01*
X698208Y-141096D01*
X698055Y-141183D01*
X697910Y-141308D01*
X697891Y-141327D01*
X697853Y-141375D01*
X697795Y-141452D01*
X697728Y-141567D01*
X697661Y-141702D01*
X697593Y-141865D01*
X697545Y-142057D01*
X697516Y-142269D01*
X700073D01*
Y-142259D01*
Y-142240D01*
X700063Y-142211D01*
Y-142173D01*
X700044Y-142067D01*
X700015Y-141942D01*
X699977Y-141807D01*
X699919Y-141663D01*
X699861Y-141519D01*
X699775Y-141404D01*
Y-141394D01*
X699756Y-141384D01*
X699708Y-141327D01*
X699621Y-141260D01*
X699515Y-141173D01*
X699371Y-141086D01*
X699208Y-141010D01*
X699025Y-140962D01*
X698919Y-140952D01*
X698814Y-140942D01*
D02*
G37*
G36*
X687128Y-140952D02*
X686965D01*
X686926Y-140962D01*
X686821Y-140971D01*
X686686Y-141010D01*
X686532Y-141058D01*
X686369Y-141135D01*
X686205Y-141250D01*
X686129Y-141317D01*
X686052Y-141394D01*
X686032Y-141413D01*
X686013Y-141442D01*
X685994Y-141471D01*
X685965Y-141519D01*
X685936Y-141577D01*
X685898Y-141644D01*
X685869Y-141721D01*
X685831Y-141807D01*
X685792Y-141903D01*
X685764Y-142009D01*
X685735Y-142134D01*
X685715Y-142259D01*
X685696Y-142403D01*
X685677Y-142547D01*
Y-142711D01*
Y-142720D01*
Y-142749D01*
Y-142797D01*
X685687Y-142855D01*
Y-142922D01*
X685696Y-143008D01*
X685725Y-143201D01*
X685773Y-143412D01*
X685831Y-143633D01*
X685927Y-143845D01*
X685985Y-143941D01*
X686052Y-144027D01*
X686071Y-144046D01*
X686119Y-144095D01*
X686205Y-144162D01*
X686321Y-144239D01*
X686455Y-144325D01*
X686628Y-144392D01*
X686811Y-144440D01*
X686917Y-144450D01*
X687022Y-144460D01*
X687080D01*
X687118Y-144450D01*
X687224Y-144440D01*
X687359Y-144402D01*
X687512Y-144354D01*
X687676Y-144277D01*
X687830Y-144171D01*
X687907Y-144104D01*
X687983Y-144027D01*
Y-144018D01*
X688003Y-144008D01*
X688022Y-143979D01*
X688041Y-143941D01*
X688070Y-143893D01*
X688108Y-143835D01*
X688137Y-143768D01*
X688176Y-143691D01*
X688214Y-143604D01*
X688243Y-143508D01*
X688281Y-143393D01*
X688310Y-143268D01*
X688329Y-143143D01*
X688348Y-142999D01*
X688368Y-142845D01*
Y-142682D01*
Y-142672D01*
Y-142643D01*
Y-142605D01*
X688358Y-142538D01*
Y-142470D01*
X688348Y-142394D01*
X688320Y-142201D01*
X688272Y-141999D01*
X688204Y-141779D01*
X688108Y-141577D01*
X687974Y-141394D01*
Y-141384D01*
X687955Y-141375D01*
X687907Y-141327D01*
X687820Y-141250D01*
X687714Y-141173D01*
X687570Y-141096D01*
X687407Y-141019D01*
X687224Y-140971D01*
X687128Y-140952D01*
D02*
G37*
G36*
X666553D02*
X666390D01*
X666351Y-140962D01*
X666246Y-140971D01*
X666111Y-141010D01*
X665957Y-141058D01*
X665794Y-141135D01*
X665630Y-141250D01*
X665554Y-141317D01*
X665477Y-141394D01*
X665457Y-141413D01*
X665438Y-141442D01*
X665419Y-141471D01*
X665390Y-141519D01*
X665361Y-141577D01*
X665323Y-141644D01*
X665294Y-141721D01*
X665256Y-141807D01*
X665217Y-141903D01*
X665189Y-142009D01*
X665160Y-142134D01*
X665140Y-142259D01*
X665121Y-142403D01*
X665102Y-142547D01*
Y-142711D01*
Y-142720D01*
Y-142749D01*
Y-142797D01*
X665112Y-142855D01*
Y-142922D01*
X665121Y-143008D01*
X665150Y-143201D01*
X665198Y-143412D01*
X665256Y-143633D01*
X665352Y-143845D01*
X665410Y-143941D01*
X665477Y-144027D01*
X665496Y-144046D01*
X665544Y-144095D01*
X665630Y-144162D01*
X665746Y-144239D01*
X665880Y-144325D01*
X666053Y-144392D01*
X666236Y-144440D01*
X666342Y-144450D01*
X666447Y-144460D01*
X666505D01*
X666543Y-144450D01*
X666649Y-144440D01*
X666784Y-144402D01*
X666937Y-144354D01*
X667101Y-144277D01*
X667255Y-144171D01*
X667332Y-144104D01*
X667408Y-144027D01*
Y-144018D01*
X667428Y-144008D01*
X667447Y-143979D01*
X667466Y-143941D01*
X667495Y-143893D01*
X667533Y-143835D01*
X667562Y-143768D01*
X667601Y-143691D01*
X667639Y-143604D01*
X667668Y-143508D01*
X667706Y-143393D01*
X667735Y-143268D01*
X667754Y-143143D01*
X667773Y-142999D01*
X667793Y-142845D01*
Y-142682D01*
Y-142672D01*
Y-142643D01*
Y-142605D01*
X667783Y-142538D01*
Y-142470D01*
X667773Y-142394D01*
X667745Y-142201D01*
X667697Y-141999D01*
X667629Y-141779D01*
X667533Y-141577D01*
X667399Y-141394D01*
Y-141384D01*
X667380Y-141375D01*
X667332Y-141327D01*
X667245Y-141250D01*
X667139Y-141173D01*
X666995Y-141096D01*
X666832Y-141019D01*
X666649Y-140971D01*
X666553Y-140952D01*
D02*
G37*
G36*
X656751D02*
X656588D01*
X656549Y-140962D01*
X656443Y-140971D01*
X656309Y-141010D01*
X656155Y-141058D01*
X655992Y-141135D01*
X655828Y-141250D01*
X655751Y-141317D01*
X655675Y-141394D01*
X655655Y-141413D01*
X655636Y-141442D01*
X655617Y-141471D01*
X655588Y-141519D01*
X655559Y-141577D01*
X655521Y-141644D01*
X655492Y-141721D01*
X655453Y-141807D01*
X655415Y-141903D01*
X655386Y-142009D01*
X655357Y-142134D01*
X655338Y-142259D01*
X655319Y-142403D01*
X655300Y-142547D01*
Y-142711D01*
Y-142720D01*
Y-142749D01*
Y-142797D01*
X655309Y-142855D01*
Y-142922D01*
X655319Y-143008D01*
X655348Y-143201D01*
X655396Y-143412D01*
X655453Y-143633D01*
X655550Y-143845D01*
X655607Y-143941D01*
X655675Y-144027D01*
X655694Y-144046D01*
X655742Y-144095D01*
X655828Y-144162D01*
X655944Y-144239D01*
X656078Y-144325D01*
X656251Y-144392D01*
X656434Y-144440D01*
X656539Y-144450D01*
X656645Y-144460D01*
X656703D01*
X656741Y-144450D01*
X656847Y-144440D01*
X656982Y-144402D01*
X657135Y-144354D01*
X657299Y-144277D01*
X657452Y-144171D01*
X657529Y-144104D01*
X657606Y-144027D01*
Y-144018D01*
X657625Y-144008D01*
X657645Y-143979D01*
X657664Y-143941D01*
X657693Y-143893D01*
X657731Y-143835D01*
X657760Y-143768D01*
X657798Y-143691D01*
X657837Y-143604D01*
X657866Y-143508D01*
X657904Y-143393D01*
X657933Y-143268D01*
X657952Y-143143D01*
X657971Y-142999D01*
X657991Y-142845D01*
Y-142682D01*
Y-142672D01*
Y-142643D01*
Y-142605D01*
X657981Y-142538D01*
Y-142470D01*
X657971Y-142394D01*
X657942Y-142201D01*
X657895Y-141999D01*
X657827Y-141779D01*
X657731Y-141577D01*
X657597Y-141394D01*
Y-141384D01*
X657577Y-141375D01*
X657529Y-141327D01*
X657443Y-141250D01*
X657337Y-141173D01*
X657193Y-141096D01*
X657030Y-141019D01*
X656847Y-140971D01*
X656751Y-140952D01*
D02*
G37*
%LPD*%
D10*
X14449Y349882D02*
G03*
X45Y335005I609J-15002D01*
G01*
X326575Y341220D02*
G03*
X314724Y349882I-12571J-4763D01*
G01*
X326575Y341339D02*
G03*
X338898Y331928I13326J4677D01*
G01*
X361631Y319611D02*
G03*
X349410Y331906I-12330J-35D01*
G01*
X339435Y14356D02*
G03*
X327284Y8150I-253J-14503D01*
G01*
X348242Y14356D02*
G03*
X361631Y27953I-102J13490D01*
G01*
X311967Y-72D02*
G03*
X327284Y8150I575J17307D01*
G01*
X29278Y2252D02*
G03*
X34488Y-72I4950J4095D01*
G01*
X29278Y2252D02*
G03*
X21524Y6947I-10086J-7908D01*
G01*
X39Y18032D02*
G03*
X11317Y6947I11796J722D01*
G01*
X39Y18032D02*
Y334880D01*
X14449Y349882D02*
X16575D01*
X314724D01*
X338898Y331928D02*
X349301D01*
X361631Y27953D02*
X361631Y319611D01*
X339181Y14356D02*
X348242D01*
X34488Y-72D02*
X311967Y-72D01*
X11317Y6947D02*
X21524D01*
D60*
X61342Y107819D02*
D03*
Y102820D02*
D03*
Y97820D02*
D03*
Y92819D02*
D03*
X36913Y107819D02*
D03*
Y102820D02*
D03*
Y97820D02*
D03*
Y92819D02*
D03*
X61342Y83449D02*
D03*
Y78449D02*
D03*
Y73449D02*
D03*
Y68449D02*
D03*
X36913Y83449D02*
D03*
Y78449D02*
D03*
Y73449D02*
D03*
Y68449D02*
D03*
D73*
X188134Y65969D02*
D03*
X175535D02*
D03*
X175890Y128804D02*
D03*
X188488D02*
D03*
X175535Y47111D02*
D03*
X188134D02*
D03*
D76*
X288113Y127016D02*
D03*
Y119016D02*
D03*
X219149Y234937D02*
D03*
Y242937D02*
D03*
X226953Y64331D02*
D03*
Y72331D02*
D03*
X220181Y99056D02*
D03*
Y107056D02*
D03*
X64275Y261938D02*
D03*
Y253938D02*
D03*
X298543Y160606D02*
D03*
Y168606D02*
D03*
Y136787D02*
D03*
Y144787D02*
D03*
D77*
X78705Y274197D02*
D03*
X71421D02*
D03*
X201516Y21378D02*
D03*
X208799D02*
D03*
X238586Y253961D02*
D03*
X245870D02*
D03*
D78*
X116715Y95157D02*
D03*
X130215D02*
D03*
X144726Y185969D02*
D03*
X131226D02*
D03*
X94372D02*
D03*
X80872D02*
D03*
D79*
X267898Y97524D02*
D03*
Y104808D02*
D03*
X223803Y82564D02*
D03*
Y89847D02*
D03*
X89197Y257327D02*
D03*
Y250044D02*
D03*
X91165Y303784D02*
D03*
Y296501D02*
D03*
X160417Y303115D02*
D03*
Y295831D02*
D03*
X6559Y304690D02*
D03*
Y297406D02*
D03*
X7071Y258351D02*
D03*
Y251067D02*
D03*
X156475Y257001D02*
D03*
Y249717D02*
D03*
D80*
X280906Y256260D02*
D03*
X275394D02*
D03*
X136874Y151166D02*
D03*
X142386D02*
D03*
X92110Y176323D02*
D03*
X86598D02*
D03*
X92110Y157924D02*
D03*
X86598D02*
D03*
X250496Y210497D02*
D03*
X256008D02*
D03*
X238212Y212938D02*
D03*
X243724D02*
D03*
X296480Y187623D02*
D03*
X301992D02*
D03*
X77149Y267938D02*
D03*
X71638D02*
D03*
X50968Y283843D02*
D03*
X45457D02*
D03*
X26047Y282820D02*
D03*
X20535D02*
D03*
X52583Y239276D02*
D03*
X47071D02*
D03*
X28606Y235733D02*
D03*
X23094D02*
D03*
X137346Y284552D02*
D03*
X131835D02*
D03*
X112346Y282229D02*
D03*
X106835D02*
D03*
X24551Y204394D02*
D03*
X19039D02*
D03*
X135535Y237820D02*
D03*
X130024D02*
D03*
X110732Y235379D02*
D03*
X105220D02*
D03*
X206480Y283371D02*
D03*
X200968D02*
D03*
X181795Y281599D02*
D03*
X176283D02*
D03*
X194118Y236835D02*
D03*
X199630D02*
D03*
X180654Y235339D02*
D03*
X175142D02*
D03*
X122819Y328686D02*
D03*
X128331D02*
D03*
X60614Y325575D02*
D03*
X66126D02*
D03*
X26520Y223174D02*
D03*
X21008D02*
D03*
X177346Y328331D02*
D03*
X182858D02*
D03*
X230575Y323725D02*
D03*
X236087D02*
D03*
X234472Y343607D02*
D03*
X228961D02*
D03*
X254118Y125497D02*
D03*
X259630D02*
D03*
D81*
X275457Y76717D02*
D03*
Y89316D02*
D03*
X204433Y94985D02*
D03*
Y107583D02*
D03*
D82*
X143331Y136835D02*
D03*
X159079D02*
D03*
X155732Y196166D02*
D03*
X139984D02*
D03*
D85*
X275455Y289528D02*
D03*
X280455D02*
D03*
X285455D02*
D03*
X290456D02*
D03*
X275455Y265098D02*
D03*
X280455D02*
D03*
X285455D02*
D03*
X290456D02*
D03*
X130850Y115044D02*
D03*
X125850D02*
D03*
X120850D02*
D03*
X115850D02*
D03*
X130850Y139473D02*
D03*
X125850D02*
D03*
X120850D02*
D03*
X115850D02*
D03*
D87*
X181228Y288287D02*
D03*
X173228D02*
D03*
X288835Y88543D02*
D03*
X296835D02*
D03*
X187480Y218150D02*
D03*
X195480D02*
D03*
X231984Y312795D02*
D03*
X239984D02*
D03*
X111610Y289434D02*
D03*
X103610D02*
D03*
X110835Y241929D02*
D03*
X102835D02*
D03*
X181165Y242052D02*
D03*
X173165D02*
D03*
X303386Y106330D02*
D03*
X311386D02*
D03*
X303386Y96724D02*
D03*
X311386D02*
D03*
X299572Y265354D02*
D03*
X307572D02*
D03*
X299572Y255315D02*
D03*
X307572D02*
D03*
X299572Y245709D02*
D03*
X307572D02*
D03*
X320764Y35157D02*
D03*
X328764D02*
D03*
X298247Y126378D02*
D03*
X306247D02*
D03*
X25653Y289370D02*
D03*
X17653D02*
D03*
X20551Y242618D02*
D03*
X28551D02*
D03*
D88*
X148825Y163976D02*
D03*
X154325D02*
D03*
X86993Y153128D02*
D03*
X92493D02*
D03*
Y166927D02*
D03*
X86993D02*
D03*
X160526Y159129D02*
D03*
X155026D02*
D03*
X142537Y146442D02*
D03*
X137037D02*
D03*
X92493Y148528D02*
D03*
X86993D02*
D03*
X92493Y162327D02*
D03*
X86993D02*
D03*
X150104Y168504D02*
D03*
X155604D02*
D03*
X86993Y171527D02*
D03*
X92493D02*
D03*
X151089Y174337D02*
D03*
X156589D02*
D03*
X201289Y31166D02*
D03*
X206789D02*
D03*
X151187Y178839D02*
D03*
X156687D02*
D03*
X302786Y277362D02*
D03*
X297286D02*
D03*
X302786Y282575D02*
D03*
X297286D02*
D03*
X296447Y179079D02*
D03*
X301947D02*
D03*
X175268Y159730D02*
D03*
X169768D02*
D03*
Y154232D02*
D03*
X175268D02*
D03*
D90*
X256063Y21496D02*
D03*
X282205Y333819D02*
D03*
X12362Y46811D02*
D03*
D91*
X30906Y325590D02*
D03*
X190457Y323174D02*
D03*
X184039Y272662D02*
D03*
X193228Y205079D02*
D03*
X310181Y339512D02*
D03*
X320693Y329394D02*
D03*
X97228Y208449D02*
D03*
X199787Y334827D02*
D03*
X160693Y238016D02*
D03*
X163803Y271993D02*
D03*
X265496Y238253D02*
D03*
X263803Y257741D02*
D03*
X97071Y222544D02*
D03*
X167370Y83686D02*
D03*
X98842Y137072D02*
D03*
X84905Y134473D02*
D03*
X80748Y307205D02*
D03*
X330315Y319126D02*
D03*
X28567Y31875D02*
D03*
X28055Y344079D02*
D03*
D92*
X74528Y114119D02*
D03*
X319488Y24882D02*
D03*
X165732Y322977D02*
D03*
X329764Y24685D02*
D03*
D93*
X349590Y59040D02*
D03*
X339590D02*
D03*
X349590Y69040D02*
D03*
X339590D02*
D03*
X349590Y79040D02*
D03*
X339590D02*
D03*
X349590Y89040D02*
D03*
X339590D02*
D03*
X349590Y99040D02*
D03*
X339590D02*
D03*
X349590Y109040D02*
D03*
X339590D02*
D03*
X349590Y119040D02*
D03*
X339590D02*
D03*
X349590Y129040D02*
D03*
X339590D02*
D03*
X349590Y139040D02*
D03*
X339590D02*
D03*
X349590Y149040D02*
D03*
X339590D02*
D03*
X349590Y159040D02*
D03*
X339590D02*
D03*
X349590Y169040D02*
D03*
X339590D02*
D03*
X349590Y179040D02*
D03*
X339590D02*
D03*
X349590Y189040D02*
D03*
X339590D02*
D03*
X349590Y199040D02*
D03*
X339590D02*
D03*
X349590Y209040D02*
D03*
X339590D02*
D03*
X349590Y219040D02*
D03*
X339590Y218942D02*
D03*
X349590Y229040D02*
D03*
X339590D02*
D03*
X349590Y239040D02*
D03*
X339590D02*
D03*
X349590Y249040D02*
D03*
X339571D02*
D03*
X349590Y259040D02*
D03*
X339571D02*
D03*
X349590Y269040D02*
D03*
X339590D02*
D03*
X349590Y279040D02*
D03*
X339590D02*
D03*
X349590Y289040D02*
D03*
X339590D02*
D03*
X349590Y299040D02*
D03*
X339590Y49040D02*
D03*
X349590D02*
D03*
X329590D02*
D03*
X319590D02*
D03*
X329590Y299040D02*
D03*
X319590Y289040D02*
D03*
X329590D02*
D03*
X319590Y279040D02*
D03*
X329590D02*
D03*
X319590Y269040D02*
D03*
X329590D02*
D03*
X319590Y259040D02*
D03*
X329590D02*
D03*
X319590Y249040D02*
D03*
X329590D02*
D03*
X319590Y239040D02*
D03*
X329590D02*
D03*
X319590Y229040D02*
D03*
X329590D02*
D03*
X319590Y218942D02*
D03*
X329590Y219040D02*
D03*
X319590Y209040D02*
D03*
X329590D02*
D03*
X319590Y199040D02*
D03*
X329590D02*
D03*
X319590Y189040D02*
D03*
X329590D02*
D03*
X319590Y179040D02*
D03*
X329590D02*
D03*
X319590Y169040D02*
D03*
X329590D02*
D03*
X319590Y159040D02*
D03*
X329590D02*
D03*
X319590Y149040D02*
D03*
X329590D02*
D03*
X319590Y139040D02*
D03*
X329590D02*
D03*
X319590Y129040D02*
D03*
X329590D02*
D03*
X319590Y119040D02*
D03*
X329590D02*
D03*
X319590Y109040D02*
D03*
X329590D02*
D03*
X319590Y99040D02*
D03*
X329590D02*
D03*
X319590Y89040D02*
D03*
X329590D02*
D03*
X319590Y79040D02*
D03*
X329590D02*
D03*
X319590Y69040D02*
D03*
X329590D02*
D03*
X319590Y59040D02*
D03*
X329590D02*
D03*
X70157Y171299D02*
D03*
X60158D02*
D03*
X70157Y161299D02*
D03*
X60158D02*
D03*
X70157Y151299D02*
D03*
X60158D02*
D03*
X70157Y141299D02*
D03*
X60158D02*
D03*
X70157Y131299D02*
D03*
X19370Y97835D02*
D03*
X9370Y107835D02*
D03*
X19370D02*
D03*
X9370Y117835D02*
D03*
X19370D02*
D03*
X9370Y127835D02*
D03*
X19370D02*
D03*
X9370Y137835D02*
D03*
X19370D02*
D03*
D94*
X339571Y299040D02*
D03*
X319590D02*
D03*
X60158Y131299D02*
D03*
X9370Y97835D02*
D03*
D95*
X288591Y47736D02*
D03*
X349606Y29052D02*
D03*
X12303Y19209D02*
D03*
Y334268D02*
D03*
X349570Y319126D02*
D03*
X60378Y308174D02*
D03*
X288591Y308136D02*
D03*
X60391Y47736D02*
D03*
X174490Y177979D02*
D03*
D96*
X307972Y136004D02*
D03*
Y146004D02*
D03*
X169646Y37964D02*
D03*
D97*
X307972Y156004D02*
D03*
D98*
X159646Y37964D02*
D03*
D99*
X159749Y168504D02*
D03*
X158858Y163976D02*
D03*
D100*
X89960Y49409D02*
D03*
X249590Y48961D02*
D03*
X243252Y60851D02*
D03*
X89512Y54906D02*
D03*
X96047D02*
D03*
X131441Y163646D02*
D03*
X125181D02*
D03*
X136913D02*
D03*
X136874Y158607D02*
D03*
X125654D02*
D03*
X131264D02*
D03*
X249157Y288646D02*
D03*
X249590Y60851D02*
D03*
X243252Y48961D02*
D03*
X96047Y60851D02*
D03*
X89512D02*
D03*
X96047Y48961D02*
D03*
X249590Y54906D02*
D03*
X243252D02*
D03*
X255063Y300457D02*
D03*
X249157D02*
D03*
Y294552D02*
D03*
X255063D02*
D03*
X254747Y288960D02*
D03*
D146*
X212428Y154499D02*
D03*
X206999Y160206D02*
D03*
X211732Y164938D02*
D03*
X217300Y159370D02*
D03*
D147*
X259197Y104316D02*
D03*
Y101757D02*
D03*
Y99197D02*
D03*
Y96638D02*
D03*
Y94079D02*
D03*
Y91520D02*
D03*
Y88961D02*
D03*
Y86402D02*
D03*
Y83843D02*
D03*
Y81284D02*
D03*
Y78725D02*
D03*
Y76166D02*
D03*
Y73607D02*
D03*
Y71048D02*
D03*
X236362Y104316D02*
D03*
Y101757D02*
D03*
Y99197D02*
D03*
Y96638D02*
D03*
Y94079D02*
D03*
Y91520D02*
D03*
Y88961D02*
D03*
Y86402D02*
D03*
Y83843D02*
D03*
Y81284D02*
D03*
Y78725D02*
D03*
Y76166D02*
D03*
Y73607D02*
D03*
Y71048D02*
D03*
D148*
X113272Y172347D02*
D03*
D149*
X103724Y172347D02*
D03*
Y170772D02*
D03*
Y169197D02*
D03*
Y167623D02*
D03*
Y173922D02*
D03*
Y175497D02*
D03*
Y177071D02*
D03*
X123016Y167623D02*
D03*
Y177071D02*
D03*
Y175497D02*
D03*
Y173922D02*
D03*
Y172347D02*
D03*
Y170772D02*
D03*
Y169197D02*
D03*
D150*
X225260Y328607D02*
D03*
Y336087D02*
D03*
X236283Y332347D02*
D03*
Y336087D02*
D03*
Y328607D02*
D03*
X225260Y332347D02*
D03*
X68803Y336087D02*
D03*
X57780Y339827D02*
D03*
Y332347D02*
D03*
Y336087D02*
D03*
X68803Y332347D02*
D03*
Y339827D02*
D03*
X17661Y214512D02*
D03*
X28685Y210772D02*
D03*
Y218253D02*
D03*
Y214512D02*
D03*
X17661Y218253D02*
D03*
Y210772D02*
D03*
X132346Y338768D02*
D03*
X121323Y342509D02*
D03*
Y335028D02*
D03*
Y338768D02*
D03*
X132346Y335028D02*
D03*
Y342509D02*
D03*
X185146Y338505D02*
D03*
X174123Y342245D02*
D03*
Y334764D02*
D03*
Y338505D02*
D03*
X185146Y334764D02*
D03*
Y342245D02*
D03*
D151*
X232405Y245142D02*
D03*
X237405D02*
D03*
X242405D02*
D03*
X247405D02*
D03*
X232405Y226245D02*
D03*
X237405D02*
D03*
X242405D02*
D03*
X247405D02*
D03*
D152*
X129626Y231004D02*
D03*
X200295Y277756D02*
D03*
X200197Y230315D02*
D03*
X45177Y276481D02*
D03*
X46358Y233366D02*
D03*
X130905Y278740D02*
D03*
D153*
X120965Y231004D02*
D03*
X191634Y277756D02*
D03*
X191535Y230315D02*
D03*
X36516Y276481D02*
D03*
X37697Y233366D02*
D03*
X122244Y278740D02*
D03*
D154*
X233842Y196422D02*
D03*
X235811D02*
D03*
X237779D02*
D03*
X239748D02*
D03*
X241716D02*
D03*
X243685D02*
D03*
X245654D02*
D03*
X247622D02*
D03*
X249590D02*
D03*
X251559D02*
D03*
X253527D02*
D03*
X255496D02*
D03*
X257465D02*
D03*
X259433D02*
D03*
X261402D02*
D03*
X263370D02*
D03*
X265338D02*
D03*
X267307D02*
D03*
X269275D02*
D03*
X271244D02*
D03*
X273213D02*
D03*
X275181D02*
D03*
X277150D02*
D03*
X279118D02*
D03*
X281086D02*
D03*
Y136776D02*
D03*
X279118D02*
D03*
X277150D02*
D03*
X275181D02*
D03*
X273213D02*
D03*
X271244D02*
D03*
X269275D02*
D03*
X267307D02*
D03*
X265338D02*
D03*
X263370D02*
D03*
X261402D02*
D03*
X259433D02*
D03*
X257465D02*
D03*
X255496D02*
D03*
X253527D02*
D03*
X251559D02*
D03*
X249590D02*
D03*
X247622D02*
D03*
X245654D02*
D03*
X243685D02*
D03*
X241716D02*
D03*
X239748D02*
D03*
X237779D02*
D03*
X235811D02*
D03*
X233842D02*
D03*
D155*
X287287Y190221D02*
D03*
Y188253D02*
D03*
Y186284D02*
D03*
Y184316D02*
D03*
Y182347D02*
D03*
Y180378D02*
D03*
Y178410D02*
D03*
Y176442D02*
D03*
Y174473D02*
D03*
Y172504D02*
D03*
Y170536D02*
D03*
Y168568D02*
D03*
Y166599D02*
D03*
Y164630D02*
D03*
Y162662D02*
D03*
Y160694D02*
D03*
Y158725D02*
D03*
Y156756D02*
D03*
Y154788D02*
D03*
Y152820D02*
D03*
Y150851D02*
D03*
Y148882D02*
D03*
Y146914D02*
D03*
Y144946D02*
D03*
Y142977D02*
D03*
X227642D02*
D03*
Y144946D02*
D03*
Y146914D02*
D03*
Y148882D02*
D03*
Y150851D02*
D03*
Y152820D02*
D03*
Y154788D02*
D03*
Y156756D02*
D03*
Y158725D02*
D03*
Y160694D02*
D03*
Y162662D02*
D03*
Y164630D02*
D03*
Y166599D02*
D03*
Y168568D02*
D03*
Y170536D02*
D03*
Y172504D02*
D03*
Y174473D02*
D03*
Y176442D02*
D03*
Y178410D02*
D03*
Y180378D02*
D03*
Y182347D02*
D03*
Y184316D02*
D03*
Y186284D02*
D03*
Y188253D02*
D03*
Y190221D02*
D03*
D156*
X79098Y245831D02*
D03*
X76539D02*
D03*
X73980D02*
D03*
X71421D02*
D03*
X79098Y261776D02*
D03*
X76539D02*
D03*
X73980D02*
D03*
X71421D02*
D03*
D157*
X188646Y120753D02*
D03*
Y113469D02*
D03*
D158*
X260535Y119394D02*
D03*
X253212D02*
D03*
X249433Y216323D02*
D03*
X256756D02*
D03*
X238764Y261245D02*
D03*
X246087D02*
D03*
D159*
X269787Y210930D02*
D03*
X261913D02*
D03*
D160*
X197268Y303507D02*
D03*
X201008D02*
D03*
X197169Y289925D02*
D03*
X200909D02*
D03*
X45177Y291343D02*
D03*
X41437D02*
D03*
X45276Y304926D02*
D03*
X41535D02*
D03*
X46555Y244799D02*
D03*
X42815D02*
D03*
X46654Y258381D02*
D03*
X42913D02*
D03*
X131004Y290319D02*
D03*
X127264D02*
D03*
X131102Y303902D02*
D03*
X127362D02*
D03*
X199902Y243520D02*
D03*
X196161D02*
D03*
X200000Y257103D02*
D03*
X196260D02*
D03*
X129551Y244276D02*
D03*
X125811D02*
D03*
X129650Y257859D02*
D03*
X125909D02*
D03*
D161*
X309291Y191057D02*
D03*
X235505Y6502D02*
D03*
X249374Y330293D02*
D03*
Y335793D02*
D03*
X300168Y233837D02*
D03*
X170684Y98437D02*
D03*
X293226Y233837D02*
D03*
X286283D02*
D03*
X162308Y98641D02*
D03*
X242711Y22465D02*
D03*
Y16965D02*
D03*
X235417Y22465D02*
D03*
Y16965D02*
D03*
X286283Y217235D02*
D03*
Y222735D02*
D03*
X300339Y217707D02*
D03*
Y223207D02*
D03*
X105606Y28356D02*
D03*
Y22856D02*
D03*
X254591Y335793D02*
D03*
Y330293D02*
D03*
X170684Y109264D02*
D03*
Y114764D02*
D03*
X162308Y114967D02*
D03*
Y109467D02*
D03*
X307386Y222735D02*
D03*
Y217235D02*
D03*
X293226Y222735D02*
D03*
Y217235D02*
D03*
X41126Y332105D02*
D03*
Y326605D02*
D03*
X46475Y220348D02*
D03*
Y214848D02*
D03*
X46303Y337144D02*
D03*
Y331644D02*
D03*
X41259Y214848D02*
D03*
Y220348D02*
D03*
X105378Y333837D02*
D03*
Y328337D02*
D03*
X110023Y339782D02*
D03*
Y334282D02*
D03*
X156327Y334868D02*
D03*
Y340368D02*
D03*
X161820D02*
D03*
Y334868D02*
D03*
X307346Y233837D02*
D03*
X105645Y12272D02*
D03*
X242798Y6502D02*
D03*
D162*
X309291Y185557D02*
D03*
X235505Y12002D02*
D03*
X300168Y228337D02*
D03*
X170684Y103937D02*
D03*
X293226Y228337D02*
D03*
X286283D02*
D03*
X162308Y104141D02*
D03*
X307346Y228337D02*
D03*
X105645Y17772D02*
D03*
X242798Y12002D02*
D03*
D163*
X275299Y104867D02*
D03*
Y97544D02*
D03*
X216874Y89670D02*
D03*
Y82347D02*
D03*
X301559Y202190D02*
D03*
Y194867D02*
D03*
X209984Y176363D02*
D03*
Y183686D02*
D03*
D164*
X136795Y114316D02*
D03*
Y108804D02*
D03*
X111126Y108990D02*
D03*
Y114501D02*
D03*
X294827Y199945D02*
D03*
Y194434D02*
D03*
X254512Y233568D02*
D03*
Y239079D02*
D03*
X267858Y217505D02*
D03*
Y223016D02*
D03*
X275299Y217347D02*
D03*
Y222859D02*
D03*
X51992Y337386D02*
D03*
Y331875D02*
D03*
X77346Y333646D02*
D03*
Y339158D02*
D03*
X35294Y214639D02*
D03*
Y220151D02*
D03*
X115220Y339985D02*
D03*
Y334473D02*
D03*
X139748Y338292D02*
D03*
Y343804D02*
D03*
X167508Y339985D02*
D03*
Y334473D02*
D03*
X193370Y336205D02*
D03*
Y341717D02*
D03*
X166795Y301520D02*
D03*
Y296008D02*
D03*
X95378Y255694D02*
D03*
Y250182D02*
D03*
X97071Y301914D02*
D03*
Y296402D02*
D03*
X163877Y254934D02*
D03*
Y249422D02*
D03*
X11835Y302623D02*
D03*
Y297111D02*
D03*
X12701Y256245D02*
D03*
Y250733D02*
D03*
X243409Y330084D02*
D03*
Y335596D02*
D03*
X216677Y173567D02*
D03*
Y179079D02*
D03*
X59472Y240379D02*
D03*
Y234867D02*
D03*
X58134Y254001D02*
D03*
Y259512D02*
D03*
D165*
X203039Y155198D02*
D03*
X208189Y150048D02*
D03*
D166*
X201976Y163473D02*
D03*
X207126Y168623D02*
D03*
D167*
X173917Y147544D02*
D03*
D168*
Y138883D02*
D03*
D169*
X120516Y186087D02*
D03*
Y182347D02*
D03*
X106933Y186186D02*
D03*
Y182446D02*
D03*
X66083Y234705D02*
D03*
Y238445D02*
D03*
X79665Y234606D02*
D03*
Y238347D02*
D03*
D170*
X17894Y296690D02*
D03*
Y299249D02*
D03*
Y301808D02*
D03*
Y304367D02*
D03*
X33838Y296690D02*
D03*
Y299249D02*
D03*
Y301808D02*
D03*
Y304367D02*
D03*
X19516Y250312D02*
D03*
Y252871D02*
D03*
Y255430D02*
D03*
Y257989D02*
D03*
X35461Y252871D02*
D03*
Y255430D02*
D03*
Y257989D02*
D03*
Y250312D02*
D03*
X119902Y303461D02*
D03*
Y300902D02*
D03*
Y298343D02*
D03*
Y295784D02*
D03*
X103957Y303461D02*
D03*
Y300902D02*
D03*
Y298343D02*
D03*
Y295784D02*
D03*
X102421Y249760D02*
D03*
Y252320D02*
D03*
Y254878D02*
D03*
Y257438D02*
D03*
X118366Y249760D02*
D03*
Y252320D02*
D03*
Y254878D02*
D03*
Y257438D02*
D03*
X173685Y295575D02*
D03*
Y298134D02*
D03*
Y300693D02*
D03*
Y303253D02*
D03*
X189630Y295575D02*
D03*
Y298134D02*
D03*
Y300693D02*
D03*
Y303253D02*
D03*
X172819Y249001D02*
D03*
Y251560D02*
D03*
Y254119D02*
D03*
Y256678D02*
D03*
X188764Y249001D02*
D03*
Y251560D02*
D03*
Y254119D02*
D03*
Y256678D02*
D03*
M02*
