G04*
G04 #@! TF.GenerationSoftware,Altium Limited,Altium Designer,18.1.7 (191)*
G04*
G04 Layer_Color=2752767*
%FSLAX25Y25*%
%MOIN*%
G70*
G01*
G75*
%ADD10C,0.01500*%
%ADD11C,0.01000*%
%ADD166C,0.00200*%
%ADD167C,0.01600*%
G36*
X687821Y-139568D02*
X687047D01*
Y-138684D01*
X687821D01*
Y-139568D01*
D02*
G37*
G36*
X658943D02*
X658168D01*
Y-138684D01*
X658943D01*
Y-139568D01*
D02*
G37*
G36*
X691292Y-140324D02*
X691393Y-140333D01*
X691511Y-140351D01*
X691639Y-140378D01*
X691775Y-140415D01*
X691903Y-140470D01*
X691921Y-140479D01*
X691957Y-140497D01*
X692021Y-140524D01*
X692094Y-140570D01*
X692185Y-140624D01*
X692267Y-140697D01*
X692349Y-140770D01*
X692422Y-140861D01*
X692431Y-140870D01*
X692449Y-140907D01*
X692477Y-140953D01*
X692522Y-141016D01*
X692559Y-141107D01*
X692595Y-141198D01*
X692641Y-141308D01*
X692668Y-141426D01*
Y-141435D01*
X692677Y-141472D01*
X692686Y-141526D01*
X692695Y-141599D01*
Y-141709D01*
X692704Y-141836D01*
X692713Y-141991D01*
Y-142182D01*
Y-144988D01*
X691939D01*
Y-142219D01*
Y-142210D01*
Y-142201D01*
Y-142137D01*
Y-142055D01*
X691930Y-141955D01*
X691921Y-141836D01*
X691903Y-141718D01*
X691875Y-141608D01*
X691848Y-141508D01*
Y-141499D01*
X691830Y-141472D01*
X691803Y-141426D01*
X691775Y-141372D01*
X691730Y-141317D01*
X691675Y-141253D01*
X691602Y-141189D01*
X691520Y-141135D01*
X691511Y-141126D01*
X691484Y-141107D01*
X691429Y-141089D01*
X691365Y-141062D01*
X691292Y-141034D01*
X691201Y-141007D01*
X691092Y-140998D01*
X690983Y-140989D01*
X690937D01*
X690901Y-140998D01*
X690809Y-141007D01*
X690691Y-141025D01*
X690563Y-141071D01*
X690418Y-141126D01*
X690272Y-141198D01*
X690135Y-141308D01*
X690117Y-141326D01*
X690081Y-141372D01*
X690053Y-141408D01*
X690026Y-141454D01*
X689990Y-141508D01*
X689962Y-141572D01*
X689926Y-141645D01*
X689889Y-141736D01*
X689862Y-141836D01*
X689835Y-141946D01*
X689817Y-142064D01*
X689798Y-142191D01*
X689780Y-142346D01*
Y-142501D01*
Y-144988D01*
X689006D01*
Y-140415D01*
X689698D01*
Y-141071D01*
X689707Y-141062D01*
X689725Y-141034D01*
X689753Y-140998D01*
X689789Y-140953D01*
X689844Y-140898D01*
X689908Y-140834D01*
X689981Y-140761D01*
X690072Y-140688D01*
X690163Y-140624D01*
X690272Y-140552D01*
X690390Y-140488D01*
X690518Y-140433D01*
X690664Y-140388D01*
X690809Y-140351D01*
X690974Y-140324D01*
X691147Y-140315D01*
X691219D01*
X691292Y-140324D01*
D02*
G37*
G36*
X674676D02*
X674776Y-140342D01*
X674894Y-140378D01*
X675022Y-140424D01*
X675168Y-140488D01*
X675322Y-140570D01*
X675040Y-141280D01*
X675031Y-141271D01*
X674995Y-141253D01*
X674940Y-141226D01*
X674867Y-141198D01*
X674785Y-141171D01*
X674685Y-141144D01*
X674585Y-141126D01*
X674484Y-141116D01*
X674439D01*
X674393Y-141126D01*
X674330Y-141135D01*
X674266Y-141153D01*
X674184Y-141180D01*
X674102Y-141217D01*
X674029Y-141271D01*
X674020Y-141280D01*
X673992Y-141299D01*
X673965Y-141335D01*
X673920Y-141381D01*
X673874Y-141444D01*
X673829Y-141517D01*
X673783Y-141599D01*
X673746Y-141700D01*
X673737Y-141718D01*
X673728Y-141772D01*
X673710Y-141854D01*
X673683Y-141964D01*
X673655Y-142100D01*
X673637Y-142255D01*
X673628Y-142419D01*
X673619Y-142601D01*
Y-144988D01*
X672845D01*
Y-140415D01*
X673546D01*
Y-141107D01*
X673555Y-141098D01*
X673592Y-141034D01*
X673637Y-140953D01*
X673710Y-140852D01*
X673783Y-140752D01*
X673865Y-140643D01*
X673947Y-140552D01*
X674029Y-140479D01*
X674038Y-140470D01*
X674065Y-140451D01*
X674120Y-140424D01*
X674175Y-140397D01*
X674248Y-140369D01*
X674339Y-140342D01*
X674430Y-140324D01*
X674530Y-140315D01*
X674594D01*
X674676Y-140324D01*
D02*
G37*
G36*
X657057D02*
X657157Y-140342D01*
X657276Y-140378D01*
X657403Y-140424D01*
X657549Y-140488D01*
X657704Y-140570D01*
X657421Y-141280D01*
X657412Y-141271D01*
X657376Y-141253D01*
X657321Y-141226D01*
X657248Y-141198D01*
X657166Y-141171D01*
X657066Y-141144D01*
X656966Y-141126D01*
X656866Y-141116D01*
X656820D01*
X656775Y-141126D01*
X656711Y-141135D01*
X656647Y-141153D01*
X656565Y-141180D01*
X656483Y-141217D01*
X656410Y-141271D01*
X656401Y-141280D01*
X656374Y-141299D01*
X656346Y-141335D01*
X656301Y-141381D01*
X656255Y-141444D01*
X656210Y-141517D01*
X656164Y-141599D01*
X656128Y-141700D01*
X656119Y-141718D01*
X656110Y-141772D01*
X656091Y-141854D01*
X656064Y-141964D01*
X656037Y-142100D01*
X656018Y-142255D01*
X656009Y-142419D01*
X656000Y-142601D01*
Y-144988D01*
X655226D01*
Y-140415D01*
X655927D01*
Y-141107D01*
X655936Y-141098D01*
X655973Y-141034D01*
X656018Y-140953D01*
X656091Y-140852D01*
X656164Y-140752D01*
X656246Y-140643D01*
X656328Y-140552D01*
X656410Y-140479D01*
X656419Y-140470D01*
X656447Y-140451D01*
X656501Y-140424D01*
X656556Y-140397D01*
X656629Y-140369D01*
X656720Y-140342D01*
X656811Y-140324D01*
X656911Y-140315D01*
X656975D01*
X657057Y-140324D01*
D02*
G37*
G36*
X684952Y-144988D02*
X684159D01*
X683430Y-142255D01*
X683248Y-141472D01*
X682328Y-144988D01*
X681508D01*
X680124Y-140415D01*
X680934D01*
X681663Y-143057D01*
X681918Y-144041D01*
Y-144032D01*
X681927Y-144013D01*
X681936Y-143968D01*
X681946Y-143941D01*
X681955Y-143895D01*
X681964Y-143840D01*
X681982Y-143777D01*
X682000Y-143704D01*
X682027Y-143613D01*
X682055Y-143512D01*
X682082Y-143394D01*
X682119Y-143257D01*
X682155Y-143102D01*
X682884Y-140415D01*
X683676D01*
X684360Y-143075D01*
X684587Y-143950D01*
X684852Y-143066D01*
X685635Y-140415D01*
X686391D01*
X684952Y-144988D01*
D02*
G37*
G36*
X687821D02*
X687047D01*
Y-140415D01*
X687821D01*
Y-144988D01*
D02*
G37*
G36*
X677919Y-140324D02*
X678055Y-140333D01*
X678210Y-140351D01*
X678365Y-140378D01*
X678520Y-140415D01*
X678666Y-140461D01*
X678684Y-140470D01*
X678730Y-140488D01*
X678793Y-140515D01*
X678875Y-140552D01*
X678967Y-140606D01*
X679058Y-140661D01*
X679140Y-140734D01*
X679213Y-140807D01*
X679222Y-140816D01*
X679240Y-140843D01*
X679267Y-140889D01*
X679304Y-140943D01*
X679349Y-141025D01*
X679386Y-141107D01*
X679422Y-141208D01*
X679449Y-141326D01*
Y-141335D01*
X679458Y-141362D01*
X679468Y-141417D01*
X679477Y-141490D01*
Y-141590D01*
X679486Y-141709D01*
X679495Y-141864D01*
Y-142037D01*
Y-143075D01*
Y-143084D01*
Y-143121D01*
Y-143175D01*
Y-143248D01*
Y-143330D01*
Y-143430D01*
X679504Y-143649D01*
Y-143877D01*
X679513Y-144105D01*
X679522Y-144205D01*
Y-144296D01*
X679531Y-144378D01*
X679540Y-144442D01*
Y-144451D01*
X679550Y-144487D01*
X679559Y-144542D01*
X679586Y-144615D01*
X679604Y-144697D01*
X679641Y-144788D01*
X679686Y-144888D01*
X679732Y-144988D01*
X678921D01*
X678912Y-144979D01*
X678903Y-144943D01*
X678885Y-144897D01*
X678857Y-144824D01*
X678830Y-144742D01*
X678812Y-144642D01*
X678793Y-144533D01*
X678775Y-144414D01*
X678766D01*
X678757Y-144432D01*
X678702Y-144478D01*
X678620Y-144542D01*
X678511Y-144624D01*
X678374Y-144706D01*
X678238Y-144797D01*
X678092Y-144879D01*
X677937Y-144943D01*
X677919Y-144952D01*
X677864Y-144961D01*
X677782Y-144988D01*
X677682Y-145016D01*
X677554Y-145043D01*
X677409Y-145061D01*
X677245Y-145079D01*
X677081Y-145088D01*
X677008D01*
X676953Y-145079D01*
X676889D01*
X676817Y-145070D01*
X676653Y-145043D01*
X676470Y-144997D01*
X676270Y-144933D01*
X676088Y-144842D01*
X675924Y-144724D01*
X675906Y-144706D01*
X675860Y-144660D01*
X675796Y-144578D01*
X675723Y-144469D01*
X675651Y-144332D01*
X675587Y-144177D01*
X675541Y-143986D01*
X675532Y-143895D01*
X675523Y-143786D01*
Y-143767D01*
Y-143731D01*
X675532Y-143667D01*
X675541Y-143585D01*
X675559Y-143485D01*
X675587Y-143385D01*
X675623Y-143275D01*
X675669Y-143175D01*
X675678Y-143166D01*
X675696Y-143130D01*
X675732Y-143075D01*
X675778Y-143011D01*
X675833Y-142938D01*
X675906Y-142866D01*
X675978Y-142793D01*
X676069Y-142729D01*
X676079Y-142720D01*
X676115Y-142702D01*
X676161Y-142665D01*
X676233Y-142629D01*
X676315Y-142592D01*
X676416Y-142547D01*
X676516Y-142510D01*
X676634Y-142474D01*
X676644D01*
X676680Y-142465D01*
X676735Y-142446D01*
X676807Y-142437D01*
X676898Y-142419D01*
X677017Y-142401D01*
X677154Y-142374D01*
X677318Y-142355D01*
X677327D01*
X677363Y-142346D01*
X677409D01*
X677472Y-142337D01*
X677545Y-142328D01*
X677636Y-142310D01*
X677737Y-142301D01*
X677846Y-142282D01*
X678065Y-142237D01*
X678301Y-142191D01*
X678511Y-142137D01*
X678611Y-142109D01*
X678702Y-142082D01*
Y-142073D01*
Y-142055D01*
X678711Y-142000D01*
Y-141936D01*
Y-141900D01*
Y-141882D01*
Y-141873D01*
Y-141864D01*
Y-141809D01*
X678702Y-141718D01*
X678684Y-141618D01*
X678657Y-141508D01*
X678611Y-141399D01*
X678556Y-141299D01*
X678484Y-141217D01*
X678475Y-141208D01*
X678429Y-141171D01*
X678356Y-141135D01*
X678265Y-141080D01*
X678137Y-141034D01*
X677992Y-140989D01*
X677809Y-140962D01*
X677600Y-140953D01*
X677509D01*
X677418Y-140962D01*
X677290Y-140980D01*
X677163Y-140998D01*
X677026Y-141034D01*
X676898Y-141080D01*
X676789Y-141144D01*
X676780Y-141153D01*
X676744Y-141180D01*
X676698Y-141226D01*
X676644Y-141299D01*
X676589Y-141390D01*
X676525Y-141508D01*
X676470Y-141654D01*
X676416Y-141818D01*
X675660Y-141718D01*
Y-141709D01*
X675669Y-141700D01*
Y-141672D01*
X675678Y-141636D01*
X675705Y-141554D01*
X675742Y-141435D01*
X675787Y-141317D01*
X675842Y-141189D01*
X675915Y-141062D01*
X675997Y-140943D01*
X676006Y-140934D01*
X676042Y-140898D01*
X676097Y-140843D01*
X676170Y-140770D01*
X676270Y-140697D01*
X676388Y-140624D01*
X676525Y-140542D01*
X676680Y-140479D01*
X676689D01*
X676698Y-140470D01*
X676725Y-140461D01*
X676762Y-140451D01*
X676853Y-140424D01*
X676980Y-140397D01*
X677126Y-140369D01*
X677309Y-140342D01*
X677500Y-140324D01*
X677718Y-140315D01*
X677819D01*
X677919Y-140324D01*
D02*
G37*
G36*
X669182Y-138693D02*
X669365Y-138702D01*
X669547Y-138721D01*
X669729Y-138748D01*
X669884Y-138775D01*
X669893D01*
X669911Y-138784D01*
X669939D01*
X669975Y-138803D01*
X670075Y-138830D01*
X670203Y-138875D01*
X670348Y-138939D01*
X670503Y-139021D01*
X670658Y-139112D01*
X670804Y-139231D01*
X670813Y-139240D01*
X670822Y-139249D01*
X670850Y-139276D01*
X670886Y-139304D01*
X670977Y-139395D01*
X671086Y-139522D01*
X671205Y-139677D01*
X671332Y-139859D01*
X671451Y-140069D01*
X671551Y-140306D01*
Y-140315D01*
X671560Y-140333D01*
X671578Y-140369D01*
X671587Y-140424D01*
X671615Y-140488D01*
X671633Y-140561D01*
X671651Y-140643D01*
X671678Y-140743D01*
X671706Y-140843D01*
X671724Y-140962D01*
X671770Y-141217D01*
X671797Y-141499D01*
X671806Y-141809D01*
Y-141818D01*
Y-141836D01*
Y-141882D01*
Y-141927D01*
X671797Y-141991D01*
Y-142064D01*
X671788Y-142237D01*
X671761Y-142437D01*
X671733Y-142647D01*
X671688Y-142866D01*
X671633Y-143084D01*
Y-143093D01*
X671624Y-143112D01*
X671615Y-143139D01*
X671606Y-143175D01*
X671569Y-143275D01*
X671515Y-143403D01*
X671460Y-143549D01*
X671387Y-143695D01*
X671296Y-143850D01*
X671205Y-143995D01*
X671196Y-144013D01*
X671159Y-144059D01*
X671105Y-144123D01*
X671032Y-144205D01*
X670950Y-144296D01*
X670850Y-144387D01*
X670749Y-144487D01*
X670631Y-144569D01*
X670613Y-144578D01*
X670576Y-144606D01*
X670512Y-144642D01*
X670421Y-144688D01*
X670312Y-144742D01*
X670185Y-144788D01*
X670039Y-144842D01*
X669875Y-144888D01*
X669857D01*
X669829Y-144897D01*
X669802Y-144906D01*
X669711Y-144915D01*
X669583Y-144933D01*
X669437Y-144952D01*
X669264Y-144970D01*
X669073Y-144979D01*
X668863Y-144988D01*
X666595D01*
Y-138684D01*
X669018D01*
X669182Y-138693D01*
D02*
G37*
G36*
X662842Y-144988D02*
X662068D01*
Y-138684D01*
X662842D01*
Y-144988D01*
D02*
G37*
G36*
X660883D02*
X660109D01*
Y-138684D01*
X660883D01*
Y-144988D01*
D02*
G37*
G36*
X658943D02*
X658168D01*
Y-140415D01*
X658943D01*
Y-144988D01*
D02*
G37*
G36*
X651564Y-138693D02*
X651746Y-138702D01*
X651928Y-138721D01*
X652110Y-138748D01*
X652265Y-138775D01*
X652274D01*
X652292Y-138784D01*
X652320D01*
X652356Y-138803D01*
X652456Y-138830D01*
X652584Y-138875D01*
X652730Y-138939D01*
X652885Y-139021D01*
X653039Y-139112D01*
X653185Y-139231D01*
X653194Y-139240D01*
X653203Y-139249D01*
X653231Y-139276D01*
X653267Y-139304D01*
X653358Y-139395D01*
X653468Y-139522D01*
X653586Y-139677D01*
X653714Y-139859D01*
X653832Y-140069D01*
X653932Y-140306D01*
Y-140315D01*
X653941Y-140333D01*
X653960Y-140369D01*
X653969Y-140424D01*
X653996Y-140488D01*
X654014Y-140561D01*
X654032Y-140643D01*
X654060Y-140743D01*
X654087Y-140843D01*
X654105Y-140962D01*
X654151Y-141217D01*
X654178Y-141499D01*
X654187Y-141809D01*
Y-141818D01*
Y-141836D01*
Y-141882D01*
Y-141927D01*
X654178Y-141991D01*
Y-142064D01*
X654169Y-142237D01*
X654142Y-142437D01*
X654114Y-142647D01*
X654069Y-142866D01*
X654014Y-143084D01*
Y-143093D01*
X654005Y-143112D01*
X653996Y-143139D01*
X653987Y-143175D01*
X653950Y-143275D01*
X653896Y-143403D01*
X653841Y-143549D01*
X653768Y-143695D01*
X653677Y-143850D01*
X653586Y-143995D01*
X653577Y-144013D01*
X653541Y-144059D01*
X653486Y-144123D01*
X653413Y-144205D01*
X653331Y-144296D01*
X653231Y-144387D01*
X653130Y-144487D01*
X653012Y-144569D01*
X652994Y-144578D01*
X652957Y-144606D01*
X652894Y-144642D01*
X652803Y-144688D01*
X652693Y-144742D01*
X652566Y-144788D01*
X652420Y-144842D01*
X652256Y-144888D01*
X652238D01*
X652210Y-144897D01*
X652183Y-144906D01*
X652092Y-144915D01*
X651965Y-144933D01*
X651819Y-144952D01*
X651646Y-144970D01*
X651454Y-144979D01*
X651245Y-144988D01*
X648976D01*
Y-138684D01*
X651400D01*
X651564Y-138693D01*
D02*
G37*
G36*
X695720Y-140324D02*
X695784Y-140333D01*
X695865Y-140351D01*
X695957Y-140369D01*
X696057Y-140397D01*
X696157Y-140433D01*
X696266Y-140479D01*
X696376Y-140533D01*
X696494Y-140597D01*
X696603Y-140670D01*
X696713Y-140761D01*
X696822Y-140861D01*
X696922Y-140980D01*
Y-140415D01*
X697633D01*
Y-144369D01*
Y-144378D01*
Y-144414D01*
Y-144469D01*
Y-144542D01*
X697624Y-144624D01*
Y-144724D01*
X697615Y-144833D01*
X697606Y-144952D01*
X697578Y-145198D01*
X697542Y-145453D01*
X697514Y-145571D01*
X697487Y-145681D01*
X697451Y-145781D01*
X697414Y-145872D01*
Y-145881D01*
X697405Y-145890D01*
X697369Y-145945D01*
X697323Y-146027D01*
X697250Y-146127D01*
X697150Y-146236D01*
X697032Y-146355D01*
X696886Y-146473D01*
X696722Y-146573D01*
X696713D01*
X696704Y-146582D01*
X696676Y-146601D01*
X696640Y-146610D01*
X696594Y-146637D01*
X696540Y-146655D01*
X696403Y-146701D01*
X696239Y-146756D01*
X696039Y-146792D01*
X695811Y-146828D01*
X695565Y-146837D01*
X695483D01*
X695428Y-146828D01*
X695355D01*
X695283Y-146819D01*
X695191Y-146810D01*
X695091Y-146792D01*
X694882Y-146746D01*
X694663Y-146683D01*
X694444Y-146592D01*
X694244Y-146464D01*
X694235Y-146455D01*
X694226Y-146446D01*
X694162Y-146391D01*
X694089Y-146309D01*
X693998Y-146191D01*
X693907Y-146036D01*
X693825Y-145844D01*
X693798Y-145735D01*
X693779Y-145617D01*
X693761Y-145498D01*
Y-145362D01*
X694517Y-145462D01*
Y-145480D01*
X694526Y-145517D01*
X694545Y-145580D01*
X694563Y-145662D01*
X694599Y-145744D01*
X694645Y-145826D01*
X694699Y-145908D01*
X694772Y-145972D01*
X694791Y-145981D01*
X694827Y-146009D01*
X694891Y-146045D01*
X694982Y-146081D01*
X695091Y-146127D01*
X695228Y-146163D01*
X695392Y-146191D01*
X695565Y-146200D01*
X695656D01*
X695747Y-146191D01*
X695875Y-146172D01*
X696002Y-146145D01*
X696139Y-146109D01*
X696276Y-146054D01*
X696394Y-145981D01*
X696403Y-145972D01*
X696440Y-145945D01*
X696494Y-145890D01*
X696558Y-145826D01*
X696622Y-145735D01*
X696686Y-145635D01*
X696749Y-145517D01*
X696795Y-145380D01*
Y-145371D01*
X696804Y-145334D01*
X696813Y-145262D01*
X696822Y-145170D01*
X696831Y-145107D01*
Y-145034D01*
X696840Y-144952D01*
Y-144861D01*
Y-144760D01*
X696849Y-144642D01*
Y-144524D01*
Y-144387D01*
X696840Y-144396D01*
X696822Y-144414D01*
X696795Y-144442D01*
X696758Y-144478D01*
X696713Y-144524D01*
X696649Y-144578D01*
X696576Y-144633D01*
X696503Y-144688D01*
X696312Y-144797D01*
X696102Y-144897D01*
X695984Y-144933D01*
X695856Y-144961D01*
X695720Y-144979D01*
X695583Y-144988D01*
X695538D01*
X695492Y-144979D01*
X695428D01*
X695346Y-144970D01*
X695255Y-144952D01*
X695155Y-144933D01*
X695046Y-144906D01*
X694927Y-144870D01*
X694809Y-144824D01*
X694690Y-144770D01*
X694563Y-144706D01*
X694444Y-144624D01*
X694326Y-144533D01*
X694217Y-144432D01*
X694116Y-144314D01*
X694107Y-144305D01*
X694098Y-144287D01*
X694071Y-144241D01*
X694034Y-144196D01*
X693998Y-144123D01*
X693953Y-144050D01*
X693907Y-143959D01*
X693861Y-143850D01*
X693816Y-143740D01*
X693770Y-143613D01*
X693725Y-143485D01*
X693688Y-143339D01*
X693624Y-143029D01*
X693615Y-142857D01*
X693606Y-142683D01*
Y-142674D01*
Y-142656D01*
Y-142620D01*
Y-142574D01*
X693615Y-142510D01*
Y-142446D01*
X693634Y-142282D01*
X693661Y-142100D01*
X693707Y-141900D01*
X693761Y-141690D01*
X693843Y-141481D01*
Y-141472D01*
X693852Y-141454D01*
X693870Y-141426D01*
X693889Y-141390D01*
X693943Y-141289D01*
X694016Y-141162D01*
X694116Y-141025D01*
X694235Y-140889D01*
X694372Y-140743D01*
X694526Y-140624D01*
X694535D01*
X694545Y-140615D01*
X694572Y-140597D01*
X694608Y-140579D01*
X694699Y-140524D01*
X694827Y-140470D01*
X694982Y-140415D01*
X695164Y-140360D01*
X695365Y-140324D01*
X695583Y-140315D01*
X695665D01*
X695720Y-140324D01*
D02*
G37*
%LPC*%
G36*
X678711Y-142692D02*
X678702D01*
X678693Y-142702D01*
X678666Y-142711D01*
X678629Y-142720D01*
X678584Y-142738D01*
X678529Y-142756D01*
X678465Y-142774D01*
X678393Y-142793D01*
X678311Y-142820D01*
X678210Y-142838D01*
X678110Y-142866D01*
X677992Y-142893D01*
X677864Y-142920D01*
X677737Y-142948D01*
X677591Y-142966D01*
X677436Y-142993D01*
X677418D01*
X677363Y-143002D01*
X677272Y-143020D01*
X677172Y-143039D01*
X677063Y-143057D01*
X676953Y-143084D01*
X676853Y-143112D01*
X676762Y-143148D01*
X676753D01*
X676725Y-143166D01*
X676689Y-143184D01*
X676653Y-143212D01*
X676543Y-143285D01*
X676452Y-143394D01*
Y-143403D01*
X676434Y-143421D01*
X676425Y-143458D01*
X676407Y-143503D01*
X676388Y-143558D01*
X676370Y-143613D01*
X676361Y-143685D01*
X676352Y-143758D01*
Y-143767D01*
Y-143813D01*
X676361Y-143868D01*
X676379Y-143941D01*
X676407Y-144023D01*
X676452Y-144105D01*
X676507Y-144196D01*
X676580Y-144278D01*
X676589Y-144287D01*
X676625Y-144305D01*
X676680Y-144341D01*
X676753Y-144378D01*
X676853Y-144414D01*
X676971Y-144451D01*
X677108Y-144469D01*
X677272Y-144478D01*
X677345D01*
X677436Y-144469D01*
X677536Y-144451D01*
X677664Y-144432D01*
X677791Y-144396D01*
X677928Y-144351D01*
X678065Y-144287D01*
X678083Y-144278D01*
X678119Y-144250D01*
X678183Y-144205D01*
X678256Y-144141D01*
X678338Y-144068D01*
X678429Y-143977D01*
X678502Y-143868D01*
X678575Y-143749D01*
X678584Y-143740D01*
X678593Y-143704D01*
X678611Y-143640D01*
X678639Y-143558D01*
X678666Y-143449D01*
X678684Y-143321D01*
X678693Y-143166D01*
X678702Y-142984D01*
X678711Y-142692D01*
D02*
G37*
G36*
X668891Y-139431D02*
X667433D01*
Y-144241D01*
X668927D01*
X668991Y-144232D01*
X669128Y-144223D01*
X669283Y-144214D01*
X669447Y-144196D01*
X669611Y-144168D01*
X669747Y-144132D01*
X669765Y-144123D01*
X669811Y-144114D01*
X669875Y-144086D01*
X669957Y-144050D01*
X670048Y-143995D01*
X670139Y-143941D01*
X670230Y-143877D01*
X670321Y-143804D01*
X670330Y-143786D01*
X670367Y-143749D01*
X670421Y-143685D01*
X670485Y-143594D01*
X670558Y-143476D01*
X670640Y-143339D01*
X670713Y-143184D01*
X670777Y-143011D01*
Y-143002D01*
X670786Y-142984D01*
X670795Y-142957D01*
X670804Y-142920D01*
X670813Y-142875D01*
X670831Y-142811D01*
X670850Y-142747D01*
X670868Y-142674D01*
X670895Y-142492D01*
X670922Y-142282D01*
X670941Y-142046D01*
X670950Y-141791D01*
Y-141781D01*
Y-141745D01*
Y-141700D01*
X670941Y-141627D01*
Y-141545D01*
X670931Y-141454D01*
X670922Y-141344D01*
X670913Y-141235D01*
X670868Y-140989D01*
X670813Y-140734D01*
X670731Y-140497D01*
X670676Y-140378D01*
X670622Y-140278D01*
Y-140269D01*
X670604Y-140251D01*
X670585Y-140224D01*
X670567Y-140187D01*
X670494Y-140096D01*
X670403Y-139987D01*
X670285Y-139868D01*
X670148Y-139750D01*
X669993Y-139650D01*
X669829Y-139568D01*
X669811Y-139559D01*
X669765Y-139550D01*
X669683Y-139522D01*
X669565Y-139495D01*
X669419Y-139477D01*
X669237Y-139449D01*
X669128Y-139440D01*
X669009D01*
X668891Y-139431D01*
D02*
G37*
G36*
X651272D02*
X649815D01*
Y-144241D01*
X651308D01*
X651372Y-144232D01*
X651509Y-144223D01*
X651664Y-144214D01*
X651828Y-144196D01*
X651992Y-144168D01*
X652128Y-144132D01*
X652147Y-144123D01*
X652192Y-144114D01*
X652256Y-144086D01*
X652338Y-144050D01*
X652429Y-143995D01*
X652520Y-143941D01*
X652611Y-143877D01*
X652702Y-143804D01*
X652711Y-143786D01*
X652748Y-143749D01*
X652803Y-143685D01*
X652866Y-143594D01*
X652939Y-143476D01*
X653021Y-143339D01*
X653094Y-143184D01*
X653158Y-143011D01*
Y-143002D01*
X653167Y-142984D01*
X653176Y-142957D01*
X653185Y-142920D01*
X653194Y-142875D01*
X653212Y-142811D01*
X653231Y-142747D01*
X653249Y-142674D01*
X653276Y-142492D01*
X653304Y-142282D01*
X653322Y-142046D01*
X653331Y-141791D01*
Y-141781D01*
Y-141745D01*
Y-141700D01*
X653322Y-141627D01*
Y-141545D01*
X653313Y-141454D01*
X653304Y-141344D01*
X653295Y-141235D01*
X653249Y-140989D01*
X653194Y-140734D01*
X653112Y-140497D01*
X653058Y-140378D01*
X653003Y-140278D01*
Y-140269D01*
X652985Y-140251D01*
X652967Y-140224D01*
X652948Y-140187D01*
X652876Y-140096D01*
X652784Y-139987D01*
X652666Y-139868D01*
X652529Y-139750D01*
X652374Y-139650D01*
X652210Y-139568D01*
X652192Y-139559D01*
X652147Y-139550D01*
X652065Y-139522D01*
X651946Y-139495D01*
X651800Y-139477D01*
X651618Y-139449D01*
X651509Y-139440D01*
X651391D01*
X651272Y-139431D01*
D02*
G37*
G36*
X695738Y-140953D02*
X695592D01*
X695556Y-140962D01*
X695456Y-140971D01*
X695337Y-141007D01*
X695191Y-141053D01*
X695046Y-141135D01*
X694900Y-141235D01*
X694827Y-141308D01*
X694754Y-141381D01*
Y-141390D01*
X694736Y-141399D01*
X694718Y-141426D01*
X694699Y-141463D01*
X694672Y-141499D01*
X694645Y-141554D01*
X694608Y-141618D01*
X694581Y-141690D01*
X694545Y-141772D01*
X694508Y-141873D01*
X694481Y-141973D01*
X694453Y-142082D01*
X694435Y-142210D01*
X694417Y-142337D01*
X694399Y-142474D01*
Y-142629D01*
Y-142638D01*
Y-142665D01*
Y-142711D01*
X694408Y-142774D01*
Y-142847D01*
X694417Y-142938D01*
X694444Y-143130D01*
X694490Y-143348D01*
X694545Y-143558D01*
X694636Y-143767D01*
X694690Y-143859D01*
X694754Y-143941D01*
X694772Y-143959D01*
X694818Y-144004D01*
X694891Y-144068D01*
X695000Y-144141D01*
X695128Y-144223D01*
X695283Y-144287D01*
X695456Y-144332D01*
X695547Y-144341D01*
X695647Y-144351D01*
X695702D01*
X695738Y-144341D01*
X695838Y-144332D01*
X695966Y-144296D01*
X696102Y-144250D01*
X696257Y-144177D01*
X696403Y-144077D01*
X696476Y-144013D01*
X696549Y-143941D01*
Y-143931D01*
X696567Y-143922D01*
X696585Y-143895D01*
X696603Y-143859D01*
X696631Y-143822D01*
X696667Y-143767D01*
X696695Y-143704D01*
X696731Y-143622D01*
X696767Y-143540D01*
X696795Y-143449D01*
X696831Y-143339D01*
X696859Y-143221D01*
X696877Y-143102D01*
X696895Y-142966D01*
X696913Y-142811D01*
Y-142656D01*
Y-142647D01*
Y-142620D01*
Y-142574D01*
X696904Y-142519D01*
Y-142446D01*
X696895Y-142365D01*
X696868Y-142182D01*
X696822Y-141973D01*
X696758Y-141763D01*
X696667Y-141554D01*
X696603Y-141463D01*
X696540Y-141381D01*
Y-141372D01*
X696522Y-141362D01*
X696476Y-141317D01*
X696394Y-141244D01*
X696285Y-141162D01*
X696157Y-141089D01*
X696002Y-141016D01*
X695829Y-140971D01*
X695738Y-140953D01*
D02*
G37*
%LPD*%
D10*
X461876Y235263D02*
X917129D01*
X461876Y163927D02*
X917129D01*
X461876Y152038D02*
X917129D01*
Y247153D01*
X461876D02*
X917129D01*
X461876Y152038D02*
Y247153D01*
X866146Y152038D02*
Y247153D01*
X746874Y152038D02*
Y247153D01*
X688047Y152038D02*
Y247153D01*
X647287Y152038D02*
Y247153D01*
X554163Y152038D02*
Y247153D01*
X506203Y152038D02*
Y247153D01*
D11*
X14449Y349882D02*
G03*
X45Y335005I609J-15002D01*
G01*
X326575Y341220D02*
G03*
X314724Y349882I-12571J-4763D01*
G01*
X326575Y341339D02*
G03*
X338898Y331928I13326J4677D01*
G01*
X361631Y319611D02*
G03*
X349410Y331906I-12330J-35D01*
G01*
X339435Y14356D02*
G03*
X327284Y8150I-253J-14503D01*
G01*
X348242Y14356D02*
G03*
X361631Y27953I-102J13490D01*
G01*
X311967Y-72D02*
G03*
X327284Y8150I575J17307D01*
G01*
X29278Y2252D02*
G03*
X34488Y-72I4950J4095D01*
G01*
X29278Y2252D02*
G03*
X21524Y6947I-10086J-7908D01*
G01*
X39Y18032D02*
G03*
X11317Y6947I11796J722D01*
G01*
X39Y18032D02*
Y334880D01*
X14449Y349882D02*
X16575D01*
X314724D01*
X338898Y331928D02*
X349301D01*
X361631Y27953D02*
X361631Y319611D01*
X339181Y14356D02*
X348242D01*
X34488Y-72D02*
X311967Y-72D01*
X11317Y6947D02*
X21524D01*
X471964Y182026D02*
G03*
X471964Y182026I-2642J0D01*
G01*
X469322Y226941D02*
X471964Y232225D01*
X466680D02*
X471964D01*
X466680D02*
X469322Y226941D01*
X466680Y217694D02*
X469322Y215052D01*
X471964Y217694D01*
X469322Y220336D02*
X471964Y217694D01*
X466680D02*
X469322Y220336D01*
X466680Y203162D02*
X471964D01*
Y208446D01*
X466680D02*
X471964D01*
X466680Y203162D02*
Y208446D01*
Y191273D02*
X469322Y192594D01*
X471964Y191273D01*
X470643Y193915D02*
X471964Y191273D01*
X470643Y193915D02*
X471964Y196557D01*
X469322Y195236D02*
X471964Y196557D01*
X466680D02*
X469322Y195236D01*
X466680Y196557D02*
X468001Y193915D01*
X466680Y191273D02*
X468001Y193915D01*
X466680Y168815D02*
X468001D01*
X466680D02*
Y171457D01*
X468001D01*
Y172778D01*
X470643D01*
Y171457D02*
Y172778D01*
Y171457D02*
X471964D01*
Y168815D02*
Y171457D01*
X470643Y168815D02*
X471964D01*
X470643Y167494D02*
Y168815D01*
X468001Y167494D02*
X470643D01*
X468001D02*
Y168815D01*
X869713Y226941D02*
Y231695D01*
X872090D01*
X872882Y230903D01*
Y229318D01*
X872090Y228526D01*
X869713D01*
X875259Y230110D02*
X876844D01*
X877637Y229318D01*
Y226941D01*
X875259D01*
X874467Y227733D01*
X875259Y228526D01*
X877637D01*
X882391Y231695D02*
Y226941D01*
X880014D01*
X879221Y227733D01*
Y229318D01*
X880014Y230110D01*
X882391D01*
X869713Y219806D02*
Y216636D01*
X871298Y215052D01*
X872882Y216636D01*
Y219806D01*
X874467Y215052D02*
X876052D01*
X875259D01*
Y218221D01*
X874467D01*
X879221D02*
X880806D01*
X881598Y217429D01*
Y215052D01*
X879221D01*
X878429Y215844D01*
X879221Y216636D01*
X881598D01*
X869713Y203162D02*
Y207916D01*
X872090D01*
X872882Y207124D01*
Y205539D01*
X872090Y204747D01*
X869713D01*
X875259Y206332D02*
X876844D01*
X877637Y205539D01*
Y203162D01*
X875259D01*
X874467Y203955D01*
X875259Y204747D01*
X877637D01*
X882391Y207916D02*
Y203162D01*
X880014D01*
X879221Y203955D01*
Y205539D01*
X880014Y206332D01*
X882391D01*
X869713Y196027D02*
Y192858D01*
X871298Y191273D01*
X872882Y192858D01*
Y196027D01*
X874467Y191273D02*
X876052D01*
X875259D01*
Y194442D01*
X874467D01*
X879221D02*
X880806D01*
X881598Y193650D01*
Y191273D01*
X879221D01*
X878429Y192065D01*
X879221Y192858D01*
X881598D01*
X869713Y179384D02*
Y184138D01*
X872090D01*
X872882Y183345D01*
Y181761D01*
X872090Y180968D01*
X869713D01*
X875259Y182553D02*
X876844D01*
X877637Y181761D01*
Y179384D01*
X875259D01*
X874467Y180176D01*
X875259Y180968D01*
X877637D01*
X882391Y184138D02*
Y179384D01*
X880014D01*
X879221Y180176D01*
Y181761D01*
X880014Y182553D01*
X882391D01*
X869713Y172248D02*
Y169079D01*
X871298Y167494D01*
X872882Y169079D01*
Y172248D01*
X874467Y167494D02*
X876052D01*
X875259D01*
Y170664D01*
X874467D01*
X879221D02*
X880806D01*
X881598Y169871D01*
Y167494D01*
X879221D01*
X878429Y168287D01*
X879221Y169079D01*
X881598D01*
X750441Y231695D02*
X753610D01*
X752025D01*
Y226941D01*
X755987D02*
X757572D01*
X758364Y227733D01*
Y229318D01*
X757572Y230110D01*
X755987D01*
X755195Y229318D01*
Y227733D01*
X755987Y226941D01*
X759949Y225356D02*
Y230110D01*
X762326D01*
X763118Y229318D01*
Y227733D01*
X762326Y226941D01*
X759949D01*
X769457Y231695D02*
Y226941D01*
X772627D01*
X775004Y230110D02*
X776589D01*
X777381Y229318D01*
Y226941D01*
X775004D01*
X774212Y227733D01*
X775004Y228526D01*
X777381D01*
X778966Y230110D02*
Y227733D01*
X779758Y226941D01*
X782135D01*
Y226149D01*
X781343Y225356D01*
X780550D01*
X782135Y226941D02*
Y230110D01*
X786097Y226941D02*
X784512D01*
X783720Y227733D01*
Y229318D01*
X784512Y230110D01*
X786097D01*
X786889Y229318D01*
Y228526D01*
X783720D01*
X788474Y230110D02*
Y226941D01*
Y228526D01*
X789266Y229318D01*
X790059Y230110D01*
X790851D01*
X797983Y229318D02*
X801152D01*
X807491Y231695D02*
Y226941D01*
X809868D01*
X810660Y227733D01*
Y228526D01*
X809868Y229318D01*
X807491D01*
X809868D01*
X810660Y230110D01*
Y230903D01*
X809868Y231695D01*
X807491D01*
X813037Y226941D02*
X814622D01*
X815415Y227733D01*
Y229318D01*
X814622Y230110D01*
X813037D01*
X812245Y229318D01*
Y227733D01*
X813037Y226941D01*
X817792Y230903D02*
Y230110D01*
X816999D01*
X818584D01*
X817792D01*
Y227733D01*
X818584Y226941D01*
X821753Y230903D02*
Y230110D01*
X820961D01*
X822546D01*
X821753D01*
Y227733D01*
X822546Y226941D01*
X825715D02*
X827300D01*
X828092Y227733D01*
Y229318D01*
X827300Y230110D01*
X825715D01*
X824923Y229318D01*
Y227733D01*
X825715Y226941D01*
X829677D02*
Y230110D01*
X830469D01*
X831262Y229318D01*
Y226941D01*
Y229318D01*
X832054Y230110D01*
X832847Y229318D01*
Y226941D01*
X839185Y231695D02*
Y226941D01*
X842355D01*
X844732Y230110D02*
X846317D01*
X847109Y229318D01*
Y226941D01*
X844732D01*
X843940Y227733D01*
X844732Y228526D01*
X847109D01*
X848694Y230110D02*
Y227733D01*
X849486Y226941D01*
X851863D01*
Y226149D01*
X851071Y225356D01*
X850279D01*
X851863Y226941D02*
Y230110D01*
X855825Y226941D02*
X854240D01*
X853448Y227733D01*
Y229318D01*
X854240Y230110D01*
X855825D01*
X856618Y229318D01*
Y228526D01*
X853448D01*
X858202Y230110D02*
Y226941D01*
Y228526D01*
X858995Y229318D01*
X859787Y230110D01*
X860579D01*
X750441Y219806D02*
X753610D01*
X752025D01*
Y215052D01*
X755987D02*
X757572D01*
X758364Y215844D01*
Y217429D01*
X757572Y218221D01*
X755987D01*
X755195Y217429D01*
Y215844D01*
X755987Y215052D01*
X759949Y213467D02*
Y218221D01*
X762326D01*
X763118Y217429D01*
Y215844D01*
X762326Y215052D01*
X759949D01*
X769457Y219806D02*
Y215052D01*
X772627D01*
X775004Y218221D02*
X776589D01*
X777381Y217429D01*
Y215052D01*
X775004D01*
X774212Y215844D01*
X775004Y216636D01*
X777381D01*
X778966Y218221D02*
Y215844D01*
X779758Y215052D01*
X782135D01*
Y214259D01*
X781343Y213467D01*
X780550D01*
X782135Y215052D02*
Y218221D01*
X786097Y215052D02*
X784512D01*
X783720Y215844D01*
Y217429D01*
X784512Y218221D01*
X786097D01*
X786889Y217429D01*
Y216636D01*
X783720D01*
X788474Y218221D02*
Y215052D01*
Y216636D01*
X789266Y217429D01*
X790059Y218221D01*
X790851D01*
X797983Y217429D02*
X801152D01*
X807491Y219806D02*
Y215052D01*
X809868D01*
X810660Y215844D01*
Y216636D01*
X809868Y217429D01*
X807491D01*
X809868D01*
X810660Y218221D01*
Y219013D01*
X809868Y219806D01*
X807491D01*
X813037Y215052D02*
X814622D01*
X815415Y215844D01*
Y217429D01*
X814622Y218221D01*
X813037D01*
X812245Y217429D01*
Y215844D01*
X813037Y215052D01*
X817792Y219013D02*
Y218221D01*
X816999D01*
X818584D01*
X817792D01*
Y215844D01*
X818584Y215052D01*
X821753Y219013D02*
Y218221D01*
X820961D01*
X822546D01*
X821753D01*
Y215844D01*
X822546Y215052D01*
X825715D02*
X827300D01*
X828092Y215844D01*
Y217429D01*
X827300Y218221D01*
X825715D01*
X824923Y217429D01*
Y215844D01*
X825715Y215052D01*
X829677D02*
Y218221D01*
X830469D01*
X831262Y217429D01*
Y215052D01*
Y217429D01*
X832054Y218221D01*
X832847Y217429D01*
Y215052D01*
X839185Y219806D02*
Y215052D01*
X842355D01*
X844732Y218221D02*
X846317D01*
X847109Y217429D01*
Y215052D01*
X844732D01*
X843940Y215844D01*
X844732Y216636D01*
X847109D01*
X848694Y218221D02*
Y215844D01*
X849486Y215052D01*
X851863D01*
Y214259D01*
X851071Y213467D01*
X850279D01*
X851863Y215052D02*
Y218221D01*
X855825Y215052D02*
X854240D01*
X853448Y215844D01*
Y217429D01*
X854240Y218221D01*
X855825D01*
X856618Y217429D01*
Y216636D01*
X853448D01*
X858202Y218221D02*
Y215052D01*
Y216636D01*
X858995Y217429D01*
X859787Y218221D01*
X860579D01*
X750441Y207916D02*
X753610D01*
X752025D01*
Y203162D01*
X755987D02*
X757572D01*
X758364Y203955D01*
Y205539D01*
X757572Y206332D01*
X755987D01*
X755195Y205539D01*
Y203955D01*
X755987Y203162D01*
X759949Y201577D02*
Y206332D01*
X762326D01*
X763118Y205539D01*
Y203955D01*
X762326Y203162D01*
X759949D01*
X769457Y207916D02*
Y203162D01*
X772627D01*
X775004Y206332D02*
X776589D01*
X777381Y205539D01*
Y203162D01*
X775004D01*
X774212Y203955D01*
X775004Y204747D01*
X777381D01*
X778966Y206332D02*
Y203955D01*
X779758Y203162D01*
X782135D01*
Y202370D01*
X781343Y201577D01*
X780550D01*
X782135Y203162D02*
Y206332D01*
X786097Y203162D02*
X784512D01*
X783720Y203955D01*
Y205539D01*
X784512Y206332D01*
X786097D01*
X786889Y205539D01*
Y204747D01*
X783720D01*
X788474Y206332D02*
Y203162D01*
Y204747D01*
X789266Y205539D01*
X790059Y206332D01*
X790851D01*
X797983Y205539D02*
X801152D01*
X807491Y207916D02*
Y203162D01*
X809868D01*
X810660Y203955D01*
Y204747D01*
X809868Y205539D01*
X807491D01*
X809868D01*
X810660Y206332D01*
Y207124D01*
X809868Y207916D01*
X807491D01*
X813037Y203162D02*
X814622D01*
X815415Y203955D01*
Y205539D01*
X814622Y206332D01*
X813037D01*
X812245Y205539D01*
Y203955D01*
X813037Y203162D01*
X817792Y207124D02*
Y206332D01*
X816999D01*
X818584D01*
X817792D01*
Y203955D01*
X818584Y203162D01*
X821753Y207124D02*
Y206332D01*
X820961D01*
X822546D01*
X821753D01*
Y203955D01*
X822546Y203162D01*
X825715D02*
X827300D01*
X828092Y203955D01*
Y205539D01*
X827300Y206332D01*
X825715D01*
X824923Y205539D01*
Y203955D01*
X825715Y203162D01*
X829677D02*
Y206332D01*
X830469D01*
X831262Y205539D01*
Y203162D01*
Y205539D01*
X832054Y206332D01*
X832847Y205539D01*
Y203162D01*
X839185Y207916D02*
Y203162D01*
X842355D01*
X844732Y206332D02*
X846317D01*
X847109Y205539D01*
Y203162D01*
X844732D01*
X843940Y203955D01*
X844732Y204747D01*
X847109D01*
X848694Y206332D02*
Y203955D01*
X849486Y203162D01*
X851863D01*
Y202370D01*
X851071Y201577D01*
X850279D01*
X851863Y203162D02*
Y206332D01*
X855825Y203162D02*
X854240D01*
X853448Y203955D01*
Y205539D01*
X854240Y206332D01*
X855825D01*
X856618Y205539D01*
Y204747D01*
X853448D01*
X858202Y206332D02*
Y203162D01*
Y204747D01*
X858995Y205539D01*
X859787Y206332D01*
X860579D01*
X750441Y196027D02*
X753610D01*
X752025D01*
Y191273D01*
X755987D02*
X757572D01*
X758364Y192065D01*
Y193650D01*
X757572Y194442D01*
X755987D01*
X755195Y193650D01*
Y192065D01*
X755987Y191273D01*
X759949Y189688D02*
Y194442D01*
X762326D01*
X763118Y193650D01*
Y192065D01*
X762326Y191273D01*
X759949D01*
X769457Y196027D02*
Y191273D01*
X772627D01*
X775004Y194442D02*
X776589D01*
X777381Y193650D01*
Y191273D01*
X775004D01*
X774212Y192065D01*
X775004Y192858D01*
X777381D01*
X778966Y194442D02*
Y192065D01*
X779758Y191273D01*
X782135D01*
Y190480D01*
X781343Y189688D01*
X780550D01*
X782135Y191273D02*
Y194442D01*
X786097Y191273D02*
X784512D01*
X783720Y192065D01*
Y193650D01*
X784512Y194442D01*
X786097D01*
X786889Y193650D01*
Y192858D01*
X783720D01*
X788474Y194442D02*
Y191273D01*
Y192858D01*
X789266Y193650D01*
X790059Y194442D01*
X790851D01*
X797983Y193650D02*
X801152D01*
X807491Y196027D02*
Y191273D01*
X809868D01*
X810660Y192065D01*
Y192858D01*
X809868Y193650D01*
X807491D01*
X809868D01*
X810660Y194442D01*
Y195235D01*
X809868Y196027D01*
X807491D01*
X813037Y191273D02*
X814622D01*
X815415Y192065D01*
Y193650D01*
X814622Y194442D01*
X813037D01*
X812245Y193650D01*
Y192065D01*
X813037Y191273D01*
X817792Y195235D02*
Y194442D01*
X816999D01*
X818584D01*
X817792D01*
Y192065D01*
X818584Y191273D01*
X821753Y195235D02*
Y194442D01*
X820961D01*
X822546D01*
X821753D01*
Y192065D01*
X822546Y191273D01*
X825715D02*
X827300D01*
X828092Y192065D01*
Y193650D01*
X827300Y194442D01*
X825715D01*
X824923Y193650D01*
Y192065D01*
X825715Y191273D01*
X829677D02*
Y194442D01*
X830469D01*
X831262Y193650D01*
Y191273D01*
Y193650D01*
X832054Y194442D01*
X832847Y193650D01*
Y191273D01*
X839185Y196027D02*
Y191273D01*
X842355D01*
X844732Y194442D02*
X846317D01*
X847109Y193650D01*
Y191273D01*
X844732D01*
X843940Y192065D01*
X844732Y192858D01*
X847109D01*
X848694Y194442D02*
Y192065D01*
X849486Y191273D01*
X851863D01*
Y190480D01*
X851071Y189688D01*
X850279D01*
X851863Y191273D02*
Y194442D01*
X855825Y191273D02*
X854240D01*
X853448Y192065D01*
Y193650D01*
X854240Y194442D01*
X855825D01*
X856618Y193650D01*
Y192858D01*
X853448D01*
X858202Y194442D02*
Y191273D01*
Y192858D01*
X858995Y193650D01*
X859787Y194442D01*
X860579D01*
X750441Y184138D02*
X753610D01*
X752025D01*
Y179384D01*
X755987D02*
X757572D01*
X758364Y180176D01*
Y181761D01*
X757572Y182553D01*
X755987D01*
X755195Y181761D01*
Y180176D01*
X755987Y179384D01*
X759949Y177799D02*
Y182553D01*
X762326D01*
X763118Y181761D01*
Y180176D01*
X762326Y179384D01*
X759949D01*
X769457Y184138D02*
Y179384D01*
X772627D01*
X775004Y182553D02*
X776589D01*
X777381Y181761D01*
Y179384D01*
X775004D01*
X774212Y180176D01*
X775004Y180968D01*
X777381D01*
X778966Y182553D02*
Y180176D01*
X779758Y179384D01*
X782135D01*
Y178591D01*
X781343Y177799D01*
X780550D01*
X782135Y179384D02*
Y182553D01*
X786097Y179384D02*
X784512D01*
X783720Y180176D01*
Y181761D01*
X784512Y182553D01*
X786097D01*
X786889Y181761D01*
Y180968D01*
X783720D01*
X788474Y182553D02*
Y179384D01*
Y180968D01*
X789266Y181761D01*
X790059Y182553D01*
X790851D01*
X797983Y181761D02*
X801152D01*
X807491Y184138D02*
Y179384D01*
X809868D01*
X810660Y180176D01*
Y180968D01*
X809868Y181761D01*
X807491D01*
X809868D01*
X810660Y182553D01*
Y183345D01*
X809868Y184138D01*
X807491D01*
X813037Y179384D02*
X814622D01*
X815415Y180176D01*
Y181761D01*
X814622Y182553D01*
X813037D01*
X812245Y181761D01*
Y180176D01*
X813037Y179384D01*
X817792Y183345D02*
Y182553D01*
X816999D01*
X818584D01*
X817792D01*
Y180176D01*
X818584Y179384D01*
X821753Y183345D02*
Y182553D01*
X820961D01*
X822546D01*
X821753D01*
Y180176D01*
X822546Y179384D01*
X825715D02*
X827300D01*
X828092Y180176D01*
Y181761D01*
X827300Y182553D01*
X825715D01*
X824923Y181761D01*
Y180176D01*
X825715Y179384D01*
X829677D02*
Y182553D01*
X830469D01*
X831262Y181761D01*
Y179384D01*
Y181761D01*
X832054Y182553D01*
X832847Y181761D01*
Y179384D01*
X839185Y184138D02*
Y179384D01*
X842355D01*
X844732Y182553D02*
X846317D01*
X847109Y181761D01*
Y179384D01*
X844732D01*
X843940Y180176D01*
X844732Y180968D01*
X847109D01*
X848694Y182553D02*
Y180176D01*
X849486Y179384D01*
X851863D01*
Y178591D01*
X851071Y177799D01*
X850279D01*
X851863Y179384D02*
Y182553D01*
X855825Y179384D02*
X854240D01*
X853448Y180176D01*
Y181761D01*
X854240Y182553D01*
X855825D01*
X856618Y181761D01*
Y180968D01*
X853448D01*
X858202Y182553D02*
Y179384D01*
Y180968D01*
X858995Y181761D01*
X859787Y182553D01*
X860579D01*
X750441Y172248D02*
X753610D01*
X752025D01*
Y167494D01*
X755987D02*
X757572D01*
X758364Y168287D01*
Y169871D01*
X757572Y170664D01*
X755987D01*
X755195Y169871D01*
Y168287D01*
X755987Y167494D01*
X759949Y165910D02*
Y170664D01*
X762326D01*
X763118Y169871D01*
Y168287D01*
X762326Y167494D01*
X759949D01*
X769457Y172248D02*
Y167494D01*
X772627D01*
X775004Y170664D02*
X776589D01*
X777381Y169871D01*
Y167494D01*
X775004D01*
X774212Y168287D01*
X775004Y169079D01*
X777381D01*
X778966Y170664D02*
Y168287D01*
X779758Y167494D01*
X782135D01*
Y166702D01*
X781343Y165910D01*
X780550D01*
X782135Y167494D02*
Y170664D01*
X786097Y167494D02*
X784512D01*
X783720Y168287D01*
Y169871D01*
X784512Y170664D01*
X786097D01*
X786889Y169871D01*
Y169079D01*
X783720D01*
X788474Y170664D02*
Y167494D01*
Y169079D01*
X789266Y169871D01*
X790059Y170664D01*
X790851D01*
X797983Y169871D02*
X801152D01*
X807491Y172248D02*
Y167494D01*
X809868D01*
X810660Y168287D01*
Y169079D01*
X809868Y169871D01*
X807491D01*
X809868D01*
X810660Y170664D01*
Y171456D01*
X809868Y172248D01*
X807491D01*
X813037Y167494D02*
X814622D01*
X815415Y168287D01*
Y169871D01*
X814622Y170664D01*
X813037D01*
X812245Y169871D01*
Y168287D01*
X813037Y167494D01*
X817792Y171456D02*
Y170664D01*
X816999D01*
X818584D01*
X817792D01*
Y168287D01*
X818584Y167494D01*
X821753Y171456D02*
Y170664D01*
X820961D01*
X822546D01*
X821753D01*
Y168287D01*
X822546Y167494D01*
X825715D02*
X827300D01*
X828092Y168287D01*
Y169871D01*
X827300Y170664D01*
X825715D01*
X824923Y169871D01*
Y168287D01*
X825715Y167494D01*
X829677D02*
Y170664D01*
X830469D01*
X831262Y169871D01*
Y167494D01*
Y169871D01*
X832054Y170664D01*
X832847Y169871D01*
Y167494D01*
X839185Y172248D02*
Y167494D01*
X842355D01*
X844732Y170664D02*
X846317D01*
X847109Y169871D01*
Y167494D01*
X844732D01*
X843940Y168287D01*
X844732Y169079D01*
X847109D01*
X848694Y170664D02*
Y168287D01*
X849486Y167494D01*
X851863D01*
Y166702D01*
X851071Y165910D01*
X850279D01*
X851863Y167494D02*
Y170664D01*
X855825Y167494D02*
X854240D01*
X853448Y168287D01*
Y169871D01*
X854240Y170664D01*
X855825D01*
X856618Y169871D01*
Y169079D01*
X853448D01*
X858202Y170664D02*
Y167494D01*
Y169079D01*
X858995Y169871D01*
X859787Y170664D01*
X860579D01*
X691614Y226941D02*
Y231695D01*
X693991D01*
X694784Y230903D01*
Y229318D01*
X693991Y228526D01*
X691614D01*
X693199D02*
X694784Y226941D01*
X697161D02*
X698745D01*
X699538Y227733D01*
Y229318D01*
X698745Y230110D01*
X697161D01*
X696368Y229318D01*
Y227733D01*
X697161Y226941D01*
X701123Y230110D02*
Y227733D01*
X701915Y226941D01*
X704292D01*
Y230110D01*
X705877Y226941D02*
Y230110D01*
X708254D01*
X709046Y229318D01*
Y226941D01*
X713800Y231695D02*
Y226941D01*
X711423D01*
X710631Y227733D01*
Y229318D01*
X711423Y230110D01*
X713800D01*
X691614Y215052D02*
Y219806D01*
X693991D01*
X694784Y219013D01*
Y217429D01*
X693991Y216636D01*
X691614D01*
X693199D02*
X694784Y215052D01*
X697161D02*
X698745D01*
X699538Y215844D01*
Y217429D01*
X698745Y218221D01*
X697161D01*
X696368Y217429D01*
Y215844D01*
X697161Y215052D01*
X701123Y218221D02*
Y215844D01*
X701915Y215052D01*
X704292D01*
Y218221D01*
X705877Y215052D02*
Y218221D01*
X708254D01*
X709046Y217429D01*
Y215052D01*
X713800Y219806D02*
Y215052D01*
X711423D01*
X710631Y215844D01*
Y217429D01*
X711423Y218221D01*
X713800D01*
X691614Y203162D02*
Y207916D01*
X693991D01*
X694784Y207124D01*
Y205539D01*
X693991Y204747D01*
X691614D01*
X693199D02*
X694784Y203162D01*
X697161D02*
X698745D01*
X699538Y203955D01*
Y205539D01*
X698745Y206332D01*
X697161D01*
X696368Y205539D01*
Y203955D01*
X697161Y203162D01*
X701123Y206332D02*
Y203955D01*
X701915Y203162D01*
X704292D01*
Y206332D01*
X705877Y203162D02*
Y206332D01*
X708254D01*
X709046Y205539D01*
Y203162D01*
X713800Y207916D02*
Y203162D01*
X711423D01*
X710631Y203955D01*
Y205539D01*
X711423Y206332D01*
X713800D01*
X691614Y191273D02*
Y196027D01*
X693991D01*
X694784Y195235D01*
Y193650D01*
X693991Y192858D01*
X691614D01*
X693199D02*
X694784Y191273D01*
X697161D02*
X698745D01*
X699538Y192065D01*
Y193650D01*
X698745Y194442D01*
X697161D01*
X696368Y193650D01*
Y192065D01*
X697161Y191273D01*
X701123Y194442D02*
Y192065D01*
X701915Y191273D01*
X704292D01*
Y194442D01*
X705877Y191273D02*
Y194442D01*
X708254D01*
X709046Y193650D01*
Y191273D01*
X713800Y196027D02*
Y191273D01*
X711423D01*
X710631Y192065D01*
Y193650D01*
X711423Y194442D01*
X713800D01*
X691614Y179384D02*
Y184138D01*
X693991D01*
X694784Y183345D01*
Y181761D01*
X693991Y180968D01*
X691614D01*
X693199D02*
X694784Y179384D01*
X697161D02*
X698745D01*
X699538Y180176D01*
Y181761D01*
X698745Y182553D01*
X697161D01*
X696368Y181761D01*
Y180176D01*
X697161Y179384D01*
X701123Y182553D02*
Y180176D01*
X701915Y179384D01*
X704292D01*
Y182553D01*
X705877Y179384D02*
Y182553D01*
X708254D01*
X709046Y181761D01*
Y179384D01*
X713800Y184138D02*
Y179384D01*
X711423D01*
X710631Y180176D01*
Y181761D01*
X711423Y182553D01*
X713800D01*
X691614Y167494D02*
Y172248D01*
X693991D01*
X694784Y171456D01*
Y169871D01*
X693991Y169079D01*
X691614D01*
X693199D02*
X694784Y167494D01*
X697161D02*
X698745D01*
X699538Y168287D01*
Y169871D01*
X698745Y170664D01*
X697161D01*
X696368Y169871D01*
Y168287D01*
X697161Y167494D01*
X701123Y170664D02*
Y168287D01*
X701915Y167494D01*
X704292D01*
Y170664D01*
X705877Y167494D02*
Y170664D01*
X708254D01*
X709046Y169871D01*
Y167494D01*
X713800Y172248D02*
Y167494D01*
X711423D01*
X710631Y168287D01*
Y169871D01*
X711423Y170664D01*
X713800D01*
X650854Y226941D02*
Y231695D01*
X653231D01*
X654023Y230903D01*
Y229318D01*
X653231Y228526D01*
X650854D01*
X655608Y231695D02*
X658778D01*
X657193D01*
Y226941D01*
X660362Y231695D02*
Y226941D01*
Y229318D01*
X663532D01*
Y231695D01*
Y226941D01*
X650854Y215052D02*
Y219806D01*
X653231D01*
X654023Y219013D01*
Y217429D01*
X653231Y216636D01*
X650854D01*
X655608Y219806D02*
X658778D01*
X657193D01*
Y215052D01*
X660362Y219806D02*
Y215052D01*
Y217429D01*
X663532D01*
Y219806D01*
Y215052D01*
X650854Y203162D02*
Y207916D01*
X653231D01*
X654023Y207124D01*
Y205539D01*
X653231Y204747D01*
X650854D01*
X655608Y207916D02*
X658778D01*
X657193D01*
Y203162D01*
X660362Y207916D02*
Y203162D01*
Y205539D01*
X663532D01*
Y207916D01*
Y203162D01*
X650854Y191273D02*
Y196027D01*
X653231D01*
X654023Y195235D01*
Y193650D01*
X653231Y192858D01*
X650854D01*
X655608Y196027D02*
X658778D01*
X657193D01*
Y191273D01*
X660362Y196027D02*
Y191273D01*
Y193650D01*
X663532D01*
Y196027D01*
Y191273D01*
X650854Y179384D02*
Y184138D01*
X653231D01*
X654023Y183345D01*
Y181761D01*
X653231Y180968D01*
X650854D01*
X655608Y184138D02*
X658778D01*
X657193D01*
Y179384D01*
X660362Y184138D02*
Y179384D01*
Y181761D01*
X663532D01*
Y184138D01*
Y179384D01*
X650854Y167494D02*
Y172248D01*
X653231D01*
X654023Y171456D01*
Y169871D01*
X653231Y169079D01*
X650854D01*
X655608Y172248D02*
X658778D01*
X657193D01*
Y167494D01*
X660362Y172248D02*
Y167494D01*
Y169871D01*
X663532D01*
Y172248D01*
Y167494D01*
X557729Y230903D02*
X558522Y231695D01*
X560107D01*
X560899Y230903D01*
Y230110D01*
X560107Y229318D01*
X559314D01*
X560107D01*
X560899Y228526D01*
Y227733D01*
X560107Y226941D01*
X558522D01*
X557729Y227733D01*
X563276Y226149D02*
X564069Y226941D01*
Y227733D01*
X563276D01*
Y226941D01*
X564069D01*
X563276Y226149D01*
X562484Y225356D01*
X570407Y226941D02*
X567238D01*
X570407Y230110D01*
Y230903D01*
X569615Y231695D01*
X568030D01*
X567238Y230903D01*
X571992D02*
X572785Y231695D01*
X574369D01*
X575162Y230903D01*
Y227733D01*
X574369Y226941D01*
X572785D01*
X571992Y227733D01*
Y230903D01*
X576746D02*
X577539Y231695D01*
X579123D01*
X579916Y230903D01*
Y227733D01*
X579123Y226941D01*
X577539D01*
X576746Y227733D01*
Y230903D01*
X581500Y226941D02*
Y230110D01*
X582293D01*
X583085Y229318D01*
Y226941D01*
Y229318D01*
X583878Y230110D01*
X584670Y229318D01*
Y226941D01*
X586255D02*
Y230110D01*
X587047D01*
X587839Y229318D01*
Y226941D01*
Y229318D01*
X588632Y230110D01*
X589424Y229318D01*
Y226941D01*
X597348D02*
X595763Y228526D01*
Y230110D01*
X597348Y231695D01*
X599725Y226941D02*
X601310D01*
X600517D01*
Y231695D01*
X599725Y230903D01*
X606856Y226941D02*
X603687D01*
X606856Y230110D01*
Y230903D01*
X606064Y231695D01*
X604479D01*
X603687Y230903D01*
X611610Y231695D02*
X608441D01*
Y229318D01*
X610026Y230110D01*
X610818D01*
X611610Y229318D01*
Y227733D01*
X610818Y226941D01*
X609233D01*
X608441Y227733D01*
X613987Y226149D02*
X614780Y226941D01*
Y227733D01*
X613987D01*
Y226941D01*
X614780D01*
X613987Y226149D01*
X613195Y225356D01*
X617949Y227733D02*
X618742Y226941D01*
X620326D01*
X621119Y227733D01*
Y230903D01*
X620326Y231695D01*
X618742D01*
X617949Y230903D01*
Y230110D01*
X618742Y229318D01*
X621119D01*
X622704Y230903D02*
X623496Y231695D01*
X625081D01*
X625873Y230903D01*
Y230110D01*
X625081Y229318D01*
X625873Y228526D01*
Y227733D01*
X625081Y226941D01*
X623496D01*
X622704Y227733D01*
Y228526D01*
X623496Y229318D01*
X622704Y230110D01*
Y230903D01*
X623496Y229318D02*
X625081D01*
X627458Y226941D02*
Y230110D01*
X628250D01*
X629042Y229318D01*
Y226941D01*
Y229318D01*
X629835Y230110D01*
X630627Y229318D01*
Y226941D01*
X632212D02*
X633797D01*
X633004D01*
Y230110D01*
X632212D01*
X636174Y226941D02*
X637758D01*
X636966D01*
Y231695D01*
X636174D01*
X640135Y226941D02*
X641720Y228526D01*
Y230110D01*
X640135Y231695D01*
X557729Y219013D02*
X558522Y219806D01*
X560107D01*
X560899Y219013D01*
Y215844D01*
X560107Y215052D01*
X558522D01*
X557729Y215844D01*
Y219013D01*
X563276Y214259D02*
X564069Y215052D01*
Y215844D01*
X563276D01*
Y215052D01*
X564069D01*
X563276Y214259D01*
X562484Y213467D01*
X567238Y219013D02*
X568030Y219806D01*
X569615D01*
X570407Y219013D01*
Y218221D01*
X569615Y217429D01*
X568823D01*
X569615D01*
X570407Y216636D01*
Y215844D01*
X569615Y215052D01*
X568030D01*
X567238Y215844D01*
X571992Y219013D02*
X572785Y219806D01*
X574369D01*
X575162Y219013D01*
Y218221D01*
X574369Y217429D01*
X575162Y216636D01*
Y215844D01*
X574369Y215052D01*
X572785D01*
X571992Y215844D01*
Y216636D01*
X572785Y217429D01*
X571992Y218221D01*
Y219013D01*
X572785Y217429D02*
X574369D01*
X576746Y215052D02*
X578331D01*
X577539D01*
Y219806D01*
X576746Y219013D01*
X580708Y215052D02*
Y218221D01*
X581500D01*
X582293Y217429D01*
Y215052D01*
Y217429D01*
X583085Y218221D01*
X583878Y217429D01*
Y215052D01*
X585462D02*
Y218221D01*
X586255D01*
X587047Y217429D01*
Y215052D01*
Y217429D01*
X587839Y218221D01*
X588632Y217429D01*
Y215052D01*
X596555D02*
X594971Y216636D01*
Y218221D01*
X596555Y219806D01*
X598933Y215052D02*
X600517D01*
X599725D01*
Y219806D01*
X598933Y219013D01*
X606064Y219806D02*
X602894D01*
Y217429D01*
X604479Y218221D01*
X605271D01*
X606064Y217429D01*
Y215844D01*
X605271Y215052D01*
X603687D01*
X602894Y215844D01*
X608441Y214259D02*
X609233Y215052D01*
Y215844D01*
X608441D01*
Y215052D01*
X609233D01*
X608441Y214259D01*
X607649Y213467D01*
X612403Y219013D02*
X613195Y219806D01*
X614780D01*
X615572Y219013D01*
Y215844D01*
X614780Y215052D01*
X613195D01*
X612403Y215844D01*
Y219013D01*
X617157D02*
X617949Y219806D01*
X619534D01*
X620326Y219013D01*
Y215844D01*
X619534Y215052D01*
X617949D01*
X617157Y215844D01*
Y219013D01*
X621911Y215052D02*
Y218221D01*
X622704D01*
X623496Y217429D01*
Y215052D01*
Y217429D01*
X624288Y218221D01*
X625081Y217429D01*
Y215052D01*
X626665D02*
X628250D01*
X627458D01*
Y218221D01*
X626665D01*
X630627Y215052D02*
X632212D01*
X631420D01*
Y219806D01*
X630627D01*
X634589Y215052D02*
X636174Y216636D01*
Y218221D01*
X634589Y219806D01*
X557729Y203162D02*
X559314D01*
X558522D01*
Y207916D01*
X557729Y207124D01*
X562484Y202370D02*
X563276Y203162D01*
Y203955D01*
X562484D01*
Y203162D01*
X563276D01*
X562484Y202370D01*
X561691Y201577D01*
X566446Y207124D02*
X567238Y207916D01*
X568823D01*
X569615Y207124D01*
Y203955D01*
X568823Y203162D01*
X567238D01*
X566446Y203955D01*
Y207124D01*
X571200D02*
X571992Y207916D01*
X573577D01*
X574369Y207124D01*
Y203955D01*
X573577Y203162D01*
X571992D01*
X571200Y203955D01*
Y207124D01*
X575954D02*
X576746Y207916D01*
X578331D01*
X579123Y207124D01*
Y203955D01*
X578331Y203162D01*
X576746D01*
X575954Y203955D01*
Y207124D01*
X580708Y203162D02*
Y206332D01*
X581500D01*
X582293Y205539D01*
Y203162D01*
Y205539D01*
X583085Y206332D01*
X583878Y205539D01*
Y203162D01*
X585462D02*
Y206332D01*
X586255D01*
X587047Y205539D01*
Y203162D01*
Y205539D01*
X587839Y206332D01*
X588632Y205539D01*
Y203162D01*
X596555D02*
X594971Y204747D01*
Y206332D01*
X596555Y207916D01*
X598933Y207124D02*
X599725Y207916D01*
X601310D01*
X602102Y207124D01*
Y206332D01*
X601310Y205539D01*
X600517D01*
X601310D01*
X602102Y204747D01*
Y203955D01*
X601310Y203162D01*
X599725D01*
X598933Y203955D01*
X603687D02*
X604479Y203162D01*
X606064D01*
X606856Y203955D01*
Y207124D01*
X606064Y207916D01*
X604479D01*
X603687Y207124D01*
Y206332D01*
X604479Y205539D01*
X606856D01*
X609233Y202370D02*
X610026Y203162D01*
Y203955D01*
X609233D01*
Y203162D01*
X610026D01*
X609233Y202370D01*
X608441Y201577D01*
X613195Y207124D02*
X613987Y207916D01*
X615572D01*
X616365Y207124D01*
Y206332D01*
X615572Y205539D01*
X614780D01*
X615572D01*
X616365Y204747D01*
Y203955D01*
X615572Y203162D01*
X613987D01*
X613195Y203955D01*
X617949Y207916D02*
X621119D01*
Y207124D01*
X617949Y203955D01*
Y203162D01*
X622704D02*
Y206332D01*
X623496D01*
X624288Y205539D01*
Y203162D01*
Y205539D01*
X625081Y206332D01*
X625873Y205539D01*
Y203162D01*
X627458D02*
X629042D01*
X628250D01*
Y206332D01*
X627458D01*
X631420Y203162D02*
X633004D01*
X632212D01*
Y207916D01*
X631420D01*
X635381Y203162D02*
X636966Y204747D01*
Y206332D01*
X635381Y207916D01*
X557729Y195235D02*
X558522Y196027D01*
X560107D01*
X560899Y195235D01*
Y192065D01*
X560107Y191273D01*
X558522D01*
X557729Y192065D01*
Y195235D01*
X563276Y190480D02*
X564069Y191273D01*
Y192065D01*
X563276D01*
Y191273D01*
X564069D01*
X563276Y190480D01*
X562484Y189688D01*
X567238Y196027D02*
X570407D01*
Y195235D01*
X567238Y192065D01*
Y191273D01*
X571992D02*
X573577D01*
X572785D01*
Y196027D01*
X571992Y195235D01*
X575954Y191273D02*
X577539D01*
X576746D01*
Y196027D01*
X575954Y195235D01*
X579916Y191273D02*
Y194442D01*
X580708D01*
X581500Y193650D01*
Y191273D01*
Y193650D01*
X582293Y194442D01*
X583085Y193650D01*
Y191273D01*
X584670D02*
Y194442D01*
X585462D01*
X586255Y193650D01*
Y191273D01*
Y193650D01*
X587047Y194442D01*
X587839Y193650D01*
Y191273D01*
X595763D02*
X594178Y192858D01*
Y194442D01*
X595763Y196027D01*
X601310Y191273D02*
X598140D01*
X601310Y194442D01*
Y195235D01*
X600517Y196027D01*
X598933D01*
X598140Y195235D01*
X602894D02*
X603687Y196027D01*
X605271D01*
X606064Y195235D01*
Y194442D01*
X605271Y193650D01*
X606064Y192858D01*
Y192065D01*
X605271Y191273D01*
X603687D01*
X602894Y192065D01*
Y192858D01*
X603687Y193650D01*
X602894Y194442D01*
Y195235D01*
X603687Y193650D02*
X605271D01*
X608441Y190480D02*
X609233Y191273D01*
Y192065D01*
X608441D01*
Y191273D01*
X609233D01*
X608441Y190480D01*
X607649Y189688D01*
X612403Y195235D02*
X613195Y196027D01*
X614780D01*
X615572Y195235D01*
Y192065D01*
X614780Y191273D01*
X613195D01*
X612403Y192065D01*
Y195235D01*
X617157D02*
X617949Y196027D01*
X619534D01*
X620326Y195235D01*
Y192065D01*
X619534Y191273D01*
X617949D01*
X617157Y192065D01*
Y195235D01*
X621911Y191273D02*
Y194442D01*
X622704D01*
X623496Y193650D01*
Y191273D01*
Y193650D01*
X624288Y194442D01*
X625081Y193650D01*
Y191273D01*
X626665D02*
X628250D01*
X627458D01*
Y194442D01*
X626665D01*
X630627Y191273D02*
X632212D01*
X631420D01*
Y196027D01*
X630627D01*
X634589Y191273D02*
X636174Y192858D01*
Y194442D01*
X634589Y196027D01*
X557729Y183345D02*
X558522Y184138D01*
X560107D01*
X560899Y183345D01*
Y180176D01*
X560107Y179384D01*
X558522D01*
X557729Y180176D01*
Y183345D01*
X563276Y178591D02*
X564069Y179384D01*
Y180176D01*
X563276D01*
Y179384D01*
X564069D01*
X563276Y178591D01*
X562484Y177799D01*
X567238Y180176D02*
X568030Y179384D01*
X569615D01*
X570407Y180176D01*
Y183345D01*
X569615Y184138D01*
X568030D01*
X567238Y183345D01*
Y182553D01*
X568030Y181761D01*
X570407D01*
X571992Y183345D02*
X572785Y184138D01*
X574369D01*
X575162Y183345D01*
Y180176D01*
X574369Y179384D01*
X572785D01*
X571992Y180176D01*
Y183345D01*
X576746D02*
X577539Y184138D01*
X579123D01*
X579916Y183345D01*
Y180176D01*
X579123Y179384D01*
X577539D01*
X576746Y180176D01*
Y183345D01*
X581500Y179384D02*
Y182553D01*
X582293D01*
X583085Y181761D01*
Y179384D01*
Y181761D01*
X583878Y182553D01*
X584670Y181761D01*
Y179384D01*
X586255D02*
Y182553D01*
X587047D01*
X587839Y181761D01*
Y179384D01*
Y181761D01*
X588632Y182553D01*
X589424Y181761D01*
Y179384D01*
X597348D02*
X595763Y180968D01*
Y182553D01*
X597348Y184138D01*
X599725Y183345D02*
X600517Y184138D01*
X602102D01*
X602894Y183345D01*
Y182553D01*
X602102Y181761D01*
X601310D01*
X602102D01*
X602894Y180968D01*
Y180176D01*
X602102Y179384D01*
X600517D01*
X599725Y180176D01*
X607649Y184138D02*
X604479D01*
Y181761D01*
X606064Y182553D01*
X606856D01*
X607649Y181761D01*
Y180176D01*
X606856Y179384D01*
X605271D01*
X604479Y180176D01*
X610026Y178591D02*
X610818Y179384D01*
Y180176D01*
X610026D01*
Y179384D01*
X610818D01*
X610026Y178591D01*
X609233Y177799D01*
X616365Y179384D02*
Y184138D01*
X613987Y181761D01*
X617157D01*
X618742Y183345D02*
X619534Y184138D01*
X621119D01*
X621911Y183345D01*
Y182553D01*
X621119Y181761D01*
X620326D01*
X621119D01*
X621911Y180968D01*
Y180176D01*
X621119Y179384D01*
X619534D01*
X618742Y180176D01*
X623496Y179384D02*
Y182553D01*
X624288D01*
X625081Y181761D01*
Y179384D01*
Y181761D01*
X625873Y182553D01*
X626665Y181761D01*
Y179384D01*
X628250D02*
X629835D01*
X629042D01*
Y182553D01*
X628250D01*
X632212Y179384D02*
X633797D01*
X633004D01*
Y184138D01*
X632212D01*
X636174Y179384D02*
X637758Y180968D01*
Y182553D01*
X636174Y184138D01*
X557729Y171456D02*
X558522Y172248D01*
X560107D01*
X560899Y171456D01*
Y168287D01*
X560107Y167494D01*
X558522D01*
X557729Y168287D01*
Y171456D01*
X563276Y166702D02*
X564069Y167494D01*
Y168287D01*
X563276D01*
Y167494D01*
X564069D01*
X563276Y166702D01*
X562484Y165910D01*
X570407Y167494D02*
X567238D01*
X570407Y170664D01*
Y171456D01*
X569615Y172248D01*
X568030D01*
X567238Y171456D01*
X575162Y172248D02*
X571992D01*
Y169871D01*
X573577Y170664D01*
X574369D01*
X575162Y169871D01*
Y168287D01*
X574369Y167494D01*
X572785D01*
X571992Y168287D01*
X579123Y167494D02*
Y172248D01*
X576746Y169871D01*
X579916D01*
X581500Y167494D02*
Y170664D01*
X582293D01*
X583085Y169871D01*
Y167494D01*
Y169871D01*
X583878Y170664D01*
X584670Y169871D01*
Y167494D01*
X586255D02*
Y170664D01*
X587047D01*
X587839Y169871D01*
Y167494D01*
Y169871D01*
X588632Y170664D01*
X589424Y169871D01*
Y167494D01*
X597348D02*
X595763Y169079D01*
Y170664D01*
X597348Y172248D01*
X599725Y167494D02*
X601310D01*
X600517D01*
Y172248D01*
X599725Y171456D01*
X603687D02*
X604479Y172248D01*
X606064D01*
X606856Y171456D01*
Y168287D01*
X606064Y167494D01*
X604479D01*
X603687Y168287D01*
Y171456D01*
X609233Y166702D02*
X610026Y167494D01*
Y168287D01*
X609233D01*
Y167494D01*
X610026D01*
X609233Y166702D01*
X608441Y165910D01*
X613195Y171456D02*
X613987Y172248D01*
X615572D01*
X616365Y171456D01*
Y168287D01*
X615572Y167494D01*
X613987D01*
X613195Y168287D01*
Y171456D01*
X617949D02*
X618742Y172248D01*
X620326D01*
X621119Y171456D01*
Y168287D01*
X620326Y167494D01*
X618742D01*
X617949Y168287D01*
Y171456D01*
X622704Y167494D02*
Y170664D01*
X623496D01*
X624288Y169871D01*
Y167494D01*
Y169871D01*
X625081Y170664D01*
X625873Y169871D01*
Y167494D01*
X627458D02*
X629042D01*
X628250D01*
Y170664D01*
X627458D01*
X631420Y167494D02*
X633004D01*
X632212D01*
Y172248D01*
X631420D01*
X635381Y167494D02*
X636966Y169079D01*
Y170664D01*
X635381Y172248D01*
X512940Y160359D02*
X509770D01*
Y157982D01*
X511355Y158774D01*
X512147D01*
X512940Y157982D01*
Y156397D01*
X512147Y155605D01*
X510562D01*
X509770Y156397D01*
X514524Y159567D02*
X515317Y160359D01*
X516901D01*
X517694Y159567D01*
Y156397D01*
X516901Y155605D01*
X515317D01*
X514524Y156397D01*
Y159567D01*
X522448Y160359D02*
X520863Y159567D01*
X519278Y157982D01*
Y156397D01*
X520071Y155605D01*
X521656D01*
X522448Y156397D01*
Y157190D01*
X521656Y157982D01*
X519278D01*
X528787Y160359D02*
X531956D01*
X530372D01*
Y155605D01*
X534333D02*
X535918D01*
X536711Y156397D01*
Y157982D01*
X535918Y158774D01*
X534333D01*
X533541Y157982D01*
Y156397D01*
X534333Y155605D01*
X539088Y159567D02*
Y158774D01*
X538295D01*
X539880D01*
X539088D01*
Y156397D01*
X539880Y155605D01*
X543049Y158774D02*
X544634D01*
X545427Y157982D01*
Y155605D01*
X543049D01*
X542257Y156397D01*
X543049Y157190D01*
X545427D01*
X547011Y155605D02*
X548596D01*
X547804D01*
Y160359D01*
X547011D01*
X509770Y227733D02*
X510562Y226941D01*
X512147D01*
X512940Y227733D01*
Y230903D01*
X512147Y231695D01*
X510562D01*
X509770Y230903D01*
Y230110D01*
X510562Y229318D01*
X512940D01*
X509770Y215052D02*
X511355D01*
X510562D01*
Y219806D01*
X509770Y219013D01*
X513732Y215052D02*
X515317D01*
X514524D01*
Y219806D01*
X513732Y219013D01*
X512940Y203162D02*
X509770D01*
X512940Y206332D01*
Y207124D01*
X512147Y207916D01*
X510562D01*
X509770Y207124D01*
X516901Y203162D02*
Y207916D01*
X514524Y205539D01*
X517694D01*
X509770Y195235D02*
X510562Y196027D01*
X512147D01*
X512940Y195235D01*
Y194442D01*
X512147Y193650D01*
X512940Y192858D01*
Y192065D01*
X512147Y191273D01*
X510562D01*
X509770Y192065D01*
Y192858D01*
X510562Y193650D01*
X509770Y194442D01*
Y195235D01*
X510562Y193650D02*
X512147D01*
X514524Y195235D02*
X515317Y196027D01*
X516901D01*
X517694Y195235D01*
Y192065D01*
X516901Y191273D01*
X515317D01*
X514524Y192065D01*
Y195235D01*
X509770Y179384D02*
X511355D01*
X510562D01*
Y184138D01*
X509770Y183345D01*
X516901Y179384D02*
X513732D01*
X516901Y182553D01*
Y183345D01*
X516109Y184138D01*
X514524D01*
X513732Y183345D01*
X518486Y184138D02*
X521656D01*
Y183345D01*
X518486Y180176D01*
Y179384D01*
X512940Y167494D02*
X509770D01*
X512940Y170664D01*
Y171456D01*
X512147Y172248D01*
X510562D01*
X509770Y171456D01*
X517694Y172248D02*
X514524D01*
Y169871D01*
X516109Y170664D01*
X516901D01*
X517694Y169871D01*
Y168287D01*
X516901Y167494D01*
X515317D01*
X514524Y168287D01*
X522448Y172248D02*
X519278D01*
Y169871D01*
X520863Y170664D01*
X521656D01*
X522448Y169871D01*
Y168287D01*
X521656Y167494D01*
X520071D01*
X519278Y168287D01*
D166*
X309212Y135969D02*
G03*
X309212Y135969I-1000J0D01*
G01*
Y145969D02*
G03*
X309212Y145969I-1000J0D01*
G01*
Y155969D02*
G03*
X309212Y155969I-1000J0D01*
G01*
X10370Y97835D02*
G03*
X10370Y97835I-1000J0D01*
G01*
X20370D02*
G03*
X20370Y97835I-1000J0D01*
G01*
X10370Y107835D02*
G03*
X10370Y107835I-1000J0D01*
G01*
X20370D02*
G03*
X20370Y107835I-1000J0D01*
G01*
X10370Y117835D02*
G03*
X10370Y117835I-1000J0D01*
G01*
X20370D02*
G03*
X20370Y117835I-1000J0D01*
G01*
X10370Y127835D02*
G03*
X10370Y127835I-1000J0D01*
G01*
X20370D02*
G03*
X20370Y127835I-1000J0D01*
G01*
X10370Y137835D02*
G03*
X10370Y137835I-1000J0D01*
G01*
X20370D02*
G03*
X20370Y137835I-1000J0D01*
G01*
X350590Y59040D02*
G03*
X350590Y59040I-1000J0D01*
G01*
X340590D02*
G03*
X340590Y59040I-1000J0D01*
G01*
X350590Y69040D02*
G03*
X350590Y69040I-1000J0D01*
G01*
X340590D02*
G03*
X340590Y69040I-1000J0D01*
G01*
X350590Y79040D02*
G03*
X350590Y79040I-1000J0D01*
G01*
X340590D02*
G03*
X340590Y79040I-1000J0D01*
G01*
X350590Y89040D02*
G03*
X350590Y89040I-1000J0D01*
G01*
X340590D02*
G03*
X340590Y89040I-1000J0D01*
G01*
X350590Y99040D02*
G03*
X350590Y99040I-1000J0D01*
G01*
X340590D02*
G03*
X340590Y99040I-1000J0D01*
G01*
X350590Y109040D02*
G03*
X350590Y109040I-1000J0D01*
G01*
X340590D02*
G03*
X340590Y109040I-1000J0D01*
G01*
X350590Y119040D02*
G03*
X350590Y119040I-1000J0D01*
G01*
X340590D02*
G03*
X340590Y119040I-1000J0D01*
G01*
X350590Y129040D02*
G03*
X350590Y129040I-1000J0D01*
G01*
X340590D02*
G03*
X340590Y129040I-1000J0D01*
G01*
X350590Y139040D02*
G03*
X350590Y139040I-1000J0D01*
G01*
X340590D02*
G03*
X340590Y139040I-1000J0D01*
G01*
X350590Y149040D02*
G03*
X350590Y149040I-1000J0D01*
G01*
X340590D02*
G03*
X340590Y149040I-1000J0D01*
G01*
X350590Y159040D02*
G03*
X350590Y159040I-1000J0D01*
G01*
X340590D02*
G03*
X340590Y159040I-1000J0D01*
G01*
X350590Y169040D02*
G03*
X350590Y169040I-1000J0D01*
G01*
X340590D02*
G03*
X340590Y169040I-1000J0D01*
G01*
X350590Y179040D02*
G03*
X350590Y179040I-1000J0D01*
G01*
X340590D02*
G03*
X340590Y179040I-1000J0D01*
G01*
X350590Y189040D02*
G03*
X350590Y189040I-1000J0D01*
G01*
X340590D02*
G03*
X340590Y189040I-1000J0D01*
G01*
X350590Y199040D02*
G03*
X350590Y199040I-1000J0D01*
G01*
X340590D02*
G03*
X340590Y199040I-1000J0D01*
G01*
X350590Y209040D02*
G03*
X350590Y209040I-1000J0D01*
G01*
X340590D02*
G03*
X340590Y209040I-1000J0D01*
G01*
X350590Y219040D02*
G03*
X350590Y219040I-1000J0D01*
G01*
X340590Y218942D02*
G03*
X340590Y218942I-1000J0D01*
G01*
X350590Y229040D02*
G03*
X350590Y229040I-1000J0D01*
G01*
X340590D02*
G03*
X340590Y229040I-1000J0D01*
G01*
X350590Y239040D02*
G03*
X350590Y239040I-1000J0D01*
G01*
X340590D02*
G03*
X340590Y239040I-1000J0D01*
G01*
X350590Y249040D02*
G03*
X350590Y249040I-1000J0D01*
G01*
X340571D02*
G03*
X340571Y249040I-1000J0D01*
G01*
X350590Y259040D02*
G03*
X350590Y259040I-1000J0D01*
G01*
X340571D02*
G03*
X340571Y259040I-1000J0D01*
G01*
X350590Y269040D02*
G03*
X350590Y269040I-1000J0D01*
G01*
X340590D02*
G03*
X340590Y269040I-1000J0D01*
G01*
X350590Y279040D02*
G03*
X350590Y279040I-1000J0D01*
G01*
X340590D02*
G03*
X340590Y279040I-1000J0D01*
G01*
X350590Y289040D02*
G03*
X350590Y289040I-1000J0D01*
G01*
X340590D02*
G03*
X340590Y289040I-1000J0D01*
G01*
X350590Y299040D02*
G03*
X350590Y299040I-1000J0D01*
G01*
X340571D02*
G03*
X340571Y299040I-1000J0D01*
G01*
X340590Y49040D02*
G03*
X340590Y49040I-1000J0D01*
G01*
X350590D02*
G03*
X350590Y49040I-1000J0D01*
G01*
X330590D02*
G03*
X330590Y49040I-1000J0D01*
G01*
X320590D02*
G03*
X320590Y49040I-1000J0D01*
G01*
Y299040D02*
G03*
X320590Y299040I-1000J0D01*
G01*
X330590D02*
G03*
X330590Y299040I-1000J0D01*
G01*
X320590Y289040D02*
G03*
X320590Y289040I-1000J0D01*
G01*
X330590D02*
G03*
X330590Y289040I-1000J0D01*
G01*
X320590Y279040D02*
G03*
X320590Y279040I-1000J0D01*
G01*
X330590D02*
G03*
X330590Y279040I-1000J0D01*
G01*
X320590Y269040D02*
G03*
X320590Y269040I-1000J0D01*
G01*
X330590D02*
G03*
X330590Y269040I-1000J0D01*
G01*
X320590Y259040D02*
G03*
X320590Y259040I-1000J0D01*
G01*
X330590D02*
G03*
X330590Y259040I-1000J0D01*
G01*
X320590Y249040D02*
G03*
X320590Y249040I-1000J0D01*
G01*
X330590D02*
G03*
X330590Y249040I-1000J0D01*
G01*
X320590Y239040D02*
G03*
X320590Y239040I-1000J0D01*
G01*
X330590D02*
G03*
X330590Y239040I-1000J0D01*
G01*
X320590Y229040D02*
G03*
X320590Y229040I-1000J0D01*
G01*
X330590D02*
G03*
X330590Y229040I-1000J0D01*
G01*
X320590Y218942D02*
G03*
X320590Y218942I-1000J0D01*
G01*
X330590Y219040D02*
G03*
X330590Y219040I-1000J0D01*
G01*
X320590Y209040D02*
G03*
X320590Y209040I-1000J0D01*
G01*
X330590D02*
G03*
X330590Y209040I-1000J0D01*
G01*
X320590Y199040D02*
G03*
X320590Y199040I-1000J0D01*
G01*
X330590D02*
G03*
X330590Y199040I-1000J0D01*
G01*
X320590Y189040D02*
G03*
X320590Y189040I-1000J0D01*
G01*
X330590D02*
G03*
X330590Y189040I-1000J0D01*
G01*
X320590Y179040D02*
G03*
X320590Y179040I-1000J0D01*
G01*
X330590D02*
G03*
X330590Y179040I-1000J0D01*
G01*
X320590Y169040D02*
G03*
X320590Y169040I-1000J0D01*
G01*
X330590D02*
G03*
X330590Y169040I-1000J0D01*
G01*
X320590Y159040D02*
G03*
X320590Y159040I-1000J0D01*
G01*
X330590D02*
G03*
X330590Y159040I-1000J0D01*
G01*
X320590Y149040D02*
G03*
X320590Y149040I-1000J0D01*
G01*
X330590D02*
G03*
X330590Y149040I-1000J0D01*
G01*
X320590Y139040D02*
G03*
X320590Y139040I-1000J0D01*
G01*
X330590D02*
G03*
X330590Y139040I-1000J0D01*
G01*
X320590Y129040D02*
G03*
X320590Y129040I-1000J0D01*
G01*
X330590D02*
G03*
X330590Y129040I-1000J0D01*
G01*
X320590Y119040D02*
G03*
X320590Y119040I-1000J0D01*
G01*
X330590D02*
G03*
X330590Y119040I-1000J0D01*
G01*
X320590Y109040D02*
G03*
X320590Y109040I-1000J0D01*
G01*
X330590D02*
G03*
X330590Y109040I-1000J0D01*
G01*
X320590Y99040D02*
G03*
X320590Y99040I-1000J0D01*
G01*
X330590D02*
G03*
X330590Y99040I-1000J0D01*
G01*
X320590Y89040D02*
G03*
X320590Y89040I-1000J0D01*
G01*
X330590D02*
G03*
X330590Y89040I-1000J0D01*
G01*
X320590Y79040D02*
G03*
X320590Y79040I-1000J0D01*
G01*
X330590D02*
G03*
X330590Y79040I-1000J0D01*
G01*
X320590Y69040D02*
G03*
X320590Y69040I-1000J0D01*
G01*
X330590D02*
G03*
X330590Y69040I-1000J0D01*
G01*
X320590Y59040D02*
G03*
X320590Y59040I-1000J0D01*
G01*
X330590D02*
G03*
X330590Y59040I-1000J0D01*
G01*
X71157Y171299D02*
G03*
X71157Y171299I-1000J0D01*
G01*
X61158D02*
G03*
X61158Y171299I-1000J0D01*
G01*
X71157Y161299D02*
G03*
X71157Y161299I-1000J0D01*
G01*
X61158D02*
G03*
X61158Y161299I-1000J0D01*
G01*
X71157Y151299D02*
G03*
X71157Y151299I-1000J0D01*
G01*
X61158D02*
G03*
X61158Y151299I-1000J0D01*
G01*
X71157Y141299D02*
G03*
X71157Y141299I-1000J0D01*
G01*
X61158D02*
G03*
X61158Y141299I-1000J0D01*
G01*
X71157Y131299D02*
G03*
X71157Y131299I-1000J0D01*
G01*
X61158D02*
G03*
X61158Y131299I-1000J0D01*
G01*
X260205Y328264D02*
X260705D01*
X260205D02*
Y329264D01*
X260705D01*
Y329764D01*
X261705D01*
Y329264D02*
Y329764D01*
Y329264D02*
X262205D01*
Y328264D02*
Y329264D01*
X261705Y328264D02*
X262205D01*
X261705Y327764D02*
Y328264D01*
X260705Y327764D02*
X261705D01*
X260705D02*
Y328264D01*
X205401Y35863D02*
X205902D01*
X205401D02*
Y36863D01*
X205902D01*
Y37363D01*
X206902D01*
Y36863D02*
Y37363D01*
Y36863D02*
X207401D01*
Y35863D02*
Y36863D01*
X206902Y35863D02*
X207401D01*
X206902Y35363D02*
Y35863D01*
X205902Y35363D02*
X206902D01*
X205902D02*
Y35863D01*
X198277Y39091D02*
X198777D01*
X198277D02*
Y40091D01*
X198777D01*
Y40591D01*
X199777D01*
Y40091D02*
Y40591D01*
Y40091D02*
X200277D01*
Y39091D02*
Y40091D01*
X199777Y39091D02*
X200277D01*
X199777Y38591D02*
Y39091D01*
X198777Y38591D02*
X199777D01*
X198777D02*
Y39091D01*
X177921Y39288D02*
X178421D01*
X177921D02*
Y40288D01*
X178421D01*
Y40788D01*
X179421D01*
Y40288D02*
Y40788D01*
Y40288D02*
X179921D01*
Y39288D02*
Y40288D01*
X179421Y39288D02*
X179921D01*
X179421Y38788D02*
Y39288D01*
X178421Y38788D02*
X179421D01*
X178421D02*
Y39288D01*
X194693Y180902D02*
X195193D01*
X194693D02*
Y181902D01*
X195193D01*
Y182402D01*
X196193D01*
Y181902D02*
Y182402D01*
Y181902D02*
X196693D01*
Y180902D02*
Y181902D01*
X196193Y180902D02*
X196693D01*
X196193Y180402D02*
Y180902D01*
X195193Y180402D02*
X196193D01*
X195193D02*
Y180902D01*
X246583Y71701D02*
X247583Y72201D01*
X248583Y71701D01*
X248083Y72701D02*
X248583Y71701D01*
X248083Y72701D02*
X248583Y73701D01*
X247583Y73201D02*
X248583Y73701D01*
X246583D02*
X247583Y73201D01*
X246583Y73701D02*
X247083Y72701D01*
X246583Y71701D02*
X247083Y72701D01*
X16386Y234485D02*
X16886D01*
X16386D02*
Y235485D01*
X16886D01*
Y235985D01*
X17886D01*
Y235485D02*
Y235985D01*
Y235485D02*
X18386D01*
Y234485D02*
Y235485D01*
X17886Y234485D02*
X18386D01*
X17886Y233985D02*
Y234485D01*
X16886Y233985D02*
X17886D01*
X16886D02*
Y234485D01*
X47291Y270627D02*
X47791D01*
X47291D02*
Y271627D01*
X47791D01*
Y272127D01*
X48791D01*
Y271627D02*
Y272127D01*
Y271627D02*
X49291D01*
Y270627D02*
Y271627D01*
X48791Y270627D02*
X49291D01*
X48791Y270127D02*
Y270627D01*
X47791Y270127D02*
X48791D01*
X47791D02*
Y270627D01*
X264918Y204642D02*
X265418D01*
X264918D02*
Y205642D01*
X265418D01*
Y206142D01*
X266418D01*
Y205642D02*
Y206142D01*
Y205642D02*
X266918D01*
Y204642D02*
Y205642D01*
X266418Y204642D02*
X266918D01*
X266418Y204142D02*
Y204642D01*
X265418Y204142D02*
X266418D01*
X265418D02*
Y204642D01*
X110125Y44642D02*
X110625D01*
X110125D02*
Y45642D01*
X110625D01*
Y46142D01*
X111625D01*
Y45642D02*
Y46142D01*
Y45642D02*
X112125D01*
Y44642D02*
Y45642D01*
X111625Y44642D02*
X112125D01*
X111625Y44142D02*
Y44642D01*
X110625Y44142D02*
X111625D01*
X110625D02*
Y44642D01*
X147685Y337162D02*
X148185D01*
X147685D02*
Y338162D01*
X148185D01*
Y338662D01*
X149185D01*
Y338162D02*
Y338662D01*
Y338162D02*
X149685D01*
Y337162D02*
Y338162D01*
X149185Y337162D02*
X149685D01*
X149185Y336662D02*
Y337162D01*
X148185Y336662D02*
X149185D01*
X148185D02*
Y337162D01*
X176504Y220430D02*
X177004D01*
X176504D02*
Y221430D01*
X177004D01*
Y221930D01*
X178004D01*
Y221430D02*
Y221930D01*
Y221430D02*
X178504D01*
Y220430D02*
Y221430D01*
X178004Y220430D02*
X178504D01*
X178004Y219930D02*
Y220430D01*
X177004Y219930D02*
X178004D01*
X177004D02*
Y220430D01*
X50756Y227843D02*
X51756Y228343D01*
X52756Y227843D01*
X52256Y228843D02*
X52756Y227843D01*
X52256Y228843D02*
X52756Y229843D01*
X51756Y229343D02*
X52756Y229843D01*
X50756D02*
X51756Y229343D01*
X50756Y229843D02*
X51256Y228843D01*
X50756Y227843D02*
X51256Y228843D01*
X94892Y235272D02*
X95392D01*
X94892D02*
Y236272D01*
X95392D01*
Y236772D01*
X96392D01*
Y236272D02*
Y236772D01*
Y236272D02*
X96892D01*
Y235272D02*
Y236272D01*
X96392Y235272D02*
X96892D01*
X96392Y234772D02*
Y235272D01*
X95392Y234772D02*
X96392D01*
X95392D02*
Y235272D01*
X228786Y305243D02*
X229786Y305743D01*
X230786Y305243D01*
X230286Y306243D02*
X230786Y305243D01*
X230286Y306243D02*
X230786Y307243D01*
X229786Y306743D02*
X230786Y307243D01*
X228786D02*
X229786Y306743D01*
X228786Y307243D02*
X229286Y306243D01*
X228786Y305243D02*
X229286Y306243D01*
X234693Y305243D02*
X235693Y305743D01*
X236693Y305243D01*
X236193Y306243D02*
X236693Y305243D01*
X236193Y306243D02*
X236693Y307243D01*
X235693Y306743D02*
X236693Y307243D01*
X234693D02*
X235693Y306743D01*
X234693Y307243D02*
X235193Y306243D01*
X234693Y305243D02*
X235193Y306243D01*
X150647Y240696D02*
X151147D01*
X150647D02*
Y241696D01*
X151147D01*
Y242196D01*
X152147D01*
Y241696D02*
Y242196D01*
Y241696D02*
X152647D01*
Y240696D02*
Y241696D01*
X152147Y240696D02*
X152647D01*
X152147Y240196D02*
Y240696D01*
X151147Y240196D02*
X152147D01*
X151147D02*
Y240696D01*
X142173Y243434D02*
X143173Y243934D01*
X144173Y243434D01*
X143673Y244434D02*
X144173Y243434D01*
X143673Y244434D02*
X144173Y245434D01*
X143173Y244934D02*
X144173Y245434D01*
X142173D02*
X143173Y244934D01*
X142173Y245434D02*
X142673Y244434D01*
X142173Y243434D02*
X142673Y244434D01*
X100165Y280442D02*
X101165Y280942D01*
X102165Y280442D01*
X101665Y281442D02*
X102165Y280442D01*
X101665Y281442D02*
X102165Y282442D01*
X101165Y281942D02*
X102165Y282442D01*
X100165D02*
X101165Y281942D01*
X100165Y282442D02*
X100665Y281442D01*
X100165Y280442D02*
X100665Y281442D01*
X149102Y306071D02*
X150102Y306572D01*
X151102Y306071D01*
X150602Y307071D02*
X151102Y306071D01*
X150602Y307071D02*
X151102Y308071D01*
X150102Y307572D02*
X151102Y308071D01*
X149102D02*
X150102Y307572D01*
X149102Y308071D02*
X149602Y307071D01*
X149102Y306071D02*
X149602Y307071D01*
X95205Y242882D02*
X96205Y243383D01*
X97205Y242882D01*
X96705Y243882D02*
X97205Y242882D01*
X96705Y243882D02*
X97205Y244882D01*
X96205Y244383D02*
X97205Y244882D01*
X95205D02*
X96205Y244383D01*
X95205Y244882D02*
X95705Y243882D01*
X95205Y242882D02*
X95705Y243882D01*
X208709Y337123D02*
X209209D01*
X208709D02*
Y338123D01*
X209209D01*
Y338623D01*
X210209D01*
Y338123D02*
Y338623D01*
Y338123D02*
X210709D01*
Y337123D02*
Y338123D01*
X210209Y337123D02*
X210709D01*
X210209Y336623D02*
Y337123D01*
X209209Y336623D02*
X210209D01*
X209209D02*
Y337123D01*
X152094Y337162D02*
X152594D01*
X152094D02*
Y338162D01*
X152594D01*
Y338662D01*
X153594D01*
Y338162D02*
Y338662D01*
Y338162D02*
X154094D01*
Y337162D02*
Y338162D01*
X153594Y337162D02*
X154094D01*
X153594Y336662D02*
Y337162D01*
X152594Y336662D02*
X153594D01*
X152594D02*
Y337162D01*
X184220Y234524D02*
X184720D01*
X184220D02*
Y235524D01*
X184720D01*
Y236024D01*
X185720D01*
Y235524D02*
Y236024D01*
Y235524D02*
X186220D01*
Y234524D02*
Y235524D01*
X185720Y234524D02*
X186220D01*
X185720Y234024D02*
Y234524D01*
X184720Y234024D02*
X185720D01*
X184720D02*
Y234524D01*
X186150Y282280D02*
X186650D01*
X186150D02*
Y283280D01*
X186650D01*
Y283780D01*
X187650D01*
Y283280D02*
Y283780D01*
Y283280D02*
X188149D01*
Y282280D02*
Y283280D01*
X187650Y282280D02*
X188149D01*
X187650Y281780D02*
Y282280D01*
X186650Y281780D02*
X187650D01*
X186650D02*
Y282280D01*
X120126Y236690D02*
X120626D01*
X120126D02*
Y237690D01*
X120626D01*
Y238190D01*
X121626D01*
Y237690D02*
Y238190D01*
Y237690D02*
X122126D01*
Y236690D02*
Y237690D01*
X121626Y236690D02*
X122126D01*
X121626Y236190D02*
Y236690D01*
X120626Y236190D02*
X121626D01*
X120626D02*
Y236690D01*
X114417Y279327D02*
X114917D01*
X114417D02*
Y280327D01*
X114917D01*
Y280827D01*
X115917D01*
Y280327D02*
Y280827D01*
Y280327D02*
X116417D01*
Y279327D02*
Y280327D01*
X115917Y279327D02*
X116417D01*
X115917Y278827D02*
Y279327D01*
X114917Y278827D02*
X115917D01*
X114917D02*
Y279327D01*
X30598Y194446D02*
X31098D01*
X30598D02*
Y195446D01*
X31098D01*
Y195946D01*
X32098D01*
Y195446D02*
Y195946D01*
Y195446D02*
X32598D01*
Y194446D02*
Y195446D01*
X32098Y194446D02*
X32598D01*
X32098Y193946D02*
Y194446D01*
X31098Y193946D02*
X32098D01*
X31098D02*
Y194446D01*
X31228Y237359D02*
X31728D01*
X31228D02*
Y238359D01*
X31728D01*
Y238859D01*
X32728D01*
Y238359D02*
Y238859D01*
Y238359D02*
X33228D01*
Y237359D02*
Y238359D01*
X32728Y237359D02*
X33228D01*
X32728Y236859D02*
Y237359D01*
X31728Y236859D02*
X32728D01*
X31728D02*
Y237359D01*
X33709Y189445D02*
X34209D01*
X33709D02*
Y190445D01*
X34209D01*
Y190945D01*
X35209D01*
Y190445D02*
Y190945D01*
Y190445D02*
X35709D01*
Y189445D02*
Y190445D01*
X35209Y189445D02*
X35709D01*
X35209Y188945D02*
Y189445D01*
X34209Y188945D02*
X35209D01*
X34209D02*
Y189445D01*
X33827Y282871D02*
X34327D01*
X33827D02*
Y283871D01*
X34327D01*
Y284371D01*
X35327D01*
Y283871D02*
Y284371D01*
Y283871D02*
X35827D01*
Y282871D02*
Y283871D01*
X35327Y282871D02*
X35827D01*
X35327Y282371D02*
Y282871D01*
X34327Y282371D02*
X35327D01*
X34327D02*
Y282871D01*
X198039Y268186D02*
X198539D01*
X198039D02*
Y269186D01*
X198539D01*
Y269686D01*
X199539D01*
Y269186D02*
Y269686D01*
Y269186D02*
X200039D01*
Y268186D02*
Y269186D01*
X199539Y268186D02*
X200039D01*
X199539Y267686D02*
Y268186D01*
X198539Y267686D02*
X199539D01*
X198539D02*
Y268186D01*
X187567Y288973D02*
X188067D01*
X187567D02*
Y289973D01*
X188067D01*
Y290473D01*
X189067D01*
Y289973D02*
Y290473D01*
Y289973D02*
X189567D01*
Y288973D02*
Y289973D01*
X189067Y288973D02*
X189567D01*
X189067Y288473D02*
Y288973D01*
X188067Y288473D02*
X189067D01*
X188067D02*
Y288973D01*
X10598Y275981D02*
X11098D01*
X10598D02*
Y276981D01*
X11098D01*
Y277481D01*
X12098D01*
Y276981D02*
Y277481D01*
Y276981D02*
X12598D01*
Y275981D02*
Y276981D01*
X12098Y275981D02*
X12598D01*
X12098Y275481D02*
Y275981D01*
X11098Y275481D02*
X12098D01*
X11098D02*
Y275981D01*
X132055Y270390D02*
X132555D01*
X132055D02*
Y271390D01*
X132555D01*
Y271890D01*
X133555D01*
Y271390D02*
Y271890D01*
Y271390D02*
X134055D01*
Y270390D02*
Y271390D01*
X133555Y270390D02*
X134055D01*
X133555Y269890D02*
Y270390D01*
X132555Y269890D02*
X133555D01*
X132555D02*
Y270390D01*
X135637Y326267D02*
X136637Y326767D01*
X137637Y326267D01*
X137137Y327267D02*
X137637Y326267D01*
X137137Y327267D02*
X137637Y328267D01*
X136637Y327767D02*
X137637Y328267D01*
X135637D02*
X136637Y327767D01*
X135637Y328267D02*
X136137Y327267D01*
X135637Y326267D02*
X136137Y327267D01*
X135598Y320560D02*
X136598Y321060D01*
X137598Y320560D01*
X137098Y321560D02*
X137598Y320560D01*
X137098Y321560D02*
X137598Y322560D01*
X136598Y322060D02*
X137598Y322560D01*
X135598D02*
X136598Y322060D01*
X135598Y322560D02*
X136098Y321560D01*
X135598Y320560D02*
X136098Y321560D01*
X46818Y321897D02*
X47818Y322397D01*
X48818Y321897D01*
X48318Y322897D02*
X48818Y321897D01*
X48318Y322897D02*
X48818Y323897D01*
X47818Y323397D02*
X48818Y323897D01*
X46818D02*
X47818Y323397D01*
X46818Y323897D02*
X47318Y322897D01*
X46818Y321897D02*
X47318Y322897D01*
X12212Y237319D02*
X12712D01*
X12212D02*
Y238319D01*
X12712D01*
Y238820D01*
X13713D01*
Y238319D02*
Y238820D01*
Y238319D02*
X14212D01*
Y237319D02*
Y238319D01*
X13713Y237319D02*
X14212D01*
X13713Y236820D02*
Y237319D01*
X12712Y236820D02*
X13713D01*
X12712D02*
Y237319D01*
X26858Y269682D02*
X27358D01*
X26858D02*
Y270682D01*
X27358D01*
Y271182D01*
X28358D01*
Y270682D02*
Y271182D01*
Y270682D02*
X28858D01*
Y269682D02*
Y270682D01*
X28358Y269682D02*
X28858D01*
X28358Y269182D02*
Y269682D01*
X27358Y269182D02*
X28358D01*
X27358D02*
Y269682D01*
X310323Y163591D02*
X311323Y164091D01*
X312323Y163591D01*
X311823Y164591D02*
X312323Y163591D01*
X311823Y164591D02*
X312323Y165591D01*
X311323Y165091D02*
X312323Y165591D01*
X310323D02*
X311323Y165091D01*
X310323Y165591D02*
X310823Y164591D01*
X310323Y163591D02*
X310823Y164591D01*
X31937Y140902D02*
X32437D01*
X31937D02*
Y141902D01*
X32437D01*
Y142402D01*
X33437D01*
Y141902D02*
Y142402D01*
Y141902D02*
X33937D01*
Y140902D02*
Y141902D01*
X33437Y140902D02*
X33937D01*
X33437Y140402D02*
Y140902D01*
X32437Y140402D02*
X33437D01*
X32437D02*
Y140902D01*
X253747Y287960D02*
X254747Y288460D01*
X255747Y287960D01*
X255247Y288960D02*
X255747Y287960D01*
X255247Y288960D02*
X255747Y289960D01*
X254747Y289460D02*
X255747Y289960D01*
X253747D02*
X254747Y289460D01*
X253747Y289960D02*
X254247Y288960D01*
X253747Y287960D02*
X254247Y288960D01*
X223433Y196217D02*
X223933D01*
X223433D02*
Y197217D01*
X223933D01*
Y197717D01*
X224933D01*
Y197217D02*
Y197717D01*
Y197217D02*
X225433D01*
Y196217D02*
Y197217D01*
X224933Y196217D02*
X225433D01*
X224933Y195717D02*
Y196217D01*
X223933Y195717D02*
X224933D01*
X223933D02*
Y196217D01*
X288472Y198186D02*
X288972D01*
X288472D02*
Y199186D01*
X288972D01*
Y199686D01*
X289972D01*
Y199186D02*
Y199686D01*
Y199186D02*
X290472D01*
Y198186D02*
Y199186D01*
X289972Y198186D02*
X290472D01*
X289972Y197686D02*
Y198186D01*
X288972Y197686D02*
X289972D01*
X288972D02*
Y198186D01*
X273433Y129918D02*
X273933D01*
X273433D02*
Y130918D01*
X273933D01*
Y131418D01*
X274933D01*
Y130918D02*
Y131418D01*
Y130918D02*
X275433D01*
Y129918D02*
Y130918D01*
X274933Y129918D02*
X275433D01*
X274933Y129418D02*
Y129918D01*
X273933Y129418D02*
X274933D01*
X273933D02*
Y129918D01*
X259732Y281178D02*
X260232D01*
X259732D02*
Y282178D01*
X260232D01*
Y282678D01*
X261232D01*
Y282178D02*
Y282678D01*
Y282178D02*
X261732D01*
Y281178D02*
Y282178D01*
X261232Y281178D02*
X261732D01*
X261232Y280678D02*
Y281178D01*
X260232Y280678D02*
X261232D01*
X260232D02*
Y281178D01*
X242055Y284367D02*
X242555D01*
X242055D02*
Y285367D01*
X242555D01*
Y285867D01*
X243555D01*
Y285367D02*
Y285867D01*
Y285367D02*
X244055D01*
Y284367D02*
Y285367D01*
X243555Y284367D02*
X244055D01*
X243555Y283867D02*
Y284367D01*
X242555Y283867D02*
X243555D01*
X242555D02*
Y284367D01*
X251425Y109406D02*
X251925D01*
X251425D02*
Y110406D01*
X251925D01*
Y110906D01*
X252925D01*
Y110406D02*
Y110906D01*
Y110406D02*
X253425D01*
Y109406D02*
Y110406D01*
X252925Y109406D02*
X253425D01*
X252925Y108906D02*
Y109406D01*
X251925Y108906D02*
X252925D01*
X251925D02*
Y109406D01*
X145283Y148540D02*
X145783D01*
X145283D02*
Y149540D01*
X145783D01*
Y150040D01*
X146783D01*
Y149540D02*
Y150040D01*
Y149540D02*
X147283D01*
Y148540D02*
Y149540D01*
X146783Y148540D02*
X147283D01*
X146783Y148040D02*
Y148540D01*
X145783Y148040D02*
X146783D01*
X145783D02*
Y148540D01*
X76110Y86797D02*
X76610D01*
X76110D02*
Y87797D01*
X76610D01*
Y88297D01*
X77610D01*
Y87797D02*
Y88297D01*
Y87797D02*
X78110D01*
Y86797D02*
Y87797D01*
X77610Y86797D02*
X78110D01*
X77610Y86297D02*
Y86797D01*
X76610Y86297D02*
X77610D01*
X76610D02*
Y86797D01*
X99731Y77082D02*
X100231D01*
X99731D02*
Y78082D01*
X100231D01*
Y78582D01*
X101231D01*
Y78082D02*
Y78582D01*
Y78082D02*
X101731D01*
Y77082D02*
Y78082D01*
X101231Y77082D02*
X101731D01*
X101231Y76582D02*
Y77082D01*
X100231Y76582D02*
X101231D01*
X100231D02*
Y77082D01*
X83866Y75508D02*
X84366D01*
X83866D02*
Y76508D01*
X84366D01*
Y77008D01*
X85366D01*
Y76508D02*
Y77008D01*
Y76508D02*
X85866D01*
Y75508D02*
Y76508D01*
X85366Y75508D02*
X85866D01*
X85366Y75008D02*
Y75508D01*
X84366Y75008D02*
X85366D01*
X84366D02*
Y75508D01*
X160401Y69091D02*
X160901D01*
X160401D02*
Y70091D01*
X160901D01*
Y70591D01*
X161901D01*
Y70091D02*
Y70591D01*
Y70091D02*
X162401D01*
Y69091D02*
Y70091D01*
X161901Y69091D02*
X162401D01*
X161901Y68591D02*
Y69091D01*
X160901Y68591D02*
X161901D01*
X160901D02*
Y69091D01*
X149260Y50666D02*
X149760D01*
X149260D02*
Y51666D01*
X149760D01*
Y52166D01*
X150760D01*
Y51666D02*
Y52166D01*
Y51666D02*
X151260D01*
Y50666D02*
Y51666D01*
X150760Y50666D02*
X151260D01*
X150760Y50166D02*
Y50666D01*
X149760Y50166D02*
X150760D01*
X149760D02*
Y50666D01*
X154772Y33434D02*
X155772Y33934D01*
X156772Y33434D01*
X156272Y34434D02*
X156772Y33434D01*
X156272Y34434D02*
X156772Y35434D01*
X155772Y34934D02*
X156772Y35434D01*
X154772D02*
X155772Y34934D01*
X154772Y35434D02*
X155272Y34434D01*
X154772Y33434D02*
X155272Y34434D01*
X227449Y53422D02*
X227949D01*
X227449D02*
Y54422D01*
X227949D01*
Y54922D01*
X228949D01*
Y54422D02*
Y54922D01*
Y54422D02*
X229449D01*
Y53422D02*
Y54422D01*
X228949Y53422D02*
X229449D01*
X228949Y52922D02*
Y53422D01*
X227949Y52922D02*
X228949D01*
X227949D02*
Y53422D01*
X228354Y98619D02*
X228854D01*
X228354D02*
Y99619D01*
X228854D01*
Y100119D01*
X229854D01*
Y99619D02*
Y100119D01*
Y99619D02*
X230354D01*
Y98619D02*
Y99619D01*
X229854Y98619D02*
X230354D01*
X229854Y98119D02*
Y98619D01*
X228854Y98119D02*
X229854D01*
X228854D02*
Y98619D01*
X227470Y102398D02*
X227970D01*
X227470D02*
Y103398D01*
X227970D01*
Y103898D01*
X228970D01*
Y103398D02*
Y103898D01*
Y103398D02*
X229470D01*
Y102398D02*
Y103398D01*
X228970Y102398D02*
X229470D01*
X228970Y101898D02*
Y102398D01*
X227970Y101898D02*
X228970D01*
X227970D02*
Y102398D01*
X227487Y105744D02*
X227987D01*
X227487D02*
Y106744D01*
X227987D01*
Y107244D01*
X228987D01*
Y106744D02*
Y107244D01*
Y106744D02*
X229487D01*
Y105744D02*
Y106744D01*
X228987Y105744D02*
X229487D01*
X228987Y105244D02*
Y105744D01*
X227987Y105244D02*
X228987D01*
X227987D02*
Y105744D01*
X249850Y96453D02*
X250350D01*
X249850D02*
Y97453D01*
X250350D01*
Y97953D01*
X251350D01*
Y97453D02*
Y97953D01*
Y97453D02*
X251850D01*
Y96453D02*
Y97453D01*
X251350Y96453D02*
X251850D01*
X251350Y95953D02*
Y96453D01*
X250350Y95953D02*
X251350D01*
X250350D02*
Y96453D01*
X237212Y67359D02*
X237713D01*
X237212D02*
Y68359D01*
X237713D01*
Y68859D01*
X238713D01*
Y68359D02*
Y68859D01*
Y68359D02*
X239212D01*
Y67359D02*
Y68359D01*
X238713Y67359D02*
X239212D01*
X238713Y66859D02*
Y67359D01*
X237713Y66859D02*
X238713D01*
X237713D02*
Y67359D01*
X256740Y67162D02*
X257240D01*
X256740D02*
Y68162D01*
X257240D01*
Y68662D01*
X258240D01*
Y68162D02*
Y68662D01*
Y68162D02*
X258740D01*
Y67162D02*
Y68162D01*
X258240Y67162D02*
X258740D01*
X258240Y66662D02*
Y67162D01*
X257240Y66662D02*
X258240D01*
X257240D02*
Y67162D01*
X116779Y130783D02*
X117279D01*
X116779D02*
Y131783D01*
X117279D01*
Y132283D01*
X118279D01*
Y131783D02*
Y132283D01*
Y131783D02*
X118779D01*
Y130783D02*
Y131783D01*
X118279Y130783D02*
X118779D01*
X118279Y130283D02*
Y130783D01*
X117279Y130283D02*
X118279D01*
X117279D02*
Y130783D01*
X119929Y198225D02*
X120429D01*
X119929D02*
Y199225D01*
X120429D01*
Y199725D01*
X121429D01*
Y199225D02*
Y199725D01*
Y199225D02*
X121929D01*
Y198225D02*
Y199225D01*
X121429Y198225D02*
X121929D01*
X121429Y197725D02*
Y198225D01*
X120429Y197725D02*
X121429D01*
X120429D02*
Y198225D01*
X234574Y180350D02*
X235074D01*
X234574D02*
Y181350D01*
X235074D01*
Y181850D01*
X236074D01*
Y181350D02*
Y181850D01*
Y181350D02*
X236574D01*
Y180350D02*
Y181350D01*
X236074Y180350D02*
X236574D01*
X236074Y179850D02*
Y180350D01*
X235074Y179850D02*
X236074D01*
X235074D02*
Y180350D01*
X293787Y5233D02*
X294287D01*
X293787D02*
Y6233D01*
X294287D01*
Y6733D01*
X295287D01*
Y6233D02*
Y6733D01*
Y6233D02*
X295787D01*
Y5233D02*
Y6233D01*
X295287Y5233D02*
X295787D01*
X295287Y4733D02*
Y5233D01*
X294287Y4733D02*
X295287D01*
X294287D02*
Y5233D01*
X285598Y7477D02*
X286098D01*
X285598D02*
Y8477D01*
X286098D01*
Y8977D01*
X287098D01*
Y8477D02*
Y8977D01*
Y8477D02*
X287598D01*
Y7477D02*
Y8477D01*
X287098Y7477D02*
X287598D01*
X287098Y6977D02*
Y7477D01*
X286098Y6977D02*
X287098D01*
X286098D02*
Y7477D01*
X224614Y207123D02*
X225114D01*
X224614D02*
Y208123D01*
X225114D01*
Y208623D01*
X226114D01*
Y208123D02*
Y208623D01*
Y208123D02*
X226614D01*
Y207123D02*
Y208123D01*
X226114Y207123D02*
X226614D01*
X226114Y206623D02*
Y207123D01*
X225114Y206623D02*
X226114D01*
X225114D02*
Y207123D01*
X83118Y170942D02*
X83618D01*
X83118D02*
Y171942D01*
X83618D01*
Y172442D01*
X84618D01*
Y171942D02*
Y172442D01*
Y171942D02*
X85118D01*
Y170942D02*
Y171942D01*
X84618Y170942D02*
X85118D01*
X84618Y170442D02*
Y170942D01*
X83618Y170442D02*
X84618D01*
X83618D02*
Y170942D01*
X49811Y342056D02*
X50811Y342556D01*
X51811Y342056D01*
X51311Y343056D02*
X51811Y342056D01*
X51311Y343056D02*
X51811Y344056D01*
X50811Y343556D02*
X51811Y344056D01*
X49811D02*
X50811Y343556D01*
X49811Y344056D02*
X50311Y343056D01*
X49811Y342056D02*
X50311Y343056D01*
X298197Y329839D02*
X298697D01*
X298197D02*
Y330839D01*
X298697D01*
Y331339D01*
X299697D01*
Y330839D02*
Y331339D01*
Y330839D02*
X300197D01*
Y329839D02*
Y330839D01*
X299697Y329839D02*
X300197D01*
X299697Y329339D02*
Y329839D01*
X298697Y329339D02*
X299697D01*
X298697D02*
Y329839D01*
X149299Y278040D02*
X150299Y278540D01*
X151299Y278040D01*
X150799Y279040D02*
X151299Y278040D01*
X150799Y279040D02*
X151299Y280040D01*
X150299Y279540D02*
X151299Y280040D01*
X149299D02*
X150299Y279540D01*
X149299Y280040D02*
X149799Y279040D01*
X149299Y278040D02*
X149799Y279040D01*
X208512Y188264D02*
X209012D01*
X208512D02*
Y189264D01*
X209012D01*
Y189764D01*
X210012D01*
Y189264D02*
Y189764D01*
Y189264D02*
X210512D01*
Y188264D02*
Y189264D01*
X210012Y188264D02*
X210512D01*
X210012Y187764D02*
Y188264D01*
X209012Y187764D02*
X210012D01*
X209012D02*
Y188264D01*
X52449Y288934D02*
X52949D01*
X52449D02*
Y289934D01*
X52949D01*
Y290434D01*
X53949D01*
Y289934D02*
Y290434D01*
Y289934D02*
X54449D01*
Y288934D02*
Y289934D01*
X53949Y288934D02*
X54449D01*
X53949Y288434D02*
Y288934D01*
X52949Y288434D02*
X53949D01*
X52949D02*
Y288934D01*
X107291Y275745D02*
X107791D01*
X107291D02*
Y276745D01*
X107791D01*
Y277245D01*
X108791D01*
Y276745D02*
Y277245D01*
Y276745D02*
X109291D01*
Y275745D02*
Y276745D01*
X108791Y275745D02*
X109291D01*
X108791Y275245D02*
Y275745D01*
X107791Y275245D02*
X108791D01*
X107791D02*
Y275745D01*
X254063Y293552D02*
X255063Y294052D01*
X256063Y293552D01*
X255563Y294552D02*
X256063Y293552D01*
X255563Y294552D02*
X256063Y295552D01*
X255063Y295052D02*
X256063Y295552D01*
X254063D02*
X255063Y295052D01*
X254063Y295552D02*
X254563Y294552D01*
X254063Y293552D02*
X254563Y294552D01*
X248157Y293552D02*
X249157Y294052D01*
X250157Y293552D01*
X249657Y294552D02*
X250157Y293552D01*
X249657Y294552D02*
X250157Y295552D01*
X249157Y295052D02*
X250157Y295552D01*
X248157D02*
X249157Y295052D01*
X248157Y295552D02*
X248657Y294552D01*
X248157Y293552D02*
X248657Y294552D01*
X248157Y299457D02*
X249157Y299957D01*
X250157Y299457D01*
X249657Y300457D02*
X250157Y299457D01*
X249657Y300457D02*
X250157Y301457D01*
X249157Y300957D02*
X250157Y301457D01*
X248157D02*
X249157Y300957D01*
X248157Y301457D02*
X248657Y300457D01*
X248157Y299457D02*
X248657Y300457D01*
X254063Y299457D02*
X255063Y299957D01*
X256063Y299457D01*
X255563Y300457D02*
X256063Y299457D01*
X255563Y300457D02*
X256063Y301457D01*
X255063Y300957D02*
X256063Y301457D01*
X254063D02*
X255063Y300957D01*
X254063Y301457D02*
X254563Y300457D01*
X254063Y299457D02*
X254563Y300457D01*
X242252Y53906D02*
X243252Y54406D01*
X244252Y53906D01*
X243752Y54906D02*
X244252Y53906D01*
X243752Y54906D02*
X244252Y55906D01*
X243252Y55406D02*
X244252Y55906D01*
X242252D02*
X243252Y55406D01*
X242252Y55906D02*
X242752Y54906D01*
X242252Y53906D02*
X242752Y54906D01*
X248590Y53906D02*
X249590Y54406D01*
X250590Y53906D01*
X250091Y54906D02*
X250590Y53906D01*
X250091Y54906D02*
X250590Y55906D01*
X249590Y55406D02*
X250590Y55906D01*
X248590D02*
X249590Y55406D01*
X248590Y55906D02*
X249091Y54906D01*
X248590Y53906D02*
X249091Y54906D01*
X95047Y47961D02*
X96047Y48461D01*
X97047Y47961D01*
X96547Y48961D02*
X97047Y47961D01*
X96547Y48961D02*
X97047Y49961D01*
X96047Y49461D02*
X97047Y49961D01*
X95047D02*
X96047Y49461D01*
X95047Y49961D02*
X95547Y48961D01*
X95047Y47961D02*
X95547Y48961D01*
X88512Y59851D02*
X89512Y60351D01*
X90512Y59851D01*
X90012Y60851D02*
X90512Y59851D01*
X90012Y60851D02*
X90512Y61851D01*
X89512Y61351D02*
X90512Y61851D01*
X88512D02*
X89512Y61351D01*
X88512Y61851D02*
X89012Y60851D01*
X88512Y59851D02*
X89012Y60851D01*
X95047Y59851D02*
X96047Y60351D01*
X97047Y59851D01*
X96547Y60851D02*
X97047Y59851D01*
X96547Y60851D02*
X97047Y61851D01*
X96047Y61351D02*
X97047Y61851D01*
X95047D02*
X96047Y61351D01*
X95047Y61851D02*
X95547Y60851D01*
X95047Y59851D02*
X95547Y60851D01*
X242252Y47961D02*
X243252Y48461D01*
X244252Y47961D01*
X243752Y48961D02*
X244252Y47961D01*
X243752Y48961D02*
X244252Y49961D01*
X243252Y49461D02*
X244252Y49961D01*
X242252D02*
X243252Y49461D01*
X242252Y49961D02*
X242752Y48961D01*
X242252Y47961D02*
X242752Y48961D01*
X248590Y59851D02*
X249590Y60351D01*
X250590Y59851D01*
X250091Y60851D02*
X250590Y59851D01*
X250091Y60851D02*
X250590Y61851D01*
X249590Y61351D02*
X250590Y61851D01*
X248590D02*
X249590Y61351D01*
X248590Y61851D02*
X249091Y60851D01*
X248590Y59851D02*
X249091Y60851D01*
X245087Y109091D02*
X245586D01*
X245087D02*
Y110091D01*
X245586D01*
Y110591D01*
X246586D01*
Y110091D02*
Y110591D01*
Y110091D02*
X247087D01*
Y109091D02*
Y110091D01*
X246586Y109091D02*
X247087D01*
X246586Y108591D02*
Y109091D01*
X245586Y108591D02*
X246586D01*
X245586D02*
Y109091D01*
X166370Y124249D02*
X166870D01*
X166370D02*
Y125249D01*
X166870D01*
Y125749D01*
X167870D01*
Y125249D02*
Y125749D01*
Y125249D02*
X168370D01*
Y124249D02*
Y125249D01*
X167870Y124249D02*
X168370D01*
X167870Y123749D02*
Y124249D01*
X166870Y123749D02*
X167870D01*
X166870D02*
Y124249D01*
X19339Y188304D02*
X19839D01*
X19339D02*
Y189304D01*
X19839D01*
Y189804D01*
X20839D01*
Y189304D02*
Y189804D01*
Y189304D02*
X21339D01*
Y188304D02*
Y189304D01*
X20839Y188304D02*
X21339D01*
X20839Y187804D02*
Y188304D01*
X19839Y187804D02*
X20839D01*
X19839D02*
Y188304D01*
X211740Y315875D02*
X212740Y316375D01*
X213740Y315875D01*
X213240Y316875D02*
X213740Y315875D01*
X213240Y316875D02*
X213740Y317875D01*
X212740Y317375D02*
X213740Y317875D01*
X211740D02*
X212740Y317375D01*
X211740Y317875D02*
X212240Y316875D01*
X211740Y315875D02*
X212240Y316875D01*
X248157Y287646D02*
X249157Y288146D01*
X250157Y287646D01*
X249657Y288646D02*
X250157Y287646D01*
X249657Y288646D02*
X250157Y289646D01*
X249157Y289146D02*
X250157Y289646D01*
X248157D02*
X249157Y289146D01*
X248157Y289646D02*
X248657Y288646D01*
X248157Y287646D02*
X248657Y288646D01*
X155677Y183186D02*
X156177D01*
X155677D02*
Y184186D01*
X156177D01*
Y184686D01*
X157177D01*
Y184186D02*
Y184686D01*
Y184186D02*
X157677D01*
Y183186D02*
Y184186D01*
X157177Y183186D02*
X157677D01*
X157177Y182686D02*
Y183186D01*
X156177Y182686D02*
X157177D01*
X156177D02*
Y183186D01*
X279455Y153618D02*
X279956D01*
X279455D02*
Y154618D01*
X279956D01*
Y155118D01*
X280956D01*
Y154618D02*
Y155118D01*
Y154618D02*
X281455D01*
Y153618D02*
Y154618D01*
X280956Y153618D02*
X281455D01*
X280956Y153118D02*
Y153618D01*
X279956Y153118D02*
X280956D01*
X279956D02*
Y153618D01*
X214496Y146453D02*
X214996D01*
X214496D02*
Y147453D01*
X214996D01*
Y147953D01*
X215996D01*
Y147453D02*
Y147953D01*
Y147453D02*
X216496D01*
Y146453D02*
Y147453D01*
X215996Y146453D02*
X216496D01*
X215996Y145953D02*
Y146453D01*
X214996Y145953D02*
X215996D01*
X214996D02*
Y146453D01*
X203354Y194091D02*
X203854D01*
X203354D02*
Y195091D01*
X203854D01*
Y195591D01*
X204854D01*
Y195091D02*
Y195591D01*
Y195091D02*
X205354D01*
Y194091D02*
Y195091D01*
X204854Y194091D02*
X205354D01*
X204854Y193591D02*
Y194091D01*
X203854Y193591D02*
X204854D01*
X203854D02*
Y194091D01*
X202921Y201296D02*
X203421D01*
X202921D02*
Y202296D01*
X203421D01*
Y202796D01*
X204421D01*
Y202296D02*
Y202796D01*
Y202296D02*
X204921D01*
Y201296D02*
Y202296D01*
X204421Y201296D02*
X204921D01*
X204421Y200796D02*
Y201296D01*
X203421Y200796D02*
X204421D01*
X203421D02*
Y201296D01*
X208591Y199130D02*
X209090D01*
X208591D02*
Y200131D01*
X209090D01*
Y200630D01*
X210090D01*
Y200131D02*
Y200630D01*
Y200131D02*
X210591D01*
Y199130D02*
Y200131D01*
X210090Y199130D02*
X210591D01*
X210090Y198630D02*
Y199130D01*
X209090Y198630D02*
X210090D01*
X209090D02*
Y199130D01*
X305205Y204131D02*
X305705D01*
X305205D02*
Y205131D01*
X305705D01*
Y205630D01*
X306705D01*
Y205131D02*
Y205630D01*
Y205131D02*
X307205D01*
Y204131D02*
Y205131D01*
X306705Y204131D02*
X307205D01*
X306705Y203630D02*
Y204131D01*
X305705Y203630D02*
X306705D01*
X305705D02*
Y204131D01*
X255874Y110666D02*
X256374D01*
X255874D02*
Y111666D01*
X256374D01*
Y112166D01*
X257374D01*
Y111666D02*
Y112166D01*
Y111666D02*
X257874D01*
Y110666D02*
Y111666D01*
X257374Y110666D02*
X257874D01*
X257374Y110166D02*
Y110666D01*
X256374Y110166D02*
X257374D01*
X256374D02*
Y110666D01*
X146465Y191768D02*
X146965D01*
X146465D02*
Y192768D01*
X146965D01*
Y193268D01*
X147965D01*
Y192768D02*
Y193268D01*
Y192768D02*
X148465D01*
Y191768D02*
Y192768D01*
X147965Y191768D02*
X148465D01*
X147965Y191268D02*
Y191768D01*
X146965Y191268D02*
X147965D01*
X146965D02*
Y191768D01*
X143511Y167082D02*
X144011D01*
X143511D02*
Y168082D01*
X144011D01*
Y168582D01*
X145011D01*
Y168082D02*
Y168582D01*
Y168082D02*
X145511D01*
Y167082D02*
Y168082D01*
X145011Y167082D02*
X145511D01*
X145011Y166582D02*
Y167082D01*
X144011Y166582D02*
X145011D01*
X144011D02*
Y167082D01*
X141149Y169445D02*
X141649D01*
X141149D02*
Y170445D01*
X141649D01*
Y170944D01*
X142649D01*
Y170445D02*
Y170944D01*
Y170445D02*
X143149D01*
Y169445D02*
Y170445D01*
X142649Y169445D02*
X143149D01*
X142649Y168945D02*
Y169445D01*
X141649Y168945D02*
X142649D01*
X141649D02*
Y169445D01*
X148197Y159524D02*
X148697D01*
X148197D02*
Y160524D01*
X148697D01*
Y161024D01*
X149697D01*
Y160524D02*
Y161024D01*
Y160524D02*
X150197D01*
Y159524D02*
Y160524D01*
X149697Y159524D02*
X150197D01*
X149697Y159024D02*
Y159524D01*
X148697Y159024D02*
X149697D01*
X148697D02*
Y159524D01*
X210756Y75666D02*
X211256D01*
X210756D02*
Y76666D01*
X211256D01*
Y77166D01*
X212256D01*
Y76666D02*
Y77166D01*
Y76666D02*
X212756D01*
Y75666D02*
Y76666D01*
X212256Y75666D02*
X212756D01*
X212256Y75166D02*
Y75666D01*
X211256Y75166D02*
X212256D01*
X211256D02*
Y75666D01*
X130264Y157607D02*
X131264Y158107D01*
X132264Y157607D01*
X131764Y158607D02*
X132264Y157607D01*
X131764Y158607D02*
X132264Y159607D01*
X131264Y159107D02*
X132264Y159607D01*
X130264D02*
X131264Y159107D01*
X130264Y159607D02*
X130764Y158607D01*
X130264Y157607D02*
X130764Y158607D01*
X124653Y157607D02*
X125654Y158107D01*
X126654Y157607D01*
X126154Y158607D02*
X126654Y157607D01*
X126154Y158607D02*
X126654Y159607D01*
X125654Y159107D02*
X126654Y159607D01*
X124653D02*
X125654Y159107D01*
X124653Y159607D02*
X125154Y158607D01*
X124653Y157607D02*
X125154Y158607D01*
X135874Y157607D02*
X136874Y158107D01*
X137874Y157607D01*
X137374Y158607D02*
X137874Y157607D01*
X137374Y158607D02*
X137874Y159607D01*
X136874Y159107D02*
X137874Y159607D01*
X135874D02*
X136874Y159107D01*
X135874Y159607D02*
X136374Y158607D01*
X135874Y157607D02*
X136374Y158607D01*
X135913Y162646D02*
X136913Y163146D01*
X137913Y162646D01*
X137413Y163646D02*
X137913Y162646D01*
X137413Y163646D02*
X137913Y164646D01*
X136913Y164146D02*
X137913Y164646D01*
X135913D02*
X136913Y164146D01*
X135913Y164646D02*
X136413Y163646D01*
X135913Y162646D02*
X136413Y163646D01*
X124181Y162646D02*
X125181Y163146D01*
X126181Y162646D01*
X125681Y163646D02*
X126181Y162646D01*
X125681Y163646D02*
X126181Y164646D01*
X125181Y164146D02*
X126181Y164646D01*
X124181D02*
X125181Y164146D01*
X124181Y164646D02*
X124681Y163646D01*
X124181Y162646D02*
X124681Y163646D01*
X130441Y162646D02*
X131441Y163146D01*
X132441Y162646D01*
X131941Y163646D02*
X132441Y162646D01*
X131941Y163646D02*
X132441Y164646D01*
X131441Y164146D02*
X132441Y164646D01*
X130441D02*
X131441Y164146D01*
X130441Y164646D02*
X130941Y163646D01*
X130441Y162646D02*
X130941Y163646D01*
X193236Y191493D02*
X193736D01*
X193236D02*
Y192493D01*
X193736D01*
Y192993D01*
X194736D01*
Y192493D02*
Y192993D01*
Y192493D02*
X195236D01*
Y191493D02*
Y192493D01*
X194736Y191493D02*
X195236D01*
X194736Y190993D02*
Y191493D01*
X193736Y190993D02*
X194736D01*
X193736D02*
Y191493D01*
X243157Y304131D02*
X243657D01*
X243157D02*
Y305131D01*
X243657D01*
Y305630D01*
X244657D01*
Y305131D02*
Y305630D01*
Y305131D02*
X245157D01*
Y304131D02*
Y305131D01*
X244657Y304131D02*
X245157D01*
X244657Y303630D02*
Y304131D01*
X243657Y303630D02*
X244657D01*
X243657D02*
Y304131D01*
X239141Y38303D02*
X239641D01*
X239141D02*
Y39303D01*
X239641D01*
Y39803D01*
X240641D01*
Y39303D02*
Y39803D01*
Y39303D02*
X241141D01*
Y38303D02*
Y39303D01*
X240641Y38303D02*
X241141D01*
X240641Y37803D02*
Y38303D01*
X239641Y37803D02*
X240641D01*
X239641D02*
Y38303D01*
X298630Y339012D02*
X299130D01*
X298630D02*
Y340012D01*
X299130D01*
Y340512D01*
X300130D01*
Y340012D02*
Y340512D01*
Y340012D02*
X300630D01*
Y339012D02*
Y340012D01*
X300130Y339012D02*
X300630D01*
X300130Y338512D02*
Y339012D01*
X299130Y338512D02*
X300130D01*
X299130D02*
Y339012D01*
X178472Y121493D02*
X178972D01*
X178472D02*
Y122493D01*
X178972D01*
Y122993D01*
X179972D01*
Y122493D02*
Y122993D01*
Y122493D02*
X180472D01*
Y121493D02*
Y122493D01*
X179972Y121493D02*
X180472D01*
X179972Y120993D02*
Y121493D01*
X178972Y120993D02*
X179972D01*
X178972D02*
Y121493D01*
X114378Y199800D02*
X114878D01*
X114378D02*
Y200800D01*
X114878D01*
Y201300D01*
X115878D01*
Y200800D02*
Y201300D01*
Y200800D02*
X116378D01*
Y199800D02*
Y200800D01*
X115878Y199800D02*
X116378D01*
X115878Y199300D02*
Y199800D01*
X114878Y199300D02*
X115878D01*
X114878D02*
Y199800D01*
X73039Y345204D02*
X74039Y345704D01*
X75039Y345204D01*
X74539Y346204D02*
X75039Y345204D01*
X74539Y346204D02*
X75039Y347204D01*
X74039Y346704D02*
X75039Y347204D01*
X73039D02*
X74039Y346704D01*
X73039Y347204D02*
X73539Y346204D01*
X73039Y345204D02*
X73539Y346204D01*
X173945Y162713D02*
X174445D01*
X173945D02*
Y163713D01*
X174445D01*
Y164213D01*
X175445D01*
Y163713D02*
Y164213D01*
Y163713D02*
X175945D01*
Y162713D02*
Y163713D01*
X175445Y162713D02*
X175945D01*
X175445Y162213D02*
Y162713D01*
X174445Y162213D02*
X175445D01*
X174445D02*
Y162713D01*
X59102Y248776D02*
X59602D01*
X59102D02*
Y249776D01*
X59602D01*
Y250276D01*
X60602D01*
Y249776D02*
Y250276D01*
Y249776D02*
X61102D01*
Y248776D02*
Y249776D01*
X60602Y248776D02*
X61102D01*
X60602Y248276D02*
Y248776D01*
X59602Y248276D02*
X60602D01*
X59602D02*
Y248776D01*
X175756Y208264D02*
X176256D01*
X175756D02*
Y209264D01*
X176256D01*
Y209764D01*
X177256D01*
Y209264D02*
Y209764D01*
Y209264D02*
X177756D01*
Y208264D02*
Y209264D01*
X177256Y208264D02*
X177756D01*
X177256Y207764D02*
Y208264D01*
X176256Y207764D02*
X177256D01*
X176256D02*
Y208264D01*
X59102Y213186D02*
X59602D01*
X59102D02*
Y214186D01*
X59602D01*
Y214686D01*
X60602D01*
Y214186D02*
Y214686D01*
Y214186D02*
X61102D01*
Y213186D02*
Y214186D01*
X60602Y213186D02*
X61102D01*
X60602Y212686D02*
Y213186D01*
X59602Y212686D02*
X60602D01*
X59602D02*
Y213186D01*
X12094Y216532D02*
X12594D01*
X12094D02*
Y217532D01*
X12594D01*
Y218032D01*
X13594D01*
Y217532D02*
Y218032D01*
Y217532D02*
X14094D01*
Y216532D02*
Y217532D01*
X13594Y216532D02*
X14094D01*
X13594Y216032D02*
Y216532D01*
X12594Y216032D02*
X13594D01*
X12594D02*
Y216532D01*
X182252Y323461D02*
X182752D01*
X182252D02*
Y324461D01*
X182752D01*
Y324961D01*
X183752D01*
Y324461D02*
Y324961D01*
Y324461D02*
X184252D01*
Y323461D02*
Y324461D01*
X183752Y323461D02*
X184252D01*
X183752Y322961D02*
Y323461D01*
X182752Y322961D02*
X183752D01*
X182752D02*
Y323461D01*
X182646Y305587D02*
X183146D01*
X182646D02*
Y306587D01*
X183146D01*
Y307087D01*
X184146D01*
Y306587D02*
Y307087D01*
Y306587D02*
X184646D01*
Y305587D02*
Y306587D01*
X184146Y305587D02*
X184646D01*
X184146Y305087D02*
Y305587D01*
X183146Y305087D02*
X184146D01*
X183146D02*
Y305587D01*
X144072Y251090D02*
X144572D01*
X144072D02*
Y252090D01*
X144572D01*
Y252590D01*
X145572D01*
Y252090D02*
Y252590D01*
Y252090D02*
X146072D01*
Y251090D02*
Y252090D01*
X145572Y251090D02*
X146072D01*
X145572Y250590D02*
Y251090D01*
X144572Y250590D02*
X145572D01*
X144572D02*
Y251090D01*
X178166Y257271D02*
X178666D01*
X178166D02*
Y258271D01*
X178666D01*
Y258771D01*
X179666D01*
Y258271D02*
Y258771D01*
Y258271D02*
X180166D01*
Y257271D02*
Y258271D01*
X179666Y257271D02*
X180166D01*
X179666Y256771D02*
Y257271D01*
X178666Y256771D02*
X179666D01*
X178666D02*
Y257271D01*
X123197Y324012D02*
X123697D01*
X123197D02*
Y325012D01*
X123697D01*
Y325512D01*
X124697D01*
Y325012D02*
Y325512D01*
Y325012D02*
X125197D01*
Y324012D02*
Y325012D01*
X124697Y324012D02*
X125197D01*
X124697Y323512D02*
Y324012D01*
X123697Y323512D02*
X124697D01*
X123697D02*
Y324012D01*
X110214Y253137D02*
X110714D01*
X110214D02*
Y254137D01*
X110714D01*
Y254637D01*
X111714D01*
Y254137D02*
Y254637D01*
Y254137D02*
X112214D01*
Y253137D02*
Y254137D01*
X111714Y253137D02*
X112214D01*
X111714Y252637D02*
Y253137D01*
X110714Y252637D02*
X111714D01*
X110714D02*
Y253137D01*
X81434Y249988D02*
X81934D01*
X81434D02*
Y250988D01*
X81934D01*
Y251488D01*
X82934D01*
Y250988D02*
Y251488D01*
Y250988D02*
X83434D01*
Y249988D02*
Y250988D01*
X82934Y249988D02*
X83434D01*
X82934Y249488D02*
Y249988D01*
X81934Y249488D02*
X82934D01*
X81934D02*
Y249988D01*
X83521Y285617D02*
X84021D01*
X83521D02*
Y286617D01*
X84021D01*
Y287118D01*
X85021D01*
Y286617D02*
Y287118D01*
Y286617D02*
X85521D01*
Y285617D02*
Y286617D01*
X85021Y285617D02*
X85521D01*
X85021Y285118D02*
Y285617D01*
X84021Y285118D02*
X85021D01*
X84021D02*
Y285617D01*
X2812Y298334D02*
X3312D01*
X2812D02*
Y299334D01*
X3312D01*
Y299834D01*
X4312D01*
Y299334D02*
Y299834D01*
Y299334D02*
X4812D01*
Y298334D02*
Y299334D01*
X4312Y298334D02*
X4812D01*
X4312Y297834D02*
Y298334D01*
X3312Y297834D02*
X4312D01*
X3312D02*
Y298334D01*
X2733Y249397D02*
X3233D01*
X2733D02*
Y250397D01*
X3233D01*
Y250897D01*
X4233D01*
Y250397D02*
Y250897D01*
Y250397D02*
X4733D01*
Y249397D02*
Y250397D01*
X4233Y249397D02*
X4733D01*
X4233Y248897D02*
Y249397D01*
X3233Y248897D02*
X4233D01*
X3233D02*
Y249397D01*
X29575Y259327D02*
X30075D01*
X29575D02*
Y260327D01*
X30075D01*
Y260827D01*
X31075D01*
Y260327D02*
Y260827D01*
Y260327D02*
X31575D01*
Y259327D02*
Y260327D01*
X31075Y259327D02*
X31575D01*
X31075Y258827D02*
Y259327D01*
X30075Y258827D02*
X31075D01*
X30075D02*
Y259327D01*
X201583Y183697D02*
X202083D01*
X201583D02*
Y184697D01*
X202083D01*
Y185197D01*
X203083D01*
Y184697D02*
Y185197D01*
Y184697D02*
X203583D01*
Y183697D02*
Y184697D01*
X203083Y183697D02*
X203583D01*
X203083Y183197D02*
Y183697D01*
X202083Y183197D02*
X203083D01*
X202083D02*
Y183697D01*
X240362Y323067D02*
X240862D01*
X240362D02*
Y324067D01*
X240862D01*
Y324568D01*
X241862D01*
Y324067D02*
Y324568D01*
Y324067D02*
X242362D01*
Y323067D02*
Y324067D01*
X241862Y323067D02*
X242362D01*
X241862Y322568D02*
Y323067D01*
X240862Y322568D02*
X241862D01*
X240862D02*
Y323067D01*
X12370Y227949D02*
X12870D01*
X12370D02*
Y228949D01*
X12870D01*
Y229449D01*
X13870D01*
Y228949D02*
Y229449D01*
Y228949D02*
X14370D01*
Y227949D02*
Y228949D01*
X13870Y227949D02*
X14370D01*
X13870Y227449D02*
Y227949D01*
X12870Y227449D02*
X13870D01*
X12870D02*
Y227949D01*
X53630Y206611D02*
X54130D01*
X53630D02*
Y207611D01*
X54130D01*
Y208111D01*
X55130D01*
Y207611D02*
Y208111D01*
Y207611D02*
X55630D01*
Y206611D02*
Y207611D01*
X55130Y206611D02*
X55630D01*
X55130Y206111D02*
Y206611D01*
X54130Y206111D02*
X55130D01*
X54130D02*
Y206611D01*
X90873Y202397D02*
X91373D01*
X90873D02*
Y203397D01*
X91373D01*
Y203897D01*
X92373D01*
Y203397D02*
Y203897D01*
Y203397D02*
X92873D01*
Y202397D02*
Y203397D01*
X92373Y202397D02*
X92873D01*
X92373Y201897D02*
Y202397D01*
X91373Y201897D02*
X92373D01*
X91373D02*
Y202397D01*
X249693Y90469D02*
X250193D01*
X249693D02*
Y91469D01*
X250193D01*
Y91969D01*
X251193D01*
Y91469D02*
Y91969D01*
Y91469D02*
X251693D01*
Y90469D02*
Y91469D01*
X251193Y90469D02*
X251693D01*
X251193Y89969D02*
Y90469D01*
X250193Y89969D02*
X251193D01*
X250193D02*
Y90469D01*
X177882Y74524D02*
X178382D01*
X177882D02*
Y75524D01*
X178382D01*
Y76024D01*
X179382D01*
Y75524D02*
Y76024D01*
Y75524D02*
X179882D01*
Y74524D02*
Y75524D01*
X179382Y74524D02*
X179882D01*
X179382Y74024D02*
Y74524D01*
X178382Y74024D02*
X179382D01*
X178382D02*
Y74524D01*
X127122Y132387D02*
X127622D01*
X127122D02*
Y133387D01*
X127622D01*
Y133887D01*
X128622D01*
Y133387D02*
Y133887D01*
Y133387D02*
X129122D01*
Y132387D02*
Y133387D01*
X128622Y132387D02*
X129122D01*
X128622Y131887D02*
Y132387D01*
X127622Y131887D02*
X128622D01*
X127622D02*
Y132387D01*
X311307Y222883D02*
X312307Y223382D01*
X313307Y222883D01*
X312807Y223883D02*
X313307Y222883D01*
X312807Y223883D02*
X313307Y224883D01*
X312307Y224382D02*
X313307Y224883D01*
X311307D02*
X312307Y224382D01*
X311307Y224883D02*
X311807Y223883D01*
X311307Y222883D02*
X311807Y223883D01*
X305401Y179249D02*
X305902D01*
X305401D02*
Y180249D01*
X305902D01*
Y180749D01*
X306902D01*
Y180249D02*
Y180749D01*
Y180249D02*
X307401D01*
Y179249D02*
Y180249D01*
X306902Y179249D02*
X307401D01*
X306902Y178749D02*
Y179249D01*
X305902Y178749D02*
X306902D01*
X305902D02*
Y179249D01*
X179772Y109052D02*
X180272D01*
X179772D02*
Y110052D01*
X180272D01*
Y110552D01*
X181272D01*
Y110052D02*
Y110552D01*
Y110052D02*
X181772D01*
Y109052D02*
Y110052D01*
X181272Y109052D02*
X181772D01*
X181272Y108552D02*
Y109052D01*
X180272Y108552D02*
X181272D01*
X180272D02*
Y109052D01*
X217252Y70627D02*
X217752D01*
X217252D02*
Y71627D01*
X217752D01*
Y72127D01*
X218752D01*
Y71627D02*
Y72127D01*
Y71627D02*
X219252D01*
Y70627D02*
Y71627D01*
X218752Y70627D02*
X219252D01*
X218752Y70127D02*
Y70627D01*
X217752Y70127D02*
X218752D01*
X217752D02*
Y70627D01*
X220638Y67989D02*
X221138D01*
X220638D02*
Y68989D01*
X221138D01*
Y69489D01*
X222138D01*
Y68989D02*
Y69489D01*
Y68989D02*
X222638D01*
Y67989D02*
Y68989D01*
X222138Y67989D02*
X222638D01*
X222138Y67489D02*
Y67989D01*
X221138Y67489D02*
X222138D01*
X221138D02*
Y67989D01*
X165165Y45442D02*
X166165Y45942D01*
X167165Y45442D01*
X166665Y46442D02*
X167165Y45442D01*
X166665Y46442D02*
X167165Y47442D01*
X166165Y46942D02*
X167165Y47442D01*
X165165D02*
X166165Y46942D01*
X165165Y47442D02*
X165665Y46442D01*
X165165Y45442D02*
X165665Y46442D01*
X165165Y52091D02*
X166165Y52591D01*
X167165Y52091D01*
X166665Y53091D02*
X167165Y52091D01*
X166665Y53091D02*
X167165Y54091D01*
X166165Y53591D02*
X167165Y54091D01*
X165165D02*
X166165Y53591D01*
X165165Y54091D02*
X165665Y53091D01*
X165165Y52091D02*
X165665Y53091D01*
X165165Y58741D02*
X166165Y59241D01*
X167165Y58741D01*
X166665Y59741D02*
X167165Y58741D01*
X166665Y59741D02*
X167165Y60741D01*
X166165Y60241D02*
X167165Y60741D01*
X165165D02*
X166165Y60241D01*
X165165Y60741D02*
X165665Y59741D01*
X165165Y58741D02*
X165665Y59741D01*
X203196Y129141D02*
X204196Y129641D01*
X205196Y129141D01*
X204696Y130141D02*
X205196Y129141D01*
X204696Y130141D02*
X205196Y131141D01*
X204196Y130641D02*
X205196Y131141D01*
X203196D02*
X204196Y130641D01*
X203196Y131141D02*
X203696Y130141D01*
X203196Y129141D02*
X203696Y130141D01*
X201307Y116926D02*
X201807D01*
X201307D02*
Y117926D01*
X201807D01*
Y118426D01*
X202807D01*
Y117926D02*
Y118426D01*
Y117926D02*
X203307D01*
Y116926D02*
Y117926D01*
X202807Y116926D02*
X203307D01*
X202807Y116426D02*
Y116926D01*
X201807Y116426D02*
X202807D01*
X201807D02*
Y116926D01*
X240401Y71413D02*
X240900D01*
X240401D02*
Y72413D01*
X240900D01*
Y72913D01*
X241900D01*
Y72413D02*
Y72913D01*
Y72413D02*
X242401D01*
Y71413D02*
Y72413D01*
X241900Y71413D02*
X242401D01*
X241900Y70913D02*
Y71413D01*
X240900Y70913D02*
X241900D01*
X240900D02*
Y71413D01*
X219023Y216382D02*
X219524D01*
X219023D02*
Y217382D01*
X219524D01*
Y217882D01*
X220524D01*
Y217382D02*
Y217882D01*
Y217382D02*
X221024D01*
Y216382D02*
Y217382D01*
X220524Y216382D02*
X221024D01*
X220524Y215882D02*
Y216382D01*
X219524Y215882D02*
X220524D01*
X219524D02*
Y216382D01*
X203331Y153036D02*
X203831D01*
X203331D02*
Y154036D01*
X203831D01*
Y154536D01*
X204831D01*
Y154036D02*
Y154536D01*
Y154036D02*
X205331D01*
Y153036D02*
Y154036D01*
X204831Y153036D02*
X205331D01*
X204831Y152536D02*
Y153036D01*
X203831Y152536D02*
X204831D01*
X203831D02*
Y153036D01*
X203331Y146980D02*
X203831D01*
X203331D02*
Y147980D01*
X203831D01*
Y148480D01*
X204831D01*
Y147980D02*
Y148480D01*
Y147980D02*
X205331D01*
Y146980D02*
Y147980D01*
X204831Y146980D02*
X205331D01*
X204831Y146480D02*
Y146980D01*
X203831Y146480D02*
X204831D01*
X203831D02*
Y146980D01*
X242386Y166980D02*
X242886D01*
X242386D02*
Y167980D01*
X242886D01*
Y168480D01*
X243886D01*
Y167980D02*
Y168480D01*
Y167980D02*
X244386D01*
Y166980D02*
Y167980D01*
X243886Y166980D02*
X244386D01*
X243886Y166480D02*
Y166980D01*
X242886Y166480D02*
X243886D01*
X242886D02*
Y166980D01*
X259063Y121453D02*
X259563D01*
X259063D02*
Y122453D01*
X259563D01*
Y122953D01*
X260563D01*
Y122453D02*
Y122953D01*
Y122453D02*
X261063D01*
Y121453D02*
Y122453D01*
X260563Y121453D02*
X261063D01*
X260563Y120953D02*
Y121453D01*
X259563Y120953D02*
X260563D01*
X259563D02*
Y121453D01*
X73370Y102898D02*
X74370Y103398D01*
X75370Y102898D01*
X74870Y103898D02*
X75370Y102898D01*
X74870Y103898D02*
X75370Y104898D01*
X74370Y104398D02*
X75370Y104898D01*
X73370D02*
X74370Y104398D01*
X73370Y104898D02*
X73870Y103898D01*
X73370Y102898D02*
X73870Y103898D01*
X135441Y78473D02*
X136441Y78973D01*
X137441Y78473D01*
X136941Y79473D02*
X137441Y78473D01*
X136941Y79473D02*
X137441Y80473D01*
X136441Y79973D02*
X137441Y80473D01*
X135441D02*
X136441Y79973D01*
X135441Y80473D02*
X135941Y79473D01*
X135441Y78473D02*
X135941Y79473D01*
X29457Y19024D02*
X30457Y19524D01*
X31457Y19024D01*
X30957Y20024D02*
X31457Y19024D01*
X30957Y20024D02*
X31457Y21024D01*
X30457Y20524D02*
X31457Y21024D01*
X29457D02*
X30457Y20524D01*
X29457Y21024D02*
X29957Y20024D01*
X29457Y19024D02*
X29957Y20024D01*
X5717Y61780D02*
X6717Y62280D01*
X7717Y61780D01*
X7216Y62780D02*
X7717Y61780D01*
X7216Y62780D02*
X7717Y63780D01*
X6717Y63280D02*
X7717Y63780D01*
X5717D02*
X6717Y63280D01*
X5717Y63780D02*
X6216Y62780D01*
X5717Y61780D02*
X6216Y62780D01*
X22173Y313946D02*
X23173Y314445D01*
X24173Y313946D01*
X23673Y314946D02*
X24173Y313946D01*
X23673Y314946D02*
X24173Y315946D01*
X23173Y315445D02*
X24173Y315946D01*
X22173D02*
X23173Y315445D01*
X22173Y315946D02*
X22673Y314946D01*
X22173Y313946D02*
X22673Y314946D01*
X137764Y302883D02*
X138764Y303382D01*
X139764Y302883D01*
X139264Y303883D02*
X139764Y302883D01*
X139264Y303883D02*
X139764Y304883D01*
X138764Y304382D02*
X139764Y304883D01*
X137764D02*
X138764Y304382D01*
X137764Y304883D02*
X138264Y303883D01*
X137764Y302883D02*
X138264Y303883D01*
X206622Y323906D02*
X207622Y324406D01*
X208622Y323906D01*
X208122Y324906D02*
X208622Y323906D01*
X208122Y324906D02*
X208622Y325906D01*
X207622Y325406D02*
X208622Y325906D01*
X206622D02*
X207622Y325406D01*
X206622Y325906D02*
X207122Y324906D01*
X206622Y323906D02*
X207122Y324906D01*
X265598Y329890D02*
X266598Y330390D01*
X267598Y329890D01*
X267098Y330890D02*
X267598Y329890D01*
X267098Y330890D02*
X267598Y331890D01*
X266598Y331390D02*
X267598Y331890D01*
X265598D02*
X266598Y331390D01*
X265598Y331890D02*
X266098Y330890D01*
X265598Y329890D02*
X266098Y330890D01*
X328528Y309709D02*
X329528Y310209D01*
X330528Y309709D01*
X330028Y310709D02*
X330528Y309709D01*
X330028Y310709D02*
X330528Y311709D01*
X329528Y311209D02*
X330528Y311709D01*
X328528D02*
X329528Y311209D01*
X328528Y311709D02*
X329028Y310709D01*
X328528Y309709D02*
X329028Y310709D01*
X306268Y77764D02*
X307268Y78264D01*
X308268Y77764D01*
X307768Y78764D02*
X308268Y77764D01*
X307768Y78764D02*
X308268Y79764D01*
X307268Y79264D02*
X308268Y79764D01*
X306268D02*
X307268Y79264D01*
X306268Y79764D02*
X306768Y78764D01*
X306268Y77764D02*
X306768Y78764D01*
X165732Y91126D02*
X166732Y91626D01*
X167732Y91126D01*
X167232Y92126D02*
X167732Y91126D01*
X167232Y92126D02*
X167732Y93126D01*
X166732Y92626D02*
X167732Y93126D01*
X165732D02*
X166732Y92626D01*
X165732Y93126D02*
X166232Y92126D01*
X165732Y91126D02*
X166232Y92126D01*
X200520Y11741D02*
X201520Y12241D01*
X202520Y11741D01*
X202020Y12741D02*
X202520Y11741D01*
X202020Y12741D02*
X202520Y13741D01*
X201520Y13241D02*
X202520Y13741D01*
X200520D02*
X201520Y13241D01*
X200520Y13741D02*
X201020Y12741D01*
X200520Y11741D02*
X201020Y12741D01*
X86779Y337121D02*
X87279D01*
X86779D02*
Y338121D01*
X87279D01*
Y338621D01*
X88279D01*
Y338121D02*
Y338621D01*
Y338121D02*
X88779D01*
Y337121D02*
Y338121D01*
X88279Y337121D02*
X88779D01*
X88279Y336621D02*
Y337121D01*
X87279Y336621D02*
X88279D01*
X87279D02*
Y337121D01*
X53000Y176886D02*
X53500D01*
X53000D02*
Y177886D01*
X53500D01*
Y178386D01*
X54500D01*
Y177886D02*
Y178386D01*
Y177886D02*
X55000D01*
Y176886D02*
Y177886D01*
X54500Y176886D02*
X55000D01*
X54500Y176386D02*
Y176886D01*
X53500Y176386D02*
X54500D01*
X53500D02*
Y176886D01*
X207488Y238343D02*
X207988D01*
X207488D02*
Y239343D01*
X207988D01*
Y239843D01*
X208988D01*
Y239343D02*
Y239843D01*
Y239343D02*
X209488D01*
Y238343D02*
Y239343D01*
X208988Y238343D02*
X209488D01*
X208988Y237843D02*
Y238343D01*
X207988Y237843D02*
X208988D01*
X207988D02*
Y238343D01*
X95047Y53906D02*
X96047Y54406D01*
X97047Y53906D01*
X96547Y54906D02*
X97047Y53906D01*
X96547Y54906D02*
X97047Y55906D01*
X96047Y55406D02*
X97047Y55906D01*
X95047D02*
X96047Y55406D01*
X95047Y55906D02*
X95547Y54906D01*
X95047Y53906D02*
X95547Y54906D01*
X88512Y53906D02*
X89512Y54406D01*
X90512Y53906D01*
X90012Y54906D02*
X90512Y53906D01*
X90012Y54906D02*
X90512Y55906D01*
X89512Y55406D02*
X90512Y55906D01*
X88512D02*
X89512Y55406D01*
X88512Y55906D02*
X89012Y54906D01*
X88512Y53906D02*
X89012Y54906D01*
X231385Y2279D02*
X231885D01*
X231385D02*
Y3280D01*
X231885D01*
Y3779D01*
X232885D01*
Y3280D02*
Y3779D01*
Y3280D02*
X233385D01*
Y2279D02*
Y3280D01*
X232885Y2279D02*
X233385D01*
X232885Y1780D02*
Y2279D01*
X231885Y1780D02*
X232885D01*
X231885D02*
Y2279D01*
X175024Y114146D02*
X175524D01*
X175024D02*
Y115146D01*
X175524D01*
Y115646D01*
X176524D01*
Y115146D02*
Y115646D01*
Y115146D02*
X177024D01*
Y114146D02*
Y115146D01*
X176524Y114146D02*
X177024D01*
X176524Y113646D02*
Y114146D01*
X175524Y113646D02*
X176524D01*
X175524D02*
Y114146D01*
X161402Y118988D02*
X161902D01*
X161402D02*
Y119988D01*
X161902D01*
Y120488D01*
X162902D01*
Y119988D02*
Y120488D01*
Y119988D02*
X163402D01*
Y118988D02*
Y119988D01*
X162902Y118988D02*
X163402D01*
X162902Y118488D02*
Y118988D01*
X161902Y118488D02*
X162902D01*
X161902D02*
Y118988D01*
X156874Y123134D02*
X157874Y123634D01*
X158874Y123134D01*
X158374Y124134D02*
X158874Y123134D01*
X158374Y124134D02*
X158874Y125134D01*
X157874Y124634D02*
X158874Y125134D01*
X156874D02*
X157874Y124634D01*
X156874Y125134D02*
X157374Y124134D01*
X156874Y123134D02*
X157374Y124134D01*
X151086Y113567D02*
X152086Y114067D01*
X153086Y113567D01*
X152586Y114567D02*
X153086Y113567D01*
X152586Y114567D02*
X153086Y115567D01*
X152086Y115067D02*
X153086Y115567D01*
X151086D02*
X152086Y115067D01*
X151086Y115567D02*
X151586Y114567D01*
X151086Y113567D02*
X151586Y114567D01*
X283410Y248240D02*
X283910D01*
X283410D02*
Y249240D01*
X283910D01*
Y249740D01*
X284910D01*
Y249240D02*
Y249740D01*
Y249240D02*
X285409D01*
Y248240D02*
Y249240D01*
X284910Y248240D02*
X285409D01*
X284910Y247740D02*
Y248240D01*
X283910Y247740D02*
X284910D01*
X283910D02*
Y248240D01*
X278842D02*
X279343D01*
X278842D02*
Y249240D01*
X279343D01*
Y249740D01*
X280343D01*
Y249240D02*
Y249740D01*
Y249240D02*
X280842D01*
Y248240D02*
Y249240D01*
X280343Y248240D02*
X280842D01*
X280343Y247740D02*
Y248240D01*
X279343Y247740D02*
X280343D01*
X279343D02*
Y248240D01*
X309945Y23961D02*
X310945Y24461D01*
X311945Y23961D01*
X311445Y24961D02*
X311945Y23961D01*
X311445Y24961D02*
X311945Y25961D01*
X310945Y25461D02*
X311945Y25961D01*
X309945D02*
X310945Y25461D01*
X309945Y25961D02*
X310445Y24961D01*
X309945Y23961D02*
X310445Y24961D01*
X312359Y234856D02*
X312859D01*
X312359D02*
Y235856D01*
X312859D01*
Y236356D01*
X313859D01*
Y235856D02*
Y236356D01*
Y235856D02*
X314359D01*
Y234856D02*
Y235856D01*
X313859Y234856D02*
X314359D01*
X313859Y234356D02*
Y234856D01*
X312859Y234356D02*
X313859D01*
X312859D02*
Y234856D01*
X284369Y281902D02*
X284869D01*
X284369D02*
Y282902D01*
X284869D01*
Y283402D01*
X285869D01*
Y282902D02*
Y283402D01*
Y282902D02*
X286369D01*
Y281902D02*
Y282902D01*
X285869Y281902D02*
X286369D01*
X285869Y281402D02*
Y281902D01*
X284869Y281402D02*
X285869D01*
X284869D02*
Y281902D01*
X279455D02*
X279956D01*
X279455D02*
Y282902D01*
X279956D01*
Y283402D01*
X280956D01*
Y282902D02*
Y283402D01*
Y282902D02*
X281455D01*
Y281902D02*
Y282902D01*
X280956Y281902D02*
X281455D01*
X280956Y281402D02*
Y281902D01*
X279956Y281402D02*
X280956D01*
X279956D02*
Y281902D01*
X279455Y274539D02*
X279956D01*
X279455D02*
Y275539D01*
X279956D01*
Y276039D01*
X280956D01*
Y275539D02*
Y276039D01*
Y275539D02*
X281455D01*
Y274539D02*
Y275539D01*
X280956Y274539D02*
X281455D01*
X280956Y274039D02*
Y274539D01*
X279956Y274039D02*
X280956D01*
X279956D02*
Y274539D01*
X284369D02*
X284869D01*
X284369D02*
Y275539D01*
X284869D01*
Y276039D01*
X285869D01*
Y275539D02*
Y276039D01*
Y275539D02*
X286369D01*
Y274539D02*
Y275539D01*
X285869Y274539D02*
X286369D01*
X285869Y274039D02*
Y274539D01*
X284869Y274039D02*
X285869D01*
X284869D02*
Y274539D01*
X289303D02*
X289804D01*
X289303D02*
Y275539D01*
X289804D01*
Y276039D01*
X290804D01*
Y275539D02*
Y276039D01*
Y275539D02*
X291303D01*
Y274539D02*
Y275539D01*
X290804Y274539D02*
X291303D01*
X290804Y274039D02*
Y274539D01*
X289804Y274039D02*
X290804D01*
X289804D02*
Y274539D01*
X290085Y254874D02*
X290585D01*
X290085D02*
Y255874D01*
X290585D01*
Y256374D01*
X291585D01*
Y255874D02*
Y256374D01*
Y255874D02*
X292085D01*
Y254874D02*
Y255874D01*
X291585Y254874D02*
X292085D01*
X291585Y254374D02*
Y254874D01*
X290585Y254374D02*
X291585D01*
X290585D02*
Y254874D01*
X289933Y250406D02*
X290433D01*
X289933D02*
Y251406D01*
X290433D01*
Y251905D01*
X291433D01*
Y251406D02*
Y251905D01*
Y251406D02*
X291933D01*
Y250406D02*
Y251406D01*
X291433Y250406D02*
X291933D01*
X291433Y249905D02*
Y250406D01*
X290433Y249905D02*
X291433D01*
X290433D02*
Y250406D01*
X312359Y259620D02*
X312859D01*
X312359D02*
Y260620D01*
X312859D01*
Y261120D01*
X313859D01*
Y260620D02*
Y261120D01*
Y260620D02*
X314359D01*
Y259620D02*
Y260620D01*
X313859Y259620D02*
X314359D01*
X313859Y259120D02*
Y259620D01*
X312859Y259120D02*
X313859D01*
X312859D02*
Y259620D01*
X312359Y265206D02*
X312859D01*
X312359D02*
Y266206D01*
X312859D01*
Y266706D01*
X313859D01*
Y266206D02*
Y266706D01*
Y266206D02*
X314359D01*
Y265206D02*
Y266206D01*
X313859Y265206D02*
X314359D01*
X313859Y264706D02*
Y265206D01*
X312859Y264706D02*
X313859D01*
X312859D02*
Y265206D01*
X312359Y248358D02*
X312859D01*
X312359D02*
Y249358D01*
X312859D01*
Y249858D01*
X313859D01*
Y249358D02*
Y249858D01*
Y249358D02*
X314359D01*
Y248358D02*
Y249358D01*
X313859Y248358D02*
X314359D01*
X313859Y247858D02*
Y248358D01*
X312859Y247858D02*
X313859D01*
X312859D02*
Y248358D01*
X277228Y189068D02*
X277728D01*
X277228D02*
Y190068D01*
X277728D01*
Y190568D01*
X278728D01*
Y190068D02*
Y190568D01*
Y190068D02*
X279228D01*
Y189068D02*
Y190068D01*
X278728Y189068D02*
X279228D01*
X278728Y188568D02*
Y189068D01*
X277728Y188568D02*
X278728D01*
X277728D02*
Y189068D01*
X277226Y185484D02*
X277726D01*
X277226D02*
Y186484D01*
X277726D01*
Y186984D01*
X278726D01*
Y186484D02*
Y186984D01*
Y186484D02*
X279226D01*
Y185484D02*
Y186484D01*
X278726Y185484D02*
X279226D01*
X278726Y184984D02*
Y185484D01*
X277726Y184984D02*
X278726D01*
X277726D02*
Y185484D01*
X277223Y181900D02*
X277723D01*
X277223D02*
Y182900D01*
X277723D01*
Y183400D01*
X278723D01*
Y182900D02*
Y183400D01*
Y182900D02*
X279223D01*
Y181900D02*
Y182900D01*
X278723Y181900D02*
X279223D01*
X278723Y181400D02*
Y181900D01*
X277723Y181400D02*
X278723D01*
X277723D02*
Y181900D01*
X294827Y270366D02*
X295327D01*
X294827D02*
Y271366D01*
X295327D01*
Y271866D01*
X296327D01*
Y271366D02*
Y271866D01*
Y271366D02*
X296827D01*
Y270366D02*
Y271366D01*
X296327Y270366D02*
X296827D01*
X296327Y269866D02*
Y270366D01*
X295327Y269866D02*
X296327D01*
X295327D02*
Y270366D01*
X299811Y211547D02*
X300311D01*
X299811D02*
Y212547D01*
X300311D01*
Y213047D01*
X301311D01*
Y212547D02*
Y213047D01*
Y212547D02*
X301811D01*
Y211547D02*
Y212547D01*
X301311Y211547D02*
X301811D01*
X301311Y211047D02*
Y211547D01*
X300311Y211047D02*
X301311D01*
X300311D02*
Y211547D01*
X267740Y274539D02*
X268240D01*
X267740D02*
Y275539D01*
X268240D01*
Y276039D01*
X269240D01*
Y275539D02*
Y276039D01*
Y275539D02*
X269740D01*
Y274539D02*
Y275539D01*
X269240Y274539D02*
X269740D01*
X269240Y274039D02*
Y274539D01*
X268240Y274039D02*
X269240D01*
X268240D02*
Y274539D01*
X234086Y118319D02*
X234586D01*
X234086D02*
Y119319D01*
X234586D01*
Y119819D01*
X235586D01*
Y119319D02*
Y119819D01*
Y119319D02*
X236086D01*
Y118319D02*
Y119319D01*
X235586Y118319D02*
X236086D01*
X235586Y117819D02*
Y118319D01*
X234586Y117819D02*
X235586D01*
X234586D02*
Y118319D01*
X234086Y122099D02*
X234586D01*
X234086D02*
Y123099D01*
X234586D01*
Y123599D01*
X235586D01*
Y123099D02*
Y123599D01*
Y123099D02*
X236086D01*
Y122099D02*
Y123099D01*
X235586Y122099D02*
X236086D01*
X235586Y121599D02*
Y122099D01*
X234586Y121599D02*
X235586D01*
X234586D02*
Y122099D01*
X234086Y129658D02*
X234586D01*
X234086D02*
Y130658D01*
X234586D01*
Y131158D01*
X235586D01*
Y130658D02*
Y131158D01*
Y130658D02*
X236086D01*
Y129658D02*
Y130658D01*
X235586Y129658D02*
X236086D01*
X235586Y129158D02*
Y129658D01*
X234586Y129158D02*
X235586D01*
X234586D02*
Y129658D01*
X234086Y125879D02*
X234586D01*
X234086D02*
Y126879D01*
X234586D01*
Y127379D01*
X235586D01*
Y126879D02*
Y127379D01*
Y126879D02*
X236086D01*
Y125879D02*
Y126879D01*
X235586Y125879D02*
X236086D01*
X235586Y125379D02*
Y125879D01*
X234586Y125379D02*
X235586D01*
X234586D02*
Y125879D01*
X239236Y142846D02*
X239736D01*
X239236D02*
Y143846D01*
X239736D01*
Y144346D01*
X240736D01*
Y143846D02*
Y144346D01*
Y143846D02*
X241236D01*
Y142846D02*
Y143846D01*
X240736Y142846D02*
X241236D01*
X240736Y142346D02*
Y142846D01*
X239736Y142346D02*
X240736D01*
X239736D02*
Y142846D01*
X235615Y148359D02*
X236115D01*
X235615D02*
Y149358D01*
X236115D01*
Y149858D01*
X237115D01*
Y149358D02*
Y149858D01*
Y149358D02*
X237615D01*
Y148359D02*
Y149358D01*
X237115Y148359D02*
X237615D01*
X237115Y147859D02*
Y148359D01*
X236115Y147859D02*
X237115D01*
X236115D02*
Y148359D01*
X233804Y151115D02*
X234304D01*
X233804D02*
Y152115D01*
X234304D01*
Y152615D01*
X235304D01*
Y152115D02*
Y152615D01*
Y152115D02*
X235804D01*
Y151115D02*
Y152115D01*
X235304Y151115D02*
X235804D01*
X235304Y150615D02*
Y151115D01*
X234304Y150615D02*
X235304D01*
X234304D02*
Y151115D01*
X237425Y145602D02*
X237925D01*
X237425D02*
Y146602D01*
X237925D01*
Y147102D01*
X238925D01*
Y146602D02*
Y147102D01*
Y146602D02*
X239425D01*
Y145602D02*
Y146602D01*
X238925Y145602D02*
X239425D01*
X238925Y145102D02*
Y145602D01*
X237925Y145102D02*
X238925D01*
X237925D02*
Y145602D01*
X224512Y233995D02*
X225012D01*
X224512D02*
Y234995D01*
X225012D01*
Y235495D01*
X226012D01*
Y234995D02*
Y235495D01*
Y234995D02*
X226512D01*
Y233995D02*
Y234995D01*
X226012Y233995D02*
X226512D01*
X226012Y233495D02*
Y233995D01*
X225012Y233495D02*
X226012D01*
X225012D02*
Y233995D01*
X226362Y247571D02*
X226862D01*
X226362D02*
Y248571D01*
X226862D01*
Y249071D01*
X227862D01*
Y248571D02*
Y249071D01*
Y248571D02*
X228362D01*
Y247571D02*
Y248571D01*
X227862Y247571D02*
X228362D01*
X227862Y247071D02*
Y247571D01*
X226862Y247071D02*
X227862D01*
X226862D02*
Y247571D01*
X223291Y282871D02*
X223791D01*
X223291D02*
Y283871D01*
X223791D01*
Y284371D01*
X224791D01*
Y283871D02*
Y284371D01*
Y283871D02*
X225291D01*
Y282871D02*
Y283871D01*
X224791Y282871D02*
X225291D01*
X224791Y282371D02*
Y282871D01*
X223791Y282371D02*
X224791D01*
X223791D02*
Y282871D01*
X228064Y267858D02*
X229064Y268358D01*
X230064Y267858D01*
X229564Y268858D02*
X230064Y267858D01*
X229564Y268858D02*
X230064Y269858D01*
X229064Y269358D02*
X230064Y269858D01*
X228064D02*
X229064Y269358D01*
X228064Y269858D02*
X228564Y268858D01*
X228064Y267858D02*
X228564Y268858D01*
X275520Y171256D02*
X276020D01*
X275520D02*
Y172257D01*
X276020D01*
Y172757D01*
X277020D01*
Y172257D02*
Y172757D01*
Y172257D02*
X277520D01*
Y171256D02*
Y172257D01*
X277020Y171256D02*
X277520D01*
X277020Y170756D02*
Y171256D01*
X276020Y170756D02*
X277020D01*
X276020D02*
Y171256D01*
X275520Y167753D02*
X276020D01*
X275520D02*
Y168753D01*
X276020D01*
Y169253D01*
X277020D01*
Y168753D02*
Y169253D01*
Y168753D02*
X277520D01*
Y167753D02*
Y168753D01*
X277020Y167753D02*
X277520D01*
X277020Y167253D02*
Y167753D01*
X276020Y167253D02*
X277020D01*
X276020D02*
Y167753D01*
X276031Y153618D02*
X276531D01*
X276031D02*
Y154618D01*
X276531D01*
Y155118D01*
X277531D01*
Y154618D02*
Y155118D01*
Y154618D02*
X278031D01*
Y153618D02*
Y154618D01*
X277531Y153618D02*
X278031D01*
X277531Y153118D02*
Y153618D01*
X276531Y153118D02*
X277531D01*
X276531D02*
Y153618D01*
X222244Y136035D02*
X222744D01*
X222244D02*
Y137035D01*
X222744D01*
Y137535D01*
X223744D01*
Y137035D02*
Y137535D01*
Y137035D02*
X224244D01*
Y136035D02*
Y137035D01*
X223744Y136035D02*
X224244D01*
X223744Y135535D02*
Y136035D01*
X222744Y135535D02*
X223744D01*
X222744D02*
Y136035D01*
X234079Y237295D02*
X234579D01*
X234079D02*
Y238295D01*
X234579D01*
Y238795D01*
X235579D01*
Y238295D02*
Y238795D01*
Y238295D02*
X236079D01*
Y237295D02*
Y238295D01*
X235579Y237295D02*
X236079D01*
X235579Y236795D02*
Y237295D01*
X234579Y236795D02*
X235579D01*
X234579D02*
Y237295D01*
X234630Y187807D02*
X235130D01*
X234630D02*
Y188807D01*
X235130D01*
Y189307D01*
X236130D01*
Y188807D02*
Y189307D01*
Y188807D02*
X236630D01*
Y187807D02*
Y188807D01*
X236130Y187807D02*
X236630D01*
X236130Y187307D02*
Y187807D01*
X235130Y187307D02*
X236130D01*
X235130D02*
Y187807D01*
X238488Y190051D02*
X238988D01*
X238488D02*
Y191051D01*
X238988D01*
Y191551D01*
X239988D01*
Y191051D02*
Y191551D01*
Y191051D02*
X240488D01*
Y190051D02*
Y191051D01*
X239988Y190051D02*
X240488D01*
X239988Y189551D02*
Y190051D01*
X238988Y189551D02*
X239988D01*
X238988D02*
Y190051D01*
X241352Y185248D02*
X241852D01*
X241352D02*
Y186248D01*
X241852D01*
Y186748D01*
X242852D01*
Y186248D02*
Y186748D01*
Y186248D02*
X243352D01*
Y185248D02*
Y186248D01*
X242852Y185248D02*
X243352D01*
X242852Y184748D02*
Y185248D01*
X241852Y184748D02*
X242852D01*
X241852D02*
Y185248D01*
X244354Y182798D02*
X244854D01*
X244354D02*
Y183798D01*
X244854D01*
Y184298D01*
X245854D01*
Y183798D02*
Y184298D01*
Y183798D02*
X246354D01*
Y182798D02*
Y183798D01*
X245854Y182798D02*
X246354D01*
X245854Y182298D02*
Y182798D01*
X244854Y182298D02*
X245854D01*
X244854D02*
Y182798D01*
X248268Y177583D02*
X249268Y178083D01*
X250268Y177583D01*
X249767Y178583D02*
X250268Y177583D01*
X249767Y178583D02*
X250268Y179583D01*
X249268Y179083D02*
X250268Y179583D01*
X248268D02*
X249268Y179083D01*
X248268Y179583D02*
X248767Y178583D01*
X248268Y177583D02*
X248767Y178583D01*
X236523Y166862D02*
X237023D01*
X236523D02*
Y167862D01*
X237023D01*
Y168362D01*
X238023D01*
Y167862D02*
Y168362D01*
Y167862D02*
X238523D01*
Y166862D02*
Y167862D01*
X238023Y166862D02*
X238523D01*
X238023Y166362D02*
Y166862D01*
X237023Y166362D02*
X238023D01*
X237023D02*
Y166862D01*
X251441Y205917D02*
X251941D01*
X251441D02*
Y206917D01*
X251941D01*
Y207417D01*
X252941D01*
Y206917D02*
Y207417D01*
Y206917D02*
X253441D01*
Y205917D02*
Y206917D01*
X252941Y205917D02*
X253441D01*
X252941Y205417D02*
Y205917D01*
X251941Y205417D02*
X252941D01*
X251941D02*
Y205917D01*
X278764Y203673D02*
X279264D01*
X278764D02*
Y204673D01*
X279264D01*
Y205173D01*
X280264D01*
Y204673D02*
Y205173D01*
Y204673D02*
X280764D01*
Y203673D02*
Y204673D01*
X280264Y203673D02*
X280764D01*
X280264Y203173D02*
Y203673D01*
X279264Y203173D02*
X280264D01*
X279264D02*
Y203673D01*
X308709Y211547D02*
X309209D01*
X308709D02*
Y212547D01*
X309209D01*
Y213047D01*
X310209D01*
Y212547D02*
Y213047D01*
Y212547D02*
X310709D01*
Y211547D02*
Y212547D01*
X310209Y211547D02*
X310709D01*
X310209Y211047D02*
Y211547D01*
X309209Y211047D02*
X310209D01*
X309209D02*
Y211547D01*
X288079Y240075D02*
X288579D01*
X288079D02*
Y241075D01*
X288579D01*
Y241575D01*
X289579D01*
Y241075D02*
Y241575D01*
Y241075D02*
X290079D01*
Y240075D02*
Y241075D01*
X289579Y240075D02*
X290079D01*
X289579Y239575D02*
Y240075D01*
X288579Y239575D02*
X289579D01*
X288579D02*
Y240075D01*
X292764Y238855D02*
X293264D01*
X292764D02*
Y239855D01*
X293264D01*
Y240355D01*
X294264D01*
Y239855D02*
Y240355D01*
Y239855D02*
X294764D01*
Y238855D02*
Y239855D01*
X294264Y238855D02*
X294764D01*
X294264Y238355D02*
Y238855D01*
X293264Y238355D02*
X294264D01*
X293264D02*
Y238855D01*
X284378Y237713D02*
X284878D01*
X284378D02*
Y238713D01*
X284878D01*
Y239213D01*
X285878D01*
Y238713D02*
Y239213D01*
Y238713D02*
X286378D01*
Y237713D02*
Y238713D01*
X285878Y237713D02*
X286378D01*
X285878Y237213D02*
Y237713D01*
X284878Y237213D02*
X285878D01*
X284878D02*
Y237713D01*
X239984Y233540D02*
X240484D01*
X239984D02*
Y234540D01*
X240484D01*
Y235040D01*
X241484D01*
Y234540D02*
Y235040D01*
Y234540D02*
X241984D01*
Y233540D02*
Y234540D01*
X241484Y233540D02*
X241984D01*
X241484Y233040D02*
Y233540D01*
X240484Y233040D02*
X241484D01*
X240484D02*
Y233540D01*
X243961D02*
X244461D01*
X243961D02*
Y234540D01*
X244461D01*
Y235040D01*
X245461D01*
Y234540D02*
Y235040D01*
Y234540D02*
X245961D01*
Y233540D02*
Y234540D01*
X245461Y233540D02*
X245961D01*
X245461Y233040D02*
Y233540D01*
X244461Y233040D02*
X245461D01*
X244461D02*
Y233540D01*
X200535Y223291D02*
X201535Y223791D01*
X202535Y223291D01*
X202035Y224291D02*
X202535Y223291D01*
X202035Y224291D02*
X202535Y225291D01*
X201535Y224791D02*
X202535Y225291D01*
X200535D02*
X201535Y224791D01*
X200535Y225291D02*
X201035Y224291D01*
X200535Y223291D02*
X201035Y224291D01*
X274276Y248240D02*
X274776D01*
X274276D02*
Y249240D01*
X274776D01*
Y249740D01*
X275776D01*
Y249240D02*
Y249740D01*
Y249240D02*
X276276D01*
Y248240D02*
Y249240D01*
X275776Y248240D02*
X276276D01*
X275776Y247740D02*
Y248240D01*
X274776Y247740D02*
X275776D01*
X274776D02*
Y248240D01*
X273055Y228449D02*
X274055Y228949D01*
X275055Y228449D01*
X274555Y229449D02*
X275055Y228449D01*
X274555Y229449D02*
X275055Y230449D01*
X274055Y229949D02*
X275055Y230449D01*
X273055D02*
X274055Y229949D01*
X273055Y230449D02*
X273555Y229449D01*
X273055Y228449D02*
X273555Y229449D01*
X251057Y220835D02*
X251557D01*
X251057D02*
Y221835D01*
X251557D01*
Y222335D01*
X252557D01*
Y221835D02*
Y222335D01*
Y221835D02*
X253057D01*
Y220835D02*
Y221835D01*
X252557Y220835D02*
X253057D01*
X252557Y220335D02*
Y220835D01*
X251557Y220335D02*
X252557D01*
X251557D02*
Y220835D01*
X257354Y270389D02*
X257854D01*
X257354D02*
Y271389D01*
X257854D01*
Y271889D01*
X258854D01*
Y271389D02*
Y271889D01*
Y271389D02*
X259354D01*
Y270389D02*
Y271389D01*
X258854Y270389D02*
X259354D01*
X258854Y269889D02*
Y270389D01*
X257854Y269889D02*
X258854D01*
X257854D02*
Y270389D01*
X250024D02*
X250524D01*
X250024D02*
Y271389D01*
X250524D01*
Y271889D01*
X251524D01*
Y271389D02*
Y271889D01*
Y271389D02*
X252024D01*
Y270389D02*
Y271389D01*
X251524Y270389D02*
X252024D01*
X251524Y269889D02*
Y270389D01*
X250524Y269889D02*
X251524D01*
X250524D02*
Y270389D01*
X250024Y276964D02*
X250524D01*
X250024D02*
Y277964D01*
X250524D01*
Y278464D01*
X251524D01*
Y277964D02*
Y278464D01*
Y277964D02*
X252024D01*
Y276964D02*
Y277964D01*
X251524Y276964D02*
X252024D01*
X251524Y276464D02*
Y276964D01*
X250524Y276464D02*
X251524D01*
X250524D02*
Y276964D01*
X265102Y167753D02*
X265602D01*
X265102D02*
Y168753D01*
X265602D01*
Y169253D01*
X266602D01*
Y168753D02*
Y169253D01*
Y168753D02*
X267102D01*
Y167753D02*
Y168753D01*
X266602Y167753D02*
X267102D01*
X266602Y167253D02*
Y167753D01*
X265602Y167253D02*
X266602D01*
X265602D02*
Y167753D01*
X269462Y110142D02*
X270462Y110642D01*
X271462Y110142D01*
X270963Y111142D02*
X271462Y110142D01*
X270963Y111142D02*
X271462Y112142D01*
X270462Y111642D02*
X271462Y112142D01*
X269462D02*
X270462Y111642D01*
X269462Y112142D02*
X269963Y111142D01*
X269462Y110142D02*
X269963Y111142D01*
X324590Y43201D02*
X325091D01*
X324590D02*
Y44201D01*
X325091D01*
Y44701D01*
X326091D01*
Y44201D02*
Y44701D01*
Y44201D02*
X326590D01*
Y43201D02*
Y44201D01*
X326091Y43201D02*
X326590D01*
X326091Y42701D02*
Y43201D01*
X325091Y42701D02*
X326091D01*
X325091D02*
Y43201D01*
X296732Y114001D02*
X297232D01*
X296732D02*
Y115001D01*
X297232D01*
Y115501D01*
X298232D01*
Y115001D02*
Y115501D01*
Y115001D02*
X298732D01*
Y114001D02*
Y115001D01*
X298232Y114001D02*
X298732D01*
X298232Y113501D02*
Y114001D01*
X297232Y113501D02*
X298232D01*
X297232D02*
Y114001D01*
X303961Y111145D02*
X304461D01*
X303961D02*
Y112145D01*
X304461D01*
Y112645D01*
X305461D01*
Y112145D02*
Y112645D01*
Y112145D02*
X305961D01*
Y111145D02*
Y112145D01*
X305461Y111145D02*
X305961D01*
X305461Y110645D02*
Y111145D01*
X304461Y110645D02*
X305461D01*
X304461D02*
Y111145D01*
X306268Y89539D02*
X306768D01*
X306268D02*
Y90539D01*
X306768D01*
Y91039D01*
X307768D01*
Y90539D02*
Y91039D01*
Y90539D02*
X308268D01*
Y89539D02*
Y90539D01*
X307768Y89539D02*
X308268D01*
X307768Y89039D02*
Y89539D01*
X306768Y89039D02*
X307768D01*
X306768D02*
Y89539D01*
X293866Y104839D02*
X294366D01*
X293866D02*
Y105839D01*
X294366D01*
Y106339D01*
X295366D01*
Y105839D02*
Y106339D01*
Y105839D02*
X295866D01*
Y104839D02*
Y105839D01*
X295366Y104839D02*
X295866D01*
X295366Y104339D02*
Y104839D01*
X294366Y104339D02*
X295366D01*
X294366D02*
Y104839D01*
X293866Y101598D02*
X294366D01*
X293866D02*
Y102598D01*
X294366D01*
Y103098D01*
X295366D01*
Y102598D02*
Y103098D01*
Y102598D02*
X295866D01*
Y101598D02*
Y102598D01*
X295366Y101598D02*
X295866D01*
X295366Y101098D02*
Y101598D01*
X294366Y101098D02*
X295366D01*
X294366D02*
Y101598D01*
X293866Y98356D02*
X294366D01*
X293866D02*
Y99356D01*
X294366D01*
Y99856D01*
X295366D01*
Y99356D02*
Y99856D01*
Y99356D02*
X295866D01*
Y98356D02*
Y99356D01*
X295366Y98356D02*
X295866D01*
X295366Y97856D02*
Y98356D01*
X294366Y97856D02*
X295366D01*
X294366D02*
Y98356D01*
X293866Y95115D02*
X294366D01*
X293866D02*
Y96115D01*
X294366D01*
Y96615D01*
X295366D01*
Y96115D02*
Y96615D01*
Y96115D02*
X295866D01*
Y95115D02*
Y96115D01*
X295366Y95115D02*
X295866D01*
X295366Y94615D02*
Y95115D01*
X294366Y94615D02*
X295366D01*
X294366D02*
Y95115D01*
X281292Y83909D02*
X281792D01*
X281292D02*
Y84909D01*
X281792D01*
Y85409D01*
X282792D01*
Y84909D02*
Y85409D01*
Y84909D02*
X283292D01*
Y83909D02*
Y84909D01*
X282792Y83909D02*
X283292D01*
X282792Y83410D02*
Y83909D01*
X281792Y83410D02*
X282792D01*
X281792D02*
Y83909D01*
X271635Y67595D02*
X272135D01*
X271635D02*
Y68595D01*
X272135D01*
Y69095D01*
X273135D01*
Y68595D02*
Y69095D01*
Y68595D02*
X273635D01*
Y67595D02*
Y68595D01*
X273135Y67595D02*
X273635D01*
X273135Y67095D02*
Y67595D01*
X272135Y67095D02*
X273135D01*
X272135D02*
Y67595D01*
X242252Y59851D02*
X243252Y60351D01*
X244252Y59851D01*
X243752Y60851D02*
X244252Y59851D01*
X243752Y60851D02*
X244252Y61851D01*
X243252Y61351D02*
X244252Y61851D01*
X242252D02*
X243252Y61351D01*
X242252Y61851D02*
X242752Y60851D01*
X242252Y59851D02*
X242752Y60851D01*
X136874Y86902D02*
X137374D01*
X136874D02*
Y87902D01*
X137374D01*
Y88402D01*
X138374D01*
Y87902D02*
Y88402D01*
Y87902D02*
X138874D01*
Y86902D02*
Y87902D01*
X138374Y86902D02*
X138874D01*
X138374Y86402D02*
Y86902D01*
X137374Y86402D02*
X138374D01*
X137374D02*
Y86902D01*
X275480Y164130D02*
X275980D01*
X275480D02*
Y165130D01*
X275980D01*
Y165630D01*
X276980D01*
Y165130D02*
Y165630D01*
Y165130D02*
X277480D01*
Y164130D02*
Y165130D01*
X276980Y164130D02*
X277480D01*
X276980Y163630D02*
Y164130D01*
X275980Y163630D02*
X276980D01*
X275980D02*
Y164130D01*
X239748Y109091D02*
X240248D01*
X239748D02*
Y110091D01*
X240248D01*
Y110591D01*
X241248D01*
Y110091D02*
Y110591D01*
Y110091D02*
X241748D01*
Y109091D02*
Y110091D01*
X241248Y109091D02*
X241748D01*
X241248Y108591D02*
Y109091D01*
X240248Y108591D02*
X241248D01*
X240248D02*
Y109091D01*
X236523Y162138D02*
X237023D01*
X236523D02*
Y163138D01*
X237023D01*
Y163638D01*
X238023D01*
Y163138D02*
Y163638D01*
Y163138D02*
X238523D01*
Y162138D02*
Y163138D01*
X238023Y162138D02*
X238523D01*
X238023Y161638D02*
Y162138D01*
X237023Y161638D02*
X238023D01*
X237023D02*
Y162138D01*
X275480Y160469D02*
X275980D01*
X275480D02*
Y161469D01*
X275980D01*
Y161969D01*
X276980D01*
Y161469D02*
Y161969D01*
Y161469D02*
X277480D01*
Y160469D02*
Y161469D01*
X276980Y160469D02*
X277480D01*
X276980Y159969D02*
Y160469D01*
X275980Y159969D02*
X276980D01*
X275980D02*
Y160469D01*
X194496Y39603D02*
X194996D01*
X194496D02*
Y40603D01*
X194996D01*
Y41103D01*
X195996D01*
Y40603D02*
Y41103D01*
Y40603D02*
X196496D01*
Y39603D02*
Y40603D01*
X195996Y39603D02*
X196496D01*
X195996Y39103D02*
Y39603D01*
X194996Y39103D02*
X195996D01*
X194996D02*
Y39603D01*
X190260Y138122D02*
X190760D01*
X190260D02*
Y139122D01*
X190760D01*
Y139622D01*
X191760D01*
Y139122D02*
Y139622D01*
Y139122D02*
X192260D01*
Y138122D02*
Y139122D01*
X191760Y138122D02*
X192260D01*
X191760Y137622D02*
Y138122D01*
X190760Y137622D02*
X191760D01*
X190760D02*
Y138122D01*
X247543Y162138D02*
X248043D01*
X247543D02*
Y163138D01*
X248043D01*
Y163638D01*
X249043D01*
Y163138D02*
Y163638D01*
Y163138D02*
X249543D01*
Y162138D02*
Y163138D01*
X249043Y162138D02*
X249543D01*
X249043Y161638D02*
Y162138D01*
X248043Y161638D02*
X249043D01*
X248043D02*
Y162138D01*
X220654Y152492D02*
X221153D01*
X220654D02*
Y153492D01*
X221153D01*
Y153992D01*
X222153D01*
Y153492D02*
Y153992D01*
Y153492D02*
X222654D01*
Y152492D02*
Y153492D01*
X222153Y152492D02*
X222654D01*
X222153Y151992D02*
Y152492D01*
X221153Y151992D02*
X222153D01*
X221153D02*
Y152492D01*
X217094Y150312D02*
X217594D01*
X217094D02*
Y151312D01*
X217594D01*
Y151812D01*
X218594D01*
Y151312D02*
Y151812D01*
Y151312D02*
X219094D01*
Y150312D02*
Y151312D01*
X218594Y150312D02*
X219094D01*
X218594Y149812D02*
Y150312D01*
X217594Y149812D02*
X218594D01*
X217594D02*
Y150312D01*
X182976Y21587D02*
X183476D01*
X182976D02*
Y22587D01*
X183476D01*
Y23087D01*
X184476D01*
Y22587D02*
Y23087D01*
Y22587D02*
X184976D01*
Y21587D02*
Y22587D01*
X184476Y21587D02*
X184976D01*
X184476Y21087D02*
Y21587D01*
X183476Y21087D02*
X184476D01*
X183476D02*
Y21587D01*
X178134Y18583D02*
X179134Y17583D01*
X180134Y18583D01*
X179134Y19583D02*
X180134Y18583D01*
X178134D02*
X179134Y19583D01*
X277336Y26726D02*
X277836D01*
X277336D02*
Y27726D01*
X277836D01*
Y28226D01*
X278836D01*
Y27726D02*
Y28226D01*
Y27726D02*
X279336D01*
Y26726D02*
Y27726D01*
X278836Y26726D02*
X279336D01*
X278836Y26226D02*
Y26726D01*
X277836Y26226D02*
X278836D01*
X277836D02*
Y26726D01*
X267921D02*
X268421D01*
X267921D02*
Y27726D01*
X268421D01*
Y28226D01*
X269421D01*
Y27726D02*
Y28226D01*
Y27726D02*
X269921D01*
Y26726D02*
Y27726D01*
X269421Y26726D02*
X269921D01*
X269421Y26226D02*
Y26726D01*
X268421Y26226D02*
X269421D01*
X268421D02*
Y26726D01*
X286751D02*
X287251D01*
X286751D02*
Y27726D01*
X287251D01*
Y28226D01*
X288251D01*
Y27726D02*
Y28226D01*
Y27726D02*
X288751D01*
Y26726D02*
Y27726D01*
X288251Y26726D02*
X288751D01*
X288251Y26226D02*
Y26726D01*
X287251Y26226D02*
X288251D01*
X287251D02*
Y26726D01*
X272779Y28831D02*
X273279D01*
X272779D02*
Y29831D01*
X273279D01*
Y30331D01*
X274279D01*
Y29831D02*
Y30331D01*
Y29831D02*
X274779D01*
Y28831D02*
Y29831D01*
X274279Y28831D02*
X274779D01*
X274279Y28331D02*
Y28831D01*
X273279Y28331D02*
X274279D01*
X273279D02*
Y28831D01*
X231283Y34984D02*
X232283Y35484D01*
X233283Y34984D01*
X232784Y35984D02*
X233283Y34984D01*
X232784Y35984D02*
X233283Y36984D01*
X232283Y36484D02*
X233283Y36984D01*
X231283D02*
X232283Y36484D01*
X231283Y36984D02*
X231784Y35984D01*
X231283Y34984D02*
X231784Y35984D01*
X235795Y28852D02*
X236295D01*
X235795D02*
Y29852D01*
X236295D01*
Y30352D01*
X237295D01*
Y29852D02*
Y30352D01*
Y29852D02*
X237795D01*
Y28852D02*
Y29852D01*
X237295Y28852D02*
X237795D01*
X237295Y28352D02*
Y28852D01*
X236295Y28352D02*
X237295D01*
X236295D02*
Y28852D01*
X231307Y26253D02*
X231807D01*
X231307D02*
Y27253D01*
X231807D01*
Y27753D01*
X232807D01*
Y27253D02*
Y27753D01*
Y27253D02*
X233307D01*
Y26253D02*
Y27253D01*
X232807Y26253D02*
X233307D01*
X232807Y25753D02*
Y26253D01*
X231807Y25753D02*
X232807D01*
X231807D02*
Y26253D01*
X221819Y26529D02*
X222319D01*
X221819D02*
Y27529D01*
X222319D01*
Y28029D01*
X223319D01*
Y27529D02*
Y28029D01*
Y27529D02*
X223819D01*
Y26529D02*
Y27529D01*
X223319Y26529D02*
X223819D01*
X223319Y26029D02*
Y26529D01*
X222319Y26029D02*
X223319D01*
X222319D02*
Y26529D01*
X216992Y28852D02*
X217492D01*
X216992D02*
Y29852D01*
X217492D01*
Y30352D01*
X218492D01*
Y29852D02*
Y30352D01*
Y29852D02*
X218992D01*
Y28852D02*
Y29852D01*
X218492Y28852D02*
X218992D01*
X218492Y28352D02*
Y28852D01*
X217492Y28352D02*
X218492D01*
X217492D02*
Y28852D01*
X226394D02*
X226894D01*
X226394D02*
Y29852D01*
X226894D01*
Y30352D01*
X227894D01*
Y29852D02*
Y30352D01*
Y29852D02*
X228394D01*
Y28852D02*
Y29852D01*
X227894Y28852D02*
X228394D01*
X227894Y28352D02*
Y28852D01*
X226894Y28352D02*
X227894D01*
X226894D02*
Y28852D01*
X206740Y26371D02*
X207240D01*
X206740D02*
Y27371D01*
X207240D01*
Y27871D01*
X208240D01*
Y27371D02*
Y27871D01*
Y27371D02*
X208740D01*
Y26371D02*
Y27371D01*
X208240Y26371D02*
X208740D01*
X208240Y25871D02*
Y26371D01*
X207240Y25871D02*
X208240D01*
X207240D02*
Y26371D01*
X213433Y70548D02*
X213933D01*
X213433D02*
Y71548D01*
X213933D01*
Y72048D01*
X214933D01*
Y71548D02*
Y72048D01*
Y71548D02*
X215433D01*
Y70548D02*
Y71548D01*
X214933Y70548D02*
X215433D01*
X214933Y70048D02*
Y70548D01*
X213933Y70048D02*
X214933D01*
X213933D02*
Y70548D01*
X210283Y71178D02*
X210783D01*
X210283D02*
Y72178D01*
X210783D01*
Y72678D01*
X211783D01*
Y72178D02*
Y72678D01*
Y72178D02*
X212283D01*
Y71178D02*
Y72178D01*
X211783Y71178D02*
X212283D01*
X211783Y70678D02*
Y71178D01*
X210783Y70678D02*
X211783D01*
X210783D02*
Y71178D01*
X195479Y21587D02*
X195979D01*
X195479D02*
Y22587D01*
X195979D01*
Y23087D01*
X196979D01*
Y22587D02*
Y23087D01*
Y22587D02*
X197479D01*
Y21587D02*
Y22587D01*
X196979Y21587D02*
X197479D01*
X196979Y21087D02*
Y21587D01*
X195979Y21087D02*
X196979D01*
X195979D02*
Y21587D01*
X211661Y26371D02*
X212161D01*
X211661D02*
Y27371D01*
X212161D01*
Y27871D01*
X213161D01*
Y27371D02*
Y27871D01*
Y27371D02*
X213661D01*
Y26371D02*
Y27371D01*
X213161Y26371D02*
X213661D01*
X213161Y25871D02*
Y26371D01*
X212161Y25871D02*
X213161D01*
X212161D02*
Y26371D01*
X201819D02*
X202319D01*
X201819D02*
Y27371D01*
X202319D01*
Y27871D01*
X203319D01*
Y27371D02*
Y27871D01*
Y27371D02*
X203819D01*
Y26371D02*
Y27371D01*
X203319Y26371D02*
X203819D01*
X203319Y25871D02*
Y26371D01*
X202319Y25871D02*
X203319D01*
X202319D02*
Y26371D01*
X158764Y5722D02*
X159264D01*
X158764D02*
Y6722D01*
X159264D01*
Y7222D01*
X160264D01*
Y6722D02*
Y7222D01*
Y6722D02*
X160764D01*
Y5722D02*
Y6722D01*
X160264Y5722D02*
X160764D01*
X160264Y5222D02*
Y5722D01*
X159264Y5222D02*
X160264D01*
X159264D02*
Y5722D01*
X163646Y4068D02*
X164146D01*
X163646D02*
Y5068D01*
X164146D01*
Y5568D01*
X165146D01*
Y5068D02*
Y5568D01*
Y5068D02*
X165646D01*
Y4068D02*
Y5068D01*
X165146Y4068D02*
X165646D01*
X165146Y3568D02*
Y4068D01*
X164146Y3568D02*
X165146D01*
X164146D02*
Y4068D01*
X154905Y14737D02*
X155405D01*
X154905D02*
Y15737D01*
X155405D01*
Y16237D01*
X156405D01*
Y15737D02*
Y16237D01*
Y15737D02*
X156905D01*
Y14737D02*
Y15737D01*
X156405Y14737D02*
X156905D01*
X156405Y14237D02*
Y14737D01*
X155405Y14237D02*
X156405D01*
X155405D02*
Y14737D01*
X150535Y8399D02*
X151035D01*
X150535D02*
Y9399D01*
X151035D01*
Y9899D01*
X152035D01*
Y9399D02*
Y9899D01*
Y9399D02*
X152535D01*
Y8399D02*
Y9399D01*
X152035Y8399D02*
X152535D01*
X152035Y7899D02*
Y8399D01*
X151035Y7899D02*
X152035D01*
X151035D02*
Y8399D01*
X145729Y12524D02*
X146730Y11524D01*
X147730Y12524D01*
X146730Y13524D02*
X147730Y12524D01*
X145729D02*
X146730Y13524D01*
X174079Y23307D02*
X175079Y22307D01*
X176079Y23307D01*
X175079Y24307D02*
X176079Y23307D01*
X174079D02*
X175079Y24307D01*
X88239Y20221D02*
X89239Y20720D01*
X90239Y20221D01*
X89739Y21220D02*
X90239Y20221D01*
X89739Y21220D02*
X90239Y22220D01*
X89239Y21721D02*
X90239Y22220D01*
X88239D02*
X89239Y21721D01*
X88239Y22220D02*
X88739Y21220D01*
X88239Y20221D02*
X88739Y21220D01*
X46992Y125181D02*
X47992Y125681D01*
X48992Y125181D01*
X48492Y126181D02*
X48992Y125181D01*
X48492Y126181D02*
X48992Y127181D01*
X47992Y126681D02*
X48992Y127181D01*
X46992D02*
X47992Y126681D01*
X46992Y127181D02*
X47492Y126181D01*
X46992Y125181D02*
X47492Y126181D01*
X26268Y107819D02*
X27268Y106819D01*
X28268Y107819D01*
X27268Y108819D02*
X28268Y107819D01*
X26268D02*
X27268Y108819D01*
X26559Y62441D02*
X27559Y61441D01*
X28559Y62441D01*
X27559Y63441D02*
X28559Y62441D01*
X26559D02*
X27559Y63441D01*
X46992Y116008D02*
X47992Y116508D01*
X48992Y116008D01*
X48492Y117008D02*
X48992Y116008D01*
X48492Y117008D02*
X48992Y118008D01*
X47992Y117508D02*
X48992Y118008D01*
X46992D02*
X47992Y117508D01*
X46992Y118008D02*
X47492Y117008D01*
X46992Y116008D02*
X47492Y117008D01*
X13646Y62441D02*
X14646Y61441D01*
X15646Y62441D01*
X14646Y63441D02*
X15646Y62441D01*
X13646D02*
X14646Y63441D01*
X26268Y83504D02*
X27268Y82504D01*
X28268Y83504D01*
X27268Y84504D02*
X28268Y83504D01*
X26268D02*
X27268Y84504D01*
X76307Y160469D02*
X76807D01*
X76307D02*
Y161469D01*
X76807D01*
Y161969D01*
X77807D01*
Y161469D02*
Y161969D01*
Y161469D02*
X78307D01*
Y160469D02*
Y161469D01*
X77807Y160469D02*
X78307D01*
X77807Y159969D02*
Y160469D01*
X76807Y159969D02*
X77807D01*
X76807D02*
Y160469D01*
X80795Y160666D02*
X81295D01*
X80795D02*
Y161666D01*
X81295D01*
Y162166D01*
X82295D01*
Y161666D02*
Y162166D01*
Y161666D02*
X82795D01*
Y160666D02*
Y161666D01*
X82295Y160666D02*
X82795D01*
X82295Y160166D02*
Y160666D01*
X81295Y160166D02*
X82295D01*
X81295D02*
Y160666D01*
X83157Y334367D02*
X83657D01*
X83157D02*
Y335367D01*
X83657D01*
Y335867D01*
X84657D01*
Y335367D02*
Y335867D01*
Y335367D02*
X85157D01*
Y334367D02*
Y335367D01*
X84657Y334367D02*
X85157D01*
X84657Y333867D02*
Y334367D01*
X83657Y333867D02*
X84657D01*
X83657D02*
Y334367D01*
X71992Y321244D02*
X72992Y321744D01*
X73992Y321244D01*
X73492Y322244D02*
X73992Y321244D01*
X73492Y322244D02*
X73992Y323244D01*
X72992Y322744D02*
X73992Y323244D01*
X71992D02*
X72992Y322744D01*
X71992Y323244D02*
X72492Y322244D01*
X71992Y321244D02*
X72492Y322244D01*
X93835Y308646D02*
X94835Y309146D01*
X95835Y308646D01*
X95335Y309646D02*
X95835Y308646D01*
X95335Y309646D02*
X95835Y310646D01*
X94835Y310146D02*
X95835Y310646D01*
X93835D02*
X94835Y310146D01*
X93835Y310646D02*
X94335Y309646D01*
X93835Y308646D02*
X94335Y309646D01*
X94709Y328504D02*
X95709Y329004D01*
X96709Y328504D01*
X96209Y329504D02*
X96709Y328504D01*
X96209Y329504D02*
X96709Y330504D01*
X95709Y330004D02*
X96709Y330504D01*
X94709D02*
X95709Y330004D01*
X94709Y330504D02*
X95209Y329504D01*
X94709Y328504D02*
X95209Y329504D01*
X88527Y326586D02*
X89027D01*
X88527D02*
Y327586D01*
X89027D01*
Y328086D01*
X90027D01*
Y327586D02*
Y328086D01*
Y327586D02*
X90527D01*
Y326586D02*
Y327586D01*
X90027Y326586D02*
X90527D01*
X90027Y326086D02*
Y326586D01*
X89027Y326086D02*
X90027D01*
X89027D02*
Y326586D01*
X83764Y300062D02*
X84764Y300562D01*
X85764Y300062D01*
X85264Y301062D02*
X85764Y300062D01*
X85264Y301062D02*
X85764Y302062D01*
X84764Y301562D02*
X85764Y302062D01*
X83764D02*
X84764Y301562D01*
X83764Y302062D02*
X84264Y301062D01*
X83764Y300062D02*
X84264Y301062D01*
X213879Y340220D02*
X214879Y340721D01*
X215879Y340220D01*
X215379Y341220D02*
X215879Y340220D01*
X215379Y341220D02*
X215879Y342220D01*
X214879Y341721D02*
X215879Y342220D01*
X213879D02*
X214879Y341721D01*
X213879Y342220D02*
X214379Y341220D01*
X213879Y340220D02*
X214379Y341220D01*
X218409Y341808D02*
X218910D01*
X218409D02*
Y342808D01*
X218910D01*
Y343308D01*
X219910D01*
Y342808D02*
Y343308D01*
Y342808D02*
X220409D01*
Y341808D02*
Y342808D01*
X219910Y341808D02*
X220409D01*
X219910Y341308D02*
Y341808D01*
X218910Y341308D02*
X219910D01*
X218910D02*
Y341808D01*
X247937Y343134D02*
X248937Y343634D01*
X249937Y343134D01*
X249437Y344134D02*
X249937Y343134D01*
X249437Y344134D02*
X249937Y345134D01*
X248937Y344634D02*
X249937Y345134D01*
X247937D02*
X248937Y344634D01*
X247937Y345134D02*
X248437Y344134D01*
X247937Y343134D02*
X248437Y344134D01*
X270339Y305878D02*
X270839D01*
X270339D02*
Y306878D01*
X270839D01*
Y307378D01*
X271839D01*
Y306878D02*
Y307378D01*
Y306878D02*
X272339D01*
Y305878D02*
Y306878D01*
X271839Y305878D02*
X272339D01*
X271839Y305378D02*
Y305878D01*
X270839Y305378D02*
X271839D01*
X270839D02*
Y305878D01*
X310065Y272245D02*
X310565D01*
X310065D02*
Y273245D01*
X310565D01*
Y273745D01*
X311565D01*
Y273245D02*
Y273745D01*
Y273245D02*
X312065D01*
Y272245D02*
Y273245D01*
X311565Y272245D02*
X312065D01*
X311565Y271745D02*
Y272245D01*
X310565Y271745D02*
X311565D01*
X310565D02*
Y272245D01*
X310065Y276744D02*
X310565D01*
X310065D02*
Y277744D01*
X310565D01*
Y278244D01*
X311565D01*
Y277744D02*
Y278244D01*
Y277744D02*
X312065D01*
Y276744D02*
Y277744D01*
X311565Y276744D02*
X312065D01*
X311565Y276244D02*
Y276744D01*
X310565Y276244D02*
X311565D01*
X310565D02*
Y276744D01*
X248590Y47961D02*
X249590Y48461D01*
X250590Y47961D01*
X250091Y48961D02*
X250590Y47961D01*
X250091Y48961D02*
X250590Y49961D01*
X249590Y49461D02*
X250590Y49961D01*
X248590D02*
X249590Y49461D01*
X248590Y49961D02*
X249091Y48961D01*
X248590Y47961D02*
X249091Y48961D01*
X68055Y60811D02*
X69055Y61311D01*
X70055Y60811D01*
X69555Y61811D02*
X70055Y60811D01*
X69555Y61811D02*
X70055Y62811D01*
X69055Y62311D02*
X70055Y62811D01*
X68055D02*
X69055Y62311D01*
X68055Y62811D02*
X68555Y61811D01*
X68055Y60811D02*
X68555Y61811D01*
X88960Y48409D02*
X89960Y48909D01*
X90961Y48409D01*
X90460Y49409D02*
X90961Y48409D01*
X90460Y49409D02*
X90961Y50409D01*
X89960Y49909D02*
X90961Y50409D01*
X88960D02*
X89960Y49909D01*
X88960Y50409D02*
X89460Y49409D01*
X88960Y48409D02*
X89460Y49409D01*
X67543Y35878D02*
X68043D01*
X67543D02*
Y36878D01*
X68043D01*
Y37378D01*
X69043D01*
Y36878D02*
Y37378D01*
Y36878D02*
X69543D01*
Y35878D02*
Y36878D01*
X69043Y35878D02*
X69543D01*
X69043Y35378D02*
Y35878D01*
X68043Y35378D02*
X69043D01*
X68043D02*
Y35878D01*
X46165Y27953D02*
X47165Y26953D01*
X48165Y27953D01*
X47165Y28953D02*
X48165Y27953D01*
X46165D02*
X47165Y28953D01*
X50304Y27913D02*
X51304Y26913D01*
X52304Y27913D01*
X51304Y28913D02*
X52304Y27913D01*
X50304D02*
X51304Y28913D01*
X188173Y140902D02*
X188673D01*
X188173D02*
Y141902D01*
X188673D01*
Y142402D01*
X189673D01*
Y141902D02*
Y142402D01*
Y141902D02*
X190173D01*
Y140902D02*
Y141902D01*
X189673Y140902D02*
X190173D01*
X189673Y140402D02*
Y140902D01*
X188673Y140402D02*
X189673D01*
X188673D02*
Y140902D01*
X111622Y299536D02*
X112622Y300036D01*
X113622Y299536D01*
X113122Y300536D02*
X113622Y299536D01*
X113122Y300536D02*
X113622Y301536D01*
X112622Y301036D02*
X113622Y301536D01*
X111622D02*
X112622Y301036D01*
X111622Y301536D02*
X112122Y300536D01*
X111622Y299536D02*
X112122Y300536D01*
X187852Y166193D02*
X188352D01*
X187852D02*
Y167193D01*
X188352D01*
Y167693D01*
X189352D01*
Y167193D02*
Y167693D01*
Y167193D02*
X189852D01*
Y166193D02*
Y167193D01*
X189352Y166193D02*
X189852D01*
X189352Y165693D02*
Y166193D01*
X188352Y165693D02*
X189352D01*
X188352D02*
Y166193D01*
X203331Y163973D02*
X203831D01*
X203331D02*
Y164973D01*
X203831D01*
Y165473D01*
X204831D01*
Y164973D02*
Y165473D01*
Y164973D02*
X205331D01*
Y163973D02*
Y164973D01*
X204831Y163973D02*
X205331D01*
X204831Y163473D02*
Y163973D01*
X203831Y163473D02*
X204831D01*
X203831D02*
Y163973D01*
X203331Y159367D02*
X203831D01*
X203331D02*
Y160367D01*
X203831D01*
Y160867D01*
X204831D01*
Y160367D02*
Y160867D01*
Y160367D02*
X205331D01*
Y159367D02*
Y160367D01*
X204831Y159367D02*
X205331D01*
X204831Y158867D02*
Y159367D01*
X203831Y158867D02*
X204831D01*
X203831D02*
Y159367D01*
X179236Y162886D02*
X179736D01*
X179236D02*
Y163886D01*
X179736D01*
Y164386D01*
X180736D01*
Y163886D02*
Y164386D01*
Y163886D02*
X181236D01*
Y162886D02*
Y163886D01*
X180736Y162886D02*
X181236D01*
X180736Y162386D02*
Y162886D01*
X179736Y162386D02*
X180736D01*
X179736D02*
Y162886D01*
X267790Y67595D02*
X268290D01*
X267790D02*
Y68595D01*
X268290D01*
Y69095D01*
X269290D01*
Y68595D02*
Y69095D01*
Y68595D02*
X269790D01*
Y67595D02*
Y68595D01*
X269290Y67595D02*
X269790D01*
X269290Y67095D02*
Y67595D01*
X268290Y67095D02*
X269290D01*
X268290D02*
Y67595D01*
X281292Y80681D02*
X281792D01*
X281292D02*
Y81681D01*
X281792D01*
Y82181D01*
X282792D01*
Y81681D02*
Y82181D01*
Y81681D02*
X283292D01*
Y80681D02*
Y81681D01*
X282792Y80681D02*
X283292D01*
X282792Y80181D02*
Y80681D01*
X281792Y80181D02*
X282792D01*
X281792D02*
Y80681D01*
X263945Y67595D02*
X264445D01*
X263945D02*
Y68595D01*
X264445D01*
Y69095D01*
X265445D01*
Y68595D02*
Y69095D01*
Y68595D02*
X265945D01*
Y67595D02*
Y68595D01*
X265445Y67595D02*
X265945D01*
X265445Y67095D02*
Y67595D01*
X264445Y67095D02*
X265445D01*
X264445D02*
Y67595D01*
X252307Y41232D02*
X252807D01*
X252307D02*
Y42232D01*
X252807D01*
Y42732D01*
X253807D01*
Y42232D02*
Y42732D01*
Y42232D02*
X254307D01*
Y41232D02*
Y42232D01*
X253807Y41232D02*
X254307D01*
X253807Y40732D02*
Y41232D01*
X252807Y40732D02*
X253807D01*
X252807D02*
Y41232D01*
X296166Y26726D02*
X296666D01*
X296166D02*
Y27726D01*
X296666D01*
Y28226D01*
X297666D01*
Y27726D02*
Y28226D01*
Y27726D02*
X298166D01*
Y26726D02*
Y27726D01*
X297666Y26726D02*
X298166D01*
X297666Y26226D02*
Y26726D01*
X296666Y26226D02*
X297666D01*
X296666D02*
Y26726D01*
X291598Y28831D02*
X292098D01*
X291598D02*
Y29831D01*
X292098D01*
Y30331D01*
X293098D01*
Y29831D02*
Y30331D01*
Y29831D02*
X293598D01*
Y28831D02*
Y29831D01*
X293098Y28831D02*
X293598D01*
X293098Y28331D02*
Y28831D01*
X292098Y28331D02*
X293098D01*
X292098D02*
Y28831D01*
X282201Y28852D02*
X282701D01*
X282201D02*
Y29852D01*
X282701D01*
Y30352D01*
X283701D01*
Y29852D02*
Y30352D01*
Y29852D02*
X284201D01*
Y28852D02*
Y29852D01*
X283701Y28852D02*
X284201D01*
X283701Y28352D02*
Y28852D01*
X282701Y28352D02*
X283701D01*
X282701D02*
Y28852D01*
X280181Y59828D02*
X280681D01*
X280181D02*
Y60828D01*
X280681D01*
Y61328D01*
X281681D01*
Y60828D02*
Y61328D01*
Y60828D02*
X282181D01*
Y59828D02*
Y60828D01*
X281681Y59828D02*
X282181D01*
X281681Y59328D02*
Y59828D01*
X280681Y59328D02*
X281681D01*
X280681D02*
Y59828D01*
X288173Y64224D02*
X288673D01*
X288173D02*
Y65224D01*
X288673D01*
Y65724D01*
X289673D01*
Y65224D02*
Y65724D01*
Y65224D02*
X290173D01*
Y64224D02*
Y65224D01*
X289673Y64224D02*
X290173D01*
X289673Y63724D02*
Y64224D01*
X288673Y63724D02*
X289673D01*
X288673D02*
Y64224D01*
X275480Y67595D02*
X275980D01*
X275480D02*
Y68595D01*
X275980D01*
Y69095D01*
X276980D01*
Y68595D02*
Y69095D01*
Y68595D02*
X277480D01*
Y67595D02*
Y68595D01*
X276980Y67595D02*
X277480D01*
X276980Y67095D02*
Y67595D01*
X275980Y67095D02*
X276980D01*
X275980D02*
Y67595D01*
X281559D02*
X282059D01*
X281559D02*
Y68595D01*
X282059D01*
Y69095D01*
X283059D01*
Y68595D02*
Y69095D01*
Y68595D02*
X283559D01*
Y67595D02*
Y68595D01*
X283059Y67595D02*
X283559D01*
X283059Y67095D02*
Y67595D01*
X282059Y67095D02*
X283059D01*
X282059D02*
Y67595D01*
X222386Y50669D02*
X223386Y49669D01*
X224386Y50669D01*
X223386Y51669D02*
X224386Y50669D01*
X222386D02*
X223386Y51669D01*
X300417Y28831D02*
X300917D01*
X300417D02*
Y29831D01*
X300917D01*
Y30331D01*
X301917D01*
Y29831D02*
Y30331D01*
Y29831D02*
X302417D01*
Y28831D02*
Y29831D01*
X301917Y28831D02*
X302417D01*
X301917Y28331D02*
Y28831D01*
X300917Y28331D02*
X301917D01*
X300917D02*
Y28831D01*
X309181Y36614D02*
X310181Y35614D01*
X311181Y36614D01*
X310181Y37614D02*
X311181Y36614D01*
X309181D02*
X310181Y37614D01*
X211638Y110811D02*
X212638Y111311D01*
X213638Y110811D01*
X213138Y111811D02*
X213638Y110811D01*
X213138Y111811D02*
X213638Y112811D01*
X212638Y112311D02*
X213638Y112811D01*
X211638D02*
X212638Y112311D01*
X211638Y112811D02*
X212138Y111811D01*
X211638Y110811D02*
X212138Y111811D01*
X27133Y296216D02*
X27633D01*
X27133D02*
Y297216D01*
X27633D01*
Y297716D01*
X28633D01*
Y297216D02*
Y297716D01*
Y297216D02*
X29133D01*
Y296216D02*
Y297216D01*
X28633Y296216D02*
X29133D01*
X28633Y295716D02*
Y296216D01*
X27633Y295716D02*
X28633D01*
X27633D02*
Y296216D01*
X149118Y298055D02*
X150118Y298555D01*
X151118Y298055D01*
X150618Y299055D02*
X151118Y298055D01*
X150618Y299055D02*
X151118Y300055D01*
X150118Y299555D02*
X151118Y300055D01*
X149118D02*
X150118Y299555D01*
X149118Y300055D02*
X149618Y299055D01*
X149118Y298055D02*
X149618Y299055D01*
X208591Y206469D02*
X209090D01*
X208591D02*
Y207469D01*
X209090D01*
Y207968D01*
X210090D01*
Y207469D02*
Y207968D01*
Y207469D02*
X210591D01*
Y206469D02*
Y207469D01*
X210090Y206469D02*
X210591D01*
X210090Y205968D02*
Y206469D01*
X209090Y205968D02*
X210090D01*
X209090D02*
Y206469D01*
X221740Y200154D02*
X222240D01*
X221740D02*
Y201154D01*
X222240D01*
Y201654D01*
X223240D01*
Y201154D02*
Y201654D01*
Y201154D02*
X223740D01*
Y200154D02*
Y201154D01*
X223240Y200154D02*
X223740D01*
X223240Y199654D02*
Y200154D01*
X222240Y199654D02*
X223240D01*
X222240D02*
Y200154D01*
X185480Y207831D02*
X185980D01*
X185480D02*
Y208831D01*
X185980D01*
Y209331D01*
X186980D01*
Y208831D02*
Y209331D01*
Y208831D02*
X187480D01*
Y207831D02*
Y208831D01*
X186980Y207831D02*
X187480D01*
X186980Y207331D02*
Y207831D01*
X185980Y207331D02*
X186980D01*
X185980D02*
Y207831D01*
X295020Y154749D02*
X295519D01*
X295020D02*
Y155749D01*
X295519D01*
Y156249D01*
X296519D01*
Y155749D02*
Y156249D01*
Y155749D02*
X297020D01*
Y154749D02*
Y155749D01*
X296519Y154749D02*
X297020D01*
X296519Y154249D02*
Y154749D01*
X295519Y154249D02*
X296519D01*
X295519D02*
Y154749D01*
X297583Y152335D02*
X298083D01*
X297583D02*
Y153335D01*
X298083D01*
Y153835D01*
X299083D01*
Y153335D02*
Y153835D01*
Y153335D02*
X299583D01*
Y152335D02*
Y153335D01*
X299083Y152335D02*
X299583D01*
X299083Y151835D02*
Y152335D01*
X298083Y151835D02*
X299083D01*
X298083D02*
Y152335D01*
X291165Y137244D02*
X291665D01*
X291165D02*
Y138244D01*
X291665D01*
Y138744D01*
X292665D01*
Y138244D02*
Y138744D01*
Y138244D02*
X293165D01*
Y137244D02*
Y138244D01*
X292665Y137244D02*
X293165D01*
X292665Y136744D02*
Y137244D01*
X291665Y136744D02*
X292665D01*
X291665D02*
Y137244D01*
X279304Y123831D02*
X279804D01*
X279304D02*
Y124831D01*
X279804D01*
Y125331D01*
X280804D01*
Y124831D02*
Y125331D01*
Y124831D02*
X281304D01*
Y123831D02*
Y124831D01*
X280804Y123831D02*
X281304D01*
X280804Y123331D02*
Y123831D01*
X279804Y123331D02*
X280804D01*
X279804D02*
Y123831D01*
X280401Y147359D02*
X280902D01*
X280401D02*
Y148359D01*
X280902D01*
Y148859D01*
X281902D01*
Y148359D02*
Y148859D01*
Y148359D02*
X282401D01*
Y147359D02*
Y148359D01*
X281902Y147359D02*
X282401D01*
X281902Y146859D02*
Y147359D01*
X280902Y146859D02*
X281902D01*
X280902D02*
Y147359D01*
X290909Y114001D02*
X291409D01*
X290909D02*
Y115001D01*
X291409D01*
Y115501D01*
X292409D01*
Y115001D02*
Y115501D01*
Y115001D02*
X292909D01*
Y114001D02*
Y115001D01*
X292409Y114001D02*
X292909D01*
X292409Y113501D02*
Y114001D01*
X291409Y113501D02*
X292409D01*
X291409D02*
Y114001D01*
X298882Y132165D02*
X299382D01*
X298882D02*
Y133165D01*
X299382D01*
Y133665D01*
X300382D01*
Y133165D02*
Y133665D01*
Y133165D02*
X300882D01*
Y132165D02*
Y133165D01*
X300382Y132165D02*
X300882D01*
X300382Y131665D02*
Y132165D01*
X299382Y131665D02*
X300382D01*
X299382D02*
Y132165D01*
X209170Y219012D02*
X209670D01*
X209170D02*
Y220012D01*
X209670D01*
Y220512D01*
X210670D01*
Y220012D02*
Y220512D01*
Y220012D02*
X211170D01*
Y219012D02*
Y220012D01*
X210670Y219012D02*
X211170D01*
X210670Y218512D02*
Y219012D01*
X209670Y218512D02*
X210670D01*
X209670D02*
Y219012D01*
X97842Y136072D02*
X99842D01*
Y138072D01*
X97842D02*
X99842D01*
X97842Y136072D02*
Y138072D01*
X31533Y326165D02*
X33533D01*
Y328165D01*
X31533D02*
X33533D01*
X31533Y326165D02*
Y328165D01*
X83905Y133473D02*
X85905D01*
Y135473D01*
X83905D02*
X85905D01*
X83905Y133473D02*
Y135473D01*
X79748Y306205D02*
X81748D01*
Y308205D01*
X79748D02*
X81748D01*
X79748Y306205D02*
Y308205D01*
X96228Y207449D02*
X98228D01*
Y209449D01*
X96228D02*
X98228D01*
X96228Y207449D02*
Y209449D01*
X164732Y321977D02*
X166732D01*
Y323977D01*
X164732D02*
X166732D01*
X164732Y321977D02*
Y323977D01*
X198787Y333827D02*
X200787D01*
Y335827D01*
X198787D02*
X200787D01*
X198787Y333827D02*
Y335827D01*
X309181Y338512D02*
X311181D01*
Y340512D01*
X309181D02*
X311181D01*
X309181Y338512D02*
Y340512D01*
X319693Y328394D02*
X321693D01*
Y330394D01*
X319693D02*
X321693D01*
X319693Y328394D02*
Y330394D01*
X192228Y204079D02*
X194228D01*
Y206079D01*
X192228D02*
X194228D01*
X192228Y204079D02*
Y206079D01*
X162803Y270993D02*
X164803D01*
Y272993D01*
X162803D02*
X164803D01*
X162803Y270993D02*
Y272993D01*
X189457Y322174D02*
X191457D01*
Y324174D01*
X189457D02*
X191457D01*
X189457Y322174D02*
Y324174D01*
X159693Y237016D02*
X161693D01*
Y239016D01*
X159693D02*
X161693D01*
X159693Y237016D02*
Y239016D01*
X183039Y271662D02*
X185039D01*
Y273662D01*
X183039D02*
X185039D01*
X183039Y271662D02*
Y273662D01*
X165647Y80009D02*
X167647D01*
Y82008D01*
X165647D02*
X167647D01*
X165647Y80009D02*
Y82008D01*
X96071Y221544D02*
X98071D01*
Y223544D01*
X96071D02*
X98071D01*
X96071Y221544D02*
Y223544D01*
X262803Y256741D02*
X264803D01*
Y258741D01*
X262803D02*
X264803D01*
X262803Y256741D02*
Y258741D01*
X264496Y237253D02*
X266496D01*
Y239253D01*
X264496D02*
X266496D01*
X264496Y237253D02*
Y239253D01*
X27055Y343079D02*
X29055D01*
Y345079D01*
X27055D02*
X29055D01*
X27055Y343079D02*
Y345079D01*
X27567Y30875D02*
X29567D01*
Y32875D01*
X27567D02*
X29567D01*
X27567Y30875D02*
Y32875D01*
X329315Y318126D02*
X331315D01*
Y320126D01*
X329315D02*
X331315D01*
X329315Y318126D02*
Y320126D01*
X318488Y23882D02*
X320488D01*
Y25882D01*
X318488D02*
X320488D01*
X318488Y23882D02*
Y25882D01*
X328764Y23685D02*
X330764D01*
Y25685D01*
X328764D02*
X330764D01*
X328764Y23685D02*
Y25685D01*
X73528Y113119D02*
X75528D01*
Y115119D01*
X73528D02*
X75528D01*
X73528Y113119D02*
Y115119D01*
X349606Y28052D02*
X350606Y30052D01*
X348606D02*
X350606D01*
X348606D02*
X349606Y28052D01*
X12303Y18209D02*
X13303Y20209D01*
X11303D02*
X13303D01*
X11303D02*
X12303Y18209D01*
Y333268D02*
X13303Y335268D01*
X11303D02*
X13303D01*
X11303D02*
X12303Y333268D01*
X349570Y318126D02*
X350570Y320126D01*
X348570D02*
X350570D01*
X348570D02*
X349570Y318126D01*
X60378Y307174D02*
X61378Y309174D01*
X59378D02*
X61378D01*
X59378D02*
X60378Y307174D01*
X288591Y307136D02*
X289591Y309136D01*
X287591D02*
X289591D01*
X287591D02*
X288591Y307136D01*
X60391Y46736D02*
X61391Y48736D01*
X59390D02*
X61391D01*
X59390D02*
X60391Y46736D01*
X174490Y176979D02*
X175490Y178979D01*
X173491D02*
X175490D01*
X173491D02*
X174490Y176979D01*
X288591Y46736D02*
X289591Y48736D01*
X287591D02*
X289591D01*
X287591D02*
X288591Y46736D01*
D167*
X869713Y244535D02*
Y240732D01*
X871615Y238830D01*
X873516Y240732D01*
Y244535D01*
X875418Y238830D02*
X877320D01*
X876369D01*
Y242634D01*
X875418D01*
X881123D02*
X883025D01*
X883976Y241683D01*
Y238830D01*
X881123D01*
X880172Y239781D01*
X881123Y240732D01*
X883976D01*
X885877Y238830D02*
X889680Y242634D01*
X891582Y238830D02*
Y244535D01*
X894435D01*
X895385Y243584D01*
Y241683D01*
X894435Y240732D01*
X891582D01*
X898238Y242634D02*
X900140D01*
X901091Y241683D01*
Y238830D01*
X898238D01*
X897287Y239781D01*
X898238Y240732D01*
X901091D01*
X906796Y244535D02*
Y238830D01*
X903943D01*
X902992Y239781D01*
Y241683D01*
X903943Y242634D01*
X906796D01*
X750441Y244535D02*
Y238830D01*
X753293D01*
X754244Y239781D01*
Y243584D01*
X753293Y244535D01*
X750441D01*
X756146Y242634D02*
Y238830D01*
Y240732D01*
X757096Y241683D01*
X758047Y242634D01*
X758998D01*
X761851Y238830D02*
X763752D01*
X762802D01*
Y242634D01*
X761851D01*
X766605Y238830D02*
X768506D01*
X767556D01*
Y244535D01*
X766605D01*
X771359Y238830D02*
X773261D01*
X772310D01*
Y244535D01*
X771359D01*
X781818D02*
Y238830D01*
X785622D01*
X788474Y242634D02*
X790376D01*
X791327Y241683D01*
Y238830D01*
X788474D01*
X787523Y239781D01*
X788474Y240732D01*
X791327D01*
X793228Y242634D02*
Y239781D01*
X794179Y238830D01*
X797032D01*
Y237879D01*
X796081Y236929D01*
X795130D01*
X797032Y238830D02*
Y242634D01*
X801786Y238830D02*
X799884D01*
X798933Y239781D01*
Y241683D01*
X799884Y242634D01*
X801786D01*
X802737Y241683D01*
Y240732D01*
X798933D01*
X804638Y242634D02*
Y238830D01*
Y240732D01*
X805589Y241683D01*
X806540Y242634D01*
X807491D01*
X816048Y238830D02*
Y244535D01*
X818901D01*
X819852Y243584D01*
Y241683D01*
X818901Y240732D01*
X816048D01*
X822704Y242634D02*
X824606D01*
X825557Y241683D01*
Y238830D01*
X822704D01*
X821753Y239781D01*
X822704Y240732D01*
X825557D01*
X827458Y238830D02*
X829360D01*
X828409D01*
Y242634D01*
X827458D01*
X832213D02*
Y238830D01*
Y240732D01*
X833164Y241683D01*
X834114Y242634D01*
X835065D01*
X691614Y244535D02*
Y238830D01*
Y241683D01*
X695418D01*
Y244535D01*
Y238830D01*
X698270D02*
X700172D01*
X701123Y239781D01*
Y241683D01*
X700172Y242634D01*
X698270D01*
X697319Y241683D01*
Y239781D01*
X698270Y238830D01*
X703024D02*
X704926D01*
X703975D01*
Y244535D01*
X703024D01*
X710631Y238830D02*
X708729D01*
X707779Y239781D01*
Y241683D01*
X708729Y242634D01*
X710631D01*
X711582Y241683D01*
Y240732D01*
X707779D01*
X719188Y244535D02*
X722992D01*
X721090D01*
Y238830D01*
X724894Y242634D02*
Y239781D01*
X725844Y238830D01*
X728697D01*
Y237879D01*
X727746Y236929D01*
X726795D01*
X728697Y238830D02*
Y242634D01*
X730599Y236929D02*
Y242634D01*
X733451D01*
X734402Y241683D01*
Y239781D01*
X733451Y238830D01*
X730599D01*
X739156D02*
X737254D01*
X736304Y239781D01*
Y241683D01*
X737254Y242634D01*
X739156D01*
X740107Y241683D01*
Y240732D01*
X736304D01*
X650854Y238830D02*
Y244535D01*
X653706D01*
X654657Y243584D01*
Y241683D01*
X653706Y240732D01*
X650854D01*
X656559Y238830D02*
X658461D01*
X657510D01*
Y244535D01*
X656559D01*
X662264Y242634D02*
X664166D01*
X665116Y241683D01*
Y238830D01*
X662264D01*
X661313Y239781D01*
X662264Y240732D01*
X665116D01*
X667969Y243584D02*
Y242634D01*
X667018D01*
X668920D01*
X667969D01*
Y239781D01*
X668920Y238830D01*
X674625D02*
X672723D01*
X671772Y239781D01*
Y241683D01*
X672723Y242634D01*
X674625D01*
X675576Y241683D01*
Y240732D01*
X671772D01*
X681281Y244535D02*
Y238830D01*
X678428D01*
X677477Y239781D01*
Y241683D01*
X678428Y242634D01*
X681281D01*
X557729Y244535D02*
Y238830D01*
Y241683D01*
X561533D01*
Y244535D01*
Y238830D01*
X564385D02*
X566287D01*
X567238Y239781D01*
Y241683D01*
X566287Y242634D01*
X564385D01*
X563435Y241683D01*
Y239781D01*
X564385Y238830D01*
X569140D02*
X571041D01*
X570090D01*
Y244535D01*
X569140D01*
X576746Y238830D02*
X574845D01*
X573894Y239781D01*
Y241683D01*
X574845Y242634D01*
X576746D01*
X577697Y241683D01*
Y240732D01*
X573894D01*
X589107Y243584D02*
X588156Y244535D01*
X586255D01*
X585304Y243584D01*
Y242634D01*
X586255Y241683D01*
X588156D01*
X589107Y240732D01*
Y239781D01*
X588156Y238830D01*
X586255D01*
X585304Y239781D01*
X591009Y238830D02*
X592911D01*
X591960D01*
Y242634D01*
X591009D01*
X595763D02*
X599566D01*
X595763Y238830D01*
X599566D01*
X604321D02*
X602419D01*
X601468Y239781D01*
Y241683D01*
X602419Y242634D01*
X604321D01*
X605271Y241683D01*
Y240732D01*
X601468D01*
X513573Y243584D02*
X512623Y244535D01*
X510721D01*
X509770Y243584D01*
Y239781D01*
X510721Y238830D01*
X512623D01*
X513573Y239781D01*
X516426Y238830D02*
X518328D01*
X519278Y239781D01*
Y241683D01*
X518328Y242634D01*
X516426D01*
X515475Y241683D01*
Y239781D01*
X516426Y238830D01*
X521180Y242634D02*
Y239781D01*
X522131Y238830D01*
X524984D01*
Y242634D01*
X526885Y238830D02*
Y242634D01*
X529738D01*
X530688Y241683D01*
Y238830D01*
X533541Y243584D02*
Y242634D01*
X532590D01*
X534492D01*
X533541D01*
Y239781D01*
X534492Y238830D01*
X472813Y243584D02*
X471862Y244535D01*
X469960D01*
X469010Y243584D01*
Y242634D01*
X469960Y241683D01*
X471862D01*
X472813Y240732D01*
Y239781D01*
X471862Y238830D01*
X469960D01*
X469010Y239781D01*
X474715Y242634D02*
Y239781D01*
X475666Y238830D01*
X478518D01*
Y237879D01*
X477567Y236929D01*
X476616D01*
X478518Y238830D02*
Y242634D01*
X480420Y238830D02*
Y242634D01*
X481371D01*
X482321Y241683D01*
Y238830D01*
Y241683D01*
X483272Y242634D01*
X484223Y241683D01*
Y238830D01*
X486125Y244535D02*
Y238830D01*
X488977D01*
X489928Y239781D01*
Y240732D01*
Y241683D01*
X488977Y242634D01*
X486125D01*
X492781Y238830D02*
X494682D01*
X495633Y239781D01*
Y241683D01*
X494682Y242634D01*
X492781D01*
X491830Y241683D01*
Y239781D01*
X492781Y238830D01*
X497535D02*
X499437D01*
X498486D01*
Y244535D01*
X497535D01*
M02*
