G04*
G04 #@! TF.GenerationSoftware,Altium Limited,Altium Designer,23.0.1 (38)*
G04*
G04 Layer_Color=16711935*
%FSLAX25Y25*%
%MOIN*%
G70*
G04*
G04 #@! TF.SameCoordinates,CCA4EEAC-205A-4764-8855-BE0F0513998D*
G04*
G04*
G04 #@! TF.FilePolarity,Positive*
G04*
G01*
G75*
%ADD10C,0.01000*%
%ADD177C,0.00500*%
G36*
X677473Y-145165D02*
X676752D01*
Y-144598D01*
X676743Y-144608D01*
X676733Y-144627D01*
X676704Y-144656D01*
X676666Y-144704D01*
X676627Y-144752D01*
X676570Y-144810D01*
X676502Y-144868D01*
X676425Y-144935D01*
X676339Y-144992D01*
X676243Y-145060D01*
X676137Y-145117D01*
X676031Y-145165D01*
X675906Y-145213D01*
X675772Y-145242D01*
X675628Y-145262D01*
X675474Y-145271D01*
X675416D01*
X675378Y-145262D01*
X675272Y-145252D01*
X675147Y-145233D01*
X674984Y-145194D01*
X674821Y-145146D01*
X674638Y-145069D01*
X674465Y-144973D01*
X674455D01*
X674446Y-144964D01*
X674388Y-144915D01*
X674311Y-144848D01*
X674205Y-144752D01*
X674100Y-144637D01*
X673975Y-144493D01*
X673869Y-144329D01*
X673763Y-144137D01*
Y-144128D01*
X673754Y-144108D01*
X673744Y-144079D01*
X673725Y-144041D01*
X673706Y-143993D01*
X673687Y-143926D01*
X673638Y-143772D01*
X673590Y-143589D01*
X673552Y-143378D01*
X673523Y-143147D01*
X673514Y-142888D01*
Y-142878D01*
Y-142859D01*
Y-142821D01*
Y-142772D01*
X673523Y-142715D01*
Y-142638D01*
X673542Y-142475D01*
X673571Y-142282D01*
X673610Y-142080D01*
X673658Y-141859D01*
X673735Y-141648D01*
Y-141639D01*
X673744Y-141619D01*
X673763Y-141590D01*
X673783Y-141552D01*
X673831Y-141456D01*
X673908Y-141331D01*
X674004Y-141187D01*
X674119Y-141043D01*
X674254Y-140908D01*
X674417Y-140783D01*
X674427D01*
X674436Y-140774D01*
X674494Y-140735D01*
X674590Y-140687D01*
X674715Y-140629D01*
X674868Y-140581D01*
X675041Y-140533D01*
X675234Y-140495D01*
X675435Y-140485D01*
X675503D01*
X675580Y-140495D01*
X675685Y-140505D01*
X675791Y-140533D01*
X675916Y-140562D01*
X676041Y-140610D01*
X676166Y-140668D01*
X676185Y-140677D01*
X676224Y-140697D01*
X676281Y-140735D01*
X676358Y-140793D01*
X676435Y-140850D01*
X676531Y-140927D01*
X676617Y-141024D01*
X676694Y-141120D01*
Y-138852D01*
X677473D01*
Y-145165D01*
D02*
G37*
G36*
X651247Y-138832D02*
X651372Y-138852D01*
X651516Y-138880D01*
X651680Y-138919D01*
X651843Y-138977D01*
X652006Y-139053D01*
X652016D01*
X652026Y-139063D01*
X652083Y-139092D01*
X652160Y-139140D01*
X652256Y-139207D01*
X652362Y-139294D01*
X652477Y-139399D01*
X652583Y-139524D01*
X652679Y-139659D01*
X652689Y-139678D01*
X652717Y-139726D01*
X652756Y-139803D01*
X652794Y-139899D01*
X652833Y-140024D01*
X652871Y-140158D01*
X652900Y-140303D01*
X652910Y-140466D01*
Y-140485D01*
Y-140533D01*
X652900Y-140610D01*
X652881Y-140706D01*
X652852Y-140822D01*
X652814Y-140947D01*
X652766Y-141081D01*
X652689Y-141206D01*
X652679Y-141225D01*
X652650Y-141264D01*
X652593Y-141321D01*
X652525Y-141398D01*
X652429Y-141485D01*
X652323Y-141571D01*
X652189Y-141667D01*
X652035Y-141744D01*
X652045D01*
X652064Y-141754D01*
X652093D01*
X652131Y-141773D01*
X652227Y-141802D01*
X652352Y-141859D01*
X652487Y-141927D01*
X652631Y-142023D01*
X652775Y-142138D01*
X652900Y-142282D01*
X652910Y-142302D01*
X652948Y-142359D01*
X652996Y-142446D01*
X653063Y-142561D01*
X653121Y-142705D01*
X653169Y-142878D01*
X653208Y-143080D01*
X653217Y-143301D01*
Y-143311D01*
Y-143340D01*
Y-143378D01*
X653208Y-143436D01*
X653198Y-143512D01*
X653188Y-143589D01*
X653169Y-143685D01*
X653140Y-143781D01*
X653073Y-144002D01*
X653025Y-144128D01*
X652958Y-144243D01*
X652890Y-144358D01*
X652814Y-144473D01*
X652717Y-144589D01*
X652612Y-144704D01*
X652602Y-144714D01*
X652583Y-144733D01*
X652554Y-144752D01*
X652506Y-144791D01*
X652448Y-144839D01*
X652372Y-144887D01*
X652285Y-144935D01*
X652199Y-144983D01*
X652093Y-145040D01*
X651977Y-145089D01*
X651853Y-145136D01*
X651718Y-145185D01*
X651574Y-145223D01*
X651420Y-145242D01*
X651257Y-145262D01*
X651093Y-145271D01*
X651017D01*
X650959Y-145262D01*
X650882Y-145252D01*
X650805Y-145242D01*
X650709Y-145233D01*
X650613Y-145213D01*
X650392Y-145156D01*
X650161Y-145060D01*
X650046Y-145012D01*
X649940Y-144944D01*
X649825Y-144868D01*
X649719Y-144781D01*
X649710Y-144771D01*
X649700Y-144762D01*
X649671Y-144733D01*
X649633Y-144694D01*
X649594Y-144637D01*
X649546Y-144579D01*
X649488Y-144512D01*
X649440Y-144435D01*
X649325Y-144243D01*
X649229Y-144022D01*
X649143Y-143772D01*
X649114Y-143637D01*
X649094Y-143493D01*
X649873Y-143387D01*
Y-143397D01*
X649883Y-143416D01*
Y-143455D01*
X649902Y-143493D01*
X649931Y-143608D01*
X649979Y-143753D01*
X650036Y-143906D01*
X650113Y-144070D01*
X650209Y-144214D01*
X650315Y-144339D01*
X650334Y-144349D01*
X650373Y-144387D01*
X650440Y-144425D01*
X650536Y-144483D01*
X650642Y-144531D01*
X650776Y-144579D01*
X650930Y-144618D01*
X651093Y-144627D01*
X651151D01*
X651190Y-144618D01*
X651286Y-144608D01*
X651410Y-144579D01*
X651564Y-144531D01*
X651718Y-144473D01*
X651872Y-144377D01*
X652016Y-144252D01*
X652035Y-144233D01*
X652074Y-144185D01*
X652131Y-144108D01*
X652208Y-143993D01*
X652275Y-143858D01*
X652333Y-143695D01*
X652372Y-143512D01*
X652391Y-143311D01*
Y-143301D01*
Y-143291D01*
Y-143263D01*
X652381Y-143224D01*
X652372Y-143128D01*
X652343Y-143003D01*
X652304Y-142869D01*
X652237Y-142715D01*
X652150Y-142571D01*
X652035Y-142436D01*
X652016Y-142417D01*
X651977Y-142378D01*
X651901Y-142330D01*
X651795Y-142263D01*
X651670Y-142196D01*
X651516Y-142148D01*
X651353Y-142109D01*
X651161Y-142090D01*
X651074D01*
X651007Y-142100D01*
X650930Y-142109D01*
X650834Y-142119D01*
X650728Y-142138D01*
X650613Y-142167D01*
X650699Y-141485D01*
X650747D01*
X650786Y-141494D01*
X650911D01*
X650997Y-141485D01*
X651122Y-141465D01*
X651257Y-141437D01*
X651401Y-141389D01*
X651555Y-141331D01*
X651708Y-141244D01*
X651728Y-141235D01*
X651776Y-141196D01*
X651833Y-141129D01*
X651910Y-141043D01*
X651987Y-140937D01*
X652045Y-140802D01*
X652093Y-140639D01*
X652112Y-140447D01*
Y-140437D01*
Y-140428D01*
Y-140380D01*
X652093Y-140303D01*
X652074Y-140197D01*
X652045Y-140091D01*
X651987Y-139976D01*
X651920Y-139851D01*
X651824Y-139745D01*
X651814Y-139736D01*
X651776Y-139697D01*
X651708Y-139649D01*
X651622Y-139601D01*
X651516Y-139543D01*
X651391Y-139505D01*
X651247Y-139467D01*
X651084Y-139457D01*
X651007D01*
X650920Y-139476D01*
X650824Y-139496D01*
X650699Y-139524D01*
X650574Y-139582D01*
X650450Y-139649D01*
X650325Y-139745D01*
X650315Y-139755D01*
X650277Y-139793D01*
X650229Y-139861D01*
X650171Y-139957D01*
X650104Y-140072D01*
X650046Y-140216D01*
X649988Y-140389D01*
X649950Y-140591D01*
X649171Y-140456D01*
Y-140447D01*
X649181Y-140418D01*
X649191Y-140380D01*
X649200Y-140331D01*
X649219Y-140264D01*
X649239Y-140187D01*
X649306Y-140014D01*
X649383Y-139822D01*
X649498Y-139620D01*
X649633Y-139428D01*
X649806Y-139255D01*
X649815Y-139246D01*
X649825Y-139236D01*
X649854Y-139217D01*
X649902Y-139188D01*
X649950Y-139159D01*
X650007Y-139121D01*
X650152Y-139034D01*
X650334Y-138957D01*
X650555Y-138890D01*
X650796Y-138842D01*
X650930Y-138823D01*
X651151D01*
X651247Y-138832D01*
D02*
G37*
G36*
X680711Y-145242D02*
Y-145252D01*
X680702Y-145271D01*
X680683Y-145309D01*
X680663Y-145367D01*
X680644Y-145425D01*
X680615Y-145492D01*
X680558Y-145656D01*
X680481Y-145828D01*
X680413Y-145992D01*
X680346Y-146155D01*
X680308Y-146222D01*
X680279Y-146280D01*
X680269Y-146299D01*
X680240Y-146338D01*
X680202Y-146405D01*
X680144Y-146492D01*
X680067Y-146578D01*
X679991Y-146674D01*
X679894Y-146761D01*
X679798Y-146837D01*
X679789Y-146847D01*
X679750Y-146866D01*
X679693Y-146895D01*
X679616Y-146924D01*
X679529Y-146962D01*
X679414Y-146991D01*
X679299Y-147011D01*
X679164Y-147020D01*
X679126D01*
X679078Y-147011D01*
X679020D01*
X678943Y-147001D01*
X678857Y-146982D01*
X678664Y-146924D01*
X678578Y-146203D01*
X678588D01*
X678616Y-146213D01*
X678664Y-146222D01*
X678732Y-146242D01*
X678866Y-146271D01*
X679020Y-146280D01*
X679068D01*
X679107Y-146271D01*
X679174D01*
X679308Y-146242D01*
X679376Y-146222D01*
X679433Y-146194D01*
X679443D01*
X679462Y-146174D01*
X679491Y-146155D01*
X679520Y-146126D01*
X679606Y-146049D01*
X679693Y-145944D01*
Y-145934D01*
X679702Y-145915D01*
X679722Y-145886D01*
X679750Y-145828D01*
X679779Y-145752D01*
X679818Y-145656D01*
X679866Y-145521D01*
X679923Y-145367D01*
X679933Y-145358D01*
X679943Y-145319D01*
X679971Y-145262D01*
X680000Y-145175D01*
X678261Y-140591D01*
X679087D01*
X680039Y-143224D01*
Y-143234D01*
X680048Y-143243D01*
X680058Y-143272D01*
X680067Y-143311D01*
X680106Y-143416D01*
X680154Y-143551D01*
X680202Y-143705D01*
X680260Y-143887D01*
X680317Y-144079D01*
X680375Y-144281D01*
Y-144272D01*
X680385Y-144262D01*
Y-144233D01*
X680404Y-144195D01*
X680423Y-144089D01*
X680462Y-143964D01*
X680510Y-143810D01*
X680567Y-143637D01*
X680625Y-143455D01*
X680692Y-143263D01*
X681672Y-140591D01*
X682441D01*
X680711Y-145242D01*
D02*
G37*
G36*
X665624Y-138861D02*
X665691D01*
X665854Y-138871D01*
X666037Y-138900D01*
X666229Y-138928D01*
X666421Y-138977D01*
X666594Y-139044D01*
X666604D01*
X666613Y-139053D01*
X666671Y-139082D01*
X666748Y-139130D01*
X666844Y-139188D01*
X666959Y-139274D01*
X667075Y-139380D01*
X667180Y-139496D01*
X667286Y-139640D01*
X667296Y-139659D01*
X667325Y-139707D01*
X667363Y-139793D01*
X667411Y-139899D01*
X667459Y-140024D01*
X667498Y-140158D01*
X667526Y-140312D01*
X667536Y-140476D01*
Y-140495D01*
Y-140543D01*
X667526Y-140620D01*
X667507Y-140726D01*
X667478Y-140841D01*
X667440Y-140966D01*
X667392Y-141110D01*
X667315Y-141244D01*
X667305Y-141264D01*
X667277Y-141302D01*
X667219Y-141369D01*
X667152Y-141446D01*
X667056Y-141542D01*
X666940Y-141629D01*
X666806Y-141725D01*
X666642Y-141812D01*
X666652D01*
X666671Y-141821D01*
X666700Y-141831D01*
X666739Y-141840D01*
X666844Y-141888D01*
X666969Y-141946D01*
X667113Y-142033D01*
X667257Y-142129D01*
X667402Y-142244D01*
X667526Y-142388D01*
X667536Y-142407D01*
X667575Y-142455D01*
X667623Y-142542D01*
X667690Y-142657D01*
X667747Y-142801D01*
X667796Y-142955D01*
X667834Y-143138D01*
X667844Y-143340D01*
Y-143359D01*
Y-143416D01*
X667834Y-143503D01*
X667824Y-143608D01*
X667796Y-143734D01*
X667767Y-143878D01*
X667719Y-144022D01*
X667651Y-144166D01*
X667642Y-144185D01*
X667623Y-144233D01*
X667575Y-144300D01*
X667526Y-144387D01*
X667459Y-144483D01*
X667382Y-144579D01*
X667286Y-144675D01*
X667190Y-144762D01*
X667180Y-144771D01*
X667142Y-144791D01*
X667084Y-144829D01*
X666998Y-144877D01*
X666902Y-144925D01*
X666777Y-144973D01*
X666642Y-145021D01*
X666498Y-145069D01*
X666479D01*
X666421Y-145089D01*
X666335Y-145098D01*
X666220Y-145117D01*
X666066Y-145136D01*
X665893Y-145146D01*
X665701Y-145165D01*
X663077D01*
Y-138852D01*
X665556D01*
X665624Y-138861D01*
D02*
G37*
G36*
X656888D02*
X657061Y-138871D01*
X657253Y-138890D01*
X657436Y-138919D01*
X657590Y-138948D01*
X657599D01*
X657619Y-138957D01*
X657638D01*
X657676Y-138977D01*
X657782Y-139005D01*
X657907Y-139053D01*
X658051Y-139111D01*
X658205Y-139188D01*
X658358Y-139284D01*
X658512Y-139399D01*
X658522D01*
X658532Y-139419D01*
X658599Y-139476D01*
X658685Y-139572D01*
X658791Y-139697D01*
X658916Y-139851D01*
X659041Y-140034D01*
X659156Y-140245D01*
X659262Y-140485D01*
Y-140495D01*
X659271Y-140514D01*
X659281Y-140553D01*
X659300Y-140601D01*
X659319Y-140658D01*
X659339Y-140735D01*
X659368Y-140822D01*
X659387Y-140918D01*
X659406Y-141024D01*
X659435Y-141139D01*
X659473Y-141389D01*
X659502Y-141667D01*
X659512Y-141975D01*
Y-141984D01*
Y-142004D01*
Y-142042D01*
Y-142100D01*
X659502Y-142157D01*
Y-142234D01*
X659492Y-142407D01*
X659473Y-142599D01*
X659435Y-142821D01*
X659396Y-143042D01*
X659339Y-143253D01*
Y-143263D01*
X659329Y-143282D01*
X659319Y-143311D01*
X659310Y-143349D01*
X659271Y-143445D01*
X659223Y-143580D01*
X659166Y-143724D01*
X659089Y-143878D01*
X659002Y-144031D01*
X658906Y-144176D01*
X658897Y-144195D01*
X658858Y-144233D01*
X658810Y-144300D01*
X658733Y-144387D01*
X658656Y-144473D01*
X658551Y-144570D01*
X658445Y-144666D01*
X658330Y-144752D01*
X658320Y-144762D01*
X658272Y-144781D01*
X658205Y-144819D01*
X658118Y-144868D01*
X658013Y-144915D01*
X657888Y-144964D01*
X657744Y-145012D01*
X657580Y-145060D01*
X657561D01*
X657503Y-145079D01*
X657417Y-145089D01*
X657292Y-145108D01*
X657148Y-145127D01*
X656975Y-145146D01*
X656782Y-145156D01*
X656571Y-145165D01*
X654303D01*
Y-138852D01*
X656725D01*
X656888Y-138861D01*
D02*
G37*
G36*
X670900Y-140495D02*
X670986Y-140505D01*
X671073Y-140514D01*
X671178Y-140533D01*
X671294Y-140562D01*
X671534Y-140639D01*
X671659Y-140687D01*
X671793Y-140745D01*
X671918Y-140822D01*
X672043Y-140908D01*
X672168Y-141004D01*
X672283Y-141110D01*
X672293Y-141120D01*
X672312Y-141139D01*
X672341Y-141177D01*
X672379Y-141225D01*
X672428Y-141283D01*
X672476Y-141360D01*
X672533Y-141456D01*
X672591Y-141552D01*
X672639Y-141667D01*
X672697Y-141802D01*
X672745Y-141936D01*
X672793Y-142090D01*
X672831Y-142253D01*
X672860Y-142436D01*
X672879Y-142619D01*
X672889Y-142821D01*
Y-142830D01*
Y-142859D01*
Y-142907D01*
Y-142965D01*
X672879Y-143042D01*
Y-143128D01*
X672870Y-143224D01*
X672860Y-143330D01*
X672822Y-143551D01*
X672774Y-143781D01*
X672706Y-144012D01*
X672620Y-144214D01*
Y-144224D01*
X672610Y-144233D01*
X672572Y-144300D01*
X672504Y-144387D01*
X672418Y-144502D01*
X672312Y-144627D01*
X672178Y-144752D01*
X672024Y-144877D01*
X671841Y-144992D01*
X671832D01*
X671822Y-145002D01*
X671793Y-145021D01*
X671755Y-145031D01*
X671649Y-145079D01*
X671515Y-145127D01*
X671351Y-145185D01*
X671169Y-145223D01*
X670967Y-145262D01*
X670746Y-145271D01*
X670650D01*
X670582Y-145262D01*
X670506Y-145252D01*
X670409Y-145242D01*
X670304Y-145223D01*
X670188Y-145194D01*
X669948Y-145117D01*
X669814Y-145069D01*
X669689Y-145012D01*
X669554Y-144944D01*
X669429Y-144858D01*
X669304Y-144762D01*
X669189Y-144656D01*
X669179Y-144646D01*
X669160Y-144627D01*
X669131Y-144589D01*
X669102Y-144541D01*
X669055Y-144473D01*
X669006Y-144397D01*
X668949Y-144310D01*
X668901Y-144204D01*
X668843Y-144079D01*
X668785Y-143955D01*
X668737Y-143801D01*
X668699Y-143647D01*
X668660Y-143474D01*
X668632Y-143291D01*
X668612Y-143090D01*
X668603Y-142878D01*
Y-142859D01*
Y-142821D01*
X668612Y-142753D01*
Y-142667D01*
X668622Y-142561D01*
X668641Y-142446D01*
X668660Y-142311D01*
X668689Y-142167D01*
X668728Y-142013D01*
X668776Y-141859D01*
X668833Y-141706D01*
X668901Y-141552D01*
X668978Y-141398D01*
X669074Y-141254D01*
X669179Y-141120D01*
X669304Y-140995D01*
X669314Y-140985D01*
X669333Y-140975D01*
X669362Y-140947D01*
X669410Y-140918D01*
X669468Y-140879D01*
X669535Y-140831D01*
X669612Y-140783D01*
X669708Y-140735D01*
X669804Y-140697D01*
X669910Y-140649D01*
X670160Y-140562D01*
X670438Y-140505D01*
X670592Y-140495D01*
X670746Y-140485D01*
X670832D01*
X670900Y-140495D01*
D02*
G37*
%LPC*%
G36*
X675608Y-141129D02*
X675464D01*
X675426Y-141139D01*
X675330Y-141148D01*
X675214Y-141177D01*
X675080Y-141235D01*
X674936Y-141312D01*
X674792Y-141408D01*
X674724Y-141475D01*
X674657Y-141552D01*
X674638Y-141571D01*
X674628Y-141600D01*
X674599Y-141629D01*
X674580Y-141677D01*
X674551Y-141735D01*
X674513Y-141802D01*
X674484Y-141879D01*
X674455Y-141965D01*
X674417Y-142061D01*
X674388Y-142177D01*
X674369Y-142292D01*
X674340Y-142427D01*
X674330Y-142571D01*
X674311Y-142724D01*
Y-142888D01*
Y-142897D01*
Y-142926D01*
Y-142974D01*
X674321Y-143032D01*
Y-143109D01*
X674330Y-143186D01*
X674359Y-143387D01*
X674398Y-143599D01*
X674465Y-143820D01*
X674551Y-144022D01*
X674609Y-144118D01*
X674676Y-144204D01*
X674695Y-144224D01*
X674744Y-144272D01*
X674821Y-144339D01*
X674926Y-144416D01*
X675051Y-144502D01*
X675195Y-144570D01*
X675368Y-144618D01*
X675455Y-144627D01*
X675551Y-144637D01*
X675599D01*
X675637Y-144627D01*
X675733Y-144618D01*
X675849Y-144589D01*
X675983Y-144531D01*
X676127Y-144464D01*
X676281Y-144358D01*
X676348Y-144300D01*
X676416Y-144224D01*
Y-144214D01*
X676435Y-144204D01*
X676444Y-144176D01*
X676473Y-144147D01*
X676502Y-144099D01*
X676531Y-144051D01*
X676560Y-143983D01*
X676598Y-143906D01*
X676627Y-143830D01*
X676656Y-143734D01*
X676685Y-143628D01*
X676714Y-143512D01*
X676743Y-143387D01*
X676752Y-143253D01*
X676771Y-143109D01*
Y-142955D01*
Y-142946D01*
Y-142917D01*
Y-142869D01*
X676762Y-142801D01*
Y-142724D01*
X676752Y-142638D01*
X676723Y-142427D01*
X676685Y-142206D01*
X676617Y-141975D01*
X676531Y-141754D01*
X676473Y-141658D01*
X676406Y-141571D01*
Y-141562D01*
X676387Y-141552D01*
X676339Y-141504D01*
X676262Y-141427D01*
X676156Y-141350D01*
X676031Y-141273D01*
X675878Y-141196D01*
X675705Y-141148D01*
X675608Y-141129D01*
D02*
G37*
G36*
X665403Y-139592D02*
X663913D01*
Y-141514D01*
X665460D01*
X665576Y-141504D01*
X665710Y-141494D01*
X665845Y-141485D01*
X665960Y-141465D01*
X666066Y-141446D01*
X666075Y-141437D01*
X666114Y-141427D01*
X666172Y-141408D01*
X666248Y-141369D01*
X666325Y-141331D01*
X666402Y-141273D01*
X666479Y-141206D01*
X666546Y-141129D01*
X666556Y-141120D01*
X666575Y-141091D01*
X666594Y-141043D01*
X666633Y-140975D01*
X666662Y-140899D01*
X666681Y-140802D01*
X666700Y-140697D01*
X666710Y-140572D01*
Y-140562D01*
Y-140514D01*
X666700Y-140456D01*
X666690Y-140380D01*
X666671Y-140293D01*
X666642Y-140207D01*
X666604Y-140111D01*
X666556Y-140014D01*
X666546Y-140005D01*
X666527Y-139976D01*
X666489Y-139937D01*
X666440Y-139880D01*
X666383Y-139832D01*
X666306Y-139774D01*
X666220Y-139726D01*
X666123Y-139688D01*
X666114D01*
X666066Y-139668D01*
X665999Y-139659D01*
X665902Y-139640D01*
X665768Y-139620D01*
X665604Y-139611D01*
X665403Y-139592D01*
D02*
G37*
G36*
X665576Y-142253D02*
X663913D01*
Y-144425D01*
X665701D01*
X665893Y-144416D01*
X665979Y-144406D01*
X666046Y-144397D01*
X666056D01*
X666095Y-144387D01*
X666152Y-144377D01*
X666220Y-144358D01*
X666373Y-144310D01*
X666527Y-144233D01*
X666537Y-144224D01*
X666566Y-144214D01*
X666594Y-144185D01*
X666642Y-144137D01*
X666700Y-144089D01*
X666748Y-144031D01*
X666806Y-143955D01*
X666854Y-143878D01*
X666863Y-143868D01*
X666873Y-143839D01*
X666892Y-143791D01*
X666921Y-143724D01*
X666940Y-143647D01*
X666959Y-143551D01*
X666969Y-143455D01*
X666979Y-143340D01*
Y-143320D01*
Y-143282D01*
X666969Y-143214D01*
X666959Y-143138D01*
X666931Y-143042D01*
X666902Y-142936D01*
X666854Y-142830D01*
X666786Y-142734D01*
X666777Y-142724D01*
X666758Y-142686D01*
X666710Y-142648D01*
X666652Y-142590D01*
X666585Y-142523D01*
X666498Y-142465D01*
X666402Y-142407D01*
X666287Y-142359D01*
X666268Y-142350D01*
X666229Y-142340D01*
X666152Y-142321D01*
X666056Y-142302D01*
X665922Y-142282D01*
X665768Y-142273D01*
X665576Y-142253D01*
D02*
G37*
G36*
X656456Y-139592D02*
X655139D01*
Y-144425D01*
X656581D01*
X656686Y-144416D01*
X656831Y-144406D01*
X656984Y-144397D01*
X657148Y-144377D01*
X657301Y-144349D01*
X657446Y-144310D01*
X657465Y-144300D01*
X657503Y-144291D01*
X657571Y-144262D01*
X657647Y-144224D01*
X657744Y-144176D01*
X657840Y-144128D01*
X657926Y-144060D01*
X658013Y-143983D01*
X658022Y-143974D01*
X658061Y-143926D01*
X658118Y-143858D01*
X658185Y-143772D01*
X658253Y-143657D01*
X658330Y-143522D01*
X658407Y-143359D01*
X658474Y-143186D01*
Y-143176D01*
X658484Y-143166D01*
X658493Y-143138D01*
X658503Y-143099D01*
X658512Y-143051D01*
X658532Y-142993D01*
X658560Y-142849D01*
X658589Y-142667D01*
X658618Y-142455D01*
X658637Y-142225D01*
X658647Y-141965D01*
Y-141956D01*
Y-141917D01*
Y-141869D01*
Y-141802D01*
X658637Y-141715D01*
X658628Y-141619D01*
X658618Y-141514D01*
X658608Y-141408D01*
X658570Y-141158D01*
X658512Y-140908D01*
X658426Y-140668D01*
X658378Y-140553D01*
X658320Y-140447D01*
Y-140437D01*
X658301Y-140428D01*
X658291Y-140399D01*
X658262Y-140360D01*
X658195Y-140264D01*
X658099Y-140158D01*
X657984Y-140034D01*
X657849Y-139918D01*
X657695Y-139813D01*
X657532Y-139726D01*
X657513Y-139716D01*
X657465Y-139707D01*
X657388Y-139688D01*
X657273Y-139659D01*
X657119Y-139630D01*
X656936Y-139611D01*
X656715Y-139601D01*
X656456Y-139592D01*
D02*
G37*
G36*
X670852Y-141129D02*
X670688D01*
X670650Y-141139D01*
X670544Y-141148D01*
X670409Y-141187D01*
X670256Y-141235D01*
X670092Y-141312D01*
X669929Y-141427D01*
X669852Y-141494D01*
X669775Y-141571D01*
X669756Y-141590D01*
X669737Y-141619D01*
X669718Y-141648D01*
X669689Y-141696D01*
X669660Y-141754D01*
X669622Y-141821D01*
X669593Y-141898D01*
X669554Y-141984D01*
X669516Y-142080D01*
X669487Y-142186D01*
X669458Y-142311D01*
X669439Y-142436D01*
X669420Y-142580D01*
X669400Y-142724D01*
Y-142888D01*
Y-142897D01*
Y-142926D01*
Y-142974D01*
X669410Y-143032D01*
Y-143099D01*
X669420Y-143186D01*
X669449Y-143378D01*
X669496Y-143589D01*
X669554Y-143810D01*
X669650Y-144022D01*
X669708Y-144118D01*
X669775Y-144204D01*
X669794Y-144224D01*
X669842Y-144272D01*
X669929Y-144339D01*
X670044Y-144416D01*
X670179Y-144502D01*
X670352Y-144570D01*
X670534Y-144618D01*
X670640Y-144627D01*
X670746Y-144637D01*
X670803D01*
X670842Y-144627D01*
X670948Y-144618D01*
X671082Y-144579D01*
X671236Y-144531D01*
X671399Y-144454D01*
X671553Y-144349D01*
X671630Y-144281D01*
X671707Y-144204D01*
Y-144195D01*
X671726Y-144185D01*
X671745Y-144156D01*
X671765Y-144118D01*
X671793Y-144070D01*
X671832Y-144012D01*
X671861Y-143945D01*
X671899Y-143868D01*
X671938Y-143781D01*
X671966Y-143685D01*
X672005Y-143570D01*
X672034Y-143445D01*
X672053Y-143320D01*
X672072Y-143176D01*
X672091Y-143022D01*
Y-142859D01*
Y-142849D01*
Y-142821D01*
Y-142782D01*
X672082Y-142715D01*
Y-142648D01*
X672072Y-142571D01*
X672043Y-142378D01*
X671995Y-142177D01*
X671928Y-141956D01*
X671832Y-141754D01*
X671697Y-141571D01*
Y-141562D01*
X671678Y-141552D01*
X671630Y-141504D01*
X671544Y-141427D01*
X671438Y-141350D01*
X671294Y-141273D01*
X671130Y-141196D01*
X670948Y-141148D01*
X670852Y-141129D01*
D02*
G37*
%LPD*%
D10*
X14449Y349882D02*
G03*
X45Y335005I609J-15002D01*
G01*
X326575Y341220D02*
G03*
X314724Y349882I-12571J-4763D01*
G01*
X326575Y341339D02*
G03*
X338898Y331928I13326J4677D01*
G01*
X361631Y319611D02*
G03*
X349410Y331906I-12330J-35D01*
G01*
X339435Y14356D02*
G03*
X327284Y8150I-253J-14503D01*
G01*
X348242Y14356D02*
G03*
X361631Y27953I-102J13490D01*
G01*
X311967Y-72D02*
G03*
X327284Y8150I575J17307D01*
G01*
X29278Y2252D02*
G03*
X34488Y-72I4950J4095D01*
G01*
X29278Y2252D02*
G03*
X21524Y6947I-10086J-7908D01*
G01*
X39Y18032D02*
G03*
X11317Y6947I11796J722D01*
G01*
X39Y18032D02*
Y334880D01*
X14449Y349882D02*
X16575D01*
X314724D01*
X338898Y331928D02*
X349301D01*
X361631Y27953D02*
X361631Y319611D01*
X339181Y14356D02*
X348242D01*
X34488Y-72D02*
X311967Y-72D01*
X11317Y6947D02*
X21524D01*
D177*
X235772Y186245D02*
G03*
X235772Y190182I0J1969D01*
G01*
D02*
G03*
X235772Y186245I0J-1969D01*
G01*
X281579Y198016D02*
G03*
X281539Y198056I-39J-0D01*
G01*
X280555D02*
G03*
X280516Y198016I-0J-39D01*
G01*
X288882Y169965D02*
G03*
X288921Y170005I0J39D01*
G01*
Y170989D02*
G03*
X288882Y171028I-39J0D01*
G01*
X254925Y135103D02*
G03*
X254964Y135064I39J0D01*
G01*
X255949D02*
G03*
X255988Y135103I-0J39D01*
G01*
X288882Y148312D02*
G03*
X288921Y148351I0J39D01*
G01*
Y149335D02*
G03*
X288882Y149375I-39J-0D01*
G01*
X233272Y135103D02*
G03*
X233311Y135064I39J0D01*
G01*
X234295D02*
G03*
X234335Y135103I0J39D01*
G01*
X225968Y163154D02*
G03*
X225929Y163115I0J-39D01*
G01*
Y162130D02*
G03*
X225968Y162091I39J0D01*
G01*
Y184808D02*
G03*
X225929Y184768I0J-39D01*
G01*
Y183784D02*
G03*
X225968Y183745I39J-0D01*
G01*
X248114Y198016D02*
G03*
X248075Y198056I-39J-0D01*
G01*
X247091D02*
G03*
X247051Y198016I-0J-39D01*
G01*
X269768D02*
G03*
X269728Y198056I-39J-0D01*
G01*
X268744D02*
G03*
X268705Y198016I0J-39D01*
G01*
X288882Y181776D02*
G03*
X288921Y181816I0J39D01*
G01*
Y182800D02*
G03*
X288882Y182839I-39J0D01*
G01*
Y160123D02*
G03*
X288921Y160162I0J39D01*
G01*
Y161146D02*
G03*
X288882Y161186I-39J0D01*
G01*
X245083Y135103D02*
G03*
X245122Y135064I39J0D01*
G01*
X246106D02*
G03*
X246146Y135103I0J39D01*
G01*
X266736D02*
G03*
X266775Y135064I39J-0D01*
G01*
X267760D02*
G03*
X267799Y135103I-0J39D01*
G01*
X278547D02*
G03*
X278587Y135064I39J-0D01*
G01*
X279571D02*
G03*
X279610Y135103I0J39D01*
G01*
X225968Y151343D02*
G03*
X225929Y151304I0J-39D01*
G01*
Y150320D02*
G03*
X225968Y150280I39J0D01*
G01*
Y172997D02*
G03*
X225929Y172957I0J-39D01*
G01*
Y171973D02*
G03*
X225968Y171934I39J-0D01*
G01*
X236303Y198016D02*
G03*
X236264Y198056I-39J-0D01*
G01*
X235279D02*
G03*
X235240Y198016I-0J-39D01*
G01*
X257957D02*
G03*
X257917Y198056I-39J0D01*
G01*
X256933D02*
G03*
X256894Y198016I-0J-39D01*
G01*
X279610D02*
G03*
X279571Y198056I-39J-0D01*
G01*
X278587D02*
G03*
X278547Y198016I0J-39D01*
G01*
X288882Y171934D02*
G03*
X288921Y171973I0J39D01*
G01*
Y172957D02*
G03*
X288882Y172997I-39J0D01*
G01*
X256894Y135103D02*
G03*
X256933Y135064I39J0D01*
G01*
X257917D02*
G03*
X257957Y135103I-0J39D01*
G01*
X288882Y150280D02*
G03*
X288921Y150320I0J39D01*
G01*
Y151304D02*
G03*
X288882Y151343I-39J-0D01*
G01*
X235240Y135103D02*
G03*
X235279Y135064I39J0D01*
G01*
X236264D02*
G03*
X236303Y135103I0J39D01*
G01*
X268705D02*
G03*
X268744Y135064I39J-0D01*
G01*
X269728D02*
G03*
X269768Y135103I0J39D01*
G01*
X225968Y161186D02*
G03*
X225929Y161146I0J-39D01*
G01*
Y160162D02*
G03*
X225968Y160123I39J0D01*
G01*
Y182839D02*
G03*
X225929Y182800I0J-39D01*
G01*
Y181816D02*
G03*
X225968Y181776I39J-0D01*
G01*
X246146Y198016D02*
G03*
X246106Y198056I-39J-0D01*
G01*
X245122D02*
G03*
X245083Y198016I-0J-39D01*
G01*
X267799D02*
G03*
X267760Y198056I-39J0D01*
G01*
X266775D02*
G03*
X266736Y198016I0J-39D01*
G01*
X288882Y183745D02*
G03*
X288921Y183784I0J39D01*
G01*
Y184768D02*
G03*
X288882Y184808I-39J0D01*
G01*
Y162091D02*
G03*
X288921Y162130I0J39D01*
G01*
Y163115D02*
G03*
X288882Y163154I-39J0D01*
G01*
X247051Y135103D02*
G03*
X247091Y135064I39J0D01*
G01*
X248075D02*
G03*
X248114Y135103I0J39D01*
G01*
X280516D02*
G03*
X280555Y135064I39J0D01*
G01*
X281539D02*
G03*
X281579Y135103I0J39D01*
G01*
X225968Y149375D02*
G03*
X225929Y149335I0J-39D01*
G01*
Y148351D02*
G03*
X225968Y148312I39J0D01*
G01*
Y171028D02*
G03*
X225929Y170989I0J-39D01*
G01*
Y170005D02*
G03*
X225968Y169965I39J-0D01*
G01*
X234335Y198016D02*
G03*
X234295Y198056I-39J-0D01*
G01*
X233311D02*
G03*
X233272Y198016I-0J-39D01*
G01*
X255988D02*
G03*
X255949Y198056I-39J0D01*
G01*
X254964D02*
G03*
X254925Y198016I-0J-39D01*
G01*
X277642D02*
G03*
X277602Y198056I-39J-0D01*
G01*
X276618D02*
G03*
X276579Y198016I0J-39D01*
G01*
X288882Y173902D02*
G03*
X288921Y173942I0J39D01*
G01*
Y174926D02*
G03*
X288882Y174965I-39J0D01*
G01*
Y152249D02*
G03*
X288921Y152288I0J39D01*
G01*
Y153272D02*
G03*
X288882Y153312I-39J0D01*
G01*
X237209Y135103D02*
G03*
X237248Y135064I39J0D01*
G01*
X238232D02*
G03*
X238272Y135103I0J39D01*
G01*
X258862D02*
G03*
X258902Y135064I39J0D01*
G01*
X259886D02*
G03*
X259925Y135103I-0J39D01*
G01*
X270673D02*
G03*
X270712Y135064I39J-0D01*
G01*
X271697D02*
G03*
X271736Y135103I0J39D01*
G01*
X225968Y159217D02*
G03*
X225929Y159178I0J-39D01*
G01*
Y158194D02*
G03*
X225968Y158154I39J0D01*
G01*
Y180871D02*
G03*
X225929Y180831I0J-39D01*
G01*
Y179847D02*
G03*
X225968Y179808I39J-0D01*
G01*
X244177Y198016D02*
G03*
X244138Y198056I-39J-0D01*
G01*
X243154D02*
G03*
X243114Y198016I-0J-39D01*
G01*
X265831D02*
G03*
X265791Y198056I-39J0D01*
G01*
X264807D02*
G03*
X264768Y198016I0J-39D01*
G01*
X288882Y185713D02*
G03*
X288921Y185753I0J39D01*
G01*
Y186737D02*
G03*
X288882Y186776I-39J0D01*
G01*
X259925Y198016D02*
G03*
X259886Y198056I-39J0D01*
G01*
X258902D02*
G03*
X258862Y198016I-0J-39D01*
G01*
X288882Y164060D02*
G03*
X288921Y164099I0J39D01*
G01*
Y165083D02*
G03*
X288882Y165123I-39J0D01*
G01*
X249020Y135103D02*
G03*
X249059Y135064I39J0D01*
G01*
X250043D02*
G03*
X250083Y135103I0J39D01*
G01*
X288882Y142406D02*
G03*
X288921Y142446I0J39D01*
G01*
Y143430D02*
G03*
X288882Y143469I-39J-0D01*
G01*
X225968Y147406D02*
G03*
X225929Y147367I0J-39D01*
G01*
Y146382D02*
G03*
X225968Y146343I39J-0D01*
G01*
Y169060D02*
G03*
X225929Y169020I0J-39D01*
G01*
Y168036D02*
G03*
X225968Y167997I39J-0D01*
G01*
Y190713D02*
G03*
X225929Y190674I0J-39D01*
G01*
Y189690D02*
G03*
X225968Y189650I39J-0D01*
G01*
X254020Y198016D02*
G03*
X253980Y198056I-39J-0D01*
G01*
X252996D02*
G03*
X252957Y198016I-0J-39D01*
G01*
X275673D02*
G03*
X275634Y198056I-39J-0D01*
G01*
X274650D02*
G03*
X274610Y198016I0J-39D01*
G01*
X288882Y175871D02*
G03*
X288921Y175910I0J39D01*
G01*
Y176894D02*
G03*
X288882Y176934I-39J0D01*
G01*
Y154217D02*
G03*
X288921Y154256I0J39D01*
G01*
Y155241D02*
G03*
X288882Y155280I-39J0D01*
G01*
X239177Y135103D02*
G03*
X239216Y135064I39J0D01*
G01*
X240201D02*
G03*
X240240Y135103I0J39D01*
G01*
X260831D02*
G03*
X260870Y135064I39J0D01*
G01*
X261854D02*
G03*
X261894Y135103I-0J39D01*
G01*
X272642D02*
G03*
X272681Y135064I39J-0D01*
G01*
X273665D02*
G03*
X273705Y135103I0J39D01*
G01*
X225968Y157249D02*
G03*
X225929Y157209I0J-39D01*
G01*
Y156225D02*
G03*
X225968Y156186I39J0D01*
G01*
Y178902D02*
G03*
X225929Y178863I0J-39D01*
G01*
Y177879D02*
G03*
X225968Y177839I39J-0D01*
G01*
X242209Y198016D02*
G03*
X242169Y198056I-39J-0D01*
G01*
X241185D02*
G03*
X241146Y198016I-0J-39D01*
G01*
X263862D02*
G03*
X263823Y198056I-39J0D01*
G01*
X262839D02*
G03*
X262799Y198016I-0J-39D01*
G01*
X288882Y187682D02*
G03*
X288921Y187721I0J39D01*
G01*
Y188705D02*
G03*
X288882Y188745I-39J-0D01*
G01*
Y166028D02*
G03*
X288921Y166068I0J39D01*
G01*
Y167052D02*
G03*
X288882Y167091I-39J0D01*
G01*
X250988Y135103D02*
G03*
X251027Y135064I39J0D01*
G01*
X252012D02*
G03*
X252051Y135103I0J39D01*
G01*
X288882Y144375D02*
G03*
X288921Y144414I0J39D01*
G01*
Y145398D02*
G03*
X288882Y145438I-39J-0D01*
G01*
X225968D02*
G03*
X225929Y145398I0J-39D01*
G01*
Y144414D02*
G03*
X225968Y144375I39J-0D01*
G01*
Y167091D02*
G03*
X225929Y167052I0J-39D01*
G01*
Y166068D02*
G03*
X225968Y166028I39J-0D01*
G01*
Y188745D02*
G03*
X225929Y188705I0J-39D01*
G01*
Y187721D02*
G03*
X225968Y187682I39J-0D01*
G01*
X252051Y198016D02*
G03*
X252012Y198056I-39J-0D01*
G01*
X251027D02*
G03*
X250988Y198016I-0J-39D01*
G01*
X273705D02*
G03*
X273665Y198056I-39J-0D01*
G01*
X272681D02*
G03*
X272642Y198016I0J-39D01*
G01*
X288882Y177839D02*
G03*
X288921Y177879I0J39D01*
G01*
Y178863D02*
G03*
X288882Y178902I-39J0D01*
G01*
Y156186D02*
G03*
X288921Y156225I0J39D01*
G01*
Y157209D02*
G03*
X288882Y157249I-39J0D01*
G01*
X241146Y135103D02*
G03*
X241185Y135064I39J0D01*
G01*
X242169D02*
G03*
X242209Y135103I0J39D01*
G01*
X262799D02*
G03*
X262839Y135064I39J0D01*
G01*
X263823D02*
G03*
X263862Y135103I-0J39D01*
G01*
X274610D02*
G03*
X274650Y135064I39J-0D01*
G01*
X275634D02*
G03*
X275673Y135103I0J39D01*
G01*
X225968Y155280D02*
G03*
X225929Y155241I0J-39D01*
G01*
Y154256D02*
G03*
X225968Y154217I39J0D01*
G01*
Y176934D02*
G03*
X225929Y176894I0J-39D01*
G01*
Y175910D02*
G03*
X225968Y175871I39J-0D01*
G01*
X240240Y198016D02*
G03*
X240201Y198056I-39J-0D01*
G01*
X239216D02*
G03*
X239177Y198016I-0J-39D01*
G01*
X261894D02*
G03*
X261854Y198056I-39J0D01*
G01*
X260870D02*
G03*
X260831Y198016I-0J-39D01*
G01*
X288882Y189650D02*
G03*
X288921Y189690I0J39D01*
G01*
Y190674D02*
G03*
X288882Y190713I-39J-0D01*
G01*
Y167997D02*
G03*
X288921Y168036I0J39D01*
G01*
Y169020D02*
G03*
X288882Y169060I-39J0D01*
G01*
X252957Y135103D02*
G03*
X252996Y135064I39J0D01*
G01*
X253980D02*
G03*
X254020Y135103I0J39D01*
G01*
X288882Y146343D02*
G03*
X288921Y146382I0J39D01*
G01*
Y147367D02*
G03*
X288882Y147406I-39J-0D01*
G01*
X225968Y143469D02*
G03*
X225929Y143430I0J-39D01*
G01*
Y142446D02*
G03*
X225968Y142406I39J-0D01*
G01*
Y165123D02*
G03*
X225929Y165083I0J-39D01*
G01*
Y164099D02*
G03*
X225968Y164060I39J-0D01*
G01*
Y186776D02*
G03*
X225929Y186737I0J-39D01*
G01*
Y185753D02*
G03*
X225968Y185713I39J-0D01*
G01*
X250083Y198016D02*
G03*
X250043Y198056I-39J-0D01*
G01*
X249059D02*
G03*
X249020Y198016I-0J-39D01*
G01*
X271736D02*
G03*
X271697Y198056I-39J-0D01*
G01*
X270712D02*
G03*
X270673Y198016I0J-39D01*
G01*
X288882Y179808D02*
G03*
X288921Y179847I0J39D01*
G01*
Y180831D02*
G03*
X288882Y180871I-39J0D01*
G01*
Y158154D02*
G03*
X288921Y158194I0J39D01*
G01*
Y159178D02*
G03*
X288882Y159217I-39J0D01*
G01*
X243114Y135103D02*
G03*
X243154Y135064I39J0D01*
G01*
X244138D02*
G03*
X244177Y135103I0J39D01*
G01*
X264768D02*
G03*
X264807Y135064I39J-0D01*
G01*
X265791D02*
G03*
X265831Y135103I-0J39D01*
G01*
X276579D02*
G03*
X276618Y135064I39J-0D01*
G01*
X277602D02*
G03*
X277642Y135103I0J39D01*
G01*
X225968Y153312D02*
G03*
X225929Y153272I0J-39D01*
G01*
Y152288D02*
G03*
X225968Y152249I39J0D01*
G01*
Y174965D02*
G03*
X225929Y174926I0J-39D01*
G01*
Y173942D02*
G03*
X225968Y173902I39J-0D01*
G01*
X238272Y198016D02*
G03*
X238232Y198056I-39J-0D01*
G01*
X237248D02*
G03*
X237209Y198016I-0J-39D01*
G01*
X231835Y139001D02*
X232079Y139591D01*
X283016Y194119D02*
X284984Y192150D01*
X232079Y139591D02*
X282771D01*
X229866Y192150D02*
X230457Y191906D01*
X282771Y139591D02*
X283016Y139001D01*
X230457Y141214D02*
Y191906D01*
X229866Y140969D02*
Y192150D01*
Y140969D02*
X230457Y141214D01*
X284984Y140969D02*
Y192150D01*
X231835Y194119D02*
X232079Y193528D01*
X284394Y141214D02*
X284984Y140969D01*
X230457Y191906D02*
X232079Y193528D01*
X229866Y192150D02*
X231835Y194119D01*
X284394Y191906D02*
X284984Y192150D01*
X282771Y139591D02*
X284394Y141214D01*
Y191906D01*
X282771Y193528D02*
X284394Y191906D01*
X229866Y140969D02*
X231835Y139001D01*
X283016D01*
X231835Y194119D02*
X283016D01*
Y139001D02*
X284984Y140969D01*
X282771Y193528D02*
X283016Y194119D01*
X230457Y141214D02*
X232079Y139591D01*
Y193528D02*
X282771D01*
X280516Y194119D02*
Y194909D01*
Y196195D02*
Y196586D01*
X281579D02*
Y198016D01*
Y196195D02*
Y196586D01*
X280516Y195631D02*
Y196195D01*
Y196586D02*
Y198016D01*
Y194909D02*
Y195631D01*
X280555Y198056D02*
X281539D01*
X281579Y194119D02*
Y194909D01*
Y195631D01*
Y196195D01*
X284984Y171028D02*
X285774D01*
X287060D02*
X287452D01*
Y169965D02*
X288882D01*
X287060D02*
X287452D01*
X286496Y171028D02*
X287060D01*
X287452D02*
X288882D01*
X285774D02*
X286496D01*
X288921Y170005D02*
Y170989D01*
X284984Y169965D02*
X285774D01*
X286496D01*
X287060D01*
X255988Y138211D02*
Y139001D01*
Y136533D02*
Y136925D01*
X254925Y135103D02*
Y136533D01*
Y136925D01*
X255988D02*
Y137488D01*
Y135103D02*
Y136533D01*
Y137488D02*
Y138211D01*
X254964Y135064D02*
X255949D01*
X254925Y138211D02*
Y139001D01*
Y137488D02*
Y138211D01*
Y136925D02*
Y137488D01*
X284984Y149375D02*
X285774D01*
X287060D02*
X287452D01*
Y148312D02*
X288882D01*
X287060D02*
X287452D01*
X286496Y149375D02*
X287060D01*
X287452D02*
X288882D01*
X285774D02*
X286496D01*
X288921Y148351D02*
Y149335D01*
X284984Y148312D02*
X285774D01*
X286496D01*
X287060D01*
X234335Y138211D02*
Y139001D01*
Y136533D02*
Y136925D01*
X233272Y135103D02*
Y136533D01*
Y136925D01*
X234335D02*
Y137488D01*
Y135103D02*
Y136533D01*
Y137488D02*
Y138211D01*
X233311Y135064D02*
X234295D01*
X233272Y138211D02*
Y139001D01*
Y137488D02*
Y138211D01*
Y136925D02*
Y137488D01*
X229076Y162091D02*
X229866D01*
X227399D02*
X227790D01*
X225968Y163154D02*
X227399D01*
X227790D01*
Y162091D02*
X228354D01*
X225968D02*
X227399D01*
X228354D02*
X229076D01*
X225929Y162130D02*
Y163115D01*
X229076Y163154D02*
X229866D01*
X228354D02*
X229076D01*
X227790D02*
X228354D01*
X229076Y183745D02*
X229866D01*
X227399D02*
X227790D01*
X225968Y184808D02*
X227399D01*
X227790D01*
Y183745D02*
X228354D01*
X225968D02*
X227399D01*
X228354D02*
X229076D01*
X225929Y183784D02*
Y184768D01*
X229076Y184808D02*
X229866D01*
X228354D02*
X229076D01*
X227790D02*
X228354D01*
X247051Y194119D02*
Y194909D01*
Y196195D02*
Y196586D01*
X248114D02*
Y198016D01*
Y196195D02*
Y196586D01*
X247051Y195631D02*
Y196195D01*
Y196586D02*
Y198016D01*
Y194909D02*
Y195631D01*
X247091Y198056D02*
X248075D01*
X248114Y194119D02*
Y194909D01*
Y195631D01*
Y196195D01*
X268705Y194119D02*
Y194909D01*
Y196195D02*
Y196586D01*
X269768D02*
Y198016D01*
Y196195D02*
Y196586D01*
X268705Y195631D02*
Y196195D01*
Y196586D02*
Y198016D01*
Y194909D02*
Y195631D01*
X268744Y198056D02*
X269728D01*
X269768Y194119D02*
Y194909D01*
Y195631D01*
Y196195D01*
X284984Y182839D02*
X285774D01*
X287060D02*
X287452D01*
Y181776D02*
X288882D01*
X287060D02*
X287452D01*
X286496Y182839D02*
X287060D01*
X287452D02*
X288882D01*
X285774D02*
X286496D01*
X288921Y181816D02*
Y182800D01*
X284984Y181776D02*
X285774D01*
X286496D01*
X287060D01*
X284984Y161186D02*
X285774D01*
X287060D02*
X287452D01*
Y160123D02*
X288882D01*
X287060D02*
X287452D01*
X286496Y161186D02*
X287060D01*
X287452D02*
X288882D01*
X285774D02*
X286496D01*
X288921Y160162D02*
Y161146D01*
X284984Y160123D02*
X285774D01*
X286496D01*
X287060D01*
X246146Y138211D02*
Y139001D01*
Y136533D02*
Y136925D01*
X245083Y135103D02*
Y136533D01*
Y136925D01*
X246146D02*
Y137488D01*
Y135103D02*
Y136533D01*
Y137488D02*
Y138211D01*
X245122Y135064D02*
X246106D01*
X245083Y138211D02*
Y139001D01*
Y137488D02*
Y138211D01*
Y136925D02*
Y137488D01*
X267799Y138211D02*
Y139001D01*
Y136533D02*
Y136925D01*
X266736Y135103D02*
Y136533D01*
Y136925D01*
X267799D02*
Y137488D01*
Y135103D02*
Y136533D01*
Y137488D02*
Y138211D01*
X266775Y135064D02*
X267760D01*
X266736Y138211D02*
Y139001D01*
Y137488D02*
Y138211D01*
Y136925D02*
Y137488D01*
X279610Y138211D02*
Y139001D01*
Y136533D02*
Y136925D01*
X278547Y135103D02*
Y136533D01*
Y136925D01*
X279610D02*
Y137488D01*
Y135103D02*
Y136533D01*
Y137488D02*
Y138211D01*
X278587Y135064D02*
X279571D01*
X278547Y138211D02*
Y139001D01*
Y137488D02*
Y138211D01*
Y136925D02*
Y137488D01*
X229076Y150280D02*
X229866D01*
X227399D02*
X227790D01*
X225968Y151343D02*
X227399D01*
X227790D01*
Y150280D02*
X228354D01*
X225968D02*
X227399D01*
X228354D02*
X229076D01*
X225929Y150320D02*
Y151304D01*
X229076Y151343D02*
X229866D01*
X228354D02*
X229076D01*
X227790D02*
X228354D01*
X229076Y171934D02*
X229866D01*
X227399D02*
X227790D01*
X225968Y172997D02*
X227399D01*
X227790D01*
Y171934D02*
X228354D01*
X225968D02*
X227399D01*
X228354D02*
X229076D01*
X225929Y171973D02*
Y172957D01*
X229076Y172997D02*
X229866D01*
X228354D02*
X229076D01*
X227790D02*
X228354D01*
X235240Y194119D02*
Y194909D01*
Y196195D02*
Y196586D01*
X236303D02*
Y198016D01*
Y196195D02*
Y196586D01*
X235240Y195631D02*
Y196195D01*
Y196586D02*
Y198016D01*
Y194909D02*
Y195631D01*
X235279Y198056D02*
X236264D01*
X236303Y194119D02*
Y194909D01*
Y195631D01*
Y196195D01*
X256894Y194119D02*
Y194909D01*
Y196195D02*
Y196586D01*
X257957D02*
Y198016D01*
Y196195D02*
Y196586D01*
X256894Y195631D02*
Y196195D01*
Y196586D02*
Y198016D01*
Y194909D02*
Y195631D01*
X256933Y198056D02*
X257917D01*
X257957Y194119D02*
Y194909D01*
Y195631D01*
Y196195D01*
X278547Y194119D02*
Y194909D01*
Y196195D02*
Y196586D01*
X279610D02*
Y198016D01*
Y196195D02*
Y196586D01*
X278547Y195631D02*
Y196195D01*
Y196586D02*
Y198016D01*
Y194909D02*
Y195631D01*
X278587Y198056D02*
X279571D01*
X279610Y194119D02*
Y194909D01*
Y195631D01*
Y196195D01*
X284984Y172997D02*
X285774D01*
X287060D02*
X287452D01*
Y171934D02*
X288882D01*
X287060D02*
X287452D01*
X286496Y172997D02*
X287060D01*
X287452D02*
X288882D01*
X285774D02*
X286496D01*
X288921Y171973D02*
Y172957D01*
X284984Y171934D02*
X285774D01*
X286496D01*
X287060D01*
X257957Y138211D02*
Y139001D01*
Y136533D02*
Y136925D01*
X256894Y135103D02*
Y136533D01*
Y136925D01*
X257957D02*
Y137488D01*
Y135103D02*
Y136533D01*
Y137488D02*
Y138211D01*
X256933Y135064D02*
X257917D01*
X256894Y138211D02*
Y139001D01*
Y137488D02*
Y138211D01*
Y136925D02*
Y137488D01*
X284984Y151343D02*
X285774D01*
X287060D02*
X287452D01*
Y150280D02*
X288882D01*
X287060D02*
X287452D01*
X286496Y151343D02*
X287060D01*
X287452D02*
X288882D01*
X285774D02*
X286496D01*
X288921Y150320D02*
Y151304D01*
X284984Y150280D02*
X285774D01*
X286496D01*
X287060D01*
X236303Y138211D02*
Y139001D01*
Y136533D02*
Y136925D01*
X235240Y135103D02*
Y136533D01*
Y136925D01*
X236303D02*
Y137488D01*
Y135103D02*
Y136533D01*
Y137488D02*
Y138211D01*
X235279Y135064D02*
X236264D01*
X235240Y138211D02*
Y139001D01*
Y137488D02*
Y138211D01*
Y136925D02*
Y137488D01*
X269768Y138211D02*
Y139001D01*
Y136533D02*
Y136925D01*
X268705Y135103D02*
Y136533D01*
Y136925D01*
X269768D02*
Y137488D01*
Y135103D02*
Y136533D01*
Y137488D02*
Y138211D01*
X268744Y135064D02*
X269728D01*
X268705Y138211D02*
Y139001D01*
Y137488D02*
Y138211D01*
Y136925D02*
Y137488D01*
X229076Y160123D02*
X229866D01*
X227399D02*
X227790D01*
X225968Y161186D02*
X227399D01*
X227790D01*
Y160123D02*
X228354D01*
X225968D02*
X227399D01*
X228354D02*
X229076D01*
X225929Y160162D02*
Y161146D01*
X229076Y161186D02*
X229866D01*
X228354D02*
X229076D01*
X227790D02*
X228354D01*
X229076Y181776D02*
X229866D01*
X227399D02*
X227790D01*
X225968Y182839D02*
X227399D01*
X227790D01*
Y181776D02*
X228354D01*
X225968D02*
X227399D01*
X228354D02*
X229076D01*
X225929Y181816D02*
Y182800D01*
X229076Y182839D02*
X229866D01*
X228354D02*
X229076D01*
X227790D02*
X228354D01*
X245083Y194119D02*
Y194909D01*
Y196195D02*
Y196586D01*
X246146D02*
Y198016D01*
Y196195D02*
Y196586D01*
X245083Y195631D02*
Y196195D01*
Y196586D02*
Y198016D01*
Y194909D02*
Y195631D01*
X245122Y198056D02*
X246106D01*
X246146Y194119D02*
Y194909D01*
Y195631D01*
Y196195D01*
X266736Y194119D02*
Y194909D01*
Y196195D02*
Y196586D01*
X267799D02*
Y198016D01*
Y196195D02*
Y196586D01*
X266736Y195631D02*
Y196195D01*
Y196586D02*
Y198016D01*
Y194909D02*
Y195631D01*
X266775Y198056D02*
X267760D01*
X267799Y194119D02*
Y194909D01*
Y195631D01*
Y196195D01*
X284984Y184808D02*
X285774D01*
X287060D02*
X287452D01*
Y183745D02*
X288882D01*
X287060D02*
X287452D01*
X286496Y184808D02*
X287060D01*
X287452D02*
X288882D01*
X285774D02*
X286496D01*
X288921Y183784D02*
Y184768D01*
X284984Y183745D02*
X285774D01*
X286496D01*
X287060D01*
X284984Y163154D02*
X285774D01*
X287060D02*
X287452D01*
Y162091D02*
X288882D01*
X287060D02*
X287452D01*
X286496Y163154D02*
X287060D01*
X287452D02*
X288882D01*
X285774D02*
X286496D01*
X288921Y162130D02*
Y163115D01*
X284984Y162091D02*
X285774D01*
X286496D01*
X287060D01*
X248114Y138211D02*
Y139001D01*
Y136533D02*
Y136925D01*
X247051Y135103D02*
Y136533D01*
Y136925D01*
X248114D02*
Y137488D01*
Y135103D02*
Y136533D01*
Y137488D02*
Y138211D01*
X247091Y135064D02*
X248075D01*
X247051Y138211D02*
Y139001D01*
Y137488D02*
Y138211D01*
Y136925D02*
Y137488D01*
X281579Y138211D02*
Y139001D01*
Y136533D02*
Y136925D01*
X280516Y135103D02*
Y136533D01*
Y136925D01*
X281579D02*
Y137488D01*
Y135103D02*
Y136533D01*
Y137488D02*
Y138211D01*
X280555Y135064D02*
X281539D01*
X280516Y138211D02*
Y139001D01*
Y137488D02*
Y138211D01*
Y136925D02*
Y137488D01*
X229076Y148312D02*
X229866D01*
X227399D02*
X227790D01*
X225968Y149375D02*
X227399D01*
X227790D01*
Y148312D02*
X228354D01*
X225968D02*
X227399D01*
X228354D02*
X229076D01*
X225929Y148351D02*
Y149335D01*
X229076Y149375D02*
X229866D01*
X228354D02*
X229076D01*
X227790D02*
X228354D01*
X229076Y169965D02*
X229866D01*
X227399D02*
X227790D01*
X225968Y171028D02*
X227399D01*
X227790D01*
Y169965D02*
X228354D01*
X225968D02*
X227399D01*
X228354D02*
X229076D01*
X225929Y170005D02*
Y170989D01*
X229076Y171028D02*
X229866D01*
X228354D02*
X229076D01*
X227790D02*
X228354D01*
X233272Y194119D02*
Y194909D01*
Y196195D02*
Y196586D01*
X234335D02*
Y198016D01*
Y196195D02*
Y196586D01*
X233272Y195631D02*
Y196195D01*
Y196586D02*
Y198016D01*
Y194909D02*
Y195631D01*
X233311Y198056D02*
X234295D01*
X234335Y194119D02*
Y194909D01*
Y195631D01*
Y196195D01*
X254925Y194119D02*
Y194909D01*
Y196195D02*
Y196586D01*
X255988D02*
Y198016D01*
Y196195D02*
Y196586D01*
X254925Y195631D02*
Y196195D01*
Y196586D02*
Y198016D01*
Y194909D02*
Y195631D01*
X254964Y198056D02*
X255949D01*
X255988Y194119D02*
Y194909D01*
Y195631D01*
Y196195D01*
X276579Y194119D02*
Y194909D01*
Y196195D02*
Y196586D01*
X277642D02*
Y198016D01*
Y196195D02*
Y196586D01*
X276579Y195631D02*
Y196195D01*
Y196586D02*
Y198016D01*
Y194909D02*
Y195631D01*
X276618Y198056D02*
X277602D01*
X277642Y194119D02*
Y194909D01*
Y195631D01*
Y196195D01*
X284984Y174965D02*
X285774D01*
X287060D02*
X287452D01*
Y173902D02*
X288882D01*
X287060D02*
X287452D01*
X286496Y174965D02*
X287060D01*
X287452D02*
X288882D01*
X285774D02*
X286496D01*
X288921Y173942D02*
Y174926D01*
X284984Y173902D02*
X285774D01*
X286496D01*
X287060D01*
X284984Y153312D02*
X285774D01*
X287060D02*
X287452D01*
Y152249D02*
X288882D01*
X287060D02*
X287452D01*
X286496Y153312D02*
X287060D01*
X287452D02*
X288882D01*
X285774D02*
X286496D01*
X288921Y152288D02*
Y153272D01*
X284984Y152249D02*
X285774D01*
X286496D01*
X287060D01*
X238272Y138211D02*
Y139001D01*
Y136533D02*
Y136925D01*
X237209Y135103D02*
Y136533D01*
Y136925D01*
X238272D02*
Y137488D01*
Y135103D02*
Y136533D01*
Y137488D02*
Y138211D01*
X237248Y135064D02*
X238232D01*
X237209Y138211D02*
Y139001D01*
Y137488D02*
Y138211D01*
Y136925D02*
Y137488D01*
X259925Y138211D02*
Y139001D01*
Y136533D02*
Y136925D01*
X258862Y135103D02*
Y136533D01*
Y136925D01*
X259925D02*
Y137488D01*
Y135103D02*
Y136533D01*
Y137488D02*
Y138211D01*
X258902Y135064D02*
X259886D01*
X258862Y138211D02*
Y139001D01*
Y137488D02*
Y138211D01*
Y136925D02*
Y137488D01*
X271736Y138211D02*
Y139001D01*
Y136533D02*
Y136925D01*
X270673Y135103D02*
Y136533D01*
Y136925D01*
X271736D02*
Y137488D01*
Y135103D02*
Y136533D01*
Y137488D02*
Y138211D01*
X270712Y135064D02*
X271697D01*
X270673Y138211D02*
Y139001D01*
Y137488D02*
Y138211D01*
Y136925D02*
Y137488D01*
X229076Y158154D02*
X229866D01*
X227399D02*
X227790D01*
X225968Y159217D02*
X227399D01*
X227790D01*
Y158154D02*
X228354D01*
X225968D02*
X227399D01*
X228354D02*
X229076D01*
X225929Y158194D02*
Y159178D01*
X229076Y159217D02*
X229866D01*
X228354D02*
X229076D01*
X227790D02*
X228354D01*
X229076Y179808D02*
X229866D01*
X227399D02*
X227790D01*
X225968Y180871D02*
X227399D01*
X227790D01*
Y179808D02*
X228354D01*
X225968D02*
X227399D01*
X228354D02*
X229076D01*
X225929Y179847D02*
Y180831D01*
X229076Y180871D02*
X229866D01*
X228354D02*
X229076D01*
X227790D02*
X228354D01*
X243114Y194119D02*
Y194909D01*
Y196195D02*
Y196586D01*
X244177D02*
Y198016D01*
Y196195D02*
Y196586D01*
X243114Y195631D02*
Y196195D01*
Y196586D02*
Y198016D01*
Y194909D02*
Y195631D01*
X243154Y198056D02*
X244138D01*
X244177Y194119D02*
Y194909D01*
Y195631D01*
Y196195D01*
X264768Y194119D02*
Y194909D01*
Y196195D02*
Y196586D01*
X265831D02*
Y198016D01*
Y196195D02*
Y196586D01*
X264768Y195631D02*
Y196195D01*
Y196586D02*
Y198016D01*
Y194909D02*
Y195631D01*
X264807Y198056D02*
X265791D01*
X265831Y194119D02*
Y194909D01*
Y195631D01*
Y196195D01*
X284984Y186776D02*
X285774D01*
X287060D02*
X287452D01*
Y185713D02*
X288882D01*
X287060D02*
X287452D01*
X286496Y186776D02*
X287060D01*
X287452D02*
X288882D01*
X285774D02*
X286496D01*
X288921Y185753D02*
Y186737D01*
X284984Y185713D02*
X285774D01*
X286496D01*
X287060D01*
X258862Y194119D02*
Y194909D01*
Y196195D02*
Y196586D01*
X259925D02*
Y198016D01*
Y196195D02*
Y196586D01*
X258862Y195631D02*
Y196195D01*
Y196586D02*
Y198016D01*
Y194909D02*
Y195631D01*
X258902Y198056D02*
X259886D01*
X259925Y194119D02*
Y194909D01*
Y195631D01*
Y196195D01*
X284984Y165123D02*
X285774D01*
X287060D02*
X287452D01*
Y164060D02*
X288882D01*
X287060D02*
X287452D01*
X286496Y165123D02*
X287060D01*
X287452D02*
X288882D01*
X285774D02*
X286496D01*
X288921Y164099D02*
Y165083D01*
X284984Y164060D02*
X285774D01*
X286496D01*
X287060D01*
X250083Y138211D02*
Y139001D01*
Y136533D02*
Y136925D01*
X249020Y135103D02*
Y136533D01*
Y136925D01*
X250083D02*
Y137488D01*
Y135103D02*
Y136533D01*
Y137488D02*
Y138211D01*
X249059Y135064D02*
X250043D01*
X249020Y138211D02*
Y139001D01*
Y137488D02*
Y138211D01*
Y136925D02*
Y137488D01*
X284984Y143469D02*
X285774D01*
X287060D02*
X287452D01*
Y142406D02*
X288882D01*
X287060D02*
X287452D01*
X286496Y143469D02*
X287060D01*
X287452D02*
X288882D01*
X285774D02*
X286496D01*
X288921Y142446D02*
Y143430D01*
X284984Y142406D02*
X285774D01*
X286496D01*
X287060D01*
X229076Y146343D02*
X229866D01*
X227399D02*
X227790D01*
X225968Y147406D02*
X227399D01*
X227790D01*
Y146343D02*
X228354D01*
X225968D02*
X227399D01*
X228354D02*
X229076D01*
X225929Y146382D02*
Y147367D01*
X229076Y147406D02*
X229866D01*
X228354D02*
X229076D01*
X227790D02*
X228354D01*
X229076Y167997D02*
X229866D01*
X227399D02*
X227790D01*
X225968Y169060D02*
X227399D01*
X227790D01*
Y167997D02*
X228354D01*
X225968D02*
X227399D01*
X228354D02*
X229076D01*
X225929Y168036D02*
Y169020D01*
X229076Y169060D02*
X229866D01*
X228354D02*
X229076D01*
X227790D02*
X228354D01*
X229076Y189650D02*
X229866D01*
X227399D02*
X227790D01*
X225968Y190713D02*
X227399D01*
X227790D01*
Y189650D02*
X228354D01*
X225968D02*
X227399D01*
X228354D02*
X229076D01*
X225929Y189690D02*
Y190674D01*
X229076Y190713D02*
X229866D01*
X228354D02*
X229076D01*
X227790D02*
X228354D01*
X252957Y194119D02*
Y194909D01*
Y196195D02*
Y196586D01*
X254020D02*
Y198016D01*
Y196195D02*
Y196586D01*
X252957Y195631D02*
Y196195D01*
Y196586D02*
Y198016D01*
Y194909D02*
Y195631D01*
X252996Y198056D02*
X253980D01*
X254020Y194119D02*
Y194909D01*
Y195631D01*
Y196195D01*
X274610Y194119D02*
Y194909D01*
Y196195D02*
Y196586D01*
X275673D02*
Y198016D01*
Y196195D02*
Y196586D01*
X274610Y195631D02*
Y196195D01*
Y196586D02*
Y198016D01*
Y194909D02*
Y195631D01*
X274650Y198056D02*
X275634D01*
X275673Y194119D02*
Y194909D01*
Y195631D01*
Y196195D01*
X284984Y176934D02*
X285774D01*
X287060D02*
X287452D01*
Y175871D02*
X288882D01*
X287060D02*
X287452D01*
X286496Y176934D02*
X287060D01*
X287452D02*
X288882D01*
X285774D02*
X286496D01*
X288921Y175910D02*
Y176894D01*
X284984Y175871D02*
X285774D01*
X286496D01*
X287060D01*
X284984Y155280D02*
X285774D01*
X287060D02*
X287452D01*
Y154217D02*
X288882D01*
X287060D02*
X287452D01*
X286496Y155280D02*
X287060D01*
X287452D02*
X288882D01*
X285774D02*
X286496D01*
X288921Y154256D02*
Y155241D01*
X284984Y154217D02*
X285774D01*
X286496D01*
X287060D01*
X240240Y138211D02*
Y139001D01*
Y136533D02*
Y136925D01*
X239177Y135103D02*
Y136533D01*
Y136925D01*
X240240D02*
Y137488D01*
Y135103D02*
Y136533D01*
Y137488D02*
Y138211D01*
X239216Y135064D02*
X240201D01*
X239177Y138211D02*
Y139001D01*
Y137488D02*
Y138211D01*
Y136925D02*
Y137488D01*
X261894Y138211D02*
Y139001D01*
Y136533D02*
Y136925D01*
X260831Y135103D02*
Y136533D01*
Y136925D01*
X261894D02*
Y137488D01*
Y135103D02*
Y136533D01*
Y137488D02*
Y138211D01*
X260870Y135064D02*
X261854D01*
X260831Y138211D02*
Y139001D01*
Y137488D02*
Y138211D01*
Y136925D02*
Y137488D01*
X273705Y138211D02*
Y139001D01*
Y136533D02*
Y136925D01*
X272642Y135103D02*
Y136533D01*
Y136925D01*
X273705D02*
Y137488D01*
Y135103D02*
Y136533D01*
Y137488D02*
Y138211D01*
X272681Y135064D02*
X273665D01*
X272642Y138211D02*
Y139001D01*
Y137488D02*
Y138211D01*
Y136925D02*
Y137488D01*
X229076Y156186D02*
X229866D01*
X227399D02*
X227790D01*
X225968Y157249D02*
X227399D01*
X227790D01*
Y156186D02*
X228354D01*
X225968D02*
X227399D01*
X228354D02*
X229076D01*
X225929Y156225D02*
Y157209D01*
X229076Y157249D02*
X229866D01*
X228354D02*
X229076D01*
X227790D02*
X228354D01*
X229076Y177839D02*
X229866D01*
X227399D02*
X227790D01*
X225968Y178902D02*
X227399D01*
X227790D01*
Y177839D02*
X228354D01*
X225968D02*
X227399D01*
X228354D02*
X229076D01*
X225929Y177879D02*
Y178863D01*
X229076Y178902D02*
X229866D01*
X228354D02*
X229076D01*
X227790D02*
X228354D01*
X241146Y194119D02*
Y194909D01*
Y196195D02*
Y196586D01*
X242209D02*
Y198016D01*
Y196195D02*
Y196586D01*
X241146Y195631D02*
Y196195D01*
Y196586D02*
Y198016D01*
Y194909D02*
Y195631D01*
X241185Y198056D02*
X242169D01*
X242209Y194119D02*
Y194909D01*
Y195631D01*
Y196195D01*
X262799Y194119D02*
Y194909D01*
Y196195D02*
Y196586D01*
X263862D02*
Y198016D01*
Y196195D02*
Y196586D01*
X262799Y195631D02*
Y196195D01*
Y196586D02*
Y198016D01*
Y194909D02*
Y195631D01*
X262839Y198056D02*
X263823D01*
X263862Y194119D02*
Y194909D01*
Y195631D01*
Y196195D01*
X284984Y188745D02*
X285774D01*
X287060D02*
X287452D01*
Y187682D02*
X288882D01*
X287060D02*
X287452D01*
X286496Y188745D02*
X287060D01*
X287452D02*
X288882D01*
X285774D02*
X286496D01*
X288921Y187721D02*
Y188705D01*
X284984Y187682D02*
X285774D01*
X286496D01*
X287060D01*
X284984Y167091D02*
X285774D01*
X287060D02*
X287452D01*
Y166028D02*
X288882D01*
X287060D02*
X287452D01*
X286496Y167091D02*
X287060D01*
X287452D02*
X288882D01*
X285774D02*
X286496D01*
X288921Y166068D02*
Y167052D01*
X284984Y166028D02*
X285774D01*
X286496D01*
X287060D01*
X252051Y138211D02*
Y139001D01*
Y136533D02*
Y136925D01*
X250988Y135103D02*
Y136533D01*
Y136925D01*
X252051D02*
Y137488D01*
Y135103D02*
Y136533D01*
Y137488D02*
Y138211D01*
X251027Y135064D02*
X252012D01*
X250988Y138211D02*
Y139001D01*
Y137488D02*
Y138211D01*
Y136925D02*
Y137488D01*
X284984Y145438D02*
X285774D01*
X287060D02*
X287452D01*
Y144375D02*
X288882D01*
X287060D02*
X287452D01*
X286496Y145438D02*
X287060D01*
X287452D02*
X288882D01*
X285774D02*
X286496D01*
X288921Y144414D02*
Y145398D01*
X284984Y144375D02*
X285774D01*
X286496D01*
X287060D01*
X229076D02*
X229866D01*
X227399D02*
X227790D01*
X225968Y145438D02*
X227399D01*
X227790D01*
Y144375D02*
X228354D01*
X225968D02*
X227399D01*
X228354D02*
X229076D01*
X225929Y144414D02*
Y145398D01*
X229076Y145438D02*
X229866D01*
X228354D02*
X229076D01*
X227790D02*
X228354D01*
X229076Y166028D02*
X229866D01*
X227399D02*
X227790D01*
X225968Y167091D02*
X227399D01*
X227790D01*
Y166028D02*
X228354D01*
X225968D02*
X227399D01*
X228354D02*
X229076D01*
X225929Y166068D02*
Y167052D01*
X229076Y167091D02*
X229866D01*
X228354D02*
X229076D01*
X227790D02*
X228354D01*
X229076Y187682D02*
X229866D01*
X227399D02*
X227790D01*
X225968Y188745D02*
X227399D01*
X227790D01*
Y187682D02*
X228354D01*
X225968D02*
X227399D01*
X228354D02*
X229076D01*
X225929Y187721D02*
Y188705D01*
X229076Y188745D02*
X229866D01*
X228354D02*
X229076D01*
X227790D02*
X228354D01*
X250988Y194119D02*
Y194909D01*
Y196195D02*
Y196586D01*
X252051D02*
Y198016D01*
Y196195D02*
Y196586D01*
X250988Y195631D02*
Y196195D01*
Y196586D02*
Y198016D01*
Y194909D02*
Y195631D01*
X251027Y198056D02*
X252012D01*
X252051Y194119D02*
Y194909D01*
Y195631D01*
Y196195D01*
X272642Y194119D02*
Y194909D01*
Y196195D02*
Y196586D01*
X273705D02*
Y198016D01*
Y196195D02*
Y196586D01*
X272642Y195631D02*
Y196195D01*
Y196586D02*
Y198016D01*
Y194909D02*
Y195631D01*
X272681Y198056D02*
X273665D01*
X273705Y194119D02*
Y194909D01*
Y195631D01*
Y196195D01*
X284984Y178902D02*
X285774D01*
X287060D02*
X287452D01*
Y177839D02*
X288882D01*
X287060D02*
X287452D01*
X286496Y178902D02*
X287060D01*
X287452D02*
X288882D01*
X285774D02*
X286496D01*
X288921Y177879D02*
Y178863D01*
X284984Y177839D02*
X285774D01*
X286496D01*
X287060D01*
X284984Y157249D02*
X285774D01*
X287060D02*
X287452D01*
Y156186D02*
X288882D01*
X287060D02*
X287452D01*
X286496Y157249D02*
X287060D01*
X287452D02*
X288882D01*
X285774D02*
X286496D01*
X288921Y156225D02*
Y157209D01*
X284984Y156186D02*
X285774D01*
X286496D01*
X287060D01*
X242209Y138211D02*
Y139001D01*
Y136533D02*
Y136925D01*
X241146Y135103D02*
Y136533D01*
Y136925D01*
X242209D02*
Y137488D01*
Y135103D02*
Y136533D01*
Y137488D02*
Y138211D01*
X241185Y135064D02*
X242169D01*
X241146Y138211D02*
Y139001D01*
Y137488D02*
Y138211D01*
Y136925D02*
Y137488D01*
X263862Y138211D02*
Y139001D01*
Y136533D02*
Y136925D01*
X262799Y135103D02*
Y136533D01*
Y136925D01*
X263862D02*
Y137488D01*
Y135103D02*
Y136533D01*
Y137488D02*
Y138211D01*
X262839Y135064D02*
X263823D01*
X262799Y138211D02*
Y139001D01*
Y137488D02*
Y138211D01*
Y136925D02*
Y137488D01*
X275673Y138211D02*
Y139001D01*
Y136533D02*
Y136925D01*
X274610Y135103D02*
Y136533D01*
Y136925D01*
X275673D02*
Y137488D01*
Y135103D02*
Y136533D01*
Y137488D02*
Y138211D01*
X274650Y135064D02*
X275634D01*
X274610Y138211D02*
Y139001D01*
Y137488D02*
Y138211D01*
Y136925D02*
Y137488D01*
X229076Y154217D02*
X229866D01*
X227399D02*
X227790D01*
X225968Y155280D02*
X227399D01*
X227790D01*
Y154217D02*
X228354D01*
X225968D02*
X227399D01*
X228354D02*
X229076D01*
X225929Y154256D02*
Y155241D01*
X229076Y155280D02*
X229866D01*
X228354D02*
X229076D01*
X227790D02*
X228354D01*
X229076Y175871D02*
X229866D01*
X227399D02*
X227790D01*
X225968Y176934D02*
X227399D01*
X227790D01*
Y175871D02*
X228354D01*
X225968D02*
X227399D01*
X228354D02*
X229076D01*
X225929Y175910D02*
Y176894D01*
X229076Y176934D02*
X229866D01*
X228354D02*
X229076D01*
X227790D02*
X228354D01*
X239177Y194119D02*
Y194909D01*
Y196195D02*
Y196586D01*
X240240D02*
Y198016D01*
Y196195D02*
Y196586D01*
X239177Y195631D02*
Y196195D01*
Y196586D02*
Y198016D01*
Y194909D02*
Y195631D01*
X239216Y198056D02*
X240201D01*
X240240Y194119D02*
Y194909D01*
Y195631D01*
Y196195D01*
X260831Y194119D02*
Y194909D01*
Y196195D02*
Y196586D01*
X261894D02*
Y198016D01*
Y196195D02*
Y196586D01*
X260831Y195631D02*
Y196195D01*
Y196586D02*
Y198016D01*
Y194909D02*
Y195631D01*
X260870Y198056D02*
X261854D01*
X261894Y194119D02*
Y194909D01*
Y195631D01*
Y196195D01*
X284984Y190713D02*
X285774D01*
X287060D02*
X287452D01*
Y189650D02*
X288882D01*
X287060D02*
X287452D01*
X286496Y190713D02*
X287060D01*
X287452D02*
X288882D01*
X285774D02*
X286496D01*
X288921Y189690D02*
Y190674D01*
X284984Y189650D02*
X285774D01*
X286496D01*
X287060D01*
X284984Y169060D02*
X285774D01*
X287060D02*
X287452D01*
Y167997D02*
X288882D01*
X287060D02*
X287452D01*
X286496Y169060D02*
X287060D01*
X287452D02*
X288882D01*
X285774D02*
X286496D01*
X288921Y168036D02*
Y169020D01*
X284984Y167997D02*
X285774D01*
X286496D01*
X287060D01*
X254020Y138211D02*
Y139001D01*
Y136533D02*
Y136925D01*
X252957Y135103D02*
Y136533D01*
Y136925D01*
X254020D02*
Y137488D01*
Y135103D02*
Y136533D01*
Y137488D02*
Y138211D01*
X252996Y135064D02*
X253980D01*
X252957Y138211D02*
Y139001D01*
Y137488D02*
Y138211D01*
Y136925D02*
Y137488D01*
X284984Y147406D02*
X285774D01*
X287060D02*
X287452D01*
Y146343D02*
X288882D01*
X287060D02*
X287452D01*
X286496Y147406D02*
X287060D01*
X287452D02*
X288882D01*
X285774D02*
X286496D01*
X288921Y146382D02*
Y147367D01*
X284984Y146343D02*
X285774D01*
X286496D01*
X287060D01*
X229076Y142406D02*
X229866D01*
X227399D02*
X227790D01*
X225968Y143469D02*
X227399D01*
X227790D01*
Y142406D02*
X228354D01*
X225968D02*
X227399D01*
X228354D02*
X229076D01*
X225929Y142446D02*
Y143430D01*
X229076Y143469D02*
X229866D01*
X228354D02*
X229076D01*
X227790D02*
X228354D01*
X229076Y164060D02*
X229866D01*
X227399D02*
X227790D01*
X225968Y165123D02*
X227399D01*
X227790D01*
Y164060D02*
X228354D01*
X225968D02*
X227399D01*
X228354D02*
X229076D01*
X225929Y164099D02*
Y165083D01*
X229076Y165123D02*
X229866D01*
X228354D02*
X229076D01*
X227790D02*
X228354D01*
X229076Y185713D02*
X229866D01*
X227399D02*
X227790D01*
X225968Y186776D02*
X227399D01*
X227790D01*
Y185713D02*
X228354D01*
X225968D02*
X227399D01*
X228354D02*
X229076D01*
X225929Y185753D02*
Y186737D01*
X229076Y186776D02*
X229866D01*
X228354D02*
X229076D01*
X227790D02*
X228354D01*
X249020Y194119D02*
Y194909D01*
Y196195D02*
Y196586D01*
X250083D02*
Y198016D01*
Y196195D02*
Y196586D01*
X249020Y195631D02*
Y196195D01*
Y196586D02*
Y198016D01*
Y194909D02*
Y195631D01*
X249059Y198056D02*
X250043D01*
X250083Y194119D02*
Y194909D01*
Y195631D01*
Y196195D01*
X270673Y194119D02*
Y194909D01*
Y196195D02*
Y196586D01*
X271736D02*
Y198016D01*
Y196195D02*
Y196586D01*
X270673Y195631D02*
Y196195D01*
Y196586D02*
Y198016D01*
Y194909D02*
Y195631D01*
X270712Y198056D02*
X271697D01*
X271736Y194119D02*
Y194909D01*
Y195631D01*
Y196195D01*
X284984Y180871D02*
X285774D01*
X287060D02*
X287452D01*
Y179808D02*
X288882D01*
X287060D02*
X287452D01*
X286496Y180871D02*
X287060D01*
X287452D02*
X288882D01*
X285774D02*
X286496D01*
X288921Y179847D02*
Y180831D01*
X284984Y179808D02*
X285774D01*
X286496D01*
X287060D01*
X284984Y159217D02*
X285774D01*
X287060D02*
X287452D01*
Y158154D02*
X288882D01*
X287060D02*
X287452D01*
X286496Y159217D02*
X287060D01*
X287452D02*
X288882D01*
X285774D02*
X286496D01*
X288921Y158194D02*
Y159178D01*
X284984Y158154D02*
X285774D01*
X286496D01*
X287060D01*
X244177Y138211D02*
Y139001D01*
Y136533D02*
Y136925D01*
X243114Y135103D02*
Y136533D01*
Y136925D01*
X244177D02*
Y137488D01*
Y135103D02*
Y136533D01*
Y137488D02*
Y138211D01*
X243154Y135064D02*
X244138D01*
X243114Y138211D02*
Y139001D01*
Y137488D02*
Y138211D01*
Y136925D02*
Y137488D01*
X265831Y138211D02*
Y139001D01*
Y136533D02*
Y136925D01*
X264768Y135103D02*
Y136533D01*
Y136925D01*
X265831D02*
Y137488D01*
Y135103D02*
Y136533D01*
Y137488D02*
Y138211D01*
X264807Y135064D02*
X265791D01*
X264768Y138211D02*
Y139001D01*
Y137488D02*
Y138211D01*
Y136925D02*
Y137488D01*
X277642Y138211D02*
Y139001D01*
Y136533D02*
Y136925D01*
X276579Y135103D02*
Y136533D01*
Y136925D01*
X277642D02*
Y137488D01*
Y135103D02*
Y136533D01*
Y137488D02*
Y138211D01*
X276618Y135064D02*
X277602D01*
X276579Y138211D02*
Y139001D01*
Y137488D02*
Y138211D01*
Y136925D02*
Y137488D01*
X229076Y152249D02*
X229866D01*
X227399D02*
X227790D01*
X225968Y153312D02*
X227399D01*
X227790D01*
Y152249D02*
X228354D01*
X225968D02*
X227399D01*
X228354D02*
X229076D01*
X225929Y152288D02*
Y153272D01*
X229076Y153312D02*
X229866D01*
X228354D02*
X229076D01*
X227790D02*
X228354D01*
X229076Y173902D02*
X229866D01*
X227399D02*
X227790D01*
X225968Y174965D02*
X227399D01*
X227790D01*
Y173902D02*
X228354D01*
X225968D02*
X227399D01*
X228354D02*
X229076D01*
X225929Y173942D02*
Y174926D01*
X229076Y174965D02*
X229866D01*
X228354D02*
X229076D01*
X227790D02*
X228354D01*
X237209Y194119D02*
Y194909D01*
Y196195D02*
Y196586D01*
X238272D02*
Y198016D01*
Y196195D02*
Y196586D01*
X237209Y195631D02*
Y196195D01*
Y196586D02*
Y198016D01*
Y194909D02*
Y195631D01*
X237248Y198056D02*
X238232D01*
X238272Y194119D02*
Y194909D01*
Y195631D01*
Y196195D01*
M02*
