G04*
G04 #@! TF.GenerationSoftware,Altium Limited,Altium Designer,23.0.1 (38)*
G04*
G04 Layer_Color=128*
%FSLAX25Y25*%
%MOIN*%
G70*
G04*
G04 #@! TF.SameCoordinates,CCA4EEAC-205A-4764-8855-BE0F0513998D*
G04*
G04*
G04 #@! TF.FilePolarity,Positive*
G04*
G01*
G75*
%ADD10C,0.01000*%
%ADD29R,0.08661X0.02756*%
%ADD42R,0.04331X0.08661*%
%ADD45R,0.06000X0.04724*%
%ADD46R,0.04134X0.04724*%
%ADD47R,0.06000X0.06000*%
%ADD48R,0.04724X0.04134*%
%ADD49R,0.03543X0.03543*%
%ADD50R,0.08661X0.04331*%
%ADD51R,0.09843X0.06693*%
%ADD54R,0.02756X0.08661*%
%ADD56R,0.04724X0.06000*%
%ADD57R,0.03150X0.03150*%
%ADD59C,0.05118*%
%ADD119P,0.05568X4X180.0*%
%ADD120R,0.06102X0.01181*%
%ADD121R,0.12598X0.09449*%
%ADD122R,0.03543X0.00787*%
%ADD123R,0.05000X0.02000*%
%ADD124O,0.02362X0.08661*%
%ADD125R,0.02480X0.03543*%
%ADD126R,0.02480X0.03504*%
%ADD129R,0.01772X0.05906*%
%ADD130R,0.04134X0.03150*%
%ADD131R,0.04724X0.04724*%
%ADD132R,0.03937X0.05118*%
%ADD133R,0.02244X0.05906*%
%ADD134R,0.03150X0.03150*%
%ADD135R,0.03000X0.03000*%
%ADD136R,0.04724X0.04724*%
%ADD137R,0.03543X0.03543*%
G04:AMPARAMS|DCode=138|XSize=41.34mil|YSize=47.24mil|CornerRadius=0mil|HoleSize=0mil|Usage=FLASHONLY|Rotation=135.000|XOffset=0mil|YOffset=0mil|HoleType=Round|Shape=Rectangle|*
%AMROTATEDRECTD138*
4,1,4,0.03132,0.00209,-0.00209,-0.03132,-0.03132,-0.00209,0.00209,0.03132,0.03132,0.00209,0.0*
%
%ADD138ROTATEDRECTD138*%

G04:AMPARAMS|DCode=139|XSize=41.34mil|YSize=47.24mil|CornerRadius=0mil|HoleSize=0mil|Usage=FLASHONLY|Rotation=225.000|XOffset=0mil|YOffset=0mil|HoleType=Round|Shape=Rectangle|*
%AMROTATEDRECTD139*
4,1,4,-0.00209,0.03132,0.03132,-0.00209,0.00209,-0.03132,-0.03132,0.00209,-0.00209,0.03132,0.0*
%
%ADD139ROTATEDRECTD139*%

%ADD140R,0.03543X0.02480*%
%ADD141R,0.03504X0.02480*%
%ADD142R,0.05906X0.02244*%
%ADD143R,0.05906X0.01772*%
%ADD171O,0.00381X0.06090*%
%ADD172O,0.06090X0.00381*%
G36*
X674404Y-140318D02*
X674462D01*
X674529Y-140327D01*
X674674Y-140356D01*
X674847Y-140404D01*
X675020Y-140471D01*
X675183Y-140568D01*
X675337Y-140692D01*
X675356Y-140712D01*
X675394Y-140760D01*
X675452Y-140856D01*
X675529Y-140981D01*
X675596Y-141144D01*
X675654Y-141336D01*
X675692Y-141577D01*
X675711Y-141711D01*
Y-141855D01*
Y-144988D01*
X674933D01*
Y-142115D01*
Y-142105D01*
Y-142096D01*
Y-142038D01*
Y-141951D01*
X674923Y-141855D01*
X674904Y-141634D01*
X674885Y-141529D01*
X674856Y-141442D01*
Y-141432D01*
X674837Y-141404D01*
X674818Y-141365D01*
X674789Y-141317D01*
X674750Y-141269D01*
X674702Y-141211D01*
X674645Y-141154D01*
X674577Y-141106D01*
X674568Y-141096D01*
X674539Y-141086D01*
X674501Y-141067D01*
X674452Y-141039D01*
X674385Y-141019D01*
X674299Y-141000D01*
X674212Y-140990D01*
X674116Y-140981D01*
X674039D01*
X673943Y-141000D01*
X673837Y-141019D01*
X673712Y-141058D01*
X673578Y-141115D01*
X673434Y-141202D01*
X673309Y-141308D01*
X673299Y-141327D01*
X673261Y-141365D01*
X673213Y-141442D01*
X673155Y-141557D01*
X673088Y-141702D01*
X673040Y-141875D01*
X673001Y-142086D01*
X672992Y-142336D01*
Y-144988D01*
X672213D01*
Y-142019D01*
Y-142009D01*
Y-141999D01*
Y-141971D01*
Y-141932D01*
X672204Y-141836D01*
X672194Y-141730D01*
X672165Y-141596D01*
X672136Y-141471D01*
X672088Y-141346D01*
X672021Y-141240D01*
X672012Y-141231D01*
X671983Y-141202D01*
X671944Y-141154D01*
X671877Y-141106D01*
X671791Y-141067D01*
X671685Y-141019D01*
X671560Y-140990D01*
X671406Y-140981D01*
X671348D01*
X671291Y-140990D01*
X671204Y-141000D01*
X671118Y-141019D01*
X671012Y-141058D01*
X670906Y-141096D01*
X670801Y-141154D01*
X670791Y-141163D01*
X670753Y-141183D01*
X670705Y-141231D01*
X670647Y-141279D01*
X670580Y-141356D01*
X670512Y-141442D01*
X670455Y-141548D01*
X670397Y-141663D01*
X670388Y-141682D01*
X670378Y-141721D01*
X670359Y-141798D01*
X670339Y-141903D01*
X670311Y-142038D01*
X670291Y-142201D01*
X670282Y-142394D01*
X670272Y-142614D01*
Y-144988D01*
X669494D01*
Y-140414D01*
X670186D01*
Y-141058D01*
X670195Y-141039D01*
X670224Y-141000D01*
X670272Y-140942D01*
X670339Y-140866D01*
X670416Y-140779D01*
X670512Y-140692D01*
X670628Y-140596D01*
X670753Y-140520D01*
X670772Y-140510D01*
X670820Y-140491D01*
X670897Y-140452D01*
X670993Y-140414D01*
X671118Y-140375D01*
X671252Y-140337D01*
X671416Y-140318D01*
X671579Y-140308D01*
X671666D01*
X671762Y-140318D01*
X671877Y-140337D01*
X672002Y-140356D01*
X672146Y-140395D01*
X672281Y-140452D01*
X672406Y-140520D01*
X672425Y-140529D01*
X672463Y-140558D01*
X672521Y-140606D01*
X672588Y-140673D01*
X672665Y-140760D01*
X672742Y-140856D01*
X672809Y-140981D01*
X672867Y-141115D01*
X672877Y-141106D01*
X672896Y-141077D01*
X672925Y-141039D01*
X672963Y-140990D01*
X673021Y-140923D01*
X673088Y-140856D01*
X673165Y-140789D01*
X673251Y-140712D01*
X673347Y-140635D01*
X673453Y-140568D01*
X673703Y-140433D01*
X673837Y-140385D01*
X673982Y-140347D01*
X674126Y-140318D01*
X674289Y-140308D01*
X674356D01*
X674404Y-140318D01*
D02*
G37*
G36*
X691760D02*
X691885Y-140327D01*
X692039Y-140347D01*
X692193Y-140375D01*
X692356Y-140414D01*
X692510Y-140471D01*
X692519D01*
X692529Y-140481D01*
X692577Y-140500D01*
X692654Y-140539D01*
X692740Y-140577D01*
X692836Y-140645D01*
X692942Y-140712D01*
X693038Y-140798D01*
X693115Y-140894D01*
X693125Y-140904D01*
X693144Y-140942D01*
X693182Y-141000D01*
X693230Y-141077D01*
X693269Y-141173D01*
X693317Y-141298D01*
X693355Y-141432D01*
X693394Y-141586D01*
X692635Y-141692D01*
Y-141673D01*
X692625Y-141634D01*
X692606Y-141567D01*
X692577Y-141490D01*
X692538Y-141404D01*
X692481Y-141317D01*
X692414Y-141221D01*
X692327Y-141144D01*
X692317Y-141135D01*
X692279Y-141115D01*
X692221Y-141077D01*
X692144Y-141039D01*
X692048Y-141010D01*
X691924Y-140971D01*
X691789Y-140952D01*
X691626Y-140942D01*
X691539D01*
X691443Y-140952D01*
X691328Y-140962D01*
X691203Y-140990D01*
X691078Y-141019D01*
X690953Y-141067D01*
X690857Y-141125D01*
X690847Y-141135D01*
X690818Y-141154D01*
X690790Y-141192D01*
X690751Y-141240D01*
X690703Y-141298D01*
X690674Y-141375D01*
X690645Y-141452D01*
X690636Y-141538D01*
Y-141548D01*
Y-141567D01*
X690645Y-141596D01*
Y-141634D01*
X690674Y-141721D01*
X690722Y-141817D01*
X690732Y-141826D01*
X690741Y-141836D01*
X690799Y-141884D01*
X690837Y-141923D01*
X690886Y-141951D01*
X690953Y-141990D01*
X691020Y-142019D01*
X691030D01*
X691049Y-142028D01*
X691087Y-142038D01*
X691155Y-142057D01*
X691241Y-142086D01*
X691366Y-142124D01*
X691520Y-142163D01*
X691606Y-142192D01*
X691712Y-142220D01*
X691722D01*
X691750Y-142230D01*
X691789Y-142240D01*
X691847Y-142259D01*
X691914Y-142278D01*
X691991Y-142297D01*
X692164Y-142345D01*
X692356Y-142403D01*
X692548Y-142470D01*
X692721Y-142528D01*
X692798Y-142557D01*
X692865Y-142586D01*
X692884Y-142595D01*
X692923Y-142614D01*
X692981Y-142643D01*
X693048Y-142682D01*
X693134Y-142739D01*
X693221Y-142816D01*
X693298Y-142893D01*
X693375Y-142989D01*
X693384Y-142999D01*
X693403Y-143037D01*
X693432Y-143095D01*
X693471Y-143172D01*
X693509Y-143268D01*
X693538Y-143383D01*
X693557Y-143508D01*
X693567Y-143652D01*
Y-143672D01*
Y-143720D01*
X693557Y-143797D01*
X693538Y-143883D01*
X693509Y-143998D01*
X693471Y-144123D01*
X693413Y-144248D01*
X693336Y-144383D01*
X693327Y-144402D01*
X693298Y-144440D01*
X693240Y-144498D01*
X693163Y-144575D01*
X693077Y-144661D01*
X692961Y-144748D01*
X692827Y-144834D01*
X692673Y-144911D01*
X692654Y-144921D01*
X692596Y-144940D01*
X692510Y-144969D01*
X692394Y-144998D01*
X692250Y-145036D01*
X692087Y-145065D01*
X691904Y-145084D01*
X691712Y-145094D01*
X691626D01*
X691568Y-145084D01*
X691491D01*
X691404Y-145075D01*
X691203Y-145046D01*
X690982Y-145007D01*
X690761Y-144940D01*
X690540Y-144854D01*
X690444Y-144796D01*
X690347Y-144729D01*
X690338D01*
X690328Y-144710D01*
X690271Y-144661D01*
X690194Y-144575D01*
X690098Y-144450D01*
X690001Y-144296D01*
X689905Y-144104D01*
X689819Y-143883D01*
X689761Y-143624D01*
X690530Y-143499D01*
Y-143508D01*
Y-143518D01*
X690540Y-143576D01*
X690568Y-143662D01*
X690597Y-143768D01*
X690645Y-143883D01*
X690703Y-143998D01*
X690790Y-144114D01*
X690886Y-144219D01*
X690895Y-144229D01*
X690943Y-144258D01*
X691011Y-144296D01*
X691097Y-144335D01*
X691222Y-144383D01*
X691357Y-144421D01*
X691530Y-144450D01*
X691712Y-144460D01*
X691798D01*
X691895Y-144450D01*
X692010Y-144431D01*
X692144Y-144412D01*
X692279Y-144373D01*
X692404Y-144316D01*
X692510Y-144248D01*
X692519Y-144239D01*
X692548Y-144210D01*
X692596Y-144162D01*
X692644Y-144104D01*
X692683Y-144027D01*
X692731Y-143931D01*
X692760Y-143835D01*
X692769Y-143729D01*
Y-143720D01*
Y-143681D01*
X692760Y-143643D01*
X692740Y-143576D01*
X692711Y-143518D01*
X692673Y-143441D01*
X692615Y-143374D01*
X692538Y-143316D01*
X692529Y-143306D01*
X692500Y-143297D01*
X692452Y-143278D01*
X692375Y-143239D01*
X692269Y-143210D01*
X692135Y-143162D01*
X692048Y-143133D01*
X691962Y-143114D01*
X691856Y-143085D01*
X691741Y-143057D01*
X691731D01*
X691702Y-143047D01*
X691664Y-143037D01*
X691606Y-143018D01*
X691530Y-142999D01*
X691453Y-142980D01*
X691270Y-142922D01*
X691078Y-142864D01*
X690876Y-142807D01*
X690693Y-142739D01*
X690617Y-142711D01*
X690549Y-142682D01*
X690540Y-142672D01*
X690492Y-142653D01*
X690434Y-142614D01*
X690367Y-142567D01*
X690280Y-142509D01*
X690203Y-142432D01*
X690117Y-142345D01*
X690050Y-142249D01*
X690040Y-142240D01*
X690021Y-142201D01*
X690001Y-142144D01*
X689973Y-142067D01*
X689934Y-141980D01*
X689915Y-141875D01*
X689896Y-141759D01*
X689886Y-141634D01*
Y-141625D01*
Y-141586D01*
X689896Y-141519D01*
X689905Y-141452D01*
X689915Y-141365D01*
X689944Y-141269D01*
X689973Y-141163D01*
X690021Y-141067D01*
X690030Y-141058D01*
X690050Y-141019D01*
X690078Y-140971D01*
X690126Y-140914D01*
X690174Y-140846D01*
X690242Y-140779D01*
X690319Y-140702D01*
X690405Y-140635D01*
X690415Y-140625D01*
X690444Y-140616D01*
X690482Y-140587D01*
X690540Y-140558D01*
X690607Y-140520D01*
X690693Y-140481D01*
X690790Y-140443D01*
X690895Y-140404D01*
X690914D01*
X690953Y-140385D01*
X691011Y-140375D01*
X691097Y-140356D01*
X691203Y-140337D01*
X691308Y-140327D01*
X691433Y-140308D01*
X691654D01*
X691760Y-140318D01*
D02*
G37*
G36*
X687301D02*
X687436Y-140327D01*
X687589Y-140347D01*
X687753Y-140366D01*
X687907Y-140404D01*
X688051Y-140452D01*
X688070Y-140462D01*
X688108Y-140471D01*
X688176Y-140510D01*
X688252Y-140548D01*
X688339Y-140596D01*
X688435Y-140654D01*
X688512Y-140721D01*
X688589Y-140798D01*
X688598Y-140808D01*
X688618Y-140837D01*
X688647Y-140875D01*
X688685Y-140942D01*
X688723Y-141019D01*
X688762Y-141106D01*
X688800Y-141211D01*
X688829Y-141327D01*
Y-141336D01*
X688839Y-141365D01*
X688848Y-141413D01*
X688858Y-141490D01*
Y-141586D01*
X688868Y-141711D01*
X688877Y-141855D01*
Y-142038D01*
Y-143076D01*
Y-143085D01*
Y-143124D01*
Y-143182D01*
Y-143249D01*
Y-143335D01*
Y-143431D01*
X688887Y-143652D01*
Y-143893D01*
X688896Y-144114D01*
X688906Y-144219D01*
Y-144306D01*
X688915Y-144383D01*
X688925Y-144450D01*
Y-144460D01*
X688935Y-144498D01*
X688944Y-144556D01*
X688964Y-144623D01*
X688992Y-144700D01*
X689031Y-144796D01*
X689117Y-144988D01*
X688310D01*
X688301Y-144979D01*
X688291Y-144950D01*
X688272Y-144892D01*
X688243Y-144825D01*
X688214Y-144738D01*
X688195Y-144642D01*
X688176Y-144536D01*
X688156Y-144412D01*
X688137Y-144431D01*
X688080Y-144469D01*
X688003Y-144536D01*
X687887Y-144613D01*
X687762Y-144710D01*
X687618Y-144796D01*
X687474Y-144873D01*
X687320Y-144940D01*
X687301Y-144950D01*
X687253Y-144959D01*
X687176Y-144988D01*
X687070Y-145017D01*
X686936Y-145046D01*
X686792Y-145065D01*
X686638Y-145084D01*
X686465Y-145094D01*
X686398D01*
X686340Y-145084D01*
X686282D01*
X686205Y-145075D01*
X686042Y-145046D01*
X685850Y-145007D01*
X685667Y-144940D01*
X685475Y-144854D01*
X685312Y-144729D01*
X685293Y-144710D01*
X685245Y-144661D01*
X685187Y-144585D01*
X685110Y-144469D01*
X685033Y-144335D01*
X684975Y-144181D01*
X684927Y-143989D01*
X684908Y-143787D01*
Y-143768D01*
Y-143729D01*
X684918Y-143662D01*
X684927Y-143585D01*
X684947Y-143489D01*
X684966Y-143383D01*
X685004Y-143278D01*
X685052Y-143172D01*
X685062Y-143162D01*
X685081Y-143124D01*
X685110Y-143076D01*
X685158Y-143008D01*
X685216Y-142941D01*
X685293Y-142864D01*
X685369Y-142797D01*
X685456Y-142730D01*
X685465Y-142720D01*
X685504Y-142701D01*
X685552Y-142672D01*
X685619Y-142634D01*
X685706Y-142586D01*
X685792Y-142547D01*
X685898Y-142509D01*
X686013Y-142470D01*
X686023D01*
X686061Y-142461D01*
X686109Y-142451D01*
X686186Y-142432D01*
X686282Y-142413D01*
X686407Y-142394D01*
X686542Y-142374D01*
X686705Y-142355D01*
X686715D01*
X686744Y-142345D01*
X686792D01*
X686859Y-142336D01*
X686936Y-142326D01*
X687022Y-142317D01*
X687234Y-142278D01*
X687455Y-142240D01*
X687685Y-142201D01*
X687907Y-142144D01*
X688003Y-142115D01*
X688089Y-142086D01*
Y-142076D01*
Y-142057D01*
X688099Y-141999D01*
Y-141932D01*
Y-141903D01*
Y-141884D01*
Y-141875D01*
Y-141865D01*
Y-141807D01*
X688089Y-141721D01*
X688070Y-141625D01*
X688041Y-141519D01*
X688003Y-141404D01*
X687955Y-141308D01*
X687878Y-141221D01*
X687868Y-141211D01*
X687820Y-141183D01*
X687753Y-141135D01*
X687657Y-141086D01*
X687532Y-141039D01*
X687378Y-140990D01*
X687195Y-140962D01*
X686994Y-140952D01*
X686907D01*
X686811Y-140962D01*
X686686Y-140971D01*
X686552Y-141000D01*
X686427Y-141029D01*
X686292Y-141077D01*
X686186Y-141144D01*
X686177Y-141154D01*
X686148Y-141183D01*
X686100Y-141231D01*
X686042Y-141298D01*
X685975Y-141394D01*
X685917Y-141509D01*
X685850Y-141654D01*
X685802Y-141817D01*
X685043Y-141711D01*
Y-141702D01*
X685052Y-141692D01*
X685062Y-141634D01*
X685091Y-141548D01*
X685120Y-141432D01*
X685168Y-141308D01*
X685225Y-141183D01*
X685293Y-141048D01*
X685379Y-140933D01*
X685389Y-140923D01*
X685427Y-140885D01*
X685475Y-140827D01*
X685552Y-140760D01*
X685648Y-140692D01*
X685773Y-140616D01*
X685908Y-140539D01*
X686061Y-140471D01*
X686071D01*
X686081Y-140462D01*
X686109Y-140452D01*
X686138Y-140443D01*
X686234Y-140424D01*
X686359Y-140385D01*
X686513Y-140356D01*
X686686Y-140337D01*
X686888Y-140318D01*
X687099Y-140308D01*
X687195D01*
X687301Y-140318D01*
D02*
G37*
G36*
X682121Y-138684D02*
X682275Y-138694D01*
X682438Y-138703D01*
X682592Y-138723D01*
X682727Y-138742D01*
X682746D01*
X682804Y-138761D01*
X682890Y-138780D01*
X682996Y-138809D01*
X683121Y-138847D01*
X683246Y-138895D01*
X683380Y-138963D01*
X683505Y-139040D01*
X683515Y-139049D01*
X683563Y-139078D01*
X683620Y-139126D01*
X683688Y-139193D01*
X683765Y-139280D01*
X683851Y-139386D01*
X683938Y-139501D01*
X684014Y-139645D01*
X684024Y-139664D01*
X684043Y-139712D01*
X684072Y-139789D01*
X684110Y-139895D01*
X684149Y-140020D01*
X684178Y-140164D01*
X684197Y-140327D01*
X684207Y-140500D01*
Y-140510D01*
Y-140539D01*
Y-140577D01*
X684197Y-140635D01*
X684187Y-140702D01*
X684178Y-140789D01*
X684168Y-140875D01*
X684139Y-140971D01*
X684082Y-141192D01*
X683986Y-141413D01*
X683928Y-141529D01*
X683861Y-141644D01*
X683784Y-141759D01*
X683688Y-141865D01*
X683678Y-141875D01*
X683659Y-141884D01*
X683630Y-141913D01*
X683592Y-141951D01*
X683524Y-141990D01*
X683457Y-142038D01*
X683371Y-142086D01*
X683265Y-142134D01*
X683149Y-142192D01*
X683015Y-142240D01*
X682861Y-142288D01*
X682698Y-142326D01*
X682506Y-142365D01*
X682304Y-142394D01*
X682083Y-142403D01*
X681843Y-142413D01*
X680228D01*
Y-144988D01*
X679392D01*
Y-138674D01*
X681977D01*
X682121Y-138684D01*
D02*
G37*
G36*
X651523D02*
X651590D01*
X651754Y-138694D01*
X651936Y-138723D01*
X652129Y-138751D01*
X652321Y-138799D01*
X652494Y-138867D01*
X652503D01*
X652513Y-138876D01*
X652570Y-138905D01*
X652647Y-138953D01*
X652743Y-139011D01*
X652859Y-139097D01*
X652974Y-139203D01*
X653080Y-139318D01*
X653186Y-139462D01*
X653195Y-139482D01*
X653224Y-139530D01*
X653262Y-139616D01*
X653310Y-139722D01*
X653359Y-139847D01*
X653397Y-139981D01*
X653426Y-140135D01*
X653435Y-140298D01*
Y-140318D01*
Y-140366D01*
X653426Y-140443D01*
X653407Y-140548D01*
X653378Y-140664D01*
X653339Y-140789D01*
X653291Y-140933D01*
X653214Y-141067D01*
X653205Y-141086D01*
X653176Y-141125D01*
X653118Y-141192D01*
X653051Y-141269D01*
X652955Y-141365D01*
X652840Y-141452D01*
X652705Y-141548D01*
X652542Y-141634D01*
X652551D01*
X652570Y-141644D01*
X652599Y-141654D01*
X652638Y-141663D01*
X652743Y-141711D01*
X652868Y-141769D01*
X653013Y-141855D01*
X653157Y-141951D01*
X653301Y-142067D01*
X653426Y-142211D01*
X653435Y-142230D01*
X653474Y-142278D01*
X653522Y-142365D01*
X653589Y-142480D01*
X653647Y-142624D01*
X653695Y-142778D01*
X653733Y-142961D01*
X653743Y-143162D01*
Y-143182D01*
Y-143239D01*
X653733Y-143326D01*
X653724Y-143431D01*
X653695Y-143556D01*
X653666Y-143701D01*
X653618Y-143845D01*
X653551Y-143989D01*
X653541Y-144008D01*
X653522Y-144056D01*
X653474Y-144123D01*
X653426Y-144210D01*
X653359Y-144306D01*
X653282Y-144402D01*
X653186Y-144498D01*
X653090Y-144585D01*
X653080Y-144594D01*
X653041Y-144613D01*
X652984Y-144652D01*
X652897Y-144700D01*
X652801Y-144748D01*
X652676Y-144796D01*
X652542Y-144844D01*
X652397Y-144892D01*
X652378D01*
X652321Y-144911D01*
X652234Y-144921D01*
X652119Y-144940D01*
X651965Y-144959D01*
X651792Y-144969D01*
X651600Y-144988D01*
X648976D01*
Y-138674D01*
X651456D01*
X651523Y-138684D01*
D02*
G37*
G36*
X695393Y-140414D02*
X696171D01*
Y-141019D01*
X695393D01*
Y-143701D01*
Y-143710D01*
Y-143748D01*
Y-143806D01*
X695402Y-143873D01*
X695412Y-144018D01*
X695422Y-144075D01*
X695431Y-144123D01*
X695441Y-144142D01*
X695460Y-144181D01*
X695498Y-144229D01*
X695556Y-144277D01*
X695575Y-144287D01*
X695623Y-144296D01*
X695710Y-144316D01*
X695825Y-144325D01*
X695921D01*
X695969Y-144316D01*
X696027D01*
X696171Y-144296D01*
X696277Y-144979D01*
X696258D01*
X696219Y-144988D01*
X696162Y-144998D01*
X696075Y-145007D01*
X695989Y-145027D01*
X695892Y-145036D01*
X695691Y-145046D01*
X695623D01*
X695546Y-145036D01*
X695450Y-145027D01*
X695345Y-145017D01*
X695229Y-144988D01*
X695124Y-144959D01*
X695027Y-144921D01*
X695018Y-144911D01*
X694989Y-144892D01*
X694951Y-144863D01*
X694903Y-144825D01*
X694845Y-144777D01*
X694797Y-144719D01*
X694739Y-144652D01*
X694701Y-144575D01*
Y-144565D01*
X694691Y-144527D01*
X694672Y-144469D01*
X694662Y-144373D01*
X694643Y-144248D01*
X694633Y-144181D01*
X694624Y-144095D01*
Y-143998D01*
X694614Y-143893D01*
Y-143777D01*
Y-143652D01*
Y-141019D01*
X694038D01*
Y-140414D01*
X694614D01*
Y-139289D01*
X695393Y-138819D01*
Y-140414D01*
D02*
G37*
G36*
X663055D02*
X663833D01*
Y-141019D01*
X663055D01*
Y-143701D01*
Y-143710D01*
Y-143748D01*
Y-143806D01*
X663065Y-143873D01*
X663074Y-144018D01*
X663084Y-144075D01*
X663094Y-144123D01*
X663103Y-144142D01*
X663122Y-144181D01*
X663161Y-144229D01*
X663218Y-144277D01*
X663238Y-144287D01*
X663286Y-144296D01*
X663372Y-144316D01*
X663487Y-144325D01*
X663584D01*
X663632Y-144316D01*
X663689D01*
X663833Y-144296D01*
X663939Y-144979D01*
X663920D01*
X663881Y-144988D01*
X663824Y-144998D01*
X663737Y-145007D01*
X663651Y-145027D01*
X663555Y-145036D01*
X663353Y-145046D01*
X663286D01*
X663209Y-145036D01*
X663113Y-145027D01*
X663007Y-145017D01*
X662892Y-144988D01*
X662786Y-144959D01*
X662690Y-144921D01*
X662680Y-144911D01*
X662651Y-144892D01*
X662613Y-144863D01*
X662565Y-144825D01*
X662507Y-144777D01*
X662459Y-144719D01*
X662402Y-144652D01*
X662363Y-144575D01*
Y-144565D01*
X662354Y-144527D01*
X662334Y-144469D01*
X662325Y-144373D01*
X662305Y-144248D01*
X662296Y-144181D01*
X662286Y-144095D01*
Y-143998D01*
X662277Y-143893D01*
Y-143777D01*
Y-143652D01*
Y-141019D01*
X661700D01*
Y-140414D01*
X662277D01*
Y-139289D01*
X663055Y-138819D01*
Y-140414D01*
D02*
G37*
G36*
X660604D02*
X661383D01*
Y-141019D01*
X660604D01*
Y-143701D01*
Y-143710D01*
Y-143748D01*
Y-143806D01*
X660614Y-143873D01*
X660624Y-144018D01*
X660633Y-144075D01*
X660643Y-144123D01*
X660652Y-144142D01*
X660672Y-144181D01*
X660710Y-144229D01*
X660768Y-144277D01*
X660787Y-144287D01*
X660835Y-144296D01*
X660922Y-144316D01*
X661037Y-144325D01*
X661133D01*
X661181Y-144316D01*
X661239D01*
X661383Y-144296D01*
X661489Y-144979D01*
X661469D01*
X661431Y-144988D01*
X661373Y-144998D01*
X661287Y-145007D01*
X661200Y-145027D01*
X661104Y-145036D01*
X660902Y-145046D01*
X660835D01*
X660758Y-145036D01*
X660662Y-145027D01*
X660556Y-145017D01*
X660441Y-144988D01*
X660335Y-144959D01*
X660239Y-144921D01*
X660230Y-144911D01*
X660201Y-144892D01*
X660162Y-144863D01*
X660114Y-144825D01*
X660057Y-144777D01*
X660009Y-144719D01*
X659951Y-144652D01*
X659913Y-144575D01*
Y-144565D01*
X659903Y-144527D01*
X659884Y-144469D01*
X659874Y-144373D01*
X659855Y-144248D01*
X659845Y-144181D01*
X659836Y-144095D01*
Y-143998D01*
X659826Y-143893D01*
Y-143777D01*
Y-143652D01*
Y-141019D01*
X659249D01*
Y-140414D01*
X659826D01*
Y-139289D01*
X660604Y-138819D01*
Y-140414D01*
D02*
G37*
G36*
X698958Y-140318D02*
X699035Y-140327D01*
X699131Y-140337D01*
X699227Y-140356D01*
X699342Y-140385D01*
X699573Y-140462D01*
X699698Y-140510D01*
X699823Y-140577D01*
X699948Y-140645D01*
X700073Y-140731D01*
X700188Y-140827D01*
X700303Y-140942D01*
X700313Y-140952D01*
X700332Y-140971D01*
X700361Y-141010D01*
X700399Y-141058D01*
X700438Y-141125D01*
X700486Y-141202D01*
X700544Y-141288D01*
X700601Y-141394D01*
X700649Y-141519D01*
X700707Y-141644D01*
X700755Y-141788D01*
X700803Y-141951D01*
X700832Y-142115D01*
X700861Y-142297D01*
X700880Y-142490D01*
X700890Y-142701D01*
Y-142711D01*
Y-142749D01*
Y-142816D01*
X700880Y-142903D01*
X697478D01*
Y-142912D01*
Y-142932D01*
X697488Y-142980D01*
Y-143028D01*
X697497Y-143095D01*
X697507Y-143162D01*
X697545Y-143335D01*
X697603Y-143518D01*
X697670Y-143710D01*
X697776Y-143902D01*
X697901Y-144066D01*
X697920Y-144085D01*
X697968Y-144123D01*
X698055Y-144191D01*
X698160Y-144258D01*
X698305Y-144335D01*
X698468Y-144402D01*
X698651Y-144440D01*
X698852Y-144460D01*
X698929D01*
X699006Y-144450D01*
X699102Y-144431D01*
X699218Y-144402D01*
X699342Y-144364D01*
X699467Y-144316D01*
X699583Y-144239D01*
X699592Y-144229D01*
X699631Y-144191D01*
X699688Y-144142D01*
X699756Y-144056D01*
X699832Y-143960D01*
X699909Y-143835D01*
X699986Y-143681D01*
X700063Y-143508D01*
X700861Y-143614D01*
Y-143624D01*
X700851Y-143643D01*
X700842Y-143681D01*
X700822Y-143729D01*
X700803Y-143787D01*
X700774Y-143854D01*
X700697Y-144018D01*
X700601Y-144191D01*
X700486Y-144373D01*
X700332Y-144556D01*
X700159Y-144710D01*
X700150D01*
X700140Y-144729D01*
X700111Y-144748D01*
X700063Y-144767D01*
X700015Y-144796D01*
X699957Y-144834D01*
X699890Y-144863D01*
X699804Y-144902D01*
X699621Y-144969D01*
X699390Y-145036D01*
X699141Y-145075D01*
X698852Y-145094D01*
X698756D01*
X698689Y-145084D01*
X698602Y-145075D01*
X698506Y-145065D01*
X698401Y-145046D01*
X698276Y-145017D01*
X698026Y-144940D01*
X697891Y-144892D01*
X697766Y-144834D01*
X697632Y-144767D01*
X697507Y-144681D01*
X697382Y-144585D01*
X697267Y-144479D01*
X697257Y-144469D01*
X697238Y-144450D01*
X697209Y-144412D01*
X697180Y-144364D01*
X697132Y-144306D01*
X697084Y-144229D01*
X697026Y-144133D01*
X696978Y-144027D01*
X696921Y-143912D01*
X696863Y-143787D01*
X696815Y-143643D01*
X696776Y-143489D01*
X696738Y-143326D01*
X696709Y-143143D01*
X696690Y-142951D01*
X696680Y-142749D01*
Y-142739D01*
Y-142701D01*
Y-142634D01*
X696690Y-142557D01*
X696700Y-142461D01*
X696709Y-142345D01*
X696729Y-142220D01*
X696757Y-142086D01*
X696825Y-141798D01*
X696873Y-141654D01*
X696930Y-141500D01*
X696997Y-141356D01*
X697074Y-141211D01*
X697161Y-141077D01*
X697267Y-140952D01*
X697276Y-140942D01*
X697296Y-140923D01*
X697324Y-140894D01*
X697372Y-140846D01*
X697430Y-140798D01*
X697507Y-140750D01*
X697584Y-140692D01*
X697680Y-140625D01*
X697786Y-140568D01*
X697901Y-140510D01*
X698026Y-140462D01*
X698170Y-140404D01*
X698314Y-140366D01*
X698468Y-140337D01*
X698631Y-140318D01*
X698804Y-140308D01*
X698891D01*
X698958Y-140318D01*
D02*
G37*
G36*
X666601D02*
X666688Y-140327D01*
X666774Y-140337D01*
X666880Y-140356D01*
X666995Y-140385D01*
X667235Y-140462D01*
X667360Y-140510D01*
X667495Y-140568D01*
X667620Y-140645D01*
X667745Y-140731D01*
X667870Y-140827D01*
X667985Y-140933D01*
X667995Y-140942D01*
X668014Y-140962D01*
X668043Y-141000D01*
X668081Y-141048D01*
X668129Y-141106D01*
X668177Y-141183D01*
X668235Y-141279D01*
X668293Y-141375D01*
X668340Y-141490D01*
X668398Y-141625D01*
X668446Y-141759D01*
X668494Y-141913D01*
X668533Y-142076D01*
X668562Y-142259D01*
X668581Y-142442D01*
X668590Y-142643D01*
Y-142653D01*
Y-142682D01*
Y-142730D01*
Y-142788D01*
X668581Y-142864D01*
Y-142951D01*
X668571Y-143047D01*
X668562Y-143153D01*
X668523Y-143374D01*
X668475Y-143604D01*
X668408Y-143835D01*
X668321Y-144037D01*
Y-144046D01*
X668312Y-144056D01*
X668273Y-144123D01*
X668206Y-144210D01*
X668119Y-144325D01*
X668014Y-144450D01*
X667879Y-144575D01*
X667726Y-144700D01*
X667543Y-144815D01*
X667533D01*
X667524Y-144825D01*
X667495Y-144844D01*
X667456Y-144854D01*
X667351Y-144902D01*
X667216Y-144950D01*
X667053Y-145007D01*
X666870Y-145046D01*
X666668Y-145084D01*
X666447Y-145094D01*
X666351D01*
X666284Y-145084D01*
X666207Y-145075D01*
X666111Y-145065D01*
X666005Y-145046D01*
X665890Y-145017D01*
X665650Y-144940D01*
X665515Y-144892D01*
X665390Y-144834D01*
X665256Y-144767D01*
X665131Y-144681D01*
X665006Y-144585D01*
X664890Y-144479D01*
X664881Y-144469D01*
X664862Y-144450D01*
X664833Y-144412D01*
X664804Y-144364D01*
X664756Y-144296D01*
X664708Y-144219D01*
X664650Y-144133D01*
X664602Y-144027D01*
X664545Y-143902D01*
X664487Y-143777D01*
X664439Y-143624D01*
X664400Y-143470D01*
X664362Y-143297D01*
X664333Y-143114D01*
X664314Y-142912D01*
X664304Y-142701D01*
Y-142682D01*
Y-142643D01*
X664314Y-142576D01*
Y-142490D01*
X664324Y-142384D01*
X664343Y-142269D01*
X664362Y-142134D01*
X664391Y-141990D01*
X664429Y-141836D01*
X664477Y-141682D01*
X664535Y-141529D01*
X664602Y-141375D01*
X664679Y-141221D01*
X664775Y-141077D01*
X664881Y-140942D01*
X665006Y-140817D01*
X665016Y-140808D01*
X665035Y-140798D01*
X665063Y-140769D01*
X665112Y-140741D01*
X665169Y-140702D01*
X665237Y-140654D01*
X665313Y-140606D01*
X665410Y-140558D01*
X665506Y-140520D01*
X665611Y-140471D01*
X665861Y-140385D01*
X666140Y-140327D01*
X666294Y-140318D01*
X666447Y-140308D01*
X666534D01*
X666601Y-140318D01*
D02*
G37*
G36*
X656799D02*
X656885Y-140327D01*
X656972Y-140337D01*
X657078Y-140356D01*
X657193Y-140385D01*
X657433Y-140462D01*
X657558Y-140510D01*
X657693Y-140568D01*
X657818Y-140645D01*
X657942Y-140731D01*
X658067Y-140827D01*
X658183Y-140933D01*
X658192Y-140942D01*
X658212Y-140962D01*
X658240Y-141000D01*
X658279Y-141048D01*
X658327Y-141106D01*
X658375Y-141183D01*
X658433Y-141279D01*
X658490Y-141375D01*
X658538Y-141490D01*
X658596Y-141625D01*
X658644Y-141759D01*
X658692Y-141913D01*
X658731Y-142076D01*
X658759Y-142259D01*
X658779Y-142442D01*
X658788Y-142643D01*
Y-142653D01*
Y-142682D01*
Y-142730D01*
Y-142788D01*
X658779Y-142864D01*
Y-142951D01*
X658769Y-143047D01*
X658759Y-143153D01*
X658721Y-143374D01*
X658673Y-143604D01*
X658606Y-143835D01*
X658519Y-144037D01*
Y-144046D01*
X658509Y-144056D01*
X658471Y-144123D01*
X658404Y-144210D01*
X658317Y-144325D01*
X658212Y-144450D01*
X658077Y-144575D01*
X657923Y-144700D01*
X657741Y-144815D01*
X657731D01*
X657722Y-144825D01*
X657693Y-144844D01*
X657654Y-144854D01*
X657549Y-144902D01*
X657414Y-144950D01*
X657251Y-145007D01*
X657068Y-145046D01*
X656866Y-145084D01*
X656645Y-145094D01*
X656549D01*
X656482Y-145084D01*
X656405Y-145075D01*
X656309Y-145065D01*
X656203Y-145046D01*
X656088Y-145017D01*
X655848Y-144940D01*
X655713Y-144892D01*
X655588Y-144834D01*
X655453Y-144767D01*
X655329Y-144681D01*
X655204Y-144585D01*
X655088Y-144479D01*
X655079Y-144469D01*
X655059Y-144450D01*
X655031Y-144412D01*
X655002Y-144364D01*
X654954Y-144296D01*
X654906Y-144219D01*
X654848Y-144133D01*
X654800Y-144027D01*
X654742Y-143902D01*
X654685Y-143777D01*
X654637Y-143624D01*
X654598Y-143470D01*
X654560Y-143297D01*
X654531Y-143114D01*
X654512Y-142912D01*
X654502Y-142701D01*
Y-142682D01*
Y-142643D01*
X654512Y-142576D01*
Y-142490D01*
X654521Y-142384D01*
X654541Y-142269D01*
X654560Y-142134D01*
X654589Y-141990D01*
X654627Y-141836D01*
X654675Y-141682D01*
X654733Y-141529D01*
X654800Y-141375D01*
X654877Y-141221D01*
X654973Y-141077D01*
X655079Y-140942D01*
X655204Y-140817D01*
X655213Y-140808D01*
X655232Y-140798D01*
X655261Y-140769D01*
X655309Y-140741D01*
X655367Y-140702D01*
X655434Y-140654D01*
X655511Y-140606D01*
X655607Y-140558D01*
X655703Y-140520D01*
X655809Y-140471D01*
X656059Y-140385D01*
X656338Y-140327D01*
X656491Y-140318D01*
X656645Y-140308D01*
X656732D01*
X656799Y-140318D01*
D02*
G37*
%LPC*%
G36*
X688089Y-142691D02*
X688070Y-142701D01*
X688041Y-142711D01*
X688012Y-142720D01*
X687964Y-142739D01*
X687907Y-142749D01*
X687849Y-142768D01*
X687772Y-142797D01*
X687685Y-142816D01*
X687589Y-142836D01*
X687493Y-142864D01*
X687378Y-142893D01*
X687253Y-142912D01*
X687118Y-142941D01*
X686974Y-142961D01*
X686821Y-142989D01*
X686801D01*
X686744Y-142999D01*
X686657Y-143018D01*
X686552Y-143037D01*
X686331Y-143085D01*
X686225Y-143114D01*
X686138Y-143143D01*
X686129D01*
X686109Y-143162D01*
X686071Y-143182D01*
X686032Y-143210D01*
X685936Y-143287D01*
X685840Y-143403D01*
Y-143412D01*
X685821Y-143431D01*
X685812Y-143460D01*
X685792Y-143508D01*
X685754Y-143624D01*
X685744Y-143691D01*
X685735Y-143768D01*
Y-143777D01*
Y-143816D01*
X685744Y-143873D01*
X685764Y-143950D01*
X685792Y-144027D01*
X685831Y-144114D01*
X685888Y-144200D01*
X685965Y-144287D01*
X685975Y-144296D01*
X686013Y-144316D01*
X686061Y-144354D01*
X686138Y-144383D01*
X686234Y-144421D01*
X686359Y-144460D01*
X686494Y-144479D01*
X686657Y-144489D01*
X686734D01*
X686811Y-144479D01*
X686926Y-144460D01*
X687042Y-144440D01*
X687176Y-144412D01*
X687311Y-144364D01*
X687445Y-144296D01*
X687464Y-144287D01*
X687503Y-144258D01*
X687570Y-144219D01*
X687647Y-144152D01*
X687724Y-144085D01*
X687810Y-143989D01*
X687897Y-143883D01*
X687964Y-143758D01*
X687974Y-143748D01*
X687983Y-143710D01*
X688003Y-143652D01*
X688031Y-143566D01*
X688051Y-143451D01*
X688070Y-143316D01*
X688080Y-143162D01*
X688089Y-142980D01*
Y-142691D01*
D02*
G37*
G36*
X682025Y-139414D02*
X680228D01*
Y-141673D01*
X681929D01*
X681987Y-141663D01*
X682054D01*
X682121Y-141654D01*
X682294Y-141634D01*
X682486Y-141596D01*
X682679Y-141548D01*
X682852Y-141471D01*
X682929Y-141423D01*
X682996Y-141375D01*
X683015Y-141365D01*
X683053Y-141317D01*
X683102Y-141250D01*
X683169Y-141154D01*
X683236Y-141039D01*
X683284Y-140894D01*
X683322Y-140721D01*
X683342Y-140529D01*
Y-140510D01*
Y-140462D01*
X683332Y-140385D01*
X683313Y-140289D01*
X683294Y-140183D01*
X683255Y-140068D01*
X683207Y-139953D01*
X683140Y-139847D01*
X683130Y-139837D01*
X683102Y-139799D01*
X683063Y-139751D01*
X682996Y-139693D01*
X682919Y-139635D01*
X682832Y-139568D01*
X682727Y-139520D01*
X682611Y-139472D01*
X682602D01*
X682573Y-139462D01*
X682515Y-139453D01*
X682438Y-139443D01*
X682333Y-139434D01*
X682198Y-139424D01*
X682025Y-139414D01*
D02*
G37*
G36*
X651302D02*
X649812D01*
Y-141336D01*
X651360D01*
X651475Y-141327D01*
X651610Y-141317D01*
X651744Y-141308D01*
X651859Y-141288D01*
X651965Y-141269D01*
X651975Y-141260D01*
X652013Y-141250D01*
X652071Y-141231D01*
X652148Y-141192D01*
X652225Y-141154D01*
X652301Y-141096D01*
X652378Y-141029D01*
X652446Y-140952D01*
X652455Y-140942D01*
X652474Y-140914D01*
X652494Y-140866D01*
X652532Y-140798D01*
X652561Y-140721D01*
X652580Y-140625D01*
X652599Y-140520D01*
X652609Y-140395D01*
Y-140385D01*
Y-140337D01*
X652599Y-140279D01*
X652590Y-140202D01*
X652570Y-140116D01*
X652542Y-140029D01*
X652503Y-139933D01*
X652455Y-139837D01*
X652446Y-139828D01*
X652426Y-139799D01*
X652388Y-139760D01*
X652340Y-139703D01*
X652282Y-139655D01*
X652205Y-139597D01*
X652119Y-139549D01*
X652023Y-139511D01*
X652013D01*
X651965Y-139491D01*
X651898Y-139482D01*
X651802Y-139462D01*
X651667Y-139443D01*
X651504Y-139434D01*
X651302Y-139414D01*
D02*
G37*
G36*
X651475Y-142076D02*
X649812D01*
Y-144248D01*
X651600D01*
X651792Y-144239D01*
X651879Y-144229D01*
X651946Y-144219D01*
X651956D01*
X651994Y-144210D01*
X652052Y-144200D01*
X652119Y-144181D01*
X652273Y-144133D01*
X652426Y-144056D01*
X652436Y-144046D01*
X652465Y-144037D01*
X652494Y-144008D01*
X652542Y-143960D01*
X652599Y-143912D01*
X652647Y-143854D01*
X652705Y-143777D01*
X652753Y-143701D01*
X652763Y-143691D01*
X652772Y-143662D01*
X652792Y-143614D01*
X652820Y-143547D01*
X652840Y-143470D01*
X652859Y-143374D01*
X652868Y-143278D01*
X652878Y-143162D01*
Y-143143D01*
Y-143105D01*
X652868Y-143037D01*
X652859Y-142961D01*
X652830Y-142864D01*
X652801Y-142759D01*
X652753Y-142653D01*
X652686Y-142557D01*
X652676Y-142547D01*
X652657Y-142509D01*
X652609Y-142470D01*
X652551Y-142413D01*
X652484Y-142345D01*
X652397Y-142288D01*
X652301Y-142230D01*
X652186Y-142182D01*
X652167Y-142173D01*
X652129Y-142163D01*
X652052Y-142144D01*
X651956Y-142124D01*
X651821Y-142105D01*
X651667Y-142096D01*
X651475Y-142076D01*
D02*
G37*
G36*
X698814Y-140942D02*
X698766D01*
X698727Y-140952D01*
X698622Y-140962D01*
X698497Y-140990D01*
X698353Y-141029D01*
X698208Y-141096D01*
X698055Y-141183D01*
X697910Y-141308D01*
X697891Y-141327D01*
X697853Y-141375D01*
X697795Y-141452D01*
X697728Y-141567D01*
X697661Y-141702D01*
X697593Y-141865D01*
X697545Y-142057D01*
X697516Y-142269D01*
X700073D01*
Y-142259D01*
Y-142240D01*
X700063Y-142211D01*
Y-142173D01*
X700044Y-142067D01*
X700015Y-141942D01*
X699977Y-141807D01*
X699919Y-141663D01*
X699861Y-141519D01*
X699775Y-141404D01*
Y-141394D01*
X699756Y-141384D01*
X699708Y-141327D01*
X699621Y-141260D01*
X699515Y-141173D01*
X699371Y-141086D01*
X699208Y-141010D01*
X699025Y-140962D01*
X698919Y-140952D01*
X698814Y-140942D01*
D02*
G37*
G36*
X666553Y-140952D02*
X666390D01*
X666351Y-140962D01*
X666246Y-140971D01*
X666111Y-141010D01*
X665957Y-141058D01*
X665794Y-141135D01*
X665630Y-141250D01*
X665554Y-141317D01*
X665477Y-141394D01*
X665457Y-141413D01*
X665438Y-141442D01*
X665419Y-141471D01*
X665390Y-141519D01*
X665361Y-141577D01*
X665323Y-141644D01*
X665294Y-141721D01*
X665256Y-141807D01*
X665217Y-141903D01*
X665189Y-142009D01*
X665160Y-142134D01*
X665140Y-142259D01*
X665121Y-142403D01*
X665102Y-142547D01*
Y-142711D01*
Y-142720D01*
Y-142749D01*
Y-142797D01*
X665112Y-142855D01*
Y-142922D01*
X665121Y-143008D01*
X665150Y-143201D01*
X665198Y-143412D01*
X665256Y-143633D01*
X665352Y-143845D01*
X665410Y-143941D01*
X665477Y-144027D01*
X665496Y-144046D01*
X665544Y-144095D01*
X665630Y-144162D01*
X665746Y-144239D01*
X665880Y-144325D01*
X666053Y-144392D01*
X666236Y-144440D01*
X666342Y-144450D01*
X666447Y-144460D01*
X666505D01*
X666543Y-144450D01*
X666649Y-144440D01*
X666784Y-144402D01*
X666937Y-144354D01*
X667101Y-144277D01*
X667255Y-144171D01*
X667332Y-144104D01*
X667408Y-144027D01*
Y-144018D01*
X667428Y-144008D01*
X667447Y-143979D01*
X667466Y-143941D01*
X667495Y-143893D01*
X667533Y-143835D01*
X667562Y-143768D01*
X667601Y-143691D01*
X667639Y-143604D01*
X667668Y-143508D01*
X667706Y-143393D01*
X667735Y-143268D01*
X667754Y-143143D01*
X667773Y-142999D01*
X667793Y-142845D01*
Y-142682D01*
Y-142672D01*
Y-142643D01*
Y-142605D01*
X667783Y-142538D01*
Y-142470D01*
X667773Y-142394D01*
X667745Y-142201D01*
X667697Y-141999D01*
X667629Y-141779D01*
X667533Y-141577D01*
X667399Y-141394D01*
Y-141384D01*
X667380Y-141375D01*
X667332Y-141327D01*
X667245Y-141250D01*
X667139Y-141173D01*
X666995Y-141096D01*
X666832Y-141019D01*
X666649Y-140971D01*
X666553Y-140952D01*
D02*
G37*
G36*
X656751D02*
X656588D01*
X656549Y-140962D01*
X656443Y-140971D01*
X656309Y-141010D01*
X656155Y-141058D01*
X655992Y-141135D01*
X655828Y-141250D01*
X655751Y-141317D01*
X655675Y-141394D01*
X655655Y-141413D01*
X655636Y-141442D01*
X655617Y-141471D01*
X655588Y-141519D01*
X655559Y-141577D01*
X655521Y-141644D01*
X655492Y-141721D01*
X655453Y-141807D01*
X655415Y-141903D01*
X655386Y-142009D01*
X655357Y-142134D01*
X655338Y-142259D01*
X655319Y-142403D01*
X655300Y-142547D01*
Y-142711D01*
Y-142720D01*
Y-142749D01*
Y-142797D01*
X655309Y-142855D01*
Y-142922D01*
X655319Y-143008D01*
X655348Y-143201D01*
X655396Y-143412D01*
X655453Y-143633D01*
X655550Y-143845D01*
X655607Y-143941D01*
X655675Y-144027D01*
X655694Y-144046D01*
X655742Y-144095D01*
X655828Y-144162D01*
X655944Y-144239D01*
X656078Y-144325D01*
X656251Y-144392D01*
X656434Y-144440D01*
X656539Y-144450D01*
X656645Y-144460D01*
X656703D01*
X656741Y-144450D01*
X656847Y-144440D01*
X656982Y-144402D01*
X657135Y-144354D01*
X657299Y-144277D01*
X657452Y-144171D01*
X657529Y-144104D01*
X657606Y-144027D01*
Y-144018D01*
X657625Y-144008D01*
X657645Y-143979D01*
X657664Y-143941D01*
X657693Y-143893D01*
X657731Y-143835D01*
X657760Y-143768D01*
X657798Y-143691D01*
X657837Y-143604D01*
X657866Y-143508D01*
X657904Y-143393D01*
X657933Y-143268D01*
X657952Y-143143D01*
X657971Y-142999D01*
X657991Y-142845D01*
Y-142682D01*
Y-142672D01*
Y-142643D01*
Y-142605D01*
X657981Y-142538D01*
Y-142470D01*
X657971Y-142394D01*
X657942Y-142201D01*
X657895Y-141999D01*
X657827Y-141779D01*
X657731Y-141577D01*
X657597Y-141394D01*
Y-141384D01*
X657577Y-141375D01*
X657529Y-141327D01*
X657443Y-141250D01*
X657337Y-141173D01*
X657193Y-141096D01*
X657030Y-141019D01*
X656847Y-140971D01*
X656751Y-140952D01*
D02*
G37*
%LPD*%
D10*
X14449Y349882D02*
G03*
X45Y335005I609J-15002D01*
G01*
X326575Y341220D02*
G03*
X314724Y349882I-12571J-4763D01*
G01*
X326575Y341339D02*
G03*
X338898Y331928I13326J4677D01*
G01*
X361631Y319611D02*
G03*
X349410Y331906I-12330J-35D01*
G01*
X339435Y14356D02*
G03*
X327284Y8150I-253J-14503D01*
G01*
X348242Y14356D02*
G03*
X361631Y27953I-102J13490D01*
G01*
X311967Y-72D02*
G03*
X327284Y8150I575J17307D01*
G01*
X29278Y2252D02*
G03*
X34488Y-72I4950J4095D01*
G01*
X29278Y2252D02*
G03*
X21524Y6947I-10086J-7908D01*
G01*
X39Y18032D02*
G03*
X11317Y6947I11796J722D01*
G01*
X39Y18032D02*
Y334880D01*
X14449Y349882D02*
X16575D01*
X314724D01*
X338898Y331928D02*
X349301D01*
X361631Y27953D02*
X361631Y319611D01*
X339181Y14356D02*
X348242D01*
X34488Y-72D02*
X311967Y-72D01*
X11317Y6947D02*
X21524D01*
D29*
X61342Y107819D02*
D03*
Y102820D02*
D03*
Y97820D02*
D03*
Y92819D02*
D03*
X36913Y107819D02*
D03*
Y102820D02*
D03*
Y97820D02*
D03*
Y92819D02*
D03*
X61342Y83449D02*
D03*
Y78449D02*
D03*
Y73449D02*
D03*
Y68449D02*
D03*
X36913Y83449D02*
D03*
Y78449D02*
D03*
Y73449D02*
D03*
Y68449D02*
D03*
D42*
X188134Y65969D02*
D03*
X175535D02*
D03*
X175890Y128804D02*
D03*
X188488D02*
D03*
X175535Y47111D02*
D03*
X188134D02*
D03*
D45*
X288113Y127016D02*
D03*
Y119016D02*
D03*
X219149Y234937D02*
D03*
Y242937D02*
D03*
X226953Y64331D02*
D03*
Y72331D02*
D03*
X220181Y99056D02*
D03*
Y107056D02*
D03*
X64275Y261938D02*
D03*
Y253938D02*
D03*
X298543Y160606D02*
D03*
Y168606D02*
D03*
Y136787D02*
D03*
Y144787D02*
D03*
D46*
X78705Y274197D02*
D03*
X71421D02*
D03*
X201516Y21378D02*
D03*
X208799D02*
D03*
X238586Y253961D02*
D03*
X245870D02*
D03*
D47*
X116715Y95157D02*
D03*
X130215D02*
D03*
X144726Y185969D02*
D03*
X131226D02*
D03*
X94372D02*
D03*
X80872D02*
D03*
D48*
X267898Y97524D02*
D03*
Y104808D02*
D03*
X223803Y82564D02*
D03*
Y89847D02*
D03*
X89197Y257327D02*
D03*
Y250044D02*
D03*
X91165Y303784D02*
D03*
Y296501D02*
D03*
X160417Y303115D02*
D03*
Y295831D02*
D03*
X6559Y304690D02*
D03*
Y297406D02*
D03*
X7071Y258351D02*
D03*
Y251067D02*
D03*
X156475Y257001D02*
D03*
Y249717D02*
D03*
D49*
X280906Y256260D02*
D03*
X275394D02*
D03*
X136874Y151166D02*
D03*
X142386D02*
D03*
X92110Y176323D02*
D03*
X86598D02*
D03*
X92110Y157924D02*
D03*
X86598D02*
D03*
X250496Y210497D02*
D03*
X256008D02*
D03*
X238212Y212938D02*
D03*
X243724D02*
D03*
X296480Y187623D02*
D03*
X301992D02*
D03*
X77149Y267938D02*
D03*
X71638D02*
D03*
X50968Y283843D02*
D03*
X45457D02*
D03*
X26047Y282820D02*
D03*
X20535D02*
D03*
X52583Y239276D02*
D03*
X47071D02*
D03*
X28606Y235733D02*
D03*
X23094D02*
D03*
X137346Y284552D02*
D03*
X131835D02*
D03*
X112346Y282229D02*
D03*
X106835D02*
D03*
X24551Y204394D02*
D03*
X19039D02*
D03*
X135535Y237820D02*
D03*
X130024D02*
D03*
X110732Y235379D02*
D03*
X105220D02*
D03*
X206480Y283371D02*
D03*
X200968D02*
D03*
X181795Y281599D02*
D03*
X176283D02*
D03*
X194118Y236835D02*
D03*
X199630D02*
D03*
X180654Y235339D02*
D03*
X175142D02*
D03*
X122819Y328686D02*
D03*
X128331D02*
D03*
X60614Y325575D02*
D03*
X66126D02*
D03*
X26520Y223174D02*
D03*
X21008D02*
D03*
X177346Y328331D02*
D03*
X182858D02*
D03*
X230575Y323725D02*
D03*
X236087D02*
D03*
X234472Y343607D02*
D03*
X228961D02*
D03*
X254118Y125497D02*
D03*
X259630D02*
D03*
D50*
X275457Y76717D02*
D03*
Y89316D02*
D03*
X204433Y94985D02*
D03*
Y107583D02*
D03*
D51*
X143331Y136835D02*
D03*
X159079D02*
D03*
X155732Y196166D02*
D03*
X139984D02*
D03*
D54*
X275455Y289528D02*
D03*
X280455D02*
D03*
X285455D02*
D03*
X290456D02*
D03*
X275455Y265098D02*
D03*
X280455D02*
D03*
X285455D02*
D03*
X290456D02*
D03*
X130850Y115044D02*
D03*
X125850D02*
D03*
X120850D02*
D03*
X115850D02*
D03*
X130850Y139473D02*
D03*
X125850D02*
D03*
X120850D02*
D03*
X115850D02*
D03*
D56*
X181228Y288287D02*
D03*
X173228D02*
D03*
X288835Y88543D02*
D03*
X296835D02*
D03*
X187480Y218150D02*
D03*
X195480D02*
D03*
X231984Y312795D02*
D03*
X239984D02*
D03*
X111610Y289434D02*
D03*
X103610D02*
D03*
X110835Y241929D02*
D03*
X102835D02*
D03*
X181165Y242052D02*
D03*
X173165D02*
D03*
X303386Y106330D02*
D03*
X311386D02*
D03*
X303386Y96724D02*
D03*
X311386D02*
D03*
X299572Y265354D02*
D03*
X307572D02*
D03*
X299572Y255315D02*
D03*
X307572D02*
D03*
X299572Y245709D02*
D03*
X307572D02*
D03*
X320764Y35157D02*
D03*
X328764D02*
D03*
X298247Y126378D02*
D03*
X306247D02*
D03*
X25653Y289370D02*
D03*
X17653D02*
D03*
X20551Y242618D02*
D03*
X28551D02*
D03*
D57*
X148825Y163976D02*
D03*
X154325D02*
D03*
X86993Y153128D02*
D03*
X92493D02*
D03*
Y166927D02*
D03*
X86993D02*
D03*
X160526Y159129D02*
D03*
X155026D02*
D03*
X142537Y146442D02*
D03*
X137037D02*
D03*
X92493Y148528D02*
D03*
X86993D02*
D03*
X92493Y162327D02*
D03*
X86993D02*
D03*
X150104Y168504D02*
D03*
X155604D02*
D03*
X86993Y171527D02*
D03*
X92493D02*
D03*
X151089Y174337D02*
D03*
X156589D02*
D03*
X201289Y31166D02*
D03*
X206789D02*
D03*
X151187Y178839D02*
D03*
X156687D02*
D03*
X302786Y277362D02*
D03*
X297286D02*
D03*
X302786Y282575D02*
D03*
X297286D02*
D03*
X296447Y179079D02*
D03*
X301947D02*
D03*
X175268Y159730D02*
D03*
X169768D02*
D03*
Y154232D02*
D03*
X175268D02*
D03*
D59*
X256063Y21496D02*
D03*
X282205Y333819D02*
D03*
X12362Y46811D02*
D03*
D119*
X212428Y154499D02*
D03*
X206999Y160206D02*
D03*
X211732Y164938D02*
D03*
X217300Y159370D02*
D03*
D120*
X259197Y104316D02*
D03*
Y101757D02*
D03*
Y99197D02*
D03*
Y96638D02*
D03*
Y94079D02*
D03*
Y91520D02*
D03*
Y88961D02*
D03*
Y86402D02*
D03*
Y83843D02*
D03*
Y81284D02*
D03*
Y78725D02*
D03*
Y76166D02*
D03*
Y73607D02*
D03*
Y71048D02*
D03*
X236362Y104316D02*
D03*
Y101757D02*
D03*
Y99197D02*
D03*
Y96638D02*
D03*
Y94079D02*
D03*
Y91520D02*
D03*
Y88961D02*
D03*
Y86402D02*
D03*
Y83843D02*
D03*
Y81284D02*
D03*
Y78725D02*
D03*
Y76166D02*
D03*
Y73607D02*
D03*
Y71048D02*
D03*
D121*
X113272Y172347D02*
D03*
D122*
X103724Y172347D02*
D03*
Y170772D02*
D03*
Y169197D02*
D03*
Y167623D02*
D03*
Y173922D02*
D03*
Y175497D02*
D03*
Y177071D02*
D03*
X123016Y167623D02*
D03*
Y177071D02*
D03*
Y175497D02*
D03*
Y173922D02*
D03*
Y172347D02*
D03*
Y170772D02*
D03*
Y169197D02*
D03*
D123*
X225260Y328607D02*
D03*
Y336087D02*
D03*
X236283Y332347D02*
D03*
Y336087D02*
D03*
Y328607D02*
D03*
X225260Y332347D02*
D03*
X68803Y336087D02*
D03*
X57780Y339827D02*
D03*
Y332347D02*
D03*
Y336087D02*
D03*
X68803Y332347D02*
D03*
Y339827D02*
D03*
X17661Y214512D02*
D03*
X28685Y210772D02*
D03*
Y218253D02*
D03*
Y214512D02*
D03*
X17661Y218253D02*
D03*
Y210772D02*
D03*
X132346Y338768D02*
D03*
X121323Y342509D02*
D03*
Y335028D02*
D03*
Y338768D02*
D03*
X132346Y335028D02*
D03*
Y342509D02*
D03*
X185146Y338505D02*
D03*
X174123Y342245D02*
D03*
Y334764D02*
D03*
Y338505D02*
D03*
X185146Y334764D02*
D03*
Y342245D02*
D03*
D124*
X232405Y245142D02*
D03*
X237405D02*
D03*
X242405D02*
D03*
X247405D02*
D03*
X232405Y226245D02*
D03*
X237405D02*
D03*
X242405D02*
D03*
X247405D02*
D03*
D125*
X129626Y231004D02*
D03*
X200295Y277756D02*
D03*
X200197Y230315D02*
D03*
X45177Y276481D02*
D03*
X46358Y233366D02*
D03*
X130905Y278740D02*
D03*
D126*
X120965Y231004D02*
D03*
X191634Y277756D02*
D03*
X191535Y230315D02*
D03*
X36516Y276481D02*
D03*
X37697Y233366D02*
D03*
X122244Y278740D02*
D03*
D129*
X79098Y245831D02*
D03*
X76539D02*
D03*
X73980D02*
D03*
X71421D02*
D03*
X79098Y261776D02*
D03*
X76539D02*
D03*
X73980D02*
D03*
X71421D02*
D03*
D130*
X188646Y120753D02*
D03*
Y113469D02*
D03*
D131*
X260535Y119394D02*
D03*
X253212D02*
D03*
X249433Y216323D02*
D03*
X256756D02*
D03*
X238764Y261245D02*
D03*
X246087D02*
D03*
D132*
X269787Y210930D02*
D03*
X261913D02*
D03*
D133*
X197268Y303507D02*
D03*
X201008D02*
D03*
X197169Y289925D02*
D03*
X200909D02*
D03*
X45177Y291343D02*
D03*
X41437D02*
D03*
X45276Y304926D02*
D03*
X41535D02*
D03*
X46555Y244799D02*
D03*
X42815D02*
D03*
X46654Y258381D02*
D03*
X42913D02*
D03*
X131004Y290319D02*
D03*
X127264D02*
D03*
X131102Y303902D02*
D03*
X127362D02*
D03*
X199902Y243520D02*
D03*
X196161D02*
D03*
X200000Y257103D02*
D03*
X196260D02*
D03*
X129551Y244276D02*
D03*
X125811D02*
D03*
X129650Y257859D02*
D03*
X125909D02*
D03*
D134*
X309291Y191057D02*
D03*
X235505Y6502D02*
D03*
X249374Y330293D02*
D03*
Y335793D02*
D03*
X300168Y233837D02*
D03*
X170684Y98437D02*
D03*
X293226Y233837D02*
D03*
X286283D02*
D03*
X162308Y98641D02*
D03*
X242711Y22465D02*
D03*
Y16965D02*
D03*
X235417Y22465D02*
D03*
Y16965D02*
D03*
X286283Y217235D02*
D03*
Y222735D02*
D03*
X300339Y217707D02*
D03*
Y223207D02*
D03*
X105606Y28356D02*
D03*
Y22856D02*
D03*
X254591Y335793D02*
D03*
Y330293D02*
D03*
X170684Y109264D02*
D03*
Y114764D02*
D03*
X162308Y114967D02*
D03*
Y109467D02*
D03*
X307386Y222735D02*
D03*
Y217235D02*
D03*
X293226Y222735D02*
D03*
Y217235D02*
D03*
X41126Y332105D02*
D03*
Y326605D02*
D03*
X46475Y220348D02*
D03*
Y214848D02*
D03*
X46303Y337144D02*
D03*
Y331644D02*
D03*
X41259Y214848D02*
D03*
Y220348D02*
D03*
X105378Y333837D02*
D03*
Y328337D02*
D03*
X110023Y339782D02*
D03*
Y334282D02*
D03*
X156327Y334868D02*
D03*
Y340368D02*
D03*
X161820D02*
D03*
Y334868D02*
D03*
X307346Y233837D02*
D03*
X105645Y12272D02*
D03*
X242798Y6502D02*
D03*
D135*
X309291Y185557D02*
D03*
X235505Y12002D02*
D03*
X300168Y228337D02*
D03*
X170684Y103937D02*
D03*
X293226Y228337D02*
D03*
X286283D02*
D03*
X162308Y104141D02*
D03*
X307346Y228337D02*
D03*
X105645Y17772D02*
D03*
X242798Y12002D02*
D03*
D136*
X275299Y104867D02*
D03*
Y97544D02*
D03*
X216874Y89670D02*
D03*
Y82347D02*
D03*
X301559Y202190D02*
D03*
Y194867D02*
D03*
X209984Y176363D02*
D03*
Y183686D02*
D03*
D137*
X136795Y114316D02*
D03*
Y108804D02*
D03*
X111126Y108990D02*
D03*
Y114501D02*
D03*
X294827Y199945D02*
D03*
Y194434D02*
D03*
X254512Y233568D02*
D03*
Y239079D02*
D03*
X267858Y217505D02*
D03*
Y223016D02*
D03*
X275299Y217347D02*
D03*
Y222859D02*
D03*
X51992Y337386D02*
D03*
Y331875D02*
D03*
X77346Y333646D02*
D03*
Y339158D02*
D03*
X35294Y214639D02*
D03*
Y220151D02*
D03*
X115220Y339985D02*
D03*
Y334473D02*
D03*
X139748Y338292D02*
D03*
Y343804D02*
D03*
X167508Y339985D02*
D03*
Y334473D02*
D03*
X193370Y336205D02*
D03*
Y341717D02*
D03*
X166795Y301520D02*
D03*
Y296008D02*
D03*
X95378Y255694D02*
D03*
Y250182D02*
D03*
X97071Y301914D02*
D03*
Y296402D02*
D03*
X163877Y254934D02*
D03*
Y249422D02*
D03*
X11835Y302623D02*
D03*
Y297111D02*
D03*
X12701Y256245D02*
D03*
Y250733D02*
D03*
X243409Y330084D02*
D03*
Y335596D02*
D03*
X216677Y173567D02*
D03*
Y179079D02*
D03*
X59472Y240379D02*
D03*
Y234867D02*
D03*
X58134Y254001D02*
D03*
Y259512D02*
D03*
D138*
X203039Y155198D02*
D03*
X208189Y150048D02*
D03*
D139*
X201976Y163473D02*
D03*
X207126Y168623D02*
D03*
D140*
X173917Y147544D02*
D03*
D141*
Y138883D02*
D03*
D142*
X120516Y186087D02*
D03*
Y182347D02*
D03*
X106933Y186186D02*
D03*
Y182446D02*
D03*
X66083Y234705D02*
D03*
Y238445D02*
D03*
X79665Y234606D02*
D03*
Y238347D02*
D03*
D143*
X17894Y296690D02*
D03*
Y299249D02*
D03*
Y301808D02*
D03*
Y304367D02*
D03*
X33838Y296690D02*
D03*
Y299249D02*
D03*
Y301808D02*
D03*
Y304367D02*
D03*
X19516Y250312D02*
D03*
Y252871D02*
D03*
Y255430D02*
D03*
Y257989D02*
D03*
X35461Y252871D02*
D03*
Y255430D02*
D03*
Y257989D02*
D03*
Y250312D02*
D03*
X119902Y303461D02*
D03*
Y300902D02*
D03*
Y298343D02*
D03*
Y295784D02*
D03*
X103957Y303461D02*
D03*
Y300902D02*
D03*
Y298343D02*
D03*
Y295784D02*
D03*
X102421Y249760D02*
D03*
Y252320D02*
D03*
Y254878D02*
D03*
Y257438D02*
D03*
X118366Y249760D02*
D03*
Y252320D02*
D03*
Y254878D02*
D03*
Y257438D02*
D03*
X173685Y295575D02*
D03*
Y298134D02*
D03*
Y300693D02*
D03*
Y303253D02*
D03*
X189630Y295575D02*
D03*
Y298134D02*
D03*
Y300693D02*
D03*
Y303253D02*
D03*
X172819Y249001D02*
D03*
Y251560D02*
D03*
Y254119D02*
D03*
Y256678D02*
D03*
X188764Y249001D02*
D03*
Y251560D02*
D03*
Y254119D02*
D03*
Y256678D02*
D03*
D171*
X233842Y196422D02*
D03*
X235811D02*
D03*
X237779D02*
D03*
X239748D02*
D03*
X241716D02*
D03*
X243685D02*
D03*
X245654D02*
D03*
X247622D02*
D03*
X249590D02*
D03*
X251559D02*
D03*
X253527D02*
D03*
X255496D02*
D03*
X257465D02*
D03*
X259433D02*
D03*
X261402D02*
D03*
X263370D02*
D03*
X265338D02*
D03*
X267307D02*
D03*
X269275D02*
D03*
X271244D02*
D03*
X273213D02*
D03*
X275181D02*
D03*
X277150D02*
D03*
X279118D02*
D03*
X281086D02*
D03*
Y136776D02*
D03*
X279118D02*
D03*
X277150D02*
D03*
X275181D02*
D03*
X273213D02*
D03*
X271244D02*
D03*
X269275D02*
D03*
X267307D02*
D03*
X265338D02*
D03*
X263370D02*
D03*
X261402D02*
D03*
X259433D02*
D03*
X257465D02*
D03*
X255496D02*
D03*
X253527D02*
D03*
X251559D02*
D03*
X249590D02*
D03*
X247622D02*
D03*
X245654D02*
D03*
X243685D02*
D03*
X241716D02*
D03*
X239748D02*
D03*
X237779D02*
D03*
X235811D02*
D03*
X233842D02*
D03*
D172*
X287287Y190221D02*
D03*
Y188253D02*
D03*
Y186284D02*
D03*
Y184316D02*
D03*
Y182347D02*
D03*
Y180378D02*
D03*
Y178410D02*
D03*
Y176442D02*
D03*
Y174473D02*
D03*
Y172504D02*
D03*
Y170536D02*
D03*
Y168568D02*
D03*
Y166599D02*
D03*
Y164630D02*
D03*
Y162662D02*
D03*
Y160694D02*
D03*
Y158725D02*
D03*
Y156756D02*
D03*
Y154788D02*
D03*
Y152820D02*
D03*
Y150851D02*
D03*
Y148882D02*
D03*
Y146914D02*
D03*
Y144946D02*
D03*
Y142977D02*
D03*
X227642D02*
D03*
Y144946D02*
D03*
Y146914D02*
D03*
Y148882D02*
D03*
Y150851D02*
D03*
Y152820D02*
D03*
Y154788D02*
D03*
Y156756D02*
D03*
Y158725D02*
D03*
Y160694D02*
D03*
Y162662D02*
D03*
Y164630D02*
D03*
Y166599D02*
D03*
Y168568D02*
D03*
Y170536D02*
D03*
Y172504D02*
D03*
Y174473D02*
D03*
Y176442D02*
D03*
Y178410D02*
D03*
Y180378D02*
D03*
Y182347D02*
D03*
Y184316D02*
D03*
Y186284D02*
D03*
Y188253D02*
D03*
Y190221D02*
D03*
M02*
