G04*
G04 #@! TF.GenerationSoftware,Altium Limited,Altium Designer,22.10.1 (41)*
G04*
G04 Layer_Color=16711935*
%FSLAX25Y25*%
%MOIN*%
G70*
G04*
G04 #@! TF.SameCoordinates,259FC9CF-E4F6-480E-B3ED-B57B647CB087*
G04*
G04*
G04 #@! TF.FilePolarity,Positive*
G04*
G01*
G75*
%ADD11C,0.01000*%
D11*
X14449Y349882D02*
G03*
X45Y335005I609J-15002D01*
G01*
X326575Y341220D02*
G03*
X314724Y349882I-12571J-4763D01*
G01*
X326575Y341339D02*
G03*
X338898Y331928I13326J4677D01*
G01*
X361631Y319611D02*
G03*
X349410Y331906I-12330J-35D01*
G01*
X339435Y14356D02*
G03*
X327284Y8150I-253J-14503D01*
G01*
X348242Y14356D02*
G03*
X361631Y27953I-102J13490D01*
G01*
X311967Y-72D02*
G03*
X327284Y8150I575J17307D01*
G01*
X29278Y2252D02*
G03*
X34488Y-72I4950J4095D01*
G01*
X29278Y2252D02*
G03*
X21524Y6947I-10086J-7908D01*
G01*
X39Y18032D02*
G03*
X11317Y6947I11796J722D01*
G01*
X39Y18032D02*
Y334880D01*
X14449Y349882D02*
X16575D01*
X314724D01*
X338898Y331928D02*
X349301D01*
X361631Y27953D02*
X361631Y319611D01*
X339181Y14356D02*
X348242D01*
X34488Y-72D02*
X311967Y-72D01*
X11317Y6947D02*
X21524D01*
X14449Y349882D02*
G03*
X45Y335005I609J-15002D01*
G01*
X326575Y341220D02*
G03*
X314724Y349882I-12571J-4763D01*
G01*
X326575Y341339D02*
G03*
X338898Y331928I13326J4677D01*
G01*
X361631Y319611D02*
G03*
X349410Y331906I-12330J-35D01*
G01*
X339435Y14356D02*
G03*
X327284Y8150I-253J-14503D01*
G01*
X348242Y14356D02*
G03*
X361631Y27953I-102J13490D01*
G01*
X311967Y-72D02*
G03*
X327284Y8150I575J17307D01*
G01*
X29278Y2252D02*
G03*
X34488Y-72I4950J4095D01*
G01*
X29278Y2252D02*
G03*
X21524Y6947I-10086J-7908D01*
G01*
X39Y18032D02*
G03*
X11317Y6947I11796J722D01*
G01*
X39Y18032D02*
Y334880D01*
X14449Y349882D02*
X16575D01*
X314724D01*
X338898Y331928D02*
X349301D01*
X361631Y27953D02*
X361631Y319611D01*
X339181Y14356D02*
X348242D01*
X34488Y-72D02*
X311967Y-72D01*
X11317Y6947D02*
X21524D01*
M02*
