G04*
G04 #@! TF.GenerationSoftware,Altium Limited,Altium Designer,23.0.1 (38)*
G04*
G04 Layer_Color=16711935*
%FSLAX25Y25*%
%MOIN*%
G70*
G04*
G04 #@! TF.SameCoordinates,CCA4EEAC-205A-4764-8855-BE0F0513998D*
G04*
G04*
G04 #@! TF.FilePolarity,Positive*
G04*
G01*
G75*
%ADD10C,0.01000*%
D10*
X347386Y14340D02*
G03*
X361626Y27913I535J13694D01*
G01*
X14967Y349915D02*
G03*
X16Y334358I303J-15254D01*
G01*
X29260Y2280D02*
G03*
X21555Y6906I-9648J-7340D01*
G01*
X-0Y19111D02*
G03*
X12402Y6906I12303J98D01*
G01*
X312115Y114D02*
G03*
X326870Y7497I1233J15972D01*
G01*
X338386Y14386D02*
G03*
X326870Y7497I1070J-14856D01*
G01*
X326575Y341158D02*
G03*
X338336Y331906I13607J5196D01*
G01*
X326575Y341158D02*
G03*
X313878Y349918I-12487J-4517D01*
G01*
X361713Y319130D02*
G03*
X349508Y331906I-12490J285D01*
G01*
X29260Y2280D02*
G03*
X34350Y-0I5012J4367D01*
G01*
X338386Y14340D02*
X347386D01*
X361626Y27913D02*
Y30410D01*
X15059Y349918D02*
X313878D01*
X0Y17284D02*
Y334661D01*
X12402Y6906D02*
X21555D01*
X338336Y331906D02*
X349508D01*
X361626Y30410D02*
Y319416D01*
X32795Y0D02*
X312106D01*
X14449Y349882D02*
G03*
X45Y335005I609J-15002D01*
G01*
X326575Y341220D02*
G03*
X314724Y349882I-12571J-4763D01*
G01*
X326575Y341339D02*
G03*
X338898Y331928I13326J4677D01*
G01*
X361631Y319611D02*
G03*
X349410Y331906I-12330J-35D01*
G01*
X339435Y14356D02*
G03*
X327284Y8150I-253J-14503D01*
G01*
X348242Y14356D02*
G03*
X361631Y27953I-102J13490D01*
G01*
X311967Y-72D02*
G03*
X327284Y8150I575J17307D01*
G01*
X29278Y2252D02*
G03*
X34488Y-72I4950J4095D01*
G01*
X29278Y2252D02*
G03*
X21524Y6947I-10086J-7908D01*
G01*
X39Y18032D02*
G03*
X11317Y6947I11796J722D01*
G01*
X39Y18032D02*
Y334880D01*
X14449Y349882D02*
X16575D01*
X314724D01*
X338898Y331928D02*
X349301D01*
X361631Y27953D02*
X361631Y319611D01*
X339181Y14356D02*
X348242D01*
X34488Y-72D02*
X311967Y-72D01*
X11317Y6947D02*
X21524D01*
M02*
