G04*
G04 #@! TF.GenerationSoftware,Altium Limited,Altium Designer,22.10.1 (41)*
G04*
G04 Layer_Color=8388736*
%FSLAX25Y25*%
%MOIN*%
G70*
G04*
G04 #@! TF.SameCoordinates,259FC9CF-E4F6-480E-B3ED-B57B647CB087*
G04*
G04*
G04 #@! TF.FilePolarity,Negative*
G04*
G01*
G75*
%ADD11C,0.01000*%
%ADD60R,0.17148X0.17148*%
%ADD61R,0.09274X0.13211*%
%ADD62R,0.04550X0.07699*%
%ADD63R,0.09668X0.13211*%
%ADD64R,0.04943X0.04943*%
%ADD65R,0.06715X0.05731*%
%ADD66R,0.05731X0.10061*%
%ADD67R,0.05534X0.06124*%
%ADD68R,0.07699X0.09668*%
%ADD69R,0.09900X0.12199*%
%ADD70R,0.11243X0.08093*%
%ADD71R,0.10061X0.15180*%
%ADD72R,0.17148X0.17935*%
%ADD73R,0.11636X0.25022*%
%ADD74R,0.10061X0.04156*%
%ADD75R,0.04550X0.04550*%
%ADD76R,0.07400X0.07400*%
%ADD77R,0.11203X0.13211*%
%ADD78R,0.07400X0.06124*%
%ADD79C,0.09843*%
%ADD80R,0.05731X0.06715*%
%ADD81R,0.06124X0.05534*%
%ADD82R,0.10061X0.05731*%
%ADD83R,0.08093X0.11243*%
%ADD84R,0.17935X0.17148*%
%ADD85R,0.13211X0.09668*%
%ADD86R,0.07699X0.04550*%
%ADD87R,0.04156X0.10061*%
%ADD88R,0.07400X0.07400*%
%ADD89R,0.06124X0.07400*%
%ADD90R,0.13211X0.11203*%
%ADD91C,0.07306*%
%ADD92R,0.07306X0.07306*%
%ADD93R,0.08400X0.08400*%
%ADD94C,0.08400*%
%ADD95R,0.08400X0.08400*%
%ADD96C,0.08487*%
%ADD97C,0.25022*%
%ADD98C,0.09274*%
%ADD99C,0.03762*%
%ADD100C,0.06400*%
G36*
X669437Y-138584D02*
X669501D01*
X669674Y-138602D01*
X669866Y-138629D01*
X670066Y-138675D01*
X670285Y-138730D01*
X670485Y-138803D01*
X670494D01*
X670512Y-138812D01*
X670540Y-138830D01*
X670576Y-138848D01*
X670667Y-138894D01*
X670786Y-138976D01*
X670922Y-139067D01*
X671059Y-139185D01*
X671187Y-139322D01*
X671305Y-139477D01*
Y-139486D01*
X671314Y-139495D01*
X671332Y-139522D01*
X671350Y-139550D01*
X671396Y-139641D01*
X671451Y-139759D01*
X671515Y-139905D01*
X671560Y-140078D01*
X671606Y-140260D01*
X671624Y-140461D01*
X670822Y-140524D01*
Y-140515D01*
Y-140497D01*
X670813Y-140470D01*
X670804Y-140424D01*
X670777Y-140324D01*
X670740Y-140187D01*
X670685Y-140041D01*
X670604Y-139896D01*
X670503Y-139759D01*
X670376Y-139631D01*
X670358Y-139622D01*
X670312Y-139586D01*
X670221Y-139531D01*
X670103Y-139477D01*
X669948Y-139422D01*
X669765Y-139367D01*
X669538Y-139331D01*
X669283Y-139322D01*
X669155D01*
X669100Y-139331D01*
X669028Y-139340D01*
X668863Y-139358D01*
X668681Y-139395D01*
X668499Y-139440D01*
X668326Y-139513D01*
X668253Y-139559D01*
X668180Y-139604D01*
X668162Y-139613D01*
X668126Y-139650D01*
X668071Y-139714D01*
X668016Y-139786D01*
X667952Y-139887D01*
X667898Y-139996D01*
X667861Y-140123D01*
X667843Y-140269D01*
Y-140287D01*
Y-140324D01*
X667852Y-140388D01*
X667871Y-140461D01*
X667898Y-140552D01*
X667943Y-140643D01*
X667998Y-140734D01*
X668080Y-140825D01*
X668089Y-140834D01*
X668135Y-140861D01*
X668171Y-140889D01*
X668208Y-140907D01*
X668262Y-140934D01*
X668326Y-140971D01*
X668408Y-140998D01*
X668499Y-141034D01*
X668599Y-141071D01*
X668718Y-141116D01*
X668845Y-141153D01*
X668991Y-141198D01*
X669155Y-141235D01*
X669337Y-141280D01*
X669346D01*
X669383Y-141289D01*
X669437Y-141299D01*
X669501Y-141317D01*
X669583Y-141335D01*
X669683Y-141362D01*
X669784Y-141390D01*
X669893Y-141417D01*
X670130Y-141481D01*
X670358Y-141545D01*
X670467Y-141581D01*
X670567Y-141618D01*
X670658Y-141645D01*
X670731Y-141681D01*
X670740D01*
X670758Y-141690D01*
X670786Y-141709D01*
X670822Y-141727D01*
X670922Y-141781D01*
X671041Y-141854D01*
X671177Y-141955D01*
X671314Y-142064D01*
X671442Y-142191D01*
X671551Y-142328D01*
X671560Y-142346D01*
X671596Y-142392D01*
X671633Y-142474D01*
X671688Y-142583D01*
X671733Y-142711D01*
X671779Y-142866D01*
X671806Y-143039D01*
X671815Y-143221D01*
Y-143230D01*
Y-143239D01*
Y-143266D01*
Y-143303D01*
X671797Y-143403D01*
X671779Y-143531D01*
X671742Y-143676D01*
X671697Y-143831D01*
X671624Y-143995D01*
X671524Y-144168D01*
Y-144177D01*
X671515Y-144186D01*
X671469Y-144241D01*
X671405Y-144323D01*
X671314Y-144414D01*
X671196Y-144524D01*
X671050Y-144642D01*
X670886Y-144751D01*
X670695Y-144852D01*
X670685D01*
X670667Y-144861D01*
X670640Y-144870D01*
X670604Y-144888D01*
X670549Y-144906D01*
X670485Y-144933D01*
X670339Y-144970D01*
X670166Y-145016D01*
X669957Y-145061D01*
X669729Y-145088D01*
X669483Y-145097D01*
X669337D01*
X669264Y-145088D01*
X669182D01*
X669091Y-145079D01*
X668982Y-145070D01*
X668754Y-145034D01*
X668517Y-144997D01*
X668281Y-144933D01*
X668053Y-144852D01*
X668044D01*
X668025Y-144842D01*
X667998Y-144824D01*
X667962Y-144806D01*
X667852Y-144751D01*
X667725Y-144669D01*
X667579Y-144560D01*
X667424Y-144432D01*
X667278Y-144278D01*
X667142Y-144105D01*
Y-144095D01*
X667124Y-144077D01*
X667114Y-144050D01*
X667087Y-144013D01*
X667069Y-143968D01*
X667041Y-143913D01*
X666978Y-143777D01*
X666914Y-143604D01*
X666859Y-143412D01*
X666823Y-143193D01*
X666805Y-142966D01*
X667588Y-142893D01*
Y-142902D01*
Y-142911D01*
X667597Y-142938D01*
Y-142975D01*
X667615Y-143057D01*
X667643Y-143175D01*
X667679Y-143294D01*
X667716Y-143430D01*
X667779Y-143558D01*
X667843Y-143676D01*
X667852Y-143685D01*
X667880Y-143722D01*
X667925Y-143786D01*
X667998Y-143850D01*
X668089Y-143931D01*
X668189Y-144013D01*
X668326Y-144095D01*
X668472Y-144168D01*
X668481D01*
X668490Y-144177D01*
X668517Y-144186D01*
X668545Y-144196D01*
X668636Y-144223D01*
X668754Y-144259D01*
X668900Y-144296D01*
X669064Y-144323D01*
X669246Y-144341D01*
X669447Y-144351D01*
X669528D01*
X669620Y-144341D01*
X669729Y-144332D01*
X669857Y-144314D01*
X670002Y-144296D01*
X670148Y-144259D01*
X670285Y-144214D01*
X670303Y-144205D01*
X670348Y-144186D01*
X670412Y-144150D01*
X670494Y-144114D01*
X670576Y-144050D01*
X670667Y-143986D01*
X670758Y-143913D01*
X670831Y-143822D01*
X670840Y-143813D01*
X670859Y-143777D01*
X670886Y-143731D01*
X670922Y-143658D01*
X670959Y-143585D01*
X670986Y-143494D01*
X671004Y-143394D01*
X671013Y-143285D01*
Y-143275D01*
Y-143230D01*
X671004Y-143175D01*
X670995Y-143102D01*
X670968Y-143029D01*
X670941Y-142938D01*
X670895Y-142847D01*
X670831Y-142765D01*
X670822Y-142756D01*
X670795Y-142729D01*
X670758Y-142692D01*
X670695Y-142638D01*
X670622Y-142583D01*
X670521Y-142519D01*
X670403Y-142456D01*
X670266Y-142401D01*
X670257Y-142392D01*
X670212Y-142383D01*
X670139Y-142355D01*
X670093Y-142346D01*
X670030Y-142328D01*
X669966Y-142301D01*
X669884Y-142282D01*
X669793Y-142255D01*
X669683Y-142228D01*
X669574Y-142201D01*
X669447Y-142164D01*
X669301Y-142128D01*
X669146Y-142091D01*
X669137D01*
X669109Y-142082D01*
X669064Y-142073D01*
X669009Y-142055D01*
X668936Y-142037D01*
X668854Y-142018D01*
X668672Y-141964D01*
X668472Y-141900D01*
X668262Y-141836D01*
X668080Y-141772D01*
X667998Y-141736D01*
X667925Y-141700D01*
X667916D01*
X667907Y-141690D01*
X667852Y-141654D01*
X667770Y-141608D01*
X667679Y-141535D01*
X667570Y-141454D01*
X667461Y-141353D01*
X667351Y-141235D01*
X667260Y-141107D01*
X667251Y-141089D01*
X667224Y-141044D01*
X667187Y-140971D01*
X667151Y-140880D01*
X667114Y-140761D01*
X667078Y-140624D01*
X667051Y-140479D01*
X667041Y-140324D01*
Y-140315D01*
Y-140306D01*
Y-140278D01*
Y-140242D01*
X667060Y-140151D01*
X667078Y-140032D01*
X667105Y-139896D01*
X667151Y-139741D01*
X667215Y-139586D01*
X667306Y-139431D01*
Y-139422D01*
X667315Y-139413D01*
X667360Y-139358D01*
X667424Y-139285D01*
X667506Y-139194D01*
X667615Y-139094D01*
X667752Y-138985D01*
X667916Y-138884D01*
X668098Y-138793D01*
X668107D01*
X668126Y-138784D01*
X668153Y-138775D01*
X668189Y-138757D01*
X668235Y-138739D01*
X668299Y-138721D01*
X668435Y-138684D01*
X668608Y-138648D01*
X668809Y-138611D01*
X669018Y-138584D01*
X669255Y-138575D01*
X669374D01*
X669437Y-138584D01*
D02*
G37*
G36*
X683394Y-144988D02*
X682674D01*
Y-144414D01*
X682665Y-144423D01*
X682656Y-144442D01*
X682629Y-144478D01*
X682592Y-144524D01*
X682547Y-144569D01*
X682492Y-144624D01*
X682428Y-144688D01*
X682346Y-144751D01*
X682264Y-144815D01*
X682173Y-144879D01*
X682064Y-144933D01*
X681946Y-144979D01*
X681827Y-145025D01*
X681690Y-145061D01*
X681545Y-145079D01*
X681390Y-145088D01*
X681335D01*
X681299Y-145079D01*
X681189Y-145070D01*
X681062Y-145052D01*
X680907Y-145016D01*
X680734Y-144961D01*
X680561Y-144888D01*
X680388Y-144788D01*
X680378D01*
X680369Y-144770D01*
X680315Y-144733D01*
X680233Y-144660D01*
X680133Y-144569D01*
X680014Y-144451D01*
X679896Y-144305D01*
X679777Y-144141D01*
X679677Y-143950D01*
Y-143941D01*
X679668Y-143922D01*
X679659Y-143895D01*
X679641Y-143859D01*
X679622Y-143804D01*
X679595Y-143740D01*
X679577Y-143676D01*
X679559Y-143594D01*
X679513Y-143412D01*
X679468Y-143203D01*
X679440Y-142966D01*
X679431Y-142711D01*
Y-142702D01*
Y-142683D01*
Y-142647D01*
Y-142592D01*
X679440Y-142538D01*
Y-142465D01*
X679458Y-142301D01*
X679486Y-142109D01*
X679531Y-141900D01*
X679586Y-141681D01*
X679659Y-141472D01*
Y-141463D01*
X679668Y-141444D01*
X679686Y-141417D01*
X679704Y-141381D01*
X679759Y-141280D01*
X679832Y-141153D01*
X679923Y-141016D01*
X680042Y-140880D01*
X680178Y-140734D01*
X680342Y-140615D01*
X680351D01*
X680360Y-140606D01*
X680388Y-140588D01*
X680424Y-140570D01*
X680515Y-140524D01*
X680643Y-140461D01*
X680789Y-140406D01*
X680962Y-140360D01*
X681153Y-140324D01*
X681353Y-140315D01*
X681426D01*
X681499Y-140324D01*
X681599Y-140333D01*
X681718Y-140360D01*
X681845Y-140388D01*
X681973Y-140433D01*
X682091Y-140497D01*
X682109Y-140506D01*
X682146Y-140524D01*
X682201Y-140570D01*
X682273Y-140615D01*
X682365Y-140679D01*
X682446Y-140761D01*
X682538Y-140843D01*
X682620Y-140943D01*
Y-138684D01*
X683394D01*
Y-144988D01*
D02*
G37*
G36*
X661803Y-140324D02*
X661867Y-140333D01*
X662004Y-140351D01*
X662168Y-140388D01*
X662341Y-140442D01*
X662514Y-140524D01*
X662687Y-140624D01*
X662696D01*
X662705Y-140643D01*
X662760Y-140679D01*
X662842Y-140752D01*
X662942Y-140843D01*
X663051Y-140962D01*
X663161Y-141107D01*
X663270Y-141280D01*
X663361Y-141472D01*
Y-141481D01*
X663370Y-141499D01*
X663379Y-141526D01*
X663398Y-141563D01*
X663416Y-141618D01*
X663434Y-141681D01*
X663480Y-141827D01*
X663525Y-142009D01*
X663561Y-142210D01*
X663589Y-142437D01*
X663598Y-142674D01*
Y-142683D01*
Y-142702D01*
Y-142738D01*
Y-142793D01*
X663589Y-142857D01*
Y-142929D01*
X663571Y-143093D01*
X663534Y-143294D01*
X663489Y-143503D01*
X663425Y-143722D01*
X663343Y-143941D01*
Y-143950D01*
X663334Y-143968D01*
X663315Y-143995D01*
X663297Y-144032D01*
X663234Y-144132D01*
X663152Y-144259D01*
X663051Y-144396D01*
X662924Y-144533D01*
X662778Y-144669D01*
X662605Y-144797D01*
X662596D01*
X662587Y-144806D01*
X662559Y-144824D01*
X662523Y-144842D01*
X662432Y-144888D01*
X662304Y-144943D01*
X662149Y-144997D01*
X661985Y-145043D01*
X661794Y-145079D01*
X661603Y-145088D01*
X661539D01*
X661466Y-145079D01*
X661375Y-145070D01*
X661266Y-145052D01*
X661147Y-145025D01*
X661029Y-144988D01*
X660911Y-144933D01*
X660901Y-144924D01*
X660856Y-144906D01*
X660801Y-144870D01*
X660728Y-144815D01*
X660655Y-144760D01*
X660564Y-144688D01*
X660482Y-144606D01*
X660409Y-144515D01*
Y-146737D01*
X659635D01*
Y-140415D01*
X660336D01*
Y-141016D01*
X660346Y-140998D01*
X660382Y-140962D01*
X660428Y-140898D01*
X660500Y-140825D01*
X660582Y-140734D01*
X660674Y-140652D01*
X660783Y-140570D01*
X660892Y-140497D01*
X660911Y-140488D01*
X660947Y-140470D01*
X661020Y-140442D01*
X661111Y-140406D01*
X661220Y-140369D01*
X661348Y-140342D01*
X661493Y-140324D01*
X661657Y-140315D01*
X661758D01*
X661803Y-140324D01*
D02*
G37*
G36*
X691347D02*
X691447Y-140342D01*
X691566Y-140378D01*
X691693Y-140424D01*
X691839Y-140488D01*
X691994Y-140570D01*
X691711Y-141280D01*
X691702Y-141271D01*
X691666Y-141253D01*
X691611Y-141226D01*
X691538Y-141198D01*
X691456Y-141171D01*
X691356Y-141144D01*
X691256Y-141126D01*
X691156Y-141116D01*
X691110D01*
X691065Y-141126D01*
X691001Y-141135D01*
X690937Y-141153D01*
X690855Y-141180D01*
X690773Y-141217D01*
X690700Y-141271D01*
X690691Y-141280D01*
X690664Y-141299D01*
X690636Y-141335D01*
X690591Y-141381D01*
X690545Y-141444D01*
X690500Y-141517D01*
X690454Y-141599D01*
X690418Y-141700D01*
X690409Y-141718D01*
X690400Y-141772D01*
X690381Y-141854D01*
X690354Y-141964D01*
X690327Y-142100D01*
X690308Y-142255D01*
X690299Y-142419D01*
X690290Y-142601D01*
Y-144988D01*
X689516D01*
Y-140415D01*
X690217D01*
Y-141107D01*
X690227Y-141098D01*
X690263Y-141034D01*
X690308Y-140953D01*
X690381Y-140852D01*
X690454Y-140752D01*
X690536Y-140643D01*
X690618Y-140552D01*
X690700Y-140479D01*
X690709Y-140470D01*
X690737Y-140451D01*
X690791Y-140424D01*
X690846Y-140397D01*
X690919Y-140369D01*
X691010Y-140342D01*
X691101Y-140324D01*
X691201Y-140315D01*
X691265D01*
X691347Y-140324D01*
D02*
G37*
G36*
X678520Y-144988D02*
X677746D01*
Y-138684D01*
X678520D01*
Y-144988D01*
D02*
G37*
G36*
X653969Y-139431D02*
X651892D01*
Y-144988D01*
X651053D01*
Y-139431D01*
X648976D01*
Y-138684D01*
X653969D01*
Y-139431D01*
D02*
G37*
G36*
X686646Y-140324D02*
X686719Y-140333D01*
X686810Y-140351D01*
X686910Y-140369D01*
X687029Y-140397D01*
X687138Y-140424D01*
X687266Y-140470D01*
X687384Y-140515D01*
X687512Y-140579D01*
X687639Y-140652D01*
X687767Y-140734D01*
X687885Y-140834D01*
X687994Y-140943D01*
X688004Y-140953D01*
X688022Y-140971D01*
X688049Y-141007D01*
X688086Y-141062D01*
X688131Y-141126D01*
X688177Y-141198D01*
X688231Y-141289D01*
X688286Y-141399D01*
X688341Y-141517D01*
X688395Y-141645D01*
X688441Y-141791D01*
X688486Y-141946D01*
X688523Y-142119D01*
X688550Y-142301D01*
X688568Y-142492D01*
X688578Y-142702D01*
Y-142711D01*
Y-142747D01*
Y-142811D01*
X688568Y-142902D01*
X685152D01*
Y-142911D01*
Y-142938D01*
X685161Y-142975D01*
Y-143029D01*
X685170Y-143093D01*
X685189Y-143166D01*
X685216Y-143330D01*
X685271Y-143512D01*
X685344Y-143713D01*
X685444Y-143895D01*
X685571Y-144059D01*
X685580D01*
X685590Y-144077D01*
X685644Y-144123D01*
X685726Y-144186D01*
X685835Y-144250D01*
X685981Y-144323D01*
X686145Y-144387D01*
X686327Y-144432D01*
X686428Y-144442D01*
X686537Y-144451D01*
X686610D01*
X686692Y-144442D01*
X686792Y-144423D01*
X686901Y-144396D01*
X687029Y-144360D01*
X687147Y-144305D01*
X687266Y-144232D01*
X687275Y-144223D01*
X687320Y-144186D01*
X687375Y-144132D01*
X687439Y-144059D01*
X687512Y-143959D01*
X687594Y-143831D01*
X687676Y-143685D01*
X687748Y-143512D01*
X688550Y-143613D01*
Y-143622D01*
X688541Y-143640D01*
X688532Y-143676D01*
X688514Y-143731D01*
X688486Y-143786D01*
X688459Y-143859D01*
X688386Y-144013D01*
X688295Y-144186D01*
X688168Y-144369D01*
X688022Y-144542D01*
X687840Y-144706D01*
X687830D01*
X687812Y-144724D01*
X687785Y-144742D01*
X687748Y-144770D01*
X687694Y-144797D01*
X687639Y-144824D01*
X687566Y-144861D01*
X687484Y-144897D01*
X687393Y-144933D01*
X687302Y-144970D01*
X687074Y-145025D01*
X686819Y-145070D01*
X686537Y-145088D01*
X686437D01*
X686373Y-145079D01*
X686291Y-145070D01*
X686191Y-145052D01*
X686081Y-145034D01*
X685963Y-145016D01*
X685708Y-144943D01*
X685571Y-144888D01*
X685444Y-144833D01*
X685307Y-144760D01*
X685180Y-144678D01*
X685061Y-144587D01*
X684943Y-144478D01*
X684934Y-144469D01*
X684915Y-144451D01*
X684888Y-144414D01*
X684852Y-144360D01*
X684806Y-144296D01*
X684761Y-144223D01*
X684706Y-144132D01*
X684651Y-144032D01*
X684596Y-143913D01*
X684542Y-143786D01*
X684496Y-143640D01*
X684451Y-143485D01*
X684414Y-143321D01*
X684387Y-143139D01*
X684369Y-142948D01*
X684360Y-142747D01*
Y-142738D01*
Y-142692D01*
Y-142638D01*
X684369Y-142556D01*
X684378Y-142456D01*
X684387Y-142346D01*
X684405Y-142219D01*
X684433Y-142091D01*
X684505Y-141800D01*
X684551Y-141654D01*
X684606Y-141499D01*
X684679Y-141353D01*
X684761Y-141217D01*
X684852Y-141080D01*
X684952Y-140953D01*
X684961Y-140943D01*
X684979Y-140925D01*
X685015Y-140898D01*
X685061Y-140852D01*
X685116Y-140807D01*
X685189Y-140752D01*
X685271Y-140688D01*
X685371Y-140634D01*
X685471Y-140570D01*
X685590Y-140515D01*
X685717Y-140461D01*
X685854Y-140415D01*
X685999Y-140369D01*
X686154Y-140342D01*
X686318Y-140324D01*
X686491Y-140315D01*
X686583D01*
X686646Y-140324D01*
D02*
G37*
G36*
X674867D02*
X674949Y-140333D01*
X675040Y-140351D01*
X675140Y-140369D01*
X675259Y-140388D01*
X675505Y-140470D01*
X675632Y-140515D01*
X675760Y-140579D01*
X675887Y-140643D01*
X676015Y-140734D01*
X676133Y-140825D01*
X676252Y-140934D01*
X676261Y-140943D01*
X676279Y-140962D01*
X676306Y-140998D01*
X676343Y-141044D01*
X676388Y-141107D01*
X676443Y-141189D01*
X676498Y-141280D01*
X676552Y-141381D01*
X676607Y-141490D01*
X676662Y-141627D01*
X676716Y-141763D01*
X676762Y-141918D01*
X676798Y-142082D01*
X676826Y-142255D01*
X676844Y-142437D01*
X676853Y-142638D01*
Y-142647D01*
Y-142674D01*
Y-142720D01*
Y-142784D01*
X676844Y-142857D01*
X676835Y-142948D01*
Y-143039D01*
X676817Y-143139D01*
X676789Y-143367D01*
X676735Y-143594D01*
X676671Y-143822D01*
X676580Y-144032D01*
Y-144041D01*
X676571Y-144050D01*
X676552Y-144077D01*
X676534Y-144114D01*
X676470Y-144205D01*
X676388Y-144314D01*
X676279Y-144442D01*
X676142Y-144569D01*
X675987Y-144697D01*
X675805Y-144815D01*
X675796D01*
X675787Y-144824D01*
X675760Y-144842D01*
X675714Y-144861D01*
X675669Y-144879D01*
X675614Y-144897D01*
X675477Y-144952D01*
X675322Y-144997D01*
X675131Y-145043D01*
X674931Y-145079D01*
X674712Y-145088D01*
X674621D01*
X674548Y-145079D01*
X674466Y-145070D01*
X674375Y-145052D01*
X674266Y-145034D01*
X674156Y-145016D01*
X673911Y-144943D01*
X673774Y-144888D01*
X673646Y-144833D01*
X673519Y-144760D01*
X673391Y-144678D01*
X673273Y-144587D01*
X673154Y-144478D01*
X673145Y-144469D01*
X673127Y-144451D01*
X673100Y-144414D01*
X673063Y-144360D01*
X673018Y-144296D01*
X672972Y-144223D01*
X672918Y-144132D01*
X672863Y-144023D01*
X672808Y-143904D01*
X672753Y-143767D01*
X672708Y-143622D01*
X672662Y-143467D01*
X672626Y-143294D01*
X672599Y-143112D01*
X672580Y-142911D01*
X672571Y-142702D01*
Y-142683D01*
Y-142647D01*
X672580Y-142583D01*
Y-142492D01*
X672589Y-142392D01*
X672608Y-142264D01*
X672626Y-142137D01*
X672662Y-141991D01*
X672699Y-141845D01*
X672744Y-141690D01*
X672799Y-141526D01*
X672872Y-141372D01*
X672945Y-141226D01*
X673045Y-141080D01*
X673145Y-140943D01*
X673273Y-140825D01*
X673282Y-140816D01*
X673300Y-140807D01*
X673337Y-140779D01*
X673382Y-140743D01*
X673437Y-140707D01*
X673510Y-140661D01*
X673583Y-140615D01*
X673674Y-140570D01*
X673774Y-140524D01*
X673883Y-140479D01*
X674129Y-140397D01*
X674411Y-140333D01*
X674557Y-140324D01*
X674712Y-140315D01*
X674803D01*
X674867Y-140324D01*
D02*
G37*
G36*
X656738D02*
X656820Y-140333D01*
X656911Y-140351D01*
X657011Y-140369D01*
X657130Y-140388D01*
X657376Y-140470D01*
X657503Y-140515D01*
X657631Y-140579D01*
X657758Y-140643D01*
X657886Y-140734D01*
X658004Y-140825D01*
X658123Y-140934D01*
X658132Y-140943D01*
X658150Y-140962D01*
X658178Y-140998D01*
X658214Y-141044D01*
X658259Y-141107D01*
X658314Y-141189D01*
X658369Y-141280D01*
X658423Y-141381D01*
X658478Y-141490D01*
X658533Y-141627D01*
X658587Y-141763D01*
X658633Y-141918D01*
X658669Y-142082D01*
X658697Y-142255D01*
X658715Y-142437D01*
X658724Y-142638D01*
Y-142647D01*
Y-142674D01*
Y-142720D01*
Y-142784D01*
X658715Y-142857D01*
X658706Y-142948D01*
Y-143039D01*
X658688Y-143139D01*
X658660Y-143367D01*
X658606Y-143594D01*
X658542Y-143822D01*
X658451Y-144032D01*
Y-144041D01*
X658442Y-144050D01*
X658423Y-144077D01*
X658405Y-144114D01*
X658342Y-144205D01*
X658259Y-144314D01*
X658150Y-144442D01*
X658013Y-144569D01*
X657859Y-144697D01*
X657676Y-144815D01*
X657667D01*
X657658Y-144824D01*
X657631Y-144842D01*
X657585Y-144861D01*
X657540Y-144879D01*
X657485Y-144897D01*
X657348Y-144952D01*
X657194Y-144997D01*
X657002Y-145043D01*
X656802Y-145079D01*
X656583Y-145088D01*
X656492D01*
X656419Y-145079D01*
X656337Y-145070D01*
X656246Y-145052D01*
X656137Y-145034D01*
X656028Y-145016D01*
X655782Y-144943D01*
X655645Y-144888D01*
X655517Y-144833D01*
X655390Y-144760D01*
X655262Y-144678D01*
X655144Y-144587D01*
X655025Y-144478D01*
X655016Y-144469D01*
X654998Y-144451D01*
X654971Y-144414D01*
X654934Y-144360D01*
X654889Y-144296D01*
X654843Y-144223D01*
X654789Y-144132D01*
X654734Y-144023D01*
X654679Y-143904D01*
X654625Y-143767D01*
X654579Y-143622D01*
X654533Y-143467D01*
X654497Y-143294D01*
X654470Y-143112D01*
X654452Y-142911D01*
X654442Y-142702D01*
Y-142683D01*
Y-142647D01*
X654452Y-142583D01*
Y-142492D01*
X654461Y-142392D01*
X654479Y-142264D01*
X654497Y-142137D01*
X654533Y-141991D01*
X654570Y-141845D01*
X654615Y-141690D01*
X654670Y-141526D01*
X654743Y-141372D01*
X654816Y-141226D01*
X654916Y-141080D01*
X655016Y-140943D01*
X655144Y-140825D01*
X655153Y-140816D01*
X655171Y-140807D01*
X655208Y-140779D01*
X655253Y-140743D01*
X655308Y-140707D01*
X655381Y-140661D01*
X655454Y-140615D01*
X655545Y-140570D01*
X655645Y-140524D01*
X655754Y-140479D01*
X656000Y-140397D01*
X656283Y-140333D01*
X656428Y-140324D01*
X656583Y-140315D01*
X656674D01*
X656738Y-140324D01*
D02*
G37*
%LPC*%
G36*
X681435Y-140953D02*
X681390D01*
X681353Y-140962D01*
X681253Y-140971D01*
X681135Y-141007D01*
X680998Y-141053D01*
X680852Y-141135D01*
X680707Y-141235D01*
X680634Y-141308D01*
X680570Y-141381D01*
Y-141390D01*
X680552Y-141399D01*
X680543Y-141426D01*
X680515Y-141463D01*
X680488Y-141508D01*
X680461Y-141563D01*
X680433Y-141627D01*
X680397Y-141700D01*
X680360Y-141791D01*
X680333Y-141891D01*
X680306Y-142000D01*
X680278Y-142119D01*
X680260Y-142246D01*
X680242Y-142392D01*
X680224Y-142547D01*
Y-142711D01*
Y-142720D01*
Y-142747D01*
Y-142793D01*
X680233Y-142857D01*
Y-142929D01*
X680242Y-143011D01*
X680269Y-143203D01*
X680315Y-143412D01*
X680378Y-143631D01*
X680470Y-143840D01*
X680524Y-143931D01*
X680588Y-144023D01*
X680597D01*
X680606Y-144041D01*
X680652Y-144086D01*
X680734Y-144159D01*
X680834Y-144232D01*
X680962Y-144314D01*
X681116Y-144387D01*
X681280Y-144432D01*
X681371Y-144442D01*
X681463Y-144451D01*
X681508D01*
X681545Y-144442D01*
X681645Y-144432D01*
X681763Y-144396D01*
X681900Y-144351D01*
X682046Y-144278D01*
X682191Y-144177D01*
X682264Y-144114D01*
X682328Y-144041D01*
Y-144032D01*
X682346Y-144023D01*
X682365Y-143995D01*
X682383Y-143959D01*
X682410Y-143913D01*
X682446Y-143868D01*
X682474Y-143795D01*
X682510Y-143722D01*
X682547Y-143640D01*
X682574Y-143549D01*
X682611Y-143439D01*
X682638Y-143330D01*
X682656Y-143203D01*
X682674Y-143075D01*
X682692Y-142929D01*
Y-142774D01*
Y-142765D01*
Y-142729D01*
Y-142683D01*
X682683Y-142620D01*
Y-142547D01*
X682674Y-142456D01*
X682665Y-142355D01*
X682647Y-142246D01*
X682601Y-142027D01*
X682538Y-141800D01*
X682446Y-141581D01*
X682392Y-141490D01*
X682328Y-141399D01*
Y-141390D01*
X682310Y-141381D01*
X682264Y-141326D01*
X682182Y-141253D01*
X682082Y-141171D01*
X681955Y-141089D01*
X681800Y-141025D01*
X681627Y-140971D01*
X681535Y-140962D01*
X681435Y-140953D01*
D02*
G37*
G36*
X661585Y-140925D02*
X661539D01*
X661503Y-140934D01*
X661412Y-140953D01*
X661293Y-140980D01*
X661157Y-141034D01*
X661011Y-141116D01*
X660929Y-141171D01*
X660856Y-141235D01*
X660783Y-141308D01*
X660710Y-141390D01*
Y-141399D01*
X660692Y-141408D01*
X660674Y-141435D01*
X660655Y-141472D01*
X660628Y-141526D01*
X660592Y-141581D01*
X660555Y-141654D01*
X660528Y-141727D01*
X660491Y-141818D01*
X660455Y-141918D01*
X660428Y-142027D01*
X660391Y-142146D01*
X660373Y-142282D01*
X660355Y-142419D01*
X660336Y-142565D01*
Y-142729D01*
Y-142738D01*
Y-142765D01*
Y-142811D01*
X660346Y-142875D01*
Y-142948D01*
X660355Y-143029D01*
X660382Y-143221D01*
X660428Y-143439D01*
X660482Y-143649D01*
X660573Y-143859D01*
X660628Y-143950D01*
X660692Y-144032D01*
X660710Y-144050D01*
X660756Y-144095D01*
X660828Y-144168D01*
X660929Y-144241D01*
X661056Y-144314D01*
X661202Y-144387D01*
X661366Y-144432D01*
X661457Y-144442D01*
X661548Y-144451D01*
X661603D01*
X661639Y-144442D01*
X661730Y-144423D01*
X661858Y-144396D01*
X661995Y-144341D01*
X662140Y-144269D01*
X662286Y-144159D01*
X662359Y-144095D01*
X662432Y-144023D01*
Y-144013D01*
X662450Y-144004D01*
X662468Y-143977D01*
X662487Y-143941D01*
X662523Y-143895D01*
X662550Y-143831D01*
X662587Y-143767D01*
X662623Y-143685D01*
X662650Y-143604D01*
X662687Y-143494D01*
X662723Y-143385D01*
X662751Y-143266D01*
X662769Y-143130D01*
X662787Y-142984D01*
X662805Y-142829D01*
Y-142665D01*
Y-142656D01*
Y-142629D01*
Y-142583D01*
X662796Y-142519D01*
Y-142446D01*
X662787Y-142365D01*
X662760Y-142173D01*
X662714Y-141964D01*
X662650Y-141754D01*
X662559Y-141545D01*
X662505Y-141444D01*
X662441Y-141362D01*
Y-141353D01*
X662423Y-141344D01*
X662377Y-141289D01*
X662304Y-141226D01*
X662204Y-141144D01*
X662077Y-141062D01*
X661931Y-140989D01*
X661767Y-140943D01*
X661676Y-140934D01*
X661585Y-140925D01*
D02*
G37*
G36*
X686501Y-140953D02*
X686446D01*
X686409Y-140962D01*
X686309Y-140971D01*
X686191Y-140998D01*
X686045Y-141044D01*
X685890Y-141107D01*
X685744Y-141198D01*
X685599Y-141317D01*
X685580Y-141335D01*
X685544Y-141381D01*
X685480Y-141463D01*
X685416Y-141572D01*
X685344Y-141700D01*
X685280Y-141864D01*
X685225Y-142055D01*
X685198Y-142264D01*
X687758D01*
Y-142255D01*
Y-142237D01*
X687748Y-142210D01*
Y-142173D01*
X687730Y-142064D01*
X687703Y-141946D01*
X687657Y-141800D01*
X687612Y-141663D01*
X687539Y-141526D01*
X687457Y-141408D01*
Y-141399D01*
X687439Y-141390D01*
X687393Y-141335D01*
X687311Y-141262D01*
X687202Y-141180D01*
X687065Y-141098D01*
X686901Y-141025D01*
X686710Y-140971D01*
X686610Y-140962D01*
X686501Y-140953D01*
D02*
G37*
G36*
X674712D02*
X674657D01*
X674612Y-140962D01*
X674512Y-140971D01*
X674375Y-141007D01*
X674220Y-141062D01*
X674056Y-141135D01*
X673901Y-141244D01*
X673819Y-141317D01*
X673746Y-141390D01*
Y-141399D01*
X673728Y-141408D01*
X673710Y-141435D01*
X673683Y-141472D01*
X673655Y-141517D01*
X673628Y-141572D01*
X673592Y-141645D01*
X673555Y-141718D01*
X673519Y-141809D01*
X673482Y-141900D01*
X673455Y-142009D01*
X673428Y-142128D01*
X673400Y-142255D01*
X673382Y-142392D01*
X673373Y-142547D01*
X673364Y-142702D01*
Y-142711D01*
Y-142738D01*
Y-142784D01*
X673373Y-142847D01*
Y-142920D01*
X673382Y-143002D01*
X673409Y-143193D01*
X673455Y-143412D01*
X673528Y-143631D01*
X673619Y-143840D01*
X673683Y-143931D01*
X673746Y-144023D01*
X673756D01*
X673765Y-144041D01*
X673819Y-144086D01*
X673901Y-144159D01*
X674011Y-144232D01*
X674147Y-144314D01*
X674311Y-144387D01*
X674503Y-144432D01*
X674603Y-144442D01*
X674712Y-144451D01*
X674767D01*
X674812Y-144442D01*
X674913Y-144423D01*
X675049Y-144396D01*
X675195Y-144341D01*
X675359Y-144269D01*
X675514Y-144159D01*
X675596Y-144086D01*
X675669Y-144013D01*
X675678Y-144004D01*
X675687Y-143995D01*
X675705Y-143968D01*
X675732Y-143931D01*
X675760Y-143886D01*
X675796Y-143831D01*
X675833Y-143758D01*
X675869Y-143685D01*
X675906Y-143594D01*
X675933Y-143494D01*
X675969Y-143385D01*
X675997Y-143266D01*
X676024Y-143130D01*
X676042Y-142993D01*
X676060Y-142838D01*
Y-142674D01*
Y-142665D01*
Y-142638D01*
Y-142592D01*
X676051Y-142538D01*
Y-142465D01*
X676042Y-142383D01*
X676015Y-142191D01*
X675969Y-141991D01*
X675896Y-141772D01*
X675796Y-141572D01*
X675742Y-141472D01*
X675669Y-141390D01*
Y-141381D01*
X675651Y-141372D01*
X675596Y-141317D01*
X675514Y-141253D01*
X675405Y-141171D01*
X675268Y-141089D01*
X675104Y-141016D01*
X674922Y-140971D01*
X674822Y-140962D01*
X674712Y-140953D01*
D02*
G37*
G36*
X656583D02*
X656529D01*
X656483Y-140962D01*
X656383Y-140971D01*
X656246Y-141007D01*
X656091Y-141062D01*
X655927Y-141135D01*
X655772Y-141244D01*
X655690Y-141317D01*
X655618Y-141390D01*
Y-141399D01*
X655599Y-141408D01*
X655581Y-141435D01*
X655554Y-141472D01*
X655526Y-141517D01*
X655499Y-141572D01*
X655463Y-141645D01*
X655426Y-141718D01*
X655390Y-141809D01*
X655353Y-141900D01*
X655326Y-142009D01*
X655299Y-142128D01*
X655271Y-142255D01*
X655253Y-142392D01*
X655244Y-142547D01*
X655235Y-142702D01*
Y-142711D01*
Y-142738D01*
Y-142784D01*
X655244Y-142847D01*
Y-142920D01*
X655253Y-143002D01*
X655280Y-143193D01*
X655326Y-143412D01*
X655399Y-143631D01*
X655490Y-143840D01*
X655554Y-143931D01*
X655618Y-144023D01*
X655627D01*
X655636Y-144041D01*
X655690Y-144086D01*
X655772Y-144159D01*
X655882Y-144232D01*
X656018Y-144314D01*
X656182Y-144387D01*
X656374Y-144432D01*
X656474Y-144442D01*
X656583Y-144451D01*
X656638D01*
X656683Y-144442D01*
X656784Y-144423D01*
X656920Y-144396D01*
X657066Y-144341D01*
X657230Y-144269D01*
X657385Y-144159D01*
X657467Y-144086D01*
X657540Y-144013D01*
X657549Y-144004D01*
X657558Y-143995D01*
X657576Y-143968D01*
X657604Y-143931D01*
X657631Y-143886D01*
X657667Y-143831D01*
X657704Y-143758D01*
X657740Y-143685D01*
X657777Y-143594D01*
X657804Y-143494D01*
X657840Y-143385D01*
X657868Y-143266D01*
X657895Y-143130D01*
X657913Y-142993D01*
X657932Y-142838D01*
Y-142674D01*
Y-142665D01*
Y-142638D01*
Y-142592D01*
X657922Y-142538D01*
Y-142465D01*
X657913Y-142383D01*
X657886Y-142191D01*
X657840Y-141991D01*
X657767Y-141772D01*
X657667Y-141572D01*
X657613Y-141472D01*
X657540Y-141390D01*
Y-141381D01*
X657522Y-141372D01*
X657467Y-141317D01*
X657385Y-141253D01*
X657276Y-141171D01*
X657139Y-141089D01*
X656975Y-141016D01*
X656793Y-140971D01*
X656693Y-140962D01*
X656583Y-140953D01*
D02*
G37*
%LPD*%
D11*
X14449Y349882D02*
G03*
X45Y335005I609J-15002D01*
G01*
X326575Y341220D02*
G03*
X314724Y349882I-12571J-4763D01*
G01*
X326575Y341339D02*
G03*
X338898Y331928I13326J4677D01*
G01*
X361631Y319611D02*
G03*
X349410Y331906I-12330J-35D01*
G01*
X339435Y14356D02*
G03*
X327284Y8150I-253J-14503D01*
G01*
X348242Y14356D02*
G03*
X361631Y27953I-102J13490D01*
G01*
X311967Y-72D02*
G03*
X327284Y8150I575J17307D01*
G01*
X29278Y2252D02*
G03*
X34488Y-72I4950J4095D01*
G01*
X29278Y2252D02*
G03*
X21524Y6947I-10086J-7908D01*
G01*
X39Y18032D02*
G03*
X11317Y6947I11796J722D01*
G01*
X39Y18032D02*
Y334880D01*
X14449Y349882D02*
X16575D01*
X314724D01*
X338898Y331928D02*
X349301D01*
X361631Y27953D02*
X361631Y319611D01*
X339181Y14356D02*
X348242D01*
X34488Y-72D02*
X311967Y-72D01*
X11317Y6947D02*
X21524D01*
D60*
X149905Y210930D02*
D03*
X110535D02*
D03*
Y265615D02*
D03*
X149905D02*
D03*
Y319827D02*
D03*
X110535D02*
D03*
D61*
X6717Y214880D02*
D03*
X41953D02*
D03*
Y165142D02*
D03*
X6717D02*
D03*
X41953Y289486D02*
D03*
X6717D02*
D03*
X41953Y190011D02*
D03*
X6717D02*
D03*
X41952Y239749D02*
D03*
X6716D02*
D03*
X41953Y264617D02*
D03*
X6717D02*
D03*
X41953Y314355D02*
D03*
X6717D02*
D03*
D62*
X26795Y202675D02*
D03*
X16953D02*
D03*
X31716D02*
D03*
X21874D02*
D03*
X222622Y21654D02*
D03*
X217701D02*
D03*
X202937D02*
D03*
X207858D02*
D03*
X212779D02*
D03*
X227543D02*
D03*
X237386D02*
D03*
X232465D02*
D03*
X100492D02*
D03*
X105413D02*
D03*
X110335D02*
D03*
X115256D02*
D03*
X64468Y21752D02*
D03*
X44783D02*
D03*
X49705D02*
D03*
X54626D02*
D03*
X59547D02*
D03*
X69390D02*
D03*
X21874Y152938D02*
D03*
X31716D02*
D03*
X16953D02*
D03*
X26795D02*
D03*
X171457Y21752D02*
D03*
X161614D02*
D03*
X156693D02*
D03*
X151772D02*
D03*
X146850D02*
D03*
X166535D02*
D03*
X21874Y277281D02*
D03*
X31716D02*
D03*
X16953D02*
D03*
X26795D02*
D03*
X21874Y177806D02*
D03*
X31716D02*
D03*
X16953D02*
D03*
X26795D02*
D03*
X21874Y227544D02*
D03*
X31716D02*
D03*
X16952D02*
D03*
X26795D02*
D03*
X21874Y252413D02*
D03*
X31716D02*
D03*
X16953D02*
D03*
X26795D02*
D03*
X21874Y302150D02*
D03*
X31716D02*
D03*
X16953D02*
D03*
X26795D02*
D03*
X298038Y21752D02*
D03*
X302959D02*
D03*
X293117D02*
D03*
X278353D02*
D03*
X273432D02*
D03*
X268510D02*
D03*
X283274D02*
D03*
X288195D02*
D03*
X54528Y329823D02*
D03*
X49606D02*
D03*
X59449D02*
D03*
X74213D02*
D03*
X79134D02*
D03*
X84055D02*
D03*
X69291D02*
D03*
X64370D02*
D03*
D63*
X192898Y10236D02*
D03*
X247425D02*
D03*
X90453D02*
D03*
X125295D02*
D03*
X34744Y10335D02*
D03*
X79429D02*
D03*
X181496D02*
D03*
X136811D02*
D03*
X312999D02*
D03*
X258471D02*
D03*
X39567Y341240D02*
D03*
X94095D02*
D03*
D64*
X196992Y50077D02*
D03*
X191480D02*
D03*
X271953Y53213D02*
D03*
X266441D02*
D03*
Y44040D02*
D03*
X271953D02*
D03*
X197307Y59565D02*
D03*
X191795D02*
D03*
D65*
X123016Y45103D02*
D03*
Y57701D02*
D03*
X223606Y291127D02*
D03*
Y303725D02*
D03*
X286142Y143583D02*
D03*
Y130984D02*
D03*
X228606Y116087D02*
D03*
Y128686D02*
D03*
D66*
X159394Y103725D02*
D03*
X146795D02*
D03*
X87425Y253675D02*
D03*
X74827D02*
D03*
X243528Y212859D02*
D03*
X230929D02*
D03*
X300693Y224434D02*
D03*
X288094D02*
D03*
X74827Y198804D02*
D03*
X87425D02*
D03*
X74827Y231727D02*
D03*
X87425D02*
D03*
X74827Y220752D02*
D03*
X87425D02*
D03*
X74827Y209778D02*
D03*
X87425D02*
D03*
X74827Y242701D02*
D03*
X87425D02*
D03*
D67*
X75122Y189079D02*
D03*
X67839D02*
D03*
X79374Y321781D02*
D03*
X86657D02*
D03*
X79216Y315442D02*
D03*
X86500D02*
D03*
X227681Y69827D02*
D03*
X234964D02*
D03*
X288823Y69040D02*
D03*
X296106D02*
D03*
X153248Y76323D02*
D03*
X160531D02*
D03*
X212878Y83568D02*
D03*
X220161D02*
D03*
X271815Y280733D02*
D03*
X264531D02*
D03*
X239862Y201929D02*
D03*
X232579D02*
D03*
X242287Y156717D02*
D03*
X249571D02*
D03*
X297445Y245772D02*
D03*
X290161D02*
D03*
X141326Y140615D02*
D03*
X134042D02*
D03*
X74925Y70221D02*
D03*
X82209D02*
D03*
X147090Y95103D02*
D03*
X154374D02*
D03*
X61264Y182504D02*
D03*
X68547D02*
D03*
D68*
X223291Y276638D02*
D03*
X240614D02*
D03*
D69*
X108094Y77386D02*
D03*
X125496D02*
D03*
D70*
X77701Y292835D02*
D03*
X93449D02*
D03*
X273567Y77426D02*
D03*
X257819D02*
D03*
X197346D02*
D03*
X181598D02*
D03*
X285142Y160694D02*
D03*
X269394D02*
D03*
X93449Y266008D02*
D03*
X77701D02*
D03*
X93449Y279422D02*
D03*
X77701D02*
D03*
D71*
X180339Y97465D02*
D03*
X202386D02*
D03*
X280496Y98449D02*
D03*
X258449D02*
D03*
D72*
X193094Y122701D02*
D03*
Y154985D02*
D03*
D73*
X105772Y107190D02*
D03*
X134272D02*
D03*
D74*
X168429Y314749D02*
D03*
Y309749D02*
D03*
Y304749D02*
D03*
Y299749D02*
D03*
X192858Y314749D02*
D03*
Y309749D02*
D03*
Y304749D02*
D03*
Y299749D02*
D03*
X81480Y63253D02*
D03*
Y58253D02*
D03*
Y53253D02*
D03*
Y48253D02*
D03*
X104118Y63253D02*
D03*
Y58253D02*
D03*
Y53253D02*
D03*
Y48253D02*
D03*
X235181Y64355D02*
D03*
Y59355D02*
D03*
Y54355D02*
D03*
Y49355D02*
D03*
X257819Y64355D02*
D03*
Y59355D02*
D03*
Y54355D02*
D03*
Y49355D02*
D03*
X38016Y104630D02*
D03*
Y99630D02*
D03*
Y94630D02*
D03*
Y89631D02*
D03*
X62445Y104630D02*
D03*
Y99630D02*
D03*
Y94630D02*
D03*
Y89631D02*
D03*
X38055Y81757D02*
D03*
Y76757D02*
D03*
Y71757D02*
D03*
Y66756D02*
D03*
X62484Y81757D02*
D03*
Y76757D02*
D03*
Y71757D02*
D03*
Y66756D02*
D03*
X192815Y215685D02*
D03*
Y220685D02*
D03*
Y225685D02*
D03*
Y230685D02*
D03*
X168386Y215685D02*
D03*
Y220685D02*
D03*
Y225685D02*
D03*
Y230685D02*
D03*
X193016Y248552D02*
D03*
Y253552D02*
D03*
Y258552D02*
D03*
Y263552D02*
D03*
X168587Y248552D02*
D03*
Y253552D02*
D03*
Y258552D02*
D03*
Y263552D02*
D03*
X180417Y54408D02*
D03*
Y59408D02*
D03*
Y64408D02*
D03*
Y69408D02*
D03*
X157779Y54408D02*
D03*
Y59408D02*
D03*
Y64408D02*
D03*
Y69408D02*
D03*
X240378Y301481D02*
D03*
Y296481D02*
D03*
Y291481D02*
D03*
Y286481D02*
D03*
X263016Y301481D02*
D03*
Y296481D02*
D03*
Y291481D02*
D03*
Y286481D02*
D03*
X269751Y134434D02*
D03*
Y139434D02*
D03*
Y144434D02*
D03*
Y149434D02*
D03*
X247113Y134434D02*
D03*
Y139434D02*
D03*
Y144434D02*
D03*
Y149434D02*
D03*
D75*
X163282Y48253D02*
D03*
X157782D02*
D03*
X266171Y48528D02*
D03*
X271671D02*
D03*
X237274Y42505D02*
D03*
X242774D02*
D03*
X191801Y54683D02*
D03*
X197301D02*
D03*
D76*
X146689Y45508D02*
D03*
X133189D02*
D03*
X252840Y117032D02*
D03*
X266340D02*
D03*
X211659Y42938D02*
D03*
X225159D02*
D03*
X133189Y53607D02*
D03*
X146689D02*
D03*
X240514Y77229D02*
D03*
X227014D02*
D03*
X135163Y125575D02*
D03*
X148663D02*
D03*
X159726Y87819D02*
D03*
X146226D02*
D03*
D77*
X92799Y55753D02*
D03*
X246500Y56855D02*
D03*
X169098Y61908D02*
D03*
X251697Y293981D02*
D03*
X258432Y141934D02*
D03*
D78*
X43268Y47788D02*
D03*
Y55788D02*
D03*
X34134Y47788D02*
D03*
Y55788D02*
D03*
X216992Y334497D02*
D03*
Y326497D02*
D03*
X249771Y335617D02*
D03*
Y327617D02*
D03*
X189251Y36119D02*
D03*
Y44119D02*
D03*
X181102Y44905D02*
D03*
Y36906D02*
D03*
X304945Y272819D02*
D03*
Y280820D02*
D03*
Y289394D02*
D03*
Y297394D02*
D03*
X228949Y136694D02*
D03*
Y144694D02*
D03*
Y152363D02*
D03*
Y160363D02*
D03*
X114276Y180796D02*
D03*
Y172796D02*
D03*
X114039Y164890D02*
D03*
Y156890D02*
D03*
D79*
X324961Y35354D02*
D03*
X310079Y317008D02*
D03*
X97087Y155472D02*
D03*
D80*
X146716Y112820D02*
D03*
X159315D02*
D03*
X231047Y222465D02*
D03*
X243646D02*
D03*
X288685Y90615D02*
D03*
X301283D02*
D03*
X288724Y83095D02*
D03*
X301323D02*
D03*
X288724Y75654D02*
D03*
X301323D02*
D03*
X211362Y105142D02*
D03*
X223961D02*
D03*
X211362Y97800D02*
D03*
X223961D02*
D03*
X211362Y90457D02*
D03*
X223961D02*
D03*
X300181Y234276D02*
D03*
X287583D02*
D03*
X134141Y133086D02*
D03*
X146739D02*
D03*
D81*
X217327Y56697D02*
D03*
Y63981D02*
D03*
X223291Y56697D02*
D03*
Y63981D02*
D03*
X211362Y56697D02*
D03*
Y63981D02*
D03*
X134164Y64462D02*
D03*
Y71746D02*
D03*
X146448Y64462D02*
D03*
Y71746D02*
D03*
X140345Y64462D02*
D03*
Y71746D02*
D03*
X231205Y290634D02*
D03*
Y297918D02*
D03*
X279197Y143745D02*
D03*
Y136461D02*
D03*
X148252Y177209D02*
D03*
Y169926D02*
D03*
X246520Y125674D02*
D03*
Y118390D02*
D03*
X116086Y57741D02*
D03*
Y50457D02*
D03*
D82*
X219551Y117662D02*
D03*
Y130260D02*
D03*
D83*
X163685Y133725D02*
D03*
Y149473D02*
D03*
D84*
X247346Y247308D02*
D03*
X215063D02*
D03*
X297504Y194434D02*
D03*
X265220D02*
D03*
D85*
X10433Y37008D02*
D03*
Y81693D02*
D03*
D86*
X21850Y47047D02*
D03*
Y56890D02*
D03*
Y61811D02*
D03*
Y66732D02*
D03*
Y71653D02*
D03*
Y51968D02*
D03*
D87*
X226189Y316459D02*
D03*
X231189D02*
D03*
X236189D02*
D03*
X241189D02*
D03*
X226189Y340888D02*
D03*
X231189D02*
D03*
X236189D02*
D03*
X241189D02*
D03*
X257567Y316459D02*
D03*
X262567D02*
D03*
X267567D02*
D03*
X272567D02*
D03*
X257567Y340888D02*
D03*
X262567D02*
D03*
X267567D02*
D03*
X272567D02*
D03*
X123291Y150142D02*
D03*
X128291D02*
D03*
X133291D02*
D03*
X138291D02*
D03*
X123291Y172780D02*
D03*
X128291D02*
D03*
X133291D02*
D03*
X138291D02*
D03*
D88*
X309591Y49022D02*
D03*
Y62522D02*
D03*
X213803Y292762D02*
D03*
Y306262D02*
D03*
X249646Y187841D02*
D03*
Y201341D02*
D03*
X294315Y143507D02*
D03*
Y130007D02*
D03*
X304503Y263940D02*
D03*
Y250440D02*
D03*
D89*
X269979Y35890D02*
D03*
X261979D02*
D03*
X256357D02*
D03*
X248357D02*
D03*
X293512Y339158D02*
D03*
X285512D02*
D03*
X293512Y331442D02*
D03*
X285512D02*
D03*
X99606Y35733D02*
D03*
X107606D02*
D03*
X114764D02*
D03*
X122764D02*
D03*
D90*
X130791Y161461D02*
D03*
D91*
X19370Y137835D02*
D03*
X9370D02*
D03*
X19370Y127835D02*
D03*
X9370D02*
D03*
X19370Y117835D02*
D03*
X9370D02*
D03*
X19370Y107835D02*
D03*
X9370D02*
D03*
X19370Y97835D02*
D03*
X70157Y131299D02*
D03*
X60158Y141299D02*
D03*
X70157D02*
D03*
X60158Y151299D02*
D03*
X70157D02*
D03*
X60158Y161299D02*
D03*
X70157D02*
D03*
X60158Y171299D02*
D03*
X70157D02*
D03*
X329590Y59040D02*
D03*
X319590D02*
D03*
X329590Y69040D02*
D03*
X319590D02*
D03*
X329590Y79040D02*
D03*
X319590D02*
D03*
X329590Y89040D02*
D03*
X319590D02*
D03*
X329590Y99040D02*
D03*
X319590D02*
D03*
X329590Y109040D02*
D03*
X319590D02*
D03*
X329590Y119040D02*
D03*
X319590D02*
D03*
X329590Y129040D02*
D03*
X319590D02*
D03*
X329590Y139040D02*
D03*
X319590D02*
D03*
X329590Y149040D02*
D03*
X319590D02*
D03*
X329590Y159040D02*
D03*
X319590D02*
D03*
X329590Y169040D02*
D03*
X319590D02*
D03*
X329590Y179040D02*
D03*
X319590D02*
D03*
X329590Y189040D02*
D03*
X319590D02*
D03*
X329590Y199040D02*
D03*
X319590D02*
D03*
X329590Y209040D02*
D03*
X319590D02*
D03*
X329590Y219040D02*
D03*
X319590Y218942D02*
D03*
X329590Y229040D02*
D03*
X319590D02*
D03*
X329590Y239040D02*
D03*
X319590D02*
D03*
X329590Y249040D02*
D03*
X319590D02*
D03*
X329590Y259040D02*
D03*
X319590D02*
D03*
X329590Y269040D02*
D03*
X319590D02*
D03*
X329590Y279040D02*
D03*
X319590D02*
D03*
X329590Y289040D02*
D03*
X319590D02*
D03*
X329590Y299040D02*
D03*
X319590Y49040D02*
D03*
X329590D02*
D03*
X349590D02*
D03*
X339590D02*
D03*
X349590Y299040D02*
D03*
X339590Y289040D02*
D03*
X349590D02*
D03*
X339590Y279040D02*
D03*
X349590D02*
D03*
X339590Y269040D02*
D03*
X349590D02*
D03*
X339571Y259040D02*
D03*
X349590D02*
D03*
X339571Y249040D02*
D03*
X349590D02*
D03*
X339590Y239040D02*
D03*
X349590D02*
D03*
X339590Y229040D02*
D03*
X349590D02*
D03*
X339590Y218942D02*
D03*
X349590Y219040D02*
D03*
X339590Y209040D02*
D03*
X349590D02*
D03*
X339590Y199040D02*
D03*
X349590D02*
D03*
X339590Y189040D02*
D03*
X349590D02*
D03*
X339590Y179040D02*
D03*
X349590D02*
D03*
X339590Y169040D02*
D03*
X349590D02*
D03*
X339590Y159040D02*
D03*
X349590D02*
D03*
X339590Y149040D02*
D03*
X349590D02*
D03*
X339590Y139040D02*
D03*
X349590D02*
D03*
X339590Y129040D02*
D03*
X349590D02*
D03*
X339590Y119040D02*
D03*
X349590D02*
D03*
X339590Y109040D02*
D03*
X349590D02*
D03*
X339590Y99040D02*
D03*
X349590D02*
D03*
X339590Y89040D02*
D03*
X349590D02*
D03*
X339590Y79040D02*
D03*
X349590D02*
D03*
X339590Y69040D02*
D03*
X349590D02*
D03*
X339590Y59040D02*
D03*
X349590D02*
D03*
D92*
X9370Y97835D02*
D03*
X60158Y131299D02*
D03*
X319590Y299040D02*
D03*
X339571D02*
D03*
D93*
X307972Y156004D02*
D03*
D94*
Y146004D02*
D03*
Y136004D02*
D03*
X169646Y37964D02*
D03*
D95*
X159646D02*
D03*
D96*
X165732Y322977D02*
D03*
X74528Y114119D02*
D03*
X319488Y24882D02*
D03*
X329764Y24685D02*
D03*
D97*
X288591Y47736D02*
D03*
X349606Y29052D02*
D03*
X12303Y19209D02*
D03*
Y334268D02*
D03*
X349570Y319126D02*
D03*
X60378Y308174D02*
D03*
X288591Y308136D02*
D03*
X60391Y47736D02*
D03*
X174490Y177979D02*
D03*
D98*
X30906Y325590D02*
D03*
X190457Y323174D02*
D03*
X184039Y272662D02*
D03*
X193228Y205079D02*
D03*
X310181Y339512D02*
D03*
X320693Y329394D02*
D03*
X97228Y208449D02*
D03*
X199787Y334827D02*
D03*
X160693Y238016D02*
D03*
X163803Y271993D02*
D03*
X265496Y238253D02*
D03*
X263803Y257741D02*
D03*
X97071Y222544D02*
D03*
X167370Y83686D02*
D03*
X98842Y137072D02*
D03*
X84905Y134473D02*
D03*
X80748Y307205D02*
D03*
X330315Y319126D02*
D03*
X28567Y31875D02*
D03*
X28055Y344079D02*
D03*
D99*
X159749Y168504D02*
D03*
X158858Y163976D02*
D03*
D100*
X89960Y49409D02*
D03*
X249590Y48961D02*
D03*
X243252Y60851D02*
D03*
X89512Y54906D02*
D03*
X96047D02*
D03*
X131441Y163646D02*
D03*
X125181D02*
D03*
X136913D02*
D03*
X136874Y158607D02*
D03*
X125654D02*
D03*
X131264D02*
D03*
X249157Y288646D02*
D03*
X249590Y60851D02*
D03*
X243252Y48961D02*
D03*
X96047Y60851D02*
D03*
X89512D02*
D03*
X96047Y48961D02*
D03*
X249590Y54906D02*
D03*
X243252D02*
D03*
X255063Y300457D02*
D03*
X249157D02*
D03*
Y294552D02*
D03*
X255063D02*
D03*
X254747Y288960D02*
D03*
M02*
