G04*
G04 #@! TF.GenerationSoftware,Altium Limited,Altium Designer,23.0.1 (38)*
G04*
G04 Layer_Color=2752767*
%FSLAX25Y25*%
%MOIN*%
G70*
G04*
G04 #@! TF.SameCoordinates,CCA4EEAC-205A-4764-8855-BE0F0513998D*
G04*
G04*
G04 #@! TF.FilePolarity,Positive*
G04*
G01*
G75*
%ADD10C,0.01000*%
%ADD12C,0.01500*%
%ADD179C,0.00200*%
%ADD180C,0.01600*%
G36*
X687839Y-139558D02*
X687061D01*
Y-138674D01*
X687839D01*
Y-139558D01*
D02*
G37*
G36*
X658952D02*
X658173D01*
Y-138674D01*
X658952D01*
Y-139558D01*
D02*
G37*
G36*
X691318Y-140318D02*
X691414Y-140327D01*
X691530Y-140347D01*
X691664Y-140375D01*
X691789Y-140414D01*
X691924Y-140462D01*
X691943Y-140471D01*
X691981Y-140491D01*
X692039Y-140520D01*
X692116Y-140568D01*
X692202Y-140625D01*
X692289Y-140692D01*
X692375Y-140769D01*
X692442Y-140856D01*
X692452Y-140866D01*
X692471Y-140894D01*
X692500Y-140952D01*
X692538Y-141019D01*
X692577Y-141096D01*
X692615Y-141192D01*
X692654Y-141308D01*
X692683Y-141423D01*
Y-141432D01*
X692692Y-141461D01*
X692702Y-141519D01*
X692711Y-141596D01*
Y-141702D01*
X692721Y-141836D01*
X692731Y-141990D01*
Y-142182D01*
Y-144988D01*
X691952D01*
Y-142211D01*
Y-142201D01*
Y-142192D01*
Y-142134D01*
Y-142048D01*
X691943Y-141942D01*
X691933Y-141836D01*
X691914Y-141711D01*
X691885Y-141605D01*
X691856Y-141509D01*
Y-141500D01*
X691837Y-141471D01*
X691818Y-141423D01*
X691789Y-141375D01*
X691741Y-141308D01*
X691683Y-141250D01*
X691616Y-141183D01*
X691539Y-141125D01*
X691530Y-141115D01*
X691501Y-141106D01*
X691453Y-141077D01*
X691385Y-141048D01*
X691308Y-141029D01*
X691212Y-141000D01*
X691116Y-140990D01*
X691001Y-140981D01*
X690914D01*
X690828Y-141000D01*
X690703Y-141019D01*
X690568Y-141058D01*
X690434Y-141115D01*
X690280Y-141192D01*
X690146Y-141298D01*
X690126Y-141317D01*
X690088Y-141365D01*
X690030Y-141442D01*
X690001Y-141500D01*
X689973Y-141567D01*
X689934Y-141644D01*
X689905Y-141730D01*
X689877Y-141826D01*
X689848Y-141932D01*
X689819Y-142057D01*
X689809Y-142192D01*
X689790Y-142336D01*
Y-142490D01*
Y-144988D01*
X689012D01*
Y-140414D01*
X689713D01*
Y-141067D01*
X689723Y-141058D01*
X689732Y-141039D01*
X689761Y-141000D01*
X689809Y-140952D01*
X689857Y-140894D01*
X689925Y-140827D01*
X689992Y-140760D01*
X690078Y-140683D01*
X690184Y-140616D01*
X690290Y-140548D01*
X690405Y-140481D01*
X690540Y-140424D01*
X690674Y-140375D01*
X690828Y-140337D01*
X690991Y-140318D01*
X691164Y-140308D01*
X691231D01*
X691318Y-140318D01*
D02*
G37*
G36*
X674683D02*
X674789Y-140337D01*
X674904Y-140375D01*
X675039Y-140414D01*
X675183Y-140481D01*
X675337Y-140568D01*
X675058Y-141279D01*
X675048Y-141269D01*
X675010Y-141250D01*
X674952Y-141221D01*
X674885Y-141192D01*
X674798Y-141163D01*
X674702Y-141135D01*
X674597Y-141115D01*
X674491Y-141106D01*
X674452D01*
X674404Y-141115D01*
X674337Y-141125D01*
X674270Y-141144D01*
X674193Y-141173D01*
X674116Y-141211D01*
X674039Y-141260D01*
X674030Y-141269D01*
X674010Y-141288D01*
X673972Y-141327D01*
X673934Y-141375D01*
X673885Y-141432D01*
X673837Y-141509D01*
X673799Y-141596D01*
X673761Y-141692D01*
X673751Y-141711D01*
X673741Y-141759D01*
X673722Y-141846D01*
X673703Y-141961D01*
X673674Y-142096D01*
X673655Y-142249D01*
X673645Y-142413D01*
X673636Y-142595D01*
Y-144988D01*
X672857D01*
Y-140414D01*
X673559D01*
Y-141096D01*
X673568Y-141086D01*
X673607Y-141029D01*
X673655Y-140942D01*
X673712Y-140846D01*
X673789Y-140741D01*
X673876Y-140635D01*
X673953Y-140539D01*
X674039Y-140471D01*
X674049Y-140462D01*
X674078Y-140443D01*
X674126Y-140424D01*
X674193Y-140385D01*
X674260Y-140356D01*
X674347Y-140337D01*
X674443Y-140318D01*
X674539Y-140308D01*
X674606D01*
X674683Y-140318D01*
D02*
G37*
G36*
X657058D02*
X657164Y-140337D01*
X657279Y-140375D01*
X657414Y-140414D01*
X657558Y-140481D01*
X657712Y-140568D01*
X657433Y-141279D01*
X657424Y-141269D01*
X657385Y-141250D01*
X657328Y-141221D01*
X657260Y-141192D01*
X657174Y-141163D01*
X657078Y-141135D01*
X656972Y-141115D01*
X656866Y-141106D01*
X656828D01*
X656780Y-141115D01*
X656712Y-141125D01*
X656645Y-141144D01*
X656568Y-141173D01*
X656491Y-141211D01*
X656415Y-141260D01*
X656405Y-141269D01*
X656386Y-141288D01*
X656347Y-141327D01*
X656309Y-141375D01*
X656261Y-141432D01*
X656213Y-141509D01*
X656174Y-141596D01*
X656136Y-141692D01*
X656126Y-141711D01*
X656117Y-141759D01*
X656097Y-141846D01*
X656078Y-141961D01*
X656049Y-142096D01*
X656030Y-142249D01*
X656020Y-142413D01*
X656011Y-142595D01*
Y-144988D01*
X655232D01*
Y-140414D01*
X655934D01*
Y-141096D01*
X655944Y-141086D01*
X655982Y-141029D01*
X656030Y-140942D01*
X656088Y-140846D01*
X656165Y-140741D01*
X656251Y-140635D01*
X656328Y-140539D01*
X656415Y-140471D01*
X656424Y-140462D01*
X656453Y-140443D01*
X656501Y-140424D01*
X656568Y-140385D01*
X656636Y-140356D01*
X656722Y-140337D01*
X656818Y-140318D01*
X656914Y-140308D01*
X656982D01*
X657058Y-140318D01*
D02*
G37*
G36*
X684966Y-144988D02*
X684168D01*
X683448Y-142259D01*
X683265Y-141471D01*
X682333Y-144988D01*
X681506D01*
X680132Y-140414D01*
X680949D01*
X681670Y-143057D01*
X681929Y-144037D01*
Y-144027D01*
X681939Y-144008D01*
X681948Y-143970D01*
X681958Y-143941D01*
X681967Y-143893D01*
X681977Y-143845D01*
X681996Y-143777D01*
X682016Y-143701D01*
X682035Y-143614D01*
X682064Y-143508D01*
X682092Y-143383D01*
X682131Y-143249D01*
X682169Y-143095D01*
X682900Y-140414D01*
X683688D01*
X684380Y-143076D01*
X684601Y-143950D01*
X684860Y-143066D01*
X685658Y-140414D01*
X686407D01*
X684966Y-144988D01*
D02*
G37*
G36*
X687839D02*
X687061D01*
Y-140414D01*
X687839D01*
Y-144988D01*
D02*
G37*
G36*
X677922Y-140318D02*
X678056Y-140327D01*
X678210Y-140347D01*
X678373Y-140366D01*
X678527Y-140404D01*
X678671Y-140452D01*
X678690Y-140462D01*
X678729Y-140471D01*
X678796Y-140510D01*
X678873Y-140548D01*
X678960Y-140596D01*
X679056Y-140654D01*
X679133Y-140721D01*
X679209Y-140798D01*
X679219Y-140808D01*
X679238Y-140837D01*
X679267Y-140875D01*
X679306Y-140942D01*
X679344Y-141019D01*
X679382Y-141106D01*
X679421Y-141211D01*
X679450Y-141327D01*
Y-141336D01*
X679459Y-141365D01*
X679469Y-141413D01*
X679479Y-141490D01*
Y-141586D01*
X679488Y-141711D01*
X679498Y-141855D01*
Y-142038D01*
Y-143076D01*
Y-143085D01*
Y-143124D01*
Y-143182D01*
Y-143249D01*
Y-143335D01*
Y-143431D01*
X679507Y-143652D01*
Y-143893D01*
X679517Y-144114D01*
X679527Y-144219D01*
Y-144306D01*
X679536Y-144383D01*
X679546Y-144450D01*
Y-144460D01*
X679555Y-144498D01*
X679565Y-144556D01*
X679584Y-144623D01*
X679613Y-144700D01*
X679651Y-144796D01*
X679738Y-144988D01*
X678931D01*
X678921Y-144979D01*
X678911Y-144950D01*
X678892Y-144892D01*
X678863Y-144825D01*
X678835Y-144738D01*
X678815Y-144642D01*
X678796Y-144536D01*
X678777Y-144412D01*
X678758Y-144431D01*
X678700Y-144469D01*
X678623Y-144536D01*
X678508Y-144613D01*
X678383Y-144710D01*
X678239Y-144796D01*
X678095Y-144873D01*
X677941Y-144940D01*
X677922Y-144950D01*
X677874Y-144959D01*
X677797Y-144988D01*
X677691Y-145017D01*
X677557Y-145046D01*
X677412Y-145065D01*
X677259Y-145084D01*
X677086Y-145094D01*
X677018D01*
X676961Y-145084D01*
X676903D01*
X676826Y-145075D01*
X676663Y-145046D01*
X676471Y-145007D01*
X676288Y-144940D01*
X676096Y-144854D01*
X675932Y-144729D01*
X675913Y-144710D01*
X675865Y-144661D01*
X675808Y-144585D01*
X675731Y-144469D01*
X675654Y-144335D01*
X675596Y-144181D01*
X675548Y-143989D01*
X675529Y-143787D01*
Y-143768D01*
Y-143729D01*
X675538Y-143662D01*
X675548Y-143585D01*
X675567Y-143489D01*
X675587Y-143383D01*
X675625Y-143278D01*
X675673Y-143172D01*
X675683Y-143162D01*
X675702Y-143124D01*
X675731Y-143076D01*
X675779Y-143008D01*
X675836Y-142941D01*
X675913Y-142864D01*
X675990Y-142797D01*
X676077Y-142730D01*
X676086Y-142720D01*
X676125Y-142701D01*
X676173Y-142672D01*
X676240Y-142634D01*
X676326Y-142586D01*
X676413Y-142547D01*
X676519Y-142509D01*
X676634Y-142470D01*
X676644D01*
X676682Y-142461D01*
X676730Y-142451D01*
X676807Y-142432D01*
X676903Y-142413D01*
X677028Y-142394D01*
X677163Y-142374D01*
X677326Y-142355D01*
X677336D01*
X677364Y-142345D01*
X677412D01*
X677480Y-142336D01*
X677557Y-142326D01*
X677643Y-142317D01*
X677854Y-142278D01*
X678076Y-142240D01*
X678306Y-142201D01*
X678527Y-142144D01*
X678623Y-142115D01*
X678710Y-142086D01*
Y-142076D01*
Y-142057D01*
X678719Y-141999D01*
Y-141932D01*
Y-141903D01*
Y-141884D01*
Y-141875D01*
Y-141865D01*
Y-141807D01*
X678710Y-141721D01*
X678690Y-141625D01*
X678662Y-141519D01*
X678623Y-141404D01*
X678575Y-141308D01*
X678498Y-141221D01*
X678489Y-141211D01*
X678441Y-141183D01*
X678373Y-141135D01*
X678277Y-141086D01*
X678152Y-141039D01*
X677999Y-140990D01*
X677816Y-140962D01*
X677614Y-140952D01*
X677528D01*
X677432Y-140962D01*
X677307Y-140971D01*
X677172Y-141000D01*
X677047Y-141029D01*
X676913Y-141077D01*
X676807Y-141144D01*
X676797Y-141154D01*
X676768Y-141183D01*
X676720Y-141231D01*
X676663Y-141298D01*
X676595Y-141394D01*
X676538Y-141509D01*
X676471Y-141654D01*
X676423Y-141817D01*
X675663Y-141711D01*
Y-141702D01*
X675673Y-141692D01*
X675683Y-141634D01*
X675711Y-141548D01*
X675740Y-141432D01*
X675788Y-141308D01*
X675846Y-141183D01*
X675913Y-141048D01*
X676000Y-140933D01*
X676009Y-140923D01*
X676048Y-140885D01*
X676096Y-140827D01*
X676173Y-140760D01*
X676269Y-140692D01*
X676394Y-140616D01*
X676528Y-140539D01*
X676682Y-140471D01*
X676692D01*
X676701Y-140462D01*
X676730Y-140452D01*
X676759Y-140443D01*
X676855Y-140424D01*
X676980Y-140385D01*
X677134Y-140356D01*
X677307Y-140337D01*
X677508Y-140318D01*
X677720Y-140308D01*
X677816D01*
X677922Y-140318D01*
D02*
G37*
G36*
X669186Y-138684D02*
X669359Y-138694D01*
X669551Y-138713D01*
X669734Y-138742D01*
X669888Y-138770D01*
X669897D01*
X669917Y-138780D01*
X669936D01*
X669974Y-138799D01*
X670080Y-138828D01*
X670205Y-138876D01*
X670349Y-138934D01*
X670503Y-139011D01*
X670656Y-139107D01*
X670810Y-139222D01*
X670820D01*
X670829Y-139241D01*
X670897Y-139299D01*
X670983Y-139395D01*
X671089Y-139520D01*
X671214Y-139674D01*
X671339Y-139857D01*
X671454Y-140068D01*
X671560Y-140308D01*
Y-140318D01*
X671569Y-140337D01*
X671579Y-140375D01*
X671598Y-140424D01*
X671618Y-140481D01*
X671637Y-140558D01*
X671666Y-140645D01*
X671685Y-140741D01*
X671704Y-140846D01*
X671733Y-140962D01*
X671771Y-141211D01*
X671800Y-141490D01*
X671810Y-141798D01*
Y-141807D01*
Y-141826D01*
Y-141865D01*
Y-141923D01*
X671800Y-141980D01*
Y-142057D01*
X671791Y-142230D01*
X671771Y-142422D01*
X671733Y-142643D01*
X671694Y-142864D01*
X671637Y-143076D01*
Y-143085D01*
X671627Y-143105D01*
X671618Y-143133D01*
X671608Y-143172D01*
X671569Y-143268D01*
X671521Y-143403D01*
X671464Y-143547D01*
X671387Y-143701D01*
X671300Y-143854D01*
X671204Y-143998D01*
X671195Y-144018D01*
X671156Y-144056D01*
X671108Y-144123D01*
X671031Y-144210D01*
X670954Y-144296D01*
X670849Y-144392D01*
X670743Y-144489D01*
X670628Y-144575D01*
X670618Y-144585D01*
X670570Y-144604D01*
X670503Y-144642D01*
X670416Y-144690D01*
X670311Y-144738D01*
X670186Y-144786D01*
X670042Y-144834D01*
X669878Y-144883D01*
X669859D01*
X669801Y-144902D01*
X669715Y-144911D01*
X669590Y-144931D01*
X669446Y-144950D01*
X669273Y-144969D01*
X669080Y-144979D01*
X668869Y-144988D01*
X666601D01*
Y-138674D01*
X669023D01*
X669186Y-138684D01*
D02*
G37*
G36*
X662853Y-144988D02*
X662075D01*
Y-138674D01*
X662853D01*
Y-144988D01*
D02*
G37*
G36*
X660893D02*
X660114D01*
Y-138674D01*
X660893D01*
Y-144988D01*
D02*
G37*
G36*
X658952D02*
X658173D01*
Y-140414D01*
X658952D01*
Y-144988D01*
D02*
G37*
G36*
X651561Y-138684D02*
X651734Y-138694D01*
X651927Y-138713D01*
X652109Y-138742D01*
X652263Y-138770D01*
X652273D01*
X652292Y-138780D01*
X652311D01*
X652350Y-138799D01*
X652455Y-138828D01*
X652580Y-138876D01*
X652724Y-138934D01*
X652878Y-139011D01*
X653032Y-139107D01*
X653186Y-139222D01*
X653195D01*
X653205Y-139241D01*
X653272Y-139299D01*
X653359Y-139395D01*
X653464Y-139520D01*
X653589Y-139674D01*
X653714Y-139857D01*
X653829Y-140068D01*
X653935Y-140308D01*
Y-140318D01*
X653945Y-140337D01*
X653954Y-140375D01*
X653974Y-140424D01*
X653993Y-140481D01*
X654012Y-140558D01*
X654041Y-140645D01*
X654060Y-140741D01*
X654079Y-140846D01*
X654108Y-140962D01*
X654147Y-141211D01*
X654175Y-141490D01*
X654185Y-141798D01*
Y-141807D01*
Y-141826D01*
Y-141865D01*
Y-141923D01*
X654175Y-141980D01*
Y-142057D01*
X654166Y-142230D01*
X654147Y-142422D01*
X654108Y-142643D01*
X654070Y-142864D01*
X654012Y-143076D01*
Y-143085D01*
X654002Y-143105D01*
X653993Y-143133D01*
X653983Y-143172D01*
X653945Y-143268D01*
X653897Y-143403D01*
X653839Y-143547D01*
X653762Y-143701D01*
X653676Y-143854D01*
X653580Y-143998D01*
X653570Y-144018D01*
X653532Y-144056D01*
X653483Y-144123D01*
X653407Y-144210D01*
X653330Y-144296D01*
X653224Y-144392D01*
X653118Y-144489D01*
X653003Y-144575D01*
X652993Y-144585D01*
X652945Y-144604D01*
X652878Y-144642D01*
X652792Y-144690D01*
X652686Y-144738D01*
X652561Y-144786D01*
X652417Y-144834D01*
X652253Y-144883D01*
X652234D01*
X652177Y-144902D01*
X652090Y-144911D01*
X651965Y-144931D01*
X651821Y-144950D01*
X651648Y-144969D01*
X651456Y-144979D01*
X651244Y-144988D01*
X648976D01*
Y-138674D01*
X651398D01*
X651561Y-138684D01*
D02*
G37*
G36*
X695729Y-140318D02*
X695796Y-140327D01*
X695883Y-140347D01*
X696065Y-140395D01*
X696171Y-140424D01*
X696277Y-140471D01*
X696392Y-140520D01*
X696507Y-140587D01*
X696613Y-140664D01*
X696729Y-140750D01*
X696834Y-140856D01*
X696930Y-140971D01*
Y-140414D01*
X697641D01*
Y-144373D01*
Y-144383D01*
Y-144421D01*
Y-144469D01*
Y-144546D01*
X697632Y-144633D01*
Y-144729D01*
X697622Y-144844D01*
X697613Y-144959D01*
X697584Y-145200D01*
X697545Y-145449D01*
X697497Y-145680D01*
X697459Y-145786D01*
X697420Y-145872D01*
Y-145882D01*
X697411Y-145891D01*
X697382Y-145949D01*
X697324Y-146026D01*
X697257Y-146132D01*
X697161Y-146247D01*
X697046Y-146362D01*
X696902Y-146478D01*
X696738Y-146583D01*
X696729D01*
X696719Y-146593D01*
X696690Y-146603D01*
X696652Y-146622D01*
X696556Y-146670D01*
X696421Y-146708D01*
X696248Y-146756D01*
X696046Y-146804D01*
X695825Y-146833D01*
X695575Y-146843D01*
X695498D01*
X695441Y-146833D01*
X695373D01*
X695287Y-146824D01*
X695104Y-146795D01*
X694893Y-146747D01*
X694672Y-146689D01*
X694451Y-146593D01*
X694249Y-146468D01*
X694240D01*
X694230Y-146449D01*
X694172Y-146401D01*
X694095Y-146314D01*
X693999Y-146189D01*
X693913Y-146036D01*
X693836Y-145844D01*
X693788Y-145623D01*
X693769Y-145498D01*
Y-145363D01*
X694518Y-145469D01*
Y-145488D01*
X694528Y-145526D01*
X694547Y-145584D01*
X694566Y-145661D01*
X694605Y-145747D01*
X694653Y-145834D01*
X694710Y-145911D01*
X694787Y-145978D01*
X694797Y-145988D01*
X694845Y-146017D01*
X694903Y-146045D01*
X694999Y-146084D01*
X695104Y-146132D01*
X695239Y-146161D01*
X695402Y-146189D01*
X695575Y-146199D01*
X695662D01*
X695758Y-146189D01*
X695883Y-146170D01*
X696017Y-146141D01*
X696152Y-146103D01*
X696286Y-146055D01*
X696402Y-145978D01*
X696411Y-145968D01*
X696450Y-145940D01*
X696498Y-145891D01*
X696565Y-145824D01*
X696632Y-145738D01*
X696690Y-145642D01*
X696748Y-145517D01*
X696796Y-145382D01*
Y-145373D01*
X696805Y-145334D01*
X696815Y-145267D01*
X696825Y-145171D01*
X696844Y-145036D01*
Y-144950D01*
X696853Y-144863D01*
Y-144758D01*
Y-144652D01*
Y-144527D01*
Y-144392D01*
X696844Y-144402D01*
X696834Y-144421D01*
X696805Y-144450D01*
X696767Y-144489D01*
X696709Y-144527D01*
X696652Y-144585D01*
X696507Y-144690D01*
X696325Y-144796D01*
X696104Y-144892D01*
X695989Y-144931D01*
X695864Y-144959D01*
X695729Y-144979D01*
X695595Y-144988D01*
X695508D01*
X695441Y-144979D01*
X695364Y-144969D01*
X695268Y-144950D01*
X695172Y-144931D01*
X695056Y-144902D01*
X694941Y-144873D01*
X694826Y-144825D01*
X694701Y-144767D01*
X694585Y-144700D01*
X694460Y-144623D01*
X694345Y-144536D01*
X694240Y-144431D01*
X694134Y-144316D01*
X694124Y-144306D01*
X694114Y-144287D01*
X694086Y-144248D01*
X694057Y-144191D01*
X694019Y-144123D01*
X693970Y-144046D01*
X693922Y-143960D01*
X693874Y-143854D01*
X693826Y-143739D01*
X693778Y-143614D01*
X693740Y-143479D01*
X693692Y-143335D01*
X693634Y-143028D01*
X693624Y-142855D01*
X693615Y-142682D01*
Y-142672D01*
Y-142653D01*
Y-142614D01*
Y-142567D01*
X693624Y-142509D01*
Y-142442D01*
X693644Y-142288D01*
X693673Y-142096D01*
X693711Y-141894D01*
X693769Y-141682D01*
X693846Y-141471D01*
Y-141461D01*
X693855Y-141442D01*
X693874Y-141413D01*
X693893Y-141375D01*
X693942Y-141279D01*
X694019Y-141154D01*
X694124Y-141019D01*
X694240Y-140875D01*
X694374Y-140741D01*
X694537Y-140616D01*
X694547D01*
X694557Y-140606D01*
X694585Y-140587D01*
X694614Y-140568D01*
X694710Y-140520D01*
X694835Y-140462D01*
X694999Y-140404D01*
X695172Y-140356D01*
X695373Y-140318D01*
X695595Y-140308D01*
X695671D01*
X695729Y-140318D01*
D02*
G37*
%LPC*%
G36*
X678710Y-142691D02*
X678690Y-142701D01*
X678662Y-142711D01*
X678633Y-142720D01*
X678585Y-142739D01*
X678527Y-142749D01*
X678470Y-142768D01*
X678393Y-142797D01*
X678306Y-142816D01*
X678210Y-142836D01*
X678114Y-142864D01*
X677999Y-142893D01*
X677874Y-142912D01*
X677739Y-142941D01*
X677595Y-142961D01*
X677441Y-142989D01*
X677422D01*
X677364Y-142999D01*
X677278Y-143018D01*
X677172Y-143037D01*
X676951Y-143085D01*
X676845Y-143114D01*
X676759Y-143143D01*
X676749D01*
X676730Y-143162D01*
X676692Y-143182D01*
X676653Y-143210D01*
X676557Y-143287D01*
X676461Y-143403D01*
Y-143412D01*
X676442Y-143431D01*
X676432Y-143460D01*
X676413Y-143508D01*
X676374Y-143624D01*
X676365Y-143691D01*
X676355Y-143768D01*
Y-143777D01*
Y-143816D01*
X676365Y-143873D01*
X676384Y-143950D01*
X676413Y-144027D01*
X676451Y-144114D01*
X676509Y-144200D01*
X676586Y-144287D01*
X676595Y-144296D01*
X676634Y-144316D01*
X676682Y-144354D01*
X676759Y-144383D01*
X676855Y-144421D01*
X676980Y-144460D01*
X677114Y-144479D01*
X677278Y-144489D01*
X677355D01*
X677432Y-144479D01*
X677547Y-144460D01*
X677662Y-144440D01*
X677797Y-144412D01*
X677931Y-144364D01*
X678066Y-144296D01*
X678085Y-144287D01*
X678124Y-144258D01*
X678191Y-144219D01*
X678268Y-144152D01*
X678344Y-144085D01*
X678431Y-143989D01*
X678517Y-143883D01*
X678585Y-143758D01*
X678594Y-143748D01*
X678604Y-143710D01*
X678623Y-143652D01*
X678652Y-143566D01*
X678671Y-143451D01*
X678690Y-143316D01*
X678700Y-143162D01*
X678710Y-142980D01*
Y-142691D01*
D02*
G37*
G36*
X668754Y-139414D02*
X667437D01*
Y-144248D01*
X668879D01*
X668984Y-144239D01*
X669129Y-144229D01*
X669282Y-144219D01*
X669446Y-144200D01*
X669599Y-144171D01*
X669744Y-144133D01*
X669763Y-144123D01*
X669801Y-144114D01*
X669869Y-144085D01*
X669945Y-144046D01*
X670042Y-143998D01*
X670138Y-143950D01*
X670224Y-143883D01*
X670311Y-143806D01*
X670320Y-143797D01*
X670359Y-143748D01*
X670416Y-143681D01*
X670484Y-143595D01*
X670551Y-143479D01*
X670628Y-143345D01*
X670705Y-143182D01*
X670772Y-143008D01*
Y-142999D01*
X670782Y-142989D01*
X670791Y-142961D01*
X670801Y-142922D01*
X670810Y-142874D01*
X670829Y-142816D01*
X670858Y-142672D01*
X670887Y-142490D01*
X670916Y-142278D01*
X670935Y-142048D01*
X670945Y-141788D01*
Y-141779D01*
Y-141740D01*
Y-141692D01*
Y-141625D01*
X670935Y-141538D01*
X670926Y-141442D01*
X670916Y-141336D01*
X670906Y-141231D01*
X670868Y-140981D01*
X670810Y-140731D01*
X670724Y-140491D01*
X670676Y-140375D01*
X670618Y-140270D01*
Y-140260D01*
X670599Y-140251D01*
X670589Y-140222D01*
X670560Y-140183D01*
X670493Y-140087D01*
X670397Y-139981D01*
X670282Y-139857D01*
X670147Y-139741D01*
X669993Y-139635D01*
X669830Y-139549D01*
X669811Y-139539D01*
X669763Y-139530D01*
X669686Y-139511D01*
X669571Y-139482D01*
X669417Y-139453D01*
X669234Y-139434D01*
X669013Y-139424D01*
X668754Y-139414D01*
D02*
G37*
G36*
X651129D02*
X649812D01*
Y-144248D01*
X651254D01*
X651360Y-144239D01*
X651504Y-144229D01*
X651658Y-144219D01*
X651821Y-144200D01*
X651975Y-144171D01*
X652119Y-144133D01*
X652138Y-144123D01*
X652177Y-144114D01*
X652244Y-144085D01*
X652321Y-144046D01*
X652417Y-143998D01*
X652513Y-143950D01*
X652599Y-143883D01*
X652686Y-143806D01*
X652695Y-143797D01*
X652734Y-143748D01*
X652792Y-143681D01*
X652859Y-143595D01*
X652926Y-143479D01*
X653003Y-143345D01*
X653080Y-143182D01*
X653147Y-143008D01*
Y-142999D01*
X653157Y-142989D01*
X653166Y-142961D01*
X653176Y-142922D01*
X653186Y-142874D01*
X653205Y-142816D01*
X653234Y-142672D01*
X653262Y-142490D01*
X653291Y-142278D01*
X653310Y-142048D01*
X653320Y-141788D01*
Y-141779D01*
Y-141740D01*
Y-141692D01*
Y-141625D01*
X653310Y-141538D01*
X653301Y-141442D01*
X653291Y-141336D01*
X653282Y-141231D01*
X653243Y-140981D01*
X653186Y-140731D01*
X653099Y-140491D01*
X653051Y-140375D01*
X652993Y-140270D01*
Y-140260D01*
X652974Y-140251D01*
X652964Y-140222D01*
X652936Y-140183D01*
X652868Y-140087D01*
X652772Y-139981D01*
X652657Y-139857D01*
X652523Y-139741D01*
X652369Y-139635D01*
X652205Y-139549D01*
X652186Y-139539D01*
X652138Y-139530D01*
X652061Y-139511D01*
X651946Y-139482D01*
X651792Y-139453D01*
X651610Y-139434D01*
X651389Y-139424D01*
X651129Y-139414D01*
D02*
G37*
G36*
X695748Y-140952D02*
X695604D01*
X695566Y-140962D01*
X695470Y-140971D01*
X695345Y-141000D01*
X695210Y-141058D01*
X695056Y-141135D01*
X694912Y-141231D01*
X694835Y-141298D01*
X694768Y-141375D01*
X694749Y-141394D01*
X694739Y-141423D01*
X694710Y-141452D01*
X694682Y-141500D01*
X694653Y-141548D01*
X694624Y-141615D01*
X694595Y-141692D01*
X694557Y-141769D01*
X694528Y-141865D01*
X694499Y-141971D01*
X694470Y-142076D01*
X694432Y-142336D01*
X694413Y-142624D01*
Y-142634D01*
Y-142663D01*
Y-142711D01*
X694422Y-142768D01*
Y-142845D01*
X694432Y-142932D01*
X694460Y-143124D01*
X694499Y-143335D01*
X694566Y-143556D01*
X694653Y-143758D01*
X694710Y-143845D01*
X694768Y-143931D01*
X694787Y-143950D01*
X694835Y-143998D01*
X694912Y-144066D01*
X695018Y-144133D01*
X695143Y-144210D01*
X695297Y-144277D01*
X695470Y-144325D01*
X695566Y-144335D01*
X695662Y-144344D01*
X695710D01*
X695748Y-144335D01*
X695854Y-144325D01*
X695979Y-144296D01*
X696113Y-144248D01*
X696267Y-144171D01*
X696411Y-144075D01*
X696556Y-143941D01*
Y-143931D01*
X696575Y-143921D01*
X696594Y-143893D01*
X696613Y-143864D01*
X696642Y-143816D01*
X696671Y-143768D01*
X696700Y-143701D01*
X696738Y-143624D01*
X696776Y-143537D01*
X696805Y-143441D01*
X696834Y-143335D01*
X696863Y-143220D01*
X696892Y-143095D01*
X696902Y-142961D01*
X696921Y-142807D01*
Y-142653D01*
Y-142643D01*
Y-142614D01*
Y-142576D01*
X696911Y-142518D01*
Y-142442D01*
X696902Y-142365D01*
X696873Y-142173D01*
X696834Y-141971D01*
X696767Y-141759D01*
X696671Y-141557D01*
X696613Y-141471D01*
X696546Y-141384D01*
Y-141375D01*
X696527Y-141365D01*
X696479Y-141317D01*
X696402Y-141250D01*
X696296Y-141163D01*
X696171Y-141086D01*
X696017Y-141019D01*
X695844Y-140971D01*
X695748Y-140952D01*
D02*
G37*
%LPD*%
D10*
X14449Y349882D02*
G03*
X45Y335005I609J-15002D01*
G01*
X326575Y341220D02*
G03*
X314724Y349882I-12571J-4763D01*
G01*
X326575Y341339D02*
G03*
X338898Y331928I13326J4677D01*
G01*
X361631Y319611D02*
G03*
X349410Y331906I-12330J-35D01*
G01*
X339435Y14356D02*
G03*
X327284Y8150I-253J-14503D01*
G01*
X348242Y14356D02*
G03*
X361631Y27953I-102J13490D01*
G01*
X311967Y-72D02*
G03*
X327284Y8150I575J17307D01*
G01*
X29278Y2252D02*
G03*
X34488Y-72I4950J4095D01*
G01*
X29278Y2252D02*
G03*
X21524Y6947I-10086J-7908D01*
G01*
X39Y18032D02*
G03*
X11317Y6947I11796J722D01*
G01*
X39Y18032D02*
Y334880D01*
X14449Y349882D02*
X16575D01*
X314724D01*
X338898Y331928D02*
X349301D01*
X361631Y27953D02*
X361631Y319611D01*
X339181Y14356D02*
X348242D01*
X34488Y-72D02*
X311967Y-72D01*
X11317Y6947D02*
X21524D01*
X471964Y182026D02*
G03*
X471964Y182026I-2642J0D01*
G01*
X466680Y250719D02*
Y252041D01*
X468001Y253362D01*
X466680Y254682D02*
X468001Y253362D01*
X466680Y254682D02*
Y256004D01*
X468001D01*
X469322Y254682D01*
X470643Y256004D01*
X471964D01*
Y254682D02*
Y256004D01*
X470643Y253362D02*
X471964Y254682D01*
X470643Y253362D02*
X471964Y252041D01*
Y250719D02*
Y252041D01*
X470643Y250719D02*
X471964D01*
X469322Y252041D02*
X470643Y250719D01*
X468001D02*
X469322Y252041D01*
X466680Y250719D02*
X468001D01*
Y240151D02*
X469322Y238830D01*
X466680Y240151D02*
X468001D01*
X466680D02*
X468001Y241472D01*
X466680Y242793D02*
X468001Y241472D01*
X466680Y242793D02*
X468001D01*
X469322Y244114D01*
X470643Y242793D01*
X471964D01*
X470643Y241472D02*
X471964Y242793D01*
X470643Y241472D02*
X471964Y240151D01*
X470643D02*
X471964D01*
X469322Y238830D02*
X470643Y240151D01*
X466680Y229583D02*
X469322Y226941D01*
X471964Y229583D01*
X469322Y232225D02*
X471964Y229583D01*
X466680D02*
X469322Y232225D01*
Y215052D02*
X471964Y220336D01*
X466680D02*
X471964D01*
X466680D02*
X469322Y215052D01*
X466680Y203162D02*
X471964D01*
Y208446D01*
X466680D02*
X471964D01*
X466680Y203162D02*
Y208446D01*
Y191273D02*
X469322Y192594D01*
X471964Y191273D01*
X470643Y193915D02*
X471964Y191273D01*
X470643Y193915D02*
X471964Y196557D01*
X469322Y195236D02*
X471964Y196557D01*
X466680D02*
X469322Y195236D01*
X466680Y196557D02*
X468001Y193915D01*
X466680Y191273D02*
X468001Y193915D01*
X467737Y168551D02*
X470907D01*
Y171722D01*
X467737D02*
X470907D01*
X467737Y168551D02*
Y171722D01*
X466680Y167494D02*
X471964D01*
Y172778D01*
X466680D02*
X471964D01*
X466680Y167494D02*
Y172778D01*
X869713Y255474D02*
Y252304D01*
X871298Y250719D01*
X872882Y252304D01*
Y255474D01*
X874467Y250719D02*
X876052D01*
X875259D01*
Y253889D01*
X874467D01*
X879221D02*
X880806D01*
X881598Y253097D01*
Y250719D01*
X879221D01*
X878429Y251512D01*
X879221Y252304D01*
X881598D01*
X869713Y238830D02*
Y243584D01*
X872090D01*
X872882Y242792D01*
Y241207D01*
X872090Y240415D01*
X869713D01*
X875259Y242000D02*
X876844D01*
X877637Y241207D01*
Y238830D01*
X875259D01*
X874467Y239622D01*
X875259Y240415D01*
X877637D01*
X882391Y243584D02*
Y238830D01*
X880014D01*
X879221Y239622D01*
Y241207D01*
X880014Y242000D01*
X882391D01*
X869713Y231695D02*
Y228526D01*
X871298Y226941D01*
X872882Y228526D01*
Y231695D01*
X874467Y226941D02*
X876052D01*
X875259D01*
Y230110D01*
X874467D01*
X879221D02*
X880806D01*
X881598Y229318D01*
Y226941D01*
X879221D01*
X878429Y227733D01*
X879221Y228526D01*
X881598D01*
X869713Y215052D02*
Y219806D01*
X872090D01*
X872882Y219013D01*
Y217429D01*
X872090Y216636D01*
X869713D01*
X875259Y218221D02*
X876844D01*
X877637Y217429D01*
Y215052D01*
X875259D01*
X874467Y215844D01*
X875259Y216636D01*
X877637D01*
X882391Y219806D02*
Y215052D01*
X880014D01*
X879221Y215844D01*
Y217429D01*
X880014Y218221D01*
X882391D01*
X869713Y203162D02*
Y207916D01*
X872090D01*
X872882Y207124D01*
Y205539D01*
X872090Y204747D01*
X869713D01*
X875259Y206332D02*
X876844D01*
X877637Y205539D01*
Y203162D01*
X875259D01*
X874467Y203955D01*
X875259Y204747D01*
X877637D01*
X882391Y207916D02*
Y203162D01*
X880014D01*
X879221Y203955D01*
Y205539D01*
X880014Y206332D01*
X882391D01*
X869713Y196027D02*
Y192858D01*
X871298Y191273D01*
X872882Y192858D01*
Y196027D01*
X874467Y191273D02*
X876052D01*
X875259D01*
Y194442D01*
X874467D01*
X879221D02*
X880806D01*
X881598Y193650D01*
Y191273D01*
X879221D01*
X878429Y192065D01*
X879221Y192858D01*
X881598D01*
X869713Y179384D02*
Y184138D01*
X872090D01*
X872882Y183345D01*
Y181761D01*
X872090Y180968D01*
X869713D01*
X875259Y182553D02*
X876844D01*
X877637Y181761D01*
Y179384D01*
X875259D01*
X874467Y180176D01*
X875259Y180968D01*
X877637D01*
X882391Y184138D02*
Y179384D01*
X880014D01*
X879221Y180176D01*
Y181761D01*
X880014Y182553D01*
X882391D01*
X869713Y172248D02*
Y169079D01*
X871298Y167494D01*
X872882Y169079D01*
Y172248D01*
X874467Y167494D02*
X876052D01*
X875259D01*
Y170664D01*
X874467D01*
X879221D02*
X880806D01*
X881598Y169871D01*
Y167494D01*
X879221D01*
X878429Y168287D01*
X879221Y169079D01*
X881598D01*
X750441Y255474D02*
X753610D01*
X752025D01*
Y250719D01*
X755987D02*
X757572D01*
X758364Y251512D01*
Y253097D01*
X757572Y253889D01*
X755987D01*
X755195Y253097D01*
Y251512D01*
X755987Y250719D01*
X759949Y249135D02*
Y253889D01*
X762326D01*
X763118Y253097D01*
Y251512D01*
X762326Y250719D01*
X759949D01*
X769457Y255474D02*
Y250719D01*
X772627D01*
X775004Y253889D02*
X776589D01*
X777381Y253097D01*
Y250719D01*
X775004D01*
X774212Y251512D01*
X775004Y252304D01*
X777381D01*
X778966Y253889D02*
Y251512D01*
X779758Y250719D01*
X782135D01*
Y249927D01*
X781343Y249135D01*
X780550D01*
X782135Y250719D02*
Y253889D01*
X786097Y250719D02*
X784512D01*
X783720Y251512D01*
Y253097D01*
X784512Y253889D01*
X786097D01*
X786889Y253097D01*
Y252304D01*
X783720D01*
X788474Y253889D02*
Y250719D01*
Y252304D01*
X789266Y253097D01*
X790059Y253889D01*
X790851D01*
X797983Y253097D02*
X801152D01*
X807491Y255474D02*
Y250719D01*
X809868D01*
X810660Y251512D01*
Y252304D01*
X809868Y253097D01*
X807491D01*
X809868D01*
X810660Y253889D01*
Y254681D01*
X809868Y255474D01*
X807491D01*
X813037Y250719D02*
X814622D01*
X815415Y251512D01*
Y253097D01*
X814622Y253889D01*
X813037D01*
X812245Y253097D01*
Y251512D01*
X813037Y250719D01*
X817792Y254681D02*
Y253889D01*
X816999D01*
X818584D01*
X817792D01*
Y251512D01*
X818584Y250719D01*
X821753Y254681D02*
Y253889D01*
X820961D01*
X822546D01*
X821753D01*
Y251512D01*
X822546Y250719D01*
X825715D02*
X827300D01*
X828092Y251512D01*
Y253097D01*
X827300Y253889D01*
X825715D01*
X824923Y253097D01*
Y251512D01*
X825715Y250719D01*
X829677D02*
Y253889D01*
X830469D01*
X831262Y253097D01*
Y250719D01*
Y253097D01*
X832054Y253889D01*
X832847Y253097D01*
Y250719D01*
X839185Y255474D02*
Y250719D01*
X842355D01*
X844732Y253889D02*
X846317D01*
X847109Y253097D01*
Y250719D01*
X844732D01*
X843940Y251512D01*
X844732Y252304D01*
X847109D01*
X848694Y253889D02*
Y251512D01*
X849486Y250719D01*
X851863D01*
Y249927D01*
X851071Y249135D01*
X850279D01*
X851863Y250719D02*
Y253889D01*
X855825Y250719D02*
X854240D01*
X853448Y251512D01*
Y253097D01*
X854240Y253889D01*
X855825D01*
X856618Y253097D01*
Y252304D01*
X853448D01*
X858202Y253889D02*
Y250719D01*
Y252304D01*
X858995Y253097D01*
X859787Y253889D01*
X860579D01*
X750441Y243584D02*
X753610D01*
X752025D01*
Y238830D01*
X755987D02*
X757572D01*
X758364Y239622D01*
Y241207D01*
X757572Y242000D01*
X755987D01*
X755195Y241207D01*
Y239622D01*
X755987Y238830D01*
X759949Y237245D02*
Y242000D01*
X762326D01*
X763118Y241207D01*
Y239622D01*
X762326Y238830D01*
X759949D01*
X769457Y243584D02*
Y238830D01*
X772627D01*
X775004Y242000D02*
X776589D01*
X777381Y241207D01*
Y238830D01*
X775004D01*
X774212Y239622D01*
X775004Y240415D01*
X777381D01*
X778966Y242000D02*
Y239622D01*
X779758Y238830D01*
X782135D01*
Y238038D01*
X781343Y237245D01*
X780550D01*
X782135Y238830D02*
Y242000D01*
X786097Y238830D02*
X784512D01*
X783720Y239622D01*
Y241207D01*
X784512Y242000D01*
X786097D01*
X786889Y241207D01*
Y240415D01*
X783720D01*
X788474Y242000D02*
Y238830D01*
Y240415D01*
X789266Y241207D01*
X790059Y242000D01*
X790851D01*
X797983Y241207D02*
X801152D01*
X807491Y243584D02*
Y238830D01*
X809868D01*
X810660Y239622D01*
Y240415D01*
X809868Y241207D01*
X807491D01*
X809868D01*
X810660Y242000D01*
Y242792D01*
X809868Y243584D01*
X807491D01*
X813037Y238830D02*
X814622D01*
X815415Y239622D01*
Y241207D01*
X814622Y242000D01*
X813037D01*
X812245Y241207D01*
Y239622D01*
X813037Y238830D01*
X817792Y242792D02*
Y242000D01*
X816999D01*
X818584D01*
X817792D01*
Y239622D01*
X818584Y238830D01*
X821753Y242792D02*
Y242000D01*
X820961D01*
X822546D01*
X821753D01*
Y239622D01*
X822546Y238830D01*
X825715D02*
X827300D01*
X828092Y239622D01*
Y241207D01*
X827300Y242000D01*
X825715D01*
X824923Y241207D01*
Y239622D01*
X825715Y238830D01*
X829677D02*
Y242000D01*
X830469D01*
X831262Y241207D01*
Y238830D01*
Y241207D01*
X832054Y242000D01*
X832847Y241207D01*
Y238830D01*
X839185Y243584D02*
Y238830D01*
X842355D01*
X844732Y242000D02*
X846317D01*
X847109Y241207D01*
Y238830D01*
X844732D01*
X843940Y239622D01*
X844732Y240415D01*
X847109D01*
X848694Y242000D02*
Y239622D01*
X849486Y238830D01*
X851863D01*
Y238038D01*
X851071Y237245D01*
X850279D01*
X851863Y238830D02*
Y242000D01*
X855825Y238830D02*
X854240D01*
X853448Y239622D01*
Y241207D01*
X854240Y242000D01*
X855825D01*
X856618Y241207D01*
Y240415D01*
X853448D01*
X858202Y242000D02*
Y238830D01*
Y240415D01*
X858995Y241207D01*
X859787Y242000D01*
X860579D01*
X750441Y231695D02*
X753610D01*
X752025D01*
Y226941D01*
X755987D02*
X757572D01*
X758364Y227733D01*
Y229318D01*
X757572Y230110D01*
X755987D01*
X755195Y229318D01*
Y227733D01*
X755987Y226941D01*
X759949Y225356D02*
Y230110D01*
X762326D01*
X763118Y229318D01*
Y227733D01*
X762326Y226941D01*
X759949D01*
X769457Y231695D02*
Y226941D01*
X772627D01*
X775004Y230110D02*
X776589D01*
X777381Y229318D01*
Y226941D01*
X775004D01*
X774212Y227733D01*
X775004Y228526D01*
X777381D01*
X778966Y230110D02*
Y227733D01*
X779758Y226941D01*
X782135D01*
Y226149D01*
X781343Y225356D01*
X780550D01*
X782135Y226941D02*
Y230110D01*
X786097Y226941D02*
X784512D01*
X783720Y227733D01*
Y229318D01*
X784512Y230110D01*
X786097D01*
X786889Y229318D01*
Y228526D01*
X783720D01*
X788474Y230110D02*
Y226941D01*
Y228526D01*
X789266Y229318D01*
X790059Y230110D01*
X790851D01*
X797983Y229318D02*
X801152D01*
X807491Y231695D02*
Y226941D01*
X809868D01*
X810660Y227733D01*
Y228526D01*
X809868Y229318D01*
X807491D01*
X809868D01*
X810660Y230110D01*
Y230903D01*
X809868Y231695D01*
X807491D01*
X813037Y226941D02*
X814622D01*
X815415Y227733D01*
Y229318D01*
X814622Y230110D01*
X813037D01*
X812245Y229318D01*
Y227733D01*
X813037Y226941D01*
X817792Y230903D02*
Y230110D01*
X816999D01*
X818584D01*
X817792D01*
Y227733D01*
X818584Y226941D01*
X821753Y230903D02*
Y230110D01*
X820961D01*
X822546D01*
X821753D01*
Y227733D01*
X822546Y226941D01*
X825715D02*
X827300D01*
X828092Y227733D01*
Y229318D01*
X827300Y230110D01*
X825715D01*
X824923Y229318D01*
Y227733D01*
X825715Y226941D01*
X829677D02*
Y230110D01*
X830469D01*
X831262Y229318D01*
Y226941D01*
Y229318D01*
X832054Y230110D01*
X832847Y229318D01*
Y226941D01*
X839185Y231695D02*
Y226941D01*
X842355D01*
X844732Y230110D02*
X846317D01*
X847109Y229318D01*
Y226941D01*
X844732D01*
X843940Y227733D01*
X844732Y228526D01*
X847109D01*
X848694Y230110D02*
Y227733D01*
X849486Y226941D01*
X851863D01*
Y226149D01*
X851071Y225356D01*
X850279D01*
X851863Y226941D02*
Y230110D01*
X855825Y226941D02*
X854240D01*
X853448Y227733D01*
Y229318D01*
X854240Y230110D01*
X855825D01*
X856618Y229318D01*
Y228526D01*
X853448D01*
X858202Y230110D02*
Y226941D01*
Y228526D01*
X858995Y229318D01*
X859787Y230110D01*
X860579D01*
X750441Y219806D02*
X753610D01*
X752025D01*
Y215052D01*
X755987D02*
X757572D01*
X758364Y215844D01*
Y217429D01*
X757572Y218221D01*
X755987D01*
X755195Y217429D01*
Y215844D01*
X755987Y215052D01*
X759949Y213467D02*
Y218221D01*
X762326D01*
X763118Y217429D01*
Y215844D01*
X762326Y215052D01*
X759949D01*
X769457Y219806D02*
Y215052D01*
X772627D01*
X775004Y218221D02*
X776589D01*
X777381Y217429D01*
Y215052D01*
X775004D01*
X774212Y215844D01*
X775004Y216636D01*
X777381D01*
X778966Y218221D02*
Y215844D01*
X779758Y215052D01*
X782135D01*
Y214259D01*
X781343Y213467D01*
X780550D01*
X782135Y215052D02*
Y218221D01*
X786097Y215052D02*
X784512D01*
X783720Y215844D01*
Y217429D01*
X784512Y218221D01*
X786097D01*
X786889Y217429D01*
Y216636D01*
X783720D01*
X788474Y218221D02*
Y215052D01*
Y216636D01*
X789266Y217429D01*
X790059Y218221D01*
X790851D01*
X797983Y217429D02*
X801152D01*
X807491Y219806D02*
Y215052D01*
X809868D01*
X810660Y215844D01*
Y216636D01*
X809868Y217429D01*
X807491D01*
X809868D01*
X810660Y218221D01*
Y219013D01*
X809868Y219806D01*
X807491D01*
X813037Y215052D02*
X814622D01*
X815415Y215844D01*
Y217429D01*
X814622Y218221D01*
X813037D01*
X812245Y217429D01*
Y215844D01*
X813037Y215052D01*
X817792Y219013D02*
Y218221D01*
X816999D01*
X818584D01*
X817792D01*
Y215844D01*
X818584Y215052D01*
X821753Y219013D02*
Y218221D01*
X820961D01*
X822546D01*
X821753D01*
Y215844D01*
X822546Y215052D01*
X825715D02*
X827300D01*
X828092Y215844D01*
Y217429D01*
X827300Y218221D01*
X825715D01*
X824923Y217429D01*
Y215844D01*
X825715Y215052D01*
X829677D02*
Y218221D01*
X830469D01*
X831262Y217429D01*
Y215052D01*
Y217429D01*
X832054Y218221D01*
X832847Y217429D01*
Y215052D01*
X839185Y219806D02*
Y215052D01*
X842355D01*
X844732Y218221D02*
X846317D01*
X847109Y217429D01*
Y215052D01*
X844732D01*
X843940Y215844D01*
X844732Y216636D01*
X847109D01*
X848694Y218221D02*
Y215844D01*
X849486Y215052D01*
X851863D01*
Y214259D01*
X851071Y213467D01*
X850279D01*
X851863Y215052D02*
Y218221D01*
X855825Y215052D02*
X854240D01*
X853448Y215844D01*
Y217429D01*
X854240Y218221D01*
X855825D01*
X856618Y217429D01*
Y216636D01*
X853448D01*
X858202Y218221D02*
Y215052D01*
Y216636D01*
X858995Y217429D01*
X859787Y218221D01*
X860579D01*
X750441Y207916D02*
X753610D01*
X752025D01*
Y203162D01*
X755987D02*
X757572D01*
X758364Y203955D01*
Y205539D01*
X757572Y206332D01*
X755987D01*
X755195Y205539D01*
Y203955D01*
X755987Y203162D01*
X759949Y201577D02*
Y206332D01*
X762326D01*
X763118Y205539D01*
Y203955D01*
X762326Y203162D01*
X759949D01*
X769457Y207916D02*
Y203162D01*
X772627D01*
X775004Y206332D02*
X776589D01*
X777381Y205539D01*
Y203162D01*
X775004D01*
X774212Y203955D01*
X775004Y204747D01*
X777381D01*
X778966Y206332D02*
Y203955D01*
X779758Y203162D01*
X782135D01*
Y202370D01*
X781343Y201577D01*
X780550D01*
X782135Y203162D02*
Y206332D01*
X786097Y203162D02*
X784512D01*
X783720Y203955D01*
Y205539D01*
X784512Y206332D01*
X786097D01*
X786889Y205539D01*
Y204747D01*
X783720D01*
X788474Y206332D02*
Y203162D01*
Y204747D01*
X789266Y205539D01*
X790059Y206332D01*
X790851D01*
X797983Y205539D02*
X801152D01*
X807491Y207916D02*
Y203162D01*
X809868D01*
X810660Y203955D01*
Y204747D01*
X809868Y205539D01*
X807491D01*
X809868D01*
X810660Y206332D01*
Y207124D01*
X809868Y207916D01*
X807491D01*
X813037Y203162D02*
X814622D01*
X815415Y203955D01*
Y205539D01*
X814622Y206332D01*
X813037D01*
X812245Y205539D01*
Y203955D01*
X813037Y203162D01*
X817792Y207124D02*
Y206332D01*
X816999D01*
X818584D01*
X817792D01*
Y203955D01*
X818584Y203162D01*
X821753Y207124D02*
Y206332D01*
X820961D01*
X822546D01*
X821753D01*
Y203955D01*
X822546Y203162D01*
X825715D02*
X827300D01*
X828092Y203955D01*
Y205539D01*
X827300Y206332D01*
X825715D01*
X824923Y205539D01*
Y203955D01*
X825715Y203162D01*
X829677D02*
Y206332D01*
X830469D01*
X831262Y205539D01*
Y203162D01*
Y205539D01*
X832054Y206332D01*
X832847Y205539D01*
Y203162D01*
X839185Y207916D02*
Y203162D01*
X842355D01*
X844732Y206332D02*
X846317D01*
X847109Y205539D01*
Y203162D01*
X844732D01*
X843940Y203955D01*
X844732Y204747D01*
X847109D01*
X848694Y206332D02*
Y203955D01*
X849486Y203162D01*
X851863D01*
Y202370D01*
X851071Y201577D01*
X850279D01*
X851863Y203162D02*
Y206332D01*
X855825Y203162D02*
X854240D01*
X853448Y203955D01*
Y205539D01*
X854240Y206332D01*
X855825D01*
X856618Y205539D01*
Y204747D01*
X853448D01*
X858202Y206332D02*
Y203162D01*
Y204747D01*
X858995Y205539D01*
X859787Y206332D01*
X860579D01*
X750441Y196027D02*
X753610D01*
X752025D01*
Y191273D01*
X755987D02*
X757572D01*
X758364Y192065D01*
Y193650D01*
X757572Y194442D01*
X755987D01*
X755195Y193650D01*
Y192065D01*
X755987Y191273D01*
X759949Y189688D02*
Y194442D01*
X762326D01*
X763118Y193650D01*
Y192065D01*
X762326Y191273D01*
X759949D01*
X769457Y196027D02*
Y191273D01*
X772627D01*
X775004Y194442D02*
X776589D01*
X777381Y193650D01*
Y191273D01*
X775004D01*
X774212Y192065D01*
X775004Y192858D01*
X777381D01*
X778966Y194442D02*
Y192065D01*
X779758Y191273D01*
X782135D01*
Y190480D01*
X781343Y189688D01*
X780550D01*
X782135Y191273D02*
Y194442D01*
X786097Y191273D02*
X784512D01*
X783720Y192065D01*
Y193650D01*
X784512Y194442D01*
X786097D01*
X786889Y193650D01*
Y192858D01*
X783720D01*
X788474Y194442D02*
Y191273D01*
Y192858D01*
X789266Y193650D01*
X790059Y194442D01*
X790851D01*
X797983Y193650D02*
X801152D01*
X807491Y196027D02*
Y191273D01*
X809868D01*
X810660Y192065D01*
Y192858D01*
X809868Y193650D01*
X807491D01*
X809868D01*
X810660Y194442D01*
Y195235D01*
X809868Y196027D01*
X807491D01*
X813037Y191273D02*
X814622D01*
X815415Y192065D01*
Y193650D01*
X814622Y194442D01*
X813037D01*
X812245Y193650D01*
Y192065D01*
X813037Y191273D01*
X817792Y195235D02*
Y194442D01*
X816999D01*
X818584D01*
X817792D01*
Y192065D01*
X818584Y191273D01*
X821753Y195235D02*
Y194442D01*
X820961D01*
X822546D01*
X821753D01*
Y192065D01*
X822546Y191273D01*
X825715D02*
X827300D01*
X828092Y192065D01*
Y193650D01*
X827300Y194442D01*
X825715D01*
X824923Y193650D01*
Y192065D01*
X825715Y191273D01*
X829677D02*
Y194442D01*
X830469D01*
X831262Y193650D01*
Y191273D01*
Y193650D01*
X832054Y194442D01*
X832847Y193650D01*
Y191273D01*
X839185Y196027D02*
Y191273D01*
X842355D01*
X844732Y194442D02*
X846317D01*
X847109Y193650D01*
Y191273D01*
X844732D01*
X843940Y192065D01*
X844732Y192858D01*
X847109D01*
X848694Y194442D02*
Y192065D01*
X849486Y191273D01*
X851863D01*
Y190480D01*
X851071Y189688D01*
X850279D01*
X851863Y191273D02*
Y194442D01*
X855825Y191273D02*
X854240D01*
X853448Y192065D01*
Y193650D01*
X854240Y194442D01*
X855825D01*
X856618Y193650D01*
Y192858D01*
X853448D01*
X858202Y194442D02*
Y191273D01*
Y192858D01*
X858995Y193650D01*
X859787Y194442D01*
X860579D01*
X750441Y184138D02*
X753610D01*
X752025D01*
Y179384D01*
X755987D02*
X757572D01*
X758364Y180176D01*
Y181761D01*
X757572Y182553D01*
X755987D01*
X755195Y181761D01*
Y180176D01*
X755987Y179384D01*
X759949Y177799D02*
Y182553D01*
X762326D01*
X763118Y181761D01*
Y180176D01*
X762326Y179384D01*
X759949D01*
X769457Y184138D02*
Y179384D01*
X772627D01*
X775004Y182553D02*
X776589D01*
X777381Y181761D01*
Y179384D01*
X775004D01*
X774212Y180176D01*
X775004Y180968D01*
X777381D01*
X778966Y182553D02*
Y180176D01*
X779758Y179384D01*
X782135D01*
Y178591D01*
X781343Y177799D01*
X780550D01*
X782135Y179384D02*
Y182553D01*
X786097Y179384D02*
X784512D01*
X783720Y180176D01*
Y181761D01*
X784512Y182553D01*
X786097D01*
X786889Y181761D01*
Y180968D01*
X783720D01*
X788474Y182553D02*
Y179384D01*
Y180968D01*
X789266Y181761D01*
X790059Y182553D01*
X790851D01*
X797983Y181761D02*
X801152D01*
X807491Y184138D02*
Y179384D01*
X809868D01*
X810660Y180176D01*
Y180968D01*
X809868Y181761D01*
X807491D01*
X809868D01*
X810660Y182553D01*
Y183345D01*
X809868Y184138D01*
X807491D01*
X813037Y179384D02*
X814622D01*
X815415Y180176D01*
Y181761D01*
X814622Y182553D01*
X813037D01*
X812245Y181761D01*
Y180176D01*
X813037Y179384D01*
X817792Y183345D02*
Y182553D01*
X816999D01*
X818584D01*
X817792D01*
Y180176D01*
X818584Y179384D01*
X821753Y183345D02*
Y182553D01*
X820961D01*
X822546D01*
X821753D01*
Y180176D01*
X822546Y179384D01*
X825715D02*
X827300D01*
X828092Y180176D01*
Y181761D01*
X827300Y182553D01*
X825715D01*
X824923Y181761D01*
Y180176D01*
X825715Y179384D01*
X829677D02*
Y182553D01*
X830469D01*
X831262Y181761D01*
Y179384D01*
Y181761D01*
X832054Y182553D01*
X832847Y181761D01*
Y179384D01*
X839185Y184138D02*
Y179384D01*
X842355D01*
X844732Y182553D02*
X846317D01*
X847109Y181761D01*
Y179384D01*
X844732D01*
X843940Y180176D01*
X844732Y180968D01*
X847109D01*
X848694Y182553D02*
Y180176D01*
X849486Y179384D01*
X851863D01*
Y178591D01*
X851071Y177799D01*
X850279D01*
X851863Y179384D02*
Y182553D01*
X855825Y179384D02*
X854240D01*
X853448Y180176D01*
Y181761D01*
X854240Y182553D01*
X855825D01*
X856618Y181761D01*
Y180968D01*
X853448D01*
X858202Y182553D02*
Y179384D01*
Y180968D01*
X858995Y181761D01*
X859787Y182553D01*
X860579D01*
X750441Y172248D02*
X753610D01*
X752025D01*
Y167494D01*
X755987D02*
X757572D01*
X758364Y168287D01*
Y169871D01*
X757572Y170664D01*
X755987D01*
X755195Y169871D01*
Y168287D01*
X755987Y167494D01*
X759949Y165910D02*
Y170664D01*
X762326D01*
X763118Y169871D01*
Y168287D01*
X762326Y167494D01*
X759949D01*
X769457Y172248D02*
Y167494D01*
X772627D01*
X775004Y170664D02*
X776589D01*
X777381Y169871D01*
Y167494D01*
X775004D01*
X774212Y168287D01*
X775004Y169079D01*
X777381D01*
X778966Y170664D02*
Y168287D01*
X779758Y167494D01*
X782135D01*
Y166702D01*
X781343Y165910D01*
X780550D01*
X782135Y167494D02*
Y170664D01*
X786097Y167494D02*
X784512D01*
X783720Y168287D01*
Y169871D01*
X784512Y170664D01*
X786097D01*
X786889Y169871D01*
Y169079D01*
X783720D01*
X788474Y170664D02*
Y167494D01*
Y169079D01*
X789266Y169871D01*
X790059Y170664D01*
X790851D01*
X797983Y169871D02*
X801152D01*
X807491Y172248D02*
Y167494D01*
X809868D01*
X810660Y168287D01*
Y169079D01*
X809868Y169871D01*
X807491D01*
X809868D01*
X810660Y170664D01*
Y171456D01*
X809868Y172248D01*
X807491D01*
X813037Y167494D02*
X814622D01*
X815415Y168287D01*
Y169871D01*
X814622Y170664D01*
X813037D01*
X812245Y169871D01*
Y168287D01*
X813037Y167494D01*
X817792Y171456D02*
Y170664D01*
X816999D01*
X818584D01*
X817792D01*
Y168287D01*
X818584Y167494D01*
X821753Y171456D02*
Y170664D01*
X820961D01*
X822546D01*
X821753D01*
Y168287D01*
X822546Y167494D01*
X825715D02*
X827300D01*
X828092Y168287D01*
Y169871D01*
X827300Y170664D01*
X825715D01*
X824923Y169871D01*
Y168287D01*
X825715Y167494D01*
X829677D02*
Y170664D01*
X830469D01*
X831262Y169871D01*
Y167494D01*
Y169871D01*
X832054Y170664D01*
X832847Y169871D01*
Y167494D01*
X839185Y172248D02*
Y167494D01*
X842355D01*
X844732Y170664D02*
X846317D01*
X847109Y169871D01*
Y167494D01*
X844732D01*
X843940Y168287D01*
X844732Y169079D01*
X847109D01*
X848694Y170664D02*
Y168287D01*
X849486Y167494D01*
X851863D01*
Y166702D01*
X851071Y165910D01*
X850279D01*
X851863Y167494D02*
Y170664D01*
X855825Y167494D02*
X854240D01*
X853448Y168287D01*
Y169871D01*
X854240Y170664D01*
X855825D01*
X856618Y169871D01*
Y169079D01*
X853448D01*
X858202Y170664D02*
Y167494D01*
Y169079D01*
X858995Y169871D01*
X859787Y170664D01*
X860579D01*
X691614Y250719D02*
Y255474D01*
X693991D01*
X694784Y254681D01*
Y253097D01*
X693991Y252304D01*
X691614D01*
X693199D02*
X694784Y250719D01*
X697161D02*
X698745D01*
X699538Y251512D01*
Y253097D01*
X698745Y253889D01*
X697161D01*
X696368Y253097D01*
Y251512D01*
X697161Y250719D01*
X701123Y253889D02*
Y251512D01*
X701915Y250719D01*
X704292D01*
Y253889D01*
X705877Y250719D02*
Y253889D01*
X708254D01*
X709046Y253097D01*
Y250719D01*
X713800Y255474D02*
Y250719D01*
X711423D01*
X710631Y251512D01*
Y253097D01*
X711423Y253889D01*
X713800D01*
X691614Y238830D02*
Y243584D01*
X693991D01*
X694784Y242792D01*
Y241207D01*
X693991Y240415D01*
X691614D01*
X693199D02*
X694784Y238830D01*
X697161D02*
X698745D01*
X699538Y239622D01*
Y241207D01*
X698745Y242000D01*
X697161D01*
X696368Y241207D01*
Y239622D01*
X697161Y238830D01*
X701123Y242000D02*
Y239622D01*
X701915Y238830D01*
X704292D01*
Y242000D01*
X705877Y238830D02*
Y242000D01*
X708254D01*
X709046Y241207D01*
Y238830D01*
X713800Y243584D02*
Y238830D01*
X711423D01*
X710631Y239622D01*
Y241207D01*
X711423Y242000D01*
X713800D01*
X691614Y226941D02*
Y231695D01*
X693991D01*
X694784Y230903D01*
Y229318D01*
X693991Y228526D01*
X691614D01*
X693199D02*
X694784Y226941D01*
X697161D02*
X698745D01*
X699538Y227733D01*
Y229318D01*
X698745Y230110D01*
X697161D01*
X696368Y229318D01*
Y227733D01*
X697161Y226941D01*
X701123Y230110D02*
Y227733D01*
X701915Y226941D01*
X704292D01*
Y230110D01*
X705877Y226941D02*
Y230110D01*
X708254D01*
X709046Y229318D01*
Y226941D01*
X713800Y231695D02*
Y226941D01*
X711423D01*
X710631Y227733D01*
Y229318D01*
X711423Y230110D01*
X713800D01*
X691614Y215052D02*
Y219806D01*
X693991D01*
X694784Y219013D01*
Y217429D01*
X693991Y216636D01*
X691614D01*
X693199D02*
X694784Y215052D01*
X697161D02*
X698745D01*
X699538Y215844D01*
Y217429D01*
X698745Y218221D01*
X697161D01*
X696368Y217429D01*
Y215844D01*
X697161Y215052D01*
X701123Y218221D02*
Y215844D01*
X701915Y215052D01*
X704292D01*
Y218221D01*
X705877Y215052D02*
Y218221D01*
X708254D01*
X709046Y217429D01*
Y215052D01*
X713800Y219806D02*
Y215052D01*
X711423D01*
X710631Y215844D01*
Y217429D01*
X711423Y218221D01*
X713800D01*
X691614Y203162D02*
Y207916D01*
X693991D01*
X694784Y207124D01*
Y205539D01*
X693991Y204747D01*
X691614D01*
X693199D02*
X694784Y203162D01*
X697161D02*
X698745D01*
X699538Y203955D01*
Y205539D01*
X698745Y206332D01*
X697161D01*
X696368Y205539D01*
Y203955D01*
X697161Y203162D01*
X701123Y206332D02*
Y203955D01*
X701915Y203162D01*
X704292D01*
Y206332D01*
X705877Y203162D02*
Y206332D01*
X708254D01*
X709046Y205539D01*
Y203162D01*
X713800Y207916D02*
Y203162D01*
X711423D01*
X710631Y203955D01*
Y205539D01*
X711423Y206332D01*
X713800D01*
X691614Y191273D02*
Y196027D01*
X693991D01*
X694784Y195235D01*
Y193650D01*
X693991Y192858D01*
X691614D01*
X693199D02*
X694784Y191273D01*
X697161D02*
X698745D01*
X699538Y192065D01*
Y193650D01*
X698745Y194442D01*
X697161D01*
X696368Y193650D01*
Y192065D01*
X697161Y191273D01*
X701123Y194442D02*
Y192065D01*
X701915Y191273D01*
X704292D01*
Y194442D01*
X705877Y191273D02*
Y194442D01*
X708254D01*
X709046Y193650D01*
Y191273D01*
X713800Y196027D02*
Y191273D01*
X711423D01*
X710631Y192065D01*
Y193650D01*
X711423Y194442D01*
X713800D01*
X691614Y179384D02*
Y184138D01*
X693991D01*
X694784Y183345D01*
Y181761D01*
X693991Y180968D01*
X691614D01*
X693199D02*
X694784Y179384D01*
X697161D02*
X698745D01*
X699538Y180176D01*
Y181761D01*
X698745Y182553D01*
X697161D01*
X696368Y181761D01*
Y180176D01*
X697161Y179384D01*
X701123Y182553D02*
Y180176D01*
X701915Y179384D01*
X704292D01*
Y182553D01*
X705877Y179384D02*
Y182553D01*
X708254D01*
X709046Y181761D01*
Y179384D01*
X713800Y184138D02*
Y179384D01*
X711423D01*
X710631Y180176D01*
Y181761D01*
X711423Y182553D01*
X713800D01*
X691614Y167494D02*
Y172248D01*
X693991D01*
X694784Y171456D01*
Y169871D01*
X693991Y169079D01*
X691614D01*
X693199D02*
X694784Y167494D01*
X697161D02*
X698745D01*
X699538Y168287D01*
Y169871D01*
X698745Y170664D01*
X697161D01*
X696368Y169871D01*
Y168287D01*
X697161Y167494D01*
X701123Y170664D02*
Y168287D01*
X701915Y167494D01*
X704292D01*
Y170664D01*
X705877Y167494D02*
Y170664D01*
X708254D01*
X709046Y169871D01*
Y167494D01*
X713800Y172248D02*
Y167494D01*
X711423D01*
X710631Y168287D01*
Y169871D01*
X711423Y170664D01*
X713800D01*
X650854Y250719D02*
Y255474D01*
X653231D01*
X654023Y254681D01*
Y253097D01*
X653231Y252304D01*
X650854D01*
X655608Y255474D02*
X658778D01*
X657193D01*
Y250719D01*
X660362Y255474D02*
Y250719D01*
Y253097D01*
X663532D01*
Y255474D01*
Y250719D01*
X650854Y238830D02*
Y243584D01*
X653231D01*
X654023Y242792D01*
Y241207D01*
X653231Y240415D01*
X650854D01*
X655608Y243584D02*
X658778D01*
X657193D01*
Y238830D01*
X660362Y243584D02*
Y238830D01*
Y241207D01*
X663532D01*
Y243584D01*
Y238830D01*
X650854Y226941D02*
Y231695D01*
X653231D01*
X654023Y230903D01*
Y229318D01*
X653231Y228526D01*
X650854D01*
X655608Y231695D02*
X658778D01*
X657193D01*
Y226941D01*
X660362Y231695D02*
Y226941D01*
Y229318D01*
X663532D01*
Y231695D01*
Y226941D01*
X650854Y215052D02*
Y219806D01*
X653231D01*
X654023Y219013D01*
Y217429D01*
X653231Y216636D01*
X650854D01*
X655608Y219806D02*
X658778D01*
X657193D01*
Y215052D01*
X660362Y219806D02*
Y215052D01*
Y217429D01*
X663532D01*
Y219806D01*
Y215052D01*
X650854Y203162D02*
Y207916D01*
X653231D01*
X654023Y207124D01*
Y205539D01*
X653231Y204747D01*
X650854D01*
X655608Y207916D02*
X658778D01*
X657193D01*
Y203162D01*
X660362Y207916D02*
Y203162D01*
Y205539D01*
X663532D01*
Y207916D01*
Y203162D01*
X650854Y191273D02*
Y196027D01*
X653231D01*
X654023Y195235D01*
Y193650D01*
X653231Y192858D01*
X650854D01*
X655608Y196027D02*
X658778D01*
X657193D01*
Y191273D01*
X660362Y196027D02*
Y191273D01*
Y193650D01*
X663532D01*
Y196027D01*
Y191273D01*
X650854Y179384D02*
Y184138D01*
X653231D01*
X654023Y183345D01*
Y181761D01*
X653231Y180968D01*
X650854D01*
X655608Y184138D02*
X658778D01*
X657193D01*
Y179384D01*
X660362Y184138D02*
Y179384D01*
Y181761D01*
X663532D01*
Y184138D01*
Y179384D01*
X650854Y167494D02*
Y172248D01*
X653231D01*
X654023Y171456D01*
Y169871D01*
X653231Y169079D01*
X650854D01*
X655608Y172248D02*
X658778D01*
X657193D01*
Y167494D01*
X660362Y172248D02*
Y167494D01*
Y169871D01*
X663532D01*
Y172248D01*
Y167494D01*
X557729Y254681D02*
X558522Y255474D01*
X560107D01*
X560899Y254681D01*
Y251512D01*
X560107Y250719D01*
X558522D01*
X557729Y251512D01*
Y254681D01*
X563276Y249927D02*
X564069Y250719D01*
Y251512D01*
X563276D01*
Y250719D01*
X564069D01*
X563276Y249927D01*
X562484Y249135D01*
X570407Y255474D02*
X568823Y254681D01*
X567238Y253097D01*
Y251512D01*
X568030Y250719D01*
X569615D01*
X570407Y251512D01*
Y252304D01*
X569615Y253097D01*
X567238D01*
X571992Y254681D02*
X572785Y255474D01*
X574369D01*
X575162Y254681D01*
Y251512D01*
X574369Y250719D01*
X572785D01*
X571992Y251512D01*
Y254681D01*
X576746D02*
X577539Y255474D01*
X579123D01*
X579916Y254681D01*
Y251512D01*
X579123Y250719D01*
X577539D01*
X576746Y251512D01*
Y254681D01*
X581500Y250719D02*
Y253889D01*
X582293D01*
X583085Y253097D01*
Y250719D01*
Y253097D01*
X583878Y253889D01*
X584670Y253097D01*
Y250719D01*
X586255D02*
Y253889D01*
X587047D01*
X587839Y253097D01*
Y250719D01*
Y253097D01*
X588632Y253889D01*
X589424Y253097D01*
Y250719D01*
X597348D02*
X595763Y252304D01*
Y253889D01*
X597348Y255474D01*
X602894Y250719D02*
X599725D01*
X602894Y253889D01*
Y254681D01*
X602102Y255474D01*
X600517D01*
X599725Y254681D01*
X604479D02*
X605271Y255474D01*
X606856D01*
X607649Y254681D01*
Y253889D01*
X606856Y253097D01*
X606064D01*
X606856D01*
X607649Y252304D01*
Y251512D01*
X606856Y250719D01*
X605271D01*
X604479Y251512D01*
X610026Y249927D02*
X610818Y250719D01*
Y251512D01*
X610026D01*
Y250719D01*
X610818D01*
X610026Y249927D01*
X609233Y249135D01*
X617157Y255474D02*
X615572Y254681D01*
X613987Y253097D01*
Y251512D01*
X614780Y250719D01*
X616365D01*
X617157Y251512D01*
Y252304D01*
X616365Y253097D01*
X613987D01*
X621911Y250719D02*
X618742D01*
X621911Y253889D01*
Y254681D01*
X621119Y255474D01*
X619534D01*
X618742Y254681D01*
X623496Y250719D02*
Y253889D01*
X624288D01*
X625081Y253097D01*
Y250719D01*
Y253097D01*
X625873Y253889D01*
X626665Y253097D01*
Y250719D01*
X628250D02*
X629835D01*
X629042D01*
Y253889D01*
X628250D01*
X632212Y250719D02*
X633797D01*
X633004D01*
Y255474D01*
X632212D01*
X636174Y250719D02*
X637758Y252304D01*
Y253889D01*
X636174Y255474D01*
X557729Y242792D02*
X558522Y243584D01*
X560107D01*
X560899Y242792D01*
Y239622D01*
X560107Y238830D01*
X558522D01*
X557729Y239622D01*
Y242792D01*
X563276Y238038D02*
X564069Y238830D01*
Y239622D01*
X563276D01*
Y238830D01*
X564069D01*
X563276Y238038D01*
X562484Y237245D01*
X567238Y239622D02*
X568030Y238830D01*
X569615D01*
X570407Y239622D01*
Y242792D01*
X569615Y243584D01*
X568030D01*
X567238Y242792D01*
Y242000D01*
X568030Y241207D01*
X570407D01*
X571992Y239622D02*
X572785Y238830D01*
X574369D01*
X575162Y239622D01*
Y242792D01*
X574369Y243584D01*
X572785D01*
X571992Y242792D01*
Y242000D01*
X572785Y241207D01*
X575162D01*
X576746Y238830D02*
X578331D01*
X577539D01*
Y243584D01*
X576746Y242792D01*
X580708Y238830D02*
Y242000D01*
X581500D01*
X582293Y241207D01*
Y238830D01*
Y241207D01*
X583085Y242000D01*
X583878Y241207D01*
Y238830D01*
X585462D02*
Y242000D01*
X586255D01*
X587047Y241207D01*
Y238830D01*
Y241207D01*
X587839Y242000D01*
X588632Y241207D01*
Y238830D01*
X596555D02*
X594971Y240415D01*
Y242000D01*
X596555Y243584D01*
X598933Y242792D02*
X599725Y243584D01*
X601310D01*
X602102Y242792D01*
Y242000D01*
X601310Y241207D01*
X600517D01*
X601310D01*
X602102Y240415D01*
Y239622D01*
X601310Y238830D01*
X599725D01*
X598933Y239622D01*
X603687D02*
X604479Y238830D01*
X606064D01*
X606856Y239622D01*
Y242792D01*
X606064Y243584D01*
X604479D01*
X603687Y242792D01*
Y242000D01*
X604479Y241207D01*
X606856D01*
X609233Y238038D02*
X610026Y238830D01*
Y239622D01*
X609233D01*
Y238830D01*
X610026D01*
X609233Y238038D01*
X608441Y237245D01*
X613195Y242792D02*
X613987Y243584D01*
X615572D01*
X616365Y242792D01*
Y239622D01*
X615572Y238830D01*
X613987D01*
X613195Y239622D01*
Y242792D01*
X617949D02*
X618742Y243584D01*
X620326D01*
X621119Y242792D01*
Y239622D01*
X620326Y238830D01*
X618742D01*
X617949Y239622D01*
Y242792D01*
X622704Y238830D02*
Y242000D01*
X623496D01*
X624288Y241207D01*
Y238830D01*
Y241207D01*
X625081Y242000D01*
X625873Y241207D01*
Y238830D01*
X627458D02*
X629042D01*
X628250D01*
Y242000D01*
X627458D01*
X631420Y238830D02*
X633004D01*
X632212D01*
Y243584D01*
X631420D01*
X635381Y238830D02*
X636966Y240415D01*
Y242000D01*
X635381Y243584D01*
X557729Y230903D02*
X558522Y231695D01*
X560107D01*
X560899Y230903D01*
Y227733D01*
X560107Y226941D01*
X558522D01*
X557729Y227733D01*
Y230903D01*
X563276Y226149D02*
X564069Y226941D01*
Y227733D01*
X563276D01*
Y226941D01*
X564069D01*
X563276Y226149D01*
X562484Y225356D01*
X567238Y230903D02*
X568030Y231695D01*
X569615D01*
X570407Y230903D01*
Y230110D01*
X569615Y229318D01*
X568823D01*
X569615D01*
X570407Y228526D01*
Y227733D01*
X569615Y226941D01*
X568030D01*
X567238Y227733D01*
X571992Y230903D02*
X572785Y231695D01*
X574369D01*
X575162Y230903D01*
Y230110D01*
X574369Y229318D01*
X575162Y228526D01*
Y227733D01*
X574369Y226941D01*
X572785D01*
X571992Y227733D01*
Y228526D01*
X572785Y229318D01*
X571992Y230110D01*
Y230903D01*
X572785Y229318D02*
X574369D01*
X576746Y226941D02*
X578331D01*
X577539D01*
Y231695D01*
X576746Y230903D01*
X580708Y226941D02*
Y230110D01*
X581500D01*
X582293Y229318D01*
Y226941D01*
Y229318D01*
X583085Y230110D01*
X583878Y229318D01*
Y226941D01*
X585462D02*
Y230110D01*
X586255D01*
X587047Y229318D01*
Y226941D01*
Y229318D01*
X587839Y230110D01*
X588632Y229318D01*
Y226941D01*
X596555D02*
X594971Y228526D01*
Y230110D01*
X596555Y231695D01*
X598933Y226941D02*
X600517D01*
X599725D01*
Y231695D01*
X598933Y230903D01*
X606064Y231695D02*
X602894D01*
Y229318D01*
X604479Y230110D01*
X605271D01*
X606064Y229318D01*
Y227733D01*
X605271Y226941D01*
X603687D01*
X602894Y227733D01*
X608441Y226149D02*
X609233Y226941D01*
Y227733D01*
X608441D01*
Y226941D01*
X609233D01*
X608441Y226149D01*
X607649Y225356D01*
X612403Y230903D02*
X613195Y231695D01*
X614780D01*
X615572Y230903D01*
Y227733D01*
X614780Y226941D01*
X613195D01*
X612403Y227733D01*
Y230903D01*
X617157D02*
X617949Y231695D01*
X619534D01*
X620326Y230903D01*
Y227733D01*
X619534Y226941D01*
X617949D01*
X617157Y227733D01*
Y230903D01*
X621911Y226941D02*
Y230110D01*
X622704D01*
X623496Y229318D01*
Y226941D01*
Y229318D01*
X624288Y230110D01*
X625081Y229318D01*
Y226941D01*
X626665D02*
X628250D01*
X627458D01*
Y230110D01*
X626665D01*
X630627Y226941D02*
X632212D01*
X631420D01*
Y231695D01*
X630627D01*
X634589Y226941D02*
X636174Y228526D01*
Y230110D01*
X634589Y231695D01*
X557729Y219013D02*
X558522Y219806D01*
X560107D01*
X560899Y219013D01*
Y218221D01*
X560107Y217429D01*
X559314D01*
X560107D01*
X560899Y216636D01*
Y215844D01*
X560107Y215052D01*
X558522D01*
X557729Y215844D01*
X563276Y214259D02*
X564069Y215052D01*
Y215844D01*
X563276D01*
Y215052D01*
X564069D01*
X563276Y214259D01*
X562484Y213467D01*
X570407Y215052D02*
X567238D01*
X570407Y218221D01*
Y219013D01*
X569615Y219806D01*
X568030D01*
X567238Y219013D01*
X571992D02*
X572785Y219806D01*
X574369D01*
X575162Y219013D01*
Y215844D01*
X574369Y215052D01*
X572785D01*
X571992Y215844D01*
Y219013D01*
X576746D02*
X577539Y219806D01*
X579123D01*
X579916Y219013D01*
Y215844D01*
X579123Y215052D01*
X577539D01*
X576746Y215844D01*
Y219013D01*
X581500Y215052D02*
Y218221D01*
X582293D01*
X583085Y217429D01*
Y215052D01*
Y217429D01*
X583878Y218221D01*
X584670Y217429D01*
Y215052D01*
X586255D02*
Y218221D01*
X587047D01*
X587839Y217429D01*
Y215052D01*
Y217429D01*
X588632Y218221D01*
X589424Y217429D01*
Y215052D01*
X597348D02*
X595763Y216636D01*
Y218221D01*
X597348Y219806D01*
X599725Y215052D02*
X601310D01*
X600517D01*
Y219806D01*
X599725Y219013D01*
X606856Y215052D02*
X603687D01*
X606856Y218221D01*
Y219013D01*
X606064Y219806D01*
X604479D01*
X603687Y219013D01*
X611610Y219806D02*
X608441D01*
Y217429D01*
X610026Y218221D01*
X610818D01*
X611610Y217429D01*
Y215844D01*
X610818Y215052D01*
X609233D01*
X608441Y215844D01*
X613987Y214259D02*
X614780Y215052D01*
Y215844D01*
X613987D01*
Y215052D01*
X614780D01*
X613987Y214259D01*
X613195Y213467D01*
X617949Y215844D02*
X618742Y215052D01*
X620326D01*
X621119Y215844D01*
Y219013D01*
X620326Y219806D01*
X618742D01*
X617949Y219013D01*
Y218221D01*
X618742Y217429D01*
X621119D01*
X622704Y219013D02*
X623496Y219806D01*
X625081D01*
X625873Y219013D01*
Y218221D01*
X625081Y217429D01*
X625873Y216636D01*
Y215844D01*
X625081Y215052D01*
X623496D01*
X622704Y215844D01*
Y216636D01*
X623496Y217429D01*
X622704Y218221D01*
Y219013D01*
X623496Y217429D02*
X625081D01*
X627458Y215052D02*
Y218221D01*
X628250D01*
X629042Y217429D01*
Y215052D01*
Y217429D01*
X629835Y218221D01*
X630627Y217429D01*
Y215052D01*
X632212D02*
X633797D01*
X633004D01*
Y218221D01*
X632212D01*
X636174Y215052D02*
X637758D01*
X636966D01*
Y219806D01*
X636174D01*
X640135Y215052D02*
X641720Y216636D01*
Y218221D01*
X640135Y219806D01*
X557729Y203162D02*
X559314D01*
X558522D01*
Y207916D01*
X557729Y207124D01*
X562484Y202370D02*
X563276Y203162D01*
Y203955D01*
X562484D01*
Y203162D01*
X563276D01*
X562484Y202370D01*
X561691Y201577D01*
X566446Y207124D02*
X567238Y207916D01*
X568823D01*
X569615Y207124D01*
Y203955D01*
X568823Y203162D01*
X567238D01*
X566446Y203955D01*
Y207124D01*
X571200D02*
X571992Y207916D01*
X573577D01*
X574369Y207124D01*
Y203955D01*
X573577Y203162D01*
X571992D01*
X571200Y203955D01*
Y207124D01*
X575954D02*
X576746Y207916D01*
X578331D01*
X579123Y207124D01*
Y203955D01*
X578331Y203162D01*
X576746D01*
X575954Y203955D01*
Y207124D01*
X580708Y203162D02*
Y206332D01*
X581500D01*
X582293Y205539D01*
Y203162D01*
Y205539D01*
X583085Y206332D01*
X583878Y205539D01*
Y203162D01*
X585462D02*
Y206332D01*
X586255D01*
X587047Y205539D01*
Y203162D01*
Y205539D01*
X587839Y206332D01*
X588632Y205539D01*
Y203162D01*
X596555D02*
X594971Y204747D01*
Y206332D01*
X596555Y207916D01*
X598933Y207124D02*
X599725Y207916D01*
X601310D01*
X602102Y207124D01*
Y206332D01*
X601310Y205539D01*
X600517D01*
X601310D01*
X602102Y204747D01*
Y203955D01*
X601310Y203162D01*
X599725D01*
X598933Y203955D01*
X603687D02*
X604479Y203162D01*
X606064D01*
X606856Y203955D01*
Y207124D01*
X606064Y207916D01*
X604479D01*
X603687Y207124D01*
Y206332D01*
X604479Y205539D01*
X606856D01*
X609233Y202370D02*
X610026Y203162D01*
Y203955D01*
X609233D01*
Y203162D01*
X610026D01*
X609233Y202370D01*
X608441Y201577D01*
X613195Y207124D02*
X613987Y207916D01*
X615572D01*
X616365Y207124D01*
Y206332D01*
X615572Y205539D01*
X614780D01*
X615572D01*
X616365Y204747D01*
Y203955D01*
X615572Y203162D01*
X613987D01*
X613195Y203955D01*
X617949Y207916D02*
X621119D01*
Y207124D01*
X617949Y203955D01*
Y203162D01*
X622704D02*
Y206332D01*
X623496D01*
X624288Y205539D01*
Y203162D01*
Y205539D01*
X625081Y206332D01*
X625873Y205539D01*
Y203162D01*
X627458D02*
X629042D01*
X628250D01*
Y206332D01*
X627458D01*
X631420Y203162D02*
X633004D01*
X632212D01*
Y207916D01*
X631420D01*
X635381Y203162D02*
X636966Y204747D01*
Y206332D01*
X635381Y207916D01*
X557729Y195235D02*
X558522Y196027D01*
X560107D01*
X560899Y195235D01*
Y192065D01*
X560107Y191273D01*
X558522D01*
X557729Y192065D01*
Y195235D01*
X563276Y190480D02*
X564069Y191273D01*
Y192065D01*
X563276D01*
Y191273D01*
X564069D01*
X563276Y190480D01*
X562484Y189688D01*
X567238Y196027D02*
X570407D01*
Y195235D01*
X567238Y192065D01*
Y191273D01*
X571992D02*
X573577D01*
X572785D01*
Y196027D01*
X571992Y195235D01*
X575954Y191273D02*
X577539D01*
X576746D01*
Y196027D01*
X575954Y195235D01*
X579916Y191273D02*
Y194442D01*
X580708D01*
X581500Y193650D01*
Y191273D01*
Y193650D01*
X582293Y194442D01*
X583085Y193650D01*
Y191273D01*
X584670D02*
Y194442D01*
X585462D01*
X586255Y193650D01*
Y191273D01*
Y193650D01*
X587047Y194442D01*
X587839Y193650D01*
Y191273D01*
X595763D02*
X594178Y192858D01*
Y194442D01*
X595763Y196027D01*
X601310Y191273D02*
X598140D01*
X601310Y194442D01*
Y195235D01*
X600517Y196027D01*
X598933D01*
X598140Y195235D01*
X602894D02*
X603687Y196027D01*
X605271D01*
X606064Y195235D01*
Y194442D01*
X605271Y193650D01*
X606064Y192858D01*
Y192065D01*
X605271Y191273D01*
X603687D01*
X602894Y192065D01*
Y192858D01*
X603687Y193650D01*
X602894Y194442D01*
Y195235D01*
X603687Y193650D02*
X605271D01*
X608441Y190480D02*
X609233Y191273D01*
Y192065D01*
X608441D01*
Y191273D01*
X609233D01*
X608441Y190480D01*
X607649Y189688D01*
X612403Y195235D02*
X613195Y196027D01*
X614780D01*
X615572Y195235D01*
Y192065D01*
X614780Y191273D01*
X613195D01*
X612403Y192065D01*
Y195235D01*
X617157D02*
X617949Y196027D01*
X619534D01*
X620326Y195235D01*
Y192065D01*
X619534Y191273D01*
X617949D01*
X617157Y192065D01*
Y195235D01*
X621911Y191273D02*
Y194442D01*
X622704D01*
X623496Y193650D01*
Y191273D01*
Y193650D01*
X624288Y194442D01*
X625081Y193650D01*
Y191273D01*
X626665D02*
X628250D01*
X627458D01*
Y194442D01*
X626665D01*
X630627Y191273D02*
X632212D01*
X631420D01*
Y196027D01*
X630627D01*
X634589Y191273D02*
X636174Y192858D01*
Y194442D01*
X634589Y196027D01*
X557729Y183345D02*
X558522Y184138D01*
X560107D01*
X560899Y183345D01*
Y180176D01*
X560107Y179384D01*
X558522D01*
X557729Y180176D01*
Y183345D01*
X563276Y178591D02*
X564069Y179384D01*
Y180176D01*
X563276D01*
Y179384D01*
X564069D01*
X563276Y178591D01*
X562484Y177799D01*
X567238Y180176D02*
X568030Y179384D01*
X569615D01*
X570407Y180176D01*
Y183345D01*
X569615Y184138D01*
X568030D01*
X567238Y183345D01*
Y182553D01*
X568030Y181761D01*
X570407D01*
X571992Y183345D02*
X572785Y184138D01*
X574369D01*
X575162Y183345D01*
Y180176D01*
X574369Y179384D01*
X572785D01*
X571992Y180176D01*
Y183345D01*
X576746D02*
X577539Y184138D01*
X579123D01*
X579916Y183345D01*
Y180176D01*
X579123Y179384D01*
X577539D01*
X576746Y180176D01*
Y183345D01*
X581500Y179384D02*
Y182553D01*
X582293D01*
X583085Y181761D01*
Y179384D01*
Y181761D01*
X583878Y182553D01*
X584670Y181761D01*
Y179384D01*
X586255D02*
Y182553D01*
X587047D01*
X587839Y181761D01*
Y179384D01*
Y181761D01*
X588632Y182553D01*
X589424Y181761D01*
Y179384D01*
X597348D02*
X595763Y180968D01*
Y182553D01*
X597348Y184138D01*
X599725Y183345D02*
X600517Y184138D01*
X602102D01*
X602894Y183345D01*
Y182553D01*
X602102Y181761D01*
X601310D01*
X602102D01*
X602894Y180968D01*
Y180176D01*
X602102Y179384D01*
X600517D01*
X599725Y180176D01*
X607649Y184138D02*
X604479D01*
Y181761D01*
X606064Y182553D01*
X606856D01*
X607649Y181761D01*
Y180176D01*
X606856Y179384D01*
X605271D01*
X604479Y180176D01*
X610026Y178591D02*
X610818Y179384D01*
Y180176D01*
X610026D01*
Y179384D01*
X610818D01*
X610026Y178591D01*
X609233Y177799D01*
X616365Y179384D02*
Y184138D01*
X613987Y181761D01*
X617157D01*
X618742Y183345D02*
X619534Y184138D01*
X621119D01*
X621911Y183345D01*
Y182553D01*
X621119Y181761D01*
X620326D01*
X621119D01*
X621911Y180968D01*
Y180176D01*
X621119Y179384D01*
X619534D01*
X618742Y180176D01*
X623496Y179384D02*
Y182553D01*
X624288D01*
X625081Y181761D01*
Y179384D01*
Y181761D01*
X625873Y182553D01*
X626665Y181761D01*
Y179384D01*
X628250D02*
X629835D01*
X629042D01*
Y182553D01*
X628250D01*
X632212Y179384D02*
X633797D01*
X633004D01*
Y184138D01*
X632212D01*
X636174Y179384D02*
X637758Y180968D01*
Y182553D01*
X636174Y184138D01*
X557729Y171456D02*
X558522Y172248D01*
X560107D01*
X560899Y171456D01*
Y168287D01*
X560107Y167494D01*
X558522D01*
X557729Y168287D01*
Y171456D01*
X563276Y166702D02*
X564069Y167494D01*
Y168287D01*
X563276D01*
Y167494D01*
X564069D01*
X563276Y166702D01*
X562484Y165910D01*
X567238Y171456D02*
X568030Y172248D01*
X569615D01*
X570407Y171456D01*
Y170664D01*
X569615Y169871D01*
X568823D01*
X569615D01*
X570407Y169079D01*
Y168287D01*
X569615Y167494D01*
X568030D01*
X567238Y168287D01*
X571992Y171456D02*
X572785Y172248D01*
X574369D01*
X575162Y171456D01*
Y168287D01*
X574369Y167494D01*
X572785D01*
X571992Y168287D01*
Y171456D01*
X576746D02*
X577539Y172248D01*
X579123D01*
X579916Y171456D01*
Y168287D01*
X579123Y167494D01*
X577539D01*
X576746Y168287D01*
Y171456D01*
X581500Y167494D02*
Y170664D01*
X582293D01*
X583085Y169871D01*
Y167494D01*
Y169871D01*
X583878Y170664D01*
X584670Y169871D01*
Y167494D01*
X586255D02*
Y170664D01*
X587047D01*
X587839Y169871D01*
Y167494D01*
Y169871D01*
X588632Y170664D01*
X589424Y169871D01*
Y167494D01*
X597348D02*
X595763Y169079D01*
Y170664D01*
X597348Y172248D01*
X599725Y167494D02*
X601310D01*
X600517D01*
Y172248D01*
X599725Y171456D01*
X603687Y167494D02*
X605271D01*
X604479D01*
Y172248D01*
X603687Y171456D01*
X608441Y166702D02*
X609233Y167494D01*
Y168287D01*
X608441D01*
Y167494D01*
X609233D01*
X608441Y166702D01*
X607649Y165910D01*
X612403Y171456D02*
X613195Y172248D01*
X614780D01*
X615572Y171456D01*
Y170664D01*
X614780Y169871D01*
X615572Y169079D01*
Y168287D01*
X614780Y167494D01*
X613195D01*
X612403Y168287D01*
Y169079D01*
X613195Y169871D01*
X612403Y170664D01*
Y171456D01*
X613195Y169871D02*
X614780D01*
X617157Y167494D02*
X618742D01*
X617949D01*
Y172248D01*
X617157Y171456D01*
X621119Y167494D02*
Y170664D01*
X621911D01*
X622704Y169871D01*
Y167494D01*
Y169871D01*
X623496Y170664D01*
X624288Y169871D01*
Y167494D01*
X625873D02*
X627458D01*
X626665D01*
Y170664D01*
X625873D01*
X629835Y167494D02*
X631420D01*
X630627D01*
Y172248D01*
X629835D01*
X633797Y167494D02*
X635381Y169079D01*
Y170664D01*
X633797Y172248D01*
X512940Y160359D02*
X509770D01*
Y157982D01*
X511355Y158774D01*
X512147D01*
X512940Y157982D01*
Y156397D01*
X512147Y155605D01*
X510562D01*
X509770Y156397D01*
X514524Y159567D02*
X515317Y160359D01*
X516901D01*
X517694Y159567D01*
Y156397D01*
X516901Y155605D01*
X515317D01*
X514524Y156397D01*
Y159567D01*
X522448Y155605D02*
X519278D01*
X522448Y158774D01*
Y159567D01*
X521656Y160359D01*
X520071D01*
X519278Y159567D01*
X528787Y160359D02*
X531956D01*
X530372D01*
Y155605D01*
X534333D02*
X535918D01*
X536711Y156397D01*
Y157982D01*
X535918Y158774D01*
X534333D01*
X533541Y157982D01*
Y156397D01*
X534333Y155605D01*
X539088Y159567D02*
Y158774D01*
X538295D01*
X539880D01*
X539088D01*
Y156397D01*
X539880Y155605D01*
X543049Y158774D02*
X544634D01*
X545427Y157982D01*
Y155605D01*
X543049D01*
X542257Y156397D01*
X543049Y157190D01*
X545427D01*
X547011Y155605D02*
X548596D01*
X547804D01*
Y160359D01*
X547011D01*
X509770Y250719D02*
X511355D01*
X510562D01*
Y255474D01*
X509770Y254681D01*
X512940Y243584D02*
X509770D01*
Y241207D01*
X511355Y242000D01*
X512147D01*
X512940Y241207D01*
Y239622D01*
X512147Y238830D01*
X510562D01*
X509770Y239622D01*
Y227733D02*
X510562Y226941D01*
X512147D01*
X512940Y227733D01*
Y230903D01*
X512147Y231695D01*
X510562D01*
X509770Y230903D01*
Y230110D01*
X510562Y229318D01*
X512940D01*
X509770Y215844D02*
X510562Y215052D01*
X512147D01*
X512940Y215844D01*
Y219013D01*
X512147Y219806D01*
X510562D01*
X509770Y219013D01*
Y218221D01*
X510562Y217429D01*
X512940D01*
X512147Y203162D02*
Y207916D01*
X509770Y205539D01*
X512940D01*
X516901Y203162D02*
Y207916D01*
X514524Y205539D01*
X517694D01*
X509770Y196027D02*
X512940D01*
Y195235D01*
X509770Y192065D01*
Y191273D01*
X514524Y196027D02*
X517694D01*
Y195235D01*
X514524Y192065D01*
Y191273D01*
X509770Y179384D02*
X511355D01*
X510562D01*
Y184138D01*
X509770Y183345D01*
X513732D02*
X514524Y184138D01*
X516109D01*
X516901Y183345D01*
Y180176D01*
X516109Y179384D01*
X514524D01*
X513732Y180176D01*
Y183345D01*
X520863Y179384D02*
Y184138D01*
X518486Y181761D01*
X521656D01*
X512940Y167494D02*
X509770D01*
X512940Y170664D01*
Y171456D01*
X512147Y172248D01*
X510562D01*
X509770Y171456D01*
X517694Y172248D02*
X514524D01*
Y169871D01*
X516109Y170664D01*
X516901D01*
X517694Y169871D01*
Y168287D01*
X516901Y167494D01*
X515317D01*
X514524Y168287D01*
X519278Y171456D02*
X520071Y172248D01*
X521656D01*
X522448Y171456D01*
Y170664D01*
X521656Y169871D01*
X520863D01*
X521656D01*
X522448Y169079D01*
Y168287D01*
X521656Y167494D01*
X520071D01*
X519278Y168287D01*
D12*
X461876Y259042D02*
X917129D01*
X461876Y163927D02*
X917129D01*
X461876Y152038D02*
X917129D01*
Y270931D01*
X461876D02*
X917129D01*
X461876Y152038D02*
Y270931D01*
X866146Y152038D02*
Y270931D01*
X746874Y152038D02*
Y270931D01*
X688047Y152038D02*
Y270931D01*
X647287Y152038D02*
Y270931D01*
X554163Y152038D02*
Y270931D01*
X506203Y152038D02*
Y270931D01*
D179*
X330590Y59040D02*
G03*
X330590Y59040I-1000J0D01*
G01*
X320590D02*
G03*
X320590Y59040I-1000J0D01*
G01*
X330590Y69040D02*
G03*
X330590Y69040I-1000J0D01*
G01*
X320590D02*
G03*
X320590Y69040I-1000J0D01*
G01*
X330590Y79040D02*
G03*
X330590Y79040I-1000J0D01*
G01*
X320590D02*
G03*
X320590Y79040I-1000J0D01*
G01*
X330590Y89040D02*
G03*
X330590Y89040I-1000J0D01*
G01*
X320590D02*
G03*
X320590Y89040I-1000J0D01*
G01*
X330590Y99040D02*
G03*
X330590Y99040I-1000J0D01*
G01*
X320590D02*
G03*
X320590Y99040I-1000J0D01*
G01*
X330590Y109040D02*
G03*
X330590Y109040I-1000J0D01*
G01*
X320590D02*
G03*
X320590Y109040I-1000J0D01*
G01*
X330590Y119040D02*
G03*
X330590Y119040I-1000J0D01*
G01*
X320590D02*
G03*
X320590Y119040I-1000J0D01*
G01*
X330590Y129040D02*
G03*
X330590Y129040I-1000J0D01*
G01*
X320590D02*
G03*
X320590Y129040I-1000J0D01*
G01*
X330590Y139040D02*
G03*
X330590Y139040I-1000J0D01*
G01*
X320590D02*
G03*
X320590Y139040I-1000J0D01*
G01*
X330590Y149040D02*
G03*
X330590Y149040I-1000J0D01*
G01*
X320590D02*
G03*
X320590Y149040I-1000J0D01*
G01*
X330590Y159040D02*
G03*
X330590Y159040I-1000J0D01*
G01*
X320590D02*
G03*
X320590Y159040I-1000J0D01*
G01*
X330590Y169040D02*
G03*
X330590Y169040I-1000J0D01*
G01*
X320590D02*
G03*
X320590Y169040I-1000J0D01*
G01*
X330590Y179040D02*
G03*
X330590Y179040I-1000J0D01*
G01*
X320590D02*
G03*
X320590Y179040I-1000J0D01*
G01*
X330590Y189040D02*
G03*
X330590Y189040I-1000J0D01*
G01*
X320590D02*
G03*
X320590Y189040I-1000J0D01*
G01*
X330590Y199040D02*
G03*
X330590Y199040I-1000J0D01*
G01*
X320590D02*
G03*
X320590Y199040I-1000J0D01*
G01*
X330590Y209040D02*
G03*
X330590Y209040I-1000J0D01*
G01*
X320590D02*
G03*
X320590Y209040I-1000J0D01*
G01*
X330590Y219040D02*
G03*
X330590Y219040I-1000J0D01*
G01*
X320590Y218942D02*
G03*
X320590Y218942I-1000J0D01*
G01*
X330590Y229040D02*
G03*
X330590Y229040I-1000J0D01*
G01*
X320590D02*
G03*
X320590Y229040I-1000J0D01*
G01*
X330590Y239040D02*
G03*
X330590Y239040I-1000J0D01*
G01*
X320590D02*
G03*
X320590Y239040I-1000J0D01*
G01*
X330590Y249040D02*
G03*
X330590Y249040I-1000J0D01*
G01*
X320590D02*
G03*
X320590Y249040I-1000J0D01*
G01*
X330590Y259040D02*
G03*
X330590Y259040I-1000J0D01*
G01*
X320590D02*
G03*
X320590Y259040I-1000J0D01*
G01*
X330590Y269040D02*
G03*
X330590Y269040I-1000J0D01*
G01*
X320590D02*
G03*
X320590Y269040I-1000J0D01*
G01*
X330590Y279040D02*
G03*
X330590Y279040I-1000J0D01*
G01*
X320590D02*
G03*
X320590Y279040I-1000J0D01*
G01*
X330590Y289040D02*
G03*
X330590Y289040I-1000J0D01*
G01*
X320590D02*
G03*
X320590Y289040I-1000J0D01*
G01*
X330590Y299040D02*
G03*
X330590Y299040I-1000J0D01*
G01*
X320590D02*
G03*
X320590Y299040I-1000J0D01*
G01*
Y49040D02*
G03*
X320590Y49040I-1000J0D01*
G01*
X330590D02*
G03*
X330590Y49040I-1000J0D01*
G01*
X350590D02*
G03*
X350590Y49040I-1000J0D01*
G01*
X340590D02*
G03*
X340590Y49040I-1000J0D01*
G01*
X340571Y299040D02*
G03*
X340571Y299040I-1000J0D01*
G01*
X350590D02*
G03*
X350590Y299040I-1000J0D01*
G01*
X340590Y289040D02*
G03*
X340590Y289040I-1000J0D01*
G01*
X350590D02*
G03*
X350590Y289040I-1000J0D01*
G01*
X340590Y279040D02*
G03*
X340590Y279040I-1000J0D01*
G01*
X350590D02*
G03*
X350590Y279040I-1000J0D01*
G01*
X340590Y269040D02*
G03*
X340590Y269040I-1000J0D01*
G01*
X350590D02*
G03*
X350590Y269040I-1000J0D01*
G01*
X340571Y259040D02*
G03*
X340571Y259040I-1000J0D01*
G01*
X350590D02*
G03*
X350590Y259040I-1000J0D01*
G01*
X340571Y249040D02*
G03*
X340571Y249040I-1000J0D01*
G01*
X350590D02*
G03*
X350590Y249040I-1000J0D01*
G01*
X340590Y239040D02*
G03*
X340590Y239040I-1000J0D01*
G01*
X350590D02*
G03*
X350590Y239040I-1000J0D01*
G01*
X340590Y229040D02*
G03*
X340590Y229040I-1000J0D01*
G01*
X350590D02*
G03*
X350590Y229040I-1000J0D01*
G01*
X340590Y218942D02*
G03*
X340590Y218942I-1000J0D01*
G01*
X350590Y219040D02*
G03*
X350590Y219040I-1000J0D01*
G01*
X340590Y209040D02*
G03*
X340590Y209040I-1000J0D01*
G01*
X350590D02*
G03*
X350590Y209040I-1000J0D01*
G01*
X340590Y199040D02*
G03*
X340590Y199040I-1000J0D01*
G01*
X350590D02*
G03*
X350590Y199040I-1000J0D01*
G01*
X340590Y189040D02*
G03*
X340590Y189040I-1000J0D01*
G01*
X350590D02*
G03*
X350590Y189040I-1000J0D01*
G01*
X340590Y179040D02*
G03*
X340590Y179040I-1000J0D01*
G01*
X350590D02*
G03*
X350590Y179040I-1000J0D01*
G01*
X340590Y169040D02*
G03*
X340590Y169040I-1000J0D01*
G01*
X350590D02*
G03*
X350590Y169040I-1000J0D01*
G01*
X340590Y159040D02*
G03*
X340590Y159040I-1000J0D01*
G01*
X350590D02*
G03*
X350590Y159040I-1000J0D01*
G01*
X340590Y149040D02*
G03*
X340590Y149040I-1000J0D01*
G01*
X350590D02*
G03*
X350590Y149040I-1000J0D01*
G01*
X340590Y139040D02*
G03*
X340590Y139040I-1000J0D01*
G01*
X350590D02*
G03*
X350590Y139040I-1000J0D01*
G01*
X340590Y129040D02*
G03*
X340590Y129040I-1000J0D01*
G01*
X350590D02*
G03*
X350590Y129040I-1000J0D01*
G01*
X340590Y119040D02*
G03*
X340590Y119040I-1000J0D01*
G01*
X350590D02*
G03*
X350590Y119040I-1000J0D01*
G01*
X340590Y109040D02*
G03*
X340590Y109040I-1000J0D01*
G01*
X350590D02*
G03*
X350590Y109040I-1000J0D01*
G01*
X340590Y99040D02*
G03*
X340590Y99040I-1000J0D01*
G01*
X350590D02*
G03*
X350590Y99040I-1000J0D01*
G01*
X340590Y89040D02*
G03*
X340590Y89040I-1000J0D01*
G01*
X350590D02*
G03*
X350590Y89040I-1000J0D01*
G01*
X340590Y79040D02*
G03*
X340590Y79040I-1000J0D01*
G01*
X350590D02*
G03*
X350590Y79040I-1000J0D01*
G01*
X340590Y69040D02*
G03*
X340590Y69040I-1000J0D01*
G01*
X350590D02*
G03*
X350590Y69040I-1000J0D01*
G01*
X340590Y59040D02*
G03*
X340590Y59040I-1000J0D01*
G01*
X350590D02*
G03*
X350590Y59040I-1000J0D01*
G01*
X260605Y328164D02*
X261805D01*
Y329364D01*
X260605D02*
X261805D01*
X260605Y328164D02*
Y329364D01*
X260205Y327764D02*
X262205D01*
Y329764D01*
X260205D02*
X262205D01*
X260205Y327764D02*
Y329764D01*
X205802Y35763D02*
X207001D01*
Y36963D01*
X205802D02*
X207001D01*
X205802Y35763D02*
Y36963D01*
X205401Y35363D02*
X207401D01*
Y37363D01*
X205401D02*
X207401D01*
X205401Y35363D02*
Y37363D01*
X195093Y180802D02*
X196293D01*
Y182002D01*
X195093D02*
X196293D01*
X195093Y180802D02*
Y182002D01*
X194693Y180402D02*
X196693D01*
Y182402D01*
X194693D02*
X196693D01*
X194693Y180402D02*
Y182402D01*
X246583Y71701D02*
X247583Y72201D01*
X248583Y71701D01*
X248083Y72701D02*
X248583Y71701D01*
X248083Y72701D02*
X248583Y73701D01*
X247583Y73201D02*
X248583Y73701D01*
X246583D02*
X247583Y73201D01*
X246583Y73701D02*
X247083Y72701D01*
X246583Y71701D02*
X247083Y72701D01*
X16786Y234385D02*
X17986D01*
Y235585D01*
X16786D02*
X17986D01*
X16786Y234385D02*
Y235585D01*
X16386Y233985D02*
X18386D01*
Y235985D01*
X16386D02*
X18386D01*
X16386Y233985D02*
Y235985D01*
X47691Y270527D02*
X48891D01*
Y271727D01*
X47691D02*
X48891D01*
X47691Y270527D02*
Y271727D01*
X47291Y270127D02*
X49291D01*
Y272127D01*
X47291D02*
X49291D01*
X47291Y270127D02*
Y272127D01*
X265318Y204542D02*
X266518D01*
Y205742D01*
X265318D02*
X266518D01*
X265318Y204542D02*
Y205742D01*
X264918Y204142D02*
X266918D01*
Y206142D01*
X264918D02*
X266918D01*
X264918Y204142D02*
Y206142D01*
X110525Y44542D02*
X111725D01*
Y45742D01*
X110525D02*
X111725D01*
X110525Y44542D02*
Y45742D01*
X110125Y44142D02*
X112125D01*
Y46142D01*
X110125D02*
X112125D01*
X110125Y44142D02*
Y46142D01*
X148085Y337062D02*
X149285D01*
Y338262D01*
X148085D02*
X149285D01*
X148085Y337062D02*
Y338262D01*
X147685Y336662D02*
X149685D01*
Y338662D01*
X147685D02*
X149685D01*
X147685Y336662D02*
Y338662D01*
X176904Y220330D02*
X178104D01*
Y221530D01*
X176904D02*
X178104D01*
X176904Y220330D02*
Y221530D01*
X176504Y219930D02*
X178504D01*
Y221930D01*
X176504D02*
X178504D01*
X176504Y219930D02*
Y221930D01*
X50756Y227843D02*
X51756Y228343D01*
X52756Y227843D01*
X52256Y228843D02*
X52756Y227843D01*
X52256Y228843D02*
X52756Y229843D01*
X51756Y229343D02*
X52756Y229843D01*
X50756D02*
X51756Y229343D01*
X50756Y229843D02*
X51256Y228843D01*
X50756Y227843D02*
X51256Y228843D01*
X95292Y235172D02*
X96492D01*
Y236372D01*
X95292D02*
X96492D01*
X95292Y235172D02*
Y236372D01*
X94892Y234772D02*
X96892D01*
Y236772D01*
X94892D02*
X96892D01*
X94892Y234772D02*
Y236772D01*
X228786Y305243D02*
X229786Y305743D01*
X230786Y305243D01*
X230286Y306243D02*
X230786Y305243D01*
X230286Y306243D02*
X230786Y307243D01*
X229786Y306743D02*
X230786Y307243D01*
X228786D02*
X229786Y306743D01*
X228786Y307243D02*
X229286Y306243D01*
X228786Y305243D02*
X229286Y306243D01*
X234693Y305243D02*
X235693Y305743D01*
X236693Y305243D01*
X236193Y306243D02*
X236693Y305243D01*
X236193Y306243D02*
X236693Y307243D01*
X235693Y306743D02*
X236693Y307243D01*
X234693D02*
X235693Y306743D01*
X234693Y307243D02*
X235193Y306243D01*
X234693Y305243D02*
X235193Y306243D01*
X151047Y240596D02*
X152247D01*
Y241796D01*
X151047D02*
X152247D01*
X151047Y240596D02*
Y241796D01*
X150647Y240196D02*
X152647D01*
Y242196D01*
X150647D02*
X152647D01*
X150647Y240196D02*
Y242196D01*
X142173Y243434D02*
X143173Y243934D01*
X144173Y243434D01*
X143673Y244434D02*
X144173Y243434D01*
X143673Y244434D02*
X144173Y245434D01*
X143173Y244934D02*
X144173Y245434D01*
X142173D02*
X143173Y244934D01*
X142173Y245434D02*
X142673Y244434D01*
X142173Y243434D02*
X142673Y244434D01*
X100165Y280442D02*
X101165Y280942D01*
X102165Y280442D01*
X101665Y281442D02*
X102165Y280442D01*
X101665Y281442D02*
X102165Y282442D01*
X101165Y281942D02*
X102165Y282442D01*
X100165D02*
X101165Y281942D01*
X100165Y282442D02*
X100665Y281442D01*
X100165Y280442D02*
X100665Y281442D01*
X149102Y306071D02*
X150102Y306572D01*
X151102Y306071D01*
X150602Y307071D02*
X151102Y306071D01*
X150602Y307071D02*
X151102Y308071D01*
X150102Y307572D02*
X151102Y308071D01*
X149102D02*
X150102Y307572D01*
X149102Y308071D02*
X149602Y307071D01*
X149102Y306071D02*
X149602Y307071D01*
X95205Y242882D02*
X96205Y243383D01*
X97205Y242882D01*
X96705Y243882D02*
X97205Y242882D01*
X96705Y243882D02*
X97205Y244882D01*
X96205Y244383D02*
X97205Y244882D01*
X95205D02*
X96205Y244383D01*
X95205Y244882D02*
X95705Y243882D01*
X95205Y242882D02*
X95705Y243882D01*
X209109Y337023D02*
X210309D01*
Y338223D01*
X209109D02*
X210309D01*
X209109Y337023D02*
Y338223D01*
X208709Y336623D02*
X210709D01*
Y338623D01*
X208709D02*
X210709D01*
X208709Y336623D02*
Y338623D01*
X152494Y337062D02*
X153694D01*
Y338262D01*
X152494D02*
X153694D01*
X152494Y337062D02*
Y338262D01*
X152094Y336662D02*
X154094D01*
Y338662D01*
X152094D02*
X154094D01*
X152094Y336662D02*
Y338662D01*
X184620Y234424D02*
X185820D01*
Y235624D01*
X184620D02*
X185820D01*
X184620Y234424D02*
Y235624D01*
X184220Y234024D02*
X186220D01*
Y236024D01*
X184220D02*
X186220D01*
X184220Y234024D02*
Y236024D01*
X186549Y282180D02*
X187750D01*
Y283380D01*
X186549D02*
X187750D01*
X186549Y282180D02*
Y283380D01*
X186150Y281780D02*
X188149D01*
Y283780D01*
X186150D02*
X188149D01*
X186150Y281780D02*
Y283780D01*
X120526Y236590D02*
X121726D01*
Y237790D01*
X120526D02*
X121726D01*
X120526Y236590D02*
Y237790D01*
X120126Y236190D02*
X122126D01*
Y238190D01*
X120126D02*
X122126D01*
X120126Y236190D02*
Y238190D01*
X114817Y279227D02*
X116017D01*
Y280427D01*
X114817D02*
X116017D01*
X114817Y279227D02*
Y280427D01*
X114417Y278827D02*
X116417D01*
Y280827D01*
X114417D02*
X116417D01*
X114417Y278827D02*
Y280827D01*
X30998Y194345D02*
X32198D01*
Y195545D01*
X30998D02*
X32198D01*
X30998Y194345D02*
Y195545D01*
X30598Y193946D02*
X32598D01*
Y195946D01*
X30598D02*
X32598D01*
X30598Y193946D02*
Y195946D01*
X31628Y237259D02*
X32828D01*
Y238459D01*
X31628D02*
X32828D01*
X31628Y237259D02*
Y238459D01*
X31228Y236859D02*
X33228D01*
Y238859D01*
X31228D02*
X33228D01*
X31228Y236859D02*
Y238859D01*
X34109Y189346D02*
X35309D01*
Y190545D01*
X34109D02*
X35309D01*
X34109Y189346D02*
Y190545D01*
X33709Y188945D02*
X35709D01*
Y190945D01*
X33709D02*
X35709D01*
X33709Y188945D02*
Y190945D01*
X34227Y282771D02*
X35427D01*
Y283971D01*
X34227D02*
X35427D01*
X34227Y282771D02*
Y283971D01*
X33827Y282371D02*
X35827D01*
Y284371D01*
X33827D02*
X35827D01*
X33827Y282371D02*
Y284371D01*
X198439Y268086D02*
X199639D01*
Y269286D01*
X198439D02*
X199639D01*
X198439Y268086D02*
Y269286D01*
X198039Y267686D02*
X200039D01*
Y269686D01*
X198039D02*
X200039D01*
X198039Y267686D02*
Y269686D01*
X187967Y288873D02*
X189167D01*
Y290073D01*
X187967D02*
X189167D01*
X187967Y288873D02*
Y290073D01*
X187567Y288473D02*
X189567D01*
Y290473D01*
X187567D02*
X189567D01*
X187567Y288473D02*
Y290473D01*
X10998Y275881D02*
X12198D01*
Y277081D01*
X10998D02*
X12198D01*
X10998Y275881D02*
Y277081D01*
X10598Y275481D02*
X12598D01*
Y277481D01*
X10598D02*
X12598D01*
X10598Y275481D02*
Y277481D01*
X132455Y270290D02*
X133655D01*
Y271490D01*
X132455D02*
X133655D01*
X132455Y270290D02*
Y271490D01*
X132055Y269890D02*
X134055D01*
Y271890D01*
X132055D02*
X134055D01*
X132055Y269890D02*
Y271890D01*
X135637Y326267D02*
X136637Y326767D01*
X137637Y326267D01*
X137137Y327267D02*
X137637Y326267D01*
X137137Y327267D02*
X137637Y328267D01*
X136637Y327767D02*
X137637Y328267D01*
X135637D02*
X136637Y327767D01*
X135637Y328267D02*
X136137Y327267D01*
X135637Y326267D02*
X136137Y327267D01*
X135598Y320560D02*
X136598Y321060D01*
X137598Y320560D01*
X137098Y321560D02*
X137598Y320560D01*
X137098Y321560D02*
X137598Y322560D01*
X136598Y322060D02*
X137598Y322560D01*
X135598D02*
X136598Y322060D01*
X135598Y322560D02*
X136098Y321560D01*
X135598Y320560D02*
X136098Y321560D01*
X46818Y321897D02*
X47818Y322397D01*
X48818Y321897D01*
X48318Y322897D02*
X48818Y321897D01*
X48318Y322897D02*
X48818Y323897D01*
X47818Y323397D02*
X48818Y323897D01*
X46818D02*
X47818Y323397D01*
X46818Y323897D02*
X47318Y322897D01*
X46818Y321897D02*
X47318Y322897D01*
X12612Y237220D02*
X13813D01*
Y238420D01*
X12612D02*
X13813D01*
X12612Y237220D02*
Y238420D01*
X12212Y236820D02*
X14212D01*
Y238820D01*
X12212D02*
X14212D01*
X12212Y236820D02*
Y238820D01*
X27258Y269582D02*
X28458D01*
Y270782D01*
X27258D02*
X28458D01*
X27258Y269582D02*
Y270782D01*
X26858Y269182D02*
X28858D01*
Y271182D01*
X26858D02*
X28858D01*
X26858Y269182D02*
Y271182D01*
X310323Y163591D02*
X311323Y164091D01*
X312323Y163591D01*
X311823Y164591D02*
X312323Y163591D01*
X311823Y164591D02*
X312323Y165591D01*
X311323Y165091D02*
X312323Y165591D01*
X310323D02*
X311323Y165091D01*
X310323Y165591D02*
X310823Y164591D01*
X310323Y163591D02*
X310823Y164591D01*
X32337Y140802D02*
X33537D01*
Y142002D01*
X32337D02*
X33537D01*
X32337Y140802D02*
Y142002D01*
X31937Y140402D02*
X33937D01*
Y142402D01*
X31937D02*
X33937D01*
X31937Y140402D02*
Y142402D01*
X253747Y287960D02*
X254747Y288460D01*
X255747Y287960D01*
X255247Y288960D02*
X255747Y287960D01*
X255247Y288960D02*
X255747Y289960D01*
X254747Y289460D02*
X255747Y289960D01*
X253747D02*
X254747Y289460D01*
X253747Y289960D02*
X254247Y288960D01*
X253747Y287960D02*
X254247Y288960D01*
X223833Y196117D02*
X225033D01*
Y197317D01*
X223833D02*
X225033D01*
X223833Y196117D02*
Y197317D01*
X223433Y195717D02*
X225433D01*
Y197717D01*
X223433D02*
X225433D01*
X223433Y195717D02*
Y197717D01*
X288872Y198086D02*
X290072D01*
Y199286D01*
X288872D02*
X290072D01*
X288872Y198086D02*
Y199286D01*
X288472Y197686D02*
X290472D01*
Y199686D01*
X288472D02*
X290472D01*
X288472Y197686D02*
Y199686D01*
X273833Y129818D02*
X275033D01*
Y131018D01*
X273833D02*
X275033D01*
X273833Y129818D02*
Y131018D01*
X273433Y129418D02*
X275433D01*
Y131418D01*
X273433D02*
X275433D01*
X273433Y129418D02*
Y131418D01*
X260132Y281078D02*
X261332D01*
Y282278D01*
X260132D02*
X261332D01*
X260132Y281078D02*
Y282278D01*
X259732Y280678D02*
X261732D01*
Y282678D01*
X259732D02*
X261732D01*
X259732Y280678D02*
Y282678D01*
X242455Y284267D02*
X243655D01*
Y285467D01*
X242455D02*
X243655D01*
X242455Y284267D02*
Y285467D01*
X242055Y283867D02*
X244055D01*
Y285867D01*
X242055D02*
X244055D01*
X242055Y283867D02*
Y285867D01*
X251825Y109306D02*
X253025D01*
Y110506D01*
X251825D02*
X253025D01*
X251825Y109306D02*
Y110506D01*
X251425Y108906D02*
X253425D01*
Y110906D01*
X251425D02*
X253425D01*
X251425Y108906D02*
Y110906D01*
X145683Y148440D02*
X146883D01*
Y149640D01*
X145683D02*
X146883D01*
X145683Y148440D02*
Y149640D01*
X145283Y148040D02*
X147283D01*
Y150040D01*
X145283D02*
X147283D01*
X145283Y148040D02*
Y150040D01*
X76510Y86697D02*
X77710D01*
Y87897D01*
X76510D02*
X77710D01*
X76510Y86697D02*
Y87897D01*
X76110Y86297D02*
X78110D01*
Y88297D01*
X76110D02*
X78110D01*
X76110Y86297D02*
Y88297D01*
X100131Y76982D02*
X101331D01*
Y78182D01*
X100131D02*
X101331D01*
X100131Y76982D02*
Y78182D01*
X99731Y76582D02*
X101731D01*
Y78582D01*
X99731D02*
X101731D01*
X99731Y76582D02*
Y78582D01*
X84266Y75409D02*
X85466D01*
Y76609D01*
X84266D02*
X85466D01*
X84266Y75409D02*
Y76609D01*
X83866Y75008D02*
X85866D01*
Y77008D01*
X83866D02*
X85866D01*
X83866Y75008D02*
Y77008D01*
X143433Y30496D02*
X144433Y30996D01*
X145433Y30496D01*
X144933Y31496D02*
X145433Y30496D01*
X144933Y31496D02*
X145433Y32496D01*
X144433Y31996D02*
X145433Y32496D01*
X143433D02*
X144433Y31996D01*
X143433Y32496D02*
X143933Y31496D01*
X143433Y30496D02*
X143933Y31496D01*
X227849Y53322D02*
X229049D01*
Y54522D01*
X227849D02*
X229049D01*
X227849Y53322D02*
Y54522D01*
X227449Y52922D02*
X229449D01*
Y54922D01*
X227449D02*
X229449D01*
X227449Y52922D02*
Y54922D01*
X228754Y98519D02*
X229954D01*
Y99719D01*
X228754D02*
X229954D01*
X228754Y98519D02*
Y99719D01*
X228354Y98119D02*
X230354D01*
Y100119D01*
X228354D02*
X230354D01*
X228354Y98119D02*
Y100119D01*
X227870Y102298D02*
X229070D01*
Y103498D01*
X227870D02*
X229070D01*
X227870Y102298D02*
Y103498D01*
X227470Y101898D02*
X229470D01*
Y103898D01*
X227470D02*
X229470D01*
X227470Y101898D02*
Y103898D01*
X227887Y105644D02*
X229087D01*
Y106844D01*
X227887D02*
X229087D01*
X227887Y105644D02*
Y106844D01*
X227487Y105244D02*
X229487D01*
Y107244D01*
X227487D02*
X229487D01*
X227487Y105244D02*
Y107244D01*
X250250Y96353D02*
X251450D01*
Y97553D01*
X250250D02*
X251450D01*
X250250Y96353D02*
Y97553D01*
X249850Y95953D02*
X251850D01*
Y97953D01*
X249850D02*
X251850D01*
X249850Y95953D02*
Y97953D01*
X237613Y67259D02*
X238812D01*
Y68459D01*
X237613D02*
X238812D01*
X237613Y67259D02*
Y68459D01*
X237212Y66859D02*
X239212D01*
Y68859D01*
X237212D02*
X239212D01*
X237212Y66859D02*
Y68859D01*
X257140Y67062D02*
X258340D01*
Y68262D01*
X257140D02*
X258340D01*
X257140Y67062D02*
Y68262D01*
X256740Y66662D02*
X258740D01*
Y68662D01*
X256740D02*
X258740D01*
X256740Y66662D02*
Y68662D01*
X117179Y130683D02*
X118379D01*
Y131883D01*
X117179D02*
X118379D01*
X117179Y130683D02*
Y131883D01*
X116779Y130283D02*
X118779D01*
Y132283D01*
X116779D02*
X118779D01*
X116779Y130283D02*
Y132283D01*
X120329Y198125D02*
X121529D01*
Y199325D01*
X120329D02*
X121529D01*
X120329Y198125D02*
Y199325D01*
X119929Y197725D02*
X121929D01*
Y199725D01*
X119929D02*
X121929D01*
X119929Y197725D02*
Y199725D01*
X234974Y180250D02*
X236174D01*
Y181450D01*
X234974D02*
X236174D01*
X234974Y180250D02*
Y181450D01*
X234574Y179850D02*
X236574D01*
Y181850D01*
X234574D02*
X236574D01*
X234574Y179850D02*
Y181850D01*
X294187Y5133D02*
X295387D01*
Y6333D01*
X294187D02*
X295387D01*
X294187Y5133D02*
Y6333D01*
X293787Y4733D02*
X295787D01*
Y6733D01*
X293787D02*
X295787D01*
X293787Y4733D02*
Y6733D01*
X285998Y7377D02*
X287198D01*
Y8577D01*
X285998D02*
X287198D01*
X285998Y7377D02*
Y8577D01*
X285598Y6977D02*
X287598D01*
Y8977D01*
X285598D02*
X287598D01*
X285598Y6977D02*
Y8977D01*
X225014Y207023D02*
X226214D01*
Y208223D01*
X225014D02*
X226214D01*
X225014Y207023D02*
Y208223D01*
X224614Y206623D02*
X226614D01*
Y208623D01*
X224614D02*
X226614D01*
X224614Y206623D02*
Y208623D01*
X83518Y170842D02*
X84718D01*
Y172042D01*
X83518D02*
X84718D01*
X83518Y170842D02*
Y172042D01*
X83118Y170442D02*
X85118D01*
Y172442D01*
X83118D02*
X85118D01*
X83118Y170442D02*
Y172442D01*
X49811Y342056D02*
X50811Y342556D01*
X51811Y342056D01*
X51311Y343056D02*
X51811Y342056D01*
X51311Y343056D02*
X51811Y344056D01*
X50811Y343556D02*
X51811Y344056D01*
X49811D02*
X50811Y343556D01*
X49811Y344056D02*
X50311Y343056D01*
X49811Y342056D02*
X50311Y343056D01*
X298597Y329739D02*
X299797D01*
Y330939D01*
X298597D02*
X299797D01*
X298597Y329739D02*
Y330939D01*
X298197Y329339D02*
X300197D01*
Y331339D01*
X298197D02*
X300197D01*
X298197Y329339D02*
Y331339D01*
X149299Y278040D02*
X150299Y278540D01*
X151299Y278040D01*
X150799Y279040D02*
X151299Y278040D01*
X150799Y279040D02*
X151299Y280040D01*
X150299Y279540D02*
X151299Y280040D01*
X149299D02*
X150299Y279540D01*
X149299Y280040D02*
X149799Y279040D01*
X149299Y278040D02*
X149799Y279040D01*
X208912Y188164D02*
X210112D01*
Y189364D01*
X208912D02*
X210112D01*
X208912Y188164D02*
Y189364D01*
X208512Y187764D02*
X210512D01*
Y189764D01*
X208512D02*
X210512D01*
X208512Y187764D02*
Y189764D01*
X52849Y288834D02*
X54049D01*
Y290034D01*
X52849D02*
X54049D01*
X52849Y288834D02*
Y290034D01*
X52449Y288434D02*
X54449D01*
Y290434D01*
X52449D02*
X54449D01*
X52449Y288434D02*
Y290434D01*
X107691Y275645D02*
X108891D01*
Y276845D01*
X107691D02*
X108891D01*
X107691Y275645D02*
Y276845D01*
X107291Y275245D02*
X109291D01*
Y277245D01*
X107291D02*
X109291D01*
X107291Y275245D02*
Y277245D01*
X254063Y293552D02*
X255063Y294052D01*
X256063Y293552D01*
X255563Y294552D02*
X256063Y293552D01*
X255563Y294552D02*
X256063Y295552D01*
X255063Y295052D02*
X256063Y295552D01*
X254063D02*
X255063Y295052D01*
X254063Y295552D02*
X254563Y294552D01*
X254063Y293552D02*
X254563Y294552D01*
X248157Y293552D02*
X249157Y294052D01*
X250157Y293552D01*
X249657Y294552D02*
X250157Y293552D01*
X249657Y294552D02*
X250157Y295552D01*
X249157Y295052D02*
X250157Y295552D01*
X248157D02*
X249157Y295052D01*
X248157Y295552D02*
X248657Y294552D01*
X248157Y293552D02*
X248657Y294552D01*
X248157Y299457D02*
X249157Y299957D01*
X250157Y299457D01*
X249657Y300457D02*
X250157Y299457D01*
X249657Y300457D02*
X250157Y301457D01*
X249157Y300957D02*
X250157Y301457D01*
X248157D02*
X249157Y300957D01*
X248157Y301457D02*
X248657Y300457D01*
X248157Y299457D02*
X248657Y300457D01*
X254063Y299457D02*
X255063Y299957D01*
X256063Y299457D01*
X255563Y300457D02*
X256063Y299457D01*
X255563Y300457D02*
X256063Y301457D01*
X255063Y300957D02*
X256063Y301457D01*
X254063D02*
X255063Y300957D01*
X254063Y301457D02*
X254563Y300457D01*
X254063Y299457D02*
X254563Y300457D01*
X242252Y53906D02*
X243252Y54406D01*
X244252Y53906D01*
X243752Y54906D02*
X244252Y53906D01*
X243752Y54906D02*
X244252Y55906D01*
X243252Y55406D02*
X244252Y55906D01*
X242252D02*
X243252Y55406D01*
X242252Y55906D02*
X242752Y54906D01*
X242252Y53906D02*
X242752Y54906D01*
X248590Y53906D02*
X249590Y54406D01*
X250590Y53906D01*
X250091Y54906D02*
X250590Y53906D01*
X250091Y54906D02*
X250590Y55906D01*
X249590Y55406D02*
X250590Y55906D01*
X248590D02*
X249590Y55406D01*
X248590Y55906D02*
X249091Y54906D01*
X248590Y53906D02*
X249091Y54906D01*
X95047Y47961D02*
X96047Y48461D01*
X97047Y47961D01*
X96547Y48961D02*
X97047Y47961D01*
X96547Y48961D02*
X97047Y49961D01*
X96047Y49461D02*
X97047Y49961D01*
X95047D02*
X96047Y49461D01*
X95047Y49961D02*
X95547Y48961D01*
X95047Y47961D02*
X95547Y48961D01*
X88512Y59851D02*
X89512Y60351D01*
X90512Y59851D01*
X90012Y60851D02*
X90512Y59851D01*
X90012Y60851D02*
X90512Y61851D01*
X89512Y61351D02*
X90512Y61851D01*
X88512D02*
X89512Y61351D01*
X88512Y61851D02*
X89012Y60851D01*
X88512Y59851D02*
X89012Y60851D01*
X95047Y59851D02*
X96047Y60351D01*
X97047Y59851D01*
X96547Y60851D02*
X97047Y59851D01*
X96547Y60851D02*
X97047Y61851D01*
X96047Y61351D02*
X97047Y61851D01*
X95047D02*
X96047Y61351D01*
X95047Y61851D02*
X95547Y60851D01*
X95047Y59851D02*
X95547Y60851D01*
X242252Y47961D02*
X243252Y48461D01*
X244252Y47961D01*
X243752Y48961D02*
X244252Y47961D01*
X243752Y48961D02*
X244252Y49961D01*
X243252Y49461D02*
X244252Y49961D01*
X242252D02*
X243252Y49461D01*
X242252Y49961D02*
X242752Y48961D01*
X242252Y47961D02*
X242752Y48961D01*
X248590Y59851D02*
X249590Y60351D01*
X250590Y59851D01*
X250091Y60851D02*
X250590Y59851D01*
X250091Y60851D02*
X250590Y61851D01*
X249590Y61351D02*
X250590Y61851D01*
X248590D02*
X249590Y61351D01*
X248590Y61851D02*
X249091Y60851D01*
X248590Y59851D02*
X249091Y60851D01*
X245486Y108991D02*
X246687D01*
Y110191D01*
X245486D02*
X246687D01*
X245486Y108991D02*
Y110191D01*
X245087Y108591D02*
X247087D01*
Y110591D01*
X245087D02*
X247087D01*
X245087Y108591D02*
Y110591D01*
X19738Y188204D02*
X20938D01*
Y189404D01*
X19738D02*
X20938D01*
X19738Y188204D02*
Y189404D01*
X19339Y187804D02*
X21339D01*
Y189804D01*
X19339D02*
X21339D01*
X19339Y187804D02*
Y189804D01*
X211740Y315875D02*
X212740Y316375D01*
X213740Y315875D01*
X213240Y316875D02*
X213740Y315875D01*
X213240Y316875D02*
X213740Y317875D01*
X212740Y317375D02*
X213740Y317875D01*
X211740D02*
X212740Y317375D01*
X211740Y317875D02*
X212240Y316875D01*
X211740Y315875D02*
X212240Y316875D01*
X248157Y287646D02*
X249157Y288146D01*
X250157Y287646D01*
X249657Y288646D02*
X250157Y287646D01*
X249657Y288646D02*
X250157Y289646D01*
X249157Y289146D02*
X250157Y289646D01*
X248157D02*
X249157Y289146D01*
X248157Y289646D02*
X248657Y288646D01*
X248157Y287646D02*
X248657Y288646D01*
X156077Y183086D02*
X157277D01*
Y184286D01*
X156077D02*
X157277D01*
X156077Y183086D02*
Y184286D01*
X155677Y182686D02*
X157677D01*
Y184686D01*
X155677D02*
X157677D01*
X155677Y182686D02*
Y184686D01*
X279855Y153518D02*
X281055D01*
Y154718D01*
X279855D02*
X281055D01*
X279855Y153518D02*
Y154718D01*
X279455Y153118D02*
X281455D01*
Y155118D01*
X279455D02*
X281455D01*
X279455Y153118D02*
Y155118D01*
X214896Y146353D02*
X216096D01*
Y147553D01*
X214896D02*
X216096D01*
X214896Y146353D02*
Y147553D01*
X214496Y145953D02*
X216496D01*
Y147953D01*
X214496D02*
X216496D01*
X214496Y145953D02*
Y147953D01*
X203754Y193991D02*
X204954D01*
Y195191D01*
X203754D02*
X204954D01*
X203754Y193991D02*
Y195191D01*
X203354Y193591D02*
X205354D01*
Y195591D01*
X203354D02*
X205354D01*
X203354Y193591D02*
Y195591D01*
X203321Y201196D02*
X204521D01*
Y202396D01*
X203321D02*
X204521D01*
X203321Y201196D02*
Y202396D01*
X202921Y200796D02*
X204921D01*
Y202796D01*
X202921D02*
X204921D01*
X202921Y200796D02*
Y202796D01*
X208991Y199030D02*
X210191D01*
Y200231D01*
X208991D02*
X210191D01*
X208991Y199030D02*
Y200231D01*
X208591Y198630D02*
X210591D01*
Y200630D01*
X208591D02*
X210591D01*
X208591Y198630D02*
Y200630D01*
X305605Y204030D02*
X306805D01*
Y205230D01*
X305605D02*
X306805D01*
X305605Y204030D02*
Y205230D01*
X305205Y203630D02*
X307205D01*
Y205630D01*
X305205D02*
X307205D01*
X305205Y203630D02*
Y205630D01*
X256274Y110566D02*
X257474D01*
Y111766D01*
X256274D02*
X257474D01*
X256274Y110566D02*
Y111766D01*
X255874Y110166D02*
X257874D01*
Y112166D01*
X255874D02*
X257874D01*
X255874Y110166D02*
Y112166D01*
X146864Y191668D02*
X148064D01*
Y192868D01*
X146864D02*
X148064D01*
X146864Y191668D02*
Y192868D01*
X146465Y191268D02*
X148465D01*
Y193268D01*
X146465D02*
X148465D01*
X146465Y191268D02*
Y193268D01*
X143911Y166982D02*
X145111D01*
Y168182D01*
X143911D02*
X145111D01*
X143911Y166982D02*
Y168182D01*
X143511Y166582D02*
X145511D01*
Y168582D01*
X143511D02*
X145511D01*
X143511Y166582D02*
Y168582D01*
X211156Y75566D02*
X212356D01*
Y76766D01*
X211156D02*
X212356D01*
X211156Y75566D02*
Y76766D01*
X210756Y75166D02*
X212756D01*
Y77166D01*
X210756D02*
X212756D01*
X210756Y75166D02*
Y77166D01*
X130264Y157607D02*
X131264Y158107D01*
X132264Y157607D01*
X131764Y158607D02*
X132264Y157607D01*
X131764Y158607D02*
X132264Y159607D01*
X131264Y159107D02*
X132264Y159607D01*
X130264D02*
X131264Y159107D01*
X130264Y159607D02*
X130764Y158607D01*
X130264Y157607D02*
X130764Y158607D01*
X124653Y157607D02*
X125654Y158107D01*
X126654Y157607D01*
X126154Y158607D02*
X126654Y157607D01*
X126154Y158607D02*
X126654Y159607D01*
X125654Y159107D02*
X126654Y159607D01*
X124653D02*
X125654Y159107D01*
X124653Y159607D02*
X125154Y158607D01*
X124653Y157607D02*
X125154Y158607D01*
X135874Y157607D02*
X136874Y158107D01*
X137874Y157607D01*
X137374Y158607D02*
X137874Y157607D01*
X137374Y158607D02*
X137874Y159607D01*
X136874Y159107D02*
X137874Y159607D01*
X135874D02*
X136874Y159107D01*
X135874Y159607D02*
X136374Y158607D01*
X135874Y157607D02*
X136374Y158607D01*
X135913Y162646D02*
X136913Y163146D01*
X137913Y162646D01*
X137413Y163646D02*
X137913Y162646D01*
X137413Y163646D02*
X137913Y164646D01*
X136913Y164146D02*
X137913Y164646D01*
X135913D02*
X136913Y164146D01*
X135913Y164646D02*
X136413Y163646D01*
X135913Y162646D02*
X136413Y163646D01*
X124181Y162646D02*
X125181Y163146D01*
X126181Y162646D01*
X125681Y163646D02*
X126181Y162646D01*
X125681Y163646D02*
X126181Y164646D01*
X125181Y164146D02*
X126181Y164646D01*
X124181D02*
X125181Y164146D01*
X124181Y164646D02*
X124681Y163646D01*
X124181Y162646D02*
X124681Y163646D01*
X130441Y162646D02*
X131441Y163146D01*
X132441Y162646D01*
X131941Y163646D02*
X132441Y162646D01*
X131941Y163646D02*
X132441Y164646D01*
X131441Y164146D02*
X132441Y164646D01*
X130441D02*
X131441Y164146D01*
X130441Y164646D02*
X130941Y163646D01*
X130441Y162646D02*
X130941Y163646D01*
X193636Y191393D02*
X194836D01*
Y192593D01*
X193636D02*
X194836D01*
X193636Y191393D02*
Y192593D01*
X193236Y190993D02*
X195236D01*
Y192993D01*
X193236D02*
X195236D01*
X193236Y190993D02*
Y192993D01*
X239541Y38203D02*
X240741D01*
Y39403D01*
X239541D02*
X240741D01*
X239541Y38203D02*
Y39403D01*
X239141Y37803D02*
X241141D01*
Y39803D01*
X239141D02*
X241141D01*
X239141Y37803D02*
Y39803D01*
X299030Y338912D02*
X300230D01*
Y340112D01*
X299030D02*
X300230D01*
X299030Y338912D02*
Y340112D01*
X298630Y338512D02*
X300630D01*
Y340512D01*
X298630D02*
X300630D01*
X298630Y338512D02*
Y340512D01*
X178872Y121393D02*
X180072D01*
Y122593D01*
X178872D02*
X180072D01*
X178872Y121393D02*
Y122593D01*
X178472Y120993D02*
X180472D01*
Y122993D01*
X178472D02*
X180472D01*
X178472Y120993D02*
Y122993D01*
X114778Y199700D02*
X115978D01*
Y200900D01*
X114778D02*
X115978D01*
X114778Y199700D02*
Y200900D01*
X114378Y199300D02*
X116378D01*
Y201300D01*
X114378D02*
X116378D01*
X114378Y199300D02*
Y201300D01*
X73039Y345204D02*
X74039Y345704D01*
X75039Y345204D01*
X74539Y346204D02*
X75039Y345204D01*
X74539Y346204D02*
X75039Y347204D01*
X74039Y346704D02*
X75039Y347204D01*
X73039D02*
X74039Y346704D01*
X73039Y347204D02*
X73539Y346204D01*
X73039Y345204D02*
X73539Y346204D01*
X59502Y248676D02*
X60702D01*
Y249876D01*
X59502D02*
X60702D01*
X59502Y248676D02*
Y249876D01*
X59102Y248276D02*
X61102D01*
Y250276D01*
X59102D02*
X61102D01*
X59102Y248276D02*
Y250276D01*
X176156Y208164D02*
X177356D01*
Y209364D01*
X176156D02*
X177356D01*
X176156Y208164D02*
Y209364D01*
X175756Y207764D02*
X177756D01*
Y209764D01*
X175756D02*
X177756D01*
X175756Y207764D02*
Y209764D01*
X59502Y213086D02*
X60702D01*
Y214286D01*
X59502D02*
X60702D01*
X59502Y213086D02*
Y214286D01*
X59102Y212686D02*
X61102D01*
Y214686D01*
X59102D02*
X61102D01*
X59102Y212686D02*
Y214686D01*
X12494Y216432D02*
X13694D01*
Y217632D01*
X12494D02*
X13694D01*
X12494Y216432D02*
Y217632D01*
X12094Y216032D02*
X14094D01*
Y218032D01*
X12094D02*
X14094D01*
X12094Y216032D02*
Y218032D01*
X182652Y323361D02*
X183852D01*
Y324561D01*
X182652D02*
X183852D01*
X182652Y323361D02*
Y324561D01*
X182252Y322961D02*
X184252D01*
Y324961D01*
X182252D02*
X184252D01*
X182252Y322961D02*
Y324961D01*
X183046Y305487D02*
X184246D01*
Y306687D01*
X183046D02*
X184246D01*
X183046Y305487D02*
Y306687D01*
X182646Y305087D02*
X184646D01*
Y307087D01*
X182646D02*
X184646D01*
X182646Y305087D02*
Y307087D01*
X144472Y250990D02*
X145672D01*
Y252190D01*
X144472D02*
X145672D01*
X144472Y250990D02*
Y252190D01*
X144072Y250590D02*
X146072D01*
Y252590D01*
X144072D02*
X146072D01*
X144072Y250590D02*
Y252590D01*
X178567Y257171D02*
X179766D01*
Y258371D01*
X178567D02*
X179766D01*
X178567Y257171D02*
Y258371D01*
X178166Y256771D02*
X180166D01*
Y258771D01*
X178166D02*
X180166D01*
X178166Y256771D02*
Y258771D01*
X123597Y323912D02*
X124797D01*
Y325112D01*
X123597D02*
X124797D01*
X123597Y323912D02*
Y325112D01*
X123197Y323512D02*
X125197D01*
Y325512D01*
X123197D02*
X125197D01*
X123197Y323512D02*
Y325512D01*
X110614Y253037D02*
X111814D01*
Y254237D01*
X110614D02*
X111814D01*
X110614Y253037D02*
Y254237D01*
X110214Y252637D02*
X112214D01*
Y254637D01*
X110214D02*
X112214D01*
X110214Y252637D02*
Y254637D01*
X81834Y249888D02*
X83034D01*
Y251088D01*
X81834D02*
X83034D01*
X81834Y249888D02*
Y251088D01*
X81434Y249488D02*
X83434D01*
Y251488D01*
X81434D02*
X83434D01*
X81434Y249488D02*
Y251488D01*
X83921Y285518D02*
X85121D01*
Y286718D01*
X83921D02*
X85121D01*
X83921Y285518D02*
Y286718D01*
X83521Y285118D02*
X85521D01*
Y287118D01*
X83521D02*
X85521D01*
X83521Y285118D02*
Y287118D01*
X3212Y298234D02*
X4412D01*
Y299434D01*
X3212D02*
X4412D01*
X3212Y298234D02*
Y299434D01*
X2812Y297834D02*
X4812D01*
Y299834D01*
X2812D02*
X4812D01*
X2812Y297834D02*
Y299834D01*
X3133Y249297D02*
X4333D01*
Y250497D01*
X3133D02*
X4333D01*
X3133Y249297D02*
Y250497D01*
X2733Y248897D02*
X4733D01*
Y250897D01*
X2733D02*
X4733D01*
X2733Y248897D02*
Y250897D01*
X29975Y259227D02*
X31175D01*
Y260427D01*
X29975D02*
X31175D01*
X29975Y259227D02*
Y260427D01*
X29575Y258827D02*
X31575D01*
Y260827D01*
X29575D02*
X31575D01*
X29575Y258827D02*
Y260827D01*
X201983Y183598D02*
X203183D01*
Y184798D01*
X201983D02*
X203183D01*
X201983Y183598D02*
Y184798D01*
X201583Y183197D02*
X203583D01*
Y185197D01*
X201583D02*
X203583D01*
X201583Y183197D02*
Y185197D01*
X240762Y322968D02*
X241962D01*
Y324167D01*
X240762D02*
X241962D01*
X240762Y322968D02*
Y324167D01*
X240362Y322568D02*
X242362D01*
Y324568D01*
X240362D02*
X242362D01*
X240362Y322568D02*
Y324568D01*
X12770Y227849D02*
X13970D01*
Y229049D01*
X12770D02*
X13970D01*
X12770Y227849D02*
Y229049D01*
X12370Y227449D02*
X14370D01*
Y229449D01*
X12370D02*
X14370D01*
X12370Y227449D02*
Y229449D01*
X54030Y206511D02*
X55230D01*
Y207711D01*
X54030D02*
X55230D01*
X54030Y206511D02*
Y207711D01*
X53630Y206111D02*
X55630D01*
Y208111D01*
X53630D02*
X55630D01*
X53630Y206111D02*
Y208111D01*
X91273Y202297D02*
X92473D01*
Y203497D01*
X91273D02*
X92473D01*
X91273Y202297D02*
Y203497D01*
X90873Y201897D02*
X92873D01*
Y203897D01*
X90873D02*
X92873D01*
X90873Y201897D02*
Y203897D01*
X250093Y90369D02*
X251293D01*
Y91569D01*
X250093D02*
X251293D01*
X250093Y90369D02*
Y91569D01*
X249693Y89969D02*
X251693D01*
Y91969D01*
X249693D02*
X251693D01*
X249693Y89969D02*
Y91969D01*
X127522Y132287D02*
X128722D01*
Y133487D01*
X127522D02*
X128722D01*
X127522Y132287D02*
Y133487D01*
X127122Y131887D02*
X129122D01*
Y133887D01*
X127122D02*
X129122D01*
X127122Y131887D02*
Y133887D01*
X311307Y222883D02*
X312307Y223382D01*
X313307Y222883D01*
X312807Y223883D02*
X313307Y222883D01*
X312807Y223883D02*
X313307Y224883D01*
X312307Y224382D02*
X313307Y224883D01*
X311307D02*
X312307Y224382D01*
X311307Y224883D02*
X311807Y223883D01*
X311307Y222883D02*
X311807Y223883D01*
X180172Y108952D02*
X181372D01*
Y110152D01*
X180172D02*
X181372D01*
X180172Y108952D02*
Y110152D01*
X179772Y108552D02*
X181772D01*
Y110552D01*
X179772D02*
X181772D01*
X179772Y108552D02*
Y110552D01*
X217652Y70527D02*
X218852D01*
Y71727D01*
X217652D02*
X218852D01*
X217652Y70527D02*
Y71727D01*
X217252Y70127D02*
X219252D01*
Y72127D01*
X217252D02*
X219252D01*
X217252Y70127D02*
Y72127D01*
X221038Y67889D02*
X222238D01*
Y69089D01*
X221038D02*
X222238D01*
X221038Y67889D02*
Y69089D01*
X220638Y67489D02*
X222638D01*
Y69489D01*
X220638D02*
X222638D01*
X220638Y67489D02*
Y69489D01*
X203196Y129141D02*
X204196Y129641D01*
X205196Y129141D01*
X204696Y130141D02*
X205196Y129141D01*
X204696Y130141D02*
X205196Y131141D01*
X204196Y130641D02*
X205196Y131141D01*
X203196D02*
X204196Y130641D01*
X203196Y131141D02*
X203696Y130141D01*
X203196Y129141D02*
X203696Y130141D01*
X201707Y116826D02*
X202907D01*
Y118026D01*
X201707D02*
X202907D01*
X201707Y116826D02*
Y118026D01*
X201307Y116426D02*
X203307D01*
Y118426D01*
X201307D02*
X203307D01*
X201307Y116426D02*
Y118426D01*
X240800Y71313D02*
X242001D01*
Y72513D01*
X240800D02*
X242001D01*
X240800Y71313D02*
Y72513D01*
X240401Y70913D02*
X242401D01*
Y72913D01*
X240401D02*
X242401D01*
X240401Y70913D02*
Y72913D01*
X219424Y216282D02*
X220623D01*
Y217482D01*
X219424D02*
X220623D01*
X219424Y216282D02*
Y217482D01*
X219023Y215882D02*
X221024D01*
Y217882D01*
X219023D02*
X221024D01*
X219023Y215882D02*
Y217882D01*
X203731Y152936D02*
X204931D01*
Y154136D01*
X203731D02*
X204931D01*
X203731Y152936D02*
Y154136D01*
X203331Y152536D02*
X205331D01*
Y154536D01*
X203331D02*
X205331D01*
X203331Y152536D02*
Y154536D01*
X203731Y146880D02*
X204931D01*
Y148080D01*
X203731D02*
X204931D01*
X203731Y146880D02*
Y148080D01*
X203331Y146480D02*
X205331D01*
Y148480D01*
X203331D02*
X205331D01*
X203331Y146480D02*
Y148480D01*
X242786Y166880D02*
X243986D01*
Y168080D01*
X242786D02*
X243986D01*
X242786Y166880D02*
Y168080D01*
X242386Y166480D02*
X244386D01*
Y168480D01*
X242386D02*
X244386D01*
X242386Y166480D02*
Y168480D01*
X259463Y121353D02*
X260663D01*
Y122553D01*
X259463D02*
X260663D01*
X259463Y121353D02*
Y122553D01*
X259063Y120953D02*
X261063D01*
Y122953D01*
X259063D02*
X261063D01*
X259063Y120953D02*
Y122953D01*
X73370Y102898D02*
X74370Y103398D01*
X75370Y102898D01*
X74870Y103898D02*
X75370Y102898D01*
X74870Y103898D02*
X75370Y104898D01*
X74370Y104398D02*
X75370Y104898D01*
X73370D02*
X74370Y104398D01*
X73370Y104898D02*
X73870Y103898D01*
X73370Y102898D02*
X73870Y103898D01*
X135441Y78473D02*
X136441Y78973D01*
X137441Y78473D01*
X136941Y79473D02*
X137441Y78473D01*
X136941Y79473D02*
X137441Y80473D01*
X136441Y79973D02*
X137441Y80473D01*
X135441D02*
X136441Y79973D01*
X135441Y80473D02*
X135941Y79473D01*
X135441Y78473D02*
X135941Y79473D01*
X29457Y19024D02*
X30457Y19524D01*
X31457Y19024D01*
X30957Y20024D02*
X31457Y19024D01*
X30957Y20024D02*
X31457Y21024D01*
X30457Y20524D02*
X31457Y21024D01*
X29457D02*
X30457Y20524D01*
X29457Y21024D02*
X29957Y20024D01*
X29457Y19024D02*
X29957Y20024D01*
X5717Y61780D02*
X6717Y62280D01*
X7717Y61780D01*
X7216Y62780D02*
X7717Y61780D01*
X7216Y62780D02*
X7717Y63780D01*
X6717Y63280D02*
X7717Y63780D01*
X5717D02*
X6717Y63280D01*
X5717Y63780D02*
X6216Y62780D01*
X5717Y61780D02*
X6216Y62780D01*
X22173Y313946D02*
X23173Y314445D01*
X24173Y313946D01*
X23673Y314946D02*
X24173Y313946D01*
X23673Y314946D02*
X24173Y315946D01*
X23173Y315445D02*
X24173Y315946D01*
X22173D02*
X23173Y315445D01*
X22173Y315946D02*
X22673Y314946D01*
X22173Y313946D02*
X22673Y314946D01*
X137764Y302883D02*
X138764Y303382D01*
X139764Y302883D01*
X139264Y303883D02*
X139764Y302883D01*
X139264Y303883D02*
X139764Y304883D01*
X138764Y304382D02*
X139764Y304883D01*
X137764D02*
X138764Y304382D01*
X137764Y304883D02*
X138264Y303883D01*
X137764Y302883D02*
X138264Y303883D01*
X206622Y323906D02*
X207622Y324406D01*
X208622Y323906D01*
X208122Y324906D02*
X208622Y323906D01*
X208122Y324906D02*
X208622Y325906D01*
X207622Y325406D02*
X208622Y325906D01*
X206622D02*
X207622Y325406D01*
X206622Y325906D02*
X207122Y324906D01*
X206622Y323906D02*
X207122Y324906D01*
X265598Y329890D02*
X266598Y330390D01*
X267598Y329890D01*
X267098Y330890D02*
X267598Y329890D01*
X267098Y330890D02*
X267598Y331890D01*
X266598Y331390D02*
X267598Y331890D01*
X265598D02*
X266598Y331390D01*
X265598Y331890D02*
X266098Y330890D01*
X265598Y329890D02*
X266098Y330890D01*
X328528Y309709D02*
X329528Y310209D01*
X330528Y309709D01*
X330028Y310709D02*
X330528Y309709D01*
X330028Y310709D02*
X330528Y311709D01*
X329528Y311209D02*
X330528Y311709D01*
X328528D02*
X329528Y311209D01*
X328528Y311709D02*
X329028Y310709D01*
X328528Y309709D02*
X329028Y310709D01*
X306268Y77764D02*
X307268Y78264D01*
X308268Y77764D01*
X307768Y78764D02*
X308268Y77764D01*
X307768Y78764D02*
X308268Y79764D01*
X307268Y79264D02*
X308268Y79764D01*
X306268D02*
X307268Y79264D01*
X306268Y79764D02*
X306768Y78764D01*
X306268Y77764D02*
X306768Y78764D01*
X165732Y91126D02*
X166732Y91626D01*
X167732Y91126D01*
X167232Y92126D02*
X167732Y91126D01*
X167232Y92126D02*
X167732Y93126D01*
X166732Y92626D02*
X167732Y93126D01*
X165732D02*
X166732Y92626D01*
X165732Y93126D02*
X166232Y92126D01*
X165732Y91126D02*
X166232Y92126D01*
X200520Y11741D02*
X201520Y12241D01*
X202520Y11741D01*
X202020Y12741D02*
X202520Y11741D01*
X202020Y12741D02*
X202520Y13741D01*
X201520Y13241D02*
X202520Y13741D01*
X200520D02*
X201520Y13241D01*
X200520Y13741D02*
X201020Y12741D01*
X200520Y11741D02*
X201020Y12741D01*
X87179Y337021D02*
X88379D01*
Y338221D01*
X87179D02*
X88379D01*
X87179Y337021D02*
Y338221D01*
X86779Y336621D02*
X88779D01*
Y338621D01*
X86779D02*
X88779D01*
X86779Y336621D02*
Y338621D01*
X53400Y176786D02*
X54600D01*
Y177986D01*
X53400D02*
X54600D01*
X53400Y176786D02*
Y177986D01*
X53000Y176386D02*
X55000D01*
Y178386D01*
X53000D02*
X55000D01*
X53000Y176386D02*
Y178386D01*
X207888Y238243D02*
X209088D01*
Y239443D01*
X207888D02*
X209088D01*
X207888Y238243D02*
Y239443D01*
X207488Y237843D02*
X209488D01*
Y239843D01*
X207488D02*
X209488D01*
X207488Y237843D02*
Y239843D01*
X95047Y53906D02*
X96047Y54406D01*
X97047Y53906D01*
X96547Y54906D02*
X97047Y53906D01*
X96547Y54906D02*
X97047Y55906D01*
X96047Y55406D02*
X97047Y55906D01*
X95047D02*
X96047Y55406D01*
X95047Y55906D02*
X95547Y54906D01*
X95047Y53906D02*
X95547Y54906D01*
X88512Y53906D02*
X89512Y54406D01*
X90512Y53906D01*
X90012Y54906D02*
X90512Y53906D01*
X90012Y54906D02*
X90512Y55906D01*
X89512Y55406D02*
X90512Y55906D01*
X88512D02*
X89512Y55406D01*
X88512Y55906D02*
X89012Y54906D01*
X88512Y53906D02*
X89012Y54906D01*
X231785Y2180D02*
X232985D01*
Y3379D01*
X231785D02*
X232985D01*
X231785Y2180D02*
Y3379D01*
X231385Y1780D02*
X233385D01*
Y3779D01*
X231385D02*
X233385D01*
X231385Y1780D02*
Y3779D01*
X175424Y114046D02*
X176624D01*
Y115246D01*
X175424D02*
X176624D01*
X175424Y114046D02*
Y115246D01*
X175024Y113646D02*
X177024D01*
Y115646D01*
X175024D02*
X177024D01*
X175024Y113646D02*
Y115646D01*
X161802Y118888D02*
X163002D01*
Y120088D01*
X161802D02*
X163002D01*
X161802Y118888D02*
Y120088D01*
X161402Y118488D02*
X163402D01*
Y120488D01*
X161402D02*
X163402D01*
X161402Y118488D02*
Y120488D01*
X156874Y123134D02*
X157874Y123634D01*
X158874Y123134D01*
X158374Y124134D02*
X158874Y123134D01*
X158374Y124134D02*
X158874Y125134D01*
X157874Y124634D02*
X158874Y125134D01*
X156874D02*
X157874Y124634D01*
X156874Y125134D02*
X157374Y124134D01*
X156874Y123134D02*
X157374Y124134D01*
X151086Y113567D02*
X152086Y114067D01*
X153086Y113567D01*
X152586Y114567D02*
X153086Y113567D01*
X152586Y114567D02*
X153086Y115567D01*
X152086Y115067D02*
X153086Y115567D01*
X151086D02*
X152086Y115067D01*
X151086Y115567D02*
X151586Y114567D01*
X151086Y113567D02*
X151586Y114567D01*
X283809Y248140D02*
X285010D01*
Y249340D01*
X283809D02*
X285010D01*
X283809Y248140D02*
Y249340D01*
X283410Y247740D02*
X285409D01*
Y249740D01*
X283410D02*
X285409D01*
X283410Y247740D02*
Y249740D01*
X279242Y248140D02*
X280443D01*
Y249340D01*
X279242D02*
X280443D01*
X279242Y248140D02*
Y249340D01*
X278842Y247740D02*
X280842D01*
Y249740D01*
X278842D02*
X280842D01*
X278842Y247740D02*
Y249740D01*
X309945Y23961D02*
X310945Y24461D01*
X311945Y23961D01*
X311445Y24961D02*
X311945Y23961D01*
X311445Y24961D02*
X311945Y25961D01*
X310945Y25461D02*
X311945Y25961D01*
X309945D02*
X310945Y25461D01*
X309945Y25961D02*
X310445Y24961D01*
X309945Y23961D02*
X310445Y24961D01*
X312759Y234756D02*
X313959D01*
Y235956D01*
X312759D02*
X313959D01*
X312759Y234756D02*
Y235956D01*
X312359Y234356D02*
X314359D01*
Y236356D01*
X312359D02*
X314359D01*
X312359Y234356D02*
Y236356D01*
X284769Y281802D02*
X285969D01*
Y283002D01*
X284769D02*
X285969D01*
X284769Y281802D02*
Y283002D01*
X284369Y281402D02*
X286369D01*
Y283402D01*
X284369D02*
X286369D01*
X284369Y281402D02*
Y283402D01*
X279855Y281802D02*
X281055D01*
Y283002D01*
X279855D02*
X281055D01*
X279855Y281802D02*
Y283002D01*
X279455Y281402D02*
X281455D01*
Y283402D01*
X279455D02*
X281455D01*
X279455Y281402D02*
Y283402D01*
X279855Y274439D02*
X281055D01*
Y275639D01*
X279855D02*
X281055D01*
X279855Y274439D02*
Y275639D01*
X279455Y274039D02*
X281455D01*
Y276039D01*
X279455D02*
X281455D01*
X279455Y274039D02*
Y276039D01*
X284769Y274439D02*
X285969D01*
Y275639D01*
X284769D02*
X285969D01*
X284769Y274439D02*
Y275639D01*
X284369Y274039D02*
X286369D01*
Y276039D01*
X284369D02*
X286369D01*
X284369Y274039D02*
Y276039D01*
X289703Y274439D02*
X290903D01*
Y275639D01*
X289703D02*
X290903D01*
X289703Y274439D02*
Y275639D01*
X289303Y274039D02*
X291303D01*
Y276039D01*
X289303D02*
X291303D01*
X289303Y274039D02*
Y276039D01*
X290485Y254774D02*
X291685D01*
Y255974D01*
X290485D02*
X291685D01*
X290485Y254774D02*
Y255974D01*
X290085Y254374D02*
X292085D01*
Y256374D01*
X290085D02*
X292085D01*
X290085Y254374D02*
Y256374D01*
X290333Y250306D02*
X291533D01*
Y251505D01*
X290333D02*
X291533D01*
X290333Y250306D02*
Y251505D01*
X289933Y249905D02*
X291933D01*
Y251905D01*
X289933D02*
X291933D01*
X289933Y249905D02*
Y251905D01*
X312759Y259520D02*
X313959D01*
Y260720D01*
X312759D02*
X313959D01*
X312759Y259520D02*
Y260720D01*
X312359Y259120D02*
X314359D01*
Y261120D01*
X312359D02*
X314359D01*
X312359Y259120D02*
Y261120D01*
X312759Y265106D02*
X313959D01*
Y266306D01*
X312759D02*
X313959D01*
X312759Y265106D02*
Y266306D01*
X312359Y264706D02*
X314359D01*
Y266706D01*
X312359D02*
X314359D01*
X312359Y264706D02*
Y266706D01*
X312759Y248258D02*
X313959D01*
Y249458D01*
X312759D02*
X313959D01*
X312759Y248258D02*
Y249458D01*
X312359Y247858D02*
X314359D01*
Y249858D01*
X312359D02*
X314359D01*
X312359Y247858D02*
Y249858D01*
X277623Y181800D02*
X278823D01*
Y183000D01*
X277623D02*
X278823D01*
X277623Y181800D02*
Y183000D01*
X277223Y181400D02*
X279223D01*
Y183400D01*
X277223D02*
X279223D01*
X277223Y181400D02*
Y183400D01*
X295227Y270266D02*
X296427D01*
Y271466D01*
X295227D02*
X296427D01*
X295227Y270266D02*
Y271466D01*
X294827Y269866D02*
X296827D01*
Y271866D01*
X294827D02*
X296827D01*
X294827Y269866D02*
Y271866D01*
X300211Y211447D02*
X301411D01*
Y212647D01*
X300211D02*
X301411D01*
X300211Y211447D02*
Y212647D01*
X299811Y211047D02*
X301811D01*
Y213047D01*
X299811D02*
X301811D01*
X299811Y211047D02*
Y213047D01*
X268140Y274439D02*
X269340D01*
Y275639D01*
X268140D02*
X269340D01*
X268140Y274439D02*
Y275639D01*
X267740Y274039D02*
X269740D01*
Y276039D01*
X267740D02*
X269740D01*
X267740Y274039D02*
Y276039D01*
X239636Y142746D02*
X240836D01*
Y143946D01*
X239636D02*
X240836D01*
X239636Y142746D02*
Y143946D01*
X239236Y142346D02*
X241236D01*
Y144346D01*
X239236D02*
X241236D01*
X239236Y142346D02*
Y144346D01*
X236015Y148258D02*
X237215D01*
Y149459D01*
X236015D02*
X237215D01*
X236015Y148258D02*
Y149459D01*
X235615Y147859D02*
X237615D01*
Y149858D01*
X235615D02*
X237615D01*
X235615Y147859D02*
Y149858D01*
X234204Y151015D02*
X235404D01*
Y152215D01*
X234204D02*
X235404D01*
X234204Y151015D02*
Y152215D01*
X233804Y150615D02*
X235804D01*
Y152615D01*
X233804D02*
X235804D01*
X233804Y150615D02*
Y152615D01*
X237825Y145502D02*
X239025D01*
Y146702D01*
X237825D02*
X239025D01*
X237825Y145502D02*
Y146702D01*
X237425Y145102D02*
X239425D01*
Y147102D01*
X237425D02*
X239425D01*
X237425Y145102D02*
Y147102D01*
X224912Y233895D02*
X226112D01*
Y235095D01*
X224912D02*
X226112D01*
X224912Y233895D02*
Y235095D01*
X224512Y233495D02*
X226512D01*
Y235495D01*
X224512D02*
X226512D01*
X224512Y233495D02*
Y235495D01*
X226762Y247471D02*
X227962D01*
Y248671D01*
X226762D02*
X227962D01*
X226762Y247471D02*
Y248671D01*
X226362Y247071D02*
X228362D01*
Y249071D01*
X226362D02*
X228362D01*
X226362Y247071D02*
Y249071D01*
X223691Y282771D02*
X224891D01*
Y283971D01*
X223691D02*
X224891D01*
X223691Y282771D02*
Y283971D01*
X223291Y282371D02*
X225291D01*
Y284371D01*
X223291D02*
X225291D01*
X223291Y282371D02*
Y284371D01*
X228064Y267858D02*
X229064Y268358D01*
X230064Y267858D01*
X229564Y268858D02*
X230064Y267858D01*
X229564Y268858D02*
X230064Y269858D01*
X229064Y269358D02*
X230064Y269858D01*
X228064D02*
X229064Y269358D01*
X228064Y269858D02*
X228564Y268858D01*
X228064Y267858D02*
X228564Y268858D01*
X275920Y167653D02*
X277120D01*
Y168853D01*
X275920D02*
X277120D01*
X275920Y167653D02*
Y168853D01*
X275520Y167253D02*
X277520D01*
Y169253D01*
X275520D02*
X277520D01*
X275520Y167253D02*
Y169253D01*
X276431Y153518D02*
X277631D01*
Y154718D01*
X276431D02*
X277631D01*
X276431Y153518D02*
Y154718D01*
X276031Y153118D02*
X278031D01*
Y155118D01*
X276031D02*
X278031D01*
X276031Y153118D02*
Y155118D01*
X222644Y135935D02*
X223844D01*
Y137135D01*
X222644D02*
X223844D01*
X222644Y135935D02*
Y137135D01*
X222244Y135535D02*
X224244D01*
Y137535D01*
X222244D02*
X224244D01*
X222244Y135535D02*
Y137535D01*
X234479Y237195D02*
X235679D01*
Y238395D01*
X234479D02*
X235679D01*
X234479Y237195D02*
Y238395D01*
X234079Y236795D02*
X236079D01*
Y238795D01*
X234079D02*
X236079D01*
X234079Y236795D02*
Y238795D01*
X235030Y187707D02*
X236230D01*
Y188907D01*
X235030D02*
X236230D01*
X235030Y187707D02*
Y188907D01*
X234630Y187307D02*
X236630D01*
Y189307D01*
X234630D02*
X236630D01*
X234630Y187307D02*
Y189307D01*
X238888Y189951D02*
X240088D01*
Y191151D01*
X238888D02*
X240088D01*
X238888Y189951D02*
Y191151D01*
X238488Y189551D02*
X240488D01*
Y191551D01*
X238488D02*
X240488D01*
X238488Y189551D02*
Y191551D01*
X241752Y185148D02*
X242952D01*
Y186348D01*
X241752D02*
X242952D01*
X241752Y185148D02*
Y186348D01*
X241352Y184748D02*
X243352D01*
Y186748D01*
X241352D02*
X243352D01*
X241352Y184748D02*
Y186748D01*
X244754Y182698D02*
X245954D01*
Y183898D01*
X244754D02*
X245954D01*
X244754Y182698D02*
Y183898D01*
X244354Y182298D02*
X246354D01*
Y184298D01*
X244354D02*
X246354D01*
X244354Y182298D02*
Y184298D01*
X248268Y177583D02*
X249268Y178083D01*
X250268Y177583D01*
X249767Y178583D02*
X250268Y177583D01*
X249767Y178583D02*
X250268Y179583D01*
X249268Y179083D02*
X250268Y179583D01*
X248268D02*
X249268Y179083D01*
X248268Y179583D02*
X248767Y178583D01*
X248268Y177583D02*
X248767Y178583D01*
X251841Y205817D02*
X253041D01*
Y207017D01*
X251841D02*
X253041D01*
X251841Y205817D02*
Y207017D01*
X251441Y205417D02*
X253441D01*
Y207417D01*
X251441D02*
X253441D01*
X251441Y205417D02*
Y207417D01*
X279164Y203573D02*
X280364D01*
Y204773D01*
X279164D02*
X280364D01*
X279164Y203573D02*
Y204773D01*
X278764Y203173D02*
X280764D01*
Y205173D01*
X278764D02*
X280764D01*
X278764Y203173D02*
Y205173D01*
X309109Y211447D02*
X310309D01*
Y212647D01*
X309109D02*
X310309D01*
X309109Y211447D02*
Y212647D01*
X308709Y211047D02*
X310709D01*
Y213047D01*
X308709D02*
X310709D01*
X308709Y211047D02*
Y213047D01*
X288479Y239975D02*
X289679D01*
Y241175D01*
X288479D02*
X289679D01*
X288479Y239975D02*
Y241175D01*
X288079Y239575D02*
X290079D01*
Y241575D01*
X288079D02*
X290079D01*
X288079Y239575D02*
Y241575D01*
X293164Y238755D02*
X294364D01*
Y239955D01*
X293164D02*
X294364D01*
X293164Y238755D02*
Y239955D01*
X292764Y238355D02*
X294764D01*
Y240355D01*
X292764D02*
X294764D01*
X292764Y238355D02*
Y240355D01*
X284778Y237613D02*
X285978D01*
Y238813D01*
X284778D02*
X285978D01*
X284778Y237613D02*
Y238813D01*
X284378Y237213D02*
X286378D01*
Y239213D01*
X284378D02*
X286378D01*
X284378Y237213D02*
Y239213D01*
X240384Y233440D02*
X241584D01*
Y234640D01*
X240384D02*
X241584D01*
X240384Y233440D02*
Y234640D01*
X239984Y233040D02*
X241984D01*
Y235040D01*
X239984D02*
X241984D01*
X239984Y233040D02*
Y235040D01*
X244361Y233440D02*
X245561D01*
Y234640D01*
X244361D02*
X245561D01*
X244361Y233440D02*
Y234640D01*
X243961Y233040D02*
X245961D01*
Y235040D01*
X243961D02*
X245961D01*
X243961Y233040D02*
Y235040D01*
X200535Y223291D02*
X201535Y223791D01*
X202535Y223291D01*
X202035Y224291D02*
X202535Y223291D01*
X202035Y224291D02*
X202535Y225291D01*
X201535Y224791D02*
X202535Y225291D01*
X200535D02*
X201535Y224791D01*
X200535Y225291D02*
X201035Y224291D01*
X200535Y223291D02*
X201035Y224291D01*
X274676Y248140D02*
X275876D01*
Y249340D01*
X274676D02*
X275876D01*
X274676Y248140D02*
Y249340D01*
X274276Y247740D02*
X276276D01*
Y249740D01*
X274276D02*
X276276D01*
X274276Y247740D02*
Y249740D01*
X273055Y228449D02*
X274055Y228949D01*
X275055Y228449D01*
X274555Y229449D02*
X275055Y228449D01*
X274555Y229449D02*
X275055Y230449D01*
X274055Y229949D02*
X275055Y230449D01*
X273055D02*
X274055Y229949D01*
X273055Y230449D02*
X273555Y229449D01*
X273055Y228449D02*
X273555Y229449D01*
X251457Y220735D02*
X252657D01*
Y221935D01*
X251457D02*
X252657D01*
X251457Y220735D02*
Y221935D01*
X251057Y220335D02*
X253057D01*
Y222335D01*
X251057D02*
X253057D01*
X251057Y220335D02*
Y222335D01*
X257754Y270289D02*
X258954D01*
Y271489D01*
X257754D02*
X258954D01*
X257754Y270289D02*
Y271489D01*
X257354Y269889D02*
X259354D01*
Y271889D01*
X257354D02*
X259354D01*
X257354Y269889D02*
Y271889D01*
X250424Y270289D02*
X251624D01*
Y271489D01*
X250424D02*
X251624D01*
X250424Y270289D02*
Y271489D01*
X250024Y269889D02*
X252024D01*
Y271889D01*
X250024D02*
X252024D01*
X250024Y269889D02*
Y271889D01*
X250424Y276864D02*
X251624D01*
Y278064D01*
X250424D02*
X251624D01*
X250424Y276864D02*
Y278064D01*
X250024Y276464D02*
X252024D01*
Y278464D01*
X250024D02*
X252024D01*
X250024Y276464D02*
Y278464D01*
X265502Y167653D02*
X266702D01*
Y168853D01*
X265502D02*
X266702D01*
X265502Y167653D02*
Y168853D01*
X265102Y167253D02*
X267102D01*
Y169253D01*
X265102D02*
X267102D01*
X265102Y167253D02*
Y169253D01*
X269462Y110142D02*
X270462Y110642D01*
X271462Y110142D01*
X270963Y111142D02*
X271462Y110142D01*
X270963Y111142D02*
X271462Y112142D01*
X270462Y111642D02*
X271462Y112142D01*
X269462D02*
X270462Y111642D01*
X269462Y112142D02*
X269963Y111142D01*
X269462Y110142D02*
X269963Y111142D01*
X324991Y43101D02*
X326190D01*
Y44301D01*
X324991D02*
X326190D01*
X324991Y43101D02*
Y44301D01*
X324590Y42701D02*
X326590D01*
Y44701D01*
X324590D02*
X326590D01*
X324590Y42701D02*
Y44701D01*
X297132Y113901D02*
X298332D01*
Y115101D01*
X297132D02*
X298332D01*
X297132Y113901D02*
Y115101D01*
X296732Y113501D02*
X298732D01*
Y115501D01*
X296732D02*
X298732D01*
X296732Y113501D02*
Y115501D01*
X304361Y111045D02*
X305561D01*
Y112245D01*
X304361D02*
X305561D01*
X304361Y111045D02*
Y112245D01*
X303961Y110645D02*
X305961D01*
Y112645D01*
X303961D02*
X305961D01*
X303961Y110645D02*
Y112645D01*
X306668Y89439D02*
X307868D01*
Y90639D01*
X306668D02*
X307868D01*
X306668Y89439D02*
Y90639D01*
X306268Y89039D02*
X308268D01*
Y91039D01*
X306268D02*
X308268D01*
X306268Y89039D02*
Y91039D01*
X294266Y104739D02*
X295466D01*
Y105939D01*
X294266D02*
X295466D01*
X294266Y104739D02*
Y105939D01*
X293866Y104339D02*
X295866D01*
Y106339D01*
X293866D02*
X295866D01*
X293866Y104339D02*
Y106339D01*
X294266Y101498D02*
X295466D01*
Y102698D01*
X294266D02*
X295466D01*
X294266Y101498D02*
Y102698D01*
X293866Y101098D02*
X295866D01*
Y103098D01*
X293866D02*
X295866D01*
X293866Y101098D02*
Y103098D01*
X294266Y98256D02*
X295466D01*
Y99456D01*
X294266D02*
X295466D01*
X294266Y98256D02*
Y99456D01*
X293866Y97856D02*
X295866D01*
Y99856D01*
X293866D02*
X295866D01*
X293866Y97856D02*
Y99856D01*
X294266Y95015D02*
X295466D01*
Y96215D01*
X294266D02*
X295466D01*
X294266Y95015D02*
Y96215D01*
X293866Y94615D02*
X295866D01*
Y96615D01*
X293866D02*
X295866D01*
X293866Y94615D02*
Y96615D01*
X281692Y83810D02*
X282892D01*
Y85009D01*
X281692D02*
X282892D01*
X281692Y83810D02*
Y85009D01*
X281292Y83410D02*
X283292D01*
Y85409D01*
X281292D02*
X283292D01*
X281292Y83410D02*
Y85409D01*
X272035Y67495D02*
X273235D01*
Y68695D01*
X272035D02*
X273235D01*
X272035Y67495D02*
Y68695D01*
X271635Y67095D02*
X273635D01*
Y69095D01*
X271635D02*
X273635D01*
X271635Y67095D02*
Y69095D01*
X242252Y59851D02*
X243252Y60351D01*
X244252Y59851D01*
X243752Y60851D02*
X244252Y59851D01*
X243752Y60851D02*
X244252Y61851D01*
X243252Y61351D02*
X244252Y61851D01*
X242252D02*
X243252Y61351D01*
X242252Y61851D02*
X242752Y60851D01*
X242252Y59851D02*
X242752Y60851D01*
X137274Y86802D02*
X138474D01*
Y88002D01*
X137274D02*
X138474D01*
X137274Y86802D02*
Y88002D01*
X136874Y86402D02*
X138874D01*
Y88402D01*
X136874D02*
X138874D01*
X136874Y86402D02*
Y88402D01*
X275880Y164031D02*
X277080D01*
Y165231D01*
X275880D02*
X277080D01*
X275880Y164031D02*
Y165231D01*
X275480Y163630D02*
X277480D01*
Y165630D01*
X275480D02*
X277480D01*
X275480Y163630D02*
Y165630D01*
X236923Y162038D02*
X238123D01*
Y163238D01*
X236923D02*
X238123D01*
X236923Y162038D02*
Y163238D01*
X236523Y161638D02*
X238523D01*
Y163638D01*
X236523D02*
X238523D01*
X236523Y161638D02*
Y163638D01*
X275880Y160369D02*
X277080D01*
Y161569D01*
X275880D02*
X277080D01*
X275880Y160369D02*
Y161569D01*
X275480Y159969D02*
X277480D01*
Y161969D01*
X275480D02*
X277480D01*
X275480Y159969D02*
Y161969D01*
X247943Y162038D02*
X249143D01*
Y163238D01*
X247943D02*
X249143D01*
X247943Y162038D02*
Y163238D01*
X247543Y161638D02*
X249543D01*
Y163638D01*
X247543D02*
X249543D01*
X247543Y161638D02*
Y163638D01*
X221054Y152392D02*
X222253D01*
Y153592D01*
X221054D02*
X222253D01*
X221054Y152392D02*
Y153592D01*
X220654Y151992D02*
X222654D01*
Y153992D01*
X220654D02*
X222654D01*
X220654Y151992D02*
Y153992D01*
X217494Y150212D02*
X218694D01*
Y151412D01*
X217494D02*
X218694D01*
X217494Y150212D02*
Y151412D01*
X217094Y149812D02*
X219094D01*
Y151812D01*
X217094D02*
X219094D01*
X217094Y149812D02*
Y151812D01*
X183376Y21487D02*
X184576D01*
Y22687D01*
X183376D02*
X184576D01*
X183376Y21487D02*
Y22687D01*
X182976Y21087D02*
X184976D01*
Y23087D01*
X182976D02*
X184976D01*
X182976Y21087D02*
Y23087D01*
X277736Y26626D02*
X278936D01*
Y27826D01*
X277736D02*
X278936D01*
X277736Y26626D02*
Y27826D01*
X277336Y26226D02*
X279336D01*
Y28226D01*
X277336D02*
X279336D01*
X277336Y26226D02*
Y28226D01*
X268321Y26626D02*
X269521D01*
Y27826D01*
X268321D02*
X269521D01*
X268321Y26626D02*
Y27826D01*
X267921Y26226D02*
X269921D01*
Y28226D01*
X267921D02*
X269921D01*
X267921Y26226D02*
Y28226D01*
X287151Y26626D02*
X288351D01*
Y27826D01*
X287151D02*
X288351D01*
X287151Y26626D02*
Y27826D01*
X286751Y26226D02*
X288751D01*
Y28226D01*
X286751D02*
X288751D01*
X286751Y26226D02*
Y28226D01*
X273179Y28731D02*
X274379D01*
Y29931D01*
X273179D02*
X274379D01*
X273179Y28731D02*
Y29931D01*
X272779Y28331D02*
X274779D01*
Y30331D01*
X272779D02*
X274779D01*
X272779Y28331D02*
Y30331D01*
X236195Y28752D02*
X237395D01*
Y29952D01*
X236195D02*
X237395D01*
X236195Y28752D02*
Y29952D01*
X235795Y28352D02*
X237795D01*
Y30352D01*
X235795D02*
X237795D01*
X235795Y28352D02*
Y30352D01*
X231707Y26153D02*
X232907D01*
Y27353D01*
X231707D02*
X232907D01*
X231707Y26153D02*
Y27353D01*
X231307Y25753D02*
X233307D01*
Y27753D01*
X231307D02*
X233307D01*
X231307Y25753D02*
Y27753D01*
X207140Y26271D02*
X208340D01*
Y27471D01*
X207140D02*
X208340D01*
X207140Y26271D02*
Y27471D01*
X206740Y25871D02*
X208740D01*
Y27871D01*
X206740D02*
X208740D01*
X206740Y25871D02*
Y27871D01*
X213833Y70448D02*
X215033D01*
Y71648D01*
X213833D02*
X215033D01*
X213833Y70448D02*
Y71648D01*
X213433Y70048D02*
X215433D01*
Y72048D01*
X213433D02*
X215433D01*
X213433Y70048D02*
Y72048D01*
X210683Y71078D02*
X211883D01*
Y72278D01*
X210683D02*
X211883D01*
X210683Y71078D02*
Y72278D01*
X210283Y70678D02*
X212283D01*
Y72678D01*
X210283D02*
X212283D01*
X210283Y70678D02*
Y72678D01*
X212061Y26271D02*
X213261D01*
Y27471D01*
X212061D02*
X213261D01*
X212061Y26271D02*
Y27471D01*
X211661Y25871D02*
X213661D01*
Y27871D01*
X211661D02*
X213661D01*
X211661Y25871D02*
Y27871D01*
X202219Y26271D02*
X203419D01*
Y27471D01*
X202219D02*
X203419D01*
X202219Y26271D02*
Y27471D01*
X201819Y25871D02*
X203819D01*
Y27871D01*
X201819D02*
X203819D01*
X201819Y25871D02*
Y27871D01*
X159164Y5622D02*
X160364D01*
Y6822D01*
X159164D02*
X160364D01*
X159164Y5622D02*
Y6822D01*
X158764Y5222D02*
X160764D01*
Y7222D01*
X158764D02*
X160764D01*
X158764Y5222D02*
Y7222D01*
X164046Y3968D02*
X165246D01*
Y5168D01*
X164046D02*
X165246D01*
X164046Y3968D02*
Y5168D01*
X163646Y3568D02*
X165646D01*
Y5568D01*
X163646D02*
X165646D01*
X163646Y3568D02*
Y5568D01*
X155306Y14637D02*
X156506D01*
Y15837D01*
X155306D02*
X156506D01*
X155306Y14637D02*
Y15837D01*
X154905Y14237D02*
X156905D01*
Y16237D01*
X154905D02*
X156905D01*
X154905Y14237D02*
Y16237D01*
X150935Y8299D02*
X152135D01*
Y9499D01*
X150935D02*
X152135D01*
X150935Y8299D02*
Y9499D01*
X150535Y7899D02*
X152535D01*
Y9899D01*
X150535D02*
X152535D01*
X150535Y7899D02*
Y9899D01*
X174079Y23307D02*
X175079Y22307D01*
X176079Y23307D01*
X175079Y24307D02*
X176079Y23307D01*
X174079D02*
X175079Y24307D01*
X88239Y20221D02*
X89239Y20720D01*
X90239Y20221D01*
X89739Y21220D02*
X90239Y20221D01*
X89739Y21220D02*
X90239Y22220D01*
X89239Y21721D02*
X90239Y22220D01*
X88239D02*
X89239Y21721D01*
X88239Y22220D02*
X88739Y21220D01*
X88239Y20221D02*
X88739Y21220D01*
X46992Y125181D02*
X47992Y125681D01*
X48992Y125181D01*
X48492Y126181D02*
X48992Y125181D01*
X48492Y126181D02*
X48992Y127181D01*
X47992Y126681D02*
X48992Y127181D01*
X46992D02*
X47992Y126681D01*
X46992Y127181D02*
X47492Y126181D01*
X46992Y125181D02*
X47492Y126181D01*
X26268Y107819D02*
X27268Y106819D01*
X28268Y107819D01*
X27268Y108819D02*
X28268Y107819D01*
X26268D02*
X27268Y108819D01*
X26559Y62441D02*
X27559Y61441D01*
X28559Y62441D01*
X27559Y63441D02*
X28559Y62441D01*
X26559D02*
X27559Y63441D01*
X46992Y116008D02*
X47992Y116508D01*
X48992Y116008D01*
X48492Y117008D02*
X48992Y116008D01*
X48492Y117008D02*
X48992Y118008D01*
X47992Y117508D02*
X48992Y118008D01*
X46992D02*
X47992Y117508D01*
X46992Y118008D02*
X47492Y117008D01*
X46992Y116008D02*
X47492Y117008D01*
X13646Y62441D02*
X14646Y61441D01*
X15646Y62441D01*
X14646Y63441D02*
X15646Y62441D01*
X13646D02*
X14646Y63441D01*
X26268Y83504D02*
X27268Y82504D01*
X28268Y83504D01*
X27268Y84504D02*
X28268Y83504D01*
X26268D02*
X27268Y84504D01*
X76707Y160369D02*
X77907D01*
Y161569D01*
X76707D02*
X77907D01*
X76707Y160369D02*
Y161569D01*
X76307Y159969D02*
X78307D01*
Y161969D01*
X76307D02*
X78307D01*
X76307Y159969D02*
Y161969D01*
X81195Y160566D02*
X82395D01*
Y161766D01*
X81195D02*
X82395D01*
X81195Y160566D02*
Y161766D01*
X80795Y160166D02*
X82795D01*
Y162166D01*
X80795D02*
X82795D01*
X80795Y160166D02*
Y162166D01*
X83557Y334267D02*
X84757D01*
Y335467D01*
X83557D02*
X84757D01*
X83557Y334267D02*
Y335467D01*
X83157Y333867D02*
X85157D01*
Y335867D01*
X83157D02*
X85157D01*
X83157Y333867D02*
Y335867D01*
X71992Y321244D02*
X72992Y321744D01*
X73992Y321244D01*
X73492Y322244D02*
X73992Y321244D01*
X73492Y322244D02*
X73992Y323244D01*
X72992Y322744D02*
X73992Y323244D01*
X71992D02*
X72992Y322744D01*
X71992Y323244D02*
X72492Y322244D01*
X71992Y321244D02*
X72492Y322244D01*
X93835Y308646D02*
X94835Y309146D01*
X95835Y308646D01*
X95335Y309646D02*
X95835Y308646D01*
X95335Y309646D02*
X95835Y310646D01*
X94835Y310146D02*
X95835Y310646D01*
X93835D02*
X94835Y310146D01*
X93835Y310646D02*
X94335Y309646D01*
X93835Y308646D02*
X94335Y309646D01*
X94709Y328504D02*
X95709Y329004D01*
X96709Y328504D01*
X96209Y329504D02*
X96709Y328504D01*
X96209Y329504D02*
X96709Y330504D01*
X95709Y330004D02*
X96709Y330504D01*
X94709D02*
X95709Y330004D01*
X94709Y330504D02*
X95209Y329504D01*
X94709Y328504D02*
X95209Y329504D01*
X88927Y326486D02*
X90127D01*
Y327686D01*
X88927D02*
X90127D01*
X88927Y326486D02*
Y327686D01*
X88527Y326086D02*
X90527D01*
Y328086D01*
X88527D02*
X90527D01*
X88527Y326086D02*
Y328086D01*
X83764Y300062D02*
X84764Y300562D01*
X85764Y300062D01*
X85264Y301062D02*
X85764Y300062D01*
X85264Y301062D02*
X85764Y302062D01*
X84764Y301562D02*
X85764Y302062D01*
X83764D02*
X84764Y301562D01*
X83764Y302062D02*
X84264Y301062D01*
X83764Y300062D02*
X84264Y301062D01*
X213879Y340220D02*
X214879Y340721D01*
X215879Y340220D01*
X215379Y341220D02*
X215879Y340220D01*
X215379Y341220D02*
X215879Y342220D01*
X214879Y341721D02*
X215879Y342220D01*
X213879D02*
X214879Y341721D01*
X213879Y342220D02*
X214379Y341220D01*
X213879Y340220D02*
X214379Y341220D01*
X218810Y341708D02*
X220009D01*
Y342908D01*
X218810D02*
X220009D01*
X218810Y341708D02*
Y342908D01*
X218409Y341308D02*
X220409D01*
Y343308D01*
X218409D02*
X220409D01*
X218409Y341308D02*
Y343308D01*
X247937Y343134D02*
X248937Y343634D01*
X249937Y343134D01*
X249437Y344134D02*
X249937Y343134D01*
X249437Y344134D02*
X249937Y345134D01*
X248937Y344634D02*
X249937Y345134D01*
X247937D02*
X248937Y344634D01*
X247937Y345134D02*
X248437Y344134D01*
X247937Y343134D02*
X248437Y344134D01*
X310465Y272145D02*
X311665D01*
Y273345D01*
X310465D02*
X311665D01*
X310465Y272145D02*
Y273345D01*
X310065Y271745D02*
X312065D01*
Y273745D01*
X310065D02*
X312065D01*
X310065Y271745D02*
Y273745D01*
X310465Y276644D02*
X311665D01*
Y277844D01*
X310465D02*
X311665D01*
X310465Y276644D02*
Y277844D01*
X310065Y276244D02*
X312065D01*
Y278244D01*
X310065D02*
X312065D01*
X310065Y276244D02*
Y278244D01*
X248590Y47961D02*
X249590Y48461D01*
X250590Y47961D01*
X250091Y48961D02*
X250590Y47961D01*
X250091Y48961D02*
X250590Y49961D01*
X249590Y49461D02*
X250590Y49961D01*
X248590D02*
X249590Y49461D01*
X248590Y49961D02*
X249091Y48961D01*
X248590Y47961D02*
X249091Y48961D01*
X68055Y60811D02*
X69055Y61311D01*
X70055Y60811D01*
X69555Y61811D02*
X70055Y60811D01*
X69555Y61811D02*
X70055Y62811D01*
X69055Y62311D02*
X70055Y62811D01*
X68055D02*
X69055Y62311D01*
X68055Y62811D02*
X68555Y61811D01*
X68055Y60811D02*
X68555Y61811D01*
X88960Y48409D02*
X89960Y48909D01*
X90961Y48409D01*
X90460Y49409D02*
X90961Y48409D01*
X90460Y49409D02*
X90961Y50409D01*
X89960Y49909D02*
X90961Y50409D01*
X88960D02*
X89960Y49909D01*
X88960Y50409D02*
X89460Y49409D01*
X88960Y48409D02*
X89460Y49409D01*
X46165Y27953D02*
X47165Y26953D01*
X48165Y27953D01*
X47165Y28953D02*
X48165Y27953D01*
X46165D02*
X47165Y28953D01*
X50304Y27913D02*
X51304Y26913D01*
X52304Y27913D01*
X51304Y28913D02*
X52304Y27913D01*
X50304D02*
X51304Y28913D01*
X111622Y299536D02*
X112622Y300036D01*
X113622Y299536D01*
X113122Y300536D02*
X113622Y299536D01*
X113122Y300536D02*
X113622Y301536D01*
X112622Y301036D02*
X113622Y301536D01*
X111622D02*
X112622Y301036D01*
X111622Y301536D02*
X112122Y300536D01*
X111622Y299536D02*
X112122Y300536D01*
X203731Y163873D02*
X204931D01*
Y165073D01*
X203731D02*
X204931D01*
X203731Y163873D02*
Y165073D01*
X203331Y163473D02*
X205331D01*
Y165473D01*
X203331D02*
X205331D01*
X203331Y163473D02*
Y165473D01*
X203731Y159267D02*
X204931D01*
Y160467D01*
X203731D02*
X204931D01*
X203731Y159267D02*
Y160467D01*
X203331Y158867D02*
X205331D01*
Y160867D01*
X203331D02*
X205331D01*
X203331Y158867D02*
Y160867D01*
X268190Y67495D02*
X269390D01*
Y68695D01*
X268190D02*
X269390D01*
X268190Y67495D02*
Y68695D01*
X267790Y67095D02*
X269790D01*
Y69095D01*
X267790D02*
X269790D01*
X267790Y67095D02*
Y69095D01*
X281692Y80581D02*
X282892D01*
Y81781D01*
X281692D02*
X282892D01*
X281692Y80581D02*
Y81781D01*
X281292Y80181D02*
X283292D01*
Y82181D01*
X281292D02*
X283292D01*
X281292Y80181D02*
Y82181D01*
X264345Y67495D02*
X265545D01*
Y68695D01*
X264345D02*
X265545D01*
X264345Y67495D02*
Y68695D01*
X263945Y67095D02*
X265945D01*
Y69095D01*
X263945D02*
X265945D01*
X263945Y67095D02*
Y69095D01*
X252707Y41132D02*
X253907D01*
Y42332D01*
X252707D02*
X253907D01*
X252707Y41132D02*
Y42332D01*
X252307Y40732D02*
X254307D01*
Y42732D01*
X252307D02*
X254307D01*
X252307Y40732D02*
Y42732D01*
X296566Y26626D02*
X297766D01*
Y27826D01*
X296566D02*
X297766D01*
X296566Y26626D02*
Y27826D01*
X296166Y26226D02*
X298166D01*
Y28226D01*
X296166D02*
X298166D01*
X296166Y26226D02*
Y28226D01*
X291998Y28731D02*
X293198D01*
Y29931D01*
X291998D02*
X293198D01*
X291998Y28731D02*
Y29931D01*
X291598Y28331D02*
X293598D01*
Y30331D01*
X291598D02*
X293598D01*
X291598Y28331D02*
Y30331D01*
X282601Y28752D02*
X283801D01*
Y29952D01*
X282601D02*
X283801D01*
X282601Y28752D02*
Y29952D01*
X282201Y28352D02*
X284201D01*
Y30352D01*
X282201D02*
X284201D01*
X282201Y28352D02*
Y30352D01*
X280581Y59728D02*
X281781D01*
Y60928D01*
X280581D02*
X281781D01*
X280581Y59728D02*
Y60928D01*
X280181Y59328D02*
X282181D01*
Y61328D01*
X280181D02*
X282181D01*
X280181Y59328D02*
Y61328D01*
X288573Y64124D02*
X289773D01*
Y65324D01*
X288573D02*
X289773D01*
X288573Y64124D02*
Y65324D01*
X288173Y63724D02*
X290173D01*
Y65724D01*
X288173D02*
X290173D01*
X288173Y63724D02*
Y65724D01*
X275880Y67495D02*
X277080D01*
Y68695D01*
X275880D02*
X277080D01*
X275880Y67495D02*
Y68695D01*
X275480Y67095D02*
X277480D01*
Y69095D01*
X275480D02*
X277480D01*
X275480Y67095D02*
Y69095D01*
X281959Y67495D02*
X283159D01*
Y68695D01*
X281959D02*
X283159D01*
X281959Y67495D02*
Y68695D01*
X281559Y67095D02*
X283559D01*
Y69095D01*
X281559D02*
X283559D01*
X281559Y67095D02*
Y69095D01*
X222386Y50669D02*
X223386Y49669D01*
X224386Y50669D01*
X223386Y51669D02*
X224386Y50669D01*
X222386D02*
X223386Y51669D01*
X300817Y28731D02*
X302017D01*
Y29931D01*
X300817D02*
X302017D01*
X300817Y28731D02*
Y29931D01*
X300417Y28331D02*
X302417D01*
Y30331D01*
X300417D02*
X302417D01*
X300417Y28331D02*
Y30331D01*
X309181Y36614D02*
X310181Y35614D01*
X311181Y36614D01*
X310181Y37614D02*
X311181Y36614D01*
X309181D02*
X310181Y37614D01*
X211638Y110811D02*
X212638Y111311D01*
X213638Y110811D01*
X213138Y111811D02*
X213638Y110811D01*
X213138Y111811D02*
X213638Y112811D01*
X212638Y112311D02*
X213638Y112811D01*
X211638D02*
X212638Y112311D01*
X211638Y112811D02*
X212138Y111811D01*
X211638Y110811D02*
X212138Y111811D01*
X27533Y296116D02*
X28733D01*
Y297316D01*
X27533D02*
X28733D01*
X27533Y296116D02*
Y297316D01*
X27133Y295716D02*
X29133D01*
Y297716D01*
X27133D02*
X29133D01*
X27133Y295716D02*
Y297716D01*
X149118Y298055D02*
X150118Y298555D01*
X151118Y298055D01*
X150618Y299055D02*
X151118Y298055D01*
X150618Y299055D02*
X151118Y300055D01*
X150118Y299555D02*
X151118Y300055D01*
X149118D02*
X150118Y299555D01*
X149118Y300055D02*
X149618Y299055D01*
X149118Y298055D02*
X149618Y299055D01*
X208991Y206368D02*
X210191D01*
Y207569D01*
X208991D02*
X210191D01*
X208991Y206368D02*
Y207569D01*
X208591Y205968D02*
X210591D01*
Y207968D01*
X208591D02*
X210591D01*
X208591Y205968D02*
Y207968D01*
X222140Y200054D02*
X223340D01*
Y201254D01*
X222140D02*
X223340D01*
X222140Y200054D02*
Y201254D01*
X221740Y199654D02*
X223740D01*
Y201654D01*
X221740D02*
X223740D01*
X221740Y199654D02*
Y201654D01*
X185880Y207731D02*
X187080D01*
Y208931D01*
X185880D02*
X187080D01*
X185880Y207731D02*
Y208931D01*
X185480Y207331D02*
X187480D01*
Y209331D01*
X185480D02*
X187480D01*
X185480Y207331D02*
Y209331D01*
X295420Y154649D02*
X296620D01*
Y155849D01*
X295420D02*
X296620D01*
X295420Y154649D02*
Y155849D01*
X295020Y154249D02*
X297020D01*
Y156249D01*
X295020D02*
X297020D01*
X295020Y154249D02*
Y156249D01*
X297983Y152235D02*
X299183D01*
Y153435D01*
X297983D02*
X299183D01*
X297983Y152235D02*
Y153435D01*
X297583Y151835D02*
X299583D01*
Y153835D01*
X297583D02*
X299583D01*
X297583Y151835D02*
Y153835D01*
X291565Y137144D02*
X292765D01*
Y138344D01*
X291565D02*
X292765D01*
X291565Y137144D02*
Y138344D01*
X291165Y136744D02*
X293165D01*
Y138744D01*
X291165D02*
X293165D01*
X291165Y136744D02*
Y138744D01*
X279704Y123731D02*
X280904D01*
Y124931D01*
X279704D02*
X280904D01*
X279704Y123731D02*
Y124931D01*
X279304Y123331D02*
X281304D01*
Y125331D01*
X279304D02*
X281304D01*
X279304Y123331D02*
Y125331D01*
X280802Y147259D02*
X282001D01*
Y148459D01*
X280802D02*
X282001D01*
X280802Y147259D02*
Y148459D01*
X280401Y146859D02*
X282401D01*
Y148859D01*
X280401D02*
X282401D01*
X280401Y146859D02*
Y148859D01*
X291309Y113901D02*
X292509D01*
Y115101D01*
X291309D02*
X292509D01*
X291309Y113901D02*
Y115101D01*
X290909Y113501D02*
X292909D01*
Y115501D01*
X290909D02*
X292909D01*
X290909Y113501D02*
Y115501D01*
X299282Y132065D02*
X300482D01*
Y133265D01*
X299282D02*
X300482D01*
X299282Y132065D02*
Y133265D01*
X298882Y131665D02*
X300882D01*
Y133665D01*
X298882D02*
X300882D01*
X298882Y131665D02*
Y133665D01*
X209570Y218912D02*
X210770D01*
Y220112D01*
X209570D02*
X210770D01*
X209570Y218912D02*
Y220112D01*
X209170Y218512D02*
X211170D01*
Y220512D01*
X209170D02*
X211170D01*
X209170Y218512D02*
Y220512D01*
X199187Y40306D02*
X200387D01*
Y41506D01*
X199187D02*
X200387D01*
X199187Y40306D02*
Y41506D01*
X198787Y39906D02*
X200787D01*
Y41906D01*
X198787D02*
X200787D01*
X198787Y39906D02*
Y41906D01*
X195660Y24855D02*
X196860D01*
Y26055D01*
X195660D02*
X196860D01*
X195660Y24855D02*
Y26055D01*
X195260Y24455D02*
X197260D01*
Y26455D01*
X195260D02*
X197260D01*
X195260Y24455D02*
Y26455D01*
X149305Y58808D02*
X150505D01*
Y60008D01*
X149305D02*
X150505D01*
X149305Y58808D02*
Y60008D01*
X148905Y58408D02*
X150905D01*
Y60408D01*
X148905D02*
X150905D01*
X148905Y58408D02*
Y60408D01*
X217392Y28752D02*
X218592D01*
Y29952D01*
X217392D02*
X218592D01*
X217392Y28752D02*
Y29952D01*
X216992Y28352D02*
X218992D01*
Y30352D01*
X216992D02*
X218992D01*
X216992Y28352D02*
Y30352D01*
X222219Y26429D02*
X223419D01*
Y27629D01*
X222219D02*
X223419D01*
X222219Y26429D02*
Y27629D01*
X221819Y26029D02*
X223819D01*
Y28029D01*
X221819D02*
X223819D01*
X221819Y26029D02*
Y28029D01*
X226794Y28752D02*
X227994D01*
Y29952D01*
X226794D02*
X227994D01*
X226794Y28752D02*
Y29952D01*
X226394Y28352D02*
X228394D01*
Y30352D01*
X226394D02*
X228394D01*
X226394Y28352D02*
Y30352D01*
X231205Y35614D02*
X232205Y36114D01*
X233205Y35614D01*
X232705Y36614D02*
X233205Y35614D01*
X232705Y36614D02*
X233205Y37614D01*
X232205Y37114D02*
X233205Y37614D01*
X231205D02*
X232205Y37114D01*
X231205Y37614D02*
X231705Y36614D01*
X231205Y35614D02*
X231705Y36614D01*
X96071Y28052D02*
Y28552D01*
X96571Y29052D01*
X96071Y29552D02*
X96571Y29052D01*
X96071Y29552D02*
Y30052D01*
X96571D01*
X97071Y29552D01*
X97571Y30052D01*
X98071D01*
Y29552D02*
Y30052D01*
X97571Y29052D02*
X98071Y29552D01*
X97571Y29052D02*
X98071Y28552D01*
Y28052D02*
Y28552D01*
X97571Y28052D02*
X98071D01*
X97071Y28552D02*
X97571Y28052D01*
X96571D02*
X97071Y28552D01*
X96071Y28052D02*
X96571D01*
X195093Y43519D02*
X196293D01*
Y44719D01*
X195093D02*
X196293D01*
X195093Y43519D02*
Y44719D01*
X194693Y43119D02*
X196693D01*
Y45119D01*
X194693D02*
X196693D01*
X194693Y43119D02*
Y45119D01*
X307342Y173613D02*
X308542D01*
Y174813D01*
X307342D02*
X308542D01*
X307342Y173613D02*
Y174813D01*
X306942Y173213D02*
X308942D01*
Y175213D01*
X306942D02*
X308942D01*
X306942Y173213D02*
Y175213D01*
X277626Y185384D02*
X278826D01*
Y186584D01*
X277626D02*
X278826D01*
X277626Y185384D02*
Y186584D01*
X277226Y184984D02*
X279226D01*
Y186984D01*
X277226D02*
X279226D01*
X277226Y184984D02*
Y186984D01*
X275778Y188681D02*
X276978D01*
Y189881D01*
X275778D02*
X276978D01*
X275778Y188681D02*
Y189881D01*
X275378Y188281D02*
X277378D01*
Y190281D01*
X275378D02*
X277378D01*
X275378Y188281D02*
Y190281D01*
X240148Y108991D02*
X241348D01*
Y110191D01*
X240148D02*
X241348D01*
X240148Y108991D02*
Y110191D01*
X239748Y108591D02*
X241748D01*
Y110591D01*
X239748D02*
X241748D01*
X239748Y108591D02*
Y110591D01*
X234486Y129558D02*
X235686D01*
Y130758D01*
X234486D02*
X235686D01*
X234486Y129558D02*
Y130758D01*
X234086Y129158D02*
X236086D01*
Y131158D01*
X234086D02*
X236086D01*
X234086Y129158D02*
Y131158D01*
X234486Y125779D02*
X235686D01*
Y126979D01*
X234486D02*
X235686D01*
X234486Y125779D02*
Y126979D01*
X234086Y125379D02*
X236086D01*
Y127379D01*
X234086D02*
X236086D01*
X234086Y125379D02*
Y127379D01*
X244392Y130115D02*
X245592D01*
Y131315D01*
X244392D02*
X245592D01*
X244392Y130115D02*
Y131315D01*
X243992Y129715D02*
X245992D01*
Y131715D01*
X243992D02*
X245992D01*
X243992Y129715D02*
Y131715D01*
X187825Y140054D02*
X189025D01*
Y141254D01*
X187825D02*
X189025D01*
X187825Y140054D02*
Y141254D01*
X187425Y139654D02*
X189425D01*
Y141654D01*
X187425D02*
X189425D01*
X187425Y139654D02*
Y141654D01*
X190532Y137481D02*
X191732D01*
Y138681D01*
X190532D02*
X191732D01*
X190532Y137481D02*
Y138681D01*
X190132Y137081D02*
X192132D01*
Y139081D01*
X190132D02*
X192132D01*
X190132Y137081D02*
Y139081D01*
X158258Y163376D02*
X159458D01*
Y164576D01*
X158258D02*
X159458D01*
X158258Y163376D02*
Y164576D01*
X157858Y162976D02*
X159858D01*
Y164976D01*
X157858D02*
X159858D01*
X157858Y162976D02*
Y164976D01*
X159149Y167904D02*
X160349D01*
Y169104D01*
X159149D02*
X160349D01*
X159149Y167904D02*
Y169104D01*
X158749Y167504D02*
X160749D01*
Y169504D01*
X158749D02*
X160749D01*
X158749Y167504D02*
Y169504D01*
X182068Y153722D02*
X183268D01*
Y154922D01*
X182068D02*
X183268D01*
X182068Y153722D02*
Y154922D01*
X181668Y153322D02*
X183668D01*
Y155322D01*
X181668D02*
X183668D01*
X181668Y153322D02*
Y155322D01*
X258357Y164262D02*
X259557D01*
Y165462D01*
X258357D02*
X259557D01*
X258357Y164262D02*
Y165462D01*
X257957Y163862D02*
X259957D01*
Y165862D01*
X257957D02*
X259957D01*
X257957Y163862D02*
Y165862D01*
X191931Y166549D02*
X193131D01*
Y167749D01*
X191931D02*
X193131D01*
X191931Y166549D02*
Y167749D01*
X191531Y166149D02*
X193531D01*
Y168149D01*
X191531D02*
X193531D01*
X191531Y166149D02*
Y168149D01*
X265443Y171054D02*
X266643D01*
Y172254D01*
X265443D02*
X266643D01*
X265443Y171054D02*
Y172254D01*
X265043Y170653D02*
X267043D01*
Y172653D01*
X265043D02*
X267043D01*
X265043Y170653D02*
Y172653D01*
X265443Y174452D02*
X266643D01*
Y175653D01*
X265443D02*
X266643D01*
X265443Y174452D02*
Y175653D01*
X265043Y174053D02*
X267043D01*
Y176052D01*
X265043D02*
X267043D01*
X265043Y174053D02*
Y176052D01*
X165132Y160424D02*
X166332D01*
Y161624D01*
X165132D02*
X166332D01*
X165132Y160424D02*
Y161624D01*
X164732Y160024D02*
X166732D01*
Y162024D01*
X164732D02*
X166732D01*
X164732Y160024D02*
Y162024D01*
X165148Y156880D02*
X166348D01*
Y158080D01*
X165148D02*
X166348D01*
X165148Y156880D02*
Y158080D01*
X164748Y156480D02*
X166748D01*
Y158480D01*
X164748D02*
X166748D01*
X164748Y156480D02*
Y158480D01*
X237097Y168440D02*
X238297D01*
Y169640D01*
X237097D02*
X238297D01*
X237097Y168440D02*
Y169640D01*
X236697Y168040D02*
X238697D01*
Y170040D01*
X236697D02*
X238697D01*
X236697Y168040D02*
Y170040D01*
X178928Y157668D02*
X180128D01*
Y158868D01*
X178928D02*
X180128D01*
X178928Y157668D02*
Y158868D01*
X178528Y157268D02*
X180528D01*
Y159268D01*
X178528D02*
X180528D01*
X178528Y157268D02*
Y159268D01*
X232372Y284439D02*
X233572D01*
Y285639D01*
X232372D02*
X233572D01*
X232372Y284439D02*
Y285639D01*
X231972Y284039D02*
X233972D01*
Y286039D01*
X231972D02*
X233972D01*
X231972Y284039D02*
Y286039D01*
X240443Y305025D02*
X241643D01*
Y306225D01*
X240443D02*
X241643D01*
X240443Y305025D02*
Y306225D01*
X240043Y304625D02*
X242043D01*
Y306625D01*
X240043D02*
X242043D01*
X240043Y304625D02*
Y306625D01*
X27055Y343079D02*
X29055D01*
Y345079D01*
X27055D02*
X29055D01*
X27055Y343079D02*
Y345079D01*
X27567Y30875D02*
X29567D01*
Y32875D01*
X27567D02*
X29567D01*
X27567Y30875D02*
Y32875D01*
X329315Y318126D02*
X331315D01*
Y320126D01*
X329315D02*
X331315D01*
X329315Y318126D02*
Y320126D01*
X174490Y176979D02*
X175490Y178979D01*
X173491D02*
X175490D01*
X173491D02*
X174490Y176979D01*
X60391Y46736D02*
X61391Y48736D01*
X59390D02*
X61391D01*
X59390D02*
X60391Y46736D01*
X288591Y307136D02*
X289591Y309136D01*
X287591D02*
X289591D01*
X287591D02*
X288591Y307136D01*
X60378Y307174D02*
X61378Y309174D01*
X59378D02*
X61378D01*
X59378D02*
X60378Y307174D01*
X349570Y318126D02*
X350570Y320126D01*
X348570D02*
X350570D01*
X348570D02*
X349570Y318126D01*
X12303Y333268D02*
X13303Y335268D01*
X11303D02*
X13303D01*
X11303D02*
X12303Y333268D01*
Y18209D02*
X13303Y20209D01*
X11303D02*
X13303D01*
X11303D02*
X12303Y18209D01*
X349606Y28052D02*
X350606Y30052D01*
X348606D02*
X350606D01*
X348606D02*
X349606Y28052D01*
X18370Y136835D02*
X20370D01*
Y138835D01*
X18370D02*
X20370D01*
X18370Y136835D02*
Y138835D01*
X8370Y136835D02*
X10370D01*
Y138835D01*
X8370D02*
X10370D01*
X8370Y136835D02*
Y138835D01*
X18370Y126835D02*
X20370D01*
Y128835D01*
X18370D02*
X20370D01*
X18370Y126835D02*
Y128835D01*
X8370Y126835D02*
X10370D01*
Y128835D01*
X8370D02*
X10370D01*
X8370Y126835D02*
Y128835D01*
X18370Y116835D02*
X20370D01*
Y118835D01*
X18370D02*
X20370D01*
X18370Y116835D02*
Y118835D01*
X8370Y116835D02*
X10370D01*
Y118835D01*
X8370D02*
X10370D01*
X8370Y116835D02*
Y118835D01*
X18370Y106835D02*
X20370D01*
Y108835D01*
X18370D02*
X20370D01*
X18370Y106835D02*
Y108835D01*
X8370Y106835D02*
X10370D01*
Y108835D01*
X8370D02*
X10370D01*
X8370Y106835D02*
Y108835D01*
X18370Y96835D02*
X20370D01*
Y98835D01*
X18370D02*
X20370D01*
X18370Y96835D02*
Y98835D01*
X8370Y96835D02*
X10370D01*
Y98835D01*
X8370D02*
X10370D01*
X8370Y96835D02*
Y98835D01*
X328764Y23685D02*
X330764D01*
Y25685D01*
X328764D02*
X330764D01*
X328764Y23685D02*
Y25685D01*
X164732Y321977D02*
X166732D01*
Y323977D01*
X164732D02*
X166732D01*
X164732Y321977D02*
Y323977D01*
X79748Y306205D02*
X81748D01*
Y308205D01*
X79748D02*
X81748D01*
X79748Y306205D02*
Y308205D01*
X83905Y133473D02*
X85905D01*
Y135473D01*
X83905D02*
X85905D01*
X83905Y133473D02*
Y135473D01*
X97842Y136072D02*
X99842D01*
Y138072D01*
X97842D02*
X99842D01*
X97842Y136072D02*
Y138072D01*
X166370Y82686D02*
X168370D01*
Y84686D01*
X166370D02*
X168370D01*
X166370Y82686D02*
Y84686D01*
X96071Y221544D02*
X98071D01*
Y223544D01*
X96071D02*
X98071D01*
X96071Y221544D02*
Y223544D01*
X262803Y256741D02*
X264803D01*
Y258741D01*
X262803D02*
X264803D01*
X262803Y256741D02*
Y258741D01*
X264496Y237253D02*
X266496D01*
Y239253D01*
X264496D02*
X266496D01*
X264496Y237253D02*
Y239253D01*
X318488Y23882D02*
X320488D01*
Y25882D01*
X318488D02*
X320488D01*
X318488Y23882D02*
Y25882D01*
X162803Y270993D02*
X164803D01*
Y272993D01*
X162803D02*
X164803D01*
X162803Y270993D02*
Y272993D01*
X159693Y237016D02*
X161693D01*
Y239016D01*
X159693D02*
X161693D01*
X159693Y237016D02*
Y239016D01*
X198787Y333827D02*
X200787D01*
Y335827D01*
X198787D02*
X200787D01*
X198787Y333827D02*
Y335827D01*
X96228Y207449D02*
X98228D01*
Y209449D01*
X96228D02*
X98228D01*
X96228Y207449D02*
Y209449D01*
X319693Y328394D02*
X321693D01*
Y330394D01*
X319693D02*
X321693D01*
X319693Y328394D02*
Y330394D01*
X309181Y338512D02*
X311181D01*
Y340512D01*
X309181D02*
X311181D01*
X309181Y338512D02*
Y340512D01*
X192228Y204079D02*
X194228D01*
Y206079D01*
X192228D02*
X194228D01*
X192228Y204079D02*
Y206079D01*
X183039Y271662D02*
X185039D01*
Y273662D01*
X183039D02*
X185039D01*
X183039Y271662D02*
Y273662D01*
X189457Y322174D02*
X191457D01*
Y324174D01*
X189457D02*
X191457D01*
X189457Y322174D02*
Y324174D01*
X159146Y37464D02*
X159646Y36964D01*
X158646Y37464D02*
X159146D01*
X158646D02*
X159146Y37964D01*
X158646Y38464D02*
X159146Y37964D01*
X158646Y38464D02*
X159146D01*
X159646Y38964D01*
X160146Y38464D01*
X160646D01*
X160146Y37964D02*
X160646Y38464D01*
X160146Y37964D02*
X160646Y37464D01*
X160146D02*
X160646D01*
X159646Y36964D02*
X160146Y37464D01*
X169146D02*
X169646Y36964D01*
X168646Y37464D02*
X169146D01*
X168646D02*
X169146Y37964D01*
X168646Y38464D02*
X169146Y37964D01*
X168646Y38464D02*
X169146D01*
X169646Y38964D01*
X170146Y38464D01*
X170646D01*
X170146Y37964D02*
X170646Y38464D01*
X170146Y37964D02*
X170646Y37464D01*
X170146D02*
X170646D01*
X169646Y36964D02*
X170146Y37464D01*
X307472Y155504D02*
X307972Y155004D01*
X306972Y155504D02*
X307472D01*
X306972D02*
X307472Y156004D01*
X306972Y156504D02*
X307472Y156004D01*
X306972Y156504D02*
X307472D01*
X307972Y157004D01*
X308472Y156504D01*
X308972D01*
X308472Y156004D02*
X308972Y156504D01*
X308472Y156004D02*
X308972Y155504D01*
X308472D02*
X308972D01*
X307972Y155004D02*
X308472Y155504D01*
X307472Y145504D02*
X307972Y145004D01*
X306972Y145504D02*
X307472D01*
X306972D02*
X307472Y146004D01*
X306972Y146504D02*
X307472Y146004D01*
X306972Y146504D02*
X307472D01*
X307972Y147004D01*
X308472Y146504D01*
X308972D01*
X308472Y146004D02*
X308972Y146504D01*
X308472Y146004D02*
X308972Y145504D01*
X308472D02*
X308972D01*
X307972Y145004D02*
X308472Y145504D01*
X307472Y135504D02*
X307972Y135004D01*
X306972Y135504D02*
X307472D01*
X306972D02*
X307472Y136004D01*
X306972Y136504D02*
X307472Y136004D01*
X306972Y136504D02*
X307472D01*
X307972Y137004D01*
X308472Y136504D01*
X308972D01*
X308472Y136004D02*
X308972Y136504D01*
X308472Y136004D02*
X308972Y135504D01*
X308472D02*
X308972D01*
X307972Y135004D02*
X308472Y135504D01*
X59158Y130299D02*
X61158D01*
Y132299D01*
X59158D02*
X61158D01*
X59158Y130299D02*
Y132299D01*
X69157Y130299D02*
X71157D01*
Y132299D01*
X69157D02*
X71157D01*
X69157Y130299D02*
Y132299D01*
X59158Y140299D02*
X61158D01*
Y142299D01*
X59158D02*
X61158D01*
X59158Y140299D02*
Y142299D01*
X69157Y140299D02*
X71157D01*
Y142299D01*
X69157D02*
X71157D01*
X69157Y140299D02*
Y142299D01*
X59158Y150299D02*
X61158D01*
Y152299D01*
X59158D02*
X61158D01*
X59158Y150299D02*
Y152299D01*
X69157Y150299D02*
X71157D01*
Y152299D01*
X69157D02*
X71157D01*
X69157Y150299D02*
Y152299D01*
X59158Y160299D02*
X61158D01*
Y162299D01*
X59158D02*
X61158D01*
X59158Y160299D02*
Y162299D01*
X69157Y160299D02*
X71157D01*
Y162299D01*
X69157D02*
X71157D01*
X69157Y160299D02*
Y162299D01*
X59158Y170299D02*
X61158D01*
Y172299D01*
X59158D02*
X61158D01*
X59158Y170299D02*
Y172299D01*
X69157Y170299D02*
X71157D01*
Y172299D01*
X69157D02*
X71157D01*
X69157Y170299D02*
Y172299D01*
X288591Y46736D02*
X289591Y48736D01*
X287591D02*
X289591D01*
X287591D02*
X288591Y46736D01*
X73528Y113119D02*
X75528D01*
Y115119D01*
X73528D02*
X75528D01*
X73528Y113119D02*
Y115119D01*
X29906Y324590D02*
X31905D01*
Y326590D01*
X29906D02*
X31905D01*
X29906Y324590D02*
Y326590D01*
D180*
X869713Y268314D02*
Y264510D01*
X871615Y262609D01*
X873516Y264510D01*
Y268314D01*
X875418Y262609D02*
X877320D01*
X876369D01*
Y266412D01*
X875418D01*
X881123D02*
X883025D01*
X883976Y265461D01*
Y262609D01*
X881123D01*
X880172Y263560D01*
X881123Y264510D01*
X883976D01*
X885877Y262609D02*
X889680Y266412D01*
X891582Y262609D02*
Y268314D01*
X894435D01*
X895385Y267363D01*
Y265461D01*
X894435Y264510D01*
X891582D01*
X898238Y266412D02*
X900140D01*
X901091Y265461D01*
Y262609D01*
X898238D01*
X897287Y263560D01*
X898238Y264510D01*
X901091D01*
X906796Y268314D02*
Y262609D01*
X903943D01*
X902992Y263560D01*
Y265461D01*
X903943Y266412D01*
X906796D01*
X750441Y268314D02*
Y262609D01*
X753293D01*
X754244Y263560D01*
Y267363D01*
X753293Y268314D01*
X750441D01*
X756146Y266412D02*
Y262609D01*
Y264510D01*
X757096Y265461D01*
X758047Y266412D01*
X758998D01*
X761851Y262609D02*
X763752D01*
X762802D01*
Y266412D01*
X761851D01*
X766605Y262609D02*
X768506D01*
X767556D01*
Y268314D01*
X766605D01*
X771359Y262609D02*
X773261D01*
X772310D01*
Y268314D01*
X771359D01*
X781818D02*
Y262609D01*
X785622D01*
X788474Y266412D02*
X790376D01*
X791327Y265461D01*
Y262609D01*
X788474D01*
X787523Y263560D01*
X788474Y264510D01*
X791327D01*
X793228Y266412D02*
Y263560D01*
X794179Y262609D01*
X797032D01*
Y261658D01*
X796081Y260707D01*
X795130D01*
X797032Y262609D02*
Y266412D01*
X801786Y262609D02*
X799884D01*
X798933Y263560D01*
Y265461D01*
X799884Y266412D01*
X801786D01*
X802737Y265461D01*
Y264510D01*
X798933D01*
X804638Y266412D02*
Y262609D01*
Y264510D01*
X805589Y265461D01*
X806540Y266412D01*
X807491D01*
X816048Y262609D02*
Y268314D01*
X818901D01*
X819852Y267363D01*
Y265461D01*
X818901Y264510D01*
X816048D01*
X822704Y266412D02*
X824606D01*
X825557Y265461D01*
Y262609D01*
X822704D01*
X821753Y263560D01*
X822704Y264510D01*
X825557D01*
X827458Y262609D02*
X829360D01*
X828409D01*
Y266412D01*
X827458D01*
X832213D02*
Y262609D01*
Y264510D01*
X833164Y265461D01*
X834114Y266412D01*
X835065D01*
X691614Y268314D02*
Y262609D01*
Y265461D01*
X695418D01*
Y268314D01*
Y262609D01*
X698270D02*
X700172D01*
X701123Y263560D01*
Y265461D01*
X700172Y266412D01*
X698270D01*
X697319Y265461D01*
Y263560D01*
X698270Y262609D01*
X703024D02*
X704926D01*
X703975D01*
Y268314D01*
X703024D01*
X710631Y262609D02*
X708729D01*
X707779Y263560D01*
Y265461D01*
X708729Y266412D01*
X710631D01*
X711582Y265461D01*
Y264510D01*
X707779D01*
X719188Y268314D02*
X722992D01*
X721090D01*
Y262609D01*
X724894Y266412D02*
Y263560D01*
X725844Y262609D01*
X728697D01*
Y261658D01*
X727746Y260707D01*
X726795D01*
X728697Y262609D02*
Y266412D01*
X730599Y260707D02*
Y266412D01*
X733451D01*
X734402Y265461D01*
Y263560D01*
X733451Y262609D01*
X730599D01*
X739156D02*
X737254D01*
X736304Y263560D01*
Y265461D01*
X737254Y266412D01*
X739156D01*
X740107Y265461D01*
Y264510D01*
X736304D01*
X650854Y262609D02*
Y268314D01*
X653706D01*
X654657Y267363D01*
Y265461D01*
X653706Y264510D01*
X650854D01*
X656559Y262609D02*
X658461D01*
X657510D01*
Y268314D01*
X656559D01*
X662264Y266412D02*
X664166D01*
X665116Y265461D01*
Y262609D01*
X662264D01*
X661313Y263560D01*
X662264Y264510D01*
X665116D01*
X667969Y267363D02*
Y266412D01*
X667018D01*
X668920D01*
X667969D01*
Y263560D01*
X668920Y262609D01*
X674625D02*
X672723D01*
X671772Y263560D01*
Y265461D01*
X672723Y266412D01*
X674625D01*
X675576Y265461D01*
Y264510D01*
X671772D01*
X681281Y268314D02*
Y262609D01*
X678428D01*
X677477Y263560D01*
Y265461D01*
X678428Y266412D01*
X681281D01*
X557729Y268314D02*
Y262609D01*
Y265461D01*
X561533D01*
Y268314D01*
Y262609D01*
X564385D02*
X566287D01*
X567238Y263560D01*
Y265461D01*
X566287Y266412D01*
X564385D01*
X563435Y265461D01*
Y263560D01*
X564385Y262609D01*
X569140D02*
X571041D01*
X570090D01*
Y268314D01*
X569140D01*
X576746Y262609D02*
X574845D01*
X573894Y263560D01*
Y265461D01*
X574845Y266412D01*
X576746D01*
X577697Y265461D01*
Y264510D01*
X573894D01*
X589107Y267363D02*
X588156Y268314D01*
X586255D01*
X585304Y267363D01*
Y266412D01*
X586255Y265461D01*
X588156D01*
X589107Y264510D01*
Y263560D01*
X588156Y262609D01*
X586255D01*
X585304Y263560D01*
X591009Y262609D02*
X592911D01*
X591960D01*
Y266412D01*
X591009D01*
X595763D02*
X599566D01*
X595763Y262609D01*
X599566D01*
X604321D02*
X602419D01*
X601468Y263560D01*
Y265461D01*
X602419Y266412D01*
X604321D01*
X605271Y265461D01*
Y264510D01*
X601468D01*
X513573Y267363D02*
X512623Y268314D01*
X510721D01*
X509770Y267363D01*
Y263560D01*
X510721Y262609D01*
X512623D01*
X513573Y263560D01*
X516426Y262609D02*
X518328D01*
X519278Y263560D01*
Y265461D01*
X518328Y266412D01*
X516426D01*
X515475Y265461D01*
Y263560D01*
X516426Y262609D01*
X521180Y266412D02*
Y263560D01*
X522131Y262609D01*
X524984D01*
Y266412D01*
X526885Y262609D02*
Y266412D01*
X529738D01*
X530688Y265461D01*
Y262609D01*
X533541Y267363D02*
Y266412D01*
X532590D01*
X534492D01*
X533541D01*
Y263560D01*
X534492Y262609D01*
X472813Y267363D02*
X471862Y268314D01*
X469960D01*
X469010Y267363D01*
Y266412D01*
X469960Y265461D01*
X471862D01*
X472813Y264510D01*
Y263560D01*
X471862Y262609D01*
X469960D01*
X469010Y263560D01*
X474715Y266412D02*
Y263560D01*
X475666Y262609D01*
X478518D01*
Y261658D01*
X477567Y260707D01*
X476616D01*
X478518Y262609D02*
Y266412D01*
X480420Y262609D02*
Y266412D01*
X481371D01*
X482321Y265461D01*
Y262609D01*
Y265461D01*
X483272Y266412D01*
X484223Y265461D01*
Y262609D01*
X486125Y268314D02*
Y262609D01*
X488977D01*
X489928Y263560D01*
Y264510D01*
Y265461D01*
X488977Y266412D01*
X486125D01*
X492781Y262609D02*
X494682D01*
X495633Y263560D01*
Y265461D01*
X494682Y266412D01*
X492781D01*
X491830Y265461D01*
Y263560D01*
X492781Y262609D01*
X497535D02*
X499437D01*
X498486D01*
Y268314D01*
X497535D01*
M02*
