M48
;Layer_Color=9474304
;FILE_FORMAT=2:5
INCH,LZ
;TYPE=PLATED
T1F00S00C0.01181
T2F00S00C0.01500
T3F00S00C0.02362
T4F00S00C0.02800
T5F00S00C0.03543
T6F00S00C0.03900
T7F00S00C0.03937
T8F00S00C0.12598
%
T01
X0032937Y0141402
X0117779Y0131283
X0128122Y0132887
X0162402Y0119488
X0176024Y0114646
X0180772Y0109552
X0179472Y0121993
X0202307Y0117426
X0191132Y0138081
X0188425Y0140654
X0195693Y0044119
X0199787Y0040905
X0206401Y0036363
X0202819Y0026871
X019626Y0025455
X0183976Y0022087
X0155905Y0015237
X0151535Y0008899
X0159764Y0006222
X0164646Y0004568
X0149905Y0059408
X0137874Y0087402
X0100731Y0077582
X0084866Y0076008
X007711Y0087297
X0111125Y0045142
X020774Y0026871
X0212661
X0217992Y0029352
X0222819Y0027029
X0227394Y0029352
X0232307Y0026753
X0236795Y0029352
X0240141Y0038803
X0253307Y0041732
X0268921Y0027226
X0273779Y0029331
X0278336Y0027226
X0283201Y0029352
X0287751Y0027226
X0292598Y0029331
X0297166Y0027226
X0301417Y0029331
X0294787Y0005733
X0286598Y0007977
X0281181Y0060328
X0282559Y0068095
X027648
X0272635
X026879
X0264945
X025774Y0067662
X0238212Y0067859
X0241401Y0071913
X0221638Y0068489
X0218252Y0071127
X0214433Y0071048
X0211283Y0071678
X0211756Y0076166
X0228449Y0053922
X0229354Y0099119
X022847Y0102898
X0228487Y0106244
X0240748Y0109591
X0246087
X0252425Y0109906
X0256874Y0111166
X0260063Y0121953
X0280304Y0124331
X0274433Y0130418
X0292165Y0137744
X0299882Y0132665
X0297732Y0114501
X0291909
X0294866Y0105339
Y0102098
Y0098856
Y0095615
X0307268Y0090039
X0304961Y0111645
X0282292Y0084409
Y0081181
X0289173Y0064724
X032559Y0043701
X0250693Y0090969
X025085Y0096953
X0244992Y0130715
X0235086Y0130158
Y0126379
X0223244Y0136535
X0240236Y0143346
X0238425Y0146102
X0232385Y000278
X0236615Y0148858
X0234804Y0151615
X0237523Y0162638
X0237697Y016904
X0243386Y016748
X0248543Y0162638
X0258957Y0164862
X0266102Y0168253
X0266043Y0171653
Y0175052
X027652Y0168253
X027648Y016463
Y0160969
X0277031Y0154118
X0280455
X0281401Y0147859
X029602Y0155249
X0298583Y0152835
X0307942Y0174213
X0306205Y020463
X0309709Y0212047
X0300811
X0289472Y0198686
X0279764Y0204173
X0265918Y0205142
X0252441Y0206417
X0252057Y0221335
X0244961Y023404
X0240984
X0235079Y0237795
X0225512Y0234495
X0227362Y0248071
X0208488Y0238843
X021017Y0219512
X0220023Y0216882
X0225614Y0207623
X022274Y0200654
X0224433Y0196717
X0209591Y019963
Y0206968
X0209512Y0188764
X023563Y0188307
X0239488Y0190551
X0242352Y0185748
X0245354Y0183298
X0235574Y018085
X0221654Y0152992
X0218094Y0150812
X0215496Y0146953
X0278223Y01824
X0278226Y0185984
X0276378Y0189281
X0285378Y0238213
X0289079Y0240575
X0293764Y0239355
X0290933Y0250905
X0291085Y0255374
X0284409Y024874
X0279842
X0275276
X0280455Y0275039
X0285369
X0290303
X0295827Y0270866
X0311065Y0272745
Y0277244
X0313359Y0265706
Y026012
Y0248858
Y0235356
X0285369Y0282402
X0280455
X026874Y0275039
X0258354Y0270889
X0251024
Y0277464
X0260732Y0281678
X0243055Y0284867
X0232972Y0285039
X0224291Y0283371
X018715Y028278
X0188567Y0289473
X0199039Y0268686
X0179166Y0257771
X018522Y0235024
X0177504Y022093
X0176756Y0208764
X018648Y0208331
X0203921Y0201796
X0204354Y0194591
X0202583Y0184197
X0195693Y0181402
X0194236Y0191993
X0192531Y0167149
X0204331Y0164473
Y0159867
Y0153536
Y014748
X0182668Y0154322
X0179528Y0158268
X0165748Y015748
X0165732Y0161024
X0158858Y0163976
X0159749Y0168504
X0144511Y0167582
X0146283Y014904
X0147465Y0192268
X0156677Y0183686
X0120929Y0198725
X0115378Y02003
X0091873Y0202897
X0095892Y0235772
X0121126Y023719
X0111214Y0253637
X0108291Y0276245
X0115417Y0279827
X0133055Y027089
X0145072Y025159
X0151647Y0241196
X0082434Y0250488
X0060102Y0249276
Y0213686
X005463Y0207111
X0054Y0177386
X0084118Y0171442
X0081795Y0161166
X0077307Y0160969
X0084521Y0286118
X0053449Y0289434
X0048291Y0271127
X0027858Y0270182
X0030575Y0259827
X0032228Y0237859
X0017386Y0234985
X0013213Y023782
X001337Y0228449
X0013094Y0217032
X0020338Y0188804
X0034709Y0189945
X0031598Y0194946
X0003733Y0249897
X0011598Y0276481
X0034827Y0283371
X0028133Y0296716
X0003812Y0298834
X0089527Y0327086
X0087779Y0337621
X0084157Y0334867
X0124197Y0324512
X0148685Y0337662
X0153094Y0337662
X0183252Y0323961
X0183646Y0306087
X0209709Y0337623
X0219409Y0342308
X0241362Y0323568
X0241043Y0305625
X0261205Y0328764
X0299197Y0330339
X029963Y0339512
T02
X0047165Y0027953
X0027559Y0062441
X0014646
X0027268Y0083504
Y0107819
X0051304Y0027913
X0175079Y0023307
X0223386Y0050669
X0310181Y0036614
T03
X0097071Y0029052
T04
X0030457Y0020024
X0006717Y006278
X0047992Y0117008
Y0126181
X007437Y0103898
X0069055Y0061811
X0089512Y0060851
Y0054906
X008996Y0049409
X0096047Y0048961
Y0054906
Y0060851
X0089239Y002122
X0144433Y0031496
X0136441Y0079473
X0166732Y0092126
X0152086Y0114567
X0157874Y0124134
X0204196Y0130141
X020152Y0012741
X0232205Y0036614
X0243252Y0048961
Y0054906
Y0060851
X024959
Y0054906
Y0048961
X0247583Y0072701
X0270462Y0111142
X0212638Y0111811
X0307268Y0078764
X0310945Y0024961
X0311323Y0164591
X0312307Y0223883
X0274055Y0229449
X0249268Y0178583
X0249157Y0288646
X0254747Y028896
X0255063Y0294552
Y0300457
X0249157
Y0294552
X0229064Y0268858
X0201535Y0224291
X0143173Y0244434
X0150299Y027904
X0150118Y0299055
X0112622Y0300536
X0084764Y0301062
X0101165Y0281442
X0096205Y0243882
X0051756Y0228843
X0125181Y0163646
X0125654Y0158607
X0131264
X0131441Y0163646
X0136913
X0136874Y0158607
X0047818Y0322897
X0050811Y0343056
X0023173Y0314946
X0072992Y0322244
X0074039Y0346204
X0095709Y0329504
X0094835Y0309646
X0138764Y0303883
X0150102Y0307071
X0136598Y032156
X0136637Y0327267
X0207622Y0324906
X021274Y0316875
X0214879Y034122
X0248937Y0344134
X0266598Y033089
X0235693Y0306243
X0229786
X0329528Y0310709
T05
X000937Y0097835
Y0107835
Y0117835
Y0127835
Y0137835
X001937
Y0127835
Y0117835
Y0107835
Y0097835
X0060158Y0131299
X0070157
Y0141299
X0060158
X031959Y013904
Y012904
Y011904
Y010904
Y009904
Y008904
Y007904
Y006904
Y005904
X032959
Y006904
Y007904
Y008904
Y009904
Y010904
Y011904
Y012904
Y013904
X033959
X034959
Y012904
X033959
Y011904
X034959
Y010904
X033959
Y009904
X034959
Y008904
X033959
Y007904
X034959
Y006904
X033959
Y005904
Y004904
X032959
X031959
X034959
Y005904
Y014904
Y015904
Y016904
Y017904
Y018904
Y019904
Y020904
Y021904
Y022904
Y023904
Y024904
Y025904
Y026904
Y027904
Y028904
Y029904
X0339571
X032959
Y028904
Y027904
Y026904
Y025904
X0339571
Y024904
X032959
Y023904
Y022904
Y021904
Y020904
Y019904
Y018904
Y017904
Y016904
Y015904
Y014904
X031959
Y015904
Y016904
Y017904
Y018904
Y019904
Y020904
Y0218942
Y022904
Y023904
Y024904
Y025904
Y026904
Y027904
Y028904
Y029904
X033959Y028904
Y027904
Y026904
Y023904
Y022904
Y0218942
Y020904
Y019904
Y018904
Y017904
Y016904
Y015904
Y014904
X0070157Y0151299
X0060158
Y0161299
X0070157
Y0171299
X0060158
T06
X0159646Y0037964
X0169646
X0307972Y0136004
Y0146004
Y0156004
T07
X0028567Y0031875
X0074528Y0114119
X0084905Y0134473
X0098842Y0137072
X016737Y0083686
X0319488Y0024882
X0329764Y0024685
X0265496Y0238253
X0263803Y0257741
X0184039Y0272662
X0163803Y0271993
X0160693Y0238016
X0193228Y0205079
X0097228Y0208449
X0097071Y0222544
X0030906Y032559
X0028055Y0344079
X0080748Y0307205
X0165732Y0322977
X0190457Y0323174
X0199787Y0334827
X0310181Y0339512
X0320693Y0329394
X0330315Y0319126
T08
X0012303Y0019209
X0060391Y0047736
X0288591
X0349606Y0029052
X017449Y0177979
X0012303Y0334268
X0060378Y0308174
X0288591Y0308136
X034957Y0319126
M30
