G04*
G04 #@! TF.GenerationSoftware,Altium Limited,Altium Designer,18.1.7 (191)*
G04*
G04 Layer_Color=8421504*
%FSLAX25Y25*%
%MOIN*%
G70*
G01*
G75*
%ADD26R,0.16535X0.15748*%
%ADD27R,0.09803X0.11811*%
%ADD28R,0.08661X0.02756*%
%ADD29R,0.04331X0.05315*%
%ADD30R,0.15748X0.15748*%
%ADD31R,0.09843X0.06693*%
%ADD32R,0.06000X0.04724*%
%ADD33R,0.04134X0.04724*%
%ADD34R,0.05315X0.04331*%
%ADD35R,0.07874X0.11811*%
%ADD36R,0.03150X0.06299*%
%ADD37R,0.04724X0.06000*%
%ADD38R,0.06000X0.06000*%
%ADD39R,0.08661X0.13780*%
%ADD40R,0.04724X0.04134*%
%ADD41R,0.06000X0.06000*%
%ADD42R,0.15748X0.16535*%
%ADD43R,0.03150X0.03150*%
%ADD44R,0.04331X0.08661*%
%ADD45R,0.11811X0.09803*%
%ADD46R,0.02756X0.08661*%
%ADD47R,0.08661X0.04331*%
%ADD48R,0.08500X0.10799*%
%ADD49R,0.06299X0.08268*%
%ADD50R,0.11811X0.07874*%
%ADD51R,0.06299X0.03150*%
%ADD52R,0.03543X0.03543*%
%ADD53R,0.06693X0.09843*%
%ADD54R,0.10236X0.23622*%
%ADD55C,0.03200*%
D26*
X265220Y194434D02*
D03*
X297504D02*
D03*
X215063Y247308D02*
D03*
X247346D02*
D03*
D27*
X246500Y56855D02*
D03*
X92799Y55753D02*
D03*
X258432Y141934D02*
D03*
X251697Y293981D02*
D03*
X169098Y56855D02*
D03*
D28*
X235181Y64355D02*
D03*
Y59355D02*
D03*
Y54355D02*
D03*
Y49355D02*
D03*
X257819Y64355D02*
D03*
Y59355D02*
D03*
Y54355D02*
D03*
Y49355D02*
D03*
X168429Y314749D02*
D03*
Y309749D02*
D03*
Y304749D02*
D03*
Y299749D02*
D03*
X192858Y314749D02*
D03*
Y309749D02*
D03*
Y304749D02*
D03*
Y299749D02*
D03*
X168587Y263552D02*
D03*
Y258552D02*
D03*
Y253552D02*
D03*
Y248552D02*
D03*
X193016Y263552D02*
D03*
Y258552D02*
D03*
Y253552D02*
D03*
Y248552D02*
D03*
X81480Y63253D02*
D03*
Y58253D02*
D03*
Y53253D02*
D03*
Y48253D02*
D03*
X104118Y63253D02*
D03*
Y58253D02*
D03*
Y53253D02*
D03*
Y48253D02*
D03*
X247113Y149434D02*
D03*
Y144434D02*
D03*
Y139434D02*
D03*
Y134434D02*
D03*
X269751Y149434D02*
D03*
Y144434D02*
D03*
Y139434D02*
D03*
Y134434D02*
D03*
X168587Y210772D02*
D03*
Y205772D02*
D03*
Y200772D02*
D03*
Y195772D02*
D03*
X193016Y210772D02*
D03*
Y205772D02*
D03*
Y200772D02*
D03*
Y195772D02*
D03*
X263016Y286481D02*
D03*
Y291481D02*
D03*
Y296481D02*
D03*
Y301481D02*
D03*
X240378Y286481D02*
D03*
Y291481D02*
D03*
Y296481D02*
D03*
Y301481D02*
D03*
X62484Y66756D02*
D03*
Y71757D02*
D03*
Y76757D02*
D03*
Y81757D02*
D03*
X38055Y66756D02*
D03*
Y71757D02*
D03*
Y76757D02*
D03*
Y81757D02*
D03*
X62445Y89631D02*
D03*
Y94630D02*
D03*
Y99630D02*
D03*
Y104630D02*
D03*
X38016Y89631D02*
D03*
Y94630D02*
D03*
Y99630D02*
D03*
Y104630D02*
D03*
X157779Y64355D02*
D03*
Y59355D02*
D03*
Y54355D02*
D03*
Y49355D02*
D03*
X180417Y64355D02*
D03*
Y59355D02*
D03*
Y54355D02*
D03*
Y49355D02*
D03*
D29*
X231047Y222465D02*
D03*
X243646D02*
D03*
X301283Y90615D02*
D03*
X288685D02*
D03*
X287583Y234276D02*
D03*
X300181D02*
D03*
X223961Y90457D02*
D03*
X211362D02*
D03*
X146739Y133086D02*
D03*
X134141D02*
D03*
X301323Y83095D02*
D03*
X288724D02*
D03*
X146716Y112820D02*
D03*
X159315D02*
D03*
X301323Y75654D02*
D03*
X288724D02*
D03*
X223961Y97800D02*
D03*
X211362D02*
D03*
X223961Y105142D02*
D03*
X211362D02*
D03*
D30*
X110535Y210930D02*
D03*
X149905D02*
D03*
X110535Y319827D02*
D03*
X149905D02*
D03*
X110535Y265615D02*
D03*
X149905D02*
D03*
D31*
X269394Y160694D02*
D03*
X285142D02*
D03*
X77701Y281127D02*
D03*
X93449D02*
D03*
X77228Y294473D02*
D03*
X92976D02*
D03*
X181598Y77426D02*
D03*
X197346D02*
D03*
X257819D02*
D03*
X273567D02*
D03*
X77701Y266008D02*
D03*
X93449D02*
D03*
D32*
X43268Y47788D02*
D03*
Y55788D02*
D03*
X251008Y327481D02*
D03*
Y335481D02*
D03*
X34134Y55788D02*
D03*
Y47788D02*
D03*
X302819Y297512D02*
D03*
Y289512D02*
D03*
X228949Y160363D02*
D03*
Y152363D02*
D03*
X114276Y172796D02*
D03*
Y180796D02*
D03*
X114039Y156890D02*
D03*
Y164890D02*
D03*
X302819Y280938D02*
D03*
Y272938D02*
D03*
X216992Y326497D02*
D03*
Y334497D02*
D03*
X228949Y144694D02*
D03*
Y136694D02*
D03*
D33*
X86342Y316678D02*
D03*
X79059D02*
D03*
X86500Y323016D02*
D03*
X79216D02*
D03*
X220161Y83568D02*
D03*
X212878D02*
D03*
X82209Y70221D02*
D03*
X74925D02*
D03*
X157917Y70182D02*
D03*
X150634D02*
D03*
X238429Y204158D02*
D03*
X231146D02*
D03*
X249571Y156717D02*
D03*
X242287D02*
D03*
X154374Y95103D02*
D03*
X147090D02*
D03*
X264531Y280733D02*
D03*
X271815D02*
D03*
X296106Y69040D02*
D03*
X288823D02*
D03*
X134042Y140615D02*
D03*
X141326D02*
D03*
X290161Y245772D02*
D03*
X297445D02*
D03*
X75122Y189079D02*
D03*
X67839D02*
D03*
X68547Y182504D02*
D03*
X61264D02*
D03*
X234964Y69827D02*
D03*
X227681D02*
D03*
D34*
X228606Y128686D02*
D03*
Y116087D02*
D03*
X123016Y45103D02*
D03*
Y57701D02*
D03*
X286142Y130984D02*
D03*
Y143583D02*
D03*
X223606Y303725D02*
D03*
Y291127D02*
D03*
D35*
X39079Y342308D02*
D03*
X94000D02*
D03*
X6717Y165142D02*
D03*
X41953D02*
D03*
X6716Y239749D02*
D03*
X41952D02*
D03*
X248213Y9352D02*
D03*
X193291D02*
D03*
X6717Y190011D02*
D03*
X41953D02*
D03*
X6717Y214880D02*
D03*
X41953D02*
D03*
X314669Y9352D02*
D03*
X259748D02*
D03*
X6717Y264617D02*
D03*
X41953D02*
D03*
X6717Y289486D02*
D03*
X41953D02*
D03*
X6717Y314355D02*
D03*
X41953D02*
D03*
X79984Y9352D02*
D03*
X34905D02*
D03*
X90748Y9352D02*
D03*
X125984D02*
D03*
X136811Y9253D02*
D03*
X181890D02*
D03*
D36*
X78843Y330103D02*
D03*
X69000D02*
D03*
X59158D02*
D03*
X49315D02*
D03*
X83764D02*
D03*
X73921D02*
D03*
X64079D02*
D03*
X54236D02*
D03*
X26795Y152938D02*
D03*
X16953D02*
D03*
X31716D02*
D03*
X21874D02*
D03*
X26795Y227544D02*
D03*
X16952D02*
D03*
X31716D02*
D03*
X21874D02*
D03*
X208449Y21556D02*
D03*
X218291D02*
D03*
X228134D02*
D03*
X237976D02*
D03*
X203527D02*
D03*
X213370D02*
D03*
X223213D02*
D03*
X233055D02*
D03*
X26795Y177806D02*
D03*
X16953D02*
D03*
X31716D02*
D03*
X21874D02*
D03*
X26795Y202675D02*
D03*
X16953D02*
D03*
X31716D02*
D03*
X21874D02*
D03*
X274905Y21556D02*
D03*
X284748D02*
D03*
X294590D02*
D03*
X304433D02*
D03*
X269984D02*
D03*
X279827D02*
D03*
X289669D02*
D03*
X299512D02*
D03*
X26795Y252413D02*
D03*
X16953D02*
D03*
X31716D02*
D03*
X21874D02*
D03*
X26795Y277281D02*
D03*
X16953D02*
D03*
X31716D02*
D03*
X21874D02*
D03*
X26795Y302150D02*
D03*
X16953D02*
D03*
X31716D02*
D03*
X21874D02*
D03*
X50063Y21556D02*
D03*
X59905D02*
D03*
X69748D02*
D03*
X45142D02*
D03*
X54984D02*
D03*
X64827D02*
D03*
X110827Y21556D02*
D03*
X100984D02*
D03*
X115748D02*
D03*
X105905D02*
D03*
X166732Y21458D02*
D03*
X156890D02*
D03*
X147047D02*
D03*
X171653D02*
D03*
X161811D02*
D03*
X151969D02*
D03*
D37*
X107606Y35733D02*
D03*
X99606D02*
D03*
X285512Y331442D02*
D03*
X293512D02*
D03*
X174724Y34355D02*
D03*
X182724D02*
D03*
X122764Y35733D02*
D03*
X114764D02*
D03*
X261979Y35890D02*
D03*
X269979D02*
D03*
X189016Y34355D02*
D03*
X197016D02*
D03*
X248357Y35890D02*
D03*
X256357D02*
D03*
X285512Y339158D02*
D03*
X293512D02*
D03*
D38*
X148348Y33882D02*
D03*
X134848D02*
D03*
X148663Y125575D02*
D03*
X135163D02*
D03*
X227014Y77229D02*
D03*
X240514D02*
D03*
X231029Y197544D02*
D03*
X244529D02*
D03*
X266340Y117032D02*
D03*
X252840D02*
D03*
X225159Y42938D02*
D03*
X211659D02*
D03*
X148348D02*
D03*
X134848D02*
D03*
X146226Y87819D02*
D03*
X159726D02*
D03*
D39*
X258449Y98449D02*
D03*
X280496D02*
D03*
X180339Y97465D02*
D03*
X202386D02*
D03*
D40*
X148252Y169926D02*
D03*
Y177209D02*
D03*
X279197Y136461D02*
D03*
Y143745D02*
D03*
X146047Y62682D02*
D03*
Y55398D02*
D03*
X231205Y297918D02*
D03*
Y290634D02*
D03*
X246520Y118390D02*
D03*
Y125674D02*
D03*
X211362Y63981D02*
D03*
Y56697D02*
D03*
X217327Y63981D02*
D03*
Y56697D02*
D03*
X223291Y63981D02*
D03*
Y56697D02*
D03*
X139945Y62682D02*
D03*
Y55398D02*
D03*
X116086Y50457D02*
D03*
Y57741D02*
D03*
X133764Y62682D02*
D03*
Y55398D02*
D03*
D41*
X213803Y306262D02*
D03*
Y292762D02*
D03*
X294315Y130007D02*
D03*
Y143507D02*
D03*
X301953Y250558D02*
D03*
Y264058D02*
D03*
X309591Y62522D02*
D03*
Y49022D02*
D03*
D42*
X193094Y122701D02*
D03*
Y154985D02*
D03*
D43*
X196479Y49375D02*
D03*
X190979D02*
D03*
X271671Y48528D02*
D03*
X266171D02*
D03*
X165648Y40930D02*
D03*
X160148D02*
D03*
X242774Y42505D02*
D03*
X237274D02*
D03*
D44*
X87425Y231727D02*
D03*
X74827D02*
D03*
X87425Y242701D02*
D03*
X74827D02*
D03*
X243528Y212859D02*
D03*
X230929D02*
D03*
X288094Y224434D02*
D03*
X300693D02*
D03*
X87425Y209778D02*
D03*
X74827D02*
D03*
X87425Y220752D02*
D03*
X74827D02*
D03*
X159394Y103725D02*
D03*
X146795D02*
D03*
X87425Y253675D02*
D03*
X74827D02*
D03*
X87425Y198804D02*
D03*
X74827D02*
D03*
D45*
X130791Y161461D02*
D03*
D46*
X138291Y172780D02*
D03*
X133291D02*
D03*
X128291D02*
D03*
X123291D02*
D03*
X138291Y150142D02*
D03*
X133291D02*
D03*
X128291D02*
D03*
X123291D02*
D03*
X242425Y340753D02*
D03*
X237425D02*
D03*
X232425D02*
D03*
X227425D02*
D03*
X242425Y316323D02*
D03*
X237425D02*
D03*
X232425D02*
D03*
X227425D02*
D03*
X273803Y340753D02*
D03*
X268803D02*
D03*
X263803D02*
D03*
X258803D02*
D03*
X273803Y316323D02*
D03*
X268803D02*
D03*
X263803D02*
D03*
X258803D02*
D03*
D47*
X219551Y130260D02*
D03*
Y117662D02*
D03*
D48*
X108094Y77386D02*
D03*
X125496D02*
D03*
D49*
X223291Y276638D02*
D03*
X240614D02*
D03*
D50*
X9961Y37441D02*
D03*
Y82520D02*
D03*
D51*
X22165Y67362D02*
D03*
Y57520D02*
D03*
Y47677D02*
D03*
Y72284D02*
D03*
Y62441D02*
D03*
Y52598D02*
D03*
D52*
X266441Y53213D02*
D03*
X271953D02*
D03*
Y44040D02*
D03*
X266441D02*
D03*
X196559Y44867D02*
D03*
X191047D02*
D03*
X191362Y54276D02*
D03*
X196874D02*
D03*
D53*
X163685Y149473D02*
D03*
Y133725D02*
D03*
D54*
X105772Y107190D02*
D03*
X134272D02*
D03*
D55*
X96874Y155615D02*
D03*
X309787Y317623D02*
D03*
X325315Y35433D02*
D03*
M02*
