G04*
G04 #@! TF.GenerationSoftware,Altium Limited,Altium Designer,18.1.7 (191)*
G04*
G04 Layer_Color=16711935*
%FSLAX25Y25*%
%MOIN*%
G70*
G01*
G75*
%ADD10C,0.01000*%
%ADD58R,0.10061X0.04156*%
%ADD61R,0.11243X0.08093*%
%ADD62R,0.06124X0.07400*%
%ADD63R,0.05534X0.06124*%
%ADD67R,0.07400X0.07400*%
%ADD69R,0.06124X0.05534*%
%ADD72R,0.07400X0.06124*%
%ADD73R,0.04550X0.04550*%
%ADD74R,0.05731X0.10061*%
%ADD76R,0.04156X0.10061*%
%ADD77R,0.10061X0.05731*%
%ADD82R,0.04943X0.04943*%
%ADD85C,0.04600*%
%ADD86C,0.08487*%
%ADD87C,0.09274*%
%ADD88C,0.16754*%
%ADD89C,0.15967*%
%ADD90C,0.15180*%
%ADD91C,0.27354*%
%ADD92R,0.08400X0.08400*%
%ADD93C,0.08400*%
%ADD94C,0.07306*%
%ADD95R,0.07306X0.07306*%
%ADD96C,0.06400*%
%ADD140R,0.07306X0.03172*%
%ADD141R,0.04550X0.04550*%
%ADD142R,0.04400X0.04400*%
%ADD143R,0.06124X0.06124*%
%ADD144R,0.04943X0.04943*%
%ADD145R,0.03644X0.07306*%
%ADD146R,0.06124X0.06124*%
%ADD147R,0.03937X0.02874*%
%ADD148R,0.03898X0.02874*%
%ADD149R,0.02874X0.03937*%
%ADD150R,0.02874X0.03898*%
%ADD151R,0.06400X0.03400*%
G04:AMPARAMS|DCode=152|XSize=55.34mil|YSize=61.24mil|CornerRadius=0mil|HoleSize=0mil|Usage=FLASHONLY|Rotation=225.000|XOffset=0mil|YOffset=0mil|HoleType=Round|Shape=Rectangle|*
%AMROTATEDRECTD152*
4,1,4,-0.00209,0.04122,0.04122,-0.00209,0.00209,-0.04122,-0.04122,0.00209,-0.00209,0.04122,0.0*
%
%ADD152ROTATEDRECTD152*%

G04:AMPARAMS|DCode=153|XSize=55.34mil|YSize=61.24mil|CornerRadius=0mil|HoleSize=0mil|Usage=FLASHONLY|Rotation=135.000|XOffset=0mil|YOffset=0mil|HoleType=Round|Shape=Rectangle|*
%AMROTATEDRECTD153*
4,1,4,0.04122,0.00209,-0.00209,-0.04122,-0.04122,-0.00209,0.00209,0.04122,0.04122,0.00209,0.0*
%
%ADD153ROTATEDRECTD153*%

%ADD154R,0.07502X0.02581*%
%ADD155R,0.07306X0.03644*%
G04:AMPARAMS|DCode=156|XSize=69.12mil|YSize=80.93mil|CornerRadius=20.78mil|HoleSize=0mil|Usage=FLASHONLY|Rotation=90.000|XOffset=0mil|YOffset=0mil|HoleType=Round|Shape=RoundedRectangle|*
%AMROUNDEDRECTD156*
21,1,0.06912,0.03937,0,0,90.0*
21,1,0.02756,0.08093,0,0,90.0*
1,1,0.04156,0.01968,0.01378*
1,1,0.04156,0.01968,-0.01378*
1,1,0.04156,-0.01968,-0.01378*
1,1,0.04156,-0.01968,0.01378*
%
%ADD156ROUNDEDRECTD156*%
%ADD157R,0.03172X0.07306*%
%ADD158R,0.04943X0.02187*%
%ADD159R,0.13998X0.10849*%
%ADD160O,0.07290X0.01581*%
%ADD161O,0.01581X0.07290*%
%ADD162R,0.05337X0.06518*%
%ADD163P,0.07548X4X180.0*%
%ADD164R,0.05534X0.04550*%
%ADD165O,0.03762X0.10061*%
G36*
X268360Y7790D02*
X265260Y6590D01*
X262060Y7790D01*
X260960Y10890D01*
X262060Y13790D01*
X265260Y15190D01*
X268360Y13990D01*
X269560Y10890D01*
X268360Y7790D01*
D02*
G37*
G36*
X13950Y42633D02*
X10850Y41433D01*
X7650Y42633D01*
X6550Y45733D01*
X7650Y48633D01*
X10850Y50033D01*
X13950Y48833D01*
X15150Y45733D01*
X13950Y42633D01*
D02*
G37*
G36*
X287454Y324310D02*
X284354Y323110D01*
X281154Y324310D01*
X280054Y327410D01*
X281154Y330310D01*
X284354Y331710D01*
X287454Y330510D01*
X288654Y327410D01*
X287454Y324310D01*
D02*
G37*
D10*
X269561Y10890D02*
G03*
X269561Y10890I-4301J0D01*
G01*
X15152Y45733D02*
G03*
X15152Y45733I-4301J0D01*
G01*
X288655Y327410D02*
G03*
X288655Y327410I-4301J0D01*
G01*
D58*
X51815Y83016D02*
D03*
Y78016D02*
D03*
Y73016D02*
D03*
Y68016D02*
D03*
X27386Y83016D02*
D03*
Y78016D02*
D03*
Y73016D02*
D03*
Y68016D02*
D03*
X51815Y107386D02*
D03*
Y102386D02*
D03*
Y97386D02*
D03*
Y92386D02*
D03*
X27386Y107386D02*
D03*
Y102386D02*
D03*
Y97386D02*
D03*
Y92386D02*
D03*
D61*
X143331Y136835D02*
D03*
X159079D02*
D03*
X155732Y196166D02*
D03*
X139984D02*
D03*
D62*
X328764Y35157D02*
D03*
X320764D02*
D03*
X303386Y96724D02*
D03*
X311386D02*
D03*
X299572Y265354D02*
D03*
X307572D02*
D03*
X299572Y255315D02*
D03*
X307572D02*
D03*
X299572Y245709D02*
D03*
X307572D02*
D03*
X303386Y106330D02*
D03*
X311386D02*
D03*
X102205Y241205D02*
D03*
X110205D02*
D03*
X20787Y242150D02*
D03*
X28787D02*
D03*
X173386Y242032D02*
D03*
X181386D02*
D03*
X103701Y288331D02*
D03*
X111701D02*
D03*
X18307Y289355D02*
D03*
X26307D02*
D03*
X231984Y312795D02*
D03*
X239984D02*
D03*
X288835Y88543D02*
D03*
X296835D02*
D03*
X173779Y288686D02*
D03*
X181779D02*
D03*
D63*
X238586Y253961D02*
D03*
X245870D02*
D03*
X78705Y274197D02*
D03*
X71421D02*
D03*
D67*
X116715Y95157D02*
D03*
X130215D02*
D03*
X94372Y185969D02*
D03*
X80872D02*
D03*
X144726D02*
D03*
X131226D02*
D03*
D69*
X89197Y257327D02*
D03*
Y250044D02*
D03*
X156475Y257001D02*
D03*
Y249717D02*
D03*
X91165Y303784D02*
D03*
Y296501D02*
D03*
X6559Y304690D02*
D03*
Y297406D02*
D03*
X160417Y303115D02*
D03*
Y295831D02*
D03*
X223803Y82564D02*
D03*
Y89847D02*
D03*
X267898Y97524D02*
D03*
Y104808D02*
D03*
X7071Y258351D02*
D03*
Y251067D02*
D03*
D72*
X64275Y261938D02*
D03*
Y253938D02*
D03*
X219149Y234937D02*
D03*
Y242937D02*
D03*
X220181Y99056D02*
D03*
Y107056D02*
D03*
X194315Y207127D02*
D03*
Y215127D02*
D03*
X226953Y64331D02*
D03*
Y72331D02*
D03*
D73*
X201289Y31166D02*
D03*
X206789D02*
D03*
X92493Y162327D02*
D03*
X86993D02*
D03*
Y171527D02*
D03*
X92493D02*
D03*
X151874Y170969D02*
D03*
X157374D02*
D03*
X86993Y153128D02*
D03*
X92493D02*
D03*
X151874Y176442D02*
D03*
X157374D02*
D03*
X151874Y165497D02*
D03*
X157374D02*
D03*
X151874Y154552D02*
D03*
X157374D02*
D03*
X142537Y146442D02*
D03*
X137037D02*
D03*
X302786Y277362D02*
D03*
X297286D02*
D03*
X92493Y148528D02*
D03*
X86993D02*
D03*
X92493Y166927D02*
D03*
X86993D02*
D03*
X302786Y282575D02*
D03*
X297286D02*
D03*
X151874Y160024D02*
D03*
X157374D02*
D03*
D74*
X175535Y47111D02*
D03*
X188134D02*
D03*
X175535Y65969D02*
D03*
X188134D02*
D03*
X175890Y128804D02*
D03*
X188488D02*
D03*
D76*
X290303Y266732D02*
D03*
X285303D02*
D03*
X280304D02*
D03*
X275304D02*
D03*
X290303Y291161D02*
D03*
X285303D02*
D03*
X280304D02*
D03*
X275304D02*
D03*
X115850Y139473D02*
D03*
X120850D02*
D03*
X125850D02*
D03*
X130850D02*
D03*
X115850Y115044D02*
D03*
X120850D02*
D03*
X125850D02*
D03*
X130850D02*
D03*
D77*
X204433Y94985D02*
D03*
Y107583D02*
D03*
X275457Y76717D02*
D03*
Y89316D02*
D03*
D82*
X275394Y256260D02*
D03*
X280906D02*
D03*
X92110Y176323D02*
D03*
X86598D02*
D03*
X24551Y204394D02*
D03*
X19039D02*
D03*
X110732Y235379D02*
D03*
X105220D02*
D03*
X135535Y237820D02*
D03*
X130024D02*
D03*
X26047Y282820D02*
D03*
X20535D02*
D03*
X234472Y343607D02*
D03*
X228961D02*
D03*
X230575Y323725D02*
D03*
X236087D02*
D03*
X52583Y239276D02*
D03*
X47071D02*
D03*
X202302Y22465D02*
D03*
X207814D02*
D03*
X137346Y284552D02*
D03*
X131835D02*
D03*
X254118Y125497D02*
D03*
X259630D02*
D03*
X77149Y267938D02*
D03*
X71638D02*
D03*
X180654Y235339D02*
D03*
X175142D02*
D03*
X60614Y325575D02*
D03*
X66126D02*
D03*
X122819Y328686D02*
D03*
X128331D02*
D03*
X296480Y187623D02*
D03*
X301992D02*
D03*
X50968Y283843D02*
D03*
X45457D02*
D03*
X28606Y235733D02*
D03*
X23094D02*
D03*
X177346Y328331D02*
D03*
X182858D02*
D03*
X26520Y223174D02*
D03*
X21008D02*
D03*
X206480Y283371D02*
D03*
X200968D02*
D03*
X250496Y210497D02*
D03*
X256008D02*
D03*
X92110Y157924D02*
D03*
X86598D02*
D03*
X238212Y212938D02*
D03*
X243724D02*
D03*
X136874Y151166D02*
D03*
X142386D02*
D03*
X194118Y236835D02*
D03*
X199630D02*
D03*
X181795Y281599D02*
D03*
X176283D02*
D03*
X112346Y282229D02*
D03*
X106835D02*
D03*
D85*
X265260Y10890D02*
D03*
X10850Y45733D02*
D03*
X284354Y327410D02*
D03*
D86*
X62563Y114119D02*
D03*
X329764Y24685D02*
D03*
X319488Y24882D02*
D03*
X165732Y322977D02*
D03*
D87*
X333291Y321757D02*
D03*
X28567Y31875D02*
D03*
X28055Y344079D02*
D03*
X265496Y238253D02*
D03*
X263803Y257741D02*
D03*
X97071Y222544D02*
D03*
X166647Y81008D02*
D03*
X184039Y272662D02*
D03*
X160693Y238016D02*
D03*
X190457Y323174D02*
D03*
X163803Y271993D02*
D03*
X184709Y218961D02*
D03*
X320693Y329394D02*
D03*
X310181Y339512D02*
D03*
X199787Y334827D02*
D03*
X97228Y208449D02*
D03*
X79984Y308135D02*
D03*
X84905Y134473D02*
D03*
X27555Y326181D02*
D03*
X98842Y137072D02*
D03*
D88*
X60391Y47736D02*
D03*
X288591Y308136D02*
D03*
X12303Y334268D02*
D03*
X349570Y319126D02*
D03*
X12303Y19209D02*
D03*
D89*
X60378Y308174D02*
D03*
X288591Y47736D02*
D03*
D90*
X174490Y177979D02*
D03*
D91*
X349606Y29052D02*
D03*
D92*
X308212Y155969D02*
D03*
D93*
Y145969D02*
D03*
Y135969D02*
D03*
D94*
X329590Y59040D02*
D03*
X319590D02*
D03*
X329590Y69040D02*
D03*
X319590D02*
D03*
X329590Y79040D02*
D03*
X319590D02*
D03*
X329590Y89040D02*
D03*
X319590D02*
D03*
X329590Y99040D02*
D03*
X319590D02*
D03*
X329590Y109040D02*
D03*
X319590D02*
D03*
X329590Y119040D02*
D03*
X319590D02*
D03*
X329590Y129040D02*
D03*
X319590D02*
D03*
X329590Y139040D02*
D03*
X319590D02*
D03*
X329590Y149040D02*
D03*
X319590D02*
D03*
X329590Y159040D02*
D03*
X319590D02*
D03*
X329590Y169040D02*
D03*
X319590D02*
D03*
X329590Y179040D02*
D03*
X319590D02*
D03*
X329590Y189040D02*
D03*
X319590D02*
D03*
X329590Y199040D02*
D03*
X319590D02*
D03*
X329590Y209040D02*
D03*
X319590D02*
D03*
X329590Y219040D02*
D03*
X319590Y218942D02*
D03*
X329590Y229040D02*
D03*
X319590D02*
D03*
X329590Y239040D02*
D03*
X319590D02*
D03*
X329590Y249040D02*
D03*
X319590D02*
D03*
X329590Y259040D02*
D03*
X319590D02*
D03*
X329590Y269040D02*
D03*
X319590D02*
D03*
X329590Y279040D02*
D03*
X319590D02*
D03*
X329590Y289040D02*
D03*
X319590D02*
D03*
X329590Y299040D02*
D03*
X319590Y49040D02*
D03*
X329590D02*
D03*
X349590D02*
D03*
X339590D02*
D03*
X349590Y299040D02*
D03*
X339590Y289040D02*
D03*
X349590D02*
D03*
X339590Y279040D02*
D03*
X349590D02*
D03*
X339590Y269040D02*
D03*
X349590D02*
D03*
X339571Y259040D02*
D03*
X349590D02*
D03*
X339571Y249040D02*
D03*
X349590D02*
D03*
X339590Y239040D02*
D03*
X349590D02*
D03*
X339590Y229040D02*
D03*
X349590D02*
D03*
X339590Y218942D02*
D03*
X349590Y219040D02*
D03*
X339590Y209040D02*
D03*
X349590D02*
D03*
X339590Y199040D02*
D03*
X349590D02*
D03*
X339590Y189040D02*
D03*
X349590D02*
D03*
X339590Y179040D02*
D03*
X349590D02*
D03*
X339590Y169040D02*
D03*
X349590D02*
D03*
X339590Y159040D02*
D03*
X349590D02*
D03*
X339590Y149040D02*
D03*
X349590D02*
D03*
X339590Y139040D02*
D03*
X349590D02*
D03*
X339590Y129040D02*
D03*
X349590D02*
D03*
X339590Y119040D02*
D03*
X349590D02*
D03*
X339590Y109040D02*
D03*
X349590D02*
D03*
X339590Y99040D02*
D03*
X349590D02*
D03*
X339590Y89040D02*
D03*
X349590D02*
D03*
X339590Y79040D02*
D03*
X349590D02*
D03*
X339590Y69040D02*
D03*
X349590D02*
D03*
X339590Y59040D02*
D03*
X349590D02*
D03*
X70417Y131402D02*
D03*
X60417Y141402D02*
D03*
X70417D02*
D03*
X60417Y151402D02*
D03*
X70417D02*
D03*
X60417Y161402D02*
D03*
X70417D02*
D03*
X60417Y171402D02*
D03*
X70417D02*
D03*
D95*
X319590Y299040D02*
D03*
X339571D02*
D03*
X60417Y131402D02*
D03*
D96*
X243252Y60851D02*
D03*
X89512Y54906D02*
D03*
X96047D02*
D03*
X166165Y59741D02*
D03*
Y53091D02*
D03*
Y46442D02*
D03*
X131441Y163646D02*
D03*
X125181D02*
D03*
X136913D02*
D03*
X136874Y158607D02*
D03*
X125654D02*
D03*
X131264D02*
D03*
X249157Y288646D02*
D03*
X249590Y60851D02*
D03*
Y48961D02*
D03*
X243252D02*
D03*
X96047Y60851D02*
D03*
X89512D02*
D03*
X96047Y48961D02*
D03*
X89512D02*
D03*
X249590Y54906D02*
D03*
X243252D02*
D03*
X255063Y300457D02*
D03*
X249157D02*
D03*
Y294552D02*
D03*
X255063D02*
D03*
X254747Y288960D02*
D03*
D140*
X119902Y303461D02*
D03*
Y300902D02*
D03*
Y298343D02*
D03*
Y295784D02*
D03*
X103957Y303461D02*
D03*
Y300902D02*
D03*
Y298343D02*
D03*
Y295784D02*
D03*
X19516Y250312D02*
D03*
Y252871D02*
D03*
Y255430D02*
D03*
Y257989D02*
D03*
X35461Y252871D02*
D03*
Y255430D02*
D03*
Y257989D02*
D03*
Y250312D02*
D03*
X102421Y249760D02*
D03*
Y252320D02*
D03*
Y254878D02*
D03*
Y257438D02*
D03*
X118366Y249760D02*
D03*
Y252320D02*
D03*
Y254878D02*
D03*
Y257438D02*
D03*
X172819Y249001D02*
D03*
Y251560D02*
D03*
Y254119D02*
D03*
Y256678D02*
D03*
X188764Y249001D02*
D03*
Y251560D02*
D03*
Y254119D02*
D03*
Y256678D02*
D03*
X17894Y296690D02*
D03*
Y299249D02*
D03*
Y301808D02*
D03*
Y304367D02*
D03*
X33838Y296690D02*
D03*
Y299249D02*
D03*
Y301808D02*
D03*
Y304367D02*
D03*
X173685Y295575D02*
D03*
Y298134D02*
D03*
Y300693D02*
D03*
Y303253D02*
D03*
X189630Y295575D02*
D03*
Y298134D02*
D03*
Y300693D02*
D03*
Y303253D02*
D03*
D141*
X235505Y6502D02*
D03*
X242798D02*
D03*
X170684Y98437D02*
D03*
X69985Y31270D02*
D03*
Y25770D02*
D03*
X242711Y22465D02*
D03*
Y16965D02*
D03*
X170684Y109264D02*
D03*
Y114764D02*
D03*
X162308Y98641D02*
D03*
X235417Y22465D02*
D03*
Y16965D02*
D03*
X300168Y233837D02*
D03*
X286283Y217235D02*
D03*
Y222735D02*
D03*
X307346Y233837D02*
D03*
X46475Y220348D02*
D03*
Y214848D02*
D03*
X293226Y222735D02*
D03*
Y217235D02*
D03*
X254591Y335793D02*
D03*
Y330293D02*
D03*
X307386Y222735D02*
D03*
Y217235D02*
D03*
X161820Y340368D02*
D03*
Y334868D02*
D03*
X156327D02*
D03*
Y340368D02*
D03*
X300339Y217707D02*
D03*
Y223207D02*
D03*
X249374Y330293D02*
D03*
Y335793D02*
D03*
X293226Y233837D02*
D03*
X46303Y337144D02*
D03*
Y331644D02*
D03*
X286283Y233837D02*
D03*
X110023Y339782D02*
D03*
Y334282D02*
D03*
X70024Y15185D02*
D03*
X41126Y332105D02*
D03*
Y326605D02*
D03*
X41259Y214848D02*
D03*
Y220348D02*
D03*
X162308Y114967D02*
D03*
Y109467D02*
D03*
X105378Y333837D02*
D03*
Y328337D02*
D03*
D142*
X235505Y12002D02*
D03*
X242798D02*
D03*
X170684Y103937D02*
D03*
X162308Y104141D02*
D03*
X300168Y228337D02*
D03*
X307346D02*
D03*
X293226D02*
D03*
X286283D02*
D03*
X70024Y20685D02*
D03*
D143*
X238764Y261245D02*
D03*
X246087D02*
D03*
X253212Y119394D02*
D03*
X260535D02*
D03*
X249433Y216323D02*
D03*
X256756D02*
D03*
D144*
X12701Y256245D02*
D03*
Y250733D02*
D03*
X167508Y339985D02*
D03*
Y334473D02*
D03*
X243409Y330084D02*
D03*
Y335596D02*
D03*
X35294Y214639D02*
D03*
Y220151D02*
D03*
X51992Y337386D02*
D03*
Y331875D02*
D03*
X216677Y173567D02*
D03*
Y179079D02*
D03*
X193370Y336205D02*
D03*
Y341717D02*
D03*
X95378Y255694D02*
D03*
Y250182D02*
D03*
X115220Y339985D02*
D03*
Y334473D02*
D03*
X136795Y114316D02*
D03*
Y108804D02*
D03*
X111126Y108990D02*
D03*
Y114501D02*
D03*
X77346Y333646D02*
D03*
Y339158D02*
D03*
X275299Y217347D02*
D03*
Y222859D02*
D03*
X58134Y254001D02*
D03*
Y259512D02*
D03*
X139748Y338292D02*
D03*
Y343804D02*
D03*
X11835Y302623D02*
D03*
Y297111D02*
D03*
X294827Y199945D02*
D03*
Y194434D02*
D03*
X267858Y217505D02*
D03*
Y223016D02*
D03*
X163877Y254934D02*
D03*
Y249422D02*
D03*
X254512Y233568D02*
D03*
Y239079D02*
D03*
X59472Y240379D02*
D03*
Y234867D02*
D03*
X166795Y301520D02*
D03*
Y296008D02*
D03*
X97071Y301914D02*
D03*
Y296402D02*
D03*
D145*
X196248Y257197D02*
D03*
X199988D02*
D03*
X196150Y243615D02*
D03*
X199890D02*
D03*
X125850Y257957D02*
D03*
X129590D02*
D03*
X125752Y244375D02*
D03*
X129492D02*
D03*
X197114Y303772D02*
D03*
X200854D02*
D03*
X197016Y290190D02*
D03*
X200756D02*
D03*
X41480Y304886D02*
D03*
X45220D02*
D03*
X41382Y291304D02*
D03*
X45122D02*
D03*
X127386Y303981D02*
D03*
X131126D02*
D03*
X127287Y290398D02*
D03*
X131027D02*
D03*
X42946Y258508D02*
D03*
X46686D02*
D03*
X42847Y244926D02*
D03*
X46587D02*
D03*
D146*
X301559Y202190D02*
D03*
Y194867D02*
D03*
X275299Y104867D02*
D03*
Y97544D02*
D03*
X209984Y176363D02*
D03*
Y183686D02*
D03*
X216874Y89670D02*
D03*
Y82347D02*
D03*
D147*
X174197Y150654D02*
D03*
D148*
Y141993D02*
D03*
D149*
X200496Y277898D02*
D03*
X130850Y279316D02*
D03*
X200024Y230890D02*
D03*
X46362Y232623D02*
D03*
X129669Y231323D02*
D03*
X44984Y276481D02*
D03*
D150*
X191835Y277898D02*
D03*
X122189Y279316D02*
D03*
X191362Y230890D02*
D03*
X37701Y232623D02*
D03*
X121008Y231323D02*
D03*
X36323Y276481D02*
D03*
D151*
X132346Y338768D02*
D03*
X121323Y342509D02*
D03*
Y335028D02*
D03*
Y338768D02*
D03*
X132346Y335028D02*
D03*
Y342509D02*
D03*
X185146Y338505D02*
D03*
X174123Y342245D02*
D03*
Y334764D02*
D03*
Y338505D02*
D03*
X185146Y334764D02*
D03*
Y342245D02*
D03*
X17661Y214512D02*
D03*
X28685Y210772D02*
D03*
Y218253D02*
D03*
Y214512D02*
D03*
X17661Y218253D02*
D03*
Y210772D02*
D03*
X225260Y332347D02*
D03*
X236283Y328607D02*
D03*
Y336087D02*
D03*
Y332347D02*
D03*
X225260Y336087D02*
D03*
Y328607D02*
D03*
X68803Y336087D02*
D03*
X57780Y339827D02*
D03*
Y332347D02*
D03*
Y336087D02*
D03*
X68803Y332347D02*
D03*
Y339827D02*
D03*
D152*
X201976Y163473D02*
D03*
X207126Y168623D02*
D03*
D153*
X203039Y155198D02*
D03*
X208189Y150048D02*
D03*
D154*
X236362Y71048D02*
D03*
Y73607D02*
D03*
Y76166D02*
D03*
Y78725D02*
D03*
Y81284D02*
D03*
Y83843D02*
D03*
Y86402D02*
D03*
Y88961D02*
D03*
Y91520D02*
D03*
Y94079D02*
D03*
Y96638D02*
D03*
Y99197D02*
D03*
Y101757D02*
D03*
Y104316D02*
D03*
X259197Y71048D02*
D03*
Y73607D02*
D03*
Y76166D02*
D03*
Y78725D02*
D03*
Y81284D02*
D03*
Y83843D02*
D03*
Y86402D02*
D03*
Y88961D02*
D03*
Y91520D02*
D03*
Y94079D02*
D03*
Y96638D02*
D03*
Y99197D02*
D03*
Y101757D02*
D03*
Y104316D02*
D03*
D155*
X120516Y186087D02*
D03*
Y182347D02*
D03*
X106933Y186186D02*
D03*
Y182446D02*
D03*
X66185Y234690D02*
D03*
Y238430D02*
D03*
X79768Y234591D02*
D03*
Y238331D02*
D03*
D156*
X192228Y17701D02*
D03*
Y33056D02*
D03*
D157*
X71421Y261776D02*
D03*
X73980D02*
D03*
X76539D02*
D03*
X79098D02*
D03*
X71421Y245831D02*
D03*
X73980D02*
D03*
X76539D02*
D03*
X79098D02*
D03*
D158*
X123016Y169197D02*
D03*
Y170772D02*
D03*
Y172347D02*
D03*
Y173922D02*
D03*
Y175497D02*
D03*
Y177071D02*
D03*
Y167623D02*
D03*
X103724Y177071D02*
D03*
Y175497D02*
D03*
Y173922D02*
D03*
Y167623D02*
D03*
Y169197D02*
D03*
Y170772D02*
D03*
Y172347D02*
D03*
D159*
X113272Y172347D02*
D03*
D160*
X227642Y190221D02*
D03*
Y188253D02*
D03*
Y186284D02*
D03*
Y184316D02*
D03*
Y182347D02*
D03*
Y180378D02*
D03*
Y178410D02*
D03*
Y176442D02*
D03*
Y174473D02*
D03*
Y172504D02*
D03*
Y170536D02*
D03*
Y168568D02*
D03*
Y166599D02*
D03*
Y164630D02*
D03*
Y162662D02*
D03*
Y160694D02*
D03*
Y158725D02*
D03*
Y156756D02*
D03*
Y154788D02*
D03*
Y152820D02*
D03*
Y150851D02*
D03*
Y148882D02*
D03*
Y146914D02*
D03*
Y144946D02*
D03*
Y142977D02*
D03*
X287287D02*
D03*
Y144946D02*
D03*
Y146914D02*
D03*
Y148882D02*
D03*
Y150851D02*
D03*
Y152820D02*
D03*
Y154788D02*
D03*
Y156756D02*
D03*
Y158725D02*
D03*
Y160694D02*
D03*
Y162662D02*
D03*
Y164630D02*
D03*
Y166599D02*
D03*
Y168568D02*
D03*
Y170536D02*
D03*
Y172504D02*
D03*
Y174473D02*
D03*
Y176442D02*
D03*
Y178410D02*
D03*
Y180378D02*
D03*
Y182347D02*
D03*
Y184316D02*
D03*
Y186284D02*
D03*
Y188253D02*
D03*
Y190221D02*
D03*
D161*
X233842Y136776D02*
D03*
X235811D02*
D03*
X237779D02*
D03*
X239748D02*
D03*
X241716D02*
D03*
X243685D02*
D03*
X245654D02*
D03*
X247622D02*
D03*
X249590D02*
D03*
X251559D02*
D03*
X253527D02*
D03*
X255496D02*
D03*
X257465D02*
D03*
X259433D02*
D03*
X261402D02*
D03*
X263370D02*
D03*
X265338D02*
D03*
X267307D02*
D03*
X269275D02*
D03*
X271244D02*
D03*
X273213D02*
D03*
X275181D02*
D03*
X277150D02*
D03*
X279118D02*
D03*
X281086D02*
D03*
Y196422D02*
D03*
X279118D02*
D03*
X277150D02*
D03*
X275181D02*
D03*
X273213D02*
D03*
X271244D02*
D03*
X269275D02*
D03*
X267307D02*
D03*
X265338D02*
D03*
X263370D02*
D03*
X261402D02*
D03*
X259433D02*
D03*
X257465D02*
D03*
X255496D02*
D03*
X253527D02*
D03*
X251559D02*
D03*
X249590D02*
D03*
X247622D02*
D03*
X245654D02*
D03*
X243685D02*
D03*
X241716D02*
D03*
X239748D02*
D03*
X237779D02*
D03*
X235811D02*
D03*
X233842D02*
D03*
D162*
X261913Y210930D02*
D03*
X269787D02*
D03*
D163*
X217300Y159370D02*
D03*
X211732Y164938D02*
D03*
X206999Y160206D02*
D03*
X212428Y154499D02*
D03*
D164*
X188646Y113469D02*
D03*
Y120753D02*
D03*
D165*
X247405Y226245D02*
D03*
X242405D02*
D03*
X237405D02*
D03*
X232405D02*
D03*
X247405Y245142D02*
D03*
X242405D02*
D03*
X237405D02*
D03*
X232405D02*
D03*
M02*
