G04*
G04 #@! TF.GenerationSoftware,Altium Limited,Altium Designer,18.1.7 (191)*
G04*
G04 Layer_Color=16711935*
%FSLAX25Y25*%
%MOIN*%
G70*
G01*
G75*
%ADD11C,0.01000*%
%ADD174C,0.00600*%
D11*
X369370Y49050D02*
X371370D01*
X369370Y29026D02*
X371370D01*
X370370Y49050D02*
X372370Y55050D01*
X368370D02*
X370370Y49050D01*
Y29026D02*
X372370Y23026D01*
X368370D02*
X370370Y29026D01*
Y49050D02*
Y59050D01*
Y19026D02*
Y29026D01*
X377170Y319126D02*
X379170D01*
X377170Y299102D02*
X379170D01*
X378170Y319126D02*
X380170Y325126D01*
X376170D02*
X378170Y319126D01*
Y299102D02*
X380170Y293102D01*
X376170D02*
X378170Y299102D01*
Y319126D02*
Y329126D01*
Y289102D02*
Y299102D01*
D174*
X378768Y15445D02*
Y11447D01*
X381767D01*
X380767Y13446D01*
Y14446D01*
X381767Y15445D01*
X383766D01*
X384766Y14446D01*
Y12446D01*
X383766Y11447D01*
X384766Y17445D02*
X383766D01*
Y18444D01*
X384766D01*
Y17445D01*
X379768Y22443D02*
X378768Y23443D01*
Y25442D01*
X379768Y26442D01*
X383766D01*
X384766Y25442D01*
Y23443D01*
X383766Y22443D01*
X379768D01*
Y28441D02*
X378768Y29441D01*
Y31440D01*
X379768Y32440D01*
X380767D01*
X381767Y31440D01*
X382767Y32440D01*
X383766D01*
X384766Y31440D01*
Y29441D01*
X383766Y28441D01*
X382767D01*
X381767Y29441D01*
X380767Y28441D01*
X379768D01*
X381767Y29441D02*
Y31440D01*
X378768Y38438D02*
X379768Y36439D01*
X381767Y34439D01*
X383766D01*
X384766Y35439D01*
Y37438D01*
X383766Y38438D01*
X382767D01*
X381767Y37438D01*
Y34439D01*
X384766Y48435D02*
X382767Y46435D01*
X380767D01*
X378768Y48435D01*
X384766Y51434D02*
X380767D01*
Y52433D01*
X381767Y53433D01*
X384766D01*
X381767D01*
X380767Y54433D01*
X381767Y55432D01*
X384766D01*
Y57432D02*
X380767D01*
Y58431D01*
X381767Y59431D01*
X384766D01*
X381767D01*
X380767Y60431D01*
X381767Y61430D01*
X384766D01*
Y63430D02*
X382767Y65429D01*
X380767D01*
X378768Y63430D01*
X386568Y285521D02*
Y281522D01*
X389567D01*
X388567Y283522D01*
Y284522D01*
X389567Y285521D01*
X391566D01*
X392566Y284522D01*
Y282522D01*
X391566Y281522D01*
X392566Y287521D02*
X391566D01*
Y288520D01*
X392566D01*
Y287521D01*
X387568Y292519D02*
X386568Y293519D01*
Y295518D01*
X387568Y296518D01*
X391566D01*
X392566Y295518D01*
Y293519D01*
X391566Y292519D01*
X387568D01*
Y298517D02*
X386568Y299517D01*
Y301516D01*
X387568Y302516D01*
X388567D01*
X389567Y301516D01*
X390567Y302516D01*
X391566D01*
X392566Y301516D01*
Y299517D01*
X391566Y298517D01*
X390567D01*
X389567Y299517D01*
X388567Y298517D01*
X387568D01*
X389567Y299517D02*
Y301516D01*
X386568Y308514D02*
X387568Y306514D01*
X389567Y304515D01*
X391566D01*
X392566Y305515D01*
Y307514D01*
X391566Y308514D01*
X390567D01*
X389567Y307514D01*
Y304515D01*
X392566Y318511D02*
X390567Y316511D01*
X388567D01*
X386568Y318511D01*
X392566Y321510D02*
X388567D01*
Y322509D01*
X389567Y323509D01*
X392566D01*
X389567D01*
X388567Y324509D01*
X389567Y325508D01*
X392566D01*
Y327508D02*
X388567D01*
Y328507D01*
X389567Y329507D01*
X392566D01*
X389567D01*
X388567Y330507D01*
X389567Y331506D01*
X392566D01*
Y333506D02*
X390567Y335505D01*
X388567D01*
X386568Y333506D01*
M02*
