G04*
G04 #@! TF.GenerationSoftware,Altium Limited,Altium Designer,18.1.7 (191)*
G04*
G04 Layer_Color=32768*
%FSLAX25Y25*%
%MOIN*%
G70*
G01*
G75*
%ADD11C,0.01000*%
%ADD15C,0.00394*%
%ADD176C,0.01181*%
%ADD178C,0.00300*%
D11*
X236548Y64158D02*
G03*
X236548Y64158I-1367J0D01*
G01*
X194907Y299749D02*
G03*
X194907Y299749I-1556J0D01*
G01*
X90778Y328430D02*
G03*
X90778Y328430I-1699J0D01*
G01*
X195064Y248552D02*
G03*
X195064Y248552I-1556J0D01*
G01*
X38730Y151264D02*
G03*
X38730Y151264I-1699J0D01*
G01*
X82848Y63056D02*
G03*
X82848Y63056I-1367J0D01*
G01*
X248481Y149237D02*
G03*
X248481Y149237I-1367J0D01*
G01*
X38730Y225871D02*
G03*
X38730Y225871I-1699J0D01*
G01*
X139462Y172780D02*
G03*
X139462Y172780I-1367J0D01*
G01*
X228981Y315831D02*
G03*
X228981Y315831I-1556J0D01*
G01*
X260359D02*
G03*
X260359Y315831I-1556J0D01*
G01*
X195064Y195772D02*
G03*
X195064Y195772I-1556J0D01*
G01*
X264383Y286678D02*
G03*
X264383Y286678I-1367J0D01*
G01*
X199912Y23230D02*
G03*
X199912Y23230I-1699J0D01*
G01*
X39119Y81757D02*
G03*
X39119Y81757I-1556J0D01*
G01*
X25538Y77598D02*
G03*
X25538Y77598I-1699J0D01*
G01*
X38730Y176133D02*
G03*
X38730Y176133I-1699J0D01*
G01*
X39080Y104630D02*
G03*
X39080Y104630I-1556J0D01*
G01*
X38730Y201002D02*
G03*
X38730Y201002I-1699J0D01*
G01*
X159147Y64158D02*
G03*
X159147Y64158I-1367J0D01*
G01*
X266368Y23230D02*
G03*
X266368Y23230I-1699J0D01*
G01*
X38730Y250740D02*
G03*
X38730Y250740I-1699J0D01*
G01*
Y275608D02*
G03*
X38730Y275608I-1699J0D01*
G01*
Y300477D02*
G03*
X38730Y300477I-1699J0D01*
G01*
X41526Y23229D02*
G03*
X41526Y23229I-1699J0D01*
G01*
X97368Y23230D02*
G03*
X97368Y23230I-1699J0D01*
G01*
X143431Y23131D02*
G03*
X143431Y23131I-1699J0D01*
G01*
X256620Y215034D02*
X259423D01*
X256620Y173634D02*
Y215034D01*
Y173634D02*
X308120D01*
X259423Y215034D02*
X308120D01*
Y173634D02*
Y215034D01*
X262740Y46835D02*
Y66914D01*
X262642Y66816D02*
X262740Y66914D01*
X230752Y47229D02*
X231146Y46835D01*
X262740D01*
X230949Y66816D02*
X262642D01*
X230752Y66619D02*
X230949Y66816D01*
X230752Y47229D02*
Y66619D01*
X101735Y220634D02*
Y236830D01*
Y185230D02*
Y220634D01*
Y185230D02*
X158535D01*
X101735Y236830D02*
X158535D01*
Y185230D02*
Y236830D01*
X263488Y154985D02*
X265752D01*
X263488D02*
Y166501D01*
X265752Y154985D02*
X290161D01*
X263488Y166501D02*
X290161D01*
Y154985D02*
Y166501D01*
X265161Y155280D02*
Y166205D01*
X33764Y349493D02*
X99708D01*
X33764Y325477D02*
X99315D01*
X33764D02*
Y349493D01*
X99315Y325477D02*
Y349591D01*
X151933Y30536D02*
Y37229D01*
X151638Y37524D02*
X151933Y37229D01*
X131657Y37524D02*
X151638D01*
X131460Y37327D02*
X131657Y37524D01*
X131460Y30831D02*
Y37327D01*
Y30831D02*
X131756Y30536D01*
X151933D01*
X152248Y122229D02*
Y128922D01*
X151953Y129217D02*
X152248Y128922D01*
X131972Y129217D02*
X151953D01*
X131775Y129020D02*
X131972Y129217D01*
X131775Y122524D02*
Y129020D01*
Y122524D02*
X132071Y122229D01*
X152248D01*
X71795Y275418D02*
X74059D01*
X71795D02*
Y286934D01*
X74059Y275418D02*
X98468D01*
X71795Y286934D02*
X98468D01*
Y275418D02*
Y286934D01*
X73468Y275713D02*
Y286638D01*
X210457Y309847D02*
X217149D01*
X210161Y309552D02*
X210457Y309847D01*
X210161Y289571D02*
Y309552D01*
Y289571D02*
X210358Y289375D01*
X216854D01*
X217149Y289670D01*
Y309847D01*
X172294Y112085D02*
X213694D01*
Y160783D01*
X172294Y112085D02*
Y163585D01*
X213694D01*
Y160783D02*
Y163585D01*
X71323Y288764D02*
X73586D01*
X71323D02*
Y300280D01*
X73586Y288764D02*
X97996D01*
X71323Y300280D02*
X97996D01*
Y288764D02*
Y300280D01*
X72996Y289060D02*
Y299985D01*
X303193Y130969D02*
X313331D01*
Y160792D01*
X313134Y160989D02*
X313331Y160792D01*
X303193Y160989D02*
X313134D01*
X303193Y130969D02*
Y160989D01*
X1697Y172426D02*
X47268D01*
X1697Y148312D02*
X47268D01*
X1697D02*
Y172426D01*
X47268Y148312D02*
Y172426D01*
X109039Y45733D02*
Y65812D01*
X108941Y65713D02*
X109039Y65812D01*
X77051Y46127D02*
X77445Y45733D01*
X109039D01*
X77248Y65713D02*
X108941D01*
X77051Y65516D02*
X77248Y65713D01*
X77051Y46127D02*
Y65516D01*
X274672Y131914D02*
Y151993D01*
X274574Y151894D02*
X274672Y151993D01*
X242684Y132308D02*
X243078Y131914D01*
X274672D01*
X242881Y151894D02*
X274574D01*
X242684Y151698D02*
X242881Y151894D01*
X242684Y132308D02*
Y151698D01*
X175693Y71717D02*
X177957D01*
X175693D02*
Y83233D01*
X177957Y71717D02*
X202366D01*
X175693Y83233D02*
X202366D01*
Y71717D02*
Y83233D01*
X177366Y72012D02*
Y82938D01*
X223429Y73883D02*
Y80575D01*
Y73883D02*
X223724Y73587D01*
X243705D01*
X243901Y73784D01*
Y80280D01*
X243606Y80575D02*
X243901Y80280D01*
X223429Y80575D02*
X243606D01*
X290968Y126422D02*
X297661D01*
X297957Y126717D01*
Y146697D01*
X297760Y146894D02*
X297957Y146697D01*
X291264Y146894D02*
X297760D01*
X290968Y146599D02*
X291264Y146894D01*
X290968Y126422D02*
Y146599D01*
X1697Y247032D02*
X47267D01*
X1697Y222918D02*
X47267D01*
X1697D02*
Y247032D01*
X47267Y222918D02*
Y247032D01*
X120772Y145221D02*
X140850D01*
X140752Y145319D02*
X140850Y145221D01*
X120772Y176816D02*
X121165Y177209D01*
X120772Y145221D02*
Y176816D01*
X140752Y145319D02*
Y177012D01*
X140555Y177209D02*
X140752Y177012D01*
X121165Y177209D02*
X140555D01*
X227445Y194197D02*
Y200890D01*
Y194197D02*
X227740Y193902D01*
X247720D01*
X247917Y194099D01*
Y200595D01*
X247622Y200890D02*
X247917Y200595D01*
X227445Y200890D02*
X247622D01*
X249256Y120379D02*
X269433D01*
X269728Y120083D01*
Y113587D02*
Y120083D01*
X269531Y113390D02*
X269728Y113587D01*
X249551Y113390D02*
X269531D01*
X249256Y113686D02*
X249551Y113390D01*
X249256Y113686D02*
Y120379D01*
X251913Y71717D02*
X254177D01*
X251913D02*
Y83233D01*
X254177Y71717D02*
X278587D01*
X251913Y83233D02*
X278587D01*
Y71717D02*
Y83233D01*
X253587Y72012D02*
Y82938D01*
X298606Y246973D02*
X305299D01*
X305594Y247268D01*
Y267249D01*
X305398Y267445D02*
X305594Y267249D01*
X298902Y267445D02*
X305398D01*
X298606Y267150D02*
X298902Y267445D01*
X298606Y246973D02*
Y267150D01*
X242484Y271028D02*
Y281953D01*
X221027Y271028D02*
Y282347D01*
Y271028D02*
X221224Y270831D01*
X243468D01*
X243567Y270930D01*
X221027Y282347D02*
X243468D01*
X243567Y282249D01*
Y270930D02*
Y282249D01*
X204446Y226708D02*
Y268108D01*
Y226708D02*
X253144D01*
X204446Y268108D02*
X255946D01*
Y226708D02*
Y268108D01*
X253144Y226708D02*
X255946D01*
X235457Y283922D02*
Y304001D01*
Y283922D02*
X235555Y284020D01*
X267051Y304001D02*
X267445Y303607D01*
X235457Y304001D02*
X267051D01*
X235555Y284020D02*
X267248D01*
X267445Y284217D01*
Y303607D01*
X187583Y2166D02*
X253527D01*
X187976Y26182D02*
X253527D01*
Y2166D02*
Y26182D01*
X187976Y2068D02*
Y26182D01*
X3071Y87835D02*
X26791D01*
X2776Y87539D02*
X3071Y87835D01*
X2776Y32224D02*
Y87539D01*
X26791Y32224D02*
Y87835D01*
X2776Y32224D02*
X26791D01*
X1697Y197294D02*
X47268D01*
X1697Y173180D02*
X47268D01*
X1697D02*
Y197294D01*
X47268Y173180D02*
Y197294D01*
X101735Y329531D02*
Y345727D01*
Y294127D02*
Y329531D01*
Y294127D02*
X158535D01*
X101735Y345727D02*
X158535D01*
Y294127D02*
Y345727D01*
X228744Y39591D02*
Y46284D01*
X228449Y46579D02*
X228744Y46284D01*
X208468Y46579D02*
X228449D01*
X208272Y46382D02*
X208468Y46579D01*
X208272Y39886D02*
Y46382D01*
Y39886D02*
X208567Y39591D01*
X228744D01*
X1697Y222163D02*
X47268D01*
X1697Y198049D02*
X47268D01*
X1697D02*
Y222163D01*
X47268Y198049D02*
Y222163D01*
X306244Y66107D02*
X312937D01*
X305949Y65812D02*
X306244Y66107D01*
X305949Y45831D02*
Y65812D01*
Y45831D02*
X306146Y45634D01*
X312642D01*
X312937Y45930D01*
Y66107D01*
X151933Y39591D02*
Y46284D01*
X151638Y46579D02*
X151933Y46284D01*
X131657Y46579D02*
X151638D01*
X131460Y46382D02*
X131657Y46579D01*
X131460Y39886D02*
Y46382D01*
Y39886D02*
X131756Y39591D01*
X151933D01*
X185338Y46835D02*
Y66914D01*
X185240Y66816D02*
X185338Y66914D01*
X153350Y47229D02*
X153744Y46835D01*
X185338D01*
X153547Y66816D02*
X185240D01*
X153350Y66619D02*
X153547Y66816D01*
X153350Y47229D02*
Y66619D01*
X254039Y2166D02*
X319984D01*
X254433Y26182D02*
X319984D01*
Y2166D02*
Y26182D01*
X254433Y2068D02*
Y26182D01*
X71795Y260300D02*
X74059D01*
X71795D02*
Y271816D01*
X74059Y260300D02*
X98468D01*
X71795Y271816D02*
X98468D01*
Y260300D02*
Y271816D01*
X73468Y260595D02*
Y271520D01*
X1697Y271901D02*
X47268D01*
X1697Y247787D02*
X47268D01*
X1697D02*
Y271901D01*
X47268Y247787D02*
Y271901D01*
X1697Y296770D02*
X47268D01*
X1697Y272656D02*
X47268D01*
X1697D02*
Y296770D01*
X47268Y272656D02*
Y296770D01*
X157976Y153115D02*
Y155379D01*
X169492D01*
X157976Y128705D02*
Y153115D01*
X169492Y128705D02*
Y155379D01*
X157976Y128705D02*
X169492D01*
X158272Y153705D02*
X169197D01*
X1697Y321638D02*
X47268D01*
X1697Y297524D02*
X47268D01*
X1697D02*
Y321638D01*
X47268Y297524D02*
Y321638D01*
X29590Y2462D02*
Y26182D01*
Y2462D02*
X29886Y2166D01*
X85201D01*
X29590Y26182D02*
X85201D01*
Y2166D02*
Y26182D01*
X101735Y275319D02*
Y291515D01*
Y239915D02*
Y275319D01*
Y239915D02*
X158535D01*
X101735Y291515D02*
X158535D01*
Y239915D02*
Y291515D01*
X142642Y84473D02*
Y91166D01*
Y84473D02*
X142937Y84178D01*
X162917D01*
X163114Y84375D01*
Y90871D01*
X162819Y91166D02*
X163114Y90871D01*
X142642Y91166D02*
X162819D01*
X85433Y2068D02*
Y26182D01*
X131004Y2068D02*
Y26182D01*
X85433D02*
X131004D01*
X85433Y2068D02*
X131004D01*
X187106D02*
Y26084D01*
X131496D02*
X187106D01*
X131791Y2068D02*
X187106D01*
X131496Y2363D02*
X131791Y2068D01*
X131496Y2363D02*
Y26084D01*
X105427Y154901D02*
X103094D01*
Y153152D01*
X104261D01*
X103094D01*
Y151402D01*
X106593Y154901D02*
Y151402D01*
X108343D01*
X108926Y151985D01*
Y154318D01*
X108343Y154901D01*
X106593D01*
X112425Y151402D02*
X110092D01*
X112425Y153735D01*
Y154318D01*
X111842Y154901D01*
X110675D01*
X110092Y154318D01*
X318340Y316909D02*
X316008D01*
Y315160D01*
X317174D01*
X316008D01*
Y313410D01*
X319507Y316909D02*
Y313410D01*
X321256D01*
X321839Y313993D01*
Y316326D01*
X321256Y316909D01*
X319507D01*
X323006Y316326D02*
X323589Y316909D01*
X324755D01*
X325338Y316326D01*
Y315743D01*
X324755Y315160D01*
X324172D01*
X324755D01*
X325338Y314576D01*
Y313993D01*
X324755Y313410D01*
X323589D01*
X323006Y313993D01*
X324301Y39798D02*
X321969D01*
Y38049D01*
X323135D01*
X321969D01*
Y36299D01*
X325467Y39798D02*
Y36299D01*
X327217D01*
X327800Y36882D01*
Y39215D01*
X327217Y39798D01*
X325467D01*
X330716Y36299D02*
Y39798D01*
X328966Y38049D01*
X331299D01*
D15*
X246402Y219217D02*
Y225418D01*
X228882D02*
X246402D01*
X228685Y219217D02*
X246402D01*
X228685D02*
Y225516D01*
X354670Y43600D02*
Y304820D01*
X314570D02*
X354670D01*
X314570Y43600D02*
Y304820D01*
Y43600D02*
X354670D01*
X40020Y45784D02*
Y57989D01*
X40216Y45587D02*
X46614D01*
Y57792D01*
X46417Y57989D02*
X46614Y57792D01*
X40020Y57989D02*
X46417D01*
X76697Y319335D02*
X88705D01*
Y314119D02*
Y319335D01*
X76697Y314119D02*
X88705D01*
X76697D02*
Y319335D01*
X225555Y113725D02*
X231854D01*
Y131442D01*
X225654Y113922D02*
Y131442D01*
X231854D01*
X163823Y317859D02*
X198173D01*
Y296796D02*
Y317859D01*
X163823Y296796D02*
X198173D01*
X163823D02*
Y317859D01*
X97405Y32485D02*
X109610D01*
X109807Y32682D02*
Y39079D01*
X97602D02*
X109807D01*
X97405Y38882D02*
X97602Y39079D01*
X97405Y32485D02*
Y38882D01*
X76854Y325674D02*
X88862D01*
Y320457D02*
Y325674D01*
X76854Y320457D02*
X88862D01*
X76854D02*
Y325674D01*
X163980Y266662D02*
X198331D01*
Y245599D02*
Y266662D01*
X163980Y245599D02*
X198331D01*
X163980D02*
Y266662D01*
X285614Y85064D02*
Y112130D01*
X253331D02*
X285614D01*
X253331Y85064D02*
Y112130D01*
Y85064D02*
X285614D01*
X119768Y60064D02*
X126067D01*
X119768Y42347D02*
Y60064D01*
X125968Y42347D02*
Y59867D01*
X119768Y42347D02*
X125968D01*
X283508Y334690D02*
X295712D01*
X283311Y328095D02*
Y334493D01*
Y328095D02*
X295516D01*
X295712Y328292D01*
Y334690D01*
X286323Y87367D02*
Y93666D01*
Y87367D02*
X304039D01*
X286520Y93568D02*
X304039D01*
Y87367D02*
Y93568D01*
X145594Y167564D02*
X150811D01*
Y179571D01*
X145594D02*
X150811D01*
X145594Y167564D02*
Y179571D01*
X302543Y231225D02*
Y237524D01*
X284827D02*
X302543D01*
X284827Y231323D02*
X302346D01*
X284827D02*
Y237524D01*
X222523Y80910D02*
Y86127D01*
X210516D02*
X222523D01*
X210516Y80910D02*
Y86127D01*
Y80910D02*
X222523D01*
X84571Y67564D02*
Y72780D01*
X72563D02*
X84571D01*
X72563Y67564D02*
Y72780D01*
Y67564D02*
X84571D01*
X209000Y87209D02*
Y93508D01*
Y87209D02*
X226716D01*
X209197Y93410D02*
X226716D01*
Y87209D02*
Y93410D01*
X160279Y67524D02*
Y72741D01*
X148272D02*
X160279D01*
X148272Y67524D02*
Y72741D01*
Y67524D02*
X160279D01*
X240791Y201501D02*
Y206717D01*
X228783D02*
X240791D01*
X228783Y201501D02*
Y206717D01*
Y201501D02*
X240791D01*
X247858Y325280D02*
X254256D01*
X247661Y325477D02*
X247858Y325280D01*
X247661Y325477D02*
Y337682D01*
X254059D01*
X254256Y325280D02*
Y337485D01*
X172720Y37603D02*
X184925D01*
X172523Y31008D02*
Y37406D01*
Y31008D02*
X184728D01*
X184925Y31205D01*
Y37603D01*
X276539Y134099D02*
X281756D01*
Y146107D01*
X276539D02*
X281756D01*
X276539Y134099D02*
Y146107D01*
X282894Y145945D02*
X289193D01*
X282894Y128228D02*
Y145945D01*
X289094Y128228D02*
Y145748D01*
X282894Y128228D02*
X289094D01*
X189300Y47406D02*
X198257D01*
X189202Y47504D02*
Y51245D01*
X198159D01*
X198257Y48366D02*
Y50187D01*
Y47455D02*
Y48366D01*
Y50187D02*
Y51097D01*
X30886Y57989D02*
X37284D01*
X37480Y57792D01*
Y45587D02*
Y57792D01*
X31083Y45587D02*
X37480D01*
X30886Y45784D02*
Y57989D01*
X251933Y154060D02*
Y159276D01*
X239925D02*
X251933D01*
X239925Y154060D02*
Y159276D01*
Y154060D02*
X251933D01*
X72366Y226805D02*
Y236549D01*
X72563Y236451D02*
X90181D01*
X72366Y226805D02*
X90181D01*
Y236451D01*
X156736Y92445D02*
Y97662D01*
X144728D02*
X156736D01*
X144728Y92445D02*
Y97662D01*
Y92445D02*
X156736D01*
X143488Y65044D02*
X148705D01*
X143488Y53036D02*
Y65044D01*
Y53036D02*
X148705D01*
Y65044D01*
X306067Y287312D02*
Y299516D01*
X299472Y299713D02*
X305870D01*
X299472Y287509D02*
Y299713D01*
Y287509D02*
X299669Y287312D01*
X306067D01*
X228646Y300280D02*
X233862D01*
X228646Y288272D02*
Y300280D01*
Y288272D02*
X233862D01*
Y300280D01*
X131779Y129838D02*
Y136137D01*
Y129838D02*
X149495D01*
X131975Y136038D02*
X149495D01*
Y129838D02*
Y136038D01*
X262169Y278174D02*
Y283390D01*
Y278174D02*
X274177D01*
Y283390D01*
X262169D02*
X274177D01*
X286362Y79847D02*
Y86146D01*
Y79847D02*
X304079D01*
X286559Y86048D02*
X304079D01*
Y79847D02*
Y86048D01*
X162071Y109572D02*
Y115772D01*
X144551D02*
X162071D01*
X144354Y109572D02*
X162071D01*
X144354D02*
Y115871D01*
X298468Y66382D02*
Y71599D01*
X286461D02*
X298468D01*
X286461Y66382D02*
Y71599D01*
Y66382D02*
X298468D01*
X72366Y237779D02*
Y247524D01*
X72563Y247425D02*
X90181D01*
X72366Y237779D02*
X90181D01*
Y247425D01*
X286362Y72406D02*
Y78705D01*
Y72406D02*
X304079D01*
X286559Y78607D02*
X304079D01*
Y72406D02*
Y78607D01*
X214728Y115201D02*
X224472D01*
X214827Y115398D02*
Y133016D01*
X224472Y115201D02*
Y133016D01*
X214827D02*
X224472D01*
X130575Y68922D02*
Y86441D01*
X102327D02*
X130575D01*
X102130Y68922D02*
X130575D01*
X102130D02*
Y86540D01*
X232197Y150162D02*
Y162367D01*
X225602Y162564D02*
X232000D01*
X225602Y150359D02*
Y162564D01*
Y150359D02*
X225799Y150162D01*
X232197D01*
X131680Y138056D02*
Y143272D01*
Y138056D02*
X143688D01*
Y143272D01*
X131680D02*
X143688D01*
X243862Y116028D02*
X249079D01*
Y128036D01*
X243862D02*
X249079D01*
X243862Y116028D02*
Y128036D01*
X245535Y311009D02*
Y345359D01*
X224472Y311009D02*
X245535D01*
X224472D02*
Y345359D01*
X245535D01*
X276913Y311009D02*
Y345359D01*
X255850Y311009D02*
X276913D01*
X255850D02*
Y345359D01*
X276913D01*
X209000Y94552D02*
Y100851D01*
Y94552D02*
X226716D01*
X209197Y100753D02*
X226716D01*
Y94552D02*
Y100753D01*
X264492Y46560D02*
X273449D01*
X264394Y46658D02*
Y50398D01*
X273350D01*
X273449Y47519D02*
Y49340D01*
Y46609D02*
Y47519D01*
Y49340D02*
Y50251D01*
X220555Y288764D02*
X226854D01*
Y306481D01*
X220654Y288961D02*
Y306481D01*
X226854D01*
X111028Y170792D02*
Y182997D01*
X111224Y170595D02*
X117622D01*
Y182800D01*
X117425Y182997D02*
X117622Y182800D01*
X111028Y182997D02*
X117425D01*
X228468Y207938D02*
Y217682D01*
X228665Y217583D02*
X246283D01*
X228468Y207938D02*
X246283D01*
Y217583D01*
X303153Y219611D02*
Y229355D01*
X285338Y219709D02*
X302957D01*
X285338Y229355D02*
X303153D01*
X285338Y219709D02*
Y229355D01*
X110791Y154886D02*
Y167091D01*
X110988Y154690D02*
X117386D01*
Y166894D01*
X117189Y167091D02*
X117386Y166894D01*
X110791Y167091D02*
X117189D01*
X306067Y270737D02*
Y282942D01*
X299472Y283138D02*
X305870D01*
X299472Y270934D02*
Y283138D01*
Y270934D02*
X299669Y270737D01*
X306067D01*
X287799Y243213D02*
Y248430D01*
Y243213D02*
X299807D01*
Y248430D01*
X287799D02*
X299807D01*
X208803Y66343D02*
X214020D01*
X208803Y54335D02*
Y66343D01*
Y54335D02*
X214020D01*
Y66343D01*
X163980Y213882D02*
X198331D01*
Y192819D02*
Y213882D01*
X163980Y192819D02*
X198331D01*
X163980D02*
Y213882D01*
X213843Y324296D02*
X220240D01*
X213646Y324493D02*
X213843Y324296D01*
X213646Y324493D02*
Y336698D01*
X220043D01*
X220240Y324296D02*
Y336501D01*
X232197Y134493D02*
Y146697D01*
X225602Y146894D02*
X232000D01*
X225602Y134690D02*
Y146894D01*
Y134690D02*
X225799Y134493D01*
X232197D01*
X32740Y63646D02*
X67090D01*
X32740D02*
Y84709D01*
X67090D01*
Y63646D02*
Y84709D01*
X207504Y84079D02*
Y111146D01*
X175220D02*
X207504D01*
X175220Y84079D02*
Y111146D01*
Y84079D02*
X207504D01*
X263980Y51146D02*
X274118D01*
X263980D02*
Y54985D01*
Y55182D02*
X274118D01*
Y51146D02*
Y55182D01*
X112563Y32485D02*
X124768D01*
X124964Y32682D02*
Y39079D01*
X112760D02*
X124964D01*
X112563Y38882D02*
X112760Y39079D01*
X112563Y32485D02*
Y38882D01*
X264276Y46107D02*
X274413D01*
Y42268D02*
Y46107D01*
X264276Y42072D02*
X274413D01*
X264276D02*
Y46107D01*
X32701Y86520D02*
X67051D01*
X32701D02*
Y107583D01*
X67051D01*
Y86520D02*
Y107583D01*
X158468Y38961D02*
X167425D01*
X158370Y39060D02*
Y42800D01*
X167327D01*
X167425Y39921D02*
Y41742D01*
Y39010D02*
Y39921D01*
Y41742D02*
Y42652D01*
X214768Y66343D02*
X219984D01*
X214768Y54335D02*
Y66343D01*
Y54335D02*
X219984D01*
Y66343D01*
X355122Y43627D02*
Y304847D01*
X314571D02*
X355122D01*
X314571Y43627D02*
Y304847D01*
Y43627D02*
X355122D01*
X188882Y46934D02*
X199020D01*
Y43095D02*
Y46934D01*
X188882Y42898D02*
X199020D01*
X188882D02*
Y46934D01*
X72366Y204857D02*
Y214601D01*
X72563Y214502D02*
X90181D01*
X72366Y204857D02*
X90181D01*
Y214502D01*
X188901Y52209D02*
X199039D01*
X188901D02*
Y56048D01*
Y56245D02*
X199039D01*
Y52209D02*
Y56245D01*
X77484Y186422D02*
Y191638D01*
X65476D02*
X77484D01*
X65476Y186422D02*
Y191638D01*
Y186422D02*
X77484D01*
X72366Y215831D02*
Y225575D01*
X72563Y225477D02*
X90181D01*
X72366Y215831D02*
X90181D01*
Y225477D01*
X259975Y39138D02*
X272180D01*
X259778Y32544D02*
Y38941D01*
Y32544D02*
X271983D01*
X272180Y32741D01*
Y39138D01*
X235594Y40536D02*
X244551D01*
X235496Y40635D02*
Y44375D01*
X244453D01*
X244551Y41496D02*
Y43317D01*
Y40585D02*
Y41496D01*
Y43317D02*
Y44227D01*
X144335Y98804D02*
Y108548D01*
X144531Y108449D02*
X162150D01*
X144335Y98804D02*
X162150D01*
Y108449D01*
X209000Y101894D02*
Y108194D01*
Y101894D02*
X226716D01*
X209197Y108095D02*
X226716D01*
Y101894D02*
Y108095D01*
X220732Y66343D02*
X225949D01*
X220732Y54335D02*
Y66343D01*
Y54335D02*
X225949D01*
Y66343D01*
X70909Y179847D02*
Y185064D01*
X58902D02*
X70909D01*
X58902Y179847D02*
Y185064D01*
Y179847D02*
X70909D01*
X137386Y65044D02*
X142602D01*
X137386Y53036D02*
Y65044D01*
Y53036D02*
X142602D01*
Y65044D01*
X72366Y248754D02*
Y258498D01*
X72563Y258399D02*
X90181D01*
X72366Y248754D02*
X90181D01*
Y258399D01*
X187012Y37603D02*
X199216D01*
X186815Y31008D02*
Y37406D01*
Y31008D02*
X199020D01*
X199216Y31205D01*
Y37603D01*
X113429Y48095D02*
X118646D01*
Y60103D01*
X113429D02*
X118646D01*
X113429Y48095D02*
Y60103D01*
X246353Y39138D02*
X258558D01*
X246156Y32544D02*
Y38941D01*
Y32544D02*
X258361D01*
X258558Y32741D01*
Y39138D01*
X72366Y193883D02*
Y203627D01*
X72563Y203528D02*
X90181D01*
X72366Y193883D02*
X90181D01*
Y203528D01*
X283508Y342406D02*
X295712D01*
X283311Y335812D02*
Y342209D01*
Y335812D02*
X295516D01*
X295712Y336009D01*
Y342406D01*
X237327Y67170D02*
Y72386D01*
X225319D02*
X237327D01*
X225319Y67170D02*
Y72386D01*
Y67170D02*
X237327D01*
X140024Y89473D02*
Y125004D01*
X100161D02*
X140024D01*
X100161Y89473D02*
Y125004D01*
Y89473D02*
X140024D01*
X131205Y65044D02*
X136421D01*
X131205Y53036D02*
Y65044D01*
Y53036D02*
X136421D01*
Y65044D01*
X274873Y204339D02*
X271374D01*
Y202007D01*
Y199091D02*
X274873D01*
X273123Y200840D01*
Y198508D01*
X234984Y61751D02*
Y58836D01*
X235567Y58253D01*
X236734D01*
X237317Y58836D01*
Y61751D01*
X238483Y58253D02*
X239649D01*
X239066D01*
Y61751D01*
X238483Y61168D01*
X243148Y58253D02*
Y61751D01*
X241399Y60002D01*
X243731D01*
X229899Y224302D02*
X229571Y224630D01*
X228914D01*
X228587Y224302D01*
Y222990D01*
X228914Y222662D01*
X229571D01*
X229899Y222990D01*
X230554Y222662D02*
X231210D01*
X230882D01*
Y224630D01*
X230554Y224302D01*
X232194D02*
X232522Y224630D01*
X233178D01*
X233506Y224302D01*
Y223974D01*
X233178Y223646D01*
X232850D01*
X233178D01*
X233506Y223318D01*
Y222990D01*
X233178Y222662D01*
X232522D01*
X232194Y222990D01*
X234162Y222662D02*
X234818D01*
X234490D01*
Y224630D01*
X234162Y224302D01*
X120188Y220835D02*
X116689D01*
Y218503D01*
X120188Y217336D02*
Y215004D01*
X119605D01*
X117272Y217336D01*
X116689D01*
X267720Y164389D02*
Y160890D01*
X269470D01*
X270053Y161474D01*
Y163806D01*
X269470Y164389D01*
X267720D01*
X272969Y160890D02*
Y164389D01*
X271219Y162640D01*
X273552D01*
X325987Y238285D02*
X325404D01*
Y238868D01*
X325987D01*
Y238285D01*
X322488Y241201D02*
X325987D01*
Y242950D01*
X325404Y243533D01*
X323072D01*
X322488Y242950D01*
Y241201D01*
X325987Y246449D02*
Y245283D01*
X325404Y244699D01*
X324238D01*
X323655Y245283D01*
Y246449D01*
X324238Y247032D01*
X324821D01*
Y244699D01*
X325987Y248198D02*
Y249948D01*
X325404Y250531D01*
X324821Y249948D01*
Y248781D01*
X324238Y248198D01*
X323655Y248781D01*
Y250531D01*
X325987Y251697D02*
Y252864D01*
Y252280D01*
X323655D01*
Y251697D01*
X327154Y255779D02*
Y256362D01*
X326571Y256945D01*
X323655D01*
Y255196D01*
X324238Y254613D01*
X325404D01*
X325987Y255196D01*
Y256945D01*
Y258112D02*
X323655D01*
Y259861D01*
X324238Y260444D01*
X325987D01*
X323655Y262194D02*
Y263360D01*
X324238Y263943D01*
X325987D01*
Y262194D01*
X325404Y261611D01*
X324821Y262194D01*
Y263943D01*
X323072Y265693D02*
X323655D01*
Y265109D01*
Y266276D01*
Y265693D01*
X325404D01*
X325987Y266276D01*
Y268608D02*
Y269775D01*
X325404Y270358D01*
X324238D01*
X323655Y269775D01*
Y268608D01*
X324238Y268025D01*
X325404D01*
X325987Y268608D01*
X323655Y271524D02*
X325987D01*
X324821D01*
X324238Y272107D01*
X323655Y272690D01*
Y273273D01*
X43512Y45918D02*
X40013D01*
Y47667D01*
X40596Y48250D01*
X41762D01*
X42345Y47667D01*
Y45918D01*
Y47084D02*
X43512Y48250D01*
X40596Y49417D02*
X40013Y50000D01*
Y51166D01*
X40596Y51749D01*
X41179D01*
X41762Y51166D01*
X42345Y51749D01*
X42929D01*
X43512Y51166D01*
Y50000D01*
X42929Y49417D01*
X42345D01*
X41762Y50000D01*
X41179Y49417D01*
X40596D01*
X41762Y50000D02*
Y51166D01*
X40013Y55248D02*
Y52916D01*
X41762D01*
X41179Y54082D01*
Y54665D01*
X41762Y55248D01*
X42929D01*
X43512Y54665D01*
Y53499D01*
X42929Y52916D01*
X85388Y314057D02*
X85971Y313474D01*
X87137D01*
X87720Y314057D01*
Y316390D01*
X87137Y316973D01*
X85971D01*
X85388Y316390D01*
X84222Y316973D02*
X83055D01*
X83638D01*
Y313474D01*
X84222Y314057D01*
X78973Y316973D02*
X81306D01*
X78973Y314640D01*
Y314057D01*
X79556Y313474D01*
X80723D01*
X81306Y314057D01*
X75474Y313474D02*
X76641Y314057D01*
X77807Y315224D01*
Y316390D01*
X77224Y316973D01*
X76057D01*
X75474Y316390D01*
Y315807D01*
X76057Y315224D01*
X77807D01*
X225494Y115959D02*
X224910Y115376D01*
Y114210D01*
X225494Y113627D01*
X227826D01*
X228409Y114210D01*
Y115376D01*
X227826Y115959D01*
X228409Y118875D02*
X224910D01*
X226660Y117125D01*
Y119458D01*
X225494Y120624D02*
X224910Y121207D01*
Y122374D01*
X225494Y122957D01*
X226077D01*
X226660Y122374D01*
X227243Y122957D01*
X227826D01*
X228409Y122374D01*
Y121207D01*
X227826Y120624D01*
X227243D01*
X226660Y121207D01*
X226077Y120624D01*
X225494D01*
X226660Y121207D02*
Y122374D01*
X190821Y308319D02*
Y305986D01*
X191404Y305403D01*
X192570D01*
X193154Y305986D01*
Y308319D01*
X192570Y308902D01*
X191404D01*
X191987Y307736D02*
X190821Y308902D01*
X191404D02*
X190821Y308319D01*
X189655Y308902D02*
X188488D01*
X189072D01*
Y305403D01*
X189655Y305986D01*
X186739D02*
X186156Y305403D01*
X184989D01*
X184406Y305986D01*
Y308319D01*
X184989Y308902D01*
X186156D01*
X186739Y308319D01*
Y305986D01*
X96917Y334875D02*
Y331376D01*
X95168D01*
X94585Y331959D01*
Y333125D01*
X95168Y333708D01*
X96917D01*
X93418Y331959D02*
X92835Y331376D01*
X91669D01*
X91086Y331959D01*
Y332542D01*
X91669Y333125D01*
X91086Y333708D01*
Y334292D01*
X91669Y334875D01*
X92835D01*
X93418Y334292D01*
Y333708D01*
X92835Y333125D01*
X93418Y332542D01*
Y331959D01*
X92835Y333125D02*
X91669D01*
X109476Y35977D02*
Y32478D01*
X107727D01*
X107144Y33061D01*
Y34227D01*
X107727Y34811D01*
X109476D01*
X108310D02*
X107144Y35977D01*
X103645Y32478D02*
X105977D01*
Y34227D01*
X104811Y33644D01*
X104228D01*
X103645Y34227D01*
Y35394D01*
X104228Y35977D01*
X105394D01*
X105977Y35394D01*
X102479Y32478D02*
X100146D01*
Y33061D01*
X102479Y35394D01*
Y35977D01*
X85545Y320396D02*
X86128Y319813D01*
X87295D01*
X87878Y320396D01*
Y322728D01*
X87295Y323312D01*
X86128D01*
X85545Y322728D01*
X84379Y323312D02*
X83213D01*
X83796D01*
Y319813D01*
X84379Y320396D01*
X79131Y323312D02*
X81463D01*
X79131Y320979D01*
Y320396D01*
X79714Y319813D01*
X80880D01*
X81463Y320396D01*
X77964Y319813D02*
X75632D01*
Y320396D01*
X77964Y322728D01*
Y323312D01*
X190978Y257122D02*
Y254790D01*
X191561Y254206D01*
X192728D01*
X193311Y254790D01*
Y257122D01*
X192728Y257705D01*
X191561D01*
X192145Y256539D02*
X190978Y257705D01*
X191561D02*
X190978Y257122D01*
X189812D02*
X189229Y257705D01*
X188063D01*
X187479Y257122D01*
Y254790D01*
X188063Y254206D01*
X189229D01*
X189812Y254790D01*
Y255373D01*
X189229Y255956D01*
X187479D01*
X131460Y33587D02*
Y37086D01*
X133210D01*
X133793Y36503D01*
Y35337D01*
X133210Y34754D01*
X131460D01*
X132627D02*
X133793Y33587D01*
X137292Y37086D02*
X134959D01*
Y35337D01*
X136126Y35920D01*
X136709D01*
X137292Y35337D01*
Y34170D01*
X136709Y33587D01*
X135543D01*
X134959Y34170D01*
X140791Y37086D02*
X139625Y36503D01*
X138458Y35337D01*
Y34170D01*
X139041Y33587D01*
X140208D01*
X140791Y34170D01*
Y34754D01*
X140208Y35337D01*
X138458D01*
X259138Y110610D02*
Y107111D01*
X261470D01*
X262637D02*
X263803D01*
X263220D01*
Y110610D01*
X262637Y110027D01*
X126128Y57829D02*
X126711Y58413D01*
Y59579D01*
X126128Y60162D01*
X123796D01*
X123213Y59579D01*
Y58413D01*
X123796Y57829D01*
X126711Y54331D02*
Y56663D01*
X124962D01*
X125545Y55497D01*
Y54914D01*
X124962Y54331D01*
X123796D01*
X123213Y54914D01*
Y56080D01*
X123796Y56663D01*
X123213Y51415D02*
X126711D01*
X124962Y53164D01*
Y50832D01*
X283642Y331198D02*
Y334696D01*
X285391D01*
X285974Y334113D01*
Y332947D01*
X285391Y332364D01*
X283642D01*
X284808D02*
X285974Y331198D01*
X289473D02*
X287140D01*
X289473Y333530D01*
Y334113D01*
X288890Y334696D01*
X287724D01*
X287140Y334113D01*
X292972Y334696D02*
X291806Y334113D01*
X290639Y332947D01*
Y331781D01*
X291223Y331198D01*
X292389D01*
X292972Y331781D01*
Y332364D01*
X292389Y332947D01*
X290639D01*
X288557Y93727D02*
X287974Y94310D01*
X286807D01*
X286224Y93727D01*
Y91395D01*
X286807Y90812D01*
X287974D01*
X288557Y91395D01*
X292056Y94310D02*
X290890Y93727D01*
X289723Y92561D01*
Y91395D01*
X290306Y90812D01*
X291473D01*
X292056Y91395D01*
Y91978D01*
X291473Y92561D01*
X289723D01*
X131775Y125280D02*
Y128779D01*
X133525D01*
X134108Y128196D01*
Y127030D01*
X133525Y126446D01*
X131775D01*
X132942D02*
X134108Y125280D01*
X137607Y128779D02*
X135274D01*
Y127030D01*
X136441Y127613D01*
X137024D01*
X137607Y127030D01*
Y125863D01*
X137024Y125280D01*
X135857D01*
X135274Y125863D01*
X138773Y128196D02*
X139356Y128779D01*
X140523D01*
X141106Y128196D01*
Y125863D01*
X140523Y125280D01*
X139356D01*
X138773Y125863D01*
Y128196D01*
X150872Y176255D02*
X151455Y176838D01*
Y178004D01*
X150872Y178587D01*
X148540D01*
X147957Y178004D01*
Y176838D01*
X148540Y176255D01*
X147957Y173339D02*
X151455D01*
X149706Y175088D01*
Y172756D01*
X147957Y169840D02*
X151455D01*
X149706Y171590D01*
Y169257D01*
X300309Y231164D02*
X300892Y230580D01*
X302059D01*
X302642Y231164D01*
Y233496D01*
X302059Y234079D01*
X300892D01*
X300309Y233496D01*
X299143Y231164D02*
X298560Y230580D01*
X297393D01*
X296810Y231164D01*
Y231747D01*
X297393Y232330D01*
X297976D01*
X297393D01*
X296810Y232913D01*
Y233496D01*
X297393Y234079D01*
X298560D01*
X299143Y233496D01*
X295644Y231164D02*
X295061Y230580D01*
X293895D01*
X293311Y231164D01*
Y233496D01*
X293895Y234079D01*
X295061D01*
X295644Y233496D01*
Y231164D01*
X76028Y284822D02*
Y281323D01*
X77777D01*
X78360Y281907D01*
Y284239D01*
X77777Y284822D01*
X76028D01*
X79526Y281323D02*
X80693D01*
X80110D01*
Y284822D01*
X79526Y284239D01*
X82442D02*
X83025Y284822D01*
X84192D01*
X84775Y284239D01*
Y283656D01*
X84192Y283073D01*
X83608D01*
X84192D01*
X84775Y282490D01*
Y281907D01*
X84192Y281323D01*
X83025D01*
X82442Y281907D01*
X213832Y86188D02*
X213249Y86771D01*
X212083D01*
X211500Y86188D01*
Y83855D01*
X212083Y83272D01*
X213249D01*
X213832Y83855D01*
X214999Y83272D02*
X216165D01*
X215582D01*
Y86771D01*
X214999Y86188D01*
X220247Y86771D02*
X217915D01*
Y85022D01*
X219081Y85605D01*
X219664D01*
X220247Y85022D01*
Y83855D01*
X219664Y83272D01*
X218498D01*
X217915Y83855D01*
X214098Y289375D02*
X210599D01*
Y291124D01*
X211183Y291707D01*
X212349D01*
X212932Y291124D01*
Y289375D01*
Y290541D02*
X214098Y291707D01*
Y292874D02*
Y294040D01*
Y293457D01*
X210599D01*
X211183Y292874D01*
X210599Y298122D02*
Y295789D01*
X212349D01*
X211766Y296955D01*
Y297539D01*
X212349Y298122D01*
X213515D01*
X214098Y297539D01*
Y296372D01*
X213515Y295789D01*
X75880Y72842D02*
X75297Y73425D01*
X74130D01*
X73547Y72842D01*
Y70509D01*
X74130Y69926D01*
X75297D01*
X75880Y70509D01*
X79379Y73425D02*
X77046D01*
Y71675D01*
X78212Y72258D01*
X78795D01*
X79379Y71675D01*
Y70509D01*
X78795Y69926D01*
X77629D01*
X77046Y70509D01*
X82877Y69926D02*
X80545D01*
X82877Y72258D01*
Y72842D01*
X82294Y73425D01*
X81128D01*
X80545Y72842D01*
X203000Y145332D02*
Y148831D01*
X200667D01*
X197169Y145332D02*
X199501D01*
Y147082D01*
X198335Y146499D01*
X197752D01*
X197169Y147082D01*
Y148248D01*
X197752Y148831D01*
X198918D01*
X199501Y148248D01*
X211234Y93570D02*
X210651Y94153D01*
X209485D01*
X208902Y93570D01*
Y91237D01*
X209485Y90654D01*
X210651D01*
X211234Y91237D01*
X212400Y90654D02*
X213567D01*
X212983D01*
Y94153D01*
X212400Y93570D01*
X215316D02*
X215899Y94153D01*
X217066D01*
X217649Y93570D01*
Y92987D01*
X217066Y92404D01*
X217649Y91820D01*
Y91237D01*
X217066Y90654D01*
X215899D01*
X215316Y91237D01*
Y91820D01*
X215899Y92404D01*
X215316Y92987D01*
Y93570D01*
X215899Y92404D02*
X217066D01*
X151588Y72802D02*
X151005Y73385D01*
X149839D01*
X149256Y72802D01*
Y70470D01*
X149839Y69886D01*
X151005D01*
X151588Y70470D01*
X152755Y69886D02*
X153921D01*
X153338D01*
Y73385D01*
X152755Y72802D01*
X155670Y69886D02*
X156837D01*
X156254D01*
Y73385D01*
X155670Y72802D01*
X232100Y206779D02*
X231517Y207362D01*
X230351D01*
X229768Y206779D01*
Y204446D01*
X230351Y203863D01*
X231517D01*
X232100Y204446D01*
X235599Y203863D02*
X233266D01*
X235599Y206195D01*
Y206779D01*
X235016Y207362D01*
X233850D01*
X233266Y206779D01*
X239098Y207362D02*
X236765D01*
Y205612D01*
X237932Y206195D01*
X238515D01*
X239098Y205612D01*
Y204446D01*
X238515Y203863D01*
X237349D01*
X236765Y204446D01*
X250764Y337351D02*
X254263D01*
Y335602D01*
X253679Y335018D01*
X252513D01*
X251930Y335602D01*
Y337351D01*
Y336185D02*
X250764Y335018D01*
Y331520D02*
Y333852D01*
X253096Y331520D01*
X253679D01*
X254263Y332103D01*
Y333269D01*
X253679Y333852D01*
Y330353D02*
X254263Y329770D01*
Y328604D01*
X253679Y328021D01*
X253096D01*
X252513Y328604D01*
X251930Y328021D01*
X251347D01*
X250764Y328604D01*
Y329770D01*
X251347Y330353D01*
X251930D01*
X252513Y329770D01*
X253096Y330353D01*
X253679D01*
X252513Y329770D02*
Y328604D01*
X172854Y34111D02*
Y37610D01*
X174604D01*
X175187Y37027D01*
Y35860D01*
X174604Y35277D01*
X172854D01*
X174021D02*
X175187Y34111D01*
X176353D02*
X177519D01*
X176936D01*
Y37610D01*
X176353Y37027D01*
X179269D02*
X179852Y37610D01*
X181018D01*
X181601Y37027D01*
Y36443D01*
X181018Y35860D01*
X180435D01*
X181018D01*
X181601Y35277D01*
Y34694D01*
X181018Y34111D01*
X179852D01*
X179269Y34694D01*
X75555Y298169D02*
Y294670D01*
X77305D01*
X77888Y295253D01*
Y297586D01*
X77305Y298169D01*
X75555D01*
X79054Y294670D02*
X80220D01*
X79637D01*
Y298169D01*
X79054Y297586D01*
X84302Y298169D02*
X81970D01*
Y296419D01*
X83136Y297003D01*
X83719D01*
X84302Y296419D01*
Y295253D01*
X83719Y294670D01*
X82553D01*
X81970Y295253D01*
X281817Y142790D02*
X282400Y143373D01*
Y144539D01*
X281817Y145123D01*
X279485D01*
X278902Y144539D01*
Y143373D01*
X279485Y142790D01*
X278902Y139291D02*
Y141624D01*
X281234Y139291D01*
X281817D01*
X282400Y139874D01*
Y141041D01*
X281817Y141624D01*
X282400Y138125D02*
Y135792D01*
X281817D01*
X279485Y138125D01*
X278902D01*
X289254Y143711D02*
X289837Y144294D01*
Y145460D01*
X289254Y146043D01*
X286922D01*
X286339Y145460D01*
Y144294D01*
X286922Y143711D01*
X286339Y140212D02*
Y142544D01*
X288671Y140212D01*
X289254D01*
X289837Y140795D01*
Y141961D01*
X289254Y142544D01*
Y139046D02*
X289837Y138462D01*
Y137296D01*
X289254Y136713D01*
X288671D01*
X288088Y137296D01*
X287505Y136713D01*
X286922D01*
X286339Y137296D01*
Y138462D01*
X286922Y139046D01*
X287505D01*
X288088Y138462D01*
X288671Y139046D01*
X289254D01*
X288088Y138462D02*
Y137296D01*
X311219Y160398D02*
X308303D01*
X307720Y159815D01*
Y158649D01*
X308303Y158066D01*
X311219D01*
X307720Y156899D02*
X310053D01*
X311219Y155733D01*
X310053Y154567D01*
X307720D01*
X309470D01*
Y156899D01*
X307720Y153401D02*
X311219D01*
Y151651D01*
X310636Y151068D01*
X309470D01*
X308887Y151651D01*
Y153401D01*
Y152234D02*
X307720Y151068D01*
X311219Y149902D02*
Y147569D01*
Y148735D01*
X307720D01*
X197336Y49816D02*
Y46317D01*
X195586D01*
X195003Y46900D01*
Y48066D01*
X195586Y48649D01*
X197336D01*
X196169D02*
X195003Y49816D01*
X193837D02*
X192671D01*
X193254D01*
Y46317D01*
X193837Y46900D01*
X188589Y49816D02*
X190921D01*
X188589Y47483D01*
Y46900D01*
X189172Y46317D01*
X190338D01*
X190921Y46900D01*
X34378Y45918D02*
X30879D01*
Y47667D01*
X31462Y48250D01*
X32629D01*
X33212Y47667D01*
Y45918D01*
Y47084D02*
X34378Y48250D01*
X31462Y49417D02*
X30879Y50000D01*
Y51166D01*
X31462Y51749D01*
X32045D01*
X32629Y51166D01*
Y50583D01*
Y51166D01*
X33212Y51749D01*
X33795D01*
X34378Y51166D01*
Y50000D01*
X33795Y49417D01*
X30879Y55248D02*
Y52916D01*
X32629D01*
X32045Y54082D01*
Y54665D01*
X32629Y55248D01*
X33795D01*
X34378Y54665D01*
Y53499D01*
X33795Y52916D01*
X243242Y159338D02*
X242659Y159921D01*
X241493D01*
X240909Y159338D01*
Y157005D01*
X241493Y156422D01*
X242659D01*
X243242Y157005D01*
X246741Y156422D02*
X244408D01*
X246741Y158754D01*
Y159338D01*
X246158Y159921D01*
X244991D01*
X244408Y159338D01*
X250240Y159921D02*
X249073Y159338D01*
X247907Y158171D01*
Y157005D01*
X248490Y156422D01*
X249657D01*
X250240Y157005D01*
Y157588D01*
X249657Y158171D01*
X247907D01*
X74600Y236611D02*
X74017Y237194D01*
X72851D01*
X72268Y236611D01*
Y234278D01*
X72851Y233695D01*
X74017D01*
X74600Y234278D01*
X75766Y236611D02*
X76350Y237194D01*
X77516D01*
X78099Y236611D01*
Y236028D01*
X77516Y235444D01*
X78099Y234861D01*
Y234278D01*
X77516Y233695D01*
X76350D01*
X75766Y234278D01*
Y234861D01*
X76350Y235444D01*
X75766Y236028D01*
Y236611D01*
X76350Y235444D02*
X77516D01*
X79265Y236611D02*
X79848Y237194D01*
X81015D01*
X81598Y236611D01*
Y234278D01*
X81015Y233695D01*
X79848D01*
X79265Y234278D01*
Y236611D01*
X44870Y157709D02*
Y154210D01*
X43121D01*
X42537Y154794D01*
Y155960D01*
X43121Y156543D01*
X44870D01*
X43704D02*
X42537Y157709D01*
X41371Y154210D02*
Y157709D01*
X39622D01*
X39039Y157126D01*
Y156543D01*
X39622Y155960D01*
X41371D01*
X39622D01*
X39039Y155377D01*
Y154794D01*
X39622Y154210D01*
X41371D01*
X35540D02*
X37872D01*
Y155960D01*
X36706D01*
X37872D01*
Y157709D01*
X81283Y60649D02*
Y57733D01*
X81867Y57150D01*
X83033D01*
X83616Y57733D01*
Y60649D01*
X84782Y57150D02*
X85948D01*
X85365D01*
Y60649D01*
X84782Y60066D01*
X87698D02*
X88281Y60649D01*
X89447D01*
X90031Y60066D01*
Y57733D01*
X89447Y57150D01*
X88281D01*
X87698Y57733D01*
Y60066D01*
X148045Y97723D02*
X147462Y98307D01*
X146296D01*
X145712Y97723D01*
Y95391D01*
X146296Y94808D01*
X147462D01*
X148045Y95391D01*
X151544Y98307D02*
X149211D01*
Y96557D01*
X150378Y97140D01*
X150961D01*
X151544Y96557D01*
Y95391D01*
X150961Y94808D01*
X149794D01*
X149211Y95391D01*
X155043Y98307D02*
X152710D01*
Y96557D01*
X153876Y97140D01*
X154460D01*
X155043Y96557D01*
Y95391D01*
X154460Y94808D01*
X153293D01*
X152710Y95391D01*
X143427Y56353D02*
X142844Y55770D01*
Y54603D01*
X143427Y54020D01*
X145759D01*
X146342Y54603D01*
Y55770D01*
X145759Y56353D01*
X146342Y57519D02*
Y58685D01*
Y58102D01*
X142844D01*
X143427Y57519D01*
Y60435D02*
X142844Y61018D01*
Y62184D01*
X143427Y62767D01*
X144010D01*
X144593Y62184D01*
Y61601D01*
Y62184D01*
X145176Y62767D01*
X145759D01*
X146342Y62184D01*
Y61018D01*
X145759Y60435D01*
X246916Y146830D02*
Y143914D01*
X247500Y143331D01*
X248666D01*
X249249Y143914D01*
Y146830D01*
X252165Y143331D02*
Y146830D01*
X250415Y145081D01*
X252748D01*
X179925Y81121D02*
Y77623D01*
X181675D01*
X182258Y78206D01*
Y80538D01*
X181675Y81121D01*
X179925D01*
X185757Y77623D02*
X183424D01*
X185757Y79955D01*
Y80538D01*
X185173Y81121D01*
X184007D01*
X183424Y80538D01*
X243901Y77524D02*
Y74025D01*
X242152D01*
X241569Y74608D01*
Y75775D01*
X242152Y76358D01*
X243901D01*
X242735D02*
X241569Y77524D01*
X240403D02*
X239236D01*
X239820D01*
Y74025D01*
X240403Y74608D01*
X237487D02*
X236904Y74025D01*
X235737D01*
X235154Y74608D01*
Y76941D01*
X235737Y77524D01*
X236904D01*
X237487Y76941D01*
Y74608D01*
X302575Y299382D02*
X306074D01*
Y297633D01*
X305490Y297050D01*
X304324D01*
X303741Y297633D01*
Y299382D01*
Y298216D02*
X302575Y297050D01*
Y295884D02*
Y294717D01*
Y295301D01*
X306074D01*
X305490Y295884D01*
X303158Y292968D02*
X302575Y292385D01*
Y291218D01*
X303158Y290635D01*
X305490D01*
X306074Y291218D01*
Y292385D01*
X305490Y292968D01*
X304907D01*
X304324Y292385D01*
Y290635D01*
X294020Y146894D02*
X297518D01*
Y145145D01*
X296935Y144562D01*
X295769D01*
X295186Y145145D01*
Y146894D01*
Y145728D02*
X294020Y144562D01*
Y141063D02*
Y143395D01*
X296352Y141063D01*
X296935D01*
X297518Y141646D01*
Y142812D01*
X296935Y143395D01*
Y139897D02*
X297518Y139313D01*
Y138147D01*
X296935Y137564D01*
X294603D01*
X294020Y138147D01*
Y139313D01*
X294603Y139897D01*
X296935D01*
X44870Y230566D02*
X42537D01*
X43704Y229400D02*
Y231732D01*
X41371Y228817D02*
X39038D01*
Y229400D01*
X41371Y231732D01*
Y232315D01*
X39038D01*
X228584Y291589D02*
X228001Y291006D01*
Y289840D01*
X228584Y289257D01*
X230917D01*
X231500Y289840D01*
Y291006D01*
X230917Y291589D01*
X231500Y295088D02*
Y292755D01*
X229167Y295088D01*
X228584D01*
X228001Y294505D01*
Y293338D01*
X228584Y292755D01*
X231500Y298587D02*
Y296254D01*
X229167Y298587D01*
X228584D01*
X228001Y298004D01*
Y296837D01*
X228584Y296254D01*
X134013Y136198D02*
X133430Y136781D01*
X132263D01*
X131680Y136198D01*
Y133866D01*
X132263Y133282D01*
X133430D01*
X134013Y133866D01*
X136928Y133282D02*
Y136781D01*
X135179Y135032D01*
X137512D01*
X141010Y136781D02*
X139844Y136198D01*
X138678Y135032D01*
Y133866D01*
X139261Y133282D01*
X140427D01*
X141010Y133866D01*
Y134449D01*
X140427Y135032D01*
X138678D01*
X270860Y278112D02*
X271443Y277529D01*
X272610D01*
X273193Y278112D01*
Y280445D01*
X272610Y281028D01*
X271443D01*
X270860Y280445D01*
X267361Y281028D02*
X269694D01*
X267361Y278696D01*
Y278112D01*
X267945Y277529D01*
X269111D01*
X269694Y278112D01*
X266195Y281028D02*
X265029D01*
X265612D01*
Y277529D01*
X266195Y278112D01*
X288596Y86208D02*
X288013Y86791D01*
X286847D01*
X286264Y86208D01*
Y83875D01*
X286847Y83292D01*
X288013D01*
X288596Y83875D01*
X289763Y86791D02*
X292095D01*
Y86208D01*
X289763Y83875D01*
Y83292D01*
X135688Y172977D02*
X132772D01*
X132189Y172394D01*
Y171228D01*
X132772Y170644D01*
X135688D01*
X132772Y169478D02*
X132189Y168895D01*
Y167729D01*
X132772Y167146D01*
X135105D01*
X135688Y167729D01*
Y168895D01*
X135105Y169478D01*
X134521D01*
X133938Y168895D01*
Y167146D01*
X145568Y114656D02*
X145240Y114984D01*
X144584D01*
X144256Y114656D01*
Y113344D01*
X144584Y113016D01*
X145240D01*
X145568Y113344D01*
X146224Y113016D02*
X146880D01*
X146552D01*
Y114984D01*
X146224Y114656D01*
X147864D02*
X148192Y114984D01*
X148847D01*
X149176Y114656D01*
Y114328D01*
X148847Y114000D01*
X148520D01*
X148847D01*
X149176Y113672D01*
Y113344D01*
X148847Y113016D01*
X148192D01*
X147864Y113344D01*
X151143Y113016D02*
X149831D01*
X151143Y114328D01*
Y114656D01*
X150815Y114984D01*
X150159D01*
X149831Y114656D01*
X289777Y71660D02*
X289194Y72244D01*
X288028D01*
X287445Y71660D01*
Y69328D01*
X288028Y68745D01*
X289194D01*
X289777Y69328D01*
X293276Y72244D02*
X290944D01*
Y70494D01*
X292110Y71077D01*
X292693D01*
X293276Y70494D01*
Y69328D01*
X292693Y68745D01*
X291527D01*
X290944Y69328D01*
X247917Y197839D02*
Y194340D01*
X246168D01*
X245585Y194923D01*
Y196090D01*
X246168Y196673D01*
X247917D01*
X246751D02*
X245585Y197839D01*
X244418D02*
X243252D01*
X243835D01*
Y194340D01*
X244418Y194923D01*
X239170Y194340D02*
X240336Y194923D01*
X241503Y196090D01*
Y197256D01*
X240919Y197839D01*
X239753D01*
X239170Y197256D01*
Y196673D01*
X239753Y196090D01*
X241503D01*
X74600Y247585D02*
X74017Y248168D01*
X72851D01*
X72268Y247585D01*
Y245252D01*
X72851Y244669D01*
X74017D01*
X74600Y245252D01*
X75766Y244669D02*
X76933D01*
X76350D01*
Y248168D01*
X75766Y247585D01*
X78682Y244669D02*
X79848D01*
X79265D01*
Y248168D01*
X78682Y247585D01*
X81598Y248168D02*
X83930D01*
Y247585D01*
X81598Y245252D01*
Y244669D01*
X288596Y78767D02*
X288013Y79350D01*
X286847D01*
X286264Y78767D01*
Y76434D01*
X286847Y75851D01*
X288013D01*
X288596Y76434D01*
X289763Y78767D02*
X290346Y79350D01*
X291512D01*
X292095Y78767D01*
Y78184D01*
X291512Y77600D01*
X292095Y77017D01*
Y76434D01*
X291512Y75851D01*
X290346D01*
X289763Y76434D01*
Y77017D01*
X290346Y77600D01*
X289763Y78184D01*
Y78767D01*
X290346Y77600D02*
X291512D01*
X214667Y117436D02*
X214084Y116852D01*
Y115686D01*
X214667Y115103D01*
X217000D01*
X217583Y115686D01*
Y116852D01*
X217000Y117436D01*
X217583Y120351D02*
X214084D01*
X215833Y118602D01*
Y120934D01*
X217000Y122101D02*
X217583Y122684D01*
Y123850D01*
X217000Y124433D01*
X214667D01*
X214084Y123850D01*
Y122684D01*
X214667Y122101D01*
X215250D01*
X215833Y122684D01*
Y124433D01*
X105476Y83248D02*
Y79749D01*
X107226D01*
X107809Y80332D01*
Y82664D01*
X107226Y83248D01*
X105476D01*
X108975Y79749D02*
X110142D01*
X109558D01*
Y83248D01*
X108975Y82664D01*
X111891D02*
X112474Y83248D01*
X113640D01*
X114224Y82664D01*
Y80332D01*
X113640Y79749D01*
X112474D01*
X111891Y80332D01*
Y82664D01*
X228705Y162233D02*
X232204D01*
Y160483D01*
X231620Y159900D01*
X230454D01*
X229871Y160483D01*
Y162233D01*
Y161067D02*
X228705Y159900D01*
Y156401D02*
Y158734D01*
X231037Y156401D01*
X231620D01*
X232204Y156985D01*
Y158151D01*
X231620Y158734D01*
X228705Y153486D02*
X232204D01*
X230454Y155235D01*
Y152903D01*
X140371Y137994D02*
X140954Y137411D01*
X142121D01*
X142704Y137994D01*
Y140327D01*
X142121Y140910D01*
X140954D01*
X140371Y140327D01*
X137455Y140910D02*
Y137411D01*
X139205Y139161D01*
X136872D01*
X133373Y137411D02*
X135706D01*
Y139161D01*
X134540Y138577D01*
X133957D01*
X133373Y139161D01*
Y140327D01*
X133957Y140910D01*
X135123D01*
X135706Y140327D01*
X249140Y124719D02*
X249723Y125302D01*
Y126469D01*
X249140Y127052D01*
X246808D01*
X246224Y126469D01*
Y125302D01*
X246808Y124719D01*
X246224Y121803D02*
X249723D01*
X247974Y123553D01*
Y121220D01*
X249723Y120054D02*
Y117721D01*
X249140D01*
X246808Y120054D01*
X246224D01*
X269728Y117327D02*
Y113829D01*
X267979D01*
X267396Y114412D01*
Y115578D01*
X267979Y116161D01*
X269728D01*
X268562D02*
X267396Y117327D01*
X263897Y113829D02*
X266229D01*
Y115578D01*
X265063Y114995D01*
X264480D01*
X263897Y115578D01*
Y116744D01*
X264480Y117327D01*
X265646D01*
X266229Y116744D01*
X262731Y117327D02*
X261564D01*
X262147D01*
Y113829D01*
X262731Y114412D01*
X235996Y318361D02*
X233663D01*
X233080Y317778D01*
Y316611D01*
X233663Y316028D01*
X235996D01*
X236579Y316611D01*
Y317778D01*
X235412Y317195D02*
X236579Y318361D01*
Y317778D02*
X235996Y318361D01*
X236579Y319527D02*
Y320693D01*
Y320110D01*
X233080D01*
X233663Y319527D01*
X256146Y81121D02*
Y77623D01*
X257895D01*
X258478Y78206D01*
Y80538D01*
X257895Y81121D01*
X256146D01*
X259645Y77623D02*
X260811D01*
X260228D01*
Y81121D01*
X259645Y80538D01*
X267373Y318361D02*
X265041D01*
X264458Y317778D01*
Y316611D01*
X265041Y316028D01*
X267373D01*
X267957Y316611D01*
Y317778D01*
X266790Y317195D02*
X267957Y318361D01*
Y317778D02*
X267373Y318361D01*
X267957Y321860D02*
Y319527D01*
X265624Y321860D01*
X265041D01*
X264458Y321276D01*
Y320110D01*
X265041Y319527D01*
X301657Y267445D02*
X305156D01*
Y265696D01*
X304573Y265113D01*
X303407D01*
X302824Y265696D01*
Y267445D01*
Y266279D02*
X301657Y265113D01*
Y261614D02*
Y263947D01*
X303990Y261614D01*
X304573D01*
X305156Y262197D01*
Y263364D01*
X304573Y263947D01*
X301657Y260448D02*
Y259281D01*
Y259865D01*
X305156D01*
X304573Y260448D01*
X211234Y100912D02*
X210651Y101496D01*
X209485D01*
X208902Y100912D01*
Y98580D01*
X209485Y97997D01*
X210651D01*
X211234Y98580D01*
X212400Y97997D02*
X213567D01*
X212983D01*
Y101496D01*
X212400Y100912D01*
X215316Y101496D02*
X217649D01*
Y100912D01*
X215316Y98580D01*
Y97997D01*
X272528Y48969D02*
Y45470D01*
X270778D01*
X270195Y46053D01*
Y47220D01*
X270778Y47803D01*
X272528D01*
X271361D02*
X270195Y48969D01*
X266696Y45470D02*
X269029D01*
Y47220D01*
X267862Y46637D01*
X267279D01*
X266696Y47220D01*
Y48386D01*
X267279Y48969D01*
X268445D01*
X269029Y48386D01*
X220494Y290999D02*
X219911Y290415D01*
Y289249D01*
X220494Y288666D01*
X222826D01*
X223409Y289249D01*
Y290415D01*
X222826Y290999D01*
X223409Y294497D02*
Y292165D01*
X221077Y294497D01*
X220494D01*
X219911Y293914D01*
Y292748D01*
X220494Y292165D01*
Y295664D02*
X219911Y296247D01*
Y297413D01*
X220494Y297996D01*
X221077D01*
X221660Y297413D01*
Y296830D01*
Y297413D01*
X222243Y297996D01*
X222826D01*
X223409Y297413D01*
Y296247D01*
X222826Y295664D01*
X241500Y272943D02*
Y276442D01*
X239751D01*
X239167Y275858D01*
Y273526D01*
X239751Y272943D01*
X241500D01*
X238001Y273526D02*
X237418Y272943D01*
X236252D01*
X235668Y273526D01*
Y274109D01*
X236252Y274692D01*
X236835D01*
X236252D01*
X235668Y275275D01*
Y275858D01*
X236252Y276442D01*
X237418D01*
X238001Y275858D01*
X114520Y170926D02*
X111021D01*
Y172675D01*
X111604Y173258D01*
X112770D01*
X113353Y172675D01*
Y170926D01*
Y172092D02*
X114520Y173258D01*
X111021Y176757D02*
Y174425D01*
X112770D01*
X112187Y175591D01*
Y176174D01*
X112770Y176757D01*
X113936D01*
X114520Y176174D01*
Y175008D01*
X113936Y174425D01*
X114520Y180256D02*
Y177924D01*
X112187Y180256D01*
X111604D01*
X111021Y179673D01*
Y178507D01*
X111604Y177924D01*
X237694Y237402D02*
X241193D01*
Y239735D01*
X238277Y240901D02*
X237694Y241484D01*
Y242651D01*
X238277Y243234D01*
X238860D01*
X239443Y242651D01*
Y242067D01*
Y242651D01*
X240026Y243234D01*
X240610D01*
X241193Y242651D01*
Y241484D01*
X240610Y240901D01*
X230703Y217743D02*
X230119Y218326D01*
X228953D01*
X228370Y217743D01*
Y215410D01*
X228953Y214827D01*
X230119D01*
X230703Y215410D01*
X234202Y214827D02*
X231869D01*
X234202Y217160D01*
Y217743D01*
X233618Y218326D01*
X232452D01*
X231869Y217743D01*
X237117Y214827D02*
Y218326D01*
X235368Y216577D01*
X237700D01*
X300919Y219549D02*
X301502Y218966D01*
X302669D01*
X303252Y219549D01*
Y221882D01*
X302669Y222465D01*
X301502D01*
X300919Y221882D01*
X299753Y219549D02*
X299170Y218966D01*
X298004D01*
X297420Y219549D01*
Y220133D01*
X298004Y220716D01*
X298587D01*
X298004D01*
X297420Y221299D01*
Y221882D01*
X298004Y222465D01*
X299170D01*
X299753Y221882D01*
X296254Y222465D02*
X295088D01*
X295671D01*
Y218966D01*
X296254Y219549D01*
X114283Y155020D02*
X110784D01*
Y156770D01*
X111368Y157353D01*
X112534D01*
X113117Y156770D01*
Y155020D01*
Y156187D02*
X114283Y157353D01*
X110784Y160852D02*
Y158519D01*
X112534D01*
X111951Y159686D01*
Y160269D01*
X112534Y160852D01*
X113700D01*
X114283Y160269D01*
Y159102D01*
X113700Y158519D01*
X114283Y163768D02*
X110784D01*
X112534Y162018D01*
Y164351D01*
X302575Y282808D02*
X306074D01*
Y281058D01*
X305490Y280475D01*
X304324D01*
X303741Y281058D01*
Y282808D01*
Y281641D02*
X302575Y280475D01*
Y279309D02*
Y278142D01*
Y278726D01*
X306074D01*
X305490Y279309D01*
X306074Y276393D02*
Y274061D01*
X305490D01*
X303158Y276393D01*
X302575D01*
X296490Y243152D02*
X297073Y242569D01*
X298240D01*
X298823Y243152D01*
Y245484D01*
X298240Y246068D01*
X297073D01*
X296490Y245484D01*
X292991Y246068D02*
X295324D01*
X292991Y243735D01*
Y243152D01*
X293574Y242569D01*
X294741D01*
X295324Y243152D01*
X291825Y245484D02*
X291242Y246068D01*
X290076D01*
X289492Y245484D01*
Y243152D01*
X290076Y242569D01*
X291242D01*
X291825Y243152D01*
Y243735D01*
X291242Y244318D01*
X289492D01*
X208742Y57652D02*
X208158Y57069D01*
Y55903D01*
X208742Y55319D01*
X211074D01*
X211657Y55903D01*
Y57069D01*
X211074Y57652D01*
X211657Y60568D02*
X208158D01*
X209908Y58818D01*
Y61151D01*
X190978Y204343D02*
Y202010D01*
X191561Y201427D01*
X192728D01*
X193311Y202010D01*
Y204343D01*
X192728Y204926D01*
X191561D01*
X192145Y203760D02*
X190978Y204926D01*
X191561D02*
X190978Y204343D01*
X189812Y202010D02*
X189229Y201427D01*
X188063D01*
X187479Y202010D01*
Y202593D01*
X188063Y203176D01*
X187479Y203760D01*
Y204343D01*
X188063Y204926D01*
X189229D01*
X189812Y204343D01*
Y203760D01*
X189229Y203176D01*
X189812Y202593D01*
Y202010D01*
X189229Y203176D02*
X188063D01*
X216748Y336367D02*
X220247D01*
Y334617D01*
X219664Y334034D01*
X218497D01*
X217914Y334617D01*
Y336367D01*
Y335201D02*
X216748Y334034D01*
X219664Y332868D02*
X220247Y332285D01*
Y331118D01*
X219664Y330535D01*
X219080D01*
X218497Y331118D01*
Y331702D01*
Y331118D01*
X217914Y330535D01*
X217331D01*
X216748Y331118D01*
Y332285D01*
X217331Y332868D01*
X216748Y327036D02*
Y329369D01*
X219080Y327036D01*
X219664D01*
X220247Y327620D01*
Y328786D01*
X219664Y329369D01*
X263212Y289084D02*
Y292000D01*
X262629Y292583D01*
X261463D01*
X260880Y292000D01*
Y289084D01*
X259714Y289668D02*
X259131Y289084D01*
X257964D01*
X257381Y289668D01*
Y290251D01*
X257964Y290834D01*
X258547D01*
X257964D01*
X257381Y291417D01*
Y292000D01*
X257964Y292583D01*
X259131D01*
X259714Y292000D01*
X228705Y146564D02*
X232204D01*
Y144814D01*
X231620Y144231D01*
X230454D01*
X229871Y144814D01*
Y146564D01*
Y145397D02*
X228705Y144231D01*
Y140732D02*
Y143065D01*
X231037Y140732D01*
X231620D01*
X232204Y141315D01*
Y142482D01*
X231620Y143065D01*
X228705Y137233D02*
Y139566D01*
X231037Y137233D01*
X231620D01*
X232204Y137816D01*
Y138983D01*
X231620Y139566D01*
X190374Y16785D02*
Y20283D01*
X192123D01*
X192707Y19700D01*
Y18534D01*
X192123Y17951D01*
X190374D01*
X191540D02*
X192707Y16785D01*
X193873Y20283D02*
X196205D01*
X195039D01*
Y16785D01*
X197372Y20283D02*
Y16785D01*
X199121D01*
X199704Y17368D01*
Y19700D01*
X199121Y20283D01*
X197372D01*
X200871Y16785D02*
X202037D01*
X201454D01*
Y20283D01*
X200871Y19700D01*
X40092Y73186D02*
Y75519D01*
X39509Y76102D01*
X38343D01*
X37760Y75519D01*
Y73186D01*
X38343Y72603D01*
X39509D01*
X38926Y73769D02*
X40092Y72603D01*
X39509D02*
X40092Y73186D01*
X43008Y72603D02*
Y76102D01*
X41259Y74352D01*
X43591D01*
X20309Y83104D02*
X20893Y83688D01*
Y84854D01*
X20309Y85437D01*
X19726D01*
X19143Y84854D01*
Y83688D01*
X18560Y83104D01*
X17977D01*
X17394Y83688D01*
Y84854D01*
X17977Y85437D01*
X20893Y81938D02*
X17394D01*
X18560Y80772D01*
X17394Y79606D01*
X20893D01*
X17394Y78439D02*
Y77273D01*
Y77856D01*
X20893D01*
X20309Y78439D01*
X181027Y109625D02*
Y106127D01*
X183360D01*
X186859D02*
X184526D01*
X186859Y108459D01*
Y109042D01*
X186276Y109625D01*
X185109D01*
X184526Y109042D01*
X267297Y55440D02*
X266714Y56023D01*
X265548D01*
X264965Y55440D01*
Y53107D01*
X265548Y52524D01*
X266714D01*
X267297Y53107D01*
X268463D02*
X269046Y52524D01*
X270213D01*
X270796Y53107D01*
Y55440D01*
X270213Y56023D01*
X269046D01*
X268463Y55440D01*
Y54857D01*
X269046Y54274D01*
X270796D01*
X124634Y35977D02*
Y32478D01*
X122884D01*
X122301Y33061D01*
Y34227D01*
X122884Y34811D01*
X124634D01*
X123468D02*
X122301Y35977D01*
X118802Y32478D02*
X121135D01*
Y34227D01*
X119969Y33644D01*
X119386D01*
X118802Y34227D01*
Y35394D01*
X119386Y35977D01*
X120552D01*
X121135Y35394D01*
X117636D02*
X117053Y35977D01*
X115887D01*
X115303Y35394D01*
Y33061D01*
X115887Y32478D01*
X117053D01*
X117636Y33061D01*
Y33644D01*
X117053Y34227D01*
X115303D01*
X44870Y180828D02*
X42537D01*
X43704Y179662D02*
Y181995D01*
X41371Y179079D02*
Y179662D01*
X40205Y180828D01*
X39039Y179662D01*
Y179079D01*
X40205Y180828D02*
Y182578D01*
X271096Y41813D02*
X271680Y41230D01*
X272846D01*
X273429Y41813D01*
Y44146D01*
X272846Y44729D01*
X271680D01*
X271096Y44146D01*
X269930Y44729D02*
X268764D01*
X269347D01*
Y41230D01*
X269930Y41813D01*
X267015D02*
X266431Y41230D01*
X265265D01*
X264682Y41813D01*
Y44146D01*
X265265Y44729D01*
X266431D01*
X267015Y44146D01*
Y41813D01*
X40053Y96060D02*
Y98393D01*
X39470Y98976D01*
X38304D01*
X37720Y98393D01*
Y96060D01*
X38304Y95477D01*
X39470D01*
X38887Y96643D02*
X40053Y95477D01*
X39470D02*
X40053Y96060D01*
X41219Y98393D02*
X41802Y98976D01*
X42969D01*
X43552Y98393D01*
Y97810D01*
X42969Y97226D01*
X42386D01*
X42969D01*
X43552Y96643D01*
Y96060D01*
X42969Y95477D01*
X41802D01*
X41219Y96060D01*
X166504Y41371D02*
Y37872D01*
X164754D01*
X164171Y38455D01*
Y39621D01*
X164754Y40204D01*
X166504D01*
X165338D02*
X164171Y41371D01*
X163005D02*
X161839D01*
X162422D01*
Y37872D01*
X163005Y38455D01*
X158340Y41371D02*
Y37872D01*
X160089Y39621D01*
X157757D01*
X120188Y329733D02*
X116689D01*
Y327400D01*
X117272Y326234D02*
X116689Y325651D01*
Y324485D01*
X117272Y323901D01*
X119605D01*
X120188Y324485D01*
Y325651D01*
X119605Y326234D01*
X119021D01*
X118438Y325651D01*
Y323901D01*
X208272Y42642D02*
Y46141D01*
X210021D01*
X210604Y45558D01*
Y44392D01*
X210021Y43809D01*
X208272D01*
X209438D02*
X210604Y42642D01*
X214103D02*
X211770D01*
X214103Y44975D01*
Y45558D01*
X213520Y46141D01*
X212354D01*
X211770Y45558D01*
X44870Y205697D02*
X42537D01*
X41371Y203948D02*
X39039D01*
Y204531D01*
X41371Y206864D01*
Y207447D01*
X39039D01*
X214706Y57652D02*
X214123Y57069D01*
Y55903D01*
X214706Y55319D01*
X217039D01*
X217622Y55903D01*
Y57069D01*
X217039Y57652D01*
X217622Y61151D02*
Y58818D01*
X215289Y61151D01*
X214706D01*
X214123Y60568D01*
Y59402D01*
X214706Y58818D01*
X309886Y45634D02*
X306387D01*
Y47384D01*
X306970Y47967D01*
X308136D01*
X308719Y47384D01*
Y45634D01*
Y46801D02*
X309886Y47967D01*
X306970Y49133D02*
X306387Y49716D01*
Y50883D01*
X306970Y51466D01*
X307553D01*
X308136Y50883D01*
Y50300D01*
Y50883D01*
X308719Y51466D01*
X309303D01*
X309886Y50883D01*
Y49716D01*
X309303Y49133D01*
X325988Y238312D02*
X322489D01*
Y240061D01*
X323072Y240644D01*
X324239D01*
X324822Y240061D01*
Y238312D01*
X323072Y244143D02*
X322489Y243560D01*
Y242394D01*
X323072Y241810D01*
X325405D01*
X325988Y242394D01*
Y243560D01*
X325405Y244143D01*
X325988Y245309D02*
Y246476D01*
Y245893D01*
X322489D01*
X323072Y245309D01*
Y248225D02*
X322489Y248808D01*
Y249974D01*
X323072Y250558D01*
X325405D01*
X325988Y249974D01*
Y248808D01*
X325405Y248225D01*
X323072D01*
X325988Y253473D02*
X322489D01*
X324239Y251724D01*
Y254057D01*
X131460Y42642D02*
Y46141D01*
X133210D01*
X133793Y45558D01*
Y44392D01*
X133210Y43809D01*
X131460D01*
X132627D02*
X133793Y42642D01*
X134959Y43225D02*
X135543Y42642D01*
X136709D01*
X137292Y43225D01*
Y45558D01*
X136709Y46141D01*
X135543D01*
X134959Y45558D01*
Y44975D01*
X135543Y44392D01*
X137292D01*
X195703Y42640D02*
X196286Y42057D01*
X197452D01*
X198035Y42640D01*
Y44973D01*
X197452Y45556D01*
X196286D01*
X195703Y44973D01*
X192204Y45556D02*
X194536D01*
X192204Y43223D01*
Y42640D01*
X192787Y42057D01*
X193953D01*
X194536Y42640D01*
X191038D02*
X190454Y42057D01*
X189288D01*
X188705Y42640D01*
Y44973D01*
X189288Y45556D01*
X190454D01*
X191038Y44973D01*
Y42640D01*
X74600Y214662D02*
X74017Y215245D01*
X72851D01*
X72268Y214662D01*
Y212330D01*
X72851Y211747D01*
X74017D01*
X74600Y212330D01*
X75766Y214662D02*
X76350Y215245D01*
X77516D01*
X78099Y214662D01*
Y214079D01*
X77516Y213496D01*
X78099Y212913D01*
Y212330D01*
X77516Y211747D01*
X76350D01*
X75766Y212330D01*
Y212913D01*
X76350Y213496D01*
X75766Y214079D01*
Y214662D01*
X76350Y213496D02*
X77516D01*
X81598Y211747D02*
X79265D01*
X81598Y214079D01*
Y214662D01*
X81015Y215245D01*
X79848D01*
X79265Y214662D01*
X192218Y56503D02*
X191635Y57086D01*
X190469D01*
X189886Y56503D01*
Y54170D01*
X190469Y53587D01*
X191635D01*
X192218Y54170D01*
X193385Y53587D02*
X194551D01*
X193968D01*
Y57086D01*
X193385Y56503D01*
X196300Y54170D02*
X196883Y53587D01*
X198050D01*
X198633Y54170D01*
Y56503D01*
X198050Y57086D01*
X196883D01*
X196300Y56503D01*
Y55920D01*
X196883Y55337D01*
X198633D01*
X157583Y61751D02*
Y58836D01*
X158166Y58253D01*
X159332D01*
X159915Y58836D01*
Y61751D01*
X163414Y58253D02*
X161082D01*
X163414Y60585D01*
Y61168D01*
X162831Y61751D01*
X161665D01*
X161082Y61168D01*
X256831Y16785D02*
Y20283D01*
X258580D01*
X259163Y19700D01*
Y18534D01*
X258580Y17951D01*
X256831D01*
X257997D02*
X259163Y16785D01*
X260330Y20283D02*
X262662D01*
X261496D01*
Y16785D01*
X263828Y20283D02*
Y16785D01*
X265578D01*
X266161Y17368D01*
Y19700D01*
X265578Y20283D01*
X263828D01*
X269660Y16785D02*
X267327D01*
X269660Y19117D01*
Y19700D01*
X269077Y20283D01*
X267910D01*
X267327Y19700D01*
X68793Y191700D02*
X68210Y192283D01*
X67044D01*
X66461Y191700D01*
Y189367D01*
X67044Y188784D01*
X68210D01*
X68793Y189367D01*
X69959Y192283D02*
X72292D01*
Y191700D01*
X69959Y189367D01*
Y188784D01*
X73458Y191700D02*
X74041Y192283D01*
X75208D01*
X75791Y191700D01*
Y191117D01*
X75208Y190533D01*
X75791Y189950D01*
Y189367D01*
X75208Y188784D01*
X74041D01*
X73458Y189367D01*
Y189950D01*
X74041Y190533D01*
X73458Y191117D01*
Y191700D01*
X74041Y190533D02*
X75208D01*
X74600Y225637D02*
X74017Y226220D01*
X72851D01*
X72268Y225637D01*
Y223304D01*
X72851Y222721D01*
X74017D01*
X74600Y223304D01*
X75766Y225637D02*
X76350Y226220D01*
X77516D01*
X78099Y225637D01*
Y225053D01*
X77516Y224470D01*
X78099Y223887D01*
Y223304D01*
X77516Y222721D01*
X76350D01*
X75766Y223304D01*
Y223887D01*
X76350Y224470D01*
X75766Y225053D01*
Y225637D01*
X76350Y224470D02*
X77516D01*
X79265Y222721D02*
X80432D01*
X79848D01*
Y226220D01*
X79265Y225637D01*
X260109Y35646D02*
Y39145D01*
X261858D01*
X262442Y38562D01*
Y37396D01*
X261858Y36813D01*
X260109D01*
X261275D02*
X262442Y35646D01*
X265357D02*
Y39145D01*
X263608Y37396D01*
X265940D01*
X243630Y42946D02*
Y39447D01*
X241880D01*
X241297Y40030D01*
Y41196D01*
X241880Y41779D01*
X243630D01*
X242463D02*
X241297Y42946D01*
X240131Y39447D02*
X237798D01*
Y40030D01*
X240131Y42362D01*
Y42946D01*
X146569Y108609D02*
X145986Y109192D01*
X144819D01*
X144236Y108609D01*
Y106277D01*
X144819Y105693D01*
X145986D01*
X146569Y106277D01*
X150068Y109192D02*
X147735D01*
Y107443D01*
X148901Y108026D01*
X149484D01*
X150068Y107443D01*
Y106277D01*
X149484Y105693D01*
X148318D01*
X147735Y106277D01*
X153567Y109192D02*
X152400Y108609D01*
X151234Y107443D01*
Y106277D01*
X151817Y105693D01*
X152983D01*
X153567Y106277D01*
Y106860D01*
X152983Y107443D01*
X151234D01*
X76028Y269704D02*
Y266205D01*
X77777D01*
X78360Y266789D01*
Y269121D01*
X77777Y269704D01*
X76028D01*
X79526Y266205D02*
X80693D01*
X80110D01*
Y269704D01*
X79526Y269121D01*
X82442Y266205D02*
X83608D01*
X83025D01*
Y269704D01*
X82442Y269121D01*
X44870Y255435D02*
X42537D01*
X41371Y253685D02*
X39039Y257184D01*
Y253685D02*
X41371Y257184D01*
X44870Y280304D02*
X42537D01*
X43704Y279137D02*
Y281470D01*
X41371Y278554D02*
X39039Y282053D01*
Y278554D02*
X41371Y282053D01*
X211234Y108255D02*
X210651Y108838D01*
X209485D01*
X208902Y108255D01*
Y105922D01*
X209485Y105339D01*
X210651D01*
X211234Y105922D01*
X212400Y105339D02*
X213567D01*
X212983D01*
Y108838D01*
X212400Y108255D01*
X217649Y108838D02*
X216482Y108255D01*
X215316Y107089D01*
Y105922D01*
X215899Y105339D01*
X217066D01*
X217649Y105922D01*
Y106506D01*
X217066Y107089D01*
X215316D01*
X220671Y57652D02*
X220088Y57069D01*
Y55903D01*
X220671Y55319D01*
X223003D01*
X223587Y55903D01*
Y57069D01*
X223003Y57652D01*
X220671Y58818D02*
X220088Y59402D01*
Y60568D01*
X220671Y61151D01*
X221254D01*
X221837Y60568D01*
Y59985D01*
Y60568D01*
X222420Y61151D01*
X223003D01*
X223587Y60568D01*
Y59402D01*
X223003Y58818D01*
X62218Y185125D02*
X61635Y185708D01*
X60469D01*
X59886Y185125D01*
Y182792D01*
X60469Y182209D01*
X61635D01*
X62218Y182792D01*
X63385Y185708D02*
X65717D01*
Y185125D01*
X63385Y182792D01*
Y182209D01*
X66883Y185708D02*
X69216D01*
Y185125D01*
X66883Y182792D01*
Y182209D01*
X167381Y151146D02*
X163882D01*
Y149397D01*
X164465Y148814D01*
X166797D01*
X167381Y149397D01*
Y151146D01*
X164465Y147647D02*
X163882Y147064D01*
Y145898D01*
X164465Y145315D01*
X166797D01*
X167381Y145898D01*
Y147064D01*
X166797Y147647D01*
X166214D01*
X165631Y147064D01*
Y145315D01*
X44870Y305172D02*
X42537D01*
X41371Y303423D02*
Y304006D01*
X40205Y305172D01*
X39039Y304006D01*
Y303423D01*
X40205Y305172D02*
Y306922D01*
X137324Y56353D02*
X136741Y55770D01*
Y54603D01*
X137324Y54020D01*
X139657D01*
X140240Y54603D01*
Y55770D01*
X139657Y56353D01*
X140240Y57519D02*
Y58685D01*
Y58102D01*
X136741D01*
X137324Y57519D01*
X140240Y62184D02*
X136741D01*
X138491Y60435D01*
Y62767D01*
X34321Y19700D02*
X33737Y20283D01*
X32571D01*
X31988Y19700D01*
Y19117D01*
X32571Y18534D01*
X33737D01*
X34321Y17951D01*
Y17368D01*
X33737Y16784D01*
X32571D01*
X31988Y17368D01*
X35487Y20283D02*
Y16784D01*
X36653Y17951D01*
X37820Y16784D01*
Y20283D01*
X41318Y16784D02*
X38986D01*
X41318Y19117D01*
Y19700D01*
X40735Y20283D01*
X39569D01*
X38986Y19700D01*
X74600Y258559D02*
X74017Y259142D01*
X72851D01*
X72268Y258559D01*
Y256227D01*
X72851Y255643D01*
X74017D01*
X74600Y256227D01*
X75766Y255643D02*
X76933D01*
X76350D01*
Y259142D01*
X75766Y258559D01*
X78682Y255643D02*
X79848D01*
X79265D01*
Y259142D01*
X78682Y258559D01*
X81598D02*
X82181Y259142D01*
X83347D01*
X83930Y258559D01*
Y257976D01*
X83347Y257393D01*
X83930Y256810D01*
Y256227D01*
X83347Y255643D01*
X82181D01*
X81598Y256227D01*
Y256810D01*
X82181Y257393D01*
X81598Y257976D01*
Y258559D01*
X82181Y257393D02*
X83347D01*
X187146Y34111D02*
Y37610D01*
X188895D01*
X189478Y37027D01*
Y35860D01*
X188895Y35277D01*
X187146D01*
X188312D02*
X189478Y34111D01*
X190645D02*
X191811D01*
X191228D01*
Y37610D01*
X190645Y37027D01*
X193560Y34111D02*
X194727D01*
X194143D01*
Y37610D01*
X193560Y37027D01*
X120188Y275520D02*
X116689D01*
Y273188D01*
X119605Y272021D02*
X120188Y271438D01*
Y270272D01*
X119605Y269689D01*
X119021D01*
X118438Y270272D01*
X117855Y269689D01*
X117272D01*
X116689Y270272D01*
Y271438D01*
X117272Y272021D01*
X117855D01*
X118438Y271438D01*
X119021Y272021D01*
X119605D01*
X118438Y271438D02*
Y270272D01*
X118707Y56786D02*
X119290Y57369D01*
Y58536D01*
X118707Y59119D01*
X116374D01*
X115791Y58536D01*
Y57369D01*
X116374Y56786D01*
X119290Y53287D02*
Y55620D01*
X117541D01*
X118124Y54453D01*
Y53870D01*
X117541Y53287D01*
X116374D01*
X115791Y53870D01*
Y55037D01*
X116374Y55620D01*
X118707Y52121D02*
X119290Y51538D01*
Y50371D01*
X118707Y49788D01*
X118124D01*
X117541Y50371D01*
Y50955D01*
Y50371D01*
X116957Y49788D01*
X116374D01*
X115791Y50371D01*
Y51538D01*
X116374Y52121D01*
X246487Y35646D02*
Y39145D01*
X248236D01*
X248819Y38562D01*
Y37396D01*
X248236Y36813D01*
X246487D01*
X247653D02*
X248819Y35646D01*
X252318Y39145D02*
X251152Y38562D01*
X249986Y37396D01*
Y36229D01*
X250569Y35646D01*
X251735D01*
X252318Y36229D01*
Y36813D01*
X251735Y37396D01*
X249986D01*
X74600Y203688D02*
X74017Y204271D01*
X72851D01*
X72268Y203688D01*
Y201355D01*
X72851Y200772D01*
X74017D01*
X74600Y201355D01*
X75766Y204271D02*
X78099D01*
Y203688D01*
X75766Y201355D01*
Y200772D01*
X79265Y201355D02*
X79848Y200772D01*
X81015D01*
X81598Y201355D01*
Y203688D01*
X81015Y204271D01*
X79848D01*
X79265Y203688D01*
Y203105D01*
X79848Y202522D01*
X81598D01*
X283642Y338914D02*
Y342413D01*
X285391D01*
X285974Y341830D01*
Y340663D01*
X285391Y340080D01*
X283642D01*
X284808D02*
X285974Y338914D01*
X289473D02*
X287140D01*
X289473Y341247D01*
Y341830D01*
X288890Y342413D01*
X287724D01*
X287140Y341830D01*
X292972Y342413D02*
X290639D01*
Y340663D01*
X291806Y341247D01*
X292389D01*
X292972Y340663D01*
Y339497D01*
X292389Y338914D01*
X291223D01*
X290639Y339497D01*
X228636Y72448D02*
X228052Y73031D01*
X226886D01*
X226303Y72448D01*
Y70115D01*
X226886Y69532D01*
X228052D01*
X228636Y70115D01*
X229802Y69532D02*
X230968D01*
X230385D01*
Y73031D01*
X229802Y72448D01*
X163114Y88115D02*
Y84616D01*
X161365D01*
X160782Y85199D01*
Y86365D01*
X161365Y86949D01*
X163114D01*
X161948D02*
X160782Y88115D01*
X157283Y84616D02*
X159615D01*
Y86365D01*
X158449Y85782D01*
X157866D01*
X157283Y86365D01*
Y87532D01*
X157866Y88115D01*
X159032D01*
X159615Y87532D01*
X153784Y84616D02*
X156116D01*
Y86365D01*
X154950Y85782D01*
X154367D01*
X153784Y86365D01*
Y87532D01*
X154367Y88115D01*
X155533D01*
X156116Y87532D01*
X108724Y113936D02*
Y110438D01*
X111057D01*
X114556Y113936D02*
X113390Y113353D01*
X112223Y112187D01*
Y111021D01*
X112806Y110438D01*
X113973D01*
X114556Y111021D01*
Y111604D01*
X113973Y112187D01*
X112223D01*
X131143Y56353D02*
X130560Y55770D01*
Y54603D01*
X131143Y54020D01*
X133476D01*
X134059Y54603D01*
Y55770D01*
X133476Y56353D01*
X134059Y57519D02*
Y58685D01*
Y58102D01*
X130560D01*
X131143Y57519D01*
X134059Y62767D02*
Y60435D01*
X131726Y62767D01*
X131143D01*
X130560Y62184D01*
Y61018D01*
X131143Y60435D01*
X87831Y16785D02*
Y18753D01*
X88815D01*
X89143Y18425D01*
Y17768D01*
X88815Y17440D01*
X87831D01*
X89799Y18425D02*
X90127Y18753D01*
X90782D01*
X91110Y18425D01*
Y18097D01*
X90782Y17768D01*
X90455D01*
X90782D01*
X91110Y17440D01*
Y17113D01*
X90782Y16785D01*
X90127D01*
X89799Y17113D01*
X135206Y18326D02*
X134878Y18654D01*
X134222D01*
X133894Y18326D01*
Y17998D01*
X134222Y17670D01*
X134878D01*
X135206Y17342D01*
Y17014D01*
X134878Y16686D01*
X134222D01*
X133894Y17014D01*
X135862Y18654D02*
Y16686D01*
X136846D01*
X137173Y17014D01*
Y17342D01*
X136846Y17670D01*
X135862D01*
X136846D01*
X137173Y17998D01*
Y18326D01*
X136846Y18654D01*
X135862D01*
X137829D02*
Y16686D01*
X138485Y17342D01*
X139141Y16686D01*
Y18654D01*
D176*
X103311Y69414D02*
Y86048D01*
D178*
X249536Y191304D02*
X252452D01*
X253035Y190721D01*
Y189554D01*
X252452Y188971D01*
X249536D01*
X253035Y187805D02*
Y186639D01*
Y187222D01*
X249536D01*
X250120Y187805D01*
X253035Y182557D02*
Y184889D01*
X250703Y182557D01*
X250120D01*
X249536Y183140D01*
Y184306D01*
X250120Y184889D01*
M02*
