G04*
G04 #@! TF.GenerationSoftware,Altium Limited,Altium Designer,18.1.7 (191)*
G04*
G04 Layer_Color=65535*
%FSLAX25Y25*%
%MOIN*%
G70*
G01*
G75*
%ADD10C,0.01500*%
%ADD11C,0.01000*%
%ADD12C,0.01968*%
%ADD13C,0.00787*%
%ADD14C,0.00100*%
%ADD15C,0.00394*%
%ADD16C,0.00591*%
%ADD17C,0.00800*%
%ADD18R,0.06000X0.02000*%
%ADD19R,0.02000X0.06000*%
%ADD20R,0.02500X0.06000*%
%ADD21R,0.00695X0.18012*%
%ADD22R,0.06000X0.02500*%
%ADD23R,0.01300X0.03000*%
%ADD24R,0.00695X0.18012*%
%ADD25R,0.00695X0.18012*%
D10*
X52941Y128056D02*
G03*
X53150Y128052I95J-591D01*
G01*
X1894Y94488D02*
G03*
X2103Y94485I95J-591D01*
G01*
D11*
X244866Y66855D02*
G03*
X247366Y66855I1250J0D01*
G01*
X181894Y297249D02*
G03*
X179394Y297249I-1250J0D01*
G01*
X182051Y246052D02*
G03*
X179551Y246052I-1250J0D01*
G01*
X302317Y160014D02*
G03*
X302317Y160014I-502J0D01*
G01*
X91165Y65753D02*
G03*
X93665Y65753I1250J0D01*
G01*
X256798Y151934D02*
G03*
X259298Y151934I1250J0D01*
G01*
X140791Y163095D02*
G03*
X140791Y160595I0J-1250D01*
G01*
X224925Y327288D02*
G03*
X224925Y329788I0J1250D01*
G01*
X256303Y327288D02*
G03*
X256303Y329788I0J1250D01*
G01*
X182051Y193272D02*
G03*
X179551Y193272I-1250J0D01*
G01*
X253331Y283981D02*
G03*
X250831Y283981I-1250J0D01*
G01*
X49020Y84257D02*
G03*
X51520Y84257I1250J0D01*
G01*
X48980Y107131D02*
G03*
X51480Y107131I1250J0D01*
G01*
X167464Y66855D02*
G03*
X169964Y66855I1250J0D01*
G01*
X258720Y215234D02*
X303920D01*
Y215034D02*
Y215234D01*
X260520Y173334D02*
X303820D01*
X259020Y173234D02*
X260520Y173334D01*
X303920Y203834D02*
Y215034D01*
X303820Y173334D02*
Y184734D01*
X258720Y203834D02*
Y215234D01*
X259020Y173234D02*
Y185034D01*
X252504Y46855D02*
Y66855D01*
X247386D02*
X252504D01*
X240496D02*
X244827D01*
X240496Y46855D02*
X252504D01*
X240496D02*
Y66855D01*
X275732Y41732D02*
Y69173D01*
X200732Y48449D02*
Y67165D01*
X187153Y297249D02*
Y317249D01*
X174085D02*
X187153D01*
X174085Y297249D02*
Y317249D01*
Y297249D02*
X179394D01*
X181894D02*
X187153D01*
X44886Y335503D02*
Y346934D01*
X86023D01*
X44886Y335503D02*
X86023D01*
Y346934D01*
X187311Y246052D02*
Y266052D01*
X174242D02*
X187311D01*
X174242Y246052D02*
Y266052D01*
Y246052D02*
X179551D01*
X182051D02*
X187311D01*
X171894Y161185D02*
X183694D01*
X202494Y161485D02*
X213894D01*
X171994Y116385D02*
X183394D01*
X202494Y116285D02*
X213694D01*
X171894Y161185D02*
X171994Y159685D01*
Y116385D02*
Y159685D01*
X213694Y116285D02*
X213894D01*
Y161485D01*
X14492Y158338D02*
Y169768D01*
X33976D01*
X14492Y158338D02*
X33976D01*
Y169768D01*
X98803Y45753D02*
Y65753D01*
X93685D02*
X98803D01*
X86795D02*
X91126D01*
X86795Y45753D02*
X98803D01*
X86795D02*
Y65753D01*
X264436Y131934D02*
Y151934D01*
X259318D02*
X264436D01*
X252428D02*
X256759D01*
X252428Y131934D02*
X264436D01*
X252428D02*
Y151934D01*
X14492Y232944D02*
Y244374D01*
X33976D01*
X14492Y232944D02*
X33976D01*
Y244374D01*
X120791Y155457D02*
X140791D01*
Y160575D01*
Y163135D02*
Y167465D01*
X120791Y155457D02*
Y167465D01*
X140791D01*
X127031Y69512D02*
Y71087D01*
X106559Y69512D02*
X127031D01*
X106559D02*
Y71087D01*
X127031Y83686D02*
Y85260D01*
X106559D02*
X127031D01*
X106559Y83686D02*
Y85260D01*
X224925Y322028D02*
X244925D01*
Y335097D01*
X224925D02*
X244925D01*
X224925Y329788D02*
Y335097D01*
Y322028D02*
Y327288D01*
X256303Y322028D02*
X276303D01*
Y335097D01*
X256303D02*
X276303D01*
X256303Y329788D02*
Y335097D01*
Y322028D02*
Y327288D01*
X253546Y256708D02*
Y268508D01*
X253846Y226508D02*
Y237908D01*
X208746Y257008D02*
Y268408D01*
X208646Y226708D02*
Y237908D01*
X252046Y268408D02*
X253546Y268508D01*
X208746Y268408D02*
X252046D01*
X208646Y226508D02*
Y226708D01*
Y226508D02*
X253846D01*
X187311Y193272D02*
Y213272D01*
X174242D02*
X187311D01*
X174242Y193272D02*
Y213272D01*
Y193272D02*
X179551D01*
X182051D02*
X187311D01*
X245693Y283981D02*
Y303981D01*
Y283981D02*
X250811D01*
X253370D02*
X257701D01*
X245693Y303981D02*
X257701D01*
Y283981D02*
Y303981D01*
X242406Y4726D02*
Y16156D01*
X201268Y4726D02*
X242406D01*
X201268Y16156D02*
X242406D01*
X201268Y4726D02*
Y16156D01*
X43760Y64257D02*
Y84257D01*
Y64257D02*
X56828D01*
Y84257D01*
X51520D02*
X56828D01*
X43760D02*
X49020D01*
X5335Y44626D02*
X17047D01*
X5335D02*
Y74543D01*
X17047Y44626D02*
Y74543D01*
X5335D02*
X17047D01*
X14492Y183206D02*
Y194637D01*
X33976D01*
X14492Y183206D02*
X33976D01*
Y194637D01*
X43720Y87130D02*
Y107131D01*
Y87130D02*
X56789D01*
Y107131D01*
X51480D02*
X56789D01*
X43720D02*
X48980D01*
X14492Y208075D02*
Y219506D01*
X33976D01*
X14492Y208075D02*
X33976D01*
Y219506D01*
X175102Y46855D02*
Y66855D01*
X169984D02*
X175102D01*
X163094D02*
X167425D01*
X163094Y46855D02*
X175102D01*
X163094D02*
Y66855D01*
X308862Y4726D02*
Y16156D01*
X267724Y4726D02*
X308862D01*
X267724Y16156D02*
X308862D01*
X267724Y4726D02*
Y16156D01*
X14492Y257813D02*
Y269244D01*
X33976D01*
X14492Y257813D02*
X33976D01*
Y269244D01*
X14492Y282681D02*
Y294112D01*
X33976D01*
X14492Y282681D02*
X33976D01*
Y294112D01*
X14492Y307550D02*
Y318981D01*
X33976D01*
X14492Y307550D02*
X33976D01*
Y318981D01*
X72799Y4725D02*
Y16438D01*
X42882Y4725D02*
X72799D01*
X42882Y16438D02*
X72799D01*
X42882Y4725D02*
Y16438D01*
X98724Y4725D02*
Y16156D01*
X118209D01*
X98724Y4725D02*
X118209D01*
Y16156D01*
X144787Y4627D02*
Y16340D01*
X174705D01*
X144787Y4627D02*
X174705D01*
Y16340D01*
X200684Y191445D02*
X197352D01*
Y186446D01*
X200684D01*
X197352Y188946D02*
X199018D01*
X202350Y186446D02*
Y191445D01*
X204850D01*
X205683Y190612D01*
Y188946D01*
X204850Y188113D01*
X202350D01*
X210681Y190612D02*
X209848Y191445D01*
X208182D01*
X207349Y190612D01*
Y189779D01*
X208182Y188946D01*
X209848D01*
X210681Y188113D01*
Y187279D01*
X209848Y186446D01*
X208182D01*
X207349Y187279D01*
X220678Y186446D02*
X217345D01*
X220678Y189779D01*
Y190612D01*
X219845Y191445D01*
X218179D01*
X217345Y190612D01*
X193187Y182214D02*
X192354Y183047D01*
X190688D01*
X189854Y182214D01*
Y181381D01*
X190688Y180548D01*
X192354D01*
X193187Y179715D01*
Y178881D01*
X192354Y178048D01*
X190688D01*
X189854Y178881D01*
X194853Y176382D02*
Y181381D01*
X197352D01*
X198185Y180548D01*
Y178881D01*
X197352Y178048D01*
X194853D01*
X200684Y181381D02*
X202350D01*
X203183Y180548D01*
Y178048D01*
X200684D01*
X199851Y178881D01*
X200684Y179715D01*
X203183D01*
X208182Y181381D02*
X205683D01*
X204850Y180548D01*
Y178881D01*
X205683Y178048D01*
X208182D01*
X212347D02*
X210681D01*
X209848Y178881D01*
Y180548D01*
X210681Y181381D01*
X212347D01*
X213180Y180548D01*
Y179715D01*
X209848D01*
X214846Y183047D02*
Y178048D01*
X218179D01*
X220678Y181381D02*
X222344D01*
X223177Y180548D01*
Y178048D01*
X220678D01*
X219845Y178881D01*
X220678Y179715D01*
X223177D01*
X224843Y183047D02*
Y178048D01*
X227342D01*
X228175Y178881D01*
Y179715D01*
Y180548D01*
X227342Y181381D01*
X224843D01*
X199851Y172983D02*
Y168817D01*
X200684Y167984D01*
X202350D01*
X203183Y168817D01*
Y172983D01*
X208182D02*
X204850D01*
Y170483D01*
X206516D01*
X204850D01*
Y167984D01*
X213180Y172150D02*
X212347Y172983D01*
X210681D01*
X209848Y172150D01*
Y171316D01*
X210681Y170483D01*
X212347D01*
X213180Y169650D01*
Y168817D01*
X212347Y167984D01*
X210681D01*
X209848Y168817D01*
X218179Y172150D02*
X217345Y172983D01*
X215679D01*
X214846Y172150D01*
Y168817D01*
X215679Y167984D01*
X217345D01*
X218179Y168817D01*
D12*
X88744Y332564D02*
G03*
X88744Y332564I-354J0D01*
G01*
X36697Y155398D02*
G03*
X36697Y155398I-354J0D01*
G01*
X36697Y230005D02*
G03*
X36697Y230005I-354J0D01*
G01*
X199256Y19096D02*
G03*
X199256Y19096I-354J0D01*
G01*
X20059Y76910D02*
G03*
X20059Y76910I-354J0D01*
G01*
X36697Y180267D02*
G03*
X36697Y180267I-354J0D01*
G01*
Y205136D02*
G03*
X36697Y205136I-354J0D01*
G01*
X265712Y19096D02*
G03*
X265712Y19096I-354J0D01*
G01*
X36697Y254873D02*
G03*
X36697Y254873I-354J0D01*
G01*
Y279742D02*
G03*
X36697Y279742I-354J0D01*
G01*
Y304611D02*
G03*
X36697Y304611I-354J0D01*
G01*
X40870Y19096D02*
G03*
X40870Y19096I-354J0D01*
G01*
X96713Y19096D02*
G03*
X96713Y19096I-354J0D01*
G01*
X142776Y18997D02*
G03*
X142776Y18997I-354J0D01*
G01*
D13*
X55417Y125004D02*
Y177481D01*
X75417Y125004D02*
Y177481D01*
X55417Y125004D02*
X75417D01*
X61497Y177481D02*
X69338D01*
X55417D02*
X61497D01*
X69338D02*
X75417D01*
X4370Y91437D02*
Y143914D01*
X24370Y91437D02*
Y143914D01*
X4370Y91437D02*
X24370D01*
X10449Y143914D02*
X18291D01*
X4370D02*
X10449D01*
X18291D02*
X24370D01*
X334570Y43600D02*
Y305608D01*
X314590Y43600D02*
Y305608D01*
X334590Y43600D02*
Y305608D01*
X314590D02*
X334590D01*
X314590Y43600D02*
X334590D01*
X334570Y305608D02*
X354727D01*
X334570Y43600D02*
X354727D01*
Y305608D01*
X102795Y72268D02*
Y82504D01*
X334571Y43627D02*
Y305634D01*
X314590Y43627D02*
Y305634D01*
X334590Y43627D02*
Y305634D01*
X314590D02*
X334590D01*
X314590Y43627D02*
X334590D01*
X334571Y305634D02*
X354728D01*
X334571Y43627D02*
X354728D01*
Y305634D01*
X356855Y157346D02*
X356363Y156854D01*
Y155870D01*
X356855Y155378D01*
X358823D01*
X359315Y155870D01*
Y156854D01*
X358823Y157346D01*
X357839D01*
Y156362D01*
X359315Y158330D02*
X356363D01*
X359315Y160298D01*
X356363D01*
Y161282D02*
X359315D01*
Y162758D01*
X358823Y163250D01*
X356855D01*
X356363Y162758D01*
Y161282D01*
X359315Y78469D02*
X356363D01*
X357839Y76993D01*
Y78961D01*
X356363Y81912D02*
X356855Y80928D01*
X357839Y79944D01*
X358823D01*
X359315Y80436D01*
Y81420D01*
X358823Y81912D01*
X358331D01*
X357839Y81420D01*
Y79944D01*
X359315Y108351D02*
X356363D01*
X357839Y106875D01*
Y108843D01*
X356855Y109826D02*
X356363Y110318D01*
Y111302D01*
X356855Y111794D01*
X358823D01*
X359315Y111302D01*
Y110318D01*
X358823Y109826D01*
X356855D01*
X356855Y147190D02*
X356363Y147681D01*
Y148665D01*
X356855Y149157D01*
X357347D01*
X357839Y148665D01*
Y148173D01*
Y148665D01*
X358331Y149157D01*
X358823D01*
X359315Y148665D01*
Y147681D01*
X358823Y147190D01*
X359315Y152109D02*
Y150141D01*
X357347Y152109D01*
X356855D01*
X356363Y151617D01*
Y150633D01*
X356855Y150141D01*
X359315Y189000D02*
Y187032D01*
X357347Y189000D01*
X356855D01*
X356363Y188508D01*
Y187524D01*
X356855Y187032D01*
X359315Y191460D02*
X356363D01*
X357839Y189984D01*
Y191952D01*
X359315Y227386D02*
Y228370D01*
Y227878D01*
X356363D01*
X356855Y227386D01*
X356363Y231814D02*
X356855Y230830D01*
X357839Y229846D01*
X358823D01*
X359315Y230338D01*
Y231322D01*
X358823Y231814D01*
X358331D01*
X357839Y231322D01*
Y229846D01*
X356855Y268567D02*
X356363Y269059D01*
Y270043D01*
X356855Y270535D01*
X357347D01*
X357839Y270043D01*
X358331Y270535D01*
X358823D01*
X359315Y270043D01*
Y269059D01*
X358823Y268567D01*
X358331D01*
X357839Y269059D01*
X357347Y268567D01*
X356855D01*
X357839Y269059D02*
Y270043D01*
D14*
X80164Y111394D02*
X83464D01*
X79564Y111294D02*
X84064D01*
X79064Y111194D02*
X84564D01*
X78664Y111094D02*
X84964D01*
X78264Y110994D02*
X85364D01*
X77964Y110894D02*
X85664D01*
X77664Y110794D02*
X85964D01*
X77364Y110694D02*
X80464D01*
X83264D02*
X86264D01*
X77064Y110594D02*
X79764D01*
X83864D02*
X86564D01*
X76864Y110494D02*
X79264D01*
X84364D02*
X86764D01*
X76664Y110394D02*
X78864D01*
X84764D02*
X86964D01*
X76464Y110294D02*
X78564D01*
X80864D02*
X81164D01*
X81864D02*
X82764D01*
X85064D02*
X87164D01*
X76264Y110194D02*
X78164D01*
X80764D02*
X81264D01*
X81864D02*
X82964D01*
X85464D02*
X87364D01*
X76064Y110094D02*
X77964D01*
X79264D02*
X79964D01*
X80764D02*
X81264D01*
X81864D02*
X83064D01*
X85764D02*
X87564D01*
X75864Y109994D02*
X77664D01*
X79064D02*
X80164D01*
X80764D02*
X81264D01*
X81864D02*
X83064D01*
X84064D02*
X84464D01*
X85964D02*
X87764D01*
X75664Y109894D02*
X77364D01*
X78964D02*
X80164D01*
X80764D02*
X81264D01*
X81864D02*
X83164D01*
X83964D02*
X84464D01*
X86264D02*
X87964D01*
X75464Y109794D02*
X77164D01*
X78964D02*
X80264D01*
X80764D02*
X81264D01*
X81864D02*
X83164D01*
X83864D02*
X84564D01*
X86464D02*
X88164D01*
X75364Y109694D02*
X76964D01*
X78964D02*
X80264D01*
X80764D02*
X81264D01*
X81764D02*
X82364D01*
X82564D02*
X83164D01*
X83764D02*
X84564D01*
X86664D02*
X88264D01*
X75164Y109594D02*
X76764D01*
X78964D02*
X80264D01*
X80764D02*
X81364D01*
X81764D02*
X83164D01*
X83664D02*
X84564D01*
X86864D02*
X88464D01*
X75064Y109494D02*
X76564D01*
X77464D02*
X78064D01*
X78964D02*
X79564D01*
X79664D02*
X80264D01*
X80764D02*
X81364D01*
X81764D02*
X83064D01*
X83664D02*
X84564D01*
X85664D02*
X86064D01*
X87064D02*
X88564D01*
X74864Y109394D02*
X76364D01*
X77264D02*
X78264D01*
X78964D02*
X80264D01*
X80764D02*
X81364D01*
X81764D02*
X83064D01*
X83564D02*
X84664D01*
X85464D02*
X86364D01*
X87264D02*
X88764D01*
X74764Y109294D02*
X76164D01*
X77164D02*
X78364D01*
X78964D02*
X80164D01*
X80764D02*
X81364D01*
X81764D02*
X82964D01*
X83464D02*
X84664D01*
X85464D02*
X86564D01*
X87464D02*
X88864D01*
X74564Y109194D02*
X75964D01*
X77064D02*
X78464D01*
X78964D02*
X80164D01*
X80764D02*
X81364D01*
X81764D02*
X82364D01*
X82564D02*
X82664D01*
X83364D02*
X84664D01*
X85364D02*
X86564D01*
X87664D02*
X89064D01*
X74464Y109094D02*
X75864D01*
X76964D02*
X78564D01*
X78964D02*
X80264D01*
X80764D02*
X81364D01*
X81764D02*
X82364D01*
X83364D02*
X84664D01*
X85364D02*
X86564D01*
X87864D02*
X89164D01*
X74364Y108994D02*
X75664D01*
X76964D02*
X78564D01*
X79064D02*
X80364D01*
X80764D02*
X81364D01*
X81764D02*
X82364D01*
X83264D02*
X84664D01*
X85264D02*
X86564D01*
X87964D02*
X89264D01*
X74264Y108894D02*
X75464D01*
X76964D02*
X77564D01*
X77964D02*
X78564D01*
X79064D02*
X80364D01*
X80864D02*
X81364D01*
X81764D02*
X82364D01*
X83264D02*
X84664D01*
X85264D02*
X85964D01*
X86064D02*
X86564D01*
X88164D02*
X89464D01*
X74064Y108794D02*
X75364D01*
X76864D02*
X77464D01*
X78064D02*
X78564D01*
X79064D02*
X80464D01*
X80864D02*
X81364D01*
X81764D02*
X82264D01*
X83264D02*
X84664D01*
X85364D02*
X86164D01*
X88264D02*
X89564D01*
X73964Y108694D02*
X75164D01*
X76864D02*
X77464D01*
X78064D02*
X78664D01*
X79064D02*
X79664D01*
X79764D02*
X80464D01*
X80864D02*
X81264D01*
X81864D02*
X82264D01*
X83264D02*
X83764D01*
X84064D02*
X84664D01*
X85364D02*
X86364D01*
X88464D02*
X89664D01*
X73864Y108594D02*
X75064D01*
X76864D02*
X77464D01*
X78064D02*
X78564D01*
X79164D02*
X79664D01*
X79964D02*
X80364D01*
X83264D02*
X83664D01*
X84164D02*
X84664D01*
X85464D02*
X86364D01*
X88564D02*
X89764D01*
X73764Y108494D02*
X74964D01*
X75564D02*
X75964D01*
X76864D02*
X77564D01*
X77964D02*
X78564D01*
X79164D02*
X79664D01*
X84164D02*
X84664D01*
X85164D02*
X85564D01*
X85664D02*
X86364D01*
X87664D02*
X88064D01*
X88664D02*
X89864D01*
X73664Y108394D02*
X74764D01*
X75564D02*
X76064D01*
X76964D02*
X77664D01*
X77864D02*
X78564D01*
X79264D02*
X79464D01*
X84164D02*
X84664D01*
X85064D02*
X86364D01*
X87464D02*
X88064D01*
X88864D02*
X90064D01*
X73464Y108294D02*
X74664D01*
X75564D02*
X76064D01*
X76964D02*
X78564D01*
X81564D02*
X82064D01*
X85064D02*
X86364D01*
X87264D02*
X88064D01*
X88964D02*
X90164D01*
X73364Y108194D02*
X74564D01*
X75564D02*
X76164D01*
X77064D02*
X78464D01*
X80464D02*
X83264D01*
X85064D02*
X86364D01*
X87164D02*
X88064D01*
X89064D02*
X90264D01*
X73264Y108094D02*
X74464D01*
X75564D02*
X76264D01*
X77064D02*
X78364D01*
X79864D02*
X83764D01*
X85064D02*
X86264D01*
X86964D02*
X88064D01*
X89164D02*
X90364D01*
X73164Y107994D02*
X74264D01*
X75664D02*
X76364D01*
X77164D02*
X78264D01*
X79464D02*
X84164D01*
X85264D02*
X86264D01*
X86864D02*
X88064D01*
X89364D02*
X90464D01*
X73064Y107894D02*
X74164D01*
X75664D02*
X76364D01*
X77364D02*
X78164D01*
X79164D02*
X84564D01*
X85464D02*
X86164D01*
X86664D02*
X88064D01*
X89464D02*
X90564D01*
X72964Y107794D02*
X74064D01*
X74664D02*
X75164D01*
X75764D02*
X76464D01*
X78864D02*
X80764D01*
X82964D02*
X84864D01*
X86564D02*
X88064D01*
X89564D02*
X90664D01*
X72864Y107694D02*
X73964D01*
X74564D02*
X75264D01*
X75764D02*
X77064D01*
X78564D02*
X80164D01*
X83564D02*
X85064D01*
X86464D02*
X87964D01*
X88664D02*
X89064D01*
X89664D02*
X90764D01*
X72764Y107594D02*
X73864D01*
X74364D02*
X75264D01*
X75864D02*
X77064D01*
X78264D02*
X79764D01*
X83964D02*
X85364D01*
X86464D02*
X87964D01*
X88564D02*
X89164D01*
X89764D02*
X90864D01*
X72664Y107494D02*
X73764D01*
X74264D02*
X75164D01*
X75964D02*
X77064D01*
X78064D02*
X79364D01*
X84364D02*
X85564D01*
X86464D02*
X87964D01*
X88564D02*
X89264D01*
X89864D02*
X90964D01*
X72664Y107394D02*
X73664D01*
X74164D02*
X75064D01*
X75964D02*
X76964D01*
X77864D02*
X79064D01*
X84664D02*
X85764D01*
X86464D02*
X86964D01*
X87064D02*
X87964D01*
X88564D02*
X89464D01*
X89964D02*
X91064D01*
X72564Y107294D02*
X73564D01*
X74164D02*
X75464D01*
X76064D02*
X76964D01*
X77664D02*
X78764D01*
X84964D02*
X85964D01*
X87264D02*
X87964D01*
X88664D02*
X89464D01*
X90064D02*
X91064D01*
X72464Y107194D02*
X73464D01*
X74164D02*
X75464D01*
X76164D02*
X76764D01*
X77464D02*
X78464D01*
X85164D02*
X86164D01*
X87264D02*
X87864D01*
X88664D02*
X89564D01*
X90164D02*
X91164D01*
X72364Y107094D02*
X73364D01*
X74164D02*
X75464D01*
X76164D02*
X76664D01*
X77264D02*
X78264D01*
X85364D02*
X86364D01*
X87264D02*
X87864D01*
X88564D02*
X89664D01*
X90264D02*
X91264D01*
X72264Y106994D02*
X73264D01*
X74164D02*
X75464D01*
X77064D02*
X78064D01*
X85564D02*
X86564D01*
X87264D02*
X87864D01*
X88464D02*
X89664D01*
X90364D02*
X91364D01*
X72164Y106894D02*
X73164D01*
X74164D02*
X75364D01*
X76964D02*
X78064D01*
X85764D02*
X86664D01*
X87364D02*
X87764D01*
X88364D02*
X89664D01*
X90464D02*
X91464D01*
X72164Y106794D02*
X73064D01*
X74264D02*
X75264D01*
X76764D02*
X77664D01*
X77764D02*
X78364D01*
X85964D02*
X86864D01*
X87464D02*
X87664D01*
X88264D02*
X89664D01*
X90564D02*
X91564D01*
X72064Y106694D02*
X73064D01*
X74364D02*
X75164D01*
X76664D02*
X77464D01*
X78064D02*
X78564D01*
X86164D02*
X86964D01*
X88164D02*
X89064D01*
X90664D02*
X91564D01*
X71964Y106594D02*
X72964D01*
X74464D02*
X75264D01*
X76464D02*
X77264D01*
X78264D02*
X78764D01*
X86364D02*
X87164D01*
X88164D02*
X88964D01*
X90664D02*
X91664D01*
X71864Y106494D02*
X72864D01*
X74564D02*
X75364D01*
X76364D02*
X77164D01*
X78464D02*
X78864D01*
X86464D02*
X87264D01*
X88064D02*
X88864D01*
X90764D02*
X91764D01*
X71864Y106394D02*
X72764D01*
X74664D02*
X75364D01*
X76264D02*
X76964D01*
X78564D02*
X79064D01*
X86664D02*
X87364D01*
X88064D02*
X88764D01*
X90864D02*
X91864D01*
X71764Y106294D02*
X72664D01*
X74764D02*
X75364D01*
X76064D02*
X76864D01*
X78764D02*
X79264D01*
X86764D02*
X87564D01*
X88064D02*
X88664D01*
X90964D02*
X91864D01*
X71664Y106194D02*
X72664D01*
X74764D02*
X75364D01*
X75964D02*
X76664D01*
X78964D02*
X79364D01*
X86864D02*
X87664D01*
X88164D02*
X88564D01*
X91064D02*
X91964D01*
X71564Y106094D02*
X72564D01*
X74864D02*
X75364D01*
X75864D02*
X76564D01*
X79064D02*
X79564D01*
X87064D02*
X87764D01*
X91064D02*
X92064D01*
X71564Y105994D02*
X72464D01*
X75764D02*
X76464D01*
X79264D02*
X79664D01*
X87164D02*
X87864D01*
X91164D02*
X92064D01*
X71464Y105894D02*
X72364D01*
X75664D02*
X76364D01*
X79364D02*
X79764D01*
X87264D02*
X87964D01*
X91264D02*
X92164D01*
X71464Y105794D02*
X72364D01*
X75564D02*
X76264D01*
X79464D02*
X79964D01*
X87364D02*
X88064D01*
X91364D02*
X92264D01*
X71364Y105694D02*
X72264D01*
X75464D02*
X76164D01*
X79664D02*
X80064D01*
X87564D02*
X88164D01*
X91364D02*
X92264D01*
X71264Y105594D02*
X72164D01*
X75364D02*
X76064D01*
X79764D02*
X80264D01*
X87664D02*
X88264D01*
X91464D02*
X92364D01*
X71264Y105494D02*
X72164D01*
X75264D02*
X75864D01*
X79864D02*
X80364D01*
X87764D02*
X88364D01*
X91564D02*
X92464D01*
X71164Y105394D02*
X72064D01*
X75164D02*
X75764D01*
X79964D02*
X80464D01*
X85064D02*
X85164D01*
X87864D02*
X88464D01*
X91564D02*
X92464D01*
X71164Y105294D02*
X71964D01*
X75064D02*
X75664D01*
X80064D02*
X80564D01*
X84964D02*
X85364D01*
X87964D02*
X88564D01*
X91664D02*
X92564D01*
X71064Y105194D02*
X71964D01*
X74964D02*
X75564D01*
X80264D02*
X80764D01*
X84964D02*
X85464D01*
X88064D02*
X88664D01*
X91764D02*
X92564D01*
X70964Y105094D02*
X71864D01*
X74864D02*
X75464D01*
X80364D02*
X80864D01*
X84964D02*
X85464D01*
X88164D02*
X88764D01*
X91764D02*
X92664D01*
X70964Y104994D02*
X71864D01*
X74764D02*
X75364D01*
X80464D02*
X80964D01*
X84964D02*
X85364D01*
X88264D02*
X88864D01*
X91864D02*
X92664D01*
X70864Y104894D02*
X71764D01*
X74664D02*
X75364D01*
X80564D02*
X81064D01*
X85164D02*
X85364D01*
X88364D02*
X88964D01*
X91864D02*
X92764D01*
X70864Y104794D02*
X71664D01*
X74664D02*
X75264D01*
X80664D02*
X81164D01*
X88364D02*
X89064D01*
X91964D02*
X92764D01*
X70764Y104694D02*
X71664D01*
X74564D02*
X75164D01*
X80764D02*
X81264D01*
X86364D02*
X86664D01*
X88464D02*
X89064D01*
X91964D02*
X92864D01*
X70764Y104594D02*
X71564D01*
X74464D02*
X75064D01*
X80864D02*
X81364D01*
X86364D02*
X86764D01*
X88564D02*
X89164D01*
X92064D02*
X92864D01*
X70664Y104494D02*
X71564D01*
X74364D02*
X74964D01*
X80964D02*
X81464D01*
X86264D02*
X86764D01*
X88664D02*
X89264D01*
X92164D02*
X92964D01*
X70664Y104394D02*
X71464D01*
X74364D02*
X74864D01*
X81064D02*
X81564D01*
X86264D02*
X86764D01*
X88764D02*
X89364D01*
X92164D02*
X92964D01*
X70564Y104294D02*
X71464D01*
X74264D02*
X74864D01*
X81164D02*
X81664D01*
X86464D02*
X86664D01*
X88764D02*
X89364D01*
X92264D02*
X93064D01*
X70564Y104194D02*
X71364D01*
X74164D02*
X74764D01*
X81264D02*
X81764D01*
X88864D02*
X89464D01*
X92264D02*
X93064D01*
X70464Y104094D02*
X71364D01*
X74164D02*
X74664D01*
X81264D02*
X81864D01*
X88964D02*
X89564D01*
X92364D02*
X93164D01*
X70464Y103994D02*
X71264D01*
X74064D02*
X74564D01*
X75564D02*
X76564D01*
X77764D02*
X78264D01*
X81364D02*
X81964D01*
X89064D02*
X89564D01*
X92364D02*
X93164D01*
X70464Y103894D02*
X71264D01*
X73964D02*
X74564D01*
X75164D02*
X77164D01*
X77464D02*
X78464D01*
X81464D02*
X82064D01*
X84464D02*
X84664D01*
X89064D02*
X89664D01*
X92464D02*
X93264D01*
X70364Y103794D02*
X71264D01*
X73964D02*
X74464D01*
X74764D02*
X78664D01*
X81564D02*
X82064D01*
X84364D02*
X84864D01*
X89164D02*
X89664D01*
X92464D02*
X93264D01*
X70364Y103694D02*
X71164D01*
X73864D02*
X78864D01*
X81664D02*
X82164D01*
X84364D02*
X84964D01*
X86064D02*
X86464D01*
X89264D02*
X89764D01*
X92464D02*
X93264D01*
X70264Y103594D02*
X71164D01*
X73864D02*
X79064D01*
X81764D02*
X82264D01*
X84364D02*
X84964D01*
X85964D02*
X86464D01*
X89264D02*
X89864D01*
X92564D02*
X93364D01*
X70264Y103494D02*
X71064D01*
X73764D02*
X79264D01*
X81864D02*
X82364D01*
X84364D02*
X84864D01*
X86064D02*
X86364D01*
X89364D02*
X89864D01*
X92564D02*
X93364D01*
X70264Y103394D02*
X71064D01*
X73764D02*
X79464D01*
X81864D02*
X82464D01*
X84564D02*
X84764D01*
X86164D02*
X86364D01*
X89364D02*
X89964D01*
X92664D02*
X93464D01*
X70164Y103294D02*
X70964D01*
X73664D02*
X79564D01*
X81964D02*
X82464D01*
X89464D02*
X89964D01*
X92664D02*
X93464D01*
X70164Y103194D02*
X70964D01*
X73664D02*
X79864D01*
X82064D02*
X82564D01*
X89564D02*
X90064D01*
X92664D02*
X93464D01*
X70164Y103094D02*
X70964D01*
X73564D02*
X81464D01*
X82164D02*
X82664D01*
X89564D02*
X90064D01*
X92764D02*
X93564D01*
X70064Y102994D02*
X70864D01*
X73564D02*
X81864D01*
X82164D02*
X82664D01*
X89564D02*
X90164D01*
X92764D02*
X93564D01*
X70064Y102894D02*
X70864D01*
X73464D02*
X81964D01*
X82264D02*
X82764D01*
X89664D02*
X90164D01*
X92864D02*
X93564D01*
X70064Y102794D02*
X70864D01*
X73464D02*
X82064D01*
X82364D02*
X82864D01*
X89664D02*
X90164D01*
X92864D02*
X93664D01*
X70064Y102694D02*
X70764D01*
X73364D02*
X82164D01*
X82364D02*
X82864D01*
X89764D02*
X90264D01*
X92864D02*
X93664D01*
X69964Y102594D02*
X70764D01*
X73364D02*
X82164D01*
X82464D02*
X82964D01*
X89764D02*
X90264D01*
X92964D02*
X93664D01*
X69964Y102494D02*
X70764D01*
X73364D02*
X82264D01*
X82564D02*
X83064D01*
X89864D02*
X90364D01*
X92964D02*
X93664D01*
X69964Y102394D02*
X70664D01*
X73264D02*
X82364D01*
X82564D02*
X83064D01*
X89864D02*
X90364D01*
X92964D02*
X93764D01*
X69864Y102294D02*
X70664D01*
X73264D02*
X82364D01*
X82664D02*
X83164D01*
X89864D02*
X90364D01*
X92964D02*
X93764D01*
X69864Y102194D02*
X70664D01*
X73264D02*
X82464D01*
X82764D02*
X83164D01*
X86064D02*
X86364D01*
X89964D02*
X90464D01*
X93064D02*
X93764D01*
X69864Y102094D02*
X70664D01*
X73164D02*
X82464D01*
X82764D02*
X83264D01*
X85964D02*
X86464D01*
X89964D02*
X90464D01*
X93064D02*
X93764D01*
X69864Y101994D02*
X70564D01*
X73164D02*
X82564D01*
X82864D02*
X83264D01*
X85964D02*
X86564D01*
X89964D02*
X90464D01*
X93064D02*
X93864D01*
X69764Y101894D02*
X70564D01*
X73164D02*
X82564D01*
X82864D02*
X83364D01*
X85864D02*
X86564D01*
X90064D02*
X90564D01*
X93064D02*
X93864D01*
X69764Y101794D02*
X70564D01*
X73064D02*
X82564D01*
X82964D02*
X83364D01*
X85964D02*
X86464D01*
X90064D02*
X90564D01*
X93164D02*
X93864D01*
X69764Y101694D02*
X70564D01*
X73064D02*
X82664D01*
X82964D02*
X83464D01*
X86164D02*
X86364D01*
X90064D02*
X90564D01*
X93164D02*
X93864D01*
X69764Y101594D02*
X70464D01*
X73064D02*
X82664D01*
X83064D02*
X83464D01*
X90164D02*
X90664D01*
X93164D02*
X93964D01*
X69764Y101494D02*
X70464D01*
X72964D02*
X82664D01*
X83064D02*
X83564D01*
X90164D02*
X90664D01*
X93164D02*
X93964D01*
X69664Y101394D02*
X70464D01*
X72964D02*
X82664D01*
X83164D02*
X83564D01*
X90164D02*
X90664D01*
X93264D02*
X93964D01*
X98664D02*
X99064D01*
X69664Y101294D02*
X70464D01*
X72964D02*
X82664D01*
X83164D02*
X83664D01*
X88164D02*
X88664D01*
X90164D02*
X90664D01*
X93264D02*
X93964D01*
X98364D02*
X99064D01*
X69664Y101194D02*
X70464D01*
X72964D02*
X82764D01*
X83264D02*
X83664D01*
X88264D02*
X88964D01*
X90264D02*
X90764D01*
X93264D02*
X93964D01*
X98064D02*
X98964D01*
X69664Y101094D02*
X70364D01*
X72964D02*
X82764D01*
X83264D02*
X83764D01*
X88464D02*
X89264D01*
X90264D02*
X90764D01*
X93264D02*
X93964D01*
X97764D02*
X98764D01*
X69664Y100994D02*
X70364D01*
X72864D02*
X82764D01*
X83364D02*
X83764D01*
X88664D02*
X89564D01*
X90264D02*
X90764D01*
X93264D02*
X94064D01*
X97464D02*
X98564D01*
X69664Y100894D02*
X70364D01*
X72864D02*
X82764D01*
X83364D02*
X83864D01*
X88964D02*
X89764D01*
X90364D02*
X90764D01*
X93264D02*
X94064D01*
X97264D02*
X98164D01*
X69564Y100794D02*
X70364D01*
X72864D02*
X82764D01*
X83464D02*
X83864D01*
X89164D02*
X90064D01*
X90364D02*
X90764D01*
X93264D02*
X94064D01*
X96964D02*
X97864D01*
X69564Y100694D02*
X70364D01*
X72864D02*
X82764D01*
X83464D02*
X83864D01*
X89464D02*
X90764D01*
X93364D02*
X94064D01*
X96764D02*
X97664D01*
X69564Y100594D02*
X70364D01*
X72864D02*
X82764D01*
X83464D02*
X83964D01*
X89764D02*
X90864D01*
X93364D02*
X94064D01*
X96464D02*
X97364D01*
X69564Y100494D02*
X70364D01*
X72764D02*
X82864D01*
X83564D02*
X83964D01*
X90064D02*
X90964D01*
X93364D02*
X94064D01*
X96164D02*
X97064D01*
X69564Y100394D02*
X70264D01*
X72764D02*
X82864D01*
X83564D02*
X84064D01*
X90264D02*
X91164D01*
X93264D02*
X94064D01*
X95864D02*
X96864D01*
X69564Y100294D02*
X70264D01*
X72764D02*
X82864D01*
X83664D02*
X84064D01*
X90464D02*
X91464D01*
X92964D02*
X94364D01*
X95564D02*
X96564D01*
X69564Y100194D02*
X70264D01*
X72764D02*
X73164D01*
X73364D02*
X82964D01*
X83664D02*
X84064D01*
X90464D02*
X91764D01*
X92664D02*
X93464D01*
X93564D02*
X93764D01*
X93864D02*
X94664D01*
X95264D02*
X96264D01*
X69564Y100094D02*
X70264D01*
X72764D02*
X73164D01*
X73464D02*
X82964D01*
X83664D02*
X84164D01*
X90464D02*
X90864D01*
X91064D02*
X91964D01*
X92264D02*
X93364D01*
X93564D02*
X93764D01*
X94164D02*
X95964D01*
X69564Y99994D02*
X70264D01*
X72764D02*
X73164D01*
X73464D02*
X82964D01*
X83764D02*
X84164D01*
X90464D02*
X90864D01*
X91264D02*
X93364D01*
X93564D02*
X93764D01*
X93864D02*
X94364D01*
X94464D02*
X95764D01*
X69564Y99894D02*
X70264D01*
X72764D02*
X73164D01*
X73464D02*
X83064D01*
X83764D02*
X84164D01*
X90464D02*
X90864D01*
X91564D02*
X92464D01*
X92564D02*
X93364D01*
X93564D02*
X93764D01*
X93864D02*
X94664D01*
X94764D02*
X95464D01*
X69564Y99794D02*
X70264D01*
X72764D02*
X73164D01*
X73364D02*
X83064D01*
X83764D02*
X84264D01*
X90464D02*
X90864D01*
X91764D02*
X93064D01*
X93164D02*
X93364D01*
X93564D02*
X93764D01*
X93864D02*
X94964D01*
X95064D02*
X95764D01*
X69564Y99694D02*
X70264D01*
X72764D02*
X73164D01*
X73364D02*
X83064D01*
X83864D02*
X84264D01*
X90464D02*
X90964D01*
X91464D02*
X92764D01*
X93164D02*
X93364D01*
X93564D02*
X93764D01*
X93864D02*
X94164D01*
X94564D02*
X96064D01*
X69464Y99594D02*
X70264D01*
X72764D02*
X73164D01*
X73264D02*
X83164D01*
X83864D02*
X84264D01*
X90464D02*
X90964D01*
X91164D02*
X92464D01*
X93164D02*
X93364D01*
X93564D02*
X93764D01*
X93864D02*
X94164D01*
X94764D02*
X96364D01*
X69464Y99494D02*
X70264D01*
X72764D02*
X73164D01*
X73264D02*
X83164D01*
X83864D02*
X84264D01*
X90464D02*
X92164D01*
X93164D02*
X93364D01*
X93564D02*
X93764D01*
X93864D02*
X94164D01*
X95064D02*
X96464D01*
X69464Y99394D02*
X70264D01*
X72764D02*
X83264D01*
X83864D02*
X84364D01*
X90464D02*
X91864D01*
X93164D02*
X93364D01*
X93564D02*
X93764D01*
X93964D02*
X94164D01*
X95364D02*
X96064D01*
X96164D02*
X96564D01*
X69464Y99294D02*
X70264D01*
X72764D02*
X83264D01*
X83964D02*
X84364D01*
X90464D02*
X91664D01*
X93064D02*
X93364D01*
X93564D02*
X93764D01*
X93964D02*
X94164D01*
X95664D02*
X96164D01*
X96264D02*
X96564D01*
X69464Y99194D02*
X70264D01*
X72664D02*
X83264D01*
X83964D02*
X84364D01*
X90464D02*
X91364D01*
X93064D02*
X93364D01*
X93564D02*
X93764D01*
X93964D02*
X94164D01*
X95864D02*
X96164D01*
X96364D02*
X96564D01*
X69464Y99094D02*
X70264D01*
X72664D02*
X83264D01*
X83964D02*
X84364D01*
X90464D02*
X91264D01*
X92964D02*
X93264D01*
X93564D02*
X93764D01*
X93964D02*
X94264D01*
X95964D02*
X96164D01*
X96364D02*
X96564D01*
X69464Y98994D02*
X70264D01*
X72664D02*
X83364D01*
X83964D02*
X84464D01*
X90464D02*
X90964D01*
X91064D02*
X91264D01*
X92864D02*
X93264D01*
X93564D02*
X93764D01*
X94064D02*
X94364D01*
X95964D02*
X96164D01*
X96364D02*
X96564D01*
X69564Y98894D02*
X70264D01*
X72764D02*
X83364D01*
X84064D02*
X84464D01*
X90464D02*
X90964D01*
X91064D02*
X91264D01*
X92864D02*
X93164D01*
X93564D02*
X93764D01*
X94064D02*
X94464D01*
X95964D02*
X96164D01*
X96364D02*
X96564D01*
X69564Y98794D02*
X70264D01*
X72764D02*
X83364D01*
X84064D02*
X84464D01*
X90464D02*
X90964D01*
X91064D02*
X91264D01*
X92664D02*
X93064D01*
X93564D02*
X93764D01*
X94164D02*
X94564D01*
X95964D02*
X96164D01*
X96364D02*
X96564D01*
X69564Y98694D02*
X70264D01*
X72764D02*
X83464D01*
X84064D02*
X84464D01*
X90464D02*
X90964D01*
X91064D02*
X91364D01*
X92464D02*
X92964D01*
X93164D02*
X93364D01*
X93564D02*
X93764D01*
X94264D02*
X94764D01*
X95964D02*
X96164D01*
X96364D02*
X96564D01*
X69564Y98594D02*
X70264D01*
X72764D02*
X73164D01*
X73264D02*
X83464D01*
X84064D02*
X84464D01*
X90464D02*
X90964D01*
X91064D02*
X91364D01*
X92164D02*
X93364D01*
X93564D02*
X93764D01*
X93864D02*
X95064D01*
X95964D02*
X96164D01*
X96364D02*
X96564D01*
X69564Y98494D02*
X70264D01*
X72764D02*
X73164D01*
X73264D02*
X83464D01*
X84064D02*
X84564D01*
X90464D02*
X90964D01*
X91064D02*
X91464D01*
X91864D02*
X93364D01*
X93564D02*
X93764D01*
X93864D02*
X95364D01*
X95764D02*
X96164D01*
X96364D02*
X96564D01*
X69564Y98394D02*
X70264D01*
X72764D02*
X73164D01*
X73264D02*
X83464D01*
X84164D02*
X84564D01*
X90364D02*
X90964D01*
X91164D02*
X92964D01*
X93164D02*
X93364D01*
X93564D02*
X93764D01*
X93864D02*
X94164D01*
X94264D02*
X96164D01*
X96364D02*
X96764D01*
X69564Y98294D02*
X70264D01*
X72764D02*
X73264D01*
X73364D02*
X83464D01*
X84164D02*
X84564D01*
X90064D02*
X90964D01*
X91264D02*
X92664D01*
X93164D02*
X93364D01*
X93564D02*
X93764D01*
X93864D02*
X94164D01*
X94564D02*
X95964D01*
X96364D02*
X97064D01*
X69564Y98194D02*
X70264D01*
X72764D02*
X73264D01*
X73364D02*
X83464D01*
X84164D02*
X84564D01*
X89764D02*
X90964D01*
X91564D02*
X92364D01*
X93064D02*
X93364D01*
X93564D02*
X93764D01*
X93864D02*
X94164D01*
X94864D02*
X95764D01*
X96364D02*
X97364D01*
X69564Y98094D02*
X70264D01*
X72764D02*
X73264D01*
X73364D02*
X83464D01*
X84164D02*
X84564D01*
X89464D02*
X90964D01*
X91364D02*
X92164D01*
X93064D02*
X93364D01*
X93564D02*
X93764D01*
X93864D02*
X94164D01*
X95164D02*
X95864D01*
X96364D02*
X96564D01*
X96664D02*
X97664D01*
X69564Y97994D02*
X70264D01*
X72764D02*
X73264D01*
X73464D02*
X83464D01*
X84164D02*
X84564D01*
X89164D02*
X90164D01*
X90364D02*
X90964D01*
X91164D02*
X91864D01*
X93064D02*
X93364D01*
X93564D02*
X93764D01*
X93964D02*
X94164D01*
X95364D02*
X96164D01*
X96364D02*
X96564D01*
X96864D02*
X97964D01*
X69564Y97894D02*
X70264D01*
X72764D02*
X73264D01*
X73464D02*
X83464D01*
X84164D02*
X84564D01*
X88864D02*
X89864D01*
X90364D02*
X90964D01*
X91064D02*
X91564D01*
X93064D02*
X93364D01*
X93564D02*
X93764D01*
X93964D02*
X94164D01*
X95664D02*
X96164D01*
X96364D02*
X96564D01*
X97164D02*
X98264D01*
X69564Y97794D02*
X70364D01*
X72864D02*
X73264D01*
X73564D02*
X83464D01*
X84164D02*
X84664D01*
X88664D02*
X89564D01*
X90364D02*
X90964D01*
X91064D02*
X91364D01*
X93064D02*
X93264D01*
X93564D02*
X93764D01*
X93964D02*
X94264D01*
X95964D02*
X96164D01*
X96364D02*
X96564D01*
X97564D02*
X98564D01*
X69564Y97694D02*
X70364D01*
X72864D02*
X73364D01*
X73564D02*
X83364D01*
X84164D02*
X84664D01*
X88364D02*
X89264D01*
X90264D02*
X90964D01*
X91064D02*
X91364D01*
X92964D02*
X93264D01*
X93564D02*
X93764D01*
X93964D02*
X94264D01*
X95964D02*
X96164D01*
X96364D02*
X96564D01*
X97764D02*
X98764D01*
X69664Y97594D02*
X70364D01*
X72864D02*
X73364D01*
X73564D02*
X83364D01*
X84264D02*
X84664D01*
X88164D02*
X89064D01*
X90064D02*
X90964D01*
X91064D02*
X91364D01*
X92964D02*
X93264D01*
X93564D02*
X93764D01*
X94064D02*
X94364D01*
X95964D02*
X96164D01*
X96364D02*
X96564D01*
X98064D02*
X98964D01*
X69664Y97494D02*
X70364D01*
X72864D02*
X73364D01*
X73664D02*
X83264D01*
X84264D02*
X84664D01*
X88164D02*
X88764D01*
X89964D02*
X90964D01*
X91064D02*
X91364D01*
X92864D02*
X93164D01*
X93564D02*
X93764D01*
X94064D02*
X94464D01*
X95964D02*
X96164D01*
X96364D02*
X96564D01*
X98364D02*
X99064D01*
X69664Y97394D02*
X70364D01*
X72864D02*
X73364D01*
X73764D02*
X83164D01*
X84264D02*
X84664D01*
X89764D02*
X90964D01*
X91064D02*
X91264D01*
X92664D02*
X93064D01*
X93564D02*
X93764D01*
X94164D02*
X94664D01*
X95964D02*
X96164D01*
X96364D02*
X96564D01*
X98664D02*
X99064D01*
X69664Y97294D02*
X70364D01*
X72864D02*
X73364D01*
X73964D02*
X83064D01*
X84264D02*
X84664D01*
X89664D02*
X90964D01*
X91064D02*
X91264D01*
X92464D02*
X92964D01*
X93364D02*
X93864D01*
X94264D02*
X94864D01*
X95964D02*
X96164D01*
X96364D02*
X96564D01*
X69664Y97194D02*
X70364D01*
X72964D02*
X73464D01*
X74164D02*
X83064D01*
X84264D02*
X84664D01*
X89464D02*
X90964D01*
X91064D02*
X91364D01*
X92164D02*
X92864D01*
X93064D02*
X94164D01*
X94464D02*
X95164D01*
X95964D02*
X96164D01*
X96364D02*
X96564D01*
X69664Y97094D02*
X70464D01*
X72964D02*
X73464D01*
X74364D02*
X83064D01*
X84264D02*
X84664D01*
X89264D02*
X90964D01*
X91064D02*
X91464D01*
X91864D02*
X92564D01*
X92764D02*
X93564D01*
X93664D02*
X94464D01*
X94664D02*
X95364D01*
X95764D02*
X96164D01*
X96364D02*
X96564D01*
X69764Y96994D02*
X70464D01*
X72964D02*
X73464D01*
X74664D02*
X83064D01*
X84264D02*
X84664D01*
X89064D02*
X90964D01*
X91164D02*
X92364D01*
X92564D02*
X93264D01*
X93964D02*
X94664D01*
X94964D02*
X96164D01*
X96364D02*
X96564D01*
X69764Y96894D02*
X70464D01*
X72964D02*
X73464D01*
X74864D02*
X83064D01*
X84264D02*
X84664D01*
X88864D02*
X90964D01*
X91364D02*
X92064D01*
X92264D02*
X92964D01*
X94264D02*
X94964D01*
X95164D02*
X95964D01*
X96364D02*
X96564D01*
X69764Y96794D02*
X70464D01*
X73064D02*
X73564D01*
X75064D02*
X83064D01*
X84264D02*
X84664D01*
X88664D02*
X90964D01*
X91964D02*
X92764D01*
X94564D02*
X95264D01*
X95564D02*
X95664D01*
X96364D02*
X96564D01*
X69764Y96694D02*
X70464D01*
X73064D02*
X73564D01*
X75264D02*
X83064D01*
X84264D02*
X84664D01*
X88464D02*
X90964D01*
X91664D02*
X92464D01*
X94764D02*
X95564D01*
X96364D02*
X96564D01*
X69764Y96594D02*
X70564D01*
X73064D02*
X73564D01*
X75464D02*
X83064D01*
X84264D02*
X84664D01*
X88264D02*
X90964D01*
X91364D02*
X92164D01*
X95064D02*
X95864D01*
X96264D02*
X96564D01*
X69864Y96494D02*
X70564D01*
X73164D02*
X73564D01*
X75664D02*
X83064D01*
X84264D02*
X84664D01*
X88064D02*
X90964D01*
X91164D02*
X91864D01*
X95364D02*
X96064D01*
X96264D02*
X96564D01*
X69864Y96394D02*
X70564D01*
X73164D02*
X73664D01*
X75964D02*
X83064D01*
X84264D02*
X84664D01*
X87864D02*
X91564D01*
X95664D02*
X96564D01*
X69864Y96294D02*
X70564D01*
X73164D02*
X73664D01*
X76164D02*
X83064D01*
X84264D02*
X84664D01*
X87664D02*
X91364D01*
X95864D02*
X96564D01*
X69864Y96194D02*
X70664D01*
X73264D02*
X73664D01*
X76364D02*
X83064D01*
X84264D02*
X84664D01*
X87464D02*
X91264D01*
X95964D02*
X96464D01*
X69964Y96094D02*
X70664D01*
X73264D02*
X73764D01*
X76564D02*
X83064D01*
X84264D02*
X84664D01*
X87264D02*
X91564D01*
X95664D02*
X96364D01*
X69964Y95994D02*
X70664D01*
X73264D02*
X73764D01*
X76864D02*
X83064D01*
X84264D02*
X84664D01*
X87064D02*
X91864D01*
X95364D02*
X96164D01*
X69964Y95894D02*
X70764D01*
X73364D02*
X73864D01*
X77064D02*
X83064D01*
X84264D02*
X84664D01*
X86864D02*
X92064D01*
X95164D02*
X95864D01*
X68764Y95794D02*
X68864D01*
X69964D02*
X70764D01*
X73364D02*
X73864D01*
X77364D02*
X83064D01*
X84264D02*
X84664D01*
X86564D02*
X92364D01*
X94864D02*
X95564D01*
X68564Y95694D02*
X68864D01*
X70064D02*
X70764D01*
X73464D02*
X73864D01*
X77664D02*
X83064D01*
X84264D02*
X84664D01*
X86364D02*
X92664D01*
X94564D02*
X95364D01*
X68464Y95594D02*
X68764D01*
X70064D02*
X70864D01*
X73464D02*
X73964D01*
X78064D02*
X83064D01*
X84264D02*
X84664D01*
X86164D02*
X92864D01*
X94264D02*
X95064D01*
X68364Y95494D02*
X68664D01*
X70064D02*
X70864D01*
X73564D02*
X73964D01*
X78464D02*
X83064D01*
X84264D02*
X84664D01*
X85864D02*
X92564D01*
X92764D02*
X93164D01*
X94064D02*
X94764D01*
X68264Y95394D02*
X68564D01*
X70164D02*
X70864D01*
X73564D02*
X74064D01*
X78764D02*
X83064D01*
X84264D02*
X84664D01*
X85664D02*
X92464D01*
X92764D02*
X94464D01*
X68164Y95294D02*
X68564D01*
X70164D02*
X70964D01*
X73564D02*
X74064D01*
X78764D02*
X83064D01*
X84264D02*
X84564D01*
X85364D02*
X92264D01*
X92764D02*
X94264D01*
X68164Y95194D02*
X68464D01*
X70164D02*
X70964D01*
X73664D02*
X74164D01*
X78764D02*
X83064D01*
X84264D02*
X84564D01*
X85164D02*
X92064D01*
X92664D02*
X93864D01*
X68064Y95094D02*
X68364D01*
X70264D02*
X70964D01*
X73664D02*
X74164D01*
X78864D02*
X83064D01*
X84264D02*
X84564D01*
X84864D02*
X91864D01*
X92664D02*
X93464D01*
X68064Y94994D02*
X68364D01*
X70264D02*
X71064D01*
X73764D02*
X74264D01*
X78864D02*
X83064D01*
X84264D02*
X91664D01*
X92564D02*
X93464D01*
X67964Y94894D02*
X68264D01*
X70264D02*
X71064D01*
X73864D02*
X74364D01*
X78964D02*
X83064D01*
X84264D02*
X91464D01*
X92564D02*
X93364D01*
X67964Y94794D02*
X68264D01*
X70364D02*
X71164D01*
X73864D02*
X74364D01*
X78964D02*
X83064D01*
X83964D02*
X91164D01*
X92564D02*
X93364D01*
X67964Y94694D02*
X68264D01*
X70364D02*
X71164D01*
X73964D02*
X74464D01*
X78964D02*
X83064D01*
X83764D02*
X90964D01*
X92464D02*
X93364D01*
X67964Y94594D02*
X68264D01*
X70364D02*
X71264D01*
X73964D02*
X74464D01*
X79064D02*
X83064D01*
X83364D02*
X90764D01*
X92464D02*
X93264D01*
X67964Y94494D02*
X68264D01*
X70464D02*
X71264D01*
X74064D02*
X74564D01*
X79064D02*
X90564D01*
X92364D02*
X93264D01*
X67964Y94394D02*
X68264D01*
X70464D02*
X71264D01*
X74064D02*
X74664D01*
X79164D02*
X90264D01*
X92364D02*
X93164D01*
X67964Y94294D02*
X68364D01*
X70564D02*
X71364D01*
X74164D02*
X74664D01*
X79164D02*
X90064D01*
X92264D02*
X93164D01*
X67964Y94194D02*
X68364D01*
X70564D02*
X71364D01*
X74264D02*
X74764D01*
X79164D02*
X89764D01*
X92264D02*
X93064D01*
X67964Y94094D02*
X68464D01*
X70564D02*
X71464D01*
X74264D02*
X74864D01*
X79264D02*
X89564D01*
X92164D02*
X93064D01*
X68064Y93994D02*
X68564D01*
X70664D02*
X71464D01*
X74364D02*
X74964D01*
X79264D02*
X89364D01*
X92164D02*
X93064D01*
X68064Y93894D02*
X68764D01*
X70664D02*
X71564D01*
X74464D02*
X75064D01*
X79264D02*
X89264D01*
X92064D02*
X92964D01*
X68164Y93794D02*
X68864D01*
X70764D02*
X71664D01*
X74464D02*
X75064D01*
X79364D02*
X89164D01*
X92064D02*
X92964D01*
X68264Y93694D02*
X69064D01*
X70764D02*
X71664D01*
X74564D02*
X75164D01*
X79364D02*
X89064D01*
X91964D02*
X92864D01*
X68364Y93594D02*
X69364D01*
X70864D02*
X71764D01*
X74664D02*
X75264D01*
X79364D02*
X88164D01*
X88364D02*
X88964D01*
X91964D02*
X92864D01*
X68464Y93494D02*
X69564D01*
X70864D02*
X71764D01*
X74764D02*
X75364D01*
X78764D02*
X87864D01*
X88364D02*
X88964D01*
X91864D02*
X92764D01*
X68564Y93394D02*
X69964D01*
X70964D02*
X71864D01*
X74764D02*
X75464D01*
X78164D02*
X87564D01*
X88264D02*
X88864D01*
X91864D02*
X92764D01*
X68764Y93294D02*
X70364D01*
X70964D02*
X71864D01*
X74864D02*
X75464D01*
X77464D02*
X87164D01*
X88164D02*
X88764D01*
X91764D02*
X92664D01*
X68964Y93194D02*
X70864D01*
X71064D02*
X71964D01*
X74964D02*
X75564D01*
X76764D02*
X86864D01*
X88064D02*
X88664D01*
X91764D02*
X92664D01*
X69064Y93094D02*
X71964D01*
X75064D02*
X86464D01*
X87964D02*
X88564D01*
X91664D02*
X92564D01*
X69264Y92994D02*
X86064D01*
X87864D02*
X88464D01*
X91564D02*
X92464D01*
X69564Y92894D02*
X85664D01*
X87764D02*
X88364D01*
X91564D02*
X92464D01*
X69764Y92794D02*
X85164D01*
X87664D02*
X88264D01*
X91464D02*
X92364D01*
X70064Y92694D02*
X84664D01*
X87564D02*
X88164D01*
X91464D02*
X92364D01*
X70364Y92594D02*
X84264D01*
X87364D02*
X88064D01*
X91364D02*
X92264D01*
X70664Y92494D02*
X83964D01*
X87264D02*
X87964D01*
X91264D02*
X92164D01*
X70964Y92394D02*
X83364D01*
X83564D02*
X83864D01*
X87164D02*
X87864D01*
X91264D02*
X92164D01*
X71464Y92294D02*
X82764D01*
X83564D02*
X83864D01*
X87064D02*
X87764D01*
X91164D02*
X92064D01*
X71664Y92194D02*
X82464D01*
X83564D02*
X83764D01*
X86864D02*
X87664D01*
X91064D02*
X91964D01*
X71764Y92094D02*
X72664D01*
X72764D02*
X82464D01*
X83464D02*
X83764D01*
X86764D02*
X87564D01*
X90964D02*
X91964D01*
X71864Y91994D02*
X72764D01*
X73464D02*
X82364D01*
X83464D02*
X83664D01*
X86564D02*
X87364D01*
X90964D02*
X91864D01*
X71864Y91894D02*
X72864D01*
X74864D02*
X78464D01*
X79864D02*
X82364D01*
X83364D02*
X83664D01*
X86464D02*
X87264D01*
X90864D02*
X91764D01*
X71964Y91794D02*
X72864D01*
X76564D02*
X77364D01*
X79964D02*
X82364D01*
X83364D02*
X83664D01*
X86264D02*
X87164D01*
X90764D02*
X91664D01*
X72064Y91694D02*
X72964D01*
X76764D02*
X77464D01*
X79964D02*
X82264D01*
X83364D02*
X83564D01*
X86164D02*
X86964D01*
X90664D02*
X91564D01*
X72064Y91594D02*
X73064D01*
X76864D02*
X77664D01*
X79964D02*
X82264D01*
X83264D02*
X83564D01*
X85964D02*
X86864D01*
X90564D02*
X91464D01*
X72164Y91494D02*
X73164D01*
X76964D02*
X77864D01*
X80064D02*
X82164D01*
X83264D02*
X83464D01*
X85764D02*
X86664D01*
X90464D02*
X91464D01*
X72264Y91394D02*
X73264D01*
X77164D02*
X78064D01*
X80064D02*
X82164D01*
X83264D02*
X83464D01*
X85564D02*
X86464D01*
X90364D02*
X91364D01*
X72364Y91294D02*
X73364D01*
X77264D02*
X78264D01*
X80064D02*
X82064D01*
X83264D02*
X83364D01*
X85264D02*
X86364D01*
X90264D02*
X91264D01*
X72464Y91194D02*
X73464D01*
X77464D02*
X78564D01*
X80164D02*
X82064D01*
X85064D02*
X86164D01*
X90164D02*
X91164D01*
X72564Y91094D02*
X73564D01*
X77664D02*
X78764D01*
X80164D02*
X82064D01*
X84864D02*
X85964D01*
X90064D02*
X91064D01*
X72664Y90994D02*
X73664D01*
X77864D02*
X79064D01*
X80164D02*
X81964D01*
X84564D02*
X85764D01*
X89964D02*
X90964D01*
X72764Y90894D02*
X73764D01*
X78064D02*
X79364D01*
X80164D02*
X81964D01*
X84364D02*
X85564D01*
X89864D02*
X90964D01*
X72864Y90794D02*
X73864D01*
X78364D02*
X79764D01*
X80164D02*
X81964D01*
X83964D02*
X85264D01*
X89764D02*
X90864D01*
X72964Y90694D02*
X73964D01*
X78564D02*
X81864D01*
X83664D02*
X85064D01*
X89664D02*
X90764D01*
X73064Y90594D02*
X74064D01*
X78864D02*
X81864D01*
X82464D02*
X84764D01*
X89564D02*
X90664D01*
X73164Y90494D02*
X74164D01*
X79164D02*
X84464D01*
X89464D02*
X90564D01*
X73264Y90394D02*
X74264D01*
X79464D02*
X84064D01*
X89364D02*
X90464D01*
X73364Y90294D02*
X74364D01*
X79864D02*
X83664D01*
X89264D02*
X90364D01*
X73464Y90194D02*
X74564D01*
X80464D02*
X83064D01*
X89164D02*
X90264D01*
X73564Y90094D02*
X74664D01*
X88964D02*
X90164D01*
X73664Y89994D02*
X74764D01*
X78864D02*
X79164D01*
X84264D02*
X84764D01*
X88864D02*
X90064D01*
X73764Y89894D02*
X74964D01*
X78764D02*
X79264D01*
X84064D02*
X84764D01*
X88764D02*
X89964D01*
X73864Y89794D02*
X75064D01*
X78764D02*
X79264D01*
X79564D02*
X80064D01*
X83964D02*
X84864D01*
X88564D02*
X89764D01*
X73964Y89694D02*
X75164D01*
X78664D02*
X79264D01*
X79564D02*
X80064D01*
X80764D02*
X80964D01*
X82464D02*
X82964D01*
X83864D02*
X84864D01*
X88464D02*
X89664D01*
X74064Y89594D02*
X75364D01*
X78664D02*
X79264D01*
X79564D02*
X80064D01*
X80464D02*
X81664D01*
X82264D02*
X83164D01*
X83764D02*
X84764D01*
X88264D02*
X89564D01*
X74264Y89494D02*
X75464D01*
X78664D02*
X79264D01*
X79464D02*
X80064D01*
X80464D02*
X81664D01*
X82164D02*
X83164D01*
X83764D02*
X84664D01*
X88164D02*
X89464D01*
X74364Y89394D02*
X75664D01*
X78564D02*
X79164D01*
X79464D02*
X80064D01*
X80464D02*
X81664D01*
X82064D02*
X83164D01*
X83764D02*
X84364D01*
X87964D02*
X89264D01*
X74464Y89294D02*
X75864D01*
X78564D02*
X79164D01*
X79464D02*
X80064D01*
X80464D02*
X81664D01*
X82064D02*
X83164D01*
X83764D02*
X84264D01*
X87864D02*
X89164D01*
X74664Y89194D02*
X75964D01*
X78564D02*
X79164D01*
X79464D02*
X80064D01*
X80364D02*
X81664D01*
X82064D02*
X83064D01*
X83664D02*
X84264D01*
X87664D02*
X88964D01*
X74764Y89094D02*
X76164D01*
X78564D02*
X79164D01*
X79464D02*
X80064D01*
X80364D02*
X80964D01*
X82064D02*
X82864D01*
X83664D02*
X84264D01*
X87464D02*
X88864D01*
X74964Y88994D02*
X76364D01*
X78564D02*
X79164D01*
X79364D02*
X79964D01*
X80364D02*
X81464D01*
X82064D02*
X83164D01*
X83764D02*
X84264D01*
X87264D02*
X88764D01*
X75064Y88894D02*
X76564D01*
X78564D02*
X79164D01*
X79364D02*
X79964D01*
X80364D02*
X81564D01*
X82064D02*
X83264D01*
X83764D02*
X84864D01*
X87164D02*
X88564D01*
X75264Y88794D02*
X76764D01*
X78564D02*
X79964D01*
X80364D02*
X81564D01*
X82064D02*
X83364D01*
X83764D02*
X85064D01*
X86964D02*
X88364D01*
X75364Y88694D02*
X76964D01*
X78564D02*
X79864D01*
X80364D02*
X81564D01*
X82164D02*
X83364D01*
X83864D02*
X85064D01*
X86764D02*
X88264D01*
X75564Y88594D02*
X77164D01*
X78564D02*
X79864D01*
X80364D02*
X81464D01*
X82564D02*
X83364D01*
X83864D02*
X85164D01*
X86464D02*
X88064D01*
X75764Y88494D02*
X77364D01*
X78664D02*
X79764D01*
X80364D02*
X80964D01*
X82264D02*
X83364D01*
X83964D02*
X85064D01*
X86264D02*
X87864D01*
X75864Y88394D02*
X77664D01*
X78764D02*
X79764D01*
X80364D02*
X80964D01*
X82164D02*
X83364D01*
X84164D02*
X84964D01*
X86064D02*
X87664D01*
X76064Y88294D02*
X77864D01*
X78964D02*
X79564D01*
X80364D02*
X80864D01*
X82164D02*
X83364D01*
X85764D02*
X87464D01*
X76264Y88194D02*
X78164D01*
X80364D02*
X80864D01*
X82164D02*
X83264D01*
X85464D02*
X87264D01*
X76464Y88094D02*
X78564D01*
X80464D02*
X80864D01*
X82164D02*
X83164D01*
X85164D02*
X87064D01*
X76764Y87994D02*
X78864D01*
X82264D02*
X82764D01*
X84764D02*
X86864D01*
X76964Y87894D02*
X79364D01*
X84364D02*
X86664D01*
X77164Y87794D02*
X79864D01*
X83864D02*
X86464D01*
X77464Y87694D02*
X80564D01*
X83164D02*
X86164D01*
X77664Y87594D02*
X85864D01*
X77964Y87494D02*
X85564D01*
X78364Y87394D02*
X85264D01*
X78664Y87294D02*
X84964D01*
X79064Y87194D02*
X84564D01*
X79564Y87094D02*
X84064D01*
X80264Y86994D02*
X83364D01*
D15*
X234197Y225221D02*
X240496D01*
X234197Y219709D02*
X240496D01*
X101535Y185142D02*
X158535D01*
X158735D02*
Y236630D01*
X101535Y236717D02*
X158735D01*
X101535Y185142D02*
Y236717D01*
X81520Y314709D02*
X83882D01*
X81520Y318646D02*
X83882D01*
X231362Y119237D02*
Y125536D01*
X225850Y119237D02*
Y125536D01*
X81677Y321048D02*
X84039D01*
X81677Y324985D02*
X84039D01*
X120260Y48253D02*
Y54552D01*
X125772Y48253D02*
Y54552D01*
X291835Y87859D02*
X298134D01*
X291835Y93371D02*
X298134D01*
X146283Y172386D02*
Y174749D01*
X150220Y172386D02*
Y174749D01*
X290732Y237032D02*
X297031D01*
X290732Y231520D02*
X297031D01*
X215338Y81599D02*
X217701D01*
X215338Y85536D02*
X217701D01*
X77386Y68253D02*
X79748D01*
X77386Y72190D02*
X79748D01*
X214512Y87701D02*
X220811D01*
X214512Y93213D02*
X220811D01*
X153094Y68213D02*
X155457D01*
X153094Y72150D02*
X155457D01*
X233606Y202190D02*
X235968D01*
X233606Y206127D02*
X235968D01*
X277228Y138922D02*
Y141284D01*
X281165Y138922D02*
Y141284D01*
X283386Y134134D02*
Y140433D01*
X288898Y134134D02*
Y140433D01*
X244748Y154749D02*
X247110D01*
X244748Y158686D02*
X247110D01*
X77976Y227396D02*
X84276D01*
X77976Y236057D02*
X84276D01*
X149551Y93134D02*
X151913D01*
X149551Y97071D02*
X151913D01*
X148016Y57859D02*
Y60221D01*
X144079Y57859D02*
Y60221D01*
X233173Y293095D02*
Y295457D01*
X229236Y293095D02*
Y295457D01*
X137291Y130330D02*
X143590D01*
X137291Y135842D02*
X143590D01*
X266992Y282701D02*
X269354D01*
X266992Y278764D02*
X269354D01*
X291874Y80339D02*
X298173D01*
X291874Y85851D02*
X298173D01*
X149866Y115575D02*
X156165D01*
X149866Y110064D02*
X156165D01*
X291283Y67071D02*
X293646D01*
X291283Y71008D02*
X293646D01*
X77976Y238370D02*
X84276D01*
X77976Y247031D02*
X84276D01*
X291874Y72898D02*
X298173D01*
X291874Y78410D02*
X298173D01*
X223882Y120812D02*
Y127111D01*
X215220Y120812D02*
Y127111D01*
X136503Y142583D02*
X138865D01*
X136503Y138646D02*
X138865D01*
X244551Y120851D02*
Y123213D01*
X248488Y120851D02*
Y123213D01*
X214512Y95044D02*
X220811D01*
X214512Y100556D02*
X220811D01*
X226362Y294276D02*
Y300575D01*
X220850Y294276D02*
Y300575D01*
X234079Y208528D02*
X240378D01*
X234079Y217190D02*
X240378D01*
X291244Y228764D02*
X297543D01*
X291244Y220103D02*
X297543D01*
X292622Y247741D02*
X294984D01*
X292622Y243804D02*
X294984D01*
X213331Y59158D02*
Y61520D01*
X209394Y59158D02*
Y61520D01*
X268409Y54394D02*
X269984D01*
X268409Y52032D02*
X269984D01*
X268409Y42859D02*
X269984D01*
X268409Y45221D02*
X269984D01*
X101535Y294040D02*
X158535D01*
X158735D02*
Y345527D01*
X101535Y345615D02*
X158735D01*
X101535Y294040D02*
Y345615D01*
X219295Y59158D02*
Y61520D01*
X215358Y59158D02*
Y61520D01*
X193016Y43686D02*
X194590D01*
X193016Y46048D02*
X194590D01*
X77976Y205447D02*
X84276D01*
X77976Y214109D02*
X84276D01*
X193331Y55457D02*
X194905D01*
X193331Y53095D02*
X194905D01*
X70299Y187111D02*
X72661D01*
X70299Y191048D02*
X72661D01*
X77976Y216422D02*
X84276D01*
X77976Y225083D02*
X84276D01*
X149945Y99394D02*
X156244D01*
X149945Y108056D02*
X156244D01*
X214512Y102386D02*
X220811D01*
X214512Y107898D02*
X220811D01*
X225260Y59158D02*
Y61520D01*
X221323Y59158D02*
Y61520D01*
X63724Y180536D02*
X66087D01*
X63724Y184473D02*
X66087D01*
X141913Y57859D02*
Y60221D01*
X137976Y57859D02*
Y60221D01*
X77976Y249344D02*
X84276D01*
X77976Y258006D02*
X84276D01*
X101535Y239827D02*
X158535D01*
X158735D02*
Y291315D01*
X101535Y291402D02*
X158735D01*
X101535Y239827D02*
Y291402D01*
X114118Y52918D02*
Y55280D01*
X118055Y52918D02*
Y55280D01*
X77976Y194473D02*
X84276D01*
X77976Y203134D02*
X84276D01*
X230142Y67859D02*
X232504D01*
X230142Y71796D02*
X232504D01*
X135732Y57859D02*
Y60221D01*
X131795Y57859D02*
Y60221D01*
D16*
X264472Y164994D02*
Y166205D01*
X290161D01*
X264374Y155182D02*
Y156394D01*
X290161Y165193D02*
Y166205D01*
X290260Y155182D02*
Y156293D01*
X262898Y155280D02*
Y166304D01*
X264374Y155182D02*
X290260D01*
X72779Y285427D02*
Y286638D01*
X98468D01*
X72681Y275615D02*
Y276827D01*
X98468Y285627D02*
Y286638D01*
X98567Y275615D02*
Y276727D01*
X71205Y275713D02*
Y286737D01*
X72681Y275615D02*
X98567D01*
X72307Y298773D02*
Y299985D01*
X97996D01*
X72209Y288961D02*
Y290173D01*
X97996Y298973D02*
Y299985D01*
X98094Y288961D02*
Y290073D01*
X70732Y289060D02*
Y300083D01*
X72209Y288961D02*
X98094D01*
X176677Y81726D02*
Y82938D01*
X202366D01*
X176579Y71914D02*
Y73126D01*
X202366Y81926D02*
Y82938D01*
X202465Y71914D02*
Y73026D01*
X175102Y72012D02*
Y83036D01*
X176579Y71914D02*
X202465D01*
X252898Y81726D02*
Y82938D01*
X278587D01*
X252799Y71914D02*
Y73126D01*
X278587Y81926D02*
Y82938D01*
X278685Y71914D02*
Y73026D01*
X251323Y72012D02*
Y83036D01*
X252799Y71914D02*
X278685D01*
X221653Y282150D02*
X242290D01*
X243453Y271127D02*
Y282150D01*
X221653Y281038D02*
Y282150D01*
Y271127D02*
Y272138D01*
X242290Y280938D02*
Y282150D01*
X221653Y271127D02*
X242253D01*
Y272338D01*
X72779Y270308D02*
Y271520D01*
X98468D01*
X72681Y260497D02*
Y261708D01*
X98468Y270509D02*
Y271520D01*
X98567Y260497D02*
Y261609D01*
X71205Y260595D02*
Y271619D01*
X72681Y260497D02*
X98567D01*
X167985Y154394D02*
X169197D01*
Y128705D02*
Y154394D01*
X158173Y154493D02*
X159385D01*
X168185Y128705D02*
X169197D01*
X158173Y128607D02*
X159285D01*
X158272Y155969D02*
X169295D01*
X158173Y128607D02*
Y154493D01*
D17*
X303212Y160969D02*
X313212D01*
Y130969D02*
Y160969D01*
X303212Y130969D02*
Y160969D01*
Y130969D02*
X313212D01*
X26496Y94882D02*
X28629D01*
X29695Y95948D01*
X28629Y97014D01*
X26496D01*
Y98081D02*
X29695D01*
Y99680D01*
X29162Y100214D01*
X28629D01*
X28095Y99680D01*
Y98081D01*
Y99680D01*
X27562Y100214D01*
X27029D01*
X26496Y99680D01*
Y98081D01*
X29695Y101280D02*
X27562D01*
X26496Y102346D01*
X27562Y103412D01*
X29695D01*
X28095D01*
Y101280D01*
X26496Y104479D02*
Y106611D01*
Y105545D01*
X29695D01*
X28095Y107678D02*
Y109810D01*
X27029Y108744D02*
X29162D01*
X26496Y115669D02*
X28629D01*
X29695Y116736D01*
X28629Y117802D01*
X26496D01*
Y118868D02*
X29695D01*
Y120468D01*
X29162Y121001D01*
X28629D01*
X28096Y120468D01*
Y118868D01*
Y120468D01*
X27562Y121001D01*
X27029D01*
X26496Y120468D01*
Y118868D01*
X29695Y122067D02*
X27562D01*
X26496Y123134D01*
X27562Y124200D01*
X29695D01*
X28096D01*
Y122067D01*
X26496Y125266D02*
Y127399D01*
Y126332D01*
X29695D01*
X28096Y128465D02*
Y130598D01*
X26496Y139380D02*
Y137247D01*
X27562Y136181D01*
X28629Y137247D01*
Y139380D01*
X29695Y135648D02*
X31828D01*
X35027Y138847D02*
X34493Y139380D01*
X33427D01*
X32894Y138847D01*
Y136714D01*
X33427Y136181D01*
X34493D01*
X35027Y136714D01*
X36093Y136181D02*
Y139380D01*
X37159Y138314D01*
X38226Y139380D01*
Y136181D01*
X200794Y29241D02*
X200261Y29774D01*
X199195D01*
X198661Y29241D01*
Y27108D01*
X199195Y26575D01*
X200261D01*
X200794Y27108D01*
Y28174D01*
X199728D01*
X201860Y26575D02*
Y29774D01*
X203460D01*
X203993Y29241D01*
Y28174D01*
X203460Y27641D01*
X201860D01*
X205059Y29774D02*
X206126D01*
X205592D01*
Y26575D01*
X205059D01*
X206126D01*
X209325Y29774D02*
X208258D01*
X207725Y29241D01*
Y27108D01*
X208258Y26575D01*
X209325D01*
X209858Y27108D01*
Y29241D01*
X209325Y29774D01*
X77008Y172451D02*
Y170318D01*
X78074Y169252D01*
X79141Y170318D01*
Y172451D01*
X80207Y168719D02*
X82340D01*
X85538Y171918D02*
X85005Y172451D01*
X83939D01*
X83406Y171918D01*
Y169785D01*
X83939Y169252D01*
X85005D01*
X85538Y169785D01*
X86605Y169252D02*
Y172451D01*
X87671Y171385D01*
X88737Y172451D01*
Y169252D01*
X77008Y162766D02*
Y160633D01*
X78074Y159567D01*
X79141Y160633D01*
Y162766D01*
X80207D02*
Y159567D01*
X81806D01*
X82340Y160100D01*
Y160633D01*
X81806Y161166D01*
X80207D01*
X81806D01*
X82340Y161700D01*
Y162233D01*
X81806Y162766D01*
X80207D01*
X83406Y159567D02*
Y161700D01*
X84472Y162766D01*
X85538Y161700D01*
Y159567D01*
Y161166D01*
X83406D01*
X86605Y162766D02*
X88737D01*
X87671D01*
Y159567D01*
X89804Y161166D02*
X91936D01*
X77008Y152412D02*
Y150279D01*
X78074Y149213D01*
X79141Y150279D01*
Y152412D01*
X80207D02*
Y149213D01*
X81806D01*
X82340Y149746D01*
Y150279D01*
X81806Y150812D01*
X80207D01*
X81806D01*
X82340Y151345D01*
Y151878D01*
X81806Y152412D01*
X80207D01*
X83406Y149213D02*
Y151345D01*
X84472Y152412D01*
X85538Y151345D01*
Y149213D01*
Y150812D01*
X83406D01*
X86605Y152412D02*
X88737D01*
X87671D01*
Y149213D01*
X89804Y150812D02*
X91936D01*
X77008Y143317D02*
Y141184D01*
X78074Y140118D01*
X79141Y141184D01*
Y143317D01*
X80207D02*
Y140118D01*
X81806D01*
X82340Y140651D01*
Y141184D01*
X81806Y141718D01*
X80207D01*
X81806D01*
X82340Y142251D01*
Y142784D01*
X81806Y143317D01*
X80207D01*
X83406Y140118D02*
Y142251D01*
X84472Y143317D01*
X85538Y142251D01*
Y140118D01*
Y141718D01*
X83406D01*
X86605Y143317D02*
X88737D01*
X87671D01*
Y140118D01*
X89804Y141718D02*
X91936D01*
X90870Y142784D02*
Y140651D01*
X77008Y130522D02*
Y128389D01*
X78074Y127323D01*
X79141Y128389D01*
Y130522D01*
X80207D02*
Y127323D01*
X81806D01*
X82340Y127856D01*
Y128389D01*
X81806Y128922D01*
X80207D01*
X81806D01*
X82340Y129455D01*
Y129989D01*
X81806Y130522D01*
X80207D01*
X83406Y127323D02*
Y129455D01*
X84472Y130522D01*
X85538Y129455D01*
Y127323D01*
Y128922D01*
X83406D01*
X86605Y130522D02*
X88737D01*
X87671D01*
Y127323D01*
X89804Y128922D02*
X91936D01*
X90870Y129989D02*
Y127856D01*
X258150Y17205D02*
X254951D01*
Y18804D01*
X255484Y19337D01*
X256550D01*
X257083Y18804D01*
Y17205D01*
Y18271D02*
X258150Y19337D01*
X254951Y20404D02*
Y22536D01*
Y21470D01*
X258150D01*
X254951Y23603D02*
X258150D01*
Y25202D01*
X257616Y25735D01*
X255484D01*
X254951Y25202D01*
Y23603D01*
X259793Y17205D02*
X262992D01*
Y18804D01*
X262459Y19337D01*
X261926D01*
X261393Y18804D01*
Y17205D01*
Y18804D01*
X260859Y19337D01*
X260326D01*
X259793Y18804D01*
Y17205D01*
X262992Y20404D02*
X260859D01*
X259793Y21470D01*
X260859Y22536D01*
X262992D01*
X261393D01*
Y20404D01*
X259793Y23603D02*
Y25735D01*
Y24669D01*
X262992D01*
X193218Y17441D02*
Y19574D01*
Y18507D01*
X196417D01*
X193218Y22772D02*
Y20640D01*
X196417D01*
Y22772D01*
X194818Y20640D02*
Y21706D01*
X196417Y23839D02*
X193218D01*
X194285Y24905D01*
X193218Y25971D01*
X196417D01*
Y27038D02*
X193218D01*
Y28637D01*
X193752Y29171D01*
X194818D01*
X195351Y28637D01*
Y27038D01*
X191693Y17441D02*
X188494D01*
Y19040D01*
X189027Y19574D01*
X190093D01*
X190627Y19040D01*
Y17441D01*
Y18507D02*
X191693Y19574D01*
X188494Y20640D02*
Y22773D01*
Y21706D01*
X191693D01*
X188494Y23839D02*
X191693D01*
Y25438D01*
X191160Y25971D01*
X189027D01*
X188494Y25438D01*
Y23839D01*
X276732Y25984D02*
X273533D01*
Y27584D01*
X274066Y28117D01*
X275133D01*
X275666Y27584D01*
Y25984D01*
Y27051D02*
X276732Y28117D01*
X273533Y29183D02*
Y31316D01*
Y30250D01*
X276732D01*
X273533Y32382D02*
X276732D01*
Y33982D01*
X276199Y34515D01*
X274066D01*
X273533Y33982D01*
Y32382D01*
Y37714D02*
Y35581D01*
X275133D01*
X274600Y36647D01*
Y37181D01*
X275133Y37714D01*
X276199D01*
X276732Y37181D01*
Y36114D01*
X276199Y35581D01*
X286551Y25984D02*
X283352D01*
Y27584D01*
X283885Y28117D01*
X284952D01*
X285485Y27584D01*
Y25984D01*
Y27051D02*
X286551Y28117D01*
X283352Y29183D02*
Y31316D01*
Y30250D01*
X286551D01*
X283352Y32382D02*
X286551D01*
Y33982D01*
X286018Y34515D01*
X283885D01*
X283352Y33982D01*
Y32382D01*
X286551Y37181D02*
X283352D01*
X284952Y35581D01*
Y37714D01*
X296425Y25984D02*
X293226D01*
Y27584D01*
X293759Y28117D01*
X294826D01*
X295359Y27584D01*
Y25984D01*
Y27051D02*
X296425Y28117D01*
X293226Y29183D02*
Y31316D01*
Y30250D01*
X296425D01*
X293226Y32382D02*
X296425D01*
Y33982D01*
X295892Y34515D01*
X293759D01*
X293226Y33982D01*
Y32382D01*
X296425Y35581D02*
Y36647D01*
Y36114D01*
X293226D01*
X293759Y35581D01*
X306299Y25984D02*
X303100D01*
Y27584D01*
X303633Y28117D01*
X304700D01*
X305233Y27584D01*
Y25984D01*
Y27051D02*
X306299Y28117D01*
X303100Y29183D02*
Y31316D01*
Y30250D01*
X306299D01*
X303100Y32382D02*
X306299D01*
Y33982D01*
X305766Y34515D01*
X303633D01*
X303100Y33982D01*
Y32382D01*
X303633Y35581D02*
X303100Y36114D01*
Y37181D01*
X303633Y37714D01*
X305766D01*
X306299Y37181D01*
Y36114D01*
X305766Y35581D01*
X303633D01*
X239803Y26260D02*
X236604D01*
Y27859D01*
X237137Y28392D01*
X238204D01*
X238737Y27859D01*
Y26260D01*
Y27326D02*
X239803Y28392D01*
X236604Y29459D02*
Y31591D01*
Y30525D01*
X239803D01*
X236604Y32658D02*
X239803D01*
Y34257D01*
X239270Y34790D01*
X237137D01*
X236604Y34257D01*
Y32658D01*
Y37989D02*
X237137Y36923D01*
X238204Y35857D01*
X239270D01*
X239803Y36390D01*
Y37456D01*
X239270Y37989D01*
X238737D01*
X238204Y37456D01*
Y35857D01*
X229929Y26260D02*
X226730D01*
Y27859D01*
X227263Y28392D01*
X228330D01*
X228863Y27859D01*
Y26260D01*
Y27326D02*
X229929Y28392D01*
X226730Y29459D02*
Y31591D01*
Y30525D01*
X229929D01*
X226730Y32658D02*
X229929D01*
Y34257D01*
X229396Y34790D01*
X227263D01*
X226730Y34257D01*
Y32658D01*
X229929Y37989D02*
Y35857D01*
X227797Y37989D01*
X227263D01*
X226730Y37456D01*
Y36390D01*
X227263Y35857D01*
X220055Y26260D02*
X216856D01*
Y27859D01*
X217389Y28392D01*
X218456D01*
X218989Y27859D01*
Y26260D01*
Y27326D02*
X220055Y28392D01*
X216856Y29459D02*
Y31591D01*
Y30525D01*
X220055D01*
X216856Y32658D02*
X220055D01*
Y34257D01*
X219522Y34790D01*
X217389D01*
X216856Y34257D01*
Y32658D01*
X217389Y35857D02*
X216856Y36390D01*
Y37456D01*
X217389Y37989D01*
X217922D01*
X218456Y37456D01*
Y36923D01*
Y37456D01*
X218989Y37989D01*
X219522D01*
X220055Y37456D01*
Y36390D01*
X219522Y35857D01*
X140157Y29065D02*
Y26932D01*
X141224Y25866D01*
X142290Y26932D01*
Y29065D01*
X145489Y28532D02*
X144956Y29065D01*
X143890D01*
X143356Y28532D01*
Y26399D01*
X143890Y25866D01*
X144956D01*
X145489Y26399D01*
X148688Y28532D02*
X148155Y29065D01*
X147089D01*
X146555Y28532D01*
Y26399D01*
X147089Y25866D01*
X148155D01*
X148688Y26399D01*
X172408Y28532D02*
X171875Y29065D01*
X170809D01*
X170276Y28532D01*
Y26399D01*
X170809Y25866D01*
X171875D01*
X172408Y26399D01*
Y27466D01*
X171342D01*
X173475Y25866D02*
Y29065D01*
X175607Y25866D01*
Y29065D01*
X176673D02*
Y25866D01*
X178273D01*
X178806Y26399D01*
Y28532D01*
X178273Y29065D01*
X176673D01*
X168622Y25866D02*
X165423D01*
Y27466D01*
X165956Y27999D01*
X167023D01*
X167556Y27466D01*
Y25866D01*
Y26932D02*
X168622Y27999D01*
X165423Y29065D02*
X168622Y31198D01*
X165423D02*
X168622Y29065D01*
X160384Y25866D02*
Y27999D01*
Y26932D01*
X163583D01*
X160384Y29065D02*
X163583Y31198D01*
X160384D02*
X163583Y29065D01*
X155877Y27999D02*
X155344Y27466D01*
Y26399D01*
X155877Y25866D01*
X158010D01*
X158543Y26399D01*
Y27466D01*
X158010Y27999D01*
X155344Y29065D02*
X158543D01*
X157477D01*
X155344Y31198D01*
X156944Y29598D01*
X158543Y31198D01*
X150423Y25866D02*
X153622D01*
Y27466D01*
X153089Y27999D01*
X150956D01*
X150423Y27466D01*
Y25866D01*
Y30665D02*
Y29598D01*
X150956Y29065D01*
X153089D01*
X153622Y29598D01*
Y30665D01*
X153089Y31198D01*
X150956D01*
X150423Y30665D01*
X176306Y23711D02*
X175240D01*
X175773D01*
Y21045D01*
X175240Y20512D01*
X174706D01*
X174173Y21045D01*
X177372Y23711D02*
X179505D01*
X178438D01*
Y20512D01*
X180571D02*
Y22645D01*
X181638Y23711D01*
X182704Y22645D01*
Y20512D01*
Y22111D01*
X180571D01*
X185903Y23178D02*
X185370Y23711D01*
X184303D01*
X183770Y23178D01*
Y21045D01*
X184303Y20512D01*
X185370D01*
X185903Y21045D01*
Y22111D01*
X184836D01*
X110984Y30089D02*
Y27956D01*
X112051Y26890D01*
X113117Y27956D01*
Y30089D01*
X114183Y28489D02*
X116316D01*
X100512Y30089D02*
Y27956D01*
X101578Y26890D01*
X102645Y27956D01*
Y30089D01*
X103711Y28489D02*
X105843D01*
X104777Y29556D02*
Y27423D01*
X90677Y20429D02*
X90144Y19896D01*
Y18829D01*
X90677Y18296D01*
X92809D01*
X93342Y18829D01*
Y19896D01*
X92809Y20429D01*
X90144Y21495D02*
X93342D01*
X91743D01*
Y23628D01*
X90144D01*
X93342D01*
Y24694D02*
X91210D01*
X90144Y25760D01*
X91210Y26827D01*
X93342D01*
X91743D01*
Y24694D01*
X93342Y27893D02*
X90144D01*
Y29493D01*
X90677Y30026D01*
X91743D01*
X92276Y29493D01*
Y27893D01*
Y28959D02*
X93342Y30026D01*
X90677Y33225D02*
X90144Y32691D01*
Y31625D01*
X90677Y31092D01*
X92809D01*
X93342Y31625D01*
Y32691D01*
X92809Y33225D01*
X91743D01*
Y32158D01*
X90144Y36424D02*
Y34291D01*
X93342D01*
Y36424D01*
X91743Y34291D02*
Y35357D01*
X93342Y37490D02*
X90144D01*
Y39089D01*
X90677Y39623D01*
X91743D01*
X92276Y39089D01*
Y37490D01*
Y38556D02*
X93342Y39623D01*
X48976Y26753D02*
X45777D01*
Y28353D01*
X46311Y28886D01*
X47377D01*
X47910Y28353D01*
Y26753D01*
Y27819D02*
X48976Y28886D01*
X45777Y29952D02*
X48976D01*
Y31552D01*
X48443Y32085D01*
X47910D01*
X47377Y31552D01*
Y29952D01*
Y31552D01*
X46844Y32085D01*
X46311D01*
X45777Y31552D01*
Y29952D01*
Y35284D02*
Y33151D01*
X47377D01*
Y34217D01*
Y33151D01*
X48976D01*
X47377Y36350D02*
Y38483D01*
X59252Y26753D02*
X56053D01*
Y28353D01*
X56586Y28886D01*
X57652D01*
X58186Y28353D01*
Y26753D01*
Y27819D02*
X59252Y28886D01*
X56053Y29952D02*
X59252D01*
Y31552D01*
X58719Y32085D01*
X58186D01*
X57652Y31552D01*
Y29952D01*
Y31552D01*
X57119Y32085D01*
X56586D01*
X56053Y31552D01*
Y29952D01*
Y35284D02*
Y33151D01*
X57652D01*
Y34217D01*
Y33151D01*
X59252D01*
X57652Y36350D02*
Y38483D01*
X56586Y37416D02*
X58719D01*
X69410Y26753D02*
X66211D01*
X69410Y28886D01*
X66211D01*
X66744Y32085D02*
X66211Y31552D01*
Y30485D01*
X66744Y29952D01*
X68876D01*
X69410Y30485D01*
Y31552D01*
X68876Y32085D01*
X69410Y35284D02*
Y33151D01*
X67277Y35284D01*
X66744D01*
X66211Y34751D01*
Y33684D01*
X66744Y33151D01*
X30039Y46378D02*
X26840D01*
X30039Y48511D01*
X26840D01*
X27374Y51710D02*
X26840Y51176D01*
Y50110D01*
X27374Y49577D01*
X29506D01*
X30039Y50110D01*
Y51176D01*
X29506Y51710D01*
X30039Y52776D02*
Y53842D01*
Y53309D01*
X26840D01*
X27374Y52776D01*
X27598Y60394D02*
Y63593D01*
X29198D01*
X29731Y63060D01*
Y61993D01*
X29198Y61460D01*
X27598D01*
X28665D02*
X29731Y60394D01*
X30797Y63593D02*
Y60394D01*
X32397D01*
X32930Y60927D01*
Y61460D01*
X32397Y61993D01*
X30797D01*
X32397D01*
X32930Y62526D01*
Y63060D01*
X32397Y63593D01*
X30797D01*
X36129D02*
X33996D01*
Y61993D01*
X35063D01*
X33996D01*
Y60394D01*
X37195Y61993D02*
X39328D01*
X38262Y63060D02*
Y60927D01*
X30797Y66142D02*
X27598D01*
Y67741D01*
X28132Y68274D01*
X29198D01*
X29731Y67741D01*
Y66142D01*
Y67208D02*
X30797Y68274D01*
X27598Y69341D02*
X30797D01*
Y70940D01*
X30264Y71473D01*
X29731D01*
X29198Y70940D01*
Y69341D01*
Y70940D01*
X28665Y71473D01*
X28132D01*
X27598Y70940D01*
Y69341D01*
Y74672D02*
Y72540D01*
X29198D01*
Y73606D01*
Y72540D01*
X30797D01*
X29198Y75739D02*
Y77871D01*
X15866Y147728D02*
X17999D01*
X25866D02*
X27999D01*
X20709D02*
X22841D01*
X21775Y148794D02*
Y146662D01*
X30512Y147728D02*
X32645D01*
X31578Y148794D02*
Y146662D01*
X11024Y175366D02*
X13156D01*
X12090Y176432D02*
Y174300D01*
X35315Y175248D02*
X37448D01*
X11024Y200235D02*
X13156D01*
X12090Y201301D02*
Y199168D01*
X35315Y200117D02*
X37448D01*
X11023Y225103D02*
X13156D01*
X12090Y226170D02*
Y224037D01*
X35315Y224985D02*
X37448D01*
X11024Y249972D02*
X13156D01*
X12090Y251039D02*
Y248906D01*
X35315Y249854D02*
X37448D01*
X11024Y274841D02*
X13156D01*
X12090Y275907D02*
Y273775D01*
X35315Y274723D02*
X37448D01*
X35315Y299592D02*
X37448D01*
X11024Y299710D02*
X13156D01*
X12090Y300776D02*
Y298643D01*
X69832Y317559D02*
X73032D01*
X71432D01*
Y319692D01*
X69832D01*
X73032D01*
Y322891D02*
Y320758D01*
X70899Y322891D01*
X70366D01*
X69832Y322358D01*
Y321291D01*
X70366Y320758D01*
X71432Y323957D02*
Y326090D01*
X86732Y329734D02*
Y326535D01*
Y328135D01*
X88865D01*
Y329734D01*
Y326535D01*
X92064D02*
X89931D01*
X92064Y328668D01*
Y329201D01*
X91531Y329734D01*
X90464D01*
X89931Y329201D01*
X93130Y328135D02*
X95263D01*
X94196Y329201D02*
Y327069D01*
X59793Y317559D02*
X62992D01*
X61393D01*
Y319692D01*
X59793D01*
X62992D01*
Y320758D02*
Y321824D01*
Y321291D01*
X59793D01*
X60326Y320758D01*
X61393Y323424D02*
Y325556D01*
X60326Y324490D02*
X62459D01*
X49754Y317559D02*
X52953D01*
X51353D01*
Y319692D01*
X49754D01*
X52953D01*
Y320758D02*
Y321824D01*
Y321291D01*
X49754D01*
X50287Y320758D01*
X51353Y323424D02*
Y325556D01*
X27716Y333947D02*
Y330748D01*
Y332347D01*
X29849D01*
Y333947D01*
Y330748D01*
X33048Y333947D02*
X30915D01*
Y330748D01*
X33048D01*
X30915Y332347D02*
X31982D01*
X34115Y330748D02*
Y332881D01*
X35181Y333947D01*
X36247Y332881D01*
Y330748D01*
Y332347D01*
X34115D01*
X37314Y333947D02*
X39446D01*
X38380D01*
Y330748D01*
X42645Y333947D02*
X40512D01*
Y330748D01*
X42645D01*
X40512Y332347D02*
X41579D01*
X43711Y330748D02*
Y333947D01*
X45311D01*
X45844Y333414D01*
Y332347D01*
X45311Y331814D01*
X43711D01*
X44778D02*
X45844Y330748D01*
X12323Y28228D02*
Y31427D01*
X13922D01*
X14456Y30894D01*
Y29828D01*
X13922Y29295D01*
X12323D01*
X17654Y30894D02*
X17121Y31427D01*
X16055D01*
X15522Y30894D01*
Y28762D01*
X16055Y28228D01*
X17121D01*
X17654Y28762D01*
Y29828D01*
X16588D01*
X18721Y28228D02*
Y31427D01*
X20853Y28228D01*
Y31427D01*
X21920D02*
Y28228D01*
X23519D01*
X24052Y28762D01*
Y30894D01*
X23519Y31427D01*
X21920D01*
X10512Y344055D02*
Y346188D01*
X11578Y347254D01*
X12644Y346188D01*
Y344055D01*
Y345655D01*
X10512D01*
X15843Y346721D02*
X15310Y347254D01*
X14244D01*
X13711Y346721D01*
Y344588D01*
X14244Y344055D01*
X15310D01*
X15843Y344588D01*
Y345655D01*
X14777D01*
X16910Y344055D02*
Y347254D01*
X19042Y344055D01*
Y347254D01*
X20109D02*
Y344055D01*
X21708D01*
X22241Y344588D01*
Y346721D01*
X21708Y347254D01*
X20109D01*
X326677Y329562D02*
Y326363D01*
X328277D01*
X328810Y326896D01*
Y329029D01*
X328277Y329562D01*
X326677D01*
X332009Y329029D02*
X331475Y329562D01*
X330409D01*
X329876Y329029D01*
Y326896D01*
X330409Y326363D01*
X331475D01*
X332009Y326896D01*
Y327962D01*
X330942D01*
X333075Y326363D02*
Y329562D01*
X335208Y326363D01*
Y329562D01*
X336274D02*
Y326363D01*
X337874D01*
X338407Y326896D01*
Y329029D01*
X337874Y329562D01*
X336274D01*
X315472Y314566D02*
Y311614D01*
Y313090D01*
X317440D01*
Y314566D01*
Y311614D01*
X318424D02*
X319408D01*
X318916D01*
Y314566D01*
X318424Y314074D01*
X335748Y315078D02*
Y312126D01*
Y313602D01*
X337716D01*
Y315078D01*
Y312126D01*
X340668D02*
X338700D01*
X340668Y314094D01*
Y314586D01*
X340176Y315078D01*
X339192D01*
X338700Y314586D01*
X298533Y152284D02*
Y154416D01*
Y153350D01*
X301732D01*
X298533Y155482D02*
X301732Y157615D01*
X298533D02*
X301732Y155482D01*
Y142441D02*
X298533D01*
Y144040D01*
X299066Y144574D01*
X300133D01*
X300666Y144040D01*
Y142441D01*
Y143507D02*
X301732Y144574D01*
X298533Y145640D02*
X301732Y147773D01*
X298533D02*
X301732Y145640D01*
X300630Y129459D02*
Y126260D01*
X302229D01*
X302763Y126793D01*
Y128926D01*
X302229Y129459D01*
X300630D01*
X305961Y128926D02*
X305428Y129459D01*
X304362D01*
X303829Y128926D01*
Y126793D01*
X304362Y126260D01*
X305428D01*
X305961Y126793D01*
Y127859D01*
X304895D01*
X307028Y126260D02*
Y129459D01*
X309160Y126260D01*
Y129459D01*
X310227D02*
Y126260D01*
X311826D01*
X312359Y126793D01*
Y128926D01*
X311826Y129459D01*
X310227D01*
X84986Y18296D02*
X88185D01*
Y19896D01*
X87652Y20429D01*
X87119D01*
X86585Y19896D01*
Y18296D01*
Y19896D01*
X86052Y20429D01*
X85519D01*
X84986Y19896D01*
Y18296D01*
X88185Y21495D02*
X86052D01*
X84986Y22561D01*
X86052Y23628D01*
X88185D01*
X86585D01*
Y21495D01*
X84986Y24694D02*
Y26827D01*
Y25760D01*
X88185D01*
X84986Y27893D02*
Y30026D01*
Y28959D01*
X88185D01*
X84986Y33225D02*
Y31092D01*
X88185D01*
Y33225D01*
X86585Y31092D02*
Y32158D01*
X88185Y34291D02*
X84986D01*
Y35890D01*
X85519Y36424D01*
X86585D01*
X87119Y35890D01*
Y34291D01*
Y35357D02*
X88185Y36424D01*
X84986Y37490D02*
X85519D01*
X86585Y38556D01*
X85519Y39623D01*
X84986D01*
X86585Y38556D02*
X88185D01*
X311260Y41810D02*
Y38858D01*
Y40334D01*
X313228D01*
Y41810D01*
Y38858D01*
X314212D02*
X315196D01*
X314704D01*
Y41810D01*
X314212Y41318D01*
X340905Y41889D02*
Y38937D01*
Y40413D01*
X342873D01*
Y41889D01*
Y38937D01*
X345825D02*
X343857D01*
X345825Y40905D01*
Y41397D01*
X345333Y41889D01*
X344349D01*
X343857Y41397D01*
X328505Y39212D02*
Y37244D01*
X329981D01*
X329489Y38228D01*
Y38720D01*
X329981Y39212D01*
X330965D01*
X331457Y38720D01*
Y37736D01*
X330965Y37244D01*
X331457Y42164D02*
Y40196D01*
X329489Y42164D01*
X328997D01*
X328505Y41672D01*
Y40688D01*
X328997Y40196D01*
X318151Y40039D02*
Y38071D01*
X319626D01*
X319134Y39055D01*
Y39547D01*
X319626Y40039D01*
X320610D01*
X321102Y39547D01*
Y38563D01*
X320610Y38071D01*
X321102Y41023D02*
Y42007D01*
Y41515D01*
X318151D01*
X318642Y41023D01*
X335434Y40039D02*
Y38071D01*
X336910D01*
X336418Y39055D01*
Y39547D01*
X336910Y40039D01*
X337894D01*
X338386Y39547D01*
Y38563D01*
X337894Y38071D01*
X338386Y41023D02*
Y42007D01*
Y41515D01*
X335434D01*
X335926Y41023D01*
X356954Y48213D02*
Y46245D01*
X358430D01*
X357938Y47229D01*
Y47721D01*
X358430Y48213D01*
X359414D01*
X359905Y47721D01*
Y46737D01*
X359414Y46245D01*
X359905Y51164D02*
Y49196D01*
X357938Y51164D01*
X357446D01*
X356954Y50672D01*
Y49689D01*
X357446Y49196D01*
X321461Y308981D02*
Y309965D01*
Y309473D01*
X318509D01*
X319001Y308981D01*
X331697Y310358D02*
Y308390D01*
X329729Y310358D01*
X329237D01*
X328745Y309866D01*
Y308882D01*
X329237Y308390D01*
X351480Y310358D02*
Y308390D01*
X349512Y310358D01*
X349020D01*
X348528Y309866D01*
Y308882D01*
X349020Y308390D01*
X341342Y308489D02*
Y309473D01*
Y308981D01*
X338391D01*
X338883Y308489D01*
X4488Y145669D02*
Y148868D01*
X6088D01*
X6621Y148335D01*
Y147269D01*
X6088Y146736D01*
X4488D01*
X9820Y148868D02*
X7687D01*
Y147269D01*
X8754Y147802D01*
X9287D01*
X9820Y147269D01*
Y146202D01*
X9287Y145669D01*
X8220D01*
X7687Y146202D01*
X49528Y120876D02*
Y118744D01*
X50594Y117677D01*
X51660Y118744D01*
Y120876D01*
X52727D02*
Y117677D01*
X54326D01*
X54859Y118210D01*
Y118744D01*
X54326Y119277D01*
X52727D01*
X54326D01*
X54859Y119810D01*
Y120343D01*
X54326Y120876D01*
X52727D01*
X55926Y119810D02*
Y118210D01*
X56459Y117677D01*
X58058D01*
Y119810D01*
X59124Y117677D02*
X60724D01*
X61257Y118210D01*
X60724Y118744D01*
X59658D01*
X59124Y119277D01*
X59658Y119810D01*
X61257D01*
X62323Y117144D02*
X64456D01*
X65522Y120876D02*
X67655D01*
X66589D01*
Y117677D01*
X68721D02*
Y120876D01*
X70321D01*
X70854Y120343D01*
Y119277D01*
X70321Y118744D01*
X68721D01*
X240472Y71978D02*
Y69313D01*
X241006Y68779D01*
X242072D01*
X242605Y69313D01*
Y71978D01*
X243671Y68779D02*
X244738D01*
X244205D01*
Y71978D01*
X243671Y71445D01*
X247937Y68779D02*
Y71978D01*
X246337Y70379D01*
X248470D01*
X323944Y33593D02*
X321811D01*
Y31993D01*
X322877Y32526D01*
X323411D01*
X323944Y31993D01*
Y30927D01*
X323411Y30394D01*
X322344D01*
X321811Y30927D01*
X325010Y33593D02*
Y31460D01*
X326076Y30394D01*
X327143Y31460D01*
Y33593D01*
X328209Y29860D02*
X330342D01*
X331408Y33593D02*
X333541D01*
X332474D01*
Y30394D01*
X336739Y33059D02*
X336206Y33593D01*
X335140D01*
X334607Y33059D01*
Y30927D01*
X335140Y30394D01*
X336206D01*
X336739Y30927D01*
X339938Y33059D02*
X339405Y33593D01*
X338339D01*
X337806Y33059D01*
Y30927D01*
X338339Y30394D01*
X339405D01*
X339938Y30927D01*
X166339Y328371D02*
X168471D01*
X169538Y329971D02*
Y326772D01*
X171670D01*
X172737Y329437D02*
X173270Y329971D01*
X174336D01*
X174869Y329437D01*
Y328904D01*
X174336Y328371D01*
X173803D01*
X174336D01*
X174869Y327838D01*
Y327305D01*
X174336Y326772D01*
X173270D01*
X172737Y327305D01*
X14055Y323686D02*
X16188D01*
X15121Y324752D02*
Y322620D01*
X17254Y325286D02*
Y322087D01*
X19387D01*
X22586D02*
X20453D01*
X22586Y324219D01*
Y324752D01*
X22052Y325286D01*
X20986D01*
X20453Y324752D01*
X74764Y305482D02*
Y303350D01*
X75830Y302284D01*
X76896Y303350D01*
Y305482D01*
X77963Y301217D02*
Y304416D01*
X79562D01*
X80095Y303883D01*
Y302817D01*
X79562Y302284D01*
X77963D01*
X81695Y304416D02*
X82761D01*
X83294Y303883D01*
Y302284D01*
X81695D01*
X81162Y302817D01*
X81695Y303350D01*
X83294D01*
X84361Y302284D02*
Y304416D01*
X85960D01*
X86493Y303883D01*
Y302284D01*
X89159D02*
X88093D01*
X87560Y302817D01*
Y303883D01*
X88093Y304416D01*
X89159D01*
X89692Y303883D01*
Y303350D01*
X87560D01*
X90759Y302284D02*
X91825D01*
X91292D01*
Y305482D01*
X90759D01*
X93424Y302284D02*
X95024D01*
X95557Y302817D01*
X95024Y303350D01*
X93958D01*
X93424Y303883D01*
X93958Y304416D01*
X95557D01*
X50945Y47638D02*
X47746D01*
Y49237D01*
X48279Y49770D01*
X49345D01*
X49879Y49237D01*
Y47638D01*
Y48704D02*
X50945Y49770D01*
X48279Y50837D02*
X47746Y51370D01*
Y52436D01*
X48279Y52969D01*
X48812D01*
X49345Y52436D01*
X49879Y52969D01*
X50412D01*
X50945Y52436D01*
Y51370D01*
X50412Y50837D01*
X49879D01*
X49345Y51370D01*
X48812Y50837D01*
X48279D01*
X49345Y51370D02*
Y52436D01*
X47746Y56168D02*
Y54036D01*
X49345D01*
X48812Y55102D01*
Y55635D01*
X49345Y56168D01*
X50412D01*
X50945Y55635D01*
Y54569D01*
X50412Y54036D01*
X61929Y254792D02*
X61396Y255325D01*
X60330D01*
X59797Y254792D01*
Y252659D01*
X60330Y252126D01*
X61396D01*
X61929Y252659D01*
X62995Y252126D02*
X64062D01*
X63529D01*
Y255325D01*
X62995Y254792D01*
X65661Y252126D02*
X66728D01*
X66194D01*
Y255325D01*
X65661Y254792D01*
X68327D02*
X68860Y255325D01*
X69927D01*
X70460Y254792D01*
Y254259D01*
X69927Y253726D01*
X70460Y253192D01*
Y252659D01*
X69927Y252126D01*
X68860D01*
X68327Y252659D01*
Y253192D01*
X68860Y253726D01*
X68327Y254259D01*
Y254792D01*
X68860Y253726D02*
X69927D01*
X61929Y243886D02*
X61396Y244419D01*
X60330D01*
X59797Y243886D01*
Y241754D01*
X60330Y241220D01*
X61396D01*
X61929Y241754D01*
X62995Y241220D02*
X64062D01*
X63529D01*
Y244419D01*
X62995Y243886D01*
X65661Y241220D02*
X66728D01*
X66194D01*
Y244419D01*
X65661Y243886D01*
X68327Y244419D02*
X70460D01*
Y243886D01*
X68327Y241754D01*
Y241220D01*
X87307Y71767D02*
Y69101D01*
X87840Y68568D01*
X88907D01*
X89440Y69101D01*
Y71767D01*
X90506Y68568D02*
X91572D01*
X91039D01*
Y71767D01*
X90506Y71233D01*
X93172D02*
X93705Y71767D01*
X94771D01*
X95304Y71233D01*
Y69101D01*
X94771Y68568D01*
X93705D01*
X93172Y69101D01*
Y71233D01*
X143449Y164640D02*
Y161975D01*
X143982Y161442D01*
X145048D01*
X145581Y161975D01*
Y164640D01*
X146648Y161975D02*
X147181Y161442D01*
X148247D01*
X148780Y161975D01*
Y164107D01*
X148247Y164640D01*
X147181D01*
X146648Y164107D01*
Y163574D01*
X147181Y163041D01*
X148780D01*
X265850Y128814D02*
Y126148D01*
X266384Y125615D01*
X267450D01*
X267983Y126148D01*
Y128814D01*
X270649Y125615D02*
Y128814D01*
X269049Y127214D01*
X271182D01*
X252244Y282333D02*
Y279667D01*
X252777Y279134D01*
X253844D01*
X254377Y279667D01*
Y282333D01*
X255443Y281800D02*
X255976Y282333D01*
X257043D01*
X257576Y281800D01*
Y281266D01*
X257043Y280733D01*
X256509D01*
X257043D01*
X257576Y280200D01*
Y279667D01*
X257043Y279134D01*
X255976D01*
X255443Y279667D01*
X164512Y72318D02*
Y69652D01*
X165045Y69119D01*
X166111D01*
X166644Y69652D01*
Y72318D01*
X169843Y69119D02*
X167711D01*
X169843Y71251D01*
Y71785D01*
X169310Y72318D01*
X168244D01*
X167711Y71785D01*
X127543Y33882D02*
Y37082D01*
X129143D01*
X129676Y36548D01*
Y35482D01*
X129143Y34949D01*
X127543D01*
X128610D02*
X129676Y33882D01*
X132875Y37082D02*
X130742D01*
Y35482D01*
X131808Y36015D01*
X132342D01*
X132875Y35482D01*
Y34416D01*
X132342Y33882D01*
X131275D01*
X130742Y34416D01*
X133941D02*
X134474Y33882D01*
X135541D01*
X136074Y34416D01*
Y36548D01*
X135541Y37082D01*
X134474D01*
X133941Y36548D01*
Y36015D01*
X134474Y35482D01*
X136074D01*
X97559Y40472D02*
Y43671D01*
X99159D01*
X99692Y43138D01*
Y42072D01*
X99159Y41539D01*
X97559D01*
X98625D02*
X99692Y40472D01*
X102891Y43671D02*
X100758D01*
Y42072D01*
X101824Y42605D01*
X102357D01*
X102891Y42072D01*
Y41006D01*
X102357Y40472D01*
X101291D01*
X100758Y41006D01*
X103957Y43671D02*
X106090D01*
Y43138D01*
X103957Y41006D01*
Y40472D01*
X110197Y40315D02*
Y43514D01*
X111796D01*
X112329Y42981D01*
Y41914D01*
X111796Y41381D01*
X110197D01*
X111263D02*
X112329Y40315D01*
X115529Y43514D02*
X113396D01*
Y41914D01*
X114462Y42448D01*
X114995D01*
X115529Y41914D01*
Y40848D01*
X114995Y40315D01*
X113929D01*
X113396Y40848D01*
X118727Y43514D02*
X117661Y42981D01*
X116595Y41914D01*
Y40848D01*
X117128Y40315D01*
X118194D01*
X118727Y40848D01*
Y41381D01*
X118194Y41914D01*
X116595D01*
X132126Y86693D02*
Y89892D01*
X133726D01*
X134259Y89359D01*
Y88292D01*
X133726Y87759D01*
X132126D01*
X133192D02*
X134259Y86693D01*
X137458Y89892D02*
X135325D01*
Y88292D01*
X136391Y88826D01*
X136924D01*
X137458Y88292D01*
Y87226D01*
X136924Y86693D01*
X135858D01*
X135325Y87226D01*
X140657Y89892D02*
X138524D01*
Y88292D01*
X139590Y88826D01*
X140123D01*
X140657Y88292D01*
Y87226D01*
X140123Y86693D01*
X139057D01*
X138524Y87226D01*
X99748Y166520D02*
Y169719D01*
X101347D01*
X101881Y169186D01*
Y168120D01*
X101347Y167587D01*
X99748D01*
X100814D02*
X101881Y166520D01*
X105080Y169719D02*
X102947D01*
Y168120D01*
X104013Y168653D01*
X104546D01*
X105080Y168120D01*
Y167053D01*
X104546Y166520D01*
X103480D01*
X102947Y167053D01*
X107745Y166520D02*
Y169719D01*
X106146Y168120D01*
X108279D01*
X99748Y177780D02*
Y180979D01*
X101347D01*
X101881Y180446D01*
Y179380D01*
X101347Y178847D01*
X99748D01*
X100814D02*
X101881Y177780D01*
X105080Y180979D02*
X102947D01*
Y179380D01*
X104013Y179913D01*
X104546D01*
X105080Y179380D01*
Y178313D01*
X104546Y177780D01*
X103480D01*
X102947Y178313D01*
X108279Y177780D02*
X106146D01*
X108279Y179913D01*
Y180446D01*
X107745Y180979D01*
X106679D01*
X106146Y180446D01*
X120024Y122977D02*
Y126176D01*
X121623D01*
X122156Y125643D01*
Y124576D01*
X121623Y124043D01*
X120024D01*
X121090D02*
X122156Y122977D01*
X125355Y126176D02*
X123222D01*
Y124576D01*
X124289Y125110D01*
X124822D01*
X125355Y124576D01*
Y123510D01*
X124822Y122977D01*
X123756D01*
X123222Y123510D01*
X126421Y125643D02*
X126955Y126176D01*
X128021D01*
X128554Y125643D01*
Y123510D01*
X128021Y122977D01*
X126955D01*
X126421Y123510D01*
Y125643D01*
X285315Y323268D02*
Y326467D01*
X286914D01*
X287448Y325934D01*
Y324867D01*
X286914Y324334D01*
X285315D01*
X286381D02*
X287448Y323268D01*
X290647D02*
X288514D01*
X290647Y325400D01*
Y325934D01*
X290113Y326467D01*
X289047D01*
X288514Y325934D01*
X293846Y326467D02*
X292779Y325934D01*
X291713Y324867D01*
Y323801D01*
X292246Y323268D01*
X293312D01*
X293846Y323801D01*
Y324334D01*
X293312Y324867D01*
X291713D01*
X285591Y343937D02*
Y347136D01*
X287190D01*
X287723Y346603D01*
Y345536D01*
X287190Y345003D01*
X285591D01*
X286657D02*
X287723Y343937D01*
X290922D02*
X288790D01*
X290922Y346070D01*
Y346603D01*
X290389Y347136D01*
X289323D01*
X288790Y346603D01*
X294121Y347136D02*
X291988D01*
Y345536D01*
X293055Y346070D01*
X293588D01*
X294121Y345536D01*
Y344470D01*
X293588Y343937D01*
X292522D01*
X291988Y344470D01*
X224095Y152756D02*
X220896D01*
Y154355D01*
X221429Y154889D01*
X222495D01*
X223028Y154355D01*
Y152756D01*
Y153822D02*
X224095Y154889D01*
Y158088D02*
Y155955D01*
X221962Y158088D01*
X221429D01*
X220896Y157554D01*
Y156488D01*
X221429Y155955D01*
X224095Y160753D02*
X220896D01*
X222495Y159154D01*
Y161286D01*
X237480Y136102D02*
X234281D01*
Y137702D01*
X234815Y138235D01*
X235881D01*
X236414Y137702D01*
Y136102D01*
Y137169D02*
X237480Y138235D01*
Y141434D02*
Y139301D01*
X235348Y141434D01*
X234815D01*
X234281Y140901D01*
Y139834D01*
X234815Y139301D01*
X237480Y144633D02*
Y142500D01*
X235348Y144633D01*
X234815D01*
X234281Y144100D01*
Y143034D01*
X234815Y142500D01*
X297087Y253386D02*
X293888D01*
Y254985D01*
X294421Y255519D01*
X295487D01*
X296020Y254985D01*
Y253386D01*
Y254452D02*
X297087Y255519D01*
Y258717D02*
Y256585D01*
X294954Y258717D01*
X294421D01*
X293888Y258184D01*
Y257118D01*
X294421Y256585D01*
X297087Y259784D02*
Y260850D01*
Y260317D01*
X293888D01*
X294421Y259784D01*
X292480Y124764D02*
X295679D01*
Y123164D01*
X295146Y122631D01*
X294080D01*
X293547Y123164D01*
Y124764D01*
Y123697D02*
X292480Y122631D01*
Y119432D02*
Y121565D01*
X294613Y119432D01*
X295146D01*
X295679Y119965D01*
Y121032D01*
X295146Y121565D01*
Y118366D02*
X295679Y117833D01*
Y116766D01*
X295146Y116233D01*
X293014D01*
X292480Y116766D01*
Y117833D01*
X293014Y118366D01*
X295146D01*
X298031Y289291D02*
X294832D01*
Y290891D01*
X295366Y291424D01*
X296432D01*
X296965Y290891D01*
Y289291D01*
Y290358D02*
X298031Y291424D01*
Y292490D02*
Y293557D01*
Y293023D01*
X294832D01*
X295366Y292490D01*
X297498Y295156D02*
X298031Y295689D01*
Y296756D01*
X297498Y297289D01*
X295366D01*
X294832Y296756D01*
Y295689D01*
X295366Y295156D01*
X295899D01*
X296432Y295689D01*
Y297289D01*
X297677Y273543D02*
X294478D01*
Y275143D01*
X295011Y275676D01*
X296078D01*
X296611Y275143D01*
Y273543D01*
Y274610D02*
X297677Y275676D01*
Y276742D02*
Y277809D01*
Y277275D01*
X294478D01*
X295011Y276742D01*
X294478Y279408D02*
Y281541D01*
X295011D01*
X297144Y279408D01*
X297677D01*
X239030Y188937D02*
Y192136D01*
X240629D01*
X241162Y191603D01*
Y190536D01*
X240629Y190003D01*
X239030D01*
X240096D02*
X241162Y188937D01*
X242229D02*
X243295D01*
X242762D01*
Y192136D01*
X242229Y191603D01*
X247027Y192136D02*
X245961Y191603D01*
X244895Y190536D01*
Y189470D01*
X245428Y188937D01*
X246494D01*
X247027Y189470D01*
Y190003D01*
X246494Y190536D01*
X244895D01*
X208465Y295315D02*
X205266D01*
Y296914D01*
X205799Y297448D01*
X206865D01*
X207398Y296914D01*
Y295315D01*
Y296381D02*
X208465Y297448D01*
Y298514D02*
Y299580D01*
Y299047D01*
X205266D01*
X205799Y298514D01*
X205266Y303312D02*
Y301180D01*
X206865D01*
X206332Y302246D01*
Y302779D01*
X206865Y303312D01*
X207931D01*
X208465Y302779D01*
Y301713D01*
X207931Y301180D01*
X158622Y34961D02*
Y38160D01*
X160222D01*
X160755Y37626D01*
Y36560D01*
X160222Y36027D01*
X158622D01*
X159688D02*
X160755Y34961D01*
X161821D02*
X162887D01*
X162354D01*
Y38160D01*
X161821Y37626D01*
X166086Y34961D02*
Y38160D01*
X164487Y36560D01*
X166620D01*
X175118Y38386D02*
Y41585D01*
X176718D01*
X177251Y41052D01*
Y39985D01*
X176718Y39452D01*
X175118D01*
X176184D02*
X177251Y38386D01*
X178317D02*
X179383D01*
X178850D01*
Y41585D01*
X178317Y41052D01*
X180983D02*
X181516Y41585D01*
X182582D01*
X183115Y41052D01*
Y40519D01*
X182582Y39985D01*
X182049D01*
X182582D01*
X183115Y39452D01*
Y38919D01*
X182582Y38386D01*
X181516D01*
X180983Y38919D01*
X189945Y58410D02*
Y61609D01*
X191544D01*
X192077Y61076D01*
Y60009D01*
X191544Y59476D01*
X189945D01*
X191011D02*
X192077Y58410D01*
X193144D02*
X194210D01*
X193677D01*
Y61609D01*
X193144Y61076D01*
X197942Y58410D02*
X195810D01*
X197942Y60543D01*
Y61076D01*
X197409Y61609D01*
X196343D01*
X195810Y61076D01*
X189488Y38386D02*
Y41585D01*
X191088D01*
X191621Y41052D01*
Y39985D01*
X191088Y39452D01*
X189488D01*
X190554D02*
X191621Y38386D01*
X192687D02*
X193754D01*
X193220D01*
Y41585D01*
X192687Y41052D01*
X195353Y38386D02*
X196419D01*
X195886D01*
Y41585D01*
X195353Y41052D01*
X229449Y81968D02*
Y85167D01*
X231048D01*
X231581Y84634D01*
Y83568D01*
X231048Y83035D01*
X229449D01*
X230515D02*
X231581Y81968D01*
X232648D02*
X233714D01*
X233181D01*
Y85167D01*
X232648Y84634D01*
X235314D02*
X235847Y85167D01*
X236913D01*
X237446Y84634D01*
Y82502D01*
X236913Y81968D01*
X235847D01*
X235314Y82502D01*
Y84634D01*
X152992Y42992D02*
Y46191D01*
X154592D01*
X155125Y45658D01*
Y44592D01*
X154592Y44058D01*
X152992D01*
X154058D02*
X155125Y42992D01*
X156191Y43525D02*
X156724Y42992D01*
X157791D01*
X158324Y43525D01*
Y45658D01*
X157791Y46191D01*
X156724D01*
X156191Y45658D01*
Y45125D01*
X156724Y44592D01*
X158324D01*
X246220Y41102D02*
Y44301D01*
X247820D01*
X248353Y43768D01*
Y42702D01*
X247820Y42169D01*
X246220D01*
X247287D02*
X248353Y41102D01*
X249419Y44301D02*
X251552D01*
Y43768D01*
X249419Y41636D01*
Y41102D01*
X246260Y28189D02*
Y31388D01*
X247859D01*
X248393Y30855D01*
Y29789D01*
X247859Y29255D01*
X246260D01*
X247326D02*
X248393Y28189D01*
X251591Y31388D02*
X250525Y30855D01*
X249459Y29789D01*
Y28722D01*
X249992Y28189D01*
X251058D01*
X251591Y28722D01*
Y29255D01*
X251058Y29789D01*
X249459D01*
X268150Y61063D02*
Y64262D01*
X269749D01*
X270282Y63729D01*
Y62663D01*
X269749Y62129D01*
X268150D01*
X269216D02*
X270282Y61063D01*
X273481Y64262D02*
X271349D01*
Y62663D01*
X272415Y63196D01*
X272948D01*
X273481Y62663D01*
Y61596D01*
X272948Y61063D01*
X271882D01*
X271349Y61596D01*
X257913Y40394D02*
Y43593D01*
X259513D01*
X260046Y43060D01*
Y41993D01*
X259513Y41460D01*
X257913D01*
X258980D02*
X260046Y40394D01*
X262712D02*
Y43593D01*
X261112Y41993D01*
X263245D01*
X299331Y46378D02*
Y49577D01*
X300930D01*
X301463Y49044D01*
Y47977D01*
X300930Y47444D01*
X299331D01*
X300397D02*
X301463Y46378D01*
X302530Y49044D02*
X303063Y49577D01*
X304129D01*
X304662Y49044D01*
Y48511D01*
X304129Y47977D01*
X303596D01*
X304129D01*
X304662Y47444D01*
Y46911D01*
X304129Y46378D01*
X303063D01*
X302530Y46911D01*
X206968Y40394D02*
X203769D01*
Y41993D01*
X204303Y42526D01*
X205369D01*
X205902Y41993D01*
Y40394D01*
Y41460D02*
X206968Y42526D01*
Y45725D02*
Y43593D01*
X204836Y45725D01*
X204303D01*
X203769Y45192D01*
Y44126D01*
X204303Y43593D01*
X190952Y293132D02*
Y295264D01*
X190418Y295797D01*
X189352D01*
X188819Y295264D01*
Y293132D01*
X189352Y292598D01*
X190418D01*
X189885Y293665D02*
X190952Y292598D01*
X190418D02*
X190952Y293132D01*
X192018Y292598D02*
X193084D01*
X192551D01*
Y295797D01*
X192018Y295264D01*
X194684D02*
X195217Y295797D01*
X196283D01*
X196816Y295264D01*
Y293132D01*
X196283Y292598D01*
X195217D01*
X194684Y293132D01*
Y295264D01*
X191290Y242014D02*
Y244147D01*
X190757Y244680D01*
X189691D01*
X189157Y244147D01*
Y242014D01*
X189691Y241481D01*
X190757D01*
X190224Y242547D02*
X191290Y241481D01*
X190757D02*
X191290Y242014D01*
X192356D02*
X192889Y241481D01*
X193956D01*
X194489Y242014D01*
Y244147D01*
X193956Y244680D01*
X192889D01*
X192356Y244147D01*
Y243614D01*
X192889Y243080D01*
X194489D01*
X167510Y214652D02*
Y216785D01*
X166977Y217318D01*
X165911D01*
X165378Y216785D01*
Y214652D01*
X165911Y214119D01*
X166977D01*
X166444Y215185D02*
X167510Y214119D01*
X166977D02*
X167510Y214652D01*
X168577Y216785D02*
X169110Y217318D01*
X170176D01*
X170710Y216785D01*
Y216251D01*
X170176Y215718D01*
X170710Y215185D01*
Y214652D01*
X170176Y214119D01*
X169110D01*
X168577Y214652D01*
Y215185D01*
X169110Y215718D01*
X168577Y216251D01*
Y216785D01*
X169110Y215718D02*
X170176D01*
X60322Y61124D02*
Y63256D01*
X59789Y63789D01*
X58722D01*
X58189Y63256D01*
Y61124D01*
X58722Y60590D01*
X59789D01*
X59255Y61657D02*
X60322Y60590D01*
X59789D02*
X60322Y61124D01*
X62987Y60590D02*
Y63789D01*
X61388Y62190D01*
X63521D01*
X60203Y108210D02*
Y110343D01*
X59670Y110876D01*
X58604D01*
X58071Y110343D01*
Y108210D01*
X58604Y107677D01*
X59670D01*
X59137Y108744D02*
X60203Y107677D01*
X59670D02*
X60203Y108210D01*
X61270Y110343D02*
X61803Y110876D01*
X62869D01*
X63402Y110343D01*
Y109810D01*
X62869Y109277D01*
X62336D01*
X62869D01*
X63402Y108744D01*
Y108210D01*
X62869Y107677D01*
X61803D01*
X61270Y108210D01*
X279849Y317108D02*
Y319241D01*
X279316Y319774D01*
X278250D01*
X277716Y319241D01*
Y317108D01*
X278250Y316575D01*
X279316D01*
X278783Y317641D02*
X279849Y316575D01*
X279316D02*
X279849Y317108D01*
X283048Y316575D02*
X280915D01*
X283048Y318707D01*
Y319241D01*
X282515Y319774D01*
X281449D01*
X280915Y319241D01*
X221542Y342738D02*
Y344870D01*
X221009Y345404D01*
X219943D01*
X219409Y344870D01*
Y342738D01*
X219943Y342205D01*
X221009D01*
X220476Y343271D02*
X221542Y342205D01*
X221009D02*
X221542Y342738D01*
X222608Y342205D02*
X223675D01*
X223142D01*
Y345404D01*
X222608Y344870D01*
X301142Y166191D02*
Y163525D01*
X301675Y162992D01*
X302741D01*
X303274Y163525D01*
Y166191D01*
X304341Y162992D02*
Y165125D01*
X305407Y166191D01*
X306473Y165125D01*
Y162992D01*
Y164592D01*
X304341D01*
X307540Y162992D02*
Y166191D01*
X309139D01*
X309672Y165658D01*
Y164592D01*
X309139Y164058D01*
X307540D01*
X308606D02*
X309672Y162992D01*
X310739Y166191D02*
X312871D01*
X311805D01*
Y162992D01*
X34928Y24438D02*
X34395Y24971D01*
X33328D01*
X32795Y24438D01*
Y23904D01*
X33328Y23371D01*
X34395D01*
X34928Y22838D01*
Y22305D01*
X34395Y21772D01*
X33328D01*
X32795Y22305D01*
X35994Y24971D02*
Y21772D01*
X37061Y22838D01*
X38127Y21772D01*
Y24971D01*
X41326Y21772D02*
X39193D01*
X41326Y23904D01*
Y24438D01*
X40793Y24971D01*
X39726D01*
X39193Y24438D01*
X20810Y82681D02*
X20277Y83214D01*
X19210D01*
X18677Y82681D01*
Y82148D01*
X19210Y81615D01*
X20277D01*
X20810Y81081D01*
Y80548D01*
X20277Y80015D01*
X19210D01*
X18677Y80548D01*
X21876Y83214D02*
Y80015D01*
X22942Y81081D01*
X24009Y80015D01*
Y83214D01*
X25075Y80015D02*
X26142D01*
X25608D01*
Y83214D01*
X25075Y82681D01*
X160906Y345325D02*
Y342126D01*
X163038D01*
X164104Y342659D02*
X164638Y342126D01*
X165704D01*
X166237Y342659D01*
Y344792D01*
X165704Y345325D01*
X164638D01*
X164104Y344792D01*
Y344259D01*
X164638Y343725D01*
X166237D01*
X161299Y291112D02*
Y287913D01*
X163432D01*
X164498Y290579D02*
X165031Y291112D01*
X166098D01*
X166631Y290579D01*
Y290046D01*
X166098Y289513D01*
X166631Y288980D01*
Y288446D01*
X166098Y287913D01*
X165031D01*
X164498Y288446D01*
Y288980D01*
X165031Y289513D01*
X164498Y290046D01*
Y290579D01*
X165031Y289513D02*
X166098D01*
X161732Y189892D02*
Y186693D01*
X163865D01*
X164931Y189892D02*
X167064D01*
Y189359D01*
X164931Y187226D01*
Y186693D01*
X101165Y124719D02*
Y121520D01*
X103298D01*
X106497Y124719D02*
X105431Y124186D01*
X104364Y123120D01*
Y122053D01*
X104897Y121520D01*
X105964D01*
X106497Y122053D01*
Y122587D01*
X105964Y123120D01*
X104364D01*
X172189Y168223D02*
Y165024D01*
X174321D01*
X177521Y168223D02*
X175388D01*
Y166624D01*
X176454Y167157D01*
X176987D01*
X177521Y166624D01*
Y165557D01*
X176987Y165024D01*
X175921D01*
X175388Y165557D01*
X250866Y176782D02*
Y173583D01*
X252999D01*
X255665D02*
Y176782D01*
X254065Y175182D01*
X256198D01*
X200433Y229931D02*
Y226732D01*
X202566D01*
X203632Y229398D02*
X204165Y229931D01*
X205231D01*
X205765Y229398D01*
Y228865D01*
X205231Y228332D01*
X204698D01*
X205231D01*
X205765Y227799D01*
Y227265D01*
X205231Y226732D01*
X204165D01*
X203632Y227265D01*
X170811Y111648D02*
Y108449D01*
X172944D01*
X176143D02*
X174010D01*
X176143Y110582D01*
Y111115D01*
X175609Y111648D01*
X174543D01*
X174010Y111115D01*
X277110Y110192D02*
Y106993D01*
X279243D01*
X280309D02*
X281376D01*
X280842D01*
Y110192D01*
X280309Y109659D01*
X60035Y295940D02*
Y292741D01*
X61634D01*
X62168Y293274D01*
Y295407D01*
X61634Y295940D01*
X60035D01*
X63234Y292741D02*
X64300D01*
X63767D01*
Y295940D01*
X63234Y295407D01*
X68032Y295940D02*
X65900D01*
Y294340D01*
X66966Y294873D01*
X67499D01*
X68032Y294340D01*
Y293274D01*
X67499Y292741D01*
X66433D01*
X65900Y293274D01*
X60035Y283042D02*
Y279842D01*
X61634D01*
X62168Y280376D01*
Y282508D01*
X61634Y283042D01*
X60035D01*
X63234Y279842D02*
X64300D01*
X63767D01*
Y283042D01*
X63234Y282508D01*
X65900D02*
X66433Y283042D01*
X67499D01*
X68032Y282508D01*
Y281975D01*
X67499Y281442D01*
X66966D01*
X67499D01*
X68032Y280909D01*
Y280376D01*
X67499Y279842D01*
X66433D01*
X65900Y280376D01*
X61101Y267687D02*
Y264488D01*
X62701D01*
X63234Y265021D01*
Y267154D01*
X62701Y267687D01*
X61101D01*
X64300Y264488D02*
X65367D01*
X64833D01*
Y267687D01*
X64300Y267154D01*
X66966Y264488D02*
X68032D01*
X67499D01*
Y267687D01*
X66966Y267154D01*
X103228Y92097D02*
Y88898D01*
X104828D01*
X105361Y89431D01*
Y91563D01*
X104828Y92097D01*
X103228D01*
X106427Y88898D02*
X107494D01*
X106960D01*
Y92097D01*
X106427Y91563D01*
X109093D02*
X109626Y92097D01*
X110693D01*
X111226Y91563D01*
Y89431D01*
X110693Y88898D01*
X109626D01*
X109093Y89431D01*
Y91563D01*
X158270Y162225D02*
Y159026D01*
X159870D01*
X160403Y159559D01*
Y161692D01*
X159870Y162225D01*
X158270D01*
X161469Y159559D02*
X162002Y159026D01*
X163068D01*
X163602Y159559D01*
Y161692D01*
X163068Y162225D01*
X162002D01*
X161469Y161692D01*
Y161158D01*
X162002Y160625D01*
X163602D01*
X255906Y166230D02*
Y163031D01*
X257505D01*
X258038Y163565D01*
Y165697D01*
X257505Y166230D01*
X255906D01*
X260704Y163031D02*
Y166230D01*
X259104Y164631D01*
X261237D01*
X212740Y281703D02*
Y278504D01*
X214340D01*
X214873Y279037D01*
Y281170D01*
X214340Y281703D01*
X212740D01*
X215939Y281170D02*
X216472Y281703D01*
X217538D01*
X218072Y281170D01*
Y280637D01*
X217538Y280103D01*
X217005D01*
X217538D01*
X218072Y279570D01*
Y279037D01*
X217538Y278504D01*
X216472D01*
X215939Y279037D01*
X204016Y73750D02*
Y70551D01*
X205615D01*
X206148Y71084D01*
Y73217D01*
X205615Y73750D01*
X204016D01*
X209347Y70551D02*
X207215D01*
X209347Y72684D01*
Y73217D01*
X208814Y73750D01*
X207748D01*
X207215Y73217D01*
X279016Y70600D02*
Y67402D01*
X280615D01*
X281148Y67935D01*
Y70067D01*
X280615Y70600D01*
X279016D01*
X282215Y67402D02*
X283281D01*
X282748D01*
Y70600D01*
X282215Y70067D01*
X64062Y210658D02*
X63529Y211191D01*
X62462D01*
X61929Y210658D01*
Y208525D01*
X62462Y207992D01*
X63529D01*
X64062Y208525D01*
X65128Y210658D02*
X65661Y211191D01*
X66728D01*
X67261Y210658D01*
Y210125D01*
X66728Y209592D01*
X67261Y209058D01*
Y208525D01*
X66728Y207992D01*
X65661D01*
X65128Y208525D01*
Y209058D01*
X65661Y209592D01*
X65128Y210125D01*
Y210658D01*
X65661Y209592D02*
X66728D01*
X70460Y207992D02*
X68327D01*
X70460Y210125D01*
Y210658D01*
X69927Y211191D01*
X68860D01*
X68327Y210658D01*
X65128Y222154D02*
X64595Y222687D01*
X63529D01*
X62995Y222154D01*
Y220021D01*
X63529Y219488D01*
X64595D01*
X65128Y220021D01*
X66194Y222154D02*
X66728Y222687D01*
X67794D01*
X68327Y222154D01*
Y221621D01*
X67794Y221088D01*
X68327Y220554D01*
Y220021D01*
X67794Y219488D01*
X66728D01*
X66194Y220021D01*
Y220554D01*
X66728Y221088D01*
X66194Y221621D01*
Y222154D01*
X66728Y221088D02*
X67794D01*
X69393Y219488D02*
X70460D01*
X69927D01*
Y222687D01*
X69393Y222154D01*
X64062Y232784D02*
X63529Y233317D01*
X62462D01*
X61929Y232784D01*
Y230651D01*
X62462Y230118D01*
X63529D01*
X64062Y230651D01*
X65128Y232784D02*
X65661Y233317D01*
X66728D01*
X67261Y232784D01*
Y232251D01*
X66728Y231718D01*
X67261Y231184D01*
Y230651D01*
X66728Y230118D01*
X65661D01*
X65128Y230651D01*
Y231184D01*
X65661Y231718D01*
X65128Y232251D01*
Y232784D01*
X65661Y231718D02*
X66728D01*
X68327Y232784D02*
X68860Y233317D01*
X69927D01*
X70460Y232784D01*
Y230651D01*
X69927Y230118D01*
X68860D01*
X68327Y230651D01*
Y232784D01*
X64062Y199792D02*
X63529Y200325D01*
X62462D01*
X61929Y199792D01*
Y197659D01*
X62462Y197126D01*
X63529D01*
X64062Y197659D01*
X65128Y200325D02*
X67261D01*
Y199792D01*
X65128Y197659D01*
Y197126D01*
X68327Y197659D02*
X68860Y197126D01*
X69927D01*
X70460Y197659D01*
Y199792D01*
X69927Y200325D01*
X68860D01*
X68327Y199792D01*
Y199259D01*
X68860Y198725D01*
X70460D01*
X81329Y190643D02*
X80796Y191176D01*
X79730D01*
X79197Y190643D01*
Y188510D01*
X79730Y187977D01*
X80796D01*
X81329Y188510D01*
X82396Y191176D02*
X84528D01*
Y190643D01*
X82396Y188510D01*
Y187977D01*
X85595Y190643D02*
X86128Y191176D01*
X87194D01*
X87727Y190643D01*
Y190110D01*
X87194Y189576D01*
X87727Y189043D01*
Y188510D01*
X87194Y187977D01*
X86128D01*
X85595Y188510D01*
Y189043D01*
X86128Y189576D01*
X85595Y190110D01*
Y190643D01*
X86128Y189576D02*
X87194D01*
X75030Y182887D02*
X74497Y183420D01*
X73431D01*
X72898Y182887D01*
Y180754D01*
X73431Y180221D01*
X74497D01*
X75030Y180754D01*
X76096Y183420D02*
X78229D01*
Y182887D01*
X76096Y180754D01*
Y180221D01*
X79295Y183420D02*
X81428D01*
Y182887D01*
X79295Y180754D01*
Y180221D01*
X165384Y102729D02*
X164851Y103263D01*
X163785D01*
X163252Y102729D01*
Y100597D01*
X163785Y100064D01*
X164851D01*
X165384Y100597D01*
X168584Y103263D02*
X166451D01*
Y101663D01*
X167517Y102196D01*
X168050D01*
X168584Y101663D01*
Y100597D01*
X168050Y100064D01*
X166984D01*
X166451Y100597D01*
X171783Y103263D02*
X170716Y102729D01*
X169650Y101663D01*
Y100597D01*
X170183Y100064D01*
X171249D01*
X171783Y100597D01*
Y101130D01*
X171249Y101663D01*
X169650D01*
X134180Y96012D02*
X133647Y96545D01*
X132580D01*
X132047Y96012D01*
Y93880D01*
X132580Y93347D01*
X133647D01*
X134180Y93880D01*
X137379Y96545D02*
X135246D01*
Y94946D01*
X136312Y95479D01*
X136846D01*
X137379Y94946D01*
Y93880D01*
X136846Y93347D01*
X135779D01*
X135246Y93880D01*
X140578Y96545D02*
X138445D01*
Y94946D01*
X139512Y95479D01*
X140045D01*
X140578Y94946D01*
Y93880D01*
X140045Y93347D01*
X138978D01*
X138445Y93880D01*
X120621Y64698D02*
X120088Y65231D01*
X119021D01*
X118488Y64698D01*
Y62565D01*
X119021Y62032D01*
X120088D01*
X120621Y62565D01*
X123820Y65231D02*
X121687D01*
Y63632D01*
X122753Y64165D01*
X123287D01*
X123820Y63632D01*
Y62565D01*
X123287Y62032D01*
X122220D01*
X121687Y62565D01*
X126486Y62032D02*
Y65231D01*
X124886Y63632D01*
X127019D01*
X111406Y56174D02*
X111939Y56708D01*
Y57774D01*
X111406Y58307D01*
X109273D01*
X108740Y57774D01*
Y56708D01*
X109273Y56174D01*
X111939Y52975D02*
Y55108D01*
X110340D01*
X110873Y54042D01*
Y53509D01*
X110340Y52975D01*
X109273D01*
X108740Y53509D01*
Y54575D01*
X109273Y55108D01*
X111406Y51909D02*
X111939Y51376D01*
Y50310D01*
X111406Y49777D01*
X110873D01*
X110340Y50310D01*
Y50843D01*
Y50310D01*
X109807Y49777D01*
X109273D01*
X108740Y50310D01*
Y51376D01*
X109273Y51909D01*
X75581Y77375D02*
X75048Y77908D01*
X73982D01*
X73449Y77375D01*
Y75242D01*
X73982Y74709D01*
X75048D01*
X75581Y75242D01*
X78780Y77908D02*
X76648D01*
Y76309D01*
X77714Y76842D01*
X78247D01*
X78780Y76309D01*
Y75242D01*
X78247Y74709D01*
X77181D01*
X76648Y75242D01*
X81979Y74709D02*
X79847D01*
X81979Y76842D01*
Y77375D01*
X81446Y77908D01*
X80380D01*
X79847Y77375D01*
X218004Y137014D02*
X217470Y136481D01*
Y135415D01*
X218004Y134882D01*
X220136D01*
X220669Y135415D01*
Y136481D01*
X220136Y137014D01*
X220669Y139680D02*
X217470D01*
X219070Y138081D01*
Y140214D01*
X220136Y141280D02*
X220669Y141813D01*
Y142879D01*
X220136Y143412D01*
X218004D01*
X217470Y142879D01*
Y141813D01*
X218004Y141280D01*
X218537D01*
X219070Y141813D01*
Y143412D01*
X233555Y118983D02*
X233021Y118450D01*
Y117384D01*
X233555Y116850D01*
X235687D01*
X236221Y117384D01*
Y118450D01*
X235687Y118983D01*
X236221Y121649D02*
X233021D01*
X234621Y120049D01*
Y122182D01*
X233555Y123248D02*
X233021Y123782D01*
Y124848D01*
X233555Y125381D01*
X234088D01*
X234621Y124848D01*
X235154Y125381D01*
X235687D01*
X236221Y124848D01*
Y123782D01*
X235687Y123248D01*
X235154D01*
X234621Y123782D01*
X234088Y123248D01*
X233555D01*
X234621Y123782D02*
Y124848D01*
X244972Y108235D02*
X244439Y107702D01*
Y106635D01*
X244972Y106102D01*
X247105D01*
X247638Y106635D01*
Y107702D01*
X247105Y108235D01*
X247638Y110901D02*
X244439D01*
X246038Y109301D01*
Y111434D01*
X244439Y112500D02*
Y114633D01*
X244972D01*
X247105Y112500D01*
X247638D01*
X120975Y134540D02*
X120442Y135074D01*
X119376D01*
X118842Y134540D01*
Y132408D01*
X119376Y131875D01*
X120442D01*
X120975Y132408D01*
X123641Y131875D02*
Y135074D01*
X122041Y133474D01*
X124174D01*
X127373Y135074D02*
X126307Y134540D01*
X125240Y133474D01*
Y132408D01*
X125774Y131875D01*
X126840D01*
X127373Y132408D01*
Y132941D01*
X126840Y133474D01*
X125240D01*
X121763Y141115D02*
X121229Y141648D01*
X120163D01*
X119630Y141115D01*
Y138983D01*
X120163Y138449D01*
X121229D01*
X121763Y138983D01*
X124428Y138449D02*
Y141648D01*
X122829Y140049D01*
X124961D01*
X128160Y141648D02*
X126028D01*
Y140049D01*
X127094Y140582D01*
X127627D01*
X128160Y140049D01*
Y138983D01*
X127627Y138449D01*
X126561D01*
X126028Y138983D01*
X154125Y178399D02*
X153592Y178932D01*
X152525D01*
X151992Y178399D01*
Y176266D01*
X152525Y175733D01*
X153592D01*
X154125Y176266D01*
X156790Y175733D02*
Y178932D01*
X155191Y177332D01*
X157324D01*
X159990Y175733D02*
Y178932D01*
X158390Y177332D01*
X160523D01*
X277684Y225067D02*
X277151Y225601D01*
X276084D01*
X275551Y225067D01*
Y222935D01*
X276084Y222402D01*
X277151D01*
X277684Y222935D01*
X278750Y225067D02*
X279283Y225601D01*
X280350D01*
X280883Y225067D01*
Y224534D01*
X280350Y224001D01*
X279817D01*
X280350D01*
X280883Y223468D01*
Y222935D01*
X280350Y222402D01*
X279283D01*
X278750Y222935D01*
X281949Y222402D02*
X283015D01*
X282482D01*
Y225601D01*
X281949Y225067D01*
X276385Y235304D02*
X275851Y235837D01*
X274785D01*
X274252Y235304D01*
Y233171D01*
X274785Y232638D01*
X275851D01*
X276385Y233171D01*
X277451Y235304D02*
X277984Y235837D01*
X279050D01*
X279584Y235304D01*
Y234770D01*
X279050Y234237D01*
X278517D01*
X279050D01*
X279584Y233704D01*
Y233171D01*
X279050Y232638D01*
X277984D01*
X277451Y233171D01*
X280650Y235304D02*
X281183Y235837D01*
X282249D01*
X282783Y235304D01*
Y233171D01*
X282249Y232638D01*
X281183D01*
X280650Y233171D01*
Y235304D01*
X304180Y246957D02*
X303647Y247490D01*
X302580D01*
X302047Y246957D01*
Y244825D01*
X302580Y244291D01*
X303647D01*
X304180Y244825D01*
X307379Y244291D02*
X305246D01*
X307379Y246424D01*
Y246957D01*
X306846Y247490D01*
X305779D01*
X305246Y246957D01*
X308445Y244825D02*
X308978Y244291D01*
X310045D01*
X310578Y244825D01*
Y246957D01*
X310045Y247490D01*
X308978D01*
X308445Y246957D01*
Y246424D01*
X308978Y245891D01*
X310578D01*
X286855Y124575D02*
X287388Y125109D01*
Y126175D01*
X286855Y126708D01*
X284722D01*
X284189Y126175D01*
Y125109D01*
X284722Y124575D01*
X284189Y121376D02*
Y123509D01*
X286322Y121376D01*
X286855D01*
X287388Y121910D01*
Y122976D01*
X286855Y123509D01*
Y120310D02*
X287388Y119777D01*
Y118711D01*
X286855Y118177D01*
X286322D01*
X285788Y118711D01*
X285255Y118177D01*
X284722D01*
X284189Y118711D01*
Y119777D01*
X284722Y120310D01*
X285255D01*
X285788Y119777D01*
X286322Y120310D01*
X286855D01*
X285788Y119777D02*
Y118711D01*
X280382Y124678D02*
X280915Y125212D01*
Y126278D01*
X280382Y126811D01*
X278250D01*
X277716Y126278D01*
Y125212D01*
X278250Y124678D01*
X277716Y121479D02*
Y123612D01*
X279849Y121479D01*
X280382D01*
X280915Y122013D01*
Y123079D01*
X280382Y123612D01*
X280915Y120413D02*
Y118280D01*
X280382D01*
X278250Y120413D01*
X277716D01*
X243353Y163571D02*
X242820Y164104D01*
X241754D01*
X241220Y163571D01*
Y161439D01*
X241754Y160906D01*
X242820D01*
X243353Y161439D01*
X246552Y160906D02*
X244419D01*
X246552Y163038D01*
Y163571D01*
X246019Y164104D01*
X244953D01*
X244419Y163571D01*
X249751Y164104D02*
X248685Y163571D01*
X247618Y162505D01*
Y161439D01*
X248152Y160906D01*
X249218D01*
X249751Y161439D01*
Y161972D01*
X249218Y162505D01*
X247618D01*
X249332Y203249D02*
X249865Y202716D01*
X250931D01*
X251464Y203249D01*
Y205381D01*
X250931Y205915D01*
X249865D01*
X249332Y205381D01*
X246133Y205915D02*
X248265D01*
X246133Y203782D01*
Y203249D01*
X246666Y202716D01*
X247732D01*
X248265Y203249D01*
X242934Y202716D02*
X245066D01*
Y204315D01*
X244000Y203782D01*
X243467D01*
X242934Y204315D01*
Y205381D01*
X243467Y205915D01*
X244533D01*
X245066Y205381D01*
X220046Y213808D02*
X219513Y214341D01*
X218446D01*
X217913Y213808D01*
Y211675D01*
X218446Y211142D01*
X219513D01*
X220046Y211675D01*
X223245Y211142D02*
X221112D01*
X223245Y213274D01*
Y213808D01*
X222712Y214341D01*
X221645D01*
X221112Y213808D01*
X225911Y211142D02*
Y214341D01*
X224311Y212741D01*
X226444D01*
X221350Y309967D02*
X220817Y309434D01*
Y308368D01*
X221350Y307835D01*
X223483D01*
X224016Y308368D01*
Y309434D01*
X223483Y309967D01*
X224016Y313166D02*
Y311034D01*
X221883Y313166D01*
X221350D01*
X220817Y312633D01*
Y311567D01*
X221350Y311034D01*
Y314233D02*
X220817Y314766D01*
Y315832D01*
X221350Y316365D01*
X221883D01*
X222416Y315832D01*
Y315299D01*
Y315832D01*
X222949Y316365D01*
X223483D01*
X224016Y315832D01*
Y314766D01*
X223483Y314233D01*
X230011Y309967D02*
X229478Y309434D01*
Y308368D01*
X230011Y307835D01*
X232144D01*
X232677Y308368D01*
Y309434D01*
X232144Y309967D01*
X232677Y313166D02*
Y311034D01*
X230544Y313166D01*
X230011D01*
X229478Y312633D01*
Y311567D01*
X230011Y311034D01*
X232677Y316365D02*
Y314233D01*
X230544Y316365D01*
X230011D01*
X229478Y315832D01*
Y314766D01*
X230011Y314233D01*
X267054Y275934D02*
X266521Y276467D01*
X265454D01*
X264921Y275934D01*
Y273801D01*
X265454Y273268D01*
X266521D01*
X267054Y273801D01*
X270253Y273268D02*
X268120D01*
X270253Y275400D01*
Y275934D01*
X269720Y276467D01*
X268653D01*
X268120Y275934D01*
X271319Y273268D02*
X272386D01*
X271852D01*
Y276467D01*
X271319Y275934D01*
X181385Y45894D02*
X180851Y46427D01*
X179785D01*
X179252Y45894D01*
Y43762D01*
X179785Y43228D01*
X180851D01*
X181385Y43762D01*
X184584Y43228D02*
X182451D01*
X184584Y45361D01*
Y45894D01*
X184050Y46427D01*
X182984D01*
X182451Y45894D01*
X185650D02*
X186183Y46427D01*
X187249D01*
X187783Y45894D01*
Y43762D01*
X187249Y43228D01*
X186183D01*
X185650Y43762D01*
Y45894D01*
X192077Y66603D02*
X191544Y67136D01*
X190478D01*
X189945Y66603D01*
Y64470D01*
X190478Y63937D01*
X191544D01*
X192077Y64470D01*
X193144Y63937D02*
X194210D01*
X193677D01*
Y67136D01*
X193144Y66603D01*
X195810Y64470D02*
X196343Y63937D01*
X197409D01*
X197942Y64470D01*
Y66603D01*
X197409Y67136D01*
X196343D01*
X195810Y66603D01*
Y66070D01*
X196343Y65536D01*
X197942D01*
X230125Y91603D02*
X229592Y92136D01*
X228525D01*
X227992Y91603D01*
Y89470D01*
X228525Y88937D01*
X229592D01*
X230125Y89470D01*
X231191Y88937D02*
X232257D01*
X231724D01*
Y92136D01*
X231191Y91603D01*
X233857D02*
X234390Y92136D01*
X235456D01*
X235989Y91603D01*
Y91070D01*
X235456Y90536D01*
X235989Y90003D01*
Y89470D01*
X235456Y88937D01*
X234390D01*
X233857Y89470D01*
Y90003D01*
X234390Y90536D01*
X233857Y91070D01*
Y91603D01*
X234390Y90536D02*
X235456D01*
X230125Y99083D02*
X229592Y99616D01*
X228525D01*
X227992Y99083D01*
Y96951D01*
X228525Y96417D01*
X229592D01*
X230125Y96951D01*
X231191Y96417D02*
X232257D01*
X231724D01*
Y99616D01*
X231191Y99083D01*
X233857Y99616D02*
X235989D01*
Y99083D01*
X233857Y96951D01*
Y96417D01*
X230125Y106367D02*
X229592Y106900D01*
X228525D01*
X227992Y106367D01*
Y104234D01*
X228525Y103701D01*
X229592D01*
X230125Y104234D01*
X231191Y103701D02*
X232257D01*
X231724D01*
Y106900D01*
X231191Y106367D01*
X235989Y106900D02*
X234923Y106367D01*
X233857Y105300D01*
Y104234D01*
X234390Y103701D01*
X235456D01*
X235989Y104234D01*
Y104767D01*
X235456Y105300D01*
X233857D01*
X214141Y78689D02*
X213607Y79223D01*
X212541D01*
X212008Y78689D01*
Y76557D01*
X212541Y76024D01*
X213607D01*
X214141Y76557D01*
X215207Y76024D02*
X216273D01*
X215740D01*
Y79223D01*
X215207Y78689D01*
X220005Y79223D02*
X217873D01*
Y77623D01*
X218939Y78156D01*
X219472D01*
X220005Y77623D01*
Y76557D01*
X219472Y76024D01*
X218406D01*
X217873Y76557D01*
X138830Y68865D02*
X138297Y68332D01*
Y67265D01*
X138830Y66732D01*
X140963D01*
X141496Y67265D01*
Y68332D01*
X140963Y68865D01*
X141496Y69931D02*
Y70998D01*
Y70464D01*
X138297D01*
X138830Y69931D01*
X141496Y74196D02*
X138297D01*
X139897Y72597D01*
Y74730D01*
X144342Y68786D02*
X143809Y68253D01*
Y67187D01*
X144342Y66654D01*
X146475D01*
X147008Y67187D01*
Y68253D01*
X146475Y68786D01*
X147008Y69853D02*
Y70919D01*
Y70386D01*
X143809D01*
X144342Y69853D01*
Y72518D02*
X143809Y73052D01*
Y74118D01*
X144342Y74651D01*
X144875D01*
X145408Y74118D01*
Y73585D01*
Y74118D01*
X145942Y74651D01*
X146475D01*
X147008Y74118D01*
Y73052D01*
X146475Y72518D01*
X134878Y49333D02*
X135411Y49866D01*
Y50933D01*
X134878Y51466D01*
X132746D01*
X132212Y50933D01*
Y49866D01*
X132746Y49333D01*
X132212Y48267D02*
Y47201D01*
Y47734D01*
X135411D01*
X134878Y48267D01*
X132212Y43468D02*
Y45601D01*
X134345Y43468D01*
X134878D01*
X135411Y44001D01*
Y45068D01*
X134878Y45601D01*
X156064Y63288D02*
X156597Y62755D01*
X157664D01*
X158197Y63288D01*
Y65421D01*
X157664Y65954D01*
X156597D01*
X156064Y65421D01*
X154998Y65954D02*
X153931D01*
X154465D01*
Y62755D01*
X154998Y63288D01*
X152332Y65954D02*
X151266D01*
X151799D01*
Y62755D01*
X152332Y63288D01*
X267645Y58871D02*
X267111Y59404D01*
X266045D01*
X265512Y58871D01*
Y56739D01*
X266045Y56205D01*
X267111D01*
X267645Y56739D01*
X268711Y56205D02*
X269777D01*
X269244D01*
Y59404D01*
X268711Y58871D01*
X271377D02*
X271910Y59404D01*
X272976D01*
X273509Y58871D01*
Y56739D01*
X272976Y56205D01*
X271910D01*
X271377Y56739D01*
Y58871D01*
X270282Y68611D02*
X269749Y69144D01*
X268683D01*
X268150Y68611D01*
Y66478D01*
X268683Y65945D01*
X269749D01*
X270282Y66478D01*
X271349D02*
X271882Y65945D01*
X272948D01*
X273481Y66478D01*
Y68611D01*
X272948Y69144D01*
X271882D01*
X271349Y68611D01*
Y68077D01*
X271882Y67544D01*
X273481D01*
X307684Y77075D02*
X307151Y77608D01*
X306084D01*
X305551Y77075D01*
Y74943D01*
X306084Y74410D01*
X307151D01*
X307684Y74943D01*
X308750Y77075D02*
X309283Y77608D01*
X310350D01*
X310883Y77075D01*
Y76542D01*
X310350Y76009D01*
X310883Y75476D01*
Y74943D01*
X310350Y74410D01*
X309283D01*
X308750Y74943D01*
Y75476D01*
X309283Y76009D01*
X308750Y76542D01*
Y77075D01*
X309283Y76009D02*
X310350D01*
X307684Y83965D02*
X307151Y84498D01*
X306084D01*
X305551Y83965D01*
Y81832D01*
X306084Y81299D01*
X307151D01*
X307684Y81832D01*
X308750Y84498D02*
X310883D01*
Y83965D01*
X308750Y81832D01*
Y81299D01*
X307684Y91091D02*
X307151Y91624D01*
X306084D01*
X305551Y91091D01*
Y88958D01*
X306084Y88425D01*
X307151D01*
X307684Y88958D01*
X310883Y91624D02*
X309817Y91091D01*
X308750Y90025D01*
Y88958D01*
X309283Y88425D01*
X310350D01*
X310883Y88958D01*
Y89491D01*
X310350Y90025D01*
X308750D01*
X307251Y70067D02*
X306718Y70600D01*
X305651D01*
X305118Y70067D01*
Y67935D01*
X305651Y67402D01*
X306718D01*
X307251Y67935D01*
X310450Y70600D02*
X308317D01*
Y69001D01*
X309383Y69534D01*
X309917D01*
X310450Y69001D01*
Y67935D01*
X309917Y67402D01*
X308850D01*
X308317Y67935D01*
X210129Y49731D02*
X209596Y49198D01*
Y48132D01*
X210129Y47598D01*
X212262D01*
X212795Y48132D01*
Y49198D01*
X212262Y49731D01*
X212795Y52397D02*
X209596D01*
X211196Y50797D01*
Y52930D01*
X222019Y49731D02*
X221486Y49198D01*
Y48132D01*
X222019Y47598D01*
X224152D01*
X224685Y48132D01*
Y49198D01*
X224152Y49731D01*
X222019Y50797D02*
X221486Y51331D01*
Y52397D01*
X222019Y52930D01*
X222552D01*
X223086Y52397D01*
Y51864D01*
Y52397D01*
X223619Y52930D01*
X224152D01*
X224685Y52397D01*
Y51331D01*
X224152Y50797D01*
X218579Y70947D02*
X219112Y71480D01*
Y72547D01*
X218579Y73080D01*
X216446D01*
X215913Y72547D01*
Y71480D01*
X216446Y70947D01*
X215913Y67748D02*
Y69881D01*
X218046Y67748D01*
X218579D01*
X219112Y68282D01*
Y69348D01*
X218579Y69881D01*
X234574Y65107D02*
X234040Y65640D01*
X232974D01*
X232441Y65107D01*
Y62974D01*
X232974Y62441D01*
X234040D01*
X234574Y62974D01*
X235640Y62441D02*
X236706D01*
X236173D01*
Y65640D01*
X235640Y65107D01*
X167786Y89680D02*
X165654D01*
Y88080D01*
X166720Y88614D01*
X167253D01*
X167786Y88080D01*
Y87014D01*
X167253Y86481D01*
X166187D01*
X165654Y87014D01*
X168852Y89680D02*
Y87547D01*
X169919Y86481D01*
X170985Y87547D01*
Y89680D01*
X95877Y228898D02*
X95344Y229431D01*
Y230497D01*
X95877Y231030D01*
X96411D01*
X96944Y230497D01*
Y229964D01*
Y230497D01*
X97477Y231030D01*
X98010D01*
X98543Y230497D01*
Y229431D01*
X98010Y228898D01*
X95344Y232097D02*
X97477D01*
X98543Y233163D01*
X97477Y234229D01*
X95344D01*
X95877Y235296D02*
X95344Y235829D01*
Y236895D01*
X95877Y237428D01*
X96411D01*
X96944Y236895D01*
Y236362D01*
Y236895D01*
X97477Y237428D01*
X98010D01*
X98543Y236895D01*
Y235829D01*
X98010Y235296D01*
X95344Y240627D02*
Y238494D01*
X98543D01*
Y240627D01*
X96944Y238494D02*
Y239561D01*
X98543Y241693D02*
X95344D01*
Y243293D01*
X95877Y243826D01*
X96944D01*
X97477Y243293D01*
Y241693D01*
X95877Y247025D02*
X95344Y246492D01*
Y245426D01*
X95877Y244893D01*
X96411D01*
X96944Y245426D01*
Y246492D01*
X97477Y247025D01*
X98010D01*
X98543Y246492D01*
Y245426D01*
X98010Y244893D01*
X259685Y266012D02*
X260218Y266545D01*
X261284D01*
X261818Y266012D01*
Y265479D01*
X261284Y264946D01*
X260751D01*
X261284D01*
X261818Y264413D01*
Y263880D01*
X261284Y263347D01*
X260218D01*
X259685Y263880D01*
X262884Y266545D02*
Y264413D01*
X263950Y263347D01*
X265017Y264413D01*
Y266545D01*
X266083Y266012D02*
X266616Y266545D01*
X267683D01*
X268216Y266012D01*
Y265479D01*
X267683Y264946D01*
X267149D01*
X267683D01*
X268216Y264413D01*
Y263880D01*
X267683Y263347D01*
X266616D01*
X266083Y263880D01*
X269282Y263347D02*
Y265479D01*
X270348Y266545D01*
X271415Y265479D01*
Y263347D01*
Y264946D01*
X269282D01*
X272481Y263347D02*
Y266545D01*
X274614Y263347D01*
Y266545D01*
X275680D02*
X277813D01*
X276746D01*
Y263347D01*
X259921Y247115D02*
X260454Y247648D01*
X261521D01*
X262054Y247115D01*
Y246582D01*
X261521Y246048D01*
X260988D01*
X261521D01*
X262054Y245515D01*
Y244982D01*
X261521Y244449D01*
X260454D01*
X259921Y244982D01*
X263120Y247648D02*
Y245515D01*
X264187Y244449D01*
X265253Y245515D01*
Y247648D01*
X266319Y247115D02*
X266852Y247648D01*
X267919D01*
X268452Y247115D01*
Y246582D01*
X267919Y246048D01*
X267386D01*
X267919D01*
X268452Y245515D01*
Y244982D01*
X267919Y244449D01*
X266852D01*
X266319Y244982D01*
X271118Y247648D02*
X270051D01*
X269518Y247115D01*
Y244982D01*
X270051Y244449D01*
X271118D01*
X271651Y244982D01*
Y247115D01*
X271118Y247648D01*
X272717D02*
Y244449D01*
X274317D01*
X274850Y244982D01*
Y245515D01*
X274317Y246048D01*
X272717D01*
X274317D01*
X274850Y246582D01*
Y247115D01*
X274317Y247648D01*
X272717D01*
X275916D02*
Y244449D01*
X277516D01*
X278049Y244982D01*
Y247115D01*
X277516Y247648D01*
X275916D01*
X279115D02*
Y244449D01*
Y246048D01*
X281248D01*
Y247648D01*
Y244449D01*
X313668Y19419D02*
X311535D01*
Y17820D01*
X312602Y18353D01*
X313135D01*
X313668Y17820D01*
Y16754D01*
X313135Y16220D01*
X312069D01*
X311535Y16754D01*
X314734Y19419D02*
Y17287D01*
X315801Y16220D01*
X316867Y17287D01*
Y19419D01*
X317933Y15687D02*
X320066D01*
X321132Y19419D02*
Y16220D01*
X322732D01*
X323265Y16754D01*
Y17287D01*
X322732Y17820D01*
X321132D01*
X322732D01*
X323265Y18353D01*
Y18886D01*
X322732Y19419D01*
X321132D01*
X325931Y16220D02*
X324865D01*
X324331Y16754D01*
Y17820D01*
X324865Y18353D01*
X325931D01*
X326464Y17820D01*
Y17287D01*
X324331D01*
X328063Y18353D02*
X329130D01*
X329663Y17820D01*
Y16220D01*
X328063D01*
X327530Y16754D01*
X328063Y17287D01*
X329663D01*
X332862Y18353D02*
X331262D01*
X330729Y17820D01*
Y16754D01*
X331262Y16220D01*
X332862D01*
X334461D02*
X335528D01*
X336061Y16754D01*
Y17820D01*
X335528Y18353D01*
X334461D01*
X333928Y17820D01*
Y16754D01*
X334461Y16220D01*
X337127D02*
Y18353D01*
X338727D01*
X339260Y17820D01*
Y16220D01*
X166339Y277662D02*
X168471D01*
X169538Y279262D02*
Y276063D01*
X171670D01*
X174869D02*
X172737D01*
X174869Y278196D01*
Y278729D01*
X174336Y279262D01*
X173270D01*
X172737Y278729D01*
X160614Y231466D02*
X162747D01*
X163813Y233066D02*
Y229867D01*
X165946D01*
X167012D02*
X168078D01*
X167545D01*
Y233066D01*
X167012Y232533D01*
X195472Y342426D02*
X197605D01*
X196539Y343493D02*
Y341360D01*
X198671Y344026D02*
Y340827D01*
X200804D01*
X201870Y343493D02*
X202403Y344026D01*
X203470D01*
X204003Y343493D01*
Y342959D01*
X203470Y342426D01*
X202937D01*
X203470D01*
X204003Y341893D01*
Y341360D01*
X203470Y340827D01*
X202403D01*
X201870Y341360D01*
X91205Y200600D02*
X93337D01*
X92271Y201666D02*
Y199534D01*
X94404Y202200D02*
Y199001D01*
X96536D01*
X97603D02*
X98669D01*
X98136D01*
Y202200D01*
X97603Y201666D01*
X3425Y153425D02*
Y156624D01*
X5025D01*
X5558Y156091D01*
Y155025D01*
X5025Y154491D01*
X3425D01*
X4492D02*
X5558Y153425D01*
X6624Y156624D02*
Y153425D01*
X8224D01*
X8757Y153958D01*
Y154491D01*
X8224Y155025D01*
X6624D01*
X8224D01*
X8757Y155558D01*
Y156091D01*
X8224Y156624D01*
X6624D01*
X11956D02*
X9823D01*
Y155025D01*
X10889D01*
X9823D01*
Y153425D01*
X122299Y17319D02*
Y20518D01*
X123899D01*
X124432Y19985D01*
Y18919D01*
X123899Y18386D01*
X122299D01*
X125498Y19985D02*
X126031Y20518D01*
X127098D01*
X127631Y19985D01*
Y19452D01*
X127098Y18919D01*
X126565D01*
X127098D01*
X127631Y18386D01*
Y17853D01*
X127098Y17319D01*
X126031D01*
X125498Y17853D01*
X312898Y289119D02*
X309699D01*
Y290718D01*
X310232Y291251D01*
X311298D01*
X311831Y290718D01*
Y289119D01*
X310232Y294450D02*
X309699Y293917D01*
Y292851D01*
X310232Y292318D01*
X312364D01*
X312898Y292851D01*
Y293917D01*
X312364Y294450D01*
X312898Y295517D02*
Y296583D01*
Y296050D01*
X309699D01*
X310232Y295517D01*
Y298183D02*
X309699Y298716D01*
Y299782D01*
X310232Y300315D01*
X312364D01*
X312898Y299782D01*
Y298716D01*
X312364Y298183D01*
X310232D01*
X312898Y302981D02*
X309699D01*
X311298Y301381D01*
Y303514D01*
X91339Y331496D02*
Y334695D01*
X92938D01*
X93471Y334162D01*
Y333096D01*
X92938Y332562D01*
X91339D01*
X94538Y334162D02*
X95071Y334695D01*
X96137D01*
X96670Y334162D01*
Y333629D01*
X96137Y333096D01*
X96670Y332562D01*
Y332029D01*
X96137Y331496D01*
X95071D01*
X94538Y332029D01*
Y332562D01*
X95071Y333096D01*
X94538Y333629D01*
Y334162D01*
X95071Y333096D02*
X96137D01*
X4157Y205970D02*
X6290D01*
X7356Y207569D02*
X9489D01*
Y207036D01*
X7356Y204903D01*
Y204370D01*
X9489D01*
X4157Y305167D02*
X6290D01*
X7356Y306767D02*
Y306233D01*
X8423Y305167D01*
X9489Y306233D01*
Y306767D01*
X8423Y305167D02*
Y303568D01*
X4157Y255246D02*
X6290D01*
X7356Y256845D02*
X9489Y253646D01*
Y256845D02*
X7356Y253646D01*
X4157Y229025D02*
X6290D01*
X5224Y230092D02*
Y227959D01*
X7356Y230625D02*
X9489D01*
Y230092D01*
X7356Y227959D01*
Y227426D01*
X9489D01*
X4157Y179616D02*
X6290D01*
X5224Y180682D02*
Y178550D01*
X7356Y181215D02*
Y180682D01*
X8423Y179616D01*
X9489Y180682D01*
Y181215D01*
X8423Y179616D02*
Y178016D01*
X4157Y280443D02*
X6290D01*
X5224Y281509D02*
Y279376D01*
X7356Y282042D02*
X9489Y278843D01*
Y282042D02*
X7356Y278843D01*
X254630Y121638D02*
Y124837D01*
X256229D01*
X256763Y124304D01*
Y123238D01*
X256229Y122705D01*
X254630D01*
X255696D02*
X256763Y121638D01*
X259962Y124837D02*
X257829D01*
Y123238D01*
X258895Y123771D01*
X259428D01*
X259962Y123238D01*
Y122172D01*
X259428Y121638D01*
X258362D01*
X257829Y122172D01*
X261028Y121638D02*
X262094D01*
X261561D01*
Y124837D01*
X261028Y124304D01*
X91345Y317784D02*
X90812Y318317D01*
X89746D01*
X89213Y317784D01*
Y315651D01*
X89746Y315118D01*
X90812D01*
X91345Y315651D01*
X92412Y315118D02*
X93478D01*
X92945D01*
Y318317D01*
X92412Y317784D01*
X97210Y315118D02*
X95077D01*
X97210Y317251D01*
Y317784D01*
X96677Y318317D01*
X95610D01*
X95077Y317784D01*
X100409Y318317D02*
X99343Y317784D01*
X98276Y316718D01*
Y315651D01*
X98809Y315118D01*
X99876D01*
X100409Y315651D01*
Y316184D01*
X99876Y316718D01*
X98276D01*
X91345Y324241D02*
X90812Y324774D01*
X89746D01*
X89213Y324241D01*
Y322108D01*
X89746Y321575D01*
X90812D01*
X91345Y322108D01*
X92412Y321575D02*
X93478D01*
X92945D01*
Y324774D01*
X92412Y324241D01*
X97210Y321575D02*
X95077D01*
X97210Y323707D01*
Y324241D01*
X96677Y324774D01*
X95610D01*
X95077Y324241D01*
X98276Y324774D02*
X100409D01*
Y324241D01*
X98276Y322108D01*
Y321575D01*
X249488Y322913D02*
X252687D01*
Y321314D01*
X252154Y320781D01*
X251088D01*
X250554Y321314D01*
Y322913D01*
Y321847D02*
X249488Y320781D01*
Y317582D02*
Y319714D01*
X251621Y317582D01*
X252154D01*
X252687Y318115D01*
Y319181D01*
X252154Y319714D01*
Y316515D02*
X252687Y315982D01*
Y314916D01*
X252154Y314383D01*
X251621D01*
X251088Y314916D01*
X250554Y314383D01*
X250021D01*
X249488Y314916D01*
Y315982D01*
X250021Y316515D01*
X250554D01*
X251088Y315982D01*
X251621Y316515D01*
X252154D01*
X251088Y315982D02*
Y314916D01*
X212126Y326732D02*
X208927D01*
Y328332D01*
X209460Y328865D01*
X210526D01*
X211060Y328332D01*
Y326732D01*
Y327799D02*
X212126Y328865D01*
X209460Y329931D02*
X208927Y330464D01*
Y331531D01*
X209460Y332064D01*
X209993D01*
X210526Y331531D01*
Y330998D01*
Y331531D01*
X211060Y332064D01*
X211593D01*
X212126Y331531D01*
Y330464D01*
X211593Y329931D01*
X212126Y335263D02*
Y333130D01*
X209993Y335263D01*
X209460D01*
X208927Y334730D01*
Y333663D01*
X209460Y333130D01*
X35472Y35551D02*
X32274D01*
Y37151D01*
X32807Y37684D01*
X33873D01*
X34406Y37151D01*
Y35551D01*
Y36617D02*
X35472Y37684D01*
X32807Y38750D02*
X32274Y39283D01*
Y40350D01*
X32807Y40883D01*
X33340D01*
X33873Y40350D01*
Y39816D01*
Y40350D01*
X34406Y40883D01*
X34939D01*
X35472Y40350D01*
Y39283D01*
X34939Y38750D01*
X32274Y44082D02*
Y41949D01*
X33873D01*
X33340Y43015D01*
Y43549D01*
X33873Y44082D01*
X34939D01*
X35472Y43549D01*
Y42482D01*
X34939Y41949D01*
X318409Y338302D02*
X320542D01*
X319476D01*
Y335103D01*
X321608D02*
Y338302D01*
X323208D01*
X323741Y337769D01*
Y336702D01*
X323208Y336169D01*
X321608D01*
X324807Y335103D02*
X325874D01*
X325341D01*
Y338302D01*
X324807Y337769D01*
X305575Y348145D02*
X307707D01*
X306641D01*
Y344946D01*
X308774D02*
Y348145D01*
X310373D01*
X310906Y347611D01*
Y346545D01*
X310373Y346012D01*
X308774D01*
X314105Y344946D02*
X311973D01*
X314105Y347078D01*
Y347611D01*
X313572Y348145D01*
X312506D01*
X311973Y347611D01*
X189882Y220443D02*
X192015D01*
X190948D01*
Y217244D01*
X193081D02*
Y220443D01*
X194680D01*
X195213Y219910D01*
Y218844D01*
X194680Y218310D01*
X193081D01*
X198413Y220443D02*
X197346Y219910D01*
X196280Y218844D01*
Y217777D01*
X196813Y217244D01*
X197879D01*
X198413Y217777D01*
Y218310D01*
X197879Y218844D01*
X196280D01*
X188622Y279341D02*
X190755D01*
X189688D01*
Y276142D01*
X191821D02*
Y279341D01*
X193421D01*
X193954Y278807D01*
Y277741D01*
X193421Y277208D01*
X191821D01*
X195020Y279341D02*
X197153D01*
Y278807D01*
X195020Y276675D01*
Y276142D01*
X195945Y324695D02*
X198077D01*
X197011D01*
Y321496D01*
X199144D02*
Y324695D01*
X200743D01*
X201276Y324162D01*
Y323095D01*
X200743Y322562D01*
X199144D01*
X202343Y322029D02*
X202876Y321496D01*
X203942D01*
X204475Y322029D01*
Y324162D01*
X203942Y324695D01*
X202876D01*
X202343Y324162D01*
Y323629D01*
X202876Y323095D01*
X204475D01*
X218629Y223138D02*
X218095Y223671D01*
X217029D01*
X216496Y223138D01*
Y221006D01*
X217029Y220472D01*
X218095D01*
X218629Y221006D01*
X219695Y220472D02*
X220761D01*
X220228D01*
Y223671D01*
X219695Y223138D01*
X222361D02*
X222894Y223671D01*
X223960D01*
X224494Y223138D01*
Y222605D01*
X223960Y222072D01*
X223427D01*
X223960D01*
X224494Y221539D01*
Y221006D01*
X223960Y220472D01*
X222894D01*
X222361Y221006D01*
X225560Y220472D02*
X226626D01*
X226093D01*
Y223671D01*
X225560Y223138D01*
X146803Y121692D02*
X146270Y122225D01*
X145203D01*
X144670Y121692D01*
Y119559D01*
X145203Y119026D01*
X146270D01*
X146803Y119559D01*
X147869Y119026D02*
X148935D01*
X148402D01*
Y122225D01*
X147869Y121692D01*
X150535D02*
X151068Y122225D01*
X152134D01*
X152667Y121692D01*
Y121158D01*
X152134Y120625D01*
X151601D01*
X152134D01*
X152667Y120092D01*
Y119559D01*
X152134Y119026D01*
X151068D01*
X150535Y119559D01*
X155866Y119026D02*
X153734D01*
X155866Y121158D01*
Y121692D01*
X155333Y122225D01*
X154267D01*
X153734Y121692D01*
X132700Y19808D02*
X132167Y20341D01*
X131100D01*
X130567Y19808D01*
Y19275D01*
X131100Y18742D01*
X132167D01*
X132700Y18209D01*
Y17675D01*
X132167Y17142D01*
X131100D01*
X130567Y17675D01*
X133766Y20341D02*
Y17142D01*
X135365D01*
X135899Y17675D01*
Y18209D01*
X135365Y18742D01*
X133766D01*
X135365D01*
X135899Y19275D01*
Y19808D01*
X135365Y20341D01*
X133766D01*
X136965D02*
Y17142D01*
X138031Y18209D01*
X139098Y17142D01*
Y20341D01*
D18*
X43268Y51788D02*
D03*
X251008Y331481D02*
D03*
X34134Y51788D02*
D03*
X302821Y293512D02*
D03*
X228950Y156362D02*
D03*
X114275Y176795D02*
D03*
X114039Y160891D02*
D03*
X302821Y276938D02*
D03*
X216992Y330497D02*
D03*
X228947Y140693D02*
D03*
D19*
X103606Y35733D02*
D03*
X289511Y331442D02*
D03*
X178724Y34355D02*
D03*
X118764Y35733D02*
D03*
X265979Y35890D02*
D03*
X193016Y34355D02*
D03*
X252357Y35890D02*
D03*
X289511Y339158D02*
D03*
D20*
X141598Y33882D02*
D03*
X141913Y125575D02*
D03*
X233764Y77229D02*
D03*
X237780Y197544D02*
D03*
X259591Y117032D02*
D03*
X218410Y42938D02*
D03*
X141598Y42937D02*
D03*
X152976Y87820D02*
D03*
D21*
X269229Y98892D02*
D03*
D22*
X213803Y299512D02*
D03*
X294317Y136756D02*
D03*
X301951Y257307D02*
D03*
X309591Y55775D02*
D03*
D23*
X193739Y49374D02*
D03*
X268931Y48528D02*
D03*
X162907Y40929D02*
D03*
X240033Y42504D02*
D03*
D24*
X191119Y97908D02*
D03*
D25*
X120286Y107239D02*
D03*
M02*
