G04*
G04 #@! TF.GenerationSoftware,Altium Limited,Altium Designer,18.1.7 (191)*
G04*
G04 Layer_Color=65535*
%FSLAX25Y25*%
%MOIN*%
G70*
G01*
G75*
%ADD10C,0.01000*%
%ADD11C,0.01968*%
%ADD12C,0.01500*%
%ADD13C,0.00100*%
%ADD14C,0.00394*%
%ADD15C,0.00591*%
%ADD16C,0.00787*%
%ADD17C,0.00800*%
%ADD18R,0.02000X0.06000*%
%ADD19R,0.02500X0.06000*%
%ADD20R,0.00695X0.18012*%
%ADD21R,0.06000X0.02500*%
%ADD22R,0.06000X0.02000*%
%ADD23R,0.01300X0.03000*%
%ADD24R,0.00695X0.18012*%
%ADD25R,0.00695X0.18012*%
D10*
X244866Y66855D02*
G03*
X247366Y66855I1250J0D01*
G01*
X181894Y297249D02*
G03*
X179394Y297249I-1250J0D01*
G01*
X182051Y246052D02*
G03*
X179551Y246052I-1250J0D01*
G01*
X302317Y160014D02*
G03*
X302317Y160014I-502J0D01*
G01*
X91165Y65753D02*
G03*
X93665Y65753I1250J0D01*
G01*
X256798Y151934D02*
G03*
X259298Y151934I1250J0D01*
G01*
X140791Y163095D02*
G03*
X140791Y160595I0J-1250D01*
G01*
X224925Y327288D02*
G03*
X224925Y329788I0J1250D01*
G01*
X256303Y327288D02*
G03*
X256303Y329788I0J1250D01*
G01*
X182051Y193272D02*
G03*
X179551Y193272I-1250J0D01*
G01*
X253331Y283981D02*
G03*
X250831Y283981I-1250J0D01*
G01*
X49020Y84257D02*
G03*
X51520Y84257I1250J0D01*
G01*
X48980Y107131D02*
G03*
X51480Y107131I1250J0D01*
G01*
X167464Y66855D02*
G03*
X169964Y66855I1250J0D01*
G01*
X258720Y215234D02*
X303920D01*
Y215034D02*
Y215234D01*
X260520Y173334D02*
X303820D01*
X259020Y173234D02*
X260520Y173334D01*
X303920Y203834D02*
Y215034D01*
X303820Y173334D02*
Y184734D01*
X258720Y203834D02*
Y215234D01*
X259020Y173234D02*
Y185034D01*
X269134Y24882D02*
Y25827D01*
X252504Y46855D02*
Y66855D01*
X247386D02*
X252504D01*
X240496D02*
X244827D01*
X240496Y46855D02*
X252504D01*
X240496D02*
Y66855D01*
X275732Y41732D02*
Y69173D01*
X200732Y48449D02*
Y67165D01*
X187153Y297249D02*
Y317249D01*
X174085D02*
X187153D01*
X174085Y297249D02*
Y317249D01*
Y297249D02*
X179394D01*
X181894D02*
X187153D01*
X44886Y335503D02*
Y346934D01*
X86023D01*
X44886Y335503D02*
X86023D01*
Y346934D01*
X187311Y246052D02*
Y266052D01*
X174242D02*
X187311D01*
X174242Y246052D02*
Y266052D01*
Y246052D02*
X179551D01*
X182051D02*
X187311D01*
X171894Y161185D02*
X183694D01*
X202494Y161485D02*
X213894D01*
X171994Y116385D02*
X183394D01*
X202494Y116285D02*
X213694D01*
X171894Y161185D02*
X171994Y159685D01*
Y116385D02*
Y159685D01*
X213694Y116285D02*
X213894D01*
Y161485D01*
X14492Y158338D02*
Y169768D01*
X33976D01*
X14492Y158338D02*
X33976D01*
Y169768D01*
X98803Y45753D02*
Y65753D01*
X93685D02*
X98803D01*
X86795D02*
X91126D01*
X86795Y45753D02*
X98803D01*
X86795D02*
Y65753D01*
X264436Y131934D02*
Y151934D01*
X259318D02*
X264436D01*
X252428D02*
X256759D01*
X252428Y131934D02*
X264436D01*
X252428D02*
Y151934D01*
X14492Y232944D02*
Y244374D01*
X33976D01*
X14492Y232944D02*
X33976D01*
Y244374D01*
X120791Y155457D02*
X140791D01*
Y160575D01*
Y163135D02*
Y167465D01*
X120791Y155457D02*
Y167465D01*
X140791D01*
X127031Y69512D02*
Y71087D01*
X106559Y69512D02*
X127031D01*
X106559D02*
Y71087D01*
X127031Y83686D02*
Y85260D01*
X106559D02*
X127031D01*
X106559Y83686D02*
Y85260D01*
X224925Y322028D02*
X244925D01*
Y335097D01*
X224925D02*
X244925D01*
X224925Y329788D02*
Y335097D01*
Y322028D02*
Y327288D01*
X256303Y322028D02*
X276303D01*
Y335097D01*
X256303D02*
X276303D01*
X256303Y329788D02*
Y335097D01*
Y322028D02*
Y327288D01*
X253546Y256708D02*
Y268508D01*
X253846Y226508D02*
Y237908D01*
X208746Y257008D02*
Y268408D01*
X208646Y226708D02*
Y237908D01*
X252046Y268408D02*
X253546Y268508D01*
X208746Y268408D02*
X252046D01*
X208646Y226508D02*
Y226708D01*
Y226508D02*
X253846D01*
X187311Y193272D02*
Y213272D01*
X174242D02*
X187311D01*
X174242Y193272D02*
Y213272D01*
Y193272D02*
X179551D01*
X182051D02*
X187311D01*
X245693Y283981D02*
Y303981D01*
Y283981D02*
X250811D01*
X253370D02*
X257701D01*
X245693Y303981D02*
X257701D01*
Y283981D02*
Y303981D01*
X235634Y4257D02*
Y15687D01*
X194496Y4257D02*
X235634D01*
X194496Y15687D02*
X235634D01*
X194496Y4257D02*
Y15687D01*
X43760Y64257D02*
Y84257D01*
Y64257D02*
X56828D01*
Y84257D01*
X51520D02*
X56828D01*
X43760D02*
X49020D01*
X4728Y101186D02*
X16441D01*
X4728D02*
Y131103D01*
X16441Y101186D02*
Y131103D01*
X4728D02*
X16441D01*
X14492Y183206D02*
Y194637D01*
X33976D01*
X14492Y183206D02*
X33976D01*
Y194637D01*
X43720Y87130D02*
Y107131D01*
Y87130D02*
X56789D01*
Y107131D01*
X51480D02*
X56789D01*
X43720D02*
X48980D01*
X14492Y208075D02*
Y219506D01*
X33976D01*
X14492Y208075D02*
X33976D01*
Y219506D01*
X175102Y46855D02*
Y66855D01*
X169984D02*
X175102D01*
X163094D02*
X167425D01*
X163094Y46855D02*
X175102D01*
X163094D02*
Y66855D01*
X303193Y4257D02*
Y15687D01*
X262055Y4257D02*
X303193D01*
X262055Y15687D02*
X303193D01*
X262055Y4257D02*
Y15687D01*
X14492Y257813D02*
Y269244D01*
X33976D01*
X14492Y257813D02*
X33976D01*
Y269244D01*
X14492Y282681D02*
Y294112D01*
X33976D01*
X14492Y282681D02*
X33976D01*
Y294112D01*
X14492Y307550D02*
Y318981D01*
X33976D01*
X14492Y307550D02*
X33976D01*
Y318981D01*
X4295Y46225D02*
X16008D01*
X4295D02*
Y76142D01*
X16008Y46225D02*
Y76142D01*
X4295D02*
X16008D01*
X69968Y3981D02*
Y15412D01*
X89453D01*
X69968Y3981D02*
X89453D01*
Y15412D01*
X125874Y4256D02*
Y15969D01*
X155791D01*
X125874Y4256D02*
X155791D01*
Y15969D01*
X200684Y191445D02*
X197352D01*
Y186446D01*
X200684D01*
X197352Y188946D02*
X199018D01*
X202350Y186446D02*
Y191445D01*
X204850D01*
X205683Y190612D01*
Y188946D01*
X204850Y188113D01*
X202350D01*
X210681Y190612D02*
X209848Y191445D01*
X208182D01*
X207349Y190612D01*
Y189779D01*
X208182Y188946D01*
X209848D01*
X210681Y188113D01*
Y187279D01*
X209848Y186446D01*
X208182D01*
X207349Y187279D01*
X220678Y186446D02*
X217345D01*
X220678Y189779D01*
Y190612D01*
X219845Y191445D01*
X218179D01*
X217345Y190612D01*
X193187Y182214D02*
X192354Y183047D01*
X190688D01*
X189854Y182214D01*
Y181381D01*
X190688Y180548D01*
X192354D01*
X193187Y179715D01*
Y178881D01*
X192354Y178048D01*
X190688D01*
X189854Y178881D01*
X194853Y176382D02*
Y181381D01*
X197352D01*
X198185Y180548D01*
Y178881D01*
X197352Y178048D01*
X194853D01*
X200684Y181381D02*
X202350D01*
X203183Y180548D01*
Y178048D01*
X200684D01*
X199851Y178881D01*
X200684Y179715D01*
X203183D01*
X208182Y181381D02*
X205683D01*
X204850Y180548D01*
Y178881D01*
X205683Y178048D01*
X208182D01*
X212347D02*
X210681D01*
X209848Y178881D01*
Y180548D01*
X210681Y181381D01*
X212347D01*
X213180Y180548D01*
Y179715D01*
X209848D01*
X214846Y183047D02*
Y178048D01*
X218179D01*
X220678Y181381D02*
X222344D01*
X223177Y180548D01*
Y178048D01*
X220678D01*
X219845Y178881D01*
X220678Y179715D01*
X223177D01*
X224843Y183047D02*
Y178048D01*
X227342D01*
X228175Y178881D01*
Y179715D01*
Y180548D01*
X227342Y181381D01*
X224843D01*
X199851Y172983D02*
Y168817D01*
X200684Y167984D01*
X202350D01*
X203183Y168817D01*
Y172983D01*
X208182D02*
X204850D01*
Y170483D01*
X206516D01*
X204850D01*
Y167984D01*
X213180Y172150D02*
X212347Y172983D01*
X210681D01*
X209848Y172150D01*
Y171316D01*
X210681Y170483D01*
X212347D01*
X213180Y169650D01*
Y168817D01*
X212347Y167984D01*
X210681D01*
X209848Y168817D01*
X218179Y172150D02*
X217345Y172983D01*
X215679D01*
X214846Y172150D01*
Y168817D01*
X215679Y167984D01*
X217345D01*
X218179Y168817D01*
D11*
X88744Y332564D02*
G03*
X88744Y332564I-354J0D01*
G01*
X36697Y155398D02*
G03*
X36697Y155398I-354J0D01*
G01*
X36697Y230005D02*
G03*
X36697Y230005I-354J0D01*
G01*
X192484Y18627D02*
G03*
X192484Y18627I-354J0D01*
G01*
X19453Y133469D02*
G03*
X19453Y133469I-354J0D01*
G01*
X36697Y180267D02*
G03*
X36697Y180267I-354J0D01*
G01*
Y205136D02*
G03*
X36697Y205136I-354J0D01*
G01*
X260043Y18627D02*
G03*
X260043Y18627I-354J0D01*
G01*
X36697Y254873D02*
G03*
X36697Y254873I-354J0D01*
G01*
Y279742D02*
G03*
X36697Y279742I-354J0D01*
G01*
Y304611D02*
G03*
X36697Y304611I-354J0D01*
G01*
X19020Y78509D02*
G03*
X19020Y78509I-354J0D01*
G01*
X67957Y18351D02*
G03*
X67957Y18351I-354J0D01*
G01*
X123862Y18627D02*
G03*
X123862Y18627I-354J0D01*
G01*
D12*
X52941Y128056D02*
G03*
X53150Y128052I95J-591D01*
G01*
D13*
X36466Y29524D02*
X39766D01*
X35866Y29425D02*
X40366D01*
X35366Y29324D02*
X40866D01*
X34966Y29225D02*
X41266D01*
X34566Y29125D02*
X41666D01*
X34266Y29024D02*
X41966D01*
X33966Y28925D02*
X42266D01*
X33666Y28824D02*
X36766D01*
X39566D02*
X42566D01*
X33366Y28725D02*
X36066D01*
X40166D02*
X42866D01*
X33166Y28624D02*
X35566D01*
X40666D02*
X43066D01*
X32966Y28525D02*
X35166D01*
X41066D02*
X43266D01*
X32766Y28425D02*
X34866D01*
X37166D02*
X37466D01*
X38166D02*
X39066D01*
X41366D02*
X43466D01*
X32566Y28324D02*
X34466D01*
X37066D02*
X37566D01*
X38166D02*
X39266D01*
X41766D02*
X43666D01*
X32366Y28225D02*
X34266D01*
X35566D02*
X36266D01*
X37066D02*
X37566D01*
X38166D02*
X39366D01*
X42066D02*
X43866D01*
X32166Y28124D02*
X33966D01*
X35366D02*
X36466D01*
X37066D02*
X37566D01*
X38166D02*
X39366D01*
X40366D02*
X40766D01*
X42266D02*
X44066D01*
X31966Y28025D02*
X33666D01*
X35266D02*
X36466D01*
X37066D02*
X37566D01*
X38166D02*
X39466D01*
X40266D02*
X40766D01*
X42566D02*
X44266D01*
X31766Y27924D02*
X33466D01*
X35266D02*
X36566D01*
X37066D02*
X37566D01*
X38166D02*
X39466D01*
X40166D02*
X40866D01*
X42766D02*
X44466D01*
X31666Y27825D02*
X33266D01*
X35266D02*
X36566D01*
X37066D02*
X37566D01*
X38066D02*
X38666D01*
X38866D02*
X39466D01*
X40066D02*
X40866D01*
X42966D02*
X44566D01*
X31466Y27724D02*
X33066D01*
X35266D02*
X36566D01*
X37066D02*
X37666D01*
X38066D02*
X39466D01*
X39966D02*
X40866D01*
X43166D02*
X44766D01*
X31366Y27624D02*
X32866D01*
X33766D02*
X34366D01*
X35266D02*
X35866D01*
X35966D02*
X36566D01*
X37066D02*
X37666D01*
X38066D02*
X39366D01*
X39966D02*
X40866D01*
X41966D02*
X42366D01*
X43366D02*
X44866D01*
X31166Y27525D02*
X32666D01*
X33566D02*
X34566D01*
X35266D02*
X36566D01*
X37066D02*
X37666D01*
X38066D02*
X39366D01*
X39866D02*
X40966D01*
X41766D02*
X42666D01*
X43566D02*
X45066D01*
X31066Y27424D02*
X32466D01*
X33466D02*
X34666D01*
X35266D02*
X36466D01*
X37066D02*
X37666D01*
X38066D02*
X39266D01*
X39766D02*
X40966D01*
X41766D02*
X42866D01*
X43766D02*
X45166D01*
X30866Y27325D02*
X32266D01*
X33366D02*
X34766D01*
X35266D02*
X36466D01*
X37066D02*
X37666D01*
X38066D02*
X38666D01*
X38866D02*
X38966D01*
X39666D02*
X40966D01*
X41666D02*
X42866D01*
X43966D02*
X45366D01*
X30766Y27224D02*
X32166D01*
X33266D02*
X34866D01*
X35266D02*
X36566D01*
X37066D02*
X37666D01*
X38066D02*
X38666D01*
X39666D02*
X40966D01*
X41666D02*
X42866D01*
X44166D02*
X45466D01*
X30666Y27125D02*
X31966D01*
X33266D02*
X34866D01*
X35366D02*
X36666D01*
X37066D02*
X37666D01*
X38066D02*
X38666D01*
X39566D02*
X40966D01*
X41566D02*
X42866D01*
X44266D02*
X45566D01*
X30566Y27024D02*
X31766D01*
X33266D02*
X33866D01*
X34266D02*
X34866D01*
X35366D02*
X36666D01*
X37166D02*
X37666D01*
X38066D02*
X38666D01*
X39566D02*
X40966D01*
X41566D02*
X42266D01*
X42366D02*
X42866D01*
X44466D02*
X45766D01*
X30366Y26924D02*
X31666D01*
X33166D02*
X33766D01*
X34366D02*
X34866D01*
X35366D02*
X36766D01*
X37166D02*
X37666D01*
X38066D02*
X38566D01*
X39566D02*
X40966D01*
X41666D02*
X42466D01*
X44566D02*
X45866D01*
X30266Y26825D02*
X31466D01*
X33166D02*
X33766D01*
X34366D02*
X34966D01*
X35366D02*
X35966D01*
X36066D02*
X36766D01*
X37166D02*
X37566D01*
X38166D02*
X38566D01*
X39566D02*
X40066D01*
X40366D02*
X40966D01*
X41666D02*
X42666D01*
X44766D02*
X45966D01*
X30166Y26724D02*
X31366D01*
X33166D02*
X33766D01*
X34366D02*
X34866D01*
X35466D02*
X35966D01*
X36266D02*
X36666D01*
X39566D02*
X39966D01*
X40466D02*
X40966D01*
X41766D02*
X42666D01*
X44866D02*
X46066D01*
X30066Y26625D02*
X31266D01*
X31866D02*
X32266D01*
X33166D02*
X33866D01*
X34266D02*
X34866D01*
X35466D02*
X35966D01*
X40466D02*
X40966D01*
X41466D02*
X41866D01*
X41966D02*
X42666D01*
X43966D02*
X44366D01*
X44966D02*
X46166D01*
X29966Y26524D02*
X31066D01*
X31866D02*
X32366D01*
X33266D02*
X33966D01*
X34166D02*
X34866D01*
X35566D02*
X35766D01*
X40466D02*
X40966D01*
X41366D02*
X42666D01*
X43766D02*
X44366D01*
X45166D02*
X46366D01*
X29766Y26425D02*
X30966D01*
X31866D02*
X32366D01*
X33266D02*
X34866D01*
X37866D02*
X38366D01*
X41366D02*
X42666D01*
X43566D02*
X44366D01*
X45266D02*
X46466D01*
X29666Y26324D02*
X30866D01*
X31866D02*
X32466D01*
X33366D02*
X34766D01*
X36766D02*
X39566D01*
X41366D02*
X42666D01*
X43466D02*
X44366D01*
X45366D02*
X46566D01*
X29566Y26224D02*
X30766D01*
X31866D02*
X32566D01*
X33366D02*
X34666D01*
X36166D02*
X40066D01*
X41366D02*
X42566D01*
X43266D02*
X44366D01*
X45466D02*
X46666D01*
X29466Y26125D02*
X30566D01*
X31966D02*
X32666D01*
X33466D02*
X34566D01*
X35766D02*
X40466D01*
X41566D02*
X42566D01*
X43166D02*
X44366D01*
X45666D02*
X46766D01*
X29366Y26024D02*
X30466D01*
X31966D02*
X32666D01*
X33666D02*
X34466D01*
X35466D02*
X40866D01*
X41766D02*
X42466D01*
X42966D02*
X44366D01*
X45766D02*
X46866D01*
X29266Y25925D02*
X30366D01*
X30966D02*
X31466D01*
X32066D02*
X32766D01*
X35166D02*
X37066D01*
X39266D02*
X41166D01*
X42866D02*
X44366D01*
X45866D02*
X46966D01*
X29166Y25824D02*
X30266D01*
X30866D02*
X31566D01*
X32066D02*
X33366D01*
X34866D02*
X36466D01*
X39866D02*
X41366D01*
X42766D02*
X44266D01*
X44966D02*
X45366D01*
X45966D02*
X47066D01*
X29066Y25725D02*
X30166D01*
X30666D02*
X31566D01*
X32166D02*
X33366D01*
X34566D02*
X36066D01*
X40266D02*
X41666D01*
X42766D02*
X44266D01*
X44866D02*
X45466D01*
X46066D02*
X47166D01*
X28966Y25624D02*
X30066D01*
X30566D02*
X31466D01*
X32266D02*
X33366D01*
X34366D02*
X35666D01*
X40666D02*
X41866D01*
X42766D02*
X44266D01*
X44866D02*
X45566D01*
X46166D02*
X47266D01*
X28966Y25524D02*
X29966D01*
X30466D02*
X31366D01*
X32266D02*
X33266D01*
X34166D02*
X35366D01*
X40966D02*
X42066D01*
X42766D02*
X43266D01*
X43366D02*
X44266D01*
X44866D02*
X45766D01*
X46266D02*
X47366D01*
X28866Y25424D02*
X29866D01*
X30466D02*
X31766D01*
X32366D02*
X33266D01*
X33966D02*
X35066D01*
X41266D02*
X42266D01*
X43566D02*
X44266D01*
X44966D02*
X45766D01*
X46366D02*
X47366D01*
X28766Y25324D02*
X29766D01*
X30466D02*
X31766D01*
X32466D02*
X33066D01*
X33766D02*
X34766D01*
X41466D02*
X42466D01*
X43566D02*
X44166D01*
X44966D02*
X45866D01*
X46466D02*
X47466D01*
X28666Y25224D02*
X29666D01*
X30466D02*
X31766D01*
X32466D02*
X32966D01*
X33566D02*
X34566D01*
X41666D02*
X42666D01*
X43566D02*
X44166D01*
X44866D02*
X45966D01*
X46566D02*
X47566D01*
X28566Y25124D02*
X29566D01*
X30466D02*
X31766D01*
X33366D02*
X34366D01*
X41866D02*
X42866D01*
X43566D02*
X44166D01*
X44766D02*
X45966D01*
X46666D02*
X47666D01*
X28466Y25024D02*
X29466D01*
X30466D02*
X31666D01*
X33266D02*
X34366D01*
X42066D02*
X42966D01*
X43666D02*
X44066D01*
X44666D02*
X45966D01*
X46766D02*
X47766D01*
X28466Y24924D02*
X29366D01*
X30566D02*
X31566D01*
X33066D02*
X33966D01*
X34066D02*
X34666D01*
X42266D02*
X43166D01*
X43766D02*
X43966D01*
X44566D02*
X45966D01*
X46866D02*
X47866D01*
X28366Y24824D02*
X29366D01*
X30666D02*
X31466D01*
X32966D02*
X33766D01*
X34366D02*
X34866D01*
X42466D02*
X43266D01*
X44466D02*
X45366D01*
X46966D02*
X47866D01*
X28266Y24724D02*
X29266D01*
X30766D02*
X31566D01*
X32766D02*
X33566D01*
X34566D02*
X35066D01*
X42666D02*
X43466D01*
X44466D02*
X45266D01*
X46966D02*
X47966D01*
X28166Y24624D02*
X29166D01*
X30866D02*
X31666D01*
X32666D02*
X33466D01*
X34766D02*
X35166D01*
X42766D02*
X43566D01*
X44366D02*
X45166D01*
X47066D02*
X48066D01*
X28166Y24524D02*
X29066D01*
X30966D02*
X31666D01*
X32566D02*
X33266D01*
X34866D02*
X35366D01*
X42966D02*
X43666D01*
X44366D02*
X45066D01*
X47166D02*
X48166D01*
X28066Y24424D02*
X28966D01*
X31066D02*
X31666D01*
X32366D02*
X33166D01*
X35066D02*
X35566D01*
X43066D02*
X43866D01*
X44366D02*
X44966D01*
X47266D02*
X48166D01*
X27966Y24324D02*
X28966D01*
X31066D02*
X31666D01*
X32266D02*
X32966D01*
X35266D02*
X35666D01*
X43166D02*
X43966D01*
X44466D02*
X44866D01*
X47366D02*
X48266D01*
X27866Y24224D02*
X28866D01*
X31166D02*
X31666D01*
X32166D02*
X32866D01*
X35366D02*
X35866D01*
X43366D02*
X44066D01*
X47366D02*
X48366D01*
X27866Y24124D02*
X28766D01*
X32066D02*
X32766D01*
X35566D02*
X35966D01*
X43466D02*
X44166D01*
X47466D02*
X48366D01*
X27766Y24024D02*
X28666D01*
X31966D02*
X32666D01*
X35666D02*
X36066D01*
X43566D02*
X44266D01*
X47566D02*
X48466D01*
X27766Y23924D02*
X28666D01*
X31866D02*
X32566D01*
X35766D02*
X36266D01*
X43666D02*
X44366D01*
X47666D02*
X48566D01*
X27666Y23824D02*
X28566D01*
X31766D02*
X32466D01*
X35966D02*
X36366D01*
X43866D02*
X44466D01*
X47666D02*
X48566D01*
X27566Y23724D02*
X28466D01*
X31666D02*
X32366D01*
X36066D02*
X36566D01*
X43966D02*
X44566D01*
X47766D02*
X48666D01*
X27566Y23624D02*
X28466D01*
X31566D02*
X32166D01*
X36166D02*
X36666D01*
X44066D02*
X44666D01*
X47866D02*
X48766D01*
X27466Y23524D02*
X28366D01*
X31466D02*
X32066D01*
X36266D02*
X36766D01*
X41366D02*
X41466D01*
X44166D02*
X44766D01*
X47866D02*
X48766D01*
X27466Y23424D02*
X28266D01*
X31366D02*
X31966D01*
X36366D02*
X36866D01*
X41266D02*
X41666D01*
X44266D02*
X44866D01*
X47966D02*
X48866D01*
X27366Y23324D02*
X28266D01*
X31266D02*
X31866D01*
X36566D02*
X37066D01*
X41266D02*
X41766D01*
X44366D02*
X44966D01*
X48066D02*
X48866D01*
X27266Y23224D02*
X28166D01*
X31166D02*
X31766D01*
X36666D02*
X37166D01*
X41266D02*
X41766D01*
X44466D02*
X45066D01*
X48066D02*
X48966D01*
X27266Y23124D02*
X28166D01*
X31066D02*
X31666D01*
X36766D02*
X37266D01*
X41266D02*
X41666D01*
X44566D02*
X45166D01*
X48166D02*
X48966D01*
X27166Y23024D02*
X28066D01*
X30966D02*
X31666D01*
X36866D02*
X37366D01*
X41466D02*
X41666D01*
X44666D02*
X45266D01*
X48166D02*
X49066D01*
X27166Y22924D02*
X27966D01*
X30966D02*
X31566D01*
X36966D02*
X37466D01*
X44666D02*
X45366D01*
X48266D02*
X49066D01*
X27066Y22824D02*
X27966D01*
X30866D02*
X31466D01*
X37066D02*
X37566D01*
X42666D02*
X42966D01*
X44766D02*
X45366D01*
X48266D02*
X49166D01*
X27066Y22724D02*
X27866D01*
X30766D02*
X31366D01*
X37166D02*
X37666D01*
X42666D02*
X43066D01*
X44866D02*
X45466D01*
X48366D02*
X49166D01*
X26966Y22624D02*
X27866D01*
X30666D02*
X31266D01*
X37266D02*
X37766D01*
X42566D02*
X43066D01*
X44966D02*
X45566D01*
X48466D02*
X49266D01*
X26966Y22524D02*
X27766D01*
X30666D02*
X31166D01*
X37366D02*
X37866D01*
X42566D02*
X43066D01*
X45066D02*
X45666D01*
X48466D02*
X49266D01*
X26866Y22424D02*
X27766D01*
X30566D02*
X31166D01*
X37466D02*
X37966D01*
X42766D02*
X42966D01*
X45066D02*
X45666D01*
X48566D02*
X49366D01*
X26866Y22324D02*
X27666D01*
X30466D02*
X31066D01*
X37566D02*
X38066D01*
X45166D02*
X45766D01*
X48566D02*
X49366D01*
X26766Y22224D02*
X27666D01*
X30466D02*
X30966D01*
X37566D02*
X38166D01*
X45266D02*
X45866D01*
X48666D02*
X49466D01*
X26766Y22124D02*
X27566D01*
X30366D02*
X30866D01*
X31866D02*
X32866D01*
X34066D02*
X34566D01*
X37666D02*
X38266D01*
X45366D02*
X45866D01*
X48666D02*
X49466D01*
X26766Y22024D02*
X27566D01*
X30266D02*
X30866D01*
X31466D02*
X33466D01*
X33766D02*
X34766D01*
X37766D02*
X38366D01*
X40766D02*
X40966D01*
X45366D02*
X45966D01*
X48766D02*
X49566D01*
X26666Y21924D02*
X27566D01*
X30266D02*
X30766D01*
X31066D02*
X34966D01*
X37866D02*
X38366D01*
X40666D02*
X41166D01*
X45466D02*
X45966D01*
X48766D02*
X49566D01*
X26666Y21824D02*
X27466D01*
X30166D02*
X35166D01*
X37966D02*
X38466D01*
X40666D02*
X41266D01*
X42366D02*
X42766D01*
X45566D02*
X46066D01*
X48766D02*
X49566D01*
X26566Y21724D02*
X27466D01*
X30166D02*
X35366D01*
X38066D02*
X38566D01*
X40666D02*
X41266D01*
X42266D02*
X42766D01*
X45566D02*
X46166D01*
X48866D02*
X49666D01*
X26566Y21624D02*
X27366D01*
X30066D02*
X35566D01*
X38166D02*
X38666D01*
X40666D02*
X41166D01*
X42366D02*
X42666D01*
X45666D02*
X46166D01*
X48866D02*
X49666D01*
X26566Y21524D02*
X27366D01*
X30066D02*
X35766D01*
X38166D02*
X38766D01*
X40866D02*
X41066D01*
X42466D02*
X42666D01*
X45666D02*
X46266D01*
X48966D02*
X49766D01*
X26466Y21424D02*
X27266D01*
X29966D02*
X35866D01*
X38266D02*
X38766D01*
X45766D02*
X46266D01*
X48966D02*
X49766D01*
X26466Y21324D02*
X27266D01*
X29966D02*
X36166D01*
X38366D02*
X38866D01*
X45866D02*
X46366D01*
X48966D02*
X49766D01*
X26466Y21224D02*
X27266D01*
X29866D02*
X37766D01*
X38466D02*
X38966D01*
X45866D02*
X46366D01*
X49066D02*
X49866D01*
X26366Y21124D02*
X27166D01*
X29866D02*
X38166D01*
X38466D02*
X38966D01*
X45866D02*
X46466D01*
X49066D02*
X49866D01*
X26366Y21024D02*
X27166D01*
X29766D02*
X38266D01*
X38566D02*
X39066D01*
X45966D02*
X46466D01*
X49166D02*
X49866D01*
X26366Y20924D02*
X27166D01*
X29766D02*
X38366D01*
X38666D02*
X39166D01*
X45966D02*
X46466D01*
X49166D02*
X49966D01*
X26366Y20824D02*
X27066D01*
X29666D02*
X38466D01*
X38666D02*
X39166D01*
X46066D02*
X46566D01*
X49166D02*
X49966D01*
X26266Y20724D02*
X27066D01*
X29666D02*
X38466D01*
X38766D02*
X39266D01*
X46066D02*
X46566D01*
X49266D02*
X49966D01*
X26266Y20624D02*
X27066D01*
X29666D02*
X38566D01*
X38866D02*
X39366D01*
X46166D02*
X46666D01*
X49266D02*
X49966D01*
X26266Y20524D02*
X26966D01*
X29566D02*
X38666D01*
X38866D02*
X39366D01*
X46166D02*
X46666D01*
X49266D02*
X50066D01*
X26166Y20424D02*
X26966D01*
X29566D02*
X38666D01*
X38966D02*
X39466D01*
X46166D02*
X46666D01*
X49266D02*
X50066D01*
X26166Y20324D02*
X26966D01*
X29566D02*
X38766D01*
X39066D02*
X39466D01*
X42366D02*
X42666D01*
X46266D02*
X46766D01*
X49366D02*
X50066D01*
X26166Y20224D02*
X26966D01*
X29466D02*
X38766D01*
X39066D02*
X39566D01*
X42266D02*
X42766D01*
X46266D02*
X46766D01*
X49366D02*
X50066D01*
X26166Y20124D02*
X26866D01*
X29466D02*
X38866D01*
X39166D02*
X39566D01*
X42266D02*
X42866D01*
X46266D02*
X46766D01*
X49366D02*
X50166D01*
X26066Y20024D02*
X26866D01*
X29466D02*
X38866D01*
X39166D02*
X39666D01*
X42166D02*
X42866D01*
X46366D02*
X46866D01*
X49366D02*
X50166D01*
X26066Y19924D02*
X26866D01*
X29366D02*
X38866D01*
X39266D02*
X39666D01*
X42266D02*
X42766D01*
X46366D02*
X46866D01*
X49466D02*
X50166D01*
X26066Y19824D02*
X26866D01*
X29366D02*
X38966D01*
X39266D02*
X39766D01*
X42466D02*
X42666D01*
X46366D02*
X46866D01*
X49466D02*
X50166D01*
X26066Y19724D02*
X26766D01*
X29366D02*
X38966D01*
X39366D02*
X39766D01*
X46466D02*
X46966D01*
X49466D02*
X50266D01*
X26066Y19624D02*
X26766D01*
X29266D02*
X38966D01*
X39366D02*
X39866D01*
X46466D02*
X46966D01*
X49466D02*
X50266D01*
X25966Y19524D02*
X26766D01*
X29266D02*
X38966D01*
X39466D02*
X39866D01*
X46466D02*
X46966D01*
X49566D02*
X50266D01*
X54966D02*
X55366D01*
X25966Y19424D02*
X26766D01*
X29266D02*
X38966D01*
X39466D02*
X39966D01*
X44466D02*
X44966D01*
X46466D02*
X46966D01*
X49566D02*
X50266D01*
X54666D02*
X55366D01*
X25966Y19324D02*
X26766D01*
X29266D02*
X39066D01*
X39566D02*
X39966D01*
X44566D02*
X45266D01*
X46566D02*
X47066D01*
X49566D02*
X50266D01*
X54366D02*
X55266D01*
X25966Y19224D02*
X26666D01*
X29266D02*
X39066D01*
X39566D02*
X40066D01*
X44766D02*
X45566D01*
X46566D02*
X47066D01*
X49566D02*
X50266D01*
X54066D02*
X55066D01*
X25966Y19124D02*
X26666D01*
X29166D02*
X39066D01*
X39666D02*
X40066D01*
X44966D02*
X45866D01*
X46566D02*
X47066D01*
X49566D02*
X50366D01*
X53766D02*
X54866D01*
X25966Y19024D02*
X26666D01*
X29166D02*
X39066D01*
X39666D02*
X40166D01*
X45266D02*
X46066D01*
X46666D02*
X47066D01*
X49566D02*
X50366D01*
X53566D02*
X54466D01*
X25866Y18924D02*
X26666D01*
X29166D02*
X39066D01*
X39766D02*
X40166D01*
X45466D02*
X46366D01*
X46666D02*
X47066D01*
X49566D02*
X50366D01*
X53266D02*
X54166D01*
X25866Y18824D02*
X26666D01*
X29166D02*
X39066D01*
X39766D02*
X40166D01*
X45766D02*
X47066D01*
X49666D02*
X50366D01*
X53066D02*
X53966D01*
X25866Y18724D02*
X26666D01*
X29166D02*
X39066D01*
X39766D02*
X40266D01*
X46066D02*
X47166D01*
X49666D02*
X50366D01*
X52766D02*
X53666D01*
X25866Y18624D02*
X26666D01*
X29066D02*
X39166D01*
X39866D02*
X40266D01*
X46366D02*
X47266D01*
X49666D02*
X50366D01*
X52466D02*
X53366D01*
X25866Y18524D02*
X26566D01*
X29066D02*
X39166D01*
X39866D02*
X40366D01*
X46566D02*
X47466D01*
X49566D02*
X50366D01*
X52166D02*
X53166D01*
X25866Y18424D02*
X26566D01*
X29066D02*
X39166D01*
X39966D02*
X40366D01*
X46766D02*
X47766D01*
X49266D02*
X50666D01*
X51866D02*
X52866D01*
X25866Y18324D02*
X26566D01*
X29066D02*
X29466D01*
X29666D02*
X39266D01*
X39966D02*
X40366D01*
X46766D02*
X48066D01*
X48966D02*
X49766D01*
X49866D02*
X50066D01*
X50166D02*
X50966D01*
X51566D02*
X52566D01*
X25866Y18224D02*
X26566D01*
X29066D02*
X29466D01*
X29766D02*
X39266D01*
X39966D02*
X40466D01*
X46766D02*
X47166D01*
X47366D02*
X48266D01*
X48566D02*
X49666D01*
X49866D02*
X50066D01*
X50466D02*
X52266D01*
X25866Y18124D02*
X26566D01*
X29066D02*
X29466D01*
X29766D02*
X39266D01*
X40066D02*
X40466D01*
X46766D02*
X47166D01*
X47566D02*
X49666D01*
X49866D02*
X50066D01*
X50166D02*
X50666D01*
X50766D02*
X52066D01*
X25866Y18024D02*
X26566D01*
X29066D02*
X29466D01*
X29766D02*
X39366D01*
X40066D02*
X40466D01*
X46766D02*
X47166D01*
X47866D02*
X48766D01*
X48866D02*
X49666D01*
X49866D02*
X50066D01*
X50166D02*
X50966D01*
X51066D02*
X51766D01*
X25866Y17924D02*
X26566D01*
X29066D02*
X29466D01*
X29666D02*
X39366D01*
X40066D02*
X40566D01*
X46766D02*
X47166D01*
X48066D02*
X49366D01*
X49466D02*
X49666D01*
X49866D02*
X50066D01*
X50166D02*
X51266D01*
X51366D02*
X52066D01*
X25866Y17824D02*
X26566D01*
X29066D02*
X29466D01*
X29666D02*
X39366D01*
X40166D02*
X40566D01*
X46766D02*
X47266D01*
X47766D02*
X49066D01*
X49466D02*
X49666D01*
X49866D02*
X50066D01*
X50166D02*
X50466D01*
X50866D02*
X52366D01*
X25766Y17724D02*
X26566D01*
X29066D02*
X29466D01*
X29566D02*
X39466D01*
X40166D02*
X40566D01*
X46766D02*
X47266D01*
X47466D02*
X48766D01*
X49466D02*
X49666D01*
X49866D02*
X50066D01*
X50166D02*
X50466D01*
X51066D02*
X52666D01*
X25766Y17624D02*
X26566D01*
X29066D02*
X29466D01*
X29566D02*
X39466D01*
X40166D02*
X40566D01*
X46766D02*
X48466D01*
X49466D02*
X49666D01*
X49866D02*
X50066D01*
X50166D02*
X50466D01*
X51366D02*
X52766D01*
X25766Y17524D02*
X26566D01*
X29066D02*
X39566D01*
X40166D02*
X40666D01*
X46766D02*
X48166D01*
X49466D02*
X49666D01*
X49866D02*
X50066D01*
X50266D02*
X50466D01*
X51666D02*
X52366D01*
X52466D02*
X52866D01*
X25766Y17424D02*
X26566D01*
X29066D02*
X39566D01*
X40266D02*
X40666D01*
X46766D02*
X47966D01*
X49366D02*
X49666D01*
X49866D02*
X50066D01*
X50266D02*
X50466D01*
X51966D02*
X52466D01*
X52566D02*
X52866D01*
X25766Y17324D02*
X26566D01*
X28966D02*
X39566D01*
X40266D02*
X40666D01*
X46766D02*
X47666D01*
X49366D02*
X49666D01*
X49866D02*
X50066D01*
X50266D02*
X50466D01*
X52166D02*
X52466D01*
X52666D02*
X52866D01*
X25766Y17224D02*
X26566D01*
X28966D02*
X39566D01*
X40266D02*
X40666D01*
X46766D02*
X47566D01*
X49266D02*
X49566D01*
X49866D02*
X50066D01*
X50266D02*
X50566D01*
X52266D02*
X52466D01*
X52666D02*
X52866D01*
X25766Y17124D02*
X26566D01*
X28966D02*
X39666D01*
X40266D02*
X40766D01*
X46766D02*
X47266D01*
X47366D02*
X47566D01*
X49166D02*
X49566D01*
X49866D02*
X50066D01*
X50366D02*
X50666D01*
X52266D02*
X52466D01*
X52666D02*
X52866D01*
X25866Y17024D02*
X26566D01*
X29066D02*
X39666D01*
X40366D02*
X40766D01*
X46766D02*
X47266D01*
X47366D02*
X47566D01*
X49166D02*
X49466D01*
X49866D02*
X50066D01*
X50366D02*
X50766D01*
X52266D02*
X52466D01*
X52666D02*
X52866D01*
X25866Y16924D02*
X26566D01*
X29066D02*
X39666D01*
X40366D02*
X40766D01*
X46766D02*
X47266D01*
X47366D02*
X47566D01*
X48966D02*
X49366D01*
X49866D02*
X50066D01*
X50466D02*
X50866D01*
X52266D02*
X52466D01*
X52666D02*
X52866D01*
X25866Y16824D02*
X26566D01*
X29066D02*
X39766D01*
X40366D02*
X40766D01*
X46766D02*
X47266D01*
X47366D02*
X47666D01*
X48766D02*
X49266D01*
X49466D02*
X49666D01*
X49866D02*
X50066D01*
X50566D02*
X51066D01*
X52266D02*
X52466D01*
X52666D02*
X52866D01*
X25866Y16724D02*
X26566D01*
X29066D02*
X29466D01*
X29566D02*
X39766D01*
X40366D02*
X40766D01*
X46766D02*
X47266D01*
X47366D02*
X47666D01*
X48466D02*
X49666D01*
X49866D02*
X50066D01*
X50166D02*
X51366D01*
X52266D02*
X52466D01*
X52666D02*
X52866D01*
X25866Y16624D02*
X26566D01*
X29066D02*
X29466D01*
X29566D02*
X39766D01*
X40366D02*
X40866D01*
X46766D02*
X47266D01*
X47366D02*
X47766D01*
X48166D02*
X49666D01*
X49866D02*
X50066D01*
X50166D02*
X51666D01*
X52066D02*
X52466D01*
X52666D02*
X52866D01*
X25866Y16524D02*
X26566D01*
X29066D02*
X29466D01*
X29566D02*
X39766D01*
X40466D02*
X40866D01*
X46666D02*
X47266D01*
X47466D02*
X49266D01*
X49466D02*
X49666D01*
X49866D02*
X50066D01*
X50166D02*
X50466D01*
X50566D02*
X52466D01*
X52666D02*
X53066D01*
X25866Y16424D02*
X26566D01*
X29066D02*
X29566D01*
X29666D02*
X39766D01*
X40466D02*
X40866D01*
X46366D02*
X47266D01*
X47566D02*
X48966D01*
X49466D02*
X49666D01*
X49866D02*
X50066D01*
X50166D02*
X50466D01*
X50866D02*
X52266D01*
X52666D02*
X53366D01*
X25866Y16324D02*
X26566D01*
X29066D02*
X29566D01*
X29666D02*
X39766D01*
X40466D02*
X40866D01*
X46066D02*
X47266D01*
X47866D02*
X48666D01*
X49366D02*
X49666D01*
X49866D02*
X50066D01*
X50166D02*
X50466D01*
X51166D02*
X52066D01*
X52666D02*
X53666D01*
X25866Y16224D02*
X26566D01*
X29066D02*
X29566D01*
X29666D02*
X39766D01*
X40466D02*
X40866D01*
X45766D02*
X47266D01*
X47666D02*
X48466D01*
X49366D02*
X49666D01*
X49866D02*
X50066D01*
X50166D02*
X50466D01*
X51466D02*
X52166D01*
X52666D02*
X52866D01*
X52966D02*
X53966D01*
X25866Y16124D02*
X26566D01*
X29066D02*
X29566D01*
X29766D02*
X39766D01*
X40466D02*
X40866D01*
X45466D02*
X46466D01*
X46666D02*
X47266D01*
X47466D02*
X48166D01*
X49366D02*
X49666D01*
X49866D02*
X50066D01*
X50266D02*
X50466D01*
X51666D02*
X52466D01*
X52666D02*
X52866D01*
X53166D02*
X54266D01*
X25866Y16024D02*
X26566D01*
X29066D02*
X29566D01*
X29766D02*
X39766D01*
X40466D02*
X40866D01*
X45166D02*
X46166D01*
X46666D02*
X47266D01*
X47366D02*
X47866D01*
X49366D02*
X49666D01*
X49866D02*
X50066D01*
X50266D02*
X50466D01*
X51966D02*
X52466D01*
X52666D02*
X52866D01*
X53466D02*
X54566D01*
X25866Y15924D02*
X26666D01*
X29166D02*
X29566D01*
X29866D02*
X39766D01*
X40466D02*
X40966D01*
X44966D02*
X45866D01*
X46666D02*
X47266D01*
X47366D02*
X47666D01*
X49366D02*
X49566D01*
X49866D02*
X50066D01*
X50266D02*
X50566D01*
X52266D02*
X52466D01*
X52666D02*
X52866D01*
X53866D02*
X54866D01*
X25866Y15824D02*
X26666D01*
X29166D02*
X29666D01*
X29866D02*
X39666D01*
X40466D02*
X40966D01*
X44666D02*
X45566D01*
X46566D02*
X47266D01*
X47366D02*
X47666D01*
X49266D02*
X49566D01*
X49866D02*
X50066D01*
X50266D02*
X50566D01*
X52266D02*
X52466D01*
X52666D02*
X52866D01*
X54066D02*
X55066D01*
X25966Y15724D02*
X26666D01*
X29166D02*
X29666D01*
X29866D02*
X39666D01*
X40566D02*
X40966D01*
X44466D02*
X45366D01*
X46366D02*
X47266D01*
X47366D02*
X47666D01*
X49266D02*
X49566D01*
X49866D02*
X50066D01*
X50366D02*
X50666D01*
X52266D02*
X52466D01*
X52666D02*
X52866D01*
X54366D02*
X55266D01*
X25966Y15624D02*
X26666D01*
X29166D02*
X29666D01*
X29966D02*
X39566D01*
X40566D02*
X40966D01*
X44466D02*
X45066D01*
X46266D02*
X47266D01*
X47366D02*
X47666D01*
X49166D02*
X49466D01*
X49866D02*
X50066D01*
X50366D02*
X50766D01*
X52266D02*
X52466D01*
X52666D02*
X52866D01*
X54666D02*
X55366D01*
X25966Y15524D02*
X26666D01*
X29166D02*
X29666D01*
X30066D02*
X39466D01*
X40566D02*
X40966D01*
X46066D02*
X47266D01*
X47366D02*
X47566D01*
X48966D02*
X49366D01*
X49866D02*
X50066D01*
X50466D02*
X50966D01*
X52266D02*
X52466D01*
X52666D02*
X52866D01*
X54966D02*
X55366D01*
X25966Y15424D02*
X26666D01*
X29166D02*
X29666D01*
X30266D02*
X39366D01*
X40566D02*
X40966D01*
X45966D02*
X47266D01*
X47366D02*
X47566D01*
X48766D02*
X49266D01*
X49666D02*
X50166D01*
X50566D02*
X51166D01*
X52266D02*
X52466D01*
X52666D02*
X52866D01*
X25966Y15324D02*
X26666D01*
X29266D02*
X29766D01*
X30466D02*
X39366D01*
X40566D02*
X40966D01*
X45766D02*
X47266D01*
X47366D02*
X47666D01*
X48466D02*
X49166D01*
X49366D02*
X50466D01*
X50766D02*
X51466D01*
X52266D02*
X52466D01*
X52666D02*
X52866D01*
X25966Y15224D02*
X26766D01*
X29266D02*
X29766D01*
X30666D02*
X39366D01*
X40566D02*
X40966D01*
X45566D02*
X47266D01*
X47366D02*
X47766D01*
X48166D02*
X48866D01*
X49066D02*
X49866D01*
X49966D02*
X50766D01*
X50966D02*
X51666D01*
X52066D02*
X52466D01*
X52666D02*
X52866D01*
X26066Y15124D02*
X26766D01*
X29266D02*
X29766D01*
X30966D02*
X39366D01*
X40566D02*
X40966D01*
X45366D02*
X47266D01*
X47466D02*
X48666D01*
X48866D02*
X49566D01*
X50266D02*
X50966D01*
X51266D02*
X52466D01*
X52666D02*
X52866D01*
X26066Y15024D02*
X26766D01*
X29266D02*
X29766D01*
X31166D02*
X39366D01*
X40566D02*
X40966D01*
X45166D02*
X47266D01*
X47666D02*
X48366D01*
X48566D02*
X49266D01*
X50566D02*
X51266D01*
X51466D02*
X52266D01*
X52666D02*
X52866D01*
X26066Y14924D02*
X26766D01*
X29366D02*
X29866D01*
X31366D02*
X39366D01*
X40566D02*
X40966D01*
X44966D02*
X47266D01*
X48266D02*
X49066D01*
X50866D02*
X51566D01*
X51866D02*
X51966D01*
X52666D02*
X52866D01*
X26066Y14824D02*
X26766D01*
X29366D02*
X29866D01*
X31566D02*
X39366D01*
X40566D02*
X40966D01*
X44766D02*
X47266D01*
X47966D02*
X48766D01*
X51066D02*
X51866D01*
X52666D02*
X52866D01*
X26066Y14724D02*
X26866D01*
X29366D02*
X29866D01*
X31766D02*
X39366D01*
X40566D02*
X40966D01*
X44566D02*
X47266D01*
X47666D02*
X48466D01*
X51366D02*
X52166D01*
X52566D02*
X52866D01*
X26166Y14624D02*
X26866D01*
X29466D02*
X29866D01*
X31966D02*
X39366D01*
X40566D02*
X40966D01*
X44366D02*
X47266D01*
X47466D02*
X48166D01*
X51666D02*
X52366D01*
X52566D02*
X52866D01*
X26166Y14524D02*
X26866D01*
X29466D02*
X29966D01*
X32266D02*
X39366D01*
X40566D02*
X40966D01*
X44166D02*
X47866D01*
X51966D02*
X52866D01*
X26166Y14424D02*
X26866D01*
X29466D02*
X29966D01*
X32466D02*
X39366D01*
X40566D02*
X40966D01*
X43966D02*
X47666D01*
X52166D02*
X52866D01*
X26166Y14324D02*
X26966D01*
X29566D02*
X29966D01*
X32666D02*
X39366D01*
X40566D02*
X40966D01*
X43766D02*
X47566D01*
X52266D02*
X52766D01*
X26266Y14224D02*
X26966D01*
X29566D02*
X30066D01*
X32866D02*
X39366D01*
X40566D02*
X40966D01*
X43566D02*
X47866D01*
X51966D02*
X52666D01*
X26266Y14124D02*
X26966D01*
X29566D02*
X30066D01*
X33166D02*
X39366D01*
X40566D02*
X40966D01*
X43366D02*
X48166D01*
X51666D02*
X52466D01*
X26266Y14024D02*
X27066D01*
X29666D02*
X30166D01*
X33366D02*
X39366D01*
X40566D02*
X40966D01*
X43166D02*
X48366D01*
X51466D02*
X52166D01*
X25066Y13924D02*
X25166D01*
X26266D02*
X27066D01*
X29666D02*
X30166D01*
X33666D02*
X39366D01*
X40566D02*
X40966D01*
X42866D02*
X48666D01*
X51166D02*
X51866D01*
X24866Y13824D02*
X25166D01*
X26366D02*
X27066D01*
X29766D02*
X30166D01*
X33966D02*
X39366D01*
X40566D02*
X40966D01*
X42666D02*
X48966D01*
X50866D02*
X51666D01*
X24766Y13724D02*
X25066D01*
X26366D02*
X27166D01*
X29766D02*
X30266D01*
X34366D02*
X39366D01*
X40566D02*
X40966D01*
X42466D02*
X49166D01*
X50566D02*
X51366D01*
X24666Y13624D02*
X24966D01*
X26366D02*
X27166D01*
X29866D02*
X30266D01*
X34766D02*
X39366D01*
X40566D02*
X40966D01*
X42166D02*
X48866D01*
X49066D02*
X49466D01*
X50366D02*
X51066D01*
X24566Y13524D02*
X24866D01*
X26466D02*
X27166D01*
X29866D02*
X30366D01*
X35066D02*
X39366D01*
X40566D02*
X40966D01*
X41966D02*
X48766D01*
X49066D02*
X50766D01*
X24466Y13424D02*
X24866D01*
X26466D02*
X27266D01*
X29866D02*
X30366D01*
X35066D02*
X39366D01*
X40566D02*
X40866D01*
X41666D02*
X48566D01*
X49066D02*
X50566D01*
X24466Y13324D02*
X24766D01*
X26466D02*
X27266D01*
X29966D02*
X30466D01*
X35066D02*
X39366D01*
X40566D02*
X40866D01*
X41466D02*
X48366D01*
X48966D02*
X50166D01*
X24366Y13224D02*
X24666D01*
X26566D02*
X27266D01*
X29966D02*
X30466D01*
X35166D02*
X39366D01*
X40566D02*
X40866D01*
X41166D02*
X48166D01*
X48966D02*
X49766D01*
X24366Y13124D02*
X24666D01*
X26566D02*
X27366D01*
X30066D02*
X30566D01*
X35166D02*
X39366D01*
X40566D02*
X47966D01*
X48866D02*
X49766D01*
X24266Y13024D02*
X24566D01*
X26566D02*
X27366D01*
X30166D02*
X30666D01*
X35266D02*
X39366D01*
X40566D02*
X47766D01*
X48866D02*
X49666D01*
X24266Y12924D02*
X24566D01*
X26666D02*
X27466D01*
X30166D02*
X30666D01*
X35266D02*
X39366D01*
X40266D02*
X47466D01*
X48866D02*
X49666D01*
X24266Y12824D02*
X24566D01*
X26666D02*
X27466D01*
X30266D02*
X30766D01*
X35266D02*
X39366D01*
X40066D02*
X47266D01*
X48766D02*
X49666D01*
X24266Y12724D02*
X24566D01*
X26666D02*
X27566D01*
X30266D02*
X30766D01*
X35366D02*
X39366D01*
X39666D02*
X47066D01*
X48766D02*
X49566D01*
X24266Y12625D02*
X24566D01*
X26766D02*
X27566D01*
X30366D02*
X30866D01*
X35366D02*
X46866D01*
X48666D02*
X49566D01*
X24266Y12525D02*
X24566D01*
X26766D02*
X27566D01*
X30366D02*
X30966D01*
X35466D02*
X46566D01*
X48666D02*
X49466D01*
X24266Y12425D02*
X24666D01*
X26866D02*
X27666D01*
X30466D02*
X30966D01*
X35466D02*
X46366D01*
X48566D02*
X49466D01*
X24266Y12325D02*
X24666D01*
X26866D02*
X27666D01*
X30566D02*
X31066D01*
X35466D02*
X46066D01*
X48566D02*
X49366D01*
X24266Y12224D02*
X24766D01*
X26866D02*
X27766D01*
X30566D02*
X31166D01*
X35566D02*
X45866D01*
X48466D02*
X49366D01*
X24366Y12124D02*
X24866D01*
X26966D02*
X27766D01*
X30666D02*
X31266D01*
X35566D02*
X45666D01*
X48466D02*
X49366D01*
X24366Y12025D02*
X25066D01*
X26966D02*
X27866D01*
X30766D02*
X31366D01*
X35566D02*
X45566D01*
X48366D02*
X49266D01*
X24466Y11925D02*
X25166D01*
X27066D02*
X27966D01*
X30766D02*
X31366D01*
X35666D02*
X45466D01*
X48366D02*
X49266D01*
X24566Y11824D02*
X25366D01*
X27066D02*
X27966D01*
X30866D02*
X31466D01*
X35666D02*
X45366D01*
X48266D02*
X49166D01*
X24666Y11725D02*
X25666D01*
X27166D02*
X28066D01*
X30966D02*
X31566D01*
X35666D02*
X44466D01*
X44666D02*
X45266D01*
X48266D02*
X49166D01*
X24766Y11625D02*
X25866D01*
X27166D02*
X28066D01*
X31066D02*
X31666D01*
X35066D02*
X44166D01*
X44666D02*
X45266D01*
X48166D02*
X49066D01*
X24866Y11524D02*
X26266D01*
X27266D02*
X28166D01*
X31066D02*
X31766D01*
X34466D02*
X43866D01*
X44566D02*
X45166D01*
X48166D02*
X49066D01*
X25066Y11424D02*
X26666D01*
X27266D02*
X28166D01*
X31166D02*
X31766D01*
X33766D02*
X43466D01*
X44466D02*
X45066D01*
X48066D02*
X48966D01*
X25266Y11325D02*
X27166D01*
X27366D02*
X28266D01*
X31266D02*
X31866D01*
X33066D02*
X43166D01*
X44366D02*
X44966D01*
X48066D02*
X48966D01*
X25366Y11225D02*
X28266D01*
X31366D02*
X42766D01*
X44266D02*
X44866D01*
X47966D02*
X48866D01*
X25566Y11124D02*
X42366D01*
X44166D02*
X44766D01*
X47866D02*
X48766D01*
X25866Y11024D02*
X41966D01*
X44066D02*
X44666D01*
X47866D02*
X48766D01*
X26066Y10925D02*
X41466D01*
X43966D02*
X44566D01*
X47766D02*
X48666D01*
X26366Y10825D02*
X40966D01*
X43866D02*
X44466D01*
X47766D02*
X48666D01*
X26666Y10724D02*
X40566D01*
X43666D02*
X44366D01*
X47666D02*
X48566D01*
X26966Y10625D02*
X40266D01*
X43566D02*
X44266D01*
X47566D02*
X48466D01*
X27266Y10525D02*
X39666D01*
X39866D02*
X40166D01*
X43466D02*
X44166D01*
X47566D02*
X48466D01*
X27766Y10424D02*
X39066D01*
X39866D02*
X40166D01*
X43366D02*
X44066D01*
X47466D02*
X48366D01*
X27966Y10324D02*
X38766D01*
X39866D02*
X40066D01*
X43166D02*
X43966D01*
X47366D02*
X48266D01*
X28066Y10225D02*
X28966D01*
X29066D02*
X38766D01*
X39766D02*
X40066D01*
X43066D02*
X43866D01*
X47266D02*
X48266D01*
X28166Y10125D02*
X29066D01*
X29766D02*
X38666D01*
X39766D02*
X39966D01*
X42866D02*
X43666D01*
X47266D02*
X48166D01*
X28166Y10024D02*
X29166D01*
X31166D02*
X34766D01*
X36166D02*
X38666D01*
X39666D02*
X39966D01*
X42766D02*
X43566D01*
X47166D02*
X48066D01*
X28266Y9924D02*
X29166D01*
X32866D02*
X33666D01*
X36266D02*
X38666D01*
X39666D02*
X39966D01*
X42566D02*
X43466D01*
X47066D02*
X47966D01*
X28366Y9825D02*
X29266D01*
X33066D02*
X33766D01*
X36266D02*
X38566D01*
X39666D02*
X39866D01*
X42466D02*
X43266D01*
X46966D02*
X47866D01*
X28366Y9725D02*
X29366D01*
X33166D02*
X33966D01*
X36266D02*
X38566D01*
X39566D02*
X39866D01*
X42266D02*
X43166D01*
X46866D02*
X47766D01*
X28466Y9624D02*
X29466D01*
X33266D02*
X34166D01*
X36366D02*
X38466D01*
X39566D02*
X39766D01*
X42066D02*
X42966D01*
X46766D02*
X47766D01*
X28566Y9525D02*
X29566D01*
X33466D02*
X34366D01*
X36366D02*
X38466D01*
X39566D02*
X39766D01*
X41866D02*
X42766D01*
X46666D02*
X47666D01*
X28666Y9425D02*
X29666D01*
X33566D02*
X34566D01*
X36366D02*
X38366D01*
X39566D02*
X39666D01*
X41566D02*
X42666D01*
X46566D02*
X47566D01*
X28766Y9324D02*
X29766D01*
X33766D02*
X34866D01*
X36466D02*
X38366D01*
X41366D02*
X42466D01*
X46466D02*
X47466D01*
X28866Y9224D02*
X29866D01*
X33966D02*
X35066D01*
X36466D02*
X38366D01*
X41166D02*
X42266D01*
X46366D02*
X47366D01*
X28966Y9125D02*
X29966D01*
X34166D02*
X35366D01*
X36466D02*
X38266D01*
X40866D02*
X42066D01*
X46266D02*
X47266D01*
X29066Y9025D02*
X30066D01*
X34366D02*
X35666D01*
X36466D02*
X38266D01*
X40666D02*
X41866D01*
X46166D02*
X47266D01*
X29166Y8924D02*
X30166D01*
X34666D02*
X36066D01*
X36466D02*
X38266D01*
X40266D02*
X41566D01*
X46066D02*
X47166D01*
X29266Y8824D02*
X30266D01*
X34866D02*
X38166D01*
X39966D02*
X41366D01*
X45966D02*
X47066D01*
X29366Y8725D02*
X30366D01*
X35166D02*
X38166D01*
X38766D02*
X41066D01*
X45866D02*
X46966D01*
X29466Y8625D02*
X30466D01*
X35466D02*
X40766D01*
X45766D02*
X46866D01*
X29566Y8524D02*
X30566D01*
X35766D02*
X40366D01*
X45666D02*
X46766D01*
X29666Y8424D02*
X30666D01*
X36166D02*
X39966D01*
X45566D02*
X46666D01*
X29766Y8325D02*
X30866D01*
X36766D02*
X39366D01*
X45466D02*
X46566D01*
X29866Y8224D02*
X30966D01*
X45266D02*
X46466D01*
X29966Y8124D02*
X31066D01*
X35166D02*
X35466D01*
X40566D02*
X41066D01*
X45166D02*
X46366D01*
X30066Y8025D02*
X31266D01*
X35066D02*
X35566D01*
X40366D02*
X41066D01*
X45066D02*
X46266D01*
X30166Y7925D02*
X31366D01*
X35066D02*
X35566D01*
X35866D02*
X36366D01*
X40266D02*
X41166D01*
X44866D02*
X46066D01*
X30266Y7824D02*
X31466D01*
X34966D02*
X35566D01*
X35866D02*
X36366D01*
X37066D02*
X37266D01*
X38766D02*
X39266D01*
X40166D02*
X41166D01*
X44766D02*
X45966D01*
X30366Y7724D02*
X31666D01*
X34966D02*
X35566D01*
X35866D02*
X36366D01*
X36766D02*
X37966D01*
X38566D02*
X39466D01*
X40066D02*
X41066D01*
X44566D02*
X45866D01*
X30566Y7625D02*
X31766D01*
X34966D02*
X35566D01*
X35766D02*
X36366D01*
X36766D02*
X37966D01*
X38466D02*
X39466D01*
X40066D02*
X40966D01*
X44466D02*
X45766D01*
X30666Y7525D02*
X31966D01*
X34866D02*
X35466D01*
X35766D02*
X36366D01*
X36766D02*
X37966D01*
X38366D02*
X39466D01*
X40066D02*
X40666D01*
X44266D02*
X45566D01*
X30766Y7424D02*
X32166D01*
X34866D02*
X35466D01*
X35766D02*
X36366D01*
X36766D02*
X37966D01*
X38366D02*
X39466D01*
X40066D02*
X40566D01*
X44166D02*
X45466D01*
X30966Y7324D02*
X32266D01*
X34866D02*
X35466D01*
X35766D02*
X36366D01*
X36666D02*
X37966D01*
X38366D02*
X39366D01*
X39966D02*
X40566D01*
X43966D02*
X45266D01*
X31066Y7225D02*
X32466D01*
X34866D02*
X35466D01*
X35766D02*
X36366D01*
X36666D02*
X37266D01*
X38366D02*
X39166D01*
X39966D02*
X40566D01*
X43766D02*
X45166D01*
X31266Y7124D02*
X32666D01*
X34866D02*
X35466D01*
X35666D02*
X36266D01*
X36666D02*
X37766D01*
X38366D02*
X39466D01*
X40066D02*
X40566D01*
X43566D02*
X45066D01*
X31366Y7024D02*
X32866D01*
X34866D02*
X35466D01*
X35666D02*
X36266D01*
X36666D02*
X37866D01*
X38366D02*
X39566D01*
X40066D02*
X41166D01*
X43466D02*
X44866D01*
X31566Y6925D02*
X33066D01*
X34866D02*
X36266D01*
X36666D02*
X37866D01*
X38366D02*
X39666D01*
X40066D02*
X41366D01*
X43266D02*
X44666D01*
X31666Y6825D02*
X33266D01*
X34866D02*
X36166D01*
X36666D02*
X37866D01*
X38466D02*
X39666D01*
X40166D02*
X41366D01*
X43066D02*
X44566D01*
X31866Y6724D02*
X33466D01*
X34866D02*
X36166D01*
X36666D02*
X37766D01*
X38866D02*
X39666D01*
X40166D02*
X41466D01*
X42766D02*
X44366D01*
X32066Y6624D02*
X33666D01*
X34966D02*
X36066D01*
X36666D02*
X37266D01*
X38566D02*
X39666D01*
X40266D02*
X41366D01*
X42566D02*
X44166D01*
X32166Y6525D02*
X33966D01*
X35066D02*
X36066D01*
X36666D02*
X37266D01*
X38466D02*
X39666D01*
X40466D02*
X41266D01*
X42366D02*
X43966D01*
X32366Y6425D02*
X34166D01*
X35266D02*
X35866D01*
X36666D02*
X37166D01*
X38466D02*
X39666D01*
X42066D02*
X43766D01*
X32566Y6324D02*
X34466D01*
X36666D02*
X37166D01*
X38466D02*
X39566D01*
X41766D02*
X43566D01*
X32766Y6225D02*
X34866D01*
X36766D02*
X37166D01*
X38466D02*
X39466D01*
X41466D02*
X43366D01*
X33066Y6125D02*
X35166D01*
X38566D02*
X39066D01*
X41066D02*
X43166D01*
X33266Y6024D02*
X35666D01*
X40666D02*
X42966D01*
X33466Y5925D02*
X36166D01*
X40166D02*
X42766D01*
X33766Y5824D02*
X36866D01*
X39466D02*
X42466D01*
X33966Y5725D02*
X42166D01*
X34266Y5624D02*
X41866D01*
X34666Y5525D02*
X41566D01*
X34966Y5424D02*
X41266D01*
X35366Y5325D02*
X40866D01*
X35866Y5224D02*
X40366D01*
X36566Y5125D02*
X39666D01*
D14*
X234197Y225221D02*
X240496D01*
X234197Y219709D02*
X240496D01*
X101535Y185142D02*
X158535D01*
X158735D02*
Y236630D01*
X101535Y236717D02*
X158735D01*
X101535Y185142D02*
Y236717D01*
X81520Y314709D02*
X83882D01*
X81520Y318646D02*
X83882D01*
X231362Y119237D02*
Y125536D01*
X225850Y119237D02*
Y125536D01*
X81677Y321048D02*
X84039D01*
X81677Y324985D02*
X84039D01*
X120260Y48253D02*
Y54552D01*
X125772Y48253D02*
Y54552D01*
X291835Y87859D02*
X298134D01*
X291835Y93371D02*
X298134D01*
X146283Y172386D02*
Y174749D01*
X150220Y172386D02*
Y174749D01*
X290732Y237032D02*
X297031D01*
X290732Y231520D02*
X297031D01*
X215338Y85536D02*
X217701D01*
X215338Y81599D02*
X217701D01*
X77386Y68253D02*
X79748D01*
X77386Y72190D02*
X79748D01*
X214512Y87701D02*
X220811D01*
X214512Y93213D02*
X220811D01*
X153094Y72150D02*
X155457D01*
X153094Y68213D02*
X155457D01*
X233606Y206127D02*
X235968D01*
X233606Y202190D02*
X235968D01*
X281165Y138922D02*
Y141284D01*
X277228Y138922D02*
Y141284D01*
X283386Y134134D02*
Y140433D01*
X288898Y134134D02*
Y140433D01*
X244748Y154749D02*
X247110D01*
X244748Y158686D02*
X247110D01*
X77976Y227396D02*
X84276D01*
X77976Y236057D02*
X84276D01*
X149551Y97071D02*
X151913D01*
X149551Y93134D02*
X151913D01*
X148016Y57859D02*
Y60221D01*
X144079Y57859D02*
Y60221D01*
X229236Y293095D02*
Y295457D01*
X233173Y293095D02*
Y295457D01*
X137291Y130330D02*
X143590D01*
X137291Y135842D02*
X143590D01*
X266992Y282701D02*
X269354D01*
X266992Y278764D02*
X269354D01*
X291874Y80339D02*
X298173D01*
X291874Y85851D02*
X298173D01*
X149866Y115575D02*
X156165D01*
X149866Y110064D02*
X156165D01*
X291283Y71008D02*
X293646D01*
X291283Y67071D02*
X293646D01*
X77976Y238370D02*
X84276D01*
X77976Y247031D02*
X84276D01*
X291874Y72898D02*
X298173D01*
X291874Y78410D02*
X298173D01*
X223882Y120812D02*
Y127111D01*
X215220Y120812D02*
Y127111D01*
X136503Y142583D02*
X138865D01*
X136503Y138646D02*
X138865D01*
X244551Y120851D02*
Y123213D01*
X248488Y120851D02*
Y123213D01*
X214512Y95044D02*
X220811D01*
X214512Y100556D02*
X220811D01*
X226362Y294276D02*
Y300575D01*
X220850Y294276D02*
Y300575D01*
X234079Y208528D02*
X240378D01*
X234079Y217190D02*
X240378D01*
X291244Y228764D02*
X297543D01*
X291244Y220103D02*
X297543D01*
X292622Y243804D02*
X294984D01*
X292622Y247741D02*
X294984D01*
X213331Y59158D02*
Y61520D01*
X209394Y59158D02*
Y61520D01*
X268409Y54394D02*
X269984D01*
X268409Y52032D02*
X269984D01*
X268409Y42859D02*
X269984D01*
X268409Y45221D02*
X269984D01*
X101535Y294040D02*
X158535D01*
X158735D02*
Y345527D01*
X101535Y345615D02*
X158735D01*
X101535Y294040D02*
Y345615D01*
X215358Y59158D02*
Y61520D01*
X219295Y59158D02*
Y61520D01*
X193016Y43686D02*
X194590D01*
X193016Y46048D02*
X194590D01*
X77976Y205447D02*
X84276D01*
X77976Y214109D02*
X84276D01*
X193331Y55457D02*
X194905D01*
X193331Y53095D02*
X194905D01*
X70299Y187111D02*
X72661D01*
X70299Y191048D02*
X72661D01*
X77976Y216422D02*
X84276D01*
X77976Y225083D02*
X84276D01*
X149945Y99394D02*
X156244D01*
X149945Y108056D02*
X156244D01*
X214512Y102386D02*
X220811D01*
X214512Y107898D02*
X220811D01*
X225260Y59158D02*
Y61520D01*
X221323Y59158D02*
Y61520D01*
X63724Y180536D02*
X66087D01*
X63724Y184473D02*
X66087D01*
X141913Y57859D02*
Y60221D01*
X137976Y57859D02*
Y60221D01*
X77976Y249344D02*
X84276D01*
X77976Y258006D02*
X84276D01*
X101535Y239827D02*
X158535D01*
X158735D02*
Y291315D01*
X101535Y291402D02*
X158735D01*
X101535Y239827D02*
Y291402D01*
X118055Y52918D02*
Y55280D01*
X114118Y52918D02*
Y55280D01*
X77976Y194473D02*
X84276D01*
X77976Y203134D02*
X84276D01*
X230142Y71796D02*
X232504D01*
X230142Y67859D02*
X232504D01*
X131795Y57859D02*
Y60221D01*
X135732Y57859D02*
Y60221D01*
D15*
X264472Y164994D02*
Y166205D01*
X290161D01*
X264374Y155182D02*
Y156394D01*
X290161Y165193D02*
Y166205D01*
X290260Y155182D02*
Y156293D01*
X262898Y155280D02*
Y166304D01*
X264374Y155182D02*
X290260D01*
X72779Y285427D02*
Y286638D01*
X98468D01*
X72681Y275615D02*
Y276827D01*
X98468Y285627D02*
Y286638D01*
X98567Y275615D02*
Y276727D01*
X71205Y275713D02*
Y286737D01*
X72681Y275615D02*
X98567D01*
X72307Y298773D02*
Y299985D01*
X97996D01*
X72209Y288961D02*
Y290173D01*
X97996Y298973D02*
Y299985D01*
X98094Y288961D02*
Y290073D01*
X70732Y289060D02*
Y300083D01*
X72209Y288961D02*
X98094D01*
X176677Y81726D02*
Y82938D01*
X202366D01*
X176579Y71914D02*
Y73126D01*
X202366Y81926D02*
Y82938D01*
X202465Y71914D02*
Y73026D01*
X175102Y72012D02*
Y83036D01*
X176579Y71914D02*
X202465D01*
X252898Y81726D02*
Y82938D01*
X278587D01*
X252799Y71914D02*
Y73126D01*
X278587Y81926D02*
Y82938D01*
X278685Y71914D02*
Y73026D01*
X251323Y72012D02*
Y83036D01*
X252799Y71914D02*
X278685D01*
X221653Y282150D02*
X242290D01*
X243453Y271127D02*
Y282150D01*
X221653Y281038D02*
Y282150D01*
Y271127D02*
Y272138D01*
X242290Y280938D02*
Y282150D01*
X221653Y271127D02*
X242253D01*
Y272338D01*
X72779Y270308D02*
Y271520D01*
X98468D01*
X72681Y260497D02*
Y261708D01*
X98468Y270509D02*
Y271520D01*
X98567Y260497D02*
Y261609D01*
X71205Y260595D02*
Y271619D01*
X72681Y260497D02*
X98567D01*
X167985Y154394D02*
X169197D01*
Y128705D02*
Y154394D01*
X158173Y154493D02*
X159385D01*
X168185Y128705D02*
X169197D01*
X158173Y128607D02*
X159285D01*
X158272Y155969D02*
X169295D01*
X158173Y128607D02*
Y154493D01*
D16*
X334570Y43600D02*
Y305608D01*
X314590Y43600D02*
Y305608D01*
X334590Y43600D02*
Y305608D01*
X314590D02*
X334590D01*
X314590Y43600D02*
X334590D01*
X334570Y305608D02*
X354727D01*
X334570Y43600D02*
X354727D01*
Y305608D01*
X102795Y72268D02*
Y82504D01*
X334571Y43627D02*
Y305634D01*
X314590Y43627D02*
Y305634D01*
X334590Y43627D02*
Y305634D01*
X314590D02*
X334590D01*
X314590Y43627D02*
X334590D01*
X334571Y305634D02*
X354728D01*
X334571Y43627D02*
X354728D01*
Y305634D01*
X69338Y177481D02*
X75417D01*
X55417D02*
X61497D01*
X69338D01*
X55417Y125004D02*
X75417D01*
Y177481D01*
X55417Y125004D02*
Y177481D01*
X356855Y157346D02*
X356363Y156854D01*
Y155870D01*
X356855Y155378D01*
X358823D01*
X359315Y155870D01*
Y156854D01*
X358823Y157346D01*
X357839D01*
Y156362D01*
X359315Y158330D02*
X356363D01*
X359315Y160298D01*
X356363D01*
Y161282D02*
X359315D01*
Y162758D01*
X358823Y163250D01*
X356855D01*
X356363Y162758D01*
Y161282D01*
X359315Y78469D02*
X356363D01*
X357839Y76993D01*
Y78961D01*
X356363Y81912D02*
X356855Y80928D01*
X357839Y79944D01*
X358823D01*
X359315Y80436D01*
Y81420D01*
X358823Y81912D01*
X358331D01*
X357839Y81420D01*
Y79944D01*
X359315Y108351D02*
X356363D01*
X357839Y106875D01*
Y108843D01*
X356855Y109826D02*
X356363Y110318D01*
Y111302D01*
X356855Y111794D01*
X358823D01*
X359315Y111302D01*
Y110318D01*
X358823Y109826D01*
X356855D01*
X356855Y147190D02*
X356363Y147681D01*
Y148665D01*
X356855Y149157D01*
X357347D01*
X357839Y148665D01*
Y148173D01*
Y148665D01*
X358331Y149157D01*
X358823D01*
X359315Y148665D01*
Y147681D01*
X358823Y147190D01*
X359315Y152109D02*
Y150141D01*
X357347Y152109D01*
X356855D01*
X356363Y151617D01*
Y150633D01*
X356855Y150141D01*
X359315Y189000D02*
Y187032D01*
X357347Y189000D01*
X356855D01*
X356363Y188508D01*
Y187524D01*
X356855Y187032D01*
X359315Y191460D02*
X356363D01*
X357839Y189984D01*
Y191952D01*
X359315Y227386D02*
Y228370D01*
Y227878D01*
X356363D01*
X356855Y227386D01*
X356363Y231814D02*
X356855Y230830D01*
X357839Y229846D01*
X358823D01*
X359315Y230338D01*
Y231322D01*
X358823Y231814D01*
X358331D01*
X357839Y231322D01*
Y229846D01*
X356855Y268567D02*
X356363Y269059D01*
Y270043D01*
X356855Y270535D01*
X357347D01*
X357839Y270043D01*
X358331Y270535D01*
X358823D01*
X359315Y270043D01*
Y269059D01*
X358823Y268567D01*
X358331D01*
X357839Y269059D01*
X357347Y268567D01*
X356855D01*
X357839Y269059D02*
Y270043D01*
D17*
X303212Y160969D02*
X313212D01*
Y130969D02*
Y160969D01*
X303212Y130969D02*
Y160969D01*
Y130969D02*
X313212D01*
X194022Y28650D02*
X193489Y29183D01*
X192423D01*
X191890Y28650D01*
Y26517D01*
X192423Y25984D01*
X193489D01*
X194022Y26517D01*
Y27584D01*
X192956D01*
X195089Y25984D02*
Y29183D01*
X196688D01*
X197221Y28650D01*
Y27584D01*
X196688Y27051D01*
X195089D01*
X198288Y29183D02*
X199354D01*
X198821D01*
Y25984D01*
X198288D01*
X199354D01*
X202553Y29183D02*
X201487D01*
X200954Y28650D01*
Y26517D01*
X201487Y25984D01*
X202553D01*
X203086Y26517D01*
Y28650D01*
X202553Y29183D01*
X77008Y172451D02*
Y170318D01*
X78074Y169252D01*
X79141Y170318D01*
Y172451D01*
X80207Y168719D02*
X82340D01*
X85538Y171918D02*
X85005Y172451D01*
X83939D01*
X83406Y171918D01*
Y169785D01*
X83939Y169252D01*
X85005D01*
X85538Y169785D01*
X86605Y169252D02*
Y172451D01*
X87671Y171385D01*
X88737Y172451D01*
Y169252D01*
X77008Y162766D02*
Y160633D01*
X78074Y159567D01*
X79141Y160633D01*
Y162766D01*
X80207D02*
Y159567D01*
X81806D01*
X82340Y160100D01*
Y160633D01*
X81806Y161166D01*
X80207D01*
X81806D01*
X82340Y161700D01*
Y162233D01*
X81806Y162766D01*
X80207D01*
X83406Y159567D02*
Y161700D01*
X84472Y162766D01*
X85538Y161700D01*
Y159567D01*
Y161166D01*
X83406D01*
X86605Y162766D02*
X88737D01*
X87671D01*
Y159567D01*
X89804Y161166D02*
X91936D01*
X77008Y152412D02*
Y150279D01*
X78074Y149213D01*
X79141Y150279D01*
Y152412D01*
X80207D02*
Y149213D01*
X81806D01*
X82340Y149746D01*
Y150279D01*
X81806Y150812D01*
X80207D01*
X81806D01*
X82340Y151345D01*
Y151878D01*
X81806Y152412D01*
X80207D01*
X83406Y149213D02*
Y151345D01*
X84472Y152412D01*
X85538Y151345D01*
Y149213D01*
Y150812D01*
X83406D01*
X86605Y152412D02*
X88737D01*
X87671D01*
Y149213D01*
X89804Y150812D02*
X91936D01*
X77008Y143317D02*
Y141184D01*
X78074Y140118D01*
X79141Y141184D01*
Y143317D01*
X80207D02*
Y140118D01*
X81806D01*
X82340Y140651D01*
Y141184D01*
X81806Y141718D01*
X80207D01*
X81806D01*
X82340Y142251D01*
Y142784D01*
X81806Y143317D01*
X80207D01*
X83406Y140118D02*
Y142251D01*
X84472Y143317D01*
X85538Y142251D01*
Y140118D01*
Y141718D01*
X83406D01*
X86605Y143317D02*
X88737D01*
X87671D01*
Y140118D01*
X89804Y141718D02*
X91936D01*
X90870Y142784D02*
Y140651D01*
X77008Y130522D02*
Y128389D01*
X78074Y127323D01*
X79141Y128389D01*
Y130522D01*
X80207D02*
Y127323D01*
X81806D01*
X82340Y127856D01*
Y128389D01*
X81806Y128922D01*
X80207D01*
X81806D01*
X82340Y129455D01*
Y129989D01*
X81806Y130522D01*
X80207D01*
X83406Y127323D02*
Y129455D01*
X84472Y130522D01*
X85538Y129455D01*
Y127323D01*
Y128922D01*
X83406D01*
X86605Y130522D02*
X88737D01*
X87671D01*
Y127323D01*
X89804Y128922D02*
X91936D01*
X90870Y129989D02*
Y127856D01*
X252520Y16850D02*
X249321D01*
Y18450D01*
X249854Y18983D01*
X250920D01*
X251453Y18450D01*
Y16850D01*
Y17917D02*
X252520Y18983D01*
X249321Y20049D02*
Y22182D01*
Y21116D01*
X252520D01*
X249321Y23248D02*
X252520D01*
Y24848D01*
X251987Y25381D01*
X249854D01*
X249321Y24848D01*
Y23248D01*
X254163Y16850D02*
X257362D01*
Y18450D01*
X256829Y18983D01*
X256296D01*
X255763Y18450D01*
Y16850D01*
Y18450D01*
X255230Y18983D01*
X254696D01*
X254163Y18450D01*
Y16850D01*
X257362Y20049D02*
X255230D01*
X254163Y21116D01*
X255230Y22182D01*
X257362D01*
X255763D01*
Y20049D01*
X254163Y23248D02*
Y25381D01*
Y24315D01*
X257362D01*
X186447Y16850D02*
Y18983D01*
Y17917D01*
X189646D01*
X186447Y22182D02*
Y20049D01*
X189646D01*
Y22182D01*
X188046Y20049D02*
Y21116D01*
X189646Y23248D02*
X186447D01*
X187513Y24315D01*
X186447Y25381D01*
X189646D01*
Y26447D02*
X186447D01*
Y28047D01*
X186980Y28580D01*
X188046D01*
X188579Y28047D01*
Y26447D01*
X184921Y16850D02*
X181722D01*
Y18450D01*
X182255Y18983D01*
X183322D01*
X183855Y18450D01*
Y16850D01*
Y17917D02*
X184921Y18983D01*
X181722Y20049D02*
Y22182D01*
Y21116D01*
X184921D01*
X181722Y23248D02*
X184921D01*
Y24848D01*
X184388Y25381D01*
X182255D01*
X181722Y24848D01*
Y23248D01*
X258465Y27283D02*
Y30482D01*
X260064D01*
X260597Y29949D01*
Y28883D01*
X260064Y28350D01*
X258465D01*
X259531D02*
X260597Y27283D01*
X261664Y30482D02*
X263796D01*
X262730D01*
Y27283D01*
X264862Y30482D02*
Y27283D01*
X266462D01*
X266995Y27817D01*
Y29949D01*
X266462Y30482D01*
X264862D01*
X270194D02*
X268061D01*
Y28883D01*
X269128Y29416D01*
X269661D01*
X270194Y28883D01*
Y27817D01*
X269661Y27283D01*
X268595D01*
X268061Y27817D01*
X280921Y25630D02*
X277722D01*
Y27229D01*
X278256Y27763D01*
X279322D01*
X279855Y27229D01*
Y25630D01*
Y26696D02*
X280921Y27763D01*
X277722Y28829D02*
Y30961D01*
Y29895D01*
X280921D01*
X277722Y32028D02*
X280921D01*
Y33627D01*
X280388Y34161D01*
X278256D01*
X277722Y33627D01*
Y32028D01*
X280921Y36826D02*
X277722D01*
X279322Y35227D01*
Y37359D01*
X290795Y25630D02*
X287596D01*
Y27229D01*
X288129Y27763D01*
X289196D01*
X289729Y27229D01*
Y25630D01*
Y26696D02*
X290795Y27763D01*
X287596Y28829D02*
Y30961D01*
Y29895D01*
X290795D01*
X287596Y32028D02*
X290795D01*
Y33627D01*
X290262Y34161D01*
X288129D01*
X287596Y33627D01*
Y32028D01*
X290795Y35227D02*
Y36293D01*
Y35760D01*
X287596D01*
X288129Y35227D01*
X300669Y25630D02*
X297470D01*
Y27229D01*
X298004Y27763D01*
X299070D01*
X299603Y27229D01*
Y25630D01*
Y26696D02*
X300669Y27763D01*
X297470Y28829D02*
Y30961D01*
Y29895D01*
X300669D01*
X297470Y32028D02*
X300669D01*
Y33627D01*
X300136Y34161D01*
X298004D01*
X297470Y33627D01*
Y32028D01*
X298004Y35227D02*
X297470Y35760D01*
Y36826D01*
X298004Y37359D01*
X300136D01*
X300669Y36826D01*
Y35760D01*
X300136Y35227D01*
X298004D01*
X233032Y25669D02*
X229833D01*
Y27269D01*
X230366Y27802D01*
X231432D01*
X231965Y27269D01*
Y25669D01*
Y26736D02*
X233032Y27802D01*
X229833Y28868D02*
Y31001D01*
Y29935D01*
X233032D01*
X229833Y32067D02*
X233032D01*
Y33667D01*
X232498Y34200D01*
X230366D01*
X229833Y33667D01*
Y32067D01*
Y37399D02*
X230366Y36332D01*
X231432Y35266D01*
X232498D01*
X233032Y35799D01*
Y36866D01*
X232498Y37399D01*
X231965D01*
X231432Y36866D01*
Y35266D01*
X223158Y25669D02*
X219958D01*
Y27269D01*
X220492Y27802D01*
X221558D01*
X222091Y27269D01*
Y25669D01*
Y26736D02*
X223158Y27802D01*
X219958Y28868D02*
Y31001D01*
Y29935D01*
X223158D01*
X219958Y32067D02*
X223158D01*
Y33667D01*
X222624Y34200D01*
X220492D01*
X219958Y33667D01*
Y32067D01*
X223158Y37399D02*
Y35266D01*
X221025Y37399D01*
X220492D01*
X219958Y36866D01*
Y35799D01*
X220492Y35266D01*
X213283Y25669D02*
X210085D01*
Y27269D01*
X210618Y27802D01*
X211684D01*
X212217Y27269D01*
Y25669D01*
Y26736D02*
X213283Y27802D01*
X210085Y28868D02*
Y31001D01*
Y29935D01*
X213283D01*
X210085Y32067D02*
X213283D01*
Y33667D01*
X212750Y34200D01*
X210618D01*
X210085Y33667D01*
Y32067D01*
X210618Y35266D02*
X210085Y35799D01*
Y36866D01*
X210618Y37399D01*
X211151D01*
X211684Y36866D01*
Y36332D01*
Y36866D01*
X212217Y37399D01*
X212750D01*
X213283Y36866D01*
Y35799D01*
X212750Y35266D01*
X126525Y24528D02*
X128658D01*
X129724Y25594D01*
X128658Y26660D01*
X126525D01*
X127059Y29859D02*
X126525Y29326D01*
Y28260D01*
X127059Y27727D01*
X129191D01*
X129724Y28260D01*
Y29326D01*
X129191Y29859D01*
X127059Y33058D02*
X126525Y32525D01*
Y31459D01*
X127059Y30926D01*
X129191D01*
X129724Y31459D01*
Y32525D01*
X129191Y33058D01*
X152885Y26739D02*
X152352Y26206D01*
Y25139D01*
X152885Y24606D01*
X155018D01*
X155551Y25139D01*
Y26206D01*
X155018Y26739D01*
X153952D01*
Y25673D01*
X155551Y27805D02*
X152352D01*
X155551Y29938D01*
X152352D01*
Y31004D02*
X155551D01*
Y32604D01*
X155018Y33137D01*
X152885D01*
X152352Y32604D01*
Y31004D01*
X149646Y24606D02*
X146447D01*
Y26206D01*
X146980Y26739D01*
X148046D01*
X148579Y26206D01*
Y24606D01*
Y25673D02*
X149646Y26739D01*
X146447Y27805D02*
X149646Y29938D01*
X146447D02*
X149646Y27805D01*
X141407Y24606D02*
Y26739D01*
Y25673D01*
X144606D01*
X141407Y27805D02*
X144606Y29938D01*
X141407D02*
X144606Y27805D01*
X136901Y26739D02*
X136368Y26206D01*
Y25139D01*
X136901Y24606D01*
X139034D01*
X139567Y25139D01*
Y26206D01*
X139034Y26739D01*
X136368Y27805D02*
X139567D01*
X138501D01*
X136368Y29938D01*
X137968Y28338D01*
X139567Y29938D01*
X131447Y24606D02*
X134646D01*
Y26206D01*
X134113Y26739D01*
X131980D01*
X131447Y26206D01*
Y24606D01*
Y29405D02*
Y28338D01*
X131980Y27805D01*
X134113D01*
X134646Y28338D01*
Y29405D01*
X134113Y29938D01*
X131980D01*
X131447Y29405D01*
X161267Y20561D02*
X160200D01*
X160733D01*
Y17895D01*
X160200Y17362D01*
X159667D01*
X159134Y17895D01*
X162333Y20561D02*
X164465D01*
X163399D01*
Y17362D01*
X165532D02*
Y19495D01*
X166598Y20561D01*
X167664Y19495D01*
Y17362D01*
Y18962D01*
X165532D01*
X170863Y20028D02*
X170330Y20561D01*
X169264D01*
X168731Y20028D01*
Y17895D01*
X169264Y17362D01*
X170330D01*
X170863Y17895D01*
Y18962D01*
X169797D01*
X82126Y28976D02*
Y26844D01*
X83192Y25777D01*
X84259Y26844D01*
Y28976D01*
X85325Y27377D02*
X87458D01*
X72559Y28976D02*
Y26844D01*
X73625Y25777D01*
X74692Y26844D01*
Y28976D01*
X75758Y27377D02*
X77891D01*
X76824Y28443D02*
Y26310D01*
X62570Y18539D02*
X62037Y18006D01*
Y16939D01*
X62570Y16406D01*
X64703D01*
X65236Y16939D01*
Y18006D01*
X64703Y18539D01*
X62037Y19605D02*
X65236D01*
X63637D01*
Y21738D01*
X62037D01*
X65236D01*
Y22804D02*
X63104D01*
X62037Y23871D01*
X63104Y24937D01*
X65236D01*
X63637D01*
Y22804D01*
X65236Y26003D02*
X62037D01*
Y27603D01*
X62570Y28136D01*
X63637D01*
X64170Y27603D01*
Y26003D01*
Y27070D02*
X65236Y28136D01*
X62570Y31335D02*
X62037Y30802D01*
Y29735D01*
X62570Y29202D01*
X64703D01*
X65236Y29735D01*
Y30802D01*
X64703Y31335D01*
X63637D01*
Y30268D01*
X62037Y34534D02*
Y32401D01*
X65236D01*
Y34534D01*
X63637Y32401D02*
Y33468D01*
X65236Y35600D02*
X62037D01*
Y37200D01*
X62570Y37733D01*
X63637D01*
X64170Y37200D01*
Y35600D01*
Y36667D02*
X65236Y37733D01*
X25394Y67323D02*
Y70522D01*
X26993D01*
X27526Y69989D01*
Y68922D01*
X26993Y68389D01*
X25394D01*
X26460D02*
X27526Y67323D01*
X28593Y70522D02*
Y67323D01*
X30192D01*
X30725Y67856D01*
Y68389D01*
X30192Y68922D01*
X28593D01*
X30192D01*
X30725Y69455D01*
Y69989D01*
X30192Y70522D01*
X28593D01*
X33924D02*
X31792D01*
Y68922D01*
X32858D01*
X31792D01*
Y67323D01*
X34991Y68922D02*
X37123D01*
X25394Y61457D02*
Y64656D01*
X26993D01*
X27526Y64122D01*
Y63056D01*
X26993Y62523D01*
X25394D01*
X26460D02*
X27526Y61457D01*
X28593Y64656D02*
Y61457D01*
X30192D01*
X30725Y61990D01*
Y62523D01*
X30192Y63056D01*
X28593D01*
X30192D01*
X30725Y63589D01*
Y64122D01*
X30192Y64656D01*
X28593D01*
X33924D02*
X31792D01*
Y63056D01*
X32858D01*
X31792D01*
Y61457D01*
X34991Y63056D02*
X37123D01*
X36057Y64122D02*
Y61990D01*
X25394Y53110D02*
Y56309D01*
X27526Y53110D01*
Y56309D01*
X30725Y55776D02*
X30192Y56309D01*
X29126D01*
X28593Y55776D01*
Y53643D01*
X29126Y53110D01*
X30192D01*
X30725Y53643D01*
X33924Y53110D02*
X31792D01*
X33924Y55243D01*
Y55776D01*
X33391Y56309D01*
X32325D01*
X31792Y55776D01*
X26024Y104961D02*
Y108160D01*
X28156Y104961D01*
Y108160D01*
X31355Y107626D02*
X30822Y108160D01*
X29756D01*
X29223Y107626D01*
Y105494D01*
X29756Y104961D01*
X30822D01*
X31355Y105494D01*
X32422Y104961D02*
X33488D01*
X32955D01*
Y108160D01*
X32422Y107626D01*
X26024Y116299D02*
Y119498D01*
X27623D01*
X28156Y118965D01*
Y117899D01*
X27623Y117366D01*
X26024D01*
X27090D02*
X28156Y116299D01*
X29223Y119498D02*
Y116299D01*
X30822D01*
X31355Y116832D01*
Y117366D01*
X30822Y117899D01*
X29223D01*
X30822D01*
X31355Y118432D01*
Y118965D01*
X30822Y119498D01*
X29223D01*
X34554D02*
X32422D01*
Y117899D01*
X33488D01*
X32422D01*
Y116299D01*
X35620Y117899D02*
X37753D01*
X36687Y118965D02*
Y116832D01*
X26024Y125039D02*
Y128238D01*
X27623D01*
X28156Y127705D01*
Y126639D01*
X27623Y126106D01*
X26024D01*
X27090D02*
X28156Y125039D01*
X29223Y128238D02*
Y125039D01*
X30822D01*
X31355Y125573D01*
Y126106D01*
X30822Y126639D01*
X29223D01*
X30822D01*
X31355Y127172D01*
Y127705D01*
X30822Y128238D01*
X29223D01*
X34554D02*
X32422D01*
Y126639D01*
X33488D01*
X32422D01*
Y125039D01*
X35620Y126639D02*
X37753D01*
X15866Y147728D02*
X17999D01*
X25866D02*
X27999D01*
X20709D02*
X22841D01*
X21775Y148794D02*
Y146662D01*
X30512Y147728D02*
X32645D01*
X31578Y148794D02*
Y146662D01*
X11024Y175366D02*
X13156D01*
X12090Y176432D02*
Y174300D01*
X35315Y175248D02*
X37448D01*
X11024Y200235D02*
X13156D01*
X12090Y201301D02*
Y199168D01*
X35315Y200117D02*
X37448D01*
X11023Y225103D02*
X13156D01*
X12090Y226170D02*
Y224037D01*
X35315Y224985D02*
X37448D01*
X11024Y249972D02*
X13156D01*
X12090Y251039D02*
Y248906D01*
X35315Y249854D02*
X37448D01*
X11024Y274841D02*
X13156D01*
X12090Y275907D02*
Y273775D01*
X35315Y274723D02*
X37448D01*
X35315Y299592D02*
X37448D01*
X11024Y299710D02*
X13156D01*
X12090Y300776D02*
Y298643D01*
X69832Y317559D02*
X73032D01*
X71432D01*
Y319692D01*
X69832D01*
X73032D01*
Y322891D02*
Y320758D01*
X70899Y322891D01*
X70366D01*
X69832Y322358D01*
Y321291D01*
X70366Y320758D01*
X71432Y323957D02*
Y326090D01*
X86732Y329734D02*
Y326535D01*
Y328135D01*
X88865D01*
Y329734D01*
Y326535D01*
X92064D02*
X89931D01*
X92064Y328668D01*
Y329201D01*
X91531Y329734D01*
X90464D01*
X89931Y329201D01*
X93130Y328135D02*
X95263D01*
X94196Y329201D02*
Y327069D01*
X59793Y317559D02*
X62992D01*
X61393D01*
Y319692D01*
X59793D01*
X62992D01*
Y320758D02*
Y321824D01*
Y321291D01*
X59793D01*
X60326Y320758D01*
X61393Y323424D02*
Y325556D01*
X60326Y324490D02*
X62459D01*
X49754Y317559D02*
X52953D01*
X51353D01*
Y319692D01*
X49754D01*
X52953D01*
Y320758D02*
Y321824D01*
Y321291D01*
X49754D01*
X50287Y320758D01*
X51353Y323424D02*
Y325556D01*
X27716Y333947D02*
Y330748D01*
Y332347D01*
X29849D01*
Y333947D01*
Y330748D01*
X33048Y333947D02*
X30915D01*
Y330748D01*
X33048D01*
X30915Y332347D02*
X31982D01*
X34115Y330748D02*
Y332881D01*
X35181Y333947D01*
X36247Y332881D01*
Y330748D01*
Y332347D01*
X34115D01*
X37314Y333947D02*
X39446D01*
X38380D01*
Y330748D01*
X42645Y333947D02*
X40512D01*
Y330748D01*
X42645D01*
X40512Y332347D02*
X41579D01*
X43711Y330748D02*
Y333947D01*
X45311D01*
X45844Y333414D01*
Y332347D01*
X45311Y331814D01*
X43711D01*
X44778D02*
X45844Y330748D01*
X33858Y33543D02*
Y36742D01*
X35458D01*
X35991Y36209D01*
Y35143D01*
X35458Y34610D01*
X33858D01*
X39190Y36209D02*
X38657Y36742D01*
X37590D01*
X37057Y36209D01*
Y34076D01*
X37590Y33543D01*
X38657D01*
X39190Y34076D01*
Y35143D01*
X38124D01*
X40256Y33543D02*
Y36742D01*
X42389Y33543D01*
Y36742D01*
X43455D02*
Y33543D01*
X45055D01*
X45588Y34076D01*
Y36209D01*
X45055Y36742D01*
X43455D01*
X10512Y344055D02*
Y346188D01*
X11578Y347254D01*
X12644Y346188D01*
Y344055D01*
Y345655D01*
X10512D01*
X15843Y346721D02*
X15310Y347254D01*
X14244D01*
X13711Y346721D01*
Y344588D01*
X14244Y344055D01*
X15310D01*
X15843Y344588D01*
Y345655D01*
X14777D01*
X16910Y344055D02*
Y347254D01*
X19042Y344055D01*
Y347254D01*
X20109D02*
Y344055D01*
X21708D01*
X22241Y344588D01*
Y346721D01*
X21708Y347254D01*
X20109D01*
X326677Y329562D02*
Y326363D01*
X328277D01*
X328810Y326896D01*
Y329029D01*
X328277Y329562D01*
X326677D01*
X332009Y329029D02*
X331475Y329562D01*
X330409D01*
X329876Y329029D01*
Y326896D01*
X330409Y326363D01*
X331475D01*
X332009Y326896D01*
Y327962D01*
X330942D01*
X333075Y326363D02*
Y329562D01*
X335208Y326363D01*
Y329562D01*
X336274D02*
Y326363D01*
X337874D01*
X338407Y326896D01*
Y329029D01*
X337874Y329562D01*
X336274D01*
X315472Y314566D02*
Y311614D01*
Y313090D01*
X317440D01*
Y314566D01*
Y311614D01*
X318424D02*
X319408D01*
X318916D01*
Y314566D01*
X318424Y314074D01*
X335748Y315078D02*
Y312126D01*
Y313602D01*
X337716D01*
Y315078D01*
Y312126D01*
X340668D02*
X338700D01*
X340668Y314094D01*
Y314586D01*
X340176Y315078D01*
X339192D01*
X338700Y314586D01*
X298533Y152284D02*
Y154416D01*
Y153350D01*
X301732D01*
X298533Y155482D02*
X301732Y157615D01*
X298533D02*
X301732Y155482D01*
Y142441D02*
X298533D01*
Y144040D01*
X299066Y144574D01*
X300133D01*
X300666Y144040D01*
Y142441D01*
Y143507D02*
X301732Y144574D01*
X298533Y145640D02*
X301732Y147773D01*
X298533D02*
X301732Y145640D01*
X300630Y129459D02*
Y126260D01*
X302229D01*
X302763Y126793D01*
Y128926D01*
X302229Y129459D01*
X300630D01*
X305961Y128926D02*
X305428Y129459D01*
X304362D01*
X303829Y128926D01*
Y126793D01*
X304362Y126260D01*
X305428D01*
X305961Y126793D01*
Y127859D01*
X304895D01*
X307028Y126260D02*
Y129459D01*
X309160Y126260D01*
Y129459D01*
X310227D02*
Y126260D01*
X311826D01*
X312359Y126793D01*
Y128926D01*
X311826Y129459D01*
X310227D01*
X56880Y16406D02*
X60079D01*
Y18006D01*
X59546Y18539D01*
X59012D01*
X58479Y18006D01*
Y16406D01*
Y18006D01*
X57946Y18539D01*
X57413D01*
X56880Y18006D01*
Y16406D01*
X60079Y19605D02*
X57946D01*
X56880Y20672D01*
X57946Y21738D01*
X60079D01*
X58479D01*
Y19605D01*
X56880Y22804D02*
Y24937D01*
Y23871D01*
X60079D01*
X56880Y26003D02*
Y28136D01*
Y27070D01*
X60079D01*
X56880Y31335D02*
Y29202D01*
X60079D01*
Y31335D01*
X58479Y29202D02*
Y30268D01*
X60079Y32401D02*
X56880D01*
Y34001D01*
X57413Y34534D01*
X58479D01*
X59012Y34001D01*
Y32401D01*
Y33468D02*
X60079Y34534D01*
X56880Y35600D02*
X57413D01*
X58479Y36667D01*
X57413Y37733D01*
X56880D01*
X58479Y36667D02*
X60079D01*
X311260Y41810D02*
Y38858D01*
Y40334D01*
X313228D01*
Y41810D01*
Y38858D01*
X314212D02*
X315196D01*
X314704D01*
Y41810D01*
X314212Y41318D01*
X340905Y41889D02*
Y38937D01*
Y40413D01*
X342873D01*
Y41889D01*
Y38937D01*
X345825D02*
X343857D01*
X345825Y40905D01*
Y41397D01*
X345333Y41889D01*
X344349D01*
X343857Y41397D01*
X328505Y39212D02*
Y37244D01*
X329981D01*
X329489Y38228D01*
Y38720D01*
X329981Y39212D01*
X330965D01*
X331457Y38720D01*
Y37736D01*
X330965Y37244D01*
X331457Y42164D02*
Y40196D01*
X329489Y42164D01*
X328997D01*
X328505Y41672D01*
Y40688D01*
X328997Y40196D01*
X318151Y40039D02*
Y38071D01*
X319626D01*
X319134Y39055D01*
Y39547D01*
X319626Y40039D01*
X320610D01*
X321102Y39547D01*
Y38563D01*
X320610Y38071D01*
X321102Y41023D02*
Y42007D01*
Y41515D01*
X318151D01*
X318642Y41023D01*
X335434Y40039D02*
Y38071D01*
X336910D01*
X336418Y39055D01*
Y39547D01*
X336910Y40039D01*
X337894D01*
X338386Y39547D01*
Y38563D01*
X337894Y38071D01*
X338386Y41023D02*
Y42007D01*
Y41515D01*
X335434D01*
X335926Y41023D01*
X356954Y48213D02*
Y46245D01*
X358430D01*
X357938Y47229D01*
Y47721D01*
X358430Y48213D01*
X359414D01*
X359905Y47721D01*
Y46737D01*
X359414Y46245D01*
X359905Y51164D02*
Y49196D01*
X357938Y51164D01*
X357446D01*
X356954Y50672D01*
Y49689D01*
X357446Y49196D01*
X321461Y308981D02*
Y309965D01*
Y309473D01*
X318509D01*
X319001Y308981D01*
X331697Y310358D02*
Y308390D01*
X329729Y310358D01*
X329237D01*
X328745Y309866D01*
Y308882D01*
X329237Y308390D01*
X351480Y310358D02*
Y308390D01*
X349512Y310358D01*
X349020D01*
X348528Y309866D01*
Y308882D01*
X349020Y308390D01*
X341342Y308489D02*
Y309473D01*
Y308981D01*
X338391D01*
X338883Y308489D01*
X69685Y115758D02*
Y113625D01*
X70751Y112559D01*
X71818Y113625D01*
Y115758D01*
X72884D02*
Y112559D01*
X74484D01*
X75017Y113092D01*
Y113625D01*
X74484Y114158D01*
X72884D01*
X74484D01*
X75017Y114692D01*
Y115225D01*
X74484Y115758D01*
X72884D01*
X76083Y114692D02*
Y113092D01*
X76616Y112559D01*
X78216D01*
Y114692D01*
X79282Y112559D02*
X80881D01*
X81415Y113092D01*
X80881Y113625D01*
X79815D01*
X79282Y114158D01*
X79815Y114692D01*
X81415D01*
X82481Y112026D02*
X84614D01*
X85680Y115758D02*
X87813D01*
X86746D01*
Y112559D01*
X88879D02*
Y115758D01*
X90478D01*
X91012Y115225D01*
Y114158D01*
X90478Y113625D01*
X88879D01*
X240472Y71978D02*
Y69313D01*
X241006Y68779D01*
X242072D01*
X242605Y69313D01*
Y71978D01*
X243671Y68779D02*
X244738D01*
X244205D01*
Y71978D01*
X243671Y71445D01*
X247937Y68779D02*
Y71978D01*
X246337Y70379D01*
X248470D01*
X323471Y34262D02*
X321339D01*
Y32662D01*
X322405Y33196D01*
X322938D01*
X323471Y32662D01*
Y31596D01*
X322938Y31063D01*
X321872D01*
X321339Y31596D01*
X324538Y34262D02*
Y32129D01*
X325604Y31063D01*
X326670Y32129D01*
Y34262D01*
X327736Y30530D02*
X329869D01*
X330936Y34262D02*
X333068D01*
X332002D01*
Y31063D01*
X336267Y33729D02*
X335734Y34262D01*
X334668D01*
X334135Y33729D01*
Y31596D01*
X334668Y31063D01*
X335734D01*
X336267Y31596D01*
X339466Y33729D02*
X338933Y34262D01*
X337867D01*
X337333Y33729D01*
Y31596D01*
X337867Y31063D01*
X338933D01*
X339466Y31596D01*
X166339Y328371D02*
X168471D01*
X169538Y329971D02*
Y326772D01*
X171670D01*
X172737Y329437D02*
X173270Y329971D01*
X174336D01*
X174869Y329437D01*
Y328904D01*
X174336Y328371D01*
X173803D01*
X174336D01*
X174869Y327838D01*
Y327305D01*
X174336Y326772D01*
X173270D01*
X172737Y327305D01*
X14055Y323686D02*
X16188D01*
X15121Y324752D02*
Y322620D01*
X17254Y325286D02*
Y322087D01*
X19387D01*
X22586D02*
X20453D01*
X22586Y324219D01*
Y324752D01*
X22052Y325286D01*
X20986D01*
X20453Y324752D01*
X74764Y305482D02*
Y303350D01*
X75830Y302284D01*
X76896Y303350D01*
Y305482D01*
X77963Y301217D02*
Y304416D01*
X79562D01*
X80095Y303883D01*
Y302817D01*
X79562Y302284D01*
X77963D01*
X81695Y304416D02*
X82761D01*
X83294Y303883D01*
Y302284D01*
X81695D01*
X81162Y302817D01*
X81695Y303350D01*
X83294D01*
X84361Y302284D02*
Y304416D01*
X85960D01*
X86493Y303883D01*
Y302284D01*
X89159D02*
X88093D01*
X87560Y302817D01*
Y303883D01*
X88093Y304416D01*
X89159D01*
X89692Y303883D01*
Y303350D01*
X87560D01*
X90759Y302284D02*
X91825D01*
X91292D01*
Y305482D01*
X90759D01*
X93424Y302284D02*
X95024D01*
X95557Y302817D01*
X95024Y303350D01*
X93958D01*
X93424Y303883D01*
X93958Y304416D01*
X95557D01*
X30591Y41260D02*
Y44459D01*
X32190D01*
X32723Y43926D01*
Y42859D01*
X32190Y42326D01*
X30591D01*
X31657D02*
X32723Y41260D01*
X33790Y43926D02*
X34323Y44459D01*
X35389D01*
X35922Y43926D01*
Y43393D01*
X35389Y42859D01*
X35922Y42326D01*
Y41793D01*
X35389Y41260D01*
X34323D01*
X33790Y41793D01*
Y42326D01*
X34323Y42859D01*
X33790Y43393D01*
Y43926D01*
X34323Y42859D02*
X35389D01*
X39121Y44459D02*
X36988D01*
Y42859D01*
X38055Y43393D01*
X38588D01*
X39121Y42859D01*
Y41793D01*
X38588Y41260D01*
X37522D01*
X36988Y41793D01*
X61929Y254792D02*
X61396Y255325D01*
X60330D01*
X59797Y254792D01*
Y252659D01*
X60330Y252126D01*
X61396D01*
X61929Y252659D01*
X62995Y252126D02*
X64062D01*
X63529D01*
Y255325D01*
X62995Y254792D01*
X65661Y252126D02*
X66728D01*
X66194D01*
Y255325D01*
X65661Y254792D01*
X68327D02*
X68860Y255325D01*
X69927D01*
X70460Y254792D01*
Y254259D01*
X69927Y253726D01*
X70460Y253192D01*
Y252659D01*
X69927Y252126D01*
X68860D01*
X68327Y252659D01*
Y253192D01*
X68860Y253726D01*
X68327Y254259D01*
Y254792D01*
X68860Y253726D02*
X69927D01*
X61929Y243886D02*
X61396Y244419D01*
X60330D01*
X59797Y243886D01*
Y241754D01*
X60330Y241220D01*
X61396D01*
X61929Y241754D01*
X62995Y241220D02*
X64062D01*
X63529D01*
Y244419D01*
X62995Y243886D01*
X65661Y241220D02*
X66728D01*
X66194D01*
Y244419D01*
X65661Y243886D01*
X68327Y244419D02*
X70460D01*
Y243886D01*
X68327Y241754D01*
Y241220D01*
X87307Y71767D02*
Y69101D01*
X87840Y68568D01*
X88907D01*
X89440Y69101D01*
Y71767D01*
X90506Y68568D02*
X91572D01*
X91039D01*
Y71767D01*
X90506Y71233D01*
X93172D02*
X93705Y71767D01*
X94771D01*
X95304Y71233D01*
Y69101D01*
X94771Y68568D01*
X93705D01*
X93172Y69101D01*
Y71233D01*
X143449Y164640D02*
Y161975D01*
X143982Y161442D01*
X145048D01*
X145581Y161975D01*
Y164640D01*
X146648Y161975D02*
X147181Y161442D01*
X148247D01*
X148780Y161975D01*
Y164107D01*
X148247Y164640D01*
X147181D01*
X146648Y164107D01*
Y163574D01*
X147181Y163041D01*
X148780D01*
X265850Y128814D02*
Y126148D01*
X266384Y125615D01*
X267450D01*
X267983Y126148D01*
Y128814D01*
X270649Y125615D02*
Y128814D01*
X269049Y127214D01*
X271182D01*
X252244Y282333D02*
Y279667D01*
X252777Y279134D01*
X253844D01*
X254377Y279667D01*
Y282333D01*
X255443Y281800D02*
X255976Y282333D01*
X257043D01*
X257576Y281800D01*
Y281266D01*
X257043Y280733D01*
X256509D01*
X257043D01*
X257576Y280200D01*
Y279667D01*
X257043Y279134D01*
X255976D01*
X255443Y279667D01*
X164512Y72318D02*
Y69652D01*
X165045Y69119D01*
X166111D01*
X166644Y69652D01*
Y72318D01*
X169843Y69119D02*
X167711D01*
X169843Y71251D01*
Y71785D01*
X169310Y72318D01*
X168244D01*
X167711Y71785D01*
X103803Y32465D02*
Y35664D01*
X105403D01*
X105936Y35131D01*
Y34065D01*
X105403Y33531D01*
X103803D01*
X104869D02*
X105936Y32465D01*
X109135Y35664D02*
X107002D01*
Y34065D01*
X108068Y34598D01*
X108601D01*
X109135Y34065D01*
Y32998D01*
X108601Y32465D01*
X107535D01*
X107002Y32998D01*
X110201D02*
X110734Y32465D01*
X111801D01*
X112334Y32998D01*
Y35131D01*
X111801Y35664D01*
X110734D01*
X110201Y35131D01*
Y34598D01*
X110734Y34065D01*
X112334D01*
X74039Y39434D02*
Y42633D01*
X75639D01*
X76172Y42099D01*
Y41033D01*
X75639Y40500D01*
X74039D01*
X75106D02*
X76172Y39434D01*
X79371Y42633D02*
X77238D01*
Y41033D01*
X78305Y41566D01*
X78838D01*
X79371Y41033D01*
Y39967D01*
X78838Y39434D01*
X77771D01*
X77238Y39967D01*
X80437Y42633D02*
X82570D01*
Y42099D01*
X80437Y39967D01*
Y39434D01*
X121535Y34528D02*
Y37727D01*
X123135D01*
X123668Y37193D01*
Y36127D01*
X123135Y35594D01*
X121535D01*
X122602D02*
X123668Y34528D01*
X126867Y37727D02*
X124734D01*
Y36127D01*
X125801Y36660D01*
X126334D01*
X126867Y36127D01*
Y35061D01*
X126334Y34528D01*
X125268D01*
X124734Y35061D01*
X130066Y37727D02*
X129000Y37193D01*
X127933Y36127D01*
Y35061D01*
X128466Y34528D01*
X129533D01*
X130066Y35061D01*
Y35594D01*
X129533Y36127D01*
X127933D01*
X131428Y89225D02*
Y92424D01*
X133028D01*
X133561Y91891D01*
Y90825D01*
X133028Y90291D01*
X131428D01*
X132494D02*
X133561Y89225D01*
X136760Y92424D02*
X134627D01*
Y90825D01*
X135693Y91358D01*
X136226D01*
X136760Y90825D01*
Y89758D01*
X136226Y89225D01*
X135160D01*
X134627Y89758D01*
X139959Y92424D02*
X137826D01*
Y90825D01*
X138892Y91358D01*
X139426D01*
X139959Y90825D01*
Y89758D01*
X139426Y89225D01*
X138359D01*
X137826Y89758D01*
X99748Y166520D02*
Y169719D01*
X101347D01*
X101881Y169186D01*
Y168120D01*
X101347Y167587D01*
X99748D01*
X100814D02*
X101881Y166520D01*
X105080Y169719D02*
X102947D01*
Y168120D01*
X104013Y168653D01*
X104546D01*
X105080Y168120D01*
Y167053D01*
X104546Y166520D01*
X103480D01*
X102947Y167053D01*
X107745Y166520D02*
Y169719D01*
X106146Y168120D01*
X108279D01*
X99748Y177780D02*
Y180979D01*
X101347D01*
X101881Y180446D01*
Y179380D01*
X101347Y178847D01*
X99748D01*
X100814D02*
X101881Y177780D01*
X105080Y180979D02*
X102947D01*
Y179380D01*
X104013Y179913D01*
X104546D01*
X105080Y179380D01*
Y178313D01*
X104546Y177780D01*
X103480D01*
X102947Y178313D01*
X108279Y177780D02*
X106146D01*
X108279Y179913D01*
Y180446D01*
X107745Y180979D01*
X106679D01*
X106146Y180446D01*
X120024Y122977D02*
Y126176D01*
X121623D01*
X122156Y125643D01*
Y124576D01*
X121623Y124043D01*
X120024D01*
X121090D02*
X122156Y122977D01*
X125355Y126176D02*
X123222D01*
Y124576D01*
X124289Y125110D01*
X124822D01*
X125355Y124576D01*
Y123510D01*
X124822Y122977D01*
X123756D01*
X123222Y123510D01*
X126421Y125643D02*
X126955Y126176D01*
X128021D01*
X128554Y125643D01*
Y123510D01*
X128021Y122977D01*
X126955D01*
X126421Y123510D01*
Y125643D01*
X285315Y323268D02*
Y326467D01*
X286914D01*
X287448Y325934D01*
Y324867D01*
X286914Y324334D01*
X285315D01*
X286381D02*
X287448Y323268D01*
X290647D02*
X288514D01*
X290647Y325400D01*
Y325934D01*
X290113Y326467D01*
X289047D01*
X288514Y325934D01*
X293846Y326467D02*
X292779Y325934D01*
X291713Y324867D01*
Y323801D01*
X292246Y323268D01*
X293312D01*
X293846Y323801D01*
Y324334D01*
X293312Y324867D01*
X291713D01*
X285591Y343937D02*
Y347136D01*
X287190D01*
X287723Y346603D01*
Y345536D01*
X287190Y345003D01*
X285591D01*
X286657D02*
X287723Y343937D01*
X290922D02*
X288790D01*
X290922Y346070D01*
Y346603D01*
X290389Y347136D01*
X289323D01*
X288790Y346603D01*
X294121Y347136D02*
X291988D01*
Y345536D01*
X293055Y346070D01*
X293588D01*
X294121Y345536D01*
Y344470D01*
X293588Y343937D01*
X292522D01*
X291988Y344470D01*
X224095Y152756D02*
X220896D01*
Y154355D01*
X221429Y154889D01*
X222495D01*
X223028Y154355D01*
Y152756D01*
Y153822D02*
X224095Y154889D01*
Y158088D02*
Y155955D01*
X221962Y158088D01*
X221429D01*
X220896Y157554D01*
Y156488D01*
X221429Y155955D01*
X224095Y160753D02*
X220896D01*
X222495Y159154D01*
Y161286D01*
X237480Y136102D02*
X234281D01*
Y137702D01*
X234815Y138235D01*
X235881D01*
X236414Y137702D01*
Y136102D01*
Y137169D02*
X237480Y138235D01*
Y141434D02*
Y139301D01*
X235348Y141434D01*
X234815D01*
X234281Y140901D01*
Y139834D01*
X234815Y139301D01*
X237480Y144633D02*
Y142500D01*
X235348Y144633D01*
X234815D01*
X234281Y144100D01*
Y143034D01*
X234815Y142500D01*
X297087Y253386D02*
X293888D01*
Y254985D01*
X294421Y255519D01*
X295487D01*
X296020Y254985D01*
Y253386D01*
Y254452D02*
X297087Y255519D01*
Y258717D02*
Y256585D01*
X294954Y258717D01*
X294421D01*
X293888Y258184D01*
Y257118D01*
X294421Y256585D01*
X297087Y259784D02*
Y260850D01*
Y260317D01*
X293888D01*
X294421Y259784D01*
X292480Y124764D02*
X295679D01*
Y123164D01*
X295146Y122631D01*
X294080D01*
X293547Y123164D01*
Y124764D01*
Y123697D02*
X292480Y122631D01*
Y119432D02*
Y121565D01*
X294613Y119432D01*
X295146D01*
X295679Y119965D01*
Y121032D01*
X295146Y121565D01*
Y118366D02*
X295679Y117833D01*
Y116766D01*
X295146Y116233D01*
X293014D01*
X292480Y116766D01*
Y117833D01*
X293014Y118366D01*
X295146D01*
X298031Y289291D02*
X294832D01*
Y290891D01*
X295366Y291424D01*
X296432D01*
X296965Y290891D01*
Y289291D01*
Y290358D02*
X298031Y291424D01*
Y292490D02*
Y293557D01*
Y293023D01*
X294832D01*
X295366Y292490D01*
X297498Y295156D02*
X298031Y295689D01*
Y296756D01*
X297498Y297289D01*
X295366D01*
X294832Y296756D01*
Y295689D01*
X295366Y295156D01*
X295899D01*
X296432Y295689D01*
Y297289D01*
X297677Y273543D02*
X294478D01*
Y275143D01*
X295011Y275676D01*
X296078D01*
X296611Y275143D01*
Y273543D01*
Y274610D02*
X297677Y275676D01*
Y276742D02*
Y277809D01*
Y277275D01*
X294478D01*
X295011Y276742D01*
X294478Y279408D02*
Y281541D01*
X295011D01*
X297144Y279408D01*
X297677D01*
X239030Y188937D02*
Y192136D01*
X240629D01*
X241162Y191603D01*
Y190536D01*
X240629Y190003D01*
X239030D01*
X240096D02*
X241162Y188937D01*
X242229D02*
X243295D01*
X242762D01*
Y192136D01*
X242229Y191603D01*
X247027Y192136D02*
X245961Y191603D01*
X244895Y190536D01*
Y189470D01*
X245428Y188937D01*
X246494D01*
X247027Y189470D01*
Y190003D01*
X246494Y190536D01*
X244895D01*
X208465Y295315D02*
X205266D01*
Y296914D01*
X205799Y297448D01*
X206865D01*
X207398Y296914D01*
Y295315D01*
Y296381D02*
X208465Y297448D01*
Y298514D02*
Y299580D01*
Y299047D01*
X205266D01*
X205799Y298514D01*
X205266Y303312D02*
Y301180D01*
X206865D01*
X206332Y302246D01*
Y302779D01*
X206865Y303312D01*
X207931D01*
X208465Y302779D01*
Y301713D01*
X207931Y301180D01*
X158622Y34961D02*
Y38160D01*
X160222D01*
X160755Y37626D01*
Y36560D01*
X160222Y36027D01*
X158622D01*
X159688D02*
X160755Y34961D01*
X161821D02*
X162887D01*
X162354D01*
Y38160D01*
X161821Y37626D01*
X166086Y34961D02*
Y38160D01*
X164487Y36560D01*
X166620D01*
X175118Y38386D02*
Y41585D01*
X176718D01*
X177251Y41052D01*
Y39985D01*
X176718Y39452D01*
X175118D01*
X176184D02*
X177251Y38386D01*
X178317D02*
X179383D01*
X178850D01*
Y41585D01*
X178317Y41052D01*
X180983D02*
X181516Y41585D01*
X182582D01*
X183115Y41052D01*
Y40519D01*
X182582Y39985D01*
X182049D01*
X182582D01*
X183115Y39452D01*
Y38919D01*
X182582Y38386D01*
X181516D01*
X180983Y38919D01*
X189945Y58410D02*
Y61609D01*
X191544D01*
X192077Y61076D01*
Y60009D01*
X191544Y59476D01*
X189945D01*
X191011D02*
X192077Y58410D01*
X193144D02*
X194210D01*
X193677D01*
Y61609D01*
X193144Y61076D01*
X197942Y58410D02*
X195810D01*
X197942Y60543D01*
Y61076D01*
X197409Y61609D01*
X196343D01*
X195810Y61076D01*
X189488Y38386D02*
Y41585D01*
X191088D01*
X191621Y41052D01*
Y39985D01*
X191088Y39452D01*
X189488D01*
X190554D02*
X191621Y38386D01*
X192687D02*
X193754D01*
X193220D01*
Y41585D01*
X192687Y41052D01*
X195353Y38386D02*
X196419D01*
X195886D01*
Y41585D01*
X195353Y41052D01*
X229449Y81968D02*
Y85167D01*
X231048D01*
X231581Y84634D01*
Y83568D01*
X231048Y83035D01*
X229449D01*
X230515D02*
X231581Y81968D01*
X232648D02*
X233714D01*
X233181D01*
Y85167D01*
X232648Y84634D01*
X235314D02*
X235847Y85167D01*
X236913D01*
X237446Y84634D01*
Y82502D01*
X236913Y81968D01*
X235847D01*
X235314Y82502D01*
Y84634D01*
X152992Y42992D02*
Y46191D01*
X154592D01*
X155125Y45658D01*
Y44592D01*
X154592Y44058D01*
X152992D01*
X154058D02*
X155125Y42992D01*
X156191Y43525D02*
X156724Y42992D01*
X157791D01*
X158324Y43525D01*
Y45658D01*
X157791Y46191D01*
X156724D01*
X156191Y45658D01*
Y45125D01*
X156724Y44592D01*
X158324D01*
X237441Y35709D02*
Y38908D01*
X239040D01*
X239574Y38375D01*
Y37308D01*
X239040Y36775D01*
X237441D01*
X238507D02*
X239574Y35709D01*
X240640Y38908D02*
X242773D01*
Y38375D01*
X240640Y36242D01*
Y35709D01*
X246260Y28189D02*
Y31388D01*
X247859D01*
X248393Y30855D01*
Y29789D01*
X247859Y29255D01*
X246260D01*
X247326D02*
X248393Y28189D01*
X251591Y31388D02*
X250525Y30855D01*
X249459Y29789D01*
Y28722D01*
X249992Y28189D01*
X251058D01*
X251591Y28722D01*
Y29255D01*
X251058Y29789D01*
X249459D01*
X268150Y61063D02*
Y64262D01*
X269749D01*
X270282Y63729D01*
Y62663D01*
X269749Y62129D01*
X268150D01*
X269216D02*
X270282Y61063D01*
X273481Y64262D02*
X271349D01*
Y62663D01*
X272415Y63196D01*
X272948D01*
X273481Y62663D01*
Y61596D01*
X272948Y61063D01*
X271882D01*
X271349Y61596D01*
X257913Y40394D02*
Y43593D01*
X259513D01*
X260046Y43060D01*
Y41993D01*
X259513Y41460D01*
X257913D01*
X258980D02*
X260046Y40394D01*
X262712D02*
Y43593D01*
X261112Y41993D01*
X263245D01*
X299331Y46378D02*
Y49577D01*
X300930D01*
X301463Y49044D01*
Y47977D01*
X300930Y47444D01*
X299331D01*
X300397D02*
X301463Y46378D01*
X302530Y49044D02*
X303063Y49577D01*
X304129D01*
X304662Y49044D01*
Y48511D01*
X304129Y47977D01*
X303596D01*
X304129D01*
X304662Y47444D01*
Y46911D01*
X304129Y46378D01*
X303063D01*
X302530Y46911D01*
X206968Y40394D02*
X203769D01*
Y41993D01*
X204303Y42526D01*
X205369D01*
X205902Y41993D01*
Y40394D01*
Y41460D02*
X206968Y42526D01*
Y45725D02*
Y43593D01*
X204836Y45725D01*
X204303D01*
X203769Y45192D01*
Y44126D01*
X204303Y43593D01*
X190952Y293132D02*
Y295264D01*
X190418Y295797D01*
X189352D01*
X188819Y295264D01*
Y293132D01*
X189352Y292598D01*
X190418D01*
X189885Y293665D02*
X190952Y292598D01*
X190418D02*
X190952Y293132D01*
X192018Y292598D02*
X193084D01*
X192551D01*
Y295797D01*
X192018Y295264D01*
X194684D02*
X195217Y295797D01*
X196283D01*
X196816Y295264D01*
Y293132D01*
X196283Y292598D01*
X195217D01*
X194684Y293132D01*
Y295264D01*
X191290Y242014D02*
Y244147D01*
X190757Y244680D01*
X189691D01*
X189157Y244147D01*
Y242014D01*
X189691Y241481D01*
X190757D01*
X190224Y242547D02*
X191290Y241481D01*
X190757D02*
X191290Y242014D01*
X192356D02*
X192889Y241481D01*
X193956D01*
X194489Y242014D01*
Y244147D01*
X193956Y244680D01*
X192889D01*
X192356Y244147D01*
Y243614D01*
X192889Y243080D01*
X194489D01*
X167510Y214652D02*
Y216785D01*
X166977Y217318D01*
X165911D01*
X165378Y216785D01*
Y214652D01*
X165911Y214119D01*
X166977D01*
X166444Y215185D02*
X167510Y214119D01*
X166977D02*
X167510Y214652D01*
X168577Y216785D02*
X169110Y217318D01*
X170176D01*
X170710Y216785D01*
Y216251D01*
X170176Y215718D01*
X170710Y215185D01*
Y214652D01*
X170176Y214119D01*
X169110D01*
X168577Y214652D01*
Y215185D01*
X169110Y215718D01*
X168577Y216251D01*
Y216785D01*
X169110Y215718D02*
X170176D01*
X60322Y61124D02*
Y63256D01*
X59789Y63789D01*
X58722D01*
X58189Y63256D01*
Y61124D01*
X58722Y60590D01*
X59789D01*
X59255Y61657D02*
X60322Y60590D01*
X59789D02*
X60322Y61124D01*
X62987Y60590D02*
Y63789D01*
X61388Y62190D01*
X63521D01*
X60203Y108210D02*
Y110343D01*
X59670Y110876D01*
X58604D01*
X58071Y110343D01*
Y108210D01*
X58604Y107677D01*
X59670D01*
X59137Y108744D02*
X60203Y107677D01*
X59670D02*
X60203Y108210D01*
X61270Y110343D02*
X61803Y110876D01*
X62869D01*
X63402Y110343D01*
Y109810D01*
X62869Y109277D01*
X62336D01*
X62869D01*
X63402Y108744D01*
Y108210D01*
X62869Y107677D01*
X61803D01*
X61270Y108210D01*
X279849Y317108D02*
Y319241D01*
X279316Y319774D01*
X278250D01*
X277716Y319241D01*
Y317108D01*
X278250Y316575D01*
X279316D01*
X278783Y317641D02*
X279849Y316575D01*
X279316D02*
X279849Y317108D01*
X283048Y316575D02*
X280915D01*
X283048Y318707D01*
Y319241D01*
X282515Y319774D01*
X281449D01*
X280915Y319241D01*
X221542Y342738D02*
Y344870D01*
X221009Y345404D01*
X219943D01*
X219409Y344870D01*
Y342738D01*
X219943Y342205D01*
X221009D01*
X220476Y343271D02*
X221542Y342205D01*
X221009D02*
X221542Y342738D01*
X222608Y342205D02*
X223675D01*
X223142D01*
Y345404D01*
X222608Y344870D01*
X301142Y166191D02*
Y163525D01*
X301675Y162992D01*
X302741D01*
X303274Y163525D01*
Y166191D01*
X304341Y162992D02*
Y165125D01*
X305407Y166191D01*
X306473Y165125D01*
Y162992D01*
Y164592D01*
X304341D01*
X307540Y162992D02*
Y166191D01*
X309139D01*
X309672Y165658D01*
Y164592D01*
X309139Y164058D01*
X307540D01*
X308606D02*
X309672Y162992D01*
X310739Y166191D02*
X312871D01*
X311805D01*
Y162992D01*
X19770Y84201D02*
X19237Y84734D01*
X18171D01*
X17638Y84201D01*
Y83668D01*
X18171Y83135D01*
X19237D01*
X19770Y82602D01*
Y82069D01*
X19237Y81535D01*
X18171D01*
X17638Y82069D01*
X20837Y84734D02*
Y81535D01*
X21903Y82602D01*
X22969Y81535D01*
Y84734D01*
X26168Y81535D02*
X24036D01*
X26168Y83668D01*
Y84201D01*
X25635Y84734D01*
X24569D01*
X24036Y84201D01*
X20203Y139241D02*
X19670Y139774D01*
X18604D01*
X18071Y139241D01*
Y138707D01*
X18604Y138174D01*
X19670D01*
X20203Y137641D01*
Y137108D01*
X19670Y136575D01*
X18604D01*
X18071Y137108D01*
X21270Y139774D02*
Y136575D01*
X22336Y137641D01*
X23403Y136575D01*
Y139774D01*
X24469Y136575D02*
X25535D01*
X25002D01*
Y139774D01*
X24469Y139241D01*
X160906Y345325D02*
Y342126D01*
X163038D01*
X164104Y342659D02*
X164638Y342126D01*
X165704D01*
X166237Y342659D01*
Y344792D01*
X165704Y345325D01*
X164638D01*
X164104Y344792D01*
Y344259D01*
X164638Y343725D01*
X166237D01*
X161299Y291112D02*
Y287913D01*
X163432D01*
X164498Y290579D02*
X165031Y291112D01*
X166098D01*
X166631Y290579D01*
Y290046D01*
X166098Y289513D01*
X166631Y288980D01*
Y288446D01*
X166098Y287913D01*
X165031D01*
X164498Y288446D01*
Y288980D01*
X165031Y289513D01*
X164498Y290046D01*
Y290579D01*
X165031Y289513D02*
X166098D01*
X161732Y189892D02*
Y186693D01*
X163865D01*
X164931Y189892D02*
X167064D01*
Y189359D01*
X164931Y187226D01*
Y186693D01*
X101165Y124719D02*
Y121520D01*
X103298D01*
X106497Y124719D02*
X105431Y124186D01*
X104364Y123120D01*
Y122053D01*
X104897Y121520D01*
X105964D01*
X106497Y122053D01*
Y122587D01*
X105964Y123120D01*
X104364D01*
X172189Y168223D02*
Y165024D01*
X174321D01*
X177521Y168223D02*
X175388D01*
Y166624D01*
X176454Y167157D01*
X176987D01*
X177521Y166624D01*
Y165557D01*
X176987Y165024D01*
X175921D01*
X175388Y165557D01*
X250866Y176782D02*
Y173583D01*
X252999D01*
X255665D02*
Y176782D01*
X254065Y175182D01*
X256198D01*
X200433Y229931D02*
Y226732D01*
X202566D01*
X203632Y229398D02*
X204165Y229931D01*
X205231D01*
X205765Y229398D01*
Y228865D01*
X205231Y228332D01*
X204698D01*
X205231D01*
X205765Y227799D01*
Y227265D01*
X205231Y226732D01*
X204165D01*
X203632Y227265D01*
X170811Y111648D02*
Y108449D01*
X172944D01*
X176143D02*
X174010D01*
X176143Y110582D01*
Y111115D01*
X175609Y111648D01*
X174543D01*
X174010Y111115D01*
X277110Y110192D02*
Y106993D01*
X279243D01*
X280309D02*
X281376D01*
X280842D01*
Y110192D01*
X280309Y109659D01*
X60035Y295940D02*
Y292741D01*
X61634D01*
X62168Y293274D01*
Y295407D01*
X61634Y295940D01*
X60035D01*
X63234Y292741D02*
X64300D01*
X63767D01*
Y295940D01*
X63234Y295407D01*
X68032Y295940D02*
X65900D01*
Y294340D01*
X66966Y294873D01*
X67499D01*
X68032Y294340D01*
Y293274D01*
X67499Y292741D01*
X66433D01*
X65900Y293274D01*
X60035Y283042D02*
Y279842D01*
X61634D01*
X62168Y280376D01*
Y282508D01*
X61634Y283042D01*
X60035D01*
X63234Y279842D02*
X64300D01*
X63767D01*
Y283042D01*
X63234Y282508D01*
X65900D02*
X66433Y283042D01*
X67499D01*
X68032Y282508D01*
Y281975D01*
X67499Y281442D01*
X66966D01*
X67499D01*
X68032Y280909D01*
Y280376D01*
X67499Y279842D01*
X66433D01*
X65900Y280376D01*
X61101Y267687D02*
Y264488D01*
X62701D01*
X63234Y265021D01*
Y267154D01*
X62701Y267687D01*
X61101D01*
X64300Y264488D02*
X65367D01*
X64833D01*
Y267687D01*
X64300Y267154D01*
X66966Y264488D02*
X68032D01*
X67499D01*
Y267687D01*
X66966Y267154D01*
X92386Y87633D02*
Y84434D01*
X93985D01*
X94518Y84967D01*
Y87099D01*
X93985Y87633D01*
X92386D01*
X95585Y84434D02*
X96651D01*
X96118D01*
Y87633D01*
X95585Y87099D01*
X98251D02*
X98784Y87633D01*
X99850D01*
X100383Y87099D01*
Y84967D01*
X99850Y84434D01*
X98784D01*
X98251Y84967D01*
Y87099D01*
X158270Y162225D02*
Y159026D01*
X159870D01*
X160403Y159559D01*
Y161692D01*
X159870Y162225D01*
X158270D01*
X161469Y159559D02*
X162002Y159026D01*
X163068D01*
X163602Y159559D01*
Y161692D01*
X163068Y162225D01*
X162002D01*
X161469Y161692D01*
Y161158D01*
X162002Y160625D01*
X163602D01*
X255906Y166230D02*
Y163031D01*
X257505D01*
X258038Y163565D01*
Y165697D01*
X257505Y166230D01*
X255906D01*
X260704Y163031D02*
Y166230D01*
X259104Y164631D01*
X261237D01*
X212740Y281703D02*
Y278504D01*
X214340D01*
X214873Y279037D01*
Y281170D01*
X214340Y281703D01*
X212740D01*
X215939Y281170D02*
X216472Y281703D01*
X217538D01*
X218072Y281170D01*
Y280637D01*
X217538Y280103D01*
X217005D01*
X217538D01*
X218072Y279570D01*
Y279037D01*
X217538Y278504D01*
X216472D01*
X215939Y279037D01*
X204016Y73750D02*
Y70551D01*
X205615D01*
X206148Y71084D01*
Y73217D01*
X205615Y73750D01*
X204016D01*
X209347Y70551D02*
X207215D01*
X209347Y72684D01*
Y73217D01*
X208814Y73750D01*
X207748D01*
X207215Y73217D01*
X279016Y70600D02*
Y67402D01*
X280615D01*
X281148Y67935D01*
Y70067D01*
X280615Y70600D01*
X279016D01*
X282215Y67402D02*
X283281D01*
X282748D01*
Y70600D01*
X282215Y70067D01*
X64062Y210658D02*
X63529Y211191D01*
X62462D01*
X61929Y210658D01*
Y208525D01*
X62462Y207992D01*
X63529D01*
X64062Y208525D01*
X65128Y210658D02*
X65661Y211191D01*
X66728D01*
X67261Y210658D01*
Y210125D01*
X66728Y209592D01*
X67261Y209058D01*
Y208525D01*
X66728Y207992D01*
X65661D01*
X65128Y208525D01*
Y209058D01*
X65661Y209592D01*
X65128Y210125D01*
Y210658D01*
X65661Y209592D02*
X66728D01*
X70460Y207992D02*
X68327D01*
X70460Y210125D01*
Y210658D01*
X69927Y211191D01*
X68860D01*
X68327Y210658D01*
X65128Y222154D02*
X64595Y222687D01*
X63529D01*
X62995Y222154D01*
Y220021D01*
X63529Y219488D01*
X64595D01*
X65128Y220021D01*
X66194Y222154D02*
X66728Y222687D01*
X67794D01*
X68327Y222154D01*
Y221621D01*
X67794Y221088D01*
X68327Y220554D01*
Y220021D01*
X67794Y219488D01*
X66728D01*
X66194Y220021D01*
Y220554D01*
X66728Y221088D01*
X66194Y221621D01*
Y222154D01*
X66728Y221088D02*
X67794D01*
X69393Y219488D02*
X70460D01*
X69927D01*
Y222687D01*
X69393Y222154D01*
X64062Y232784D02*
X63529Y233317D01*
X62462D01*
X61929Y232784D01*
Y230651D01*
X62462Y230118D01*
X63529D01*
X64062Y230651D01*
X65128Y232784D02*
X65661Y233317D01*
X66728D01*
X67261Y232784D01*
Y232251D01*
X66728Y231718D01*
X67261Y231184D01*
Y230651D01*
X66728Y230118D01*
X65661D01*
X65128Y230651D01*
Y231184D01*
X65661Y231718D01*
X65128Y232251D01*
Y232784D01*
X65661Y231718D02*
X66728D01*
X68327Y232784D02*
X68860Y233317D01*
X69927D01*
X70460Y232784D01*
Y230651D01*
X69927Y230118D01*
X68860D01*
X68327Y230651D01*
Y232784D01*
X64062Y199792D02*
X63529Y200325D01*
X62462D01*
X61929Y199792D01*
Y197659D01*
X62462Y197126D01*
X63529D01*
X64062Y197659D01*
X65128Y200325D02*
X67261D01*
Y199792D01*
X65128Y197659D01*
Y197126D01*
X68327Y197659D02*
X68860Y197126D01*
X69927D01*
X70460Y197659D01*
Y199792D01*
X69927Y200325D01*
X68860D01*
X68327Y199792D01*
Y199259D01*
X68860Y198725D01*
X70460D01*
X81329Y190643D02*
X80796Y191176D01*
X79730D01*
X79197Y190643D01*
Y188510D01*
X79730Y187977D01*
X80796D01*
X81329Y188510D01*
X82396Y191176D02*
X84528D01*
Y190643D01*
X82396Y188510D01*
Y187977D01*
X85595Y190643D02*
X86128Y191176D01*
X87194D01*
X87727Y190643D01*
Y190110D01*
X87194Y189576D01*
X87727Y189043D01*
Y188510D01*
X87194Y187977D01*
X86128D01*
X85595Y188510D01*
Y189043D01*
X86128Y189576D01*
X85595Y190110D01*
Y190643D01*
X86128Y189576D02*
X87194D01*
X75030Y182887D02*
X74497Y183420D01*
X73431D01*
X72898Y182887D01*
Y180754D01*
X73431Y180221D01*
X74497D01*
X75030Y180754D01*
X76096Y183420D02*
X78229D01*
Y182887D01*
X76096Y180754D01*
Y180221D01*
X79295Y183420D02*
X81428D01*
Y182887D01*
X79295Y180754D01*
Y180221D01*
X165384Y102729D02*
X164851Y103263D01*
X163785D01*
X163252Y102729D01*
Y100597D01*
X163785Y100064D01*
X164851D01*
X165384Y100597D01*
X168584Y103263D02*
X166451D01*
Y101663D01*
X167517Y102196D01*
X168050D01*
X168584Y101663D01*
Y100597D01*
X168050Y100064D01*
X166984D01*
X166451Y100597D01*
X171783Y103263D02*
X170716Y102729D01*
X169650Y101663D01*
Y100597D01*
X170183Y100064D01*
X171249D01*
X171783Y100597D01*
Y101130D01*
X171249Y101663D01*
X169650D01*
X160148Y97533D02*
X159615Y98066D01*
X158549D01*
X158016Y97533D01*
Y95400D01*
X158549Y94867D01*
X159615D01*
X160148Y95400D01*
X163347Y98066D02*
X161215D01*
Y96466D01*
X162281Y96999D01*
X162814D01*
X163347Y96466D01*
Y95400D01*
X162814Y94867D01*
X161748D01*
X161215Y95400D01*
X166546Y98066D02*
X164414D01*
Y96466D01*
X165480Y96999D01*
X166013D01*
X166546Y96466D01*
Y95400D01*
X166013Y94867D01*
X164947D01*
X164414Y95400D01*
X120621Y64698D02*
X120088Y65231D01*
X119021D01*
X118488Y64698D01*
Y62565D01*
X119021Y62032D01*
X120088D01*
X120621Y62565D01*
X123820Y65231D02*
X121687D01*
Y63632D01*
X122753Y64165D01*
X123287D01*
X123820Y63632D01*
Y62565D01*
X123287Y62032D01*
X122220D01*
X121687Y62565D01*
X126486Y62032D02*
Y65231D01*
X124886Y63632D01*
X127019D01*
X114972Y39810D02*
X114439Y39277D01*
Y38210D01*
X114972Y37677D01*
X117105D01*
X117638Y38210D01*
Y39277D01*
X117105Y39810D01*
X114439Y43009D02*
Y40876D01*
X116038D01*
X115505Y41943D01*
Y42476D01*
X116038Y43009D01*
X117105D01*
X117638Y42476D01*
Y41409D01*
X117105Y40876D01*
X114972Y44075D02*
X114439Y44608D01*
Y45675D01*
X114972Y46208D01*
X115505D01*
X116038Y45675D01*
Y45141D01*
Y45675D01*
X116571Y46208D01*
X117105D01*
X117638Y45675D01*
Y44608D01*
X117105Y44075D01*
X75581Y77375D02*
X75048Y77908D01*
X73982D01*
X73449Y77375D01*
Y75242D01*
X73982Y74709D01*
X75048D01*
X75581Y75242D01*
X78780Y77908D02*
X76648D01*
Y76309D01*
X77714Y76842D01*
X78247D01*
X78780Y76309D01*
Y75242D01*
X78247Y74709D01*
X77181D01*
X76648Y75242D01*
X81979Y74709D02*
X79847D01*
X81979Y76842D01*
Y77375D01*
X81446Y77908D01*
X80380D01*
X79847Y77375D01*
X218004Y137014D02*
X217470Y136481D01*
Y135415D01*
X218004Y134882D01*
X220136D01*
X220669Y135415D01*
Y136481D01*
X220136Y137014D01*
X220669Y139680D02*
X217470D01*
X219070Y138081D01*
Y140214D01*
X220136Y141280D02*
X220669Y141813D01*
Y142879D01*
X220136Y143412D01*
X218004D01*
X217470Y142879D01*
Y141813D01*
X218004Y141280D01*
X218537D01*
X219070Y141813D01*
Y143412D01*
X233555Y118983D02*
X233021Y118450D01*
Y117384D01*
X233555Y116850D01*
X235687D01*
X236221Y117384D01*
Y118450D01*
X235687Y118983D01*
X236221Y121649D02*
X233021D01*
X234621Y120049D01*
Y122182D01*
X233555Y123248D02*
X233021Y123782D01*
Y124848D01*
X233555Y125381D01*
X234088D01*
X234621Y124848D01*
X235154Y125381D01*
X235687D01*
X236221Y124848D01*
Y123782D01*
X235687Y123248D01*
X235154D01*
X234621Y123782D01*
X234088Y123248D01*
X233555D01*
X234621Y123782D02*
Y124848D01*
X244972Y108235D02*
X244439Y107702D01*
Y106635D01*
X244972Y106102D01*
X247105D01*
X247638Y106635D01*
Y107702D01*
X247105Y108235D01*
X247638Y110901D02*
X244439D01*
X246038Y109301D01*
Y111434D01*
X244439Y112500D02*
Y114633D01*
X244972D01*
X247105Y112500D01*
X247638D01*
X120975Y134540D02*
X120442Y135074D01*
X119376D01*
X118842Y134540D01*
Y132408D01*
X119376Y131875D01*
X120442D01*
X120975Y132408D01*
X123641Y131875D02*
Y135074D01*
X122041Y133474D01*
X124174D01*
X127373Y135074D02*
X126307Y134540D01*
X125240Y133474D01*
Y132408D01*
X125774Y131875D01*
X126840D01*
X127373Y132408D01*
Y132941D01*
X126840Y133474D01*
X125240D01*
X121763Y141115D02*
X121229Y141648D01*
X120163D01*
X119630Y141115D01*
Y138983D01*
X120163Y138449D01*
X121229D01*
X121763Y138983D01*
X124428Y138449D02*
Y141648D01*
X122829Y140049D01*
X124961D01*
X128160Y141648D02*
X126028D01*
Y140049D01*
X127094Y140582D01*
X127627D01*
X128160Y140049D01*
Y138983D01*
X127627Y138449D01*
X126561D01*
X126028Y138983D01*
X154125Y178399D02*
X153592Y178932D01*
X152525D01*
X151992Y178399D01*
Y176266D01*
X152525Y175733D01*
X153592D01*
X154125Y176266D01*
X156790Y175733D02*
Y178932D01*
X155191Y177332D01*
X157324D01*
X159990Y175733D02*
Y178932D01*
X158390Y177332D01*
X160523D01*
X277684Y225067D02*
X277151Y225601D01*
X276084D01*
X275551Y225067D01*
Y222935D01*
X276084Y222402D01*
X277151D01*
X277684Y222935D01*
X278750Y225067D02*
X279283Y225601D01*
X280350D01*
X280883Y225067D01*
Y224534D01*
X280350Y224001D01*
X279817D01*
X280350D01*
X280883Y223468D01*
Y222935D01*
X280350Y222402D01*
X279283D01*
X278750Y222935D01*
X281949Y222402D02*
X283015D01*
X282482D01*
Y225601D01*
X281949Y225067D01*
X276385Y235304D02*
X275851Y235837D01*
X274785D01*
X274252Y235304D01*
Y233171D01*
X274785Y232638D01*
X275851D01*
X276385Y233171D01*
X277451Y235304D02*
X277984Y235837D01*
X279050D01*
X279584Y235304D01*
Y234770D01*
X279050Y234237D01*
X278517D01*
X279050D01*
X279584Y233704D01*
Y233171D01*
X279050Y232638D01*
X277984D01*
X277451Y233171D01*
X280650Y235304D02*
X281183Y235837D01*
X282249D01*
X282783Y235304D01*
Y233171D01*
X282249Y232638D01*
X281183D01*
X280650Y233171D01*
Y235304D01*
X303353Y246091D02*
X302820Y246624D01*
X301754D01*
X301220Y246091D01*
Y243958D01*
X301754Y243425D01*
X302820D01*
X303353Y243958D01*
X306552Y243425D02*
X304419D01*
X306552Y245558D01*
Y246091D01*
X306019Y246624D01*
X304953D01*
X304419Y246091D01*
X307618Y243958D02*
X308152Y243425D01*
X309218D01*
X309751Y243958D01*
Y246091D01*
X309218Y246624D01*
X308152D01*
X307618Y246091D01*
Y245558D01*
X308152Y245025D01*
X309751D01*
X286855Y124575D02*
X287388Y125109D01*
Y126175D01*
X286855Y126708D01*
X284722D01*
X284189Y126175D01*
Y125109D01*
X284722Y124575D01*
X284189Y121376D02*
Y123509D01*
X286322Y121376D01*
X286855D01*
X287388Y121910D01*
Y122976D01*
X286855Y123509D01*
Y120310D02*
X287388Y119777D01*
Y118711D01*
X286855Y118177D01*
X286322D01*
X285788Y118711D01*
X285255Y118177D01*
X284722D01*
X284189Y118711D01*
Y119777D01*
X284722Y120310D01*
X285255D01*
X285788Y119777D01*
X286322Y120310D01*
X286855D01*
X285788Y119777D02*
Y118711D01*
X279831Y130544D02*
X280364Y131078D01*
Y132144D01*
X279831Y132677D01*
X277698D01*
X277165Y132144D01*
Y131078D01*
X277698Y130544D01*
X277165Y127346D02*
Y129478D01*
X279298Y127346D01*
X279831D01*
X280364Y127879D01*
Y128945D01*
X279831Y129478D01*
X280364Y126279D02*
Y124147D01*
X279831D01*
X277698Y126279D01*
X277165D01*
X243353Y163571D02*
X242820Y164104D01*
X241754D01*
X241220Y163571D01*
Y161439D01*
X241754Y160906D01*
X242820D01*
X243353Y161439D01*
X246552Y160906D02*
X244419D01*
X246552Y163038D01*
Y163571D01*
X246019Y164104D01*
X244953D01*
X244419Y163571D01*
X249751Y164104D02*
X248685Y163571D01*
X247618Y162505D01*
Y161439D01*
X248152Y160906D01*
X249218D01*
X249751Y161439D01*
Y161972D01*
X249218Y162505D01*
X247618D01*
X220243Y205067D02*
X219710Y205601D01*
X218643D01*
X218110Y205067D01*
Y202935D01*
X218643Y202402D01*
X219710D01*
X220243Y202935D01*
X223442Y202402D02*
X221309D01*
X223442Y204534D01*
Y205067D01*
X222909Y205601D01*
X221842D01*
X221309Y205067D01*
X226641Y205601D02*
X224508D01*
Y204001D01*
X225574Y204534D01*
X226108D01*
X226641Y204001D01*
Y202935D01*
X226108Y202402D01*
X225041D01*
X224508Y202935D01*
X220046Y213808D02*
X219513Y214341D01*
X218446D01*
X217913Y213808D01*
Y211675D01*
X218446Y211142D01*
X219513D01*
X220046Y211675D01*
X223245Y211142D02*
X221112D01*
X223245Y213274D01*
Y213808D01*
X222712Y214341D01*
X221645D01*
X221112Y213808D01*
X225911Y211142D02*
Y214341D01*
X224311Y212741D01*
X226444D01*
X221350Y309967D02*
X220817Y309434D01*
Y308368D01*
X221350Y307835D01*
X223483D01*
X224016Y308368D01*
Y309434D01*
X223483Y309967D01*
X224016Y313166D02*
Y311034D01*
X221883Y313166D01*
X221350D01*
X220817Y312633D01*
Y311567D01*
X221350Y311034D01*
Y314233D02*
X220817Y314766D01*
Y315832D01*
X221350Y316365D01*
X221883D01*
X222416Y315832D01*
Y315299D01*
Y315832D01*
X222949Y316365D01*
X223483D01*
X224016Y315832D01*
Y314766D01*
X223483Y314233D01*
X229775Y303904D02*
X229242Y303371D01*
Y302305D01*
X229775Y301772D01*
X231908D01*
X232441Y302305D01*
Y303371D01*
X231908Y303904D01*
X232441Y307103D02*
Y304971D01*
X230308Y307103D01*
X229775D01*
X229242Y306570D01*
Y305504D01*
X229775Y304971D01*
X232441Y310302D02*
Y308170D01*
X230308Y310302D01*
X229775D01*
X229242Y309769D01*
Y308703D01*
X229775Y308170D01*
X267054Y275934D02*
X266521Y276467D01*
X265454D01*
X264921Y275934D01*
Y273801D01*
X265454Y273268D01*
X266521D01*
X267054Y273801D01*
X270253Y273268D02*
X268120D01*
X270253Y275400D01*
Y275934D01*
X269720Y276467D01*
X268653D01*
X268120Y275934D01*
X271319Y273268D02*
X272386D01*
X271852D01*
Y276467D01*
X271319Y275934D01*
X181385Y45894D02*
X180851Y46427D01*
X179785D01*
X179252Y45894D01*
Y43762D01*
X179785Y43228D01*
X180851D01*
X181385Y43762D01*
X184584Y43228D02*
X182451D01*
X184584Y45361D01*
Y45894D01*
X184050Y46427D01*
X182984D01*
X182451Y45894D01*
X185650D02*
X186183Y46427D01*
X187249D01*
X187783Y45894D01*
Y43762D01*
X187249Y43228D01*
X186183D01*
X185650Y43762D01*
Y45894D01*
X192077Y66603D02*
X191544Y67136D01*
X190478D01*
X189945Y66603D01*
Y64470D01*
X190478Y63937D01*
X191544D01*
X192077Y64470D01*
X193144Y63937D02*
X194210D01*
X193677D01*
Y67136D01*
X193144Y66603D01*
X195810Y64470D02*
X196343Y63937D01*
X197409D01*
X197942Y64470D01*
Y66603D01*
X197409Y67136D01*
X196343D01*
X195810Y66603D01*
Y66070D01*
X196343Y65536D01*
X197942D01*
X230125Y91603D02*
X229592Y92136D01*
X228525D01*
X227992Y91603D01*
Y89470D01*
X228525Y88937D01*
X229592D01*
X230125Y89470D01*
X231191Y88937D02*
X232257D01*
X231724D01*
Y92136D01*
X231191Y91603D01*
X233857D02*
X234390Y92136D01*
X235456D01*
X235989Y91603D01*
Y91070D01*
X235456Y90536D01*
X235989Y90003D01*
Y89470D01*
X235456Y88937D01*
X234390D01*
X233857Y89470D01*
Y90003D01*
X234390Y90536D01*
X233857Y91070D01*
Y91603D01*
X234390Y90536D02*
X235456D01*
X230125Y99083D02*
X229592Y99616D01*
X228525D01*
X227992Y99083D01*
Y96951D01*
X228525Y96417D01*
X229592D01*
X230125Y96951D01*
X231191Y96417D02*
X232257D01*
X231724D01*
Y99616D01*
X231191Y99083D01*
X233857Y99616D02*
X235989D01*
Y99083D01*
X233857Y96951D01*
Y96417D01*
X230125Y106367D02*
X229592Y106900D01*
X228525D01*
X227992Y106367D01*
Y104234D01*
X228525Y103701D01*
X229592D01*
X230125Y104234D01*
X231191Y103701D02*
X232257D01*
X231724D01*
Y106900D01*
X231191Y106367D01*
X235989Y106900D02*
X234923Y106367D01*
X233857Y105300D01*
Y104234D01*
X234390Y103701D01*
X235456D01*
X235989Y104234D01*
Y104767D01*
X235456Y105300D01*
X233857D01*
X212841Y79201D02*
X212308Y79734D01*
X211242D01*
X210709Y79201D01*
Y77069D01*
X211242Y76535D01*
X212308D01*
X212841Y77069D01*
X213908Y76535D02*
X214974D01*
X214441D01*
Y79734D01*
X213908Y79201D01*
X218706Y79734D02*
X216573D01*
Y78135D01*
X217640Y78668D01*
X218173D01*
X218706Y78135D01*
Y77069D01*
X218173Y76535D01*
X217107D01*
X216573Y77069D01*
X138830Y68865D02*
X138297Y68332D01*
Y67265D01*
X138830Y66732D01*
X140963D01*
X141496Y67265D01*
Y68332D01*
X140963Y68865D01*
X141496Y69931D02*
Y70998D01*
Y70464D01*
X138297D01*
X138830Y69931D01*
X141496Y74196D02*
X138297D01*
X139897Y72597D01*
Y74730D01*
X144342Y68786D02*
X143809Y68253D01*
Y67187D01*
X144342Y66654D01*
X146475D01*
X147008Y67187D01*
Y68253D01*
X146475Y68786D01*
X147008Y69853D02*
Y70919D01*
Y70386D01*
X143809D01*
X144342Y69853D01*
Y72518D02*
X143809Y73052D01*
Y74118D01*
X144342Y74651D01*
X144875D01*
X145408Y74118D01*
Y73585D01*
Y74118D01*
X145942Y74651D01*
X146475D01*
X147008Y74118D01*
Y73052D01*
X146475Y72518D01*
X132649Y68747D02*
X132116Y68214D01*
Y67147D01*
X132649Y66614D01*
X134782D01*
X135315Y67147D01*
Y68214D01*
X134782Y68747D01*
X135315Y69813D02*
Y70880D01*
Y70346D01*
X132116D01*
X132649Y69813D01*
X135315Y74612D02*
Y72479D01*
X133182Y74612D01*
X132649D01*
X132116Y74078D01*
Y73012D01*
X132649Y72479D01*
X152487Y77075D02*
X151954Y77608D01*
X150888D01*
X150354Y77075D01*
Y74943D01*
X150888Y74410D01*
X151954D01*
X152487Y74943D01*
X153553Y74410D02*
X154620D01*
X154086D01*
Y77608D01*
X153553Y77075D01*
X156219Y74410D02*
X157285D01*
X156752D01*
Y77608D01*
X156219Y77075D01*
X267645Y58871D02*
X267111Y59404D01*
X266045D01*
X265512Y58871D01*
Y56739D01*
X266045Y56205D01*
X267111D01*
X267645Y56739D01*
X268711Y56205D02*
X269777D01*
X269244D01*
Y59404D01*
X268711Y58871D01*
X271377D02*
X271910Y59404D01*
X272976D01*
X273509Y58871D01*
Y56739D01*
X272976Y56205D01*
X271910D01*
X271377Y56739D01*
Y58871D01*
X270282Y68611D02*
X269749Y69144D01*
X268683D01*
X268150Y68611D01*
Y66478D01*
X268683Y65945D01*
X269749D01*
X270282Y66478D01*
X271349D02*
X271882Y65945D01*
X272948D01*
X273481Y66478D01*
Y68611D01*
X272948Y69144D01*
X271882D01*
X271349Y68611D01*
Y68077D01*
X271882Y67544D01*
X273481D01*
X307684Y77075D02*
X307151Y77608D01*
X306084D01*
X305551Y77075D01*
Y74943D01*
X306084Y74410D01*
X307151D01*
X307684Y74943D01*
X308750Y77075D02*
X309283Y77608D01*
X310350D01*
X310883Y77075D01*
Y76542D01*
X310350Y76009D01*
X310883Y75476D01*
Y74943D01*
X310350Y74410D01*
X309283D01*
X308750Y74943D01*
Y75476D01*
X309283Y76009D01*
X308750Y76542D01*
Y77075D01*
X309283Y76009D02*
X310350D01*
X307684Y83965D02*
X307151Y84498D01*
X306084D01*
X305551Y83965D01*
Y81832D01*
X306084Y81299D01*
X307151D01*
X307684Y81832D01*
X308750Y84498D02*
X310883D01*
Y83965D01*
X308750Y81832D01*
Y81299D01*
X307684Y91091D02*
X307151Y91624D01*
X306084D01*
X305551Y91091D01*
Y88958D01*
X306084Y88425D01*
X307151D01*
X307684Y88958D01*
X310883Y91624D02*
X309817Y91091D01*
X308750Y90025D01*
Y88958D01*
X309283Y88425D01*
X310350D01*
X310883Y88958D01*
Y89491D01*
X310350Y90025D01*
X308750D01*
X302172Y70328D02*
X301639Y70861D01*
X300572D01*
X300039Y70328D01*
Y68195D01*
X300572Y67662D01*
X301639D01*
X302172Y68195D01*
X305371Y70861D02*
X303238D01*
Y69261D01*
X304305Y69795D01*
X304838D01*
X305371Y69261D01*
Y68195D01*
X304838Y67662D01*
X303771D01*
X303238Y68195D01*
X210129Y49731D02*
X209596Y49198D01*
Y48132D01*
X210129Y47598D01*
X212262D01*
X212795Y48132D01*
Y49198D01*
X212262Y49731D01*
X212795Y52397D02*
X209596D01*
X211196Y50797D01*
Y52930D01*
X222019Y49731D02*
X221486Y49198D01*
Y48132D01*
X222019Y47598D01*
X224152D01*
X224685Y48132D01*
Y49198D01*
X224152Y49731D01*
X222019Y50797D02*
X221486Y51331D01*
Y52397D01*
X222019Y52930D01*
X222552D01*
X223086Y52397D01*
Y51864D01*
Y52397D01*
X223619Y52930D01*
X224152D01*
X224685Y52397D01*
Y51331D01*
X224152Y50797D01*
X216074Y49731D02*
X215541Y49198D01*
Y48132D01*
X216074Y47598D01*
X218207D01*
X218740Y48132D01*
Y49198D01*
X218207Y49731D01*
X218740Y52930D02*
Y50797D01*
X216607Y52930D01*
X216074D01*
X215541Y52397D01*
Y51331D01*
X216074Y50797D01*
X221896Y71170D02*
X221363Y71703D01*
X220297D01*
X219764Y71170D01*
Y69037D01*
X220297Y68504D01*
X221363D01*
X221896Y69037D01*
X222963Y68504D02*
X224029D01*
X223496D01*
Y71703D01*
X222963Y71170D01*
X167786Y89680D02*
X165654D01*
Y88080D01*
X166720Y88614D01*
X167253D01*
X167786Y88080D01*
Y87014D01*
X167253Y86481D01*
X166187D01*
X165654Y87014D01*
X168852Y89680D02*
Y87547D01*
X169919Y86481D01*
X170985Y87547D01*
Y89680D01*
X95877Y228898D02*
X95344Y229431D01*
Y230497D01*
X95877Y231030D01*
X96411D01*
X96944Y230497D01*
Y229964D01*
Y230497D01*
X97477Y231030D01*
X98010D01*
X98543Y230497D01*
Y229431D01*
X98010Y228898D01*
X95344Y232097D02*
X97477D01*
X98543Y233163D01*
X97477Y234229D01*
X95344D01*
X95877Y235296D02*
X95344Y235829D01*
Y236895D01*
X95877Y237428D01*
X96411D01*
X96944Y236895D01*
Y236362D01*
Y236895D01*
X97477Y237428D01*
X98010D01*
X98543Y236895D01*
Y235829D01*
X98010Y235296D01*
X95344Y240627D02*
Y238494D01*
X98543D01*
Y240627D01*
X96944Y238494D02*
Y239561D01*
X98543Y241693D02*
X95344D01*
Y243293D01*
X95877Y243826D01*
X96944D01*
X97477Y243293D01*
Y241693D01*
X95877Y247025D02*
X95344Y246492D01*
Y245426D01*
X95877Y244893D01*
X96411D01*
X96944Y245426D01*
Y246492D01*
X97477Y247025D01*
X98010D01*
X98543Y246492D01*
Y245426D01*
X98010Y244893D01*
X259685Y266012D02*
X260218Y266545D01*
X261284D01*
X261818Y266012D01*
Y265479D01*
X261284Y264946D01*
X260751D01*
X261284D01*
X261818Y264413D01*
Y263880D01*
X261284Y263347D01*
X260218D01*
X259685Y263880D01*
X262884Y266545D02*
Y264413D01*
X263950Y263347D01*
X265017Y264413D01*
Y266545D01*
X266083Y266012D02*
X266616Y266545D01*
X267683D01*
X268216Y266012D01*
Y265479D01*
X267683Y264946D01*
X267149D01*
X267683D01*
X268216Y264413D01*
Y263880D01*
X267683Y263347D01*
X266616D01*
X266083Y263880D01*
X269282Y263347D02*
Y265479D01*
X270348Y266545D01*
X271415Y265479D01*
Y263347D01*
Y264946D01*
X269282D01*
X272481Y263347D02*
Y266545D01*
X274614Y263347D01*
Y266545D01*
X275680D02*
X277813D01*
X276746D01*
Y263347D01*
X259921Y247115D02*
X260454Y247648D01*
X261521D01*
X262054Y247115D01*
Y246582D01*
X261521Y246048D01*
X260988D01*
X261521D01*
X262054Y245515D01*
Y244982D01*
X261521Y244449D01*
X260454D01*
X259921Y244982D01*
X263120Y247648D02*
Y245515D01*
X264187Y244449D01*
X265253Y245515D01*
Y247648D01*
X266319Y247115D02*
X266852Y247648D01*
X267919D01*
X268452Y247115D01*
Y246582D01*
X267919Y246048D01*
X267386D01*
X267919D01*
X268452Y245515D01*
Y244982D01*
X267919Y244449D01*
X266852D01*
X266319Y244982D01*
X271118Y247648D02*
X270051D01*
X269518Y247115D01*
Y244982D01*
X270051Y244449D01*
X271118D01*
X271651Y244982D01*
Y247115D01*
X271118Y247648D01*
X272717D02*
Y244449D01*
X274317D01*
X274850Y244982D01*
Y245515D01*
X274317Y246048D01*
X272717D01*
X274317D01*
X274850Y246582D01*
Y247115D01*
X274317Y247648D01*
X272717D01*
X275916D02*
Y244449D01*
X277516D01*
X278049Y244982D01*
Y247115D01*
X277516Y247648D01*
X275916D01*
X279115D02*
Y244449D01*
Y246048D01*
X281248D01*
Y247648D01*
Y244449D01*
X305676Y20601D02*
X303543D01*
Y19001D01*
X304610Y19534D01*
X305143D01*
X305676Y19001D01*
Y17935D01*
X305143Y17402D01*
X304077D01*
X303543Y17935D01*
X306742Y20601D02*
Y18468D01*
X307809Y17402D01*
X308875Y18468D01*
Y20601D01*
X309941Y16868D02*
X312074D01*
X313140Y20601D02*
Y17402D01*
X314740D01*
X315273Y17935D01*
Y18468D01*
X314740Y19001D01*
X313140D01*
X314740D01*
X315273Y19534D01*
Y20067D01*
X314740Y20601D01*
X313140D01*
X317939Y17402D02*
X316872D01*
X316339Y17935D01*
Y19001D01*
X316872Y19534D01*
X317939D01*
X318472Y19001D01*
Y18468D01*
X316339D01*
X320071Y19534D02*
X321138D01*
X321671Y19001D01*
Y17402D01*
X320071D01*
X319538Y17935D01*
X320071Y18468D01*
X321671D01*
X324870Y19534D02*
X323270D01*
X322737Y19001D01*
Y17935D01*
X323270Y17402D01*
X324870D01*
X326469D02*
X327536D01*
X328069Y17935D01*
Y19001D01*
X327536Y19534D01*
X326469D01*
X325936Y19001D01*
Y17935D01*
X326469Y17402D01*
X329135D02*
Y19534D01*
X330734D01*
X331268Y19001D01*
Y17402D01*
X166339Y277662D02*
X168471D01*
X169538Y279262D02*
Y276063D01*
X171670D01*
X174869D02*
X172737D01*
X174869Y278196D01*
Y278729D01*
X174336Y279262D01*
X173270D01*
X172737Y278729D01*
X160614Y231466D02*
X162747D01*
X163813Y233066D02*
Y229867D01*
X165946D01*
X167012D02*
X168078D01*
X167545D01*
Y233066D01*
X167012Y232533D01*
X195472Y342426D02*
X197605D01*
X196539Y343493D02*
Y341360D01*
X198671Y344026D02*
Y340827D01*
X200804D01*
X201870Y343493D02*
X202403Y344026D01*
X203470D01*
X204003Y343493D01*
Y342959D01*
X203470Y342426D01*
X202937D01*
X203470D01*
X204003Y341893D01*
Y341360D01*
X203470Y340827D01*
X202403D01*
X201870Y341360D01*
X91205Y200600D02*
X93337D01*
X92271Y201666D02*
Y199534D01*
X94404Y202200D02*
Y199001D01*
X96536D01*
X97603D02*
X98669D01*
X98136D01*
Y202200D01*
X97603Y201666D01*
X3425Y153425D02*
Y156624D01*
X5025D01*
X5558Y156091D01*
Y155025D01*
X5025Y154491D01*
X3425D01*
X4492D02*
X5558Y153425D01*
X6624Y156624D02*
Y153425D01*
X8224D01*
X8757Y153958D01*
Y154491D01*
X8224Y155025D01*
X6624D01*
X8224D01*
X8757Y155558D01*
Y156091D01*
X8224Y156624D01*
X6624D01*
X11956D02*
X9823D01*
Y155025D01*
X10889D01*
X9823D01*
Y153425D01*
X93543Y16575D02*
Y19774D01*
X95143D01*
X95676Y19241D01*
Y18174D01*
X95143Y17641D01*
X93543D01*
X96742Y19241D02*
X97275Y19774D01*
X98342D01*
X98875Y19241D01*
Y18707D01*
X98342Y18174D01*
X97809D01*
X98342D01*
X98875Y17641D01*
Y17108D01*
X98342Y16575D01*
X97275D01*
X96742Y17108D01*
X48543Y173701D02*
Y176900D01*
X50143D01*
X50676Y176367D01*
Y175300D01*
X50143Y174767D01*
X48543D01*
X53875Y176900D02*
X51742D01*
Y175300D01*
X52809Y175833D01*
X53342D01*
X53875Y175300D01*
Y174234D01*
X53342Y173701D01*
X52275D01*
X51742Y174234D01*
X312898Y289119D02*
X309699D01*
Y290718D01*
X310232Y291251D01*
X311298D01*
X311831Y290718D01*
Y289119D01*
X310232Y294450D02*
X309699Y293917D01*
Y292851D01*
X310232Y292318D01*
X312364D01*
X312898Y292851D01*
Y293917D01*
X312364Y294450D01*
X312898Y295517D02*
Y296583D01*
Y296050D01*
X309699D01*
X310232Y295517D01*
Y298183D02*
X309699Y298716D01*
Y299782D01*
X310232Y300315D01*
X312364D01*
X312898Y299782D01*
Y298716D01*
X312364Y298183D01*
X310232D01*
X312898Y302981D02*
X309699D01*
X311298Y301381D01*
Y303514D01*
X91339Y331496D02*
Y334695D01*
X92938D01*
X93471Y334162D01*
Y333096D01*
X92938Y332562D01*
X91339D01*
X94538Y334162D02*
X95071Y334695D01*
X96137D01*
X96670Y334162D01*
Y333629D01*
X96137Y333096D01*
X96670Y332562D01*
Y332029D01*
X96137Y331496D01*
X95071D01*
X94538Y332029D01*
Y332562D01*
X95071Y333096D01*
X94538Y333629D01*
Y334162D01*
X95071Y333096D02*
X96137D01*
X4157Y205970D02*
X6290D01*
X7356Y207569D02*
X9489D01*
Y207036D01*
X7356Y204903D01*
Y204370D01*
X9489D01*
X4157Y305167D02*
X6290D01*
X7356Y306767D02*
Y306233D01*
X8423Y305167D01*
X9489Y306233D01*
Y306767D01*
X8423Y305167D02*
Y303568D01*
X4157Y255246D02*
X6290D01*
X7356Y256845D02*
X9489Y253646D01*
Y256845D02*
X7356Y253646D01*
X4157Y229025D02*
X6290D01*
X5224Y230092D02*
Y227959D01*
X7356Y230625D02*
X9489D01*
Y230092D01*
X7356Y227959D01*
Y227426D01*
X9489D01*
X4157Y179616D02*
X6290D01*
X5224Y180682D02*
Y178550D01*
X7356Y181215D02*
Y180682D01*
X8423Y179616D01*
X9489Y180682D01*
Y181215D01*
X8423Y179616D02*
Y178016D01*
X4157Y280443D02*
X6290D01*
X5224Y281509D02*
Y279376D01*
X7356Y282042D02*
X9489Y278843D01*
Y282042D02*
X7356Y278843D01*
X254630Y121638D02*
Y124837D01*
X256229D01*
X256763Y124304D01*
Y123238D01*
X256229Y122705D01*
X254630D01*
X255696D02*
X256763Y121638D01*
X259962Y124837D02*
X257829D01*
Y123238D01*
X258895Y123771D01*
X259428D01*
X259962Y123238D01*
Y122172D01*
X259428Y121638D01*
X258362D01*
X257829Y122172D01*
X261028Y121638D02*
X262094D01*
X261561D01*
Y124837D01*
X261028Y124304D01*
X91345Y317784D02*
X90812Y318317D01*
X89746D01*
X89213Y317784D01*
Y315651D01*
X89746Y315118D01*
X90812D01*
X91345Y315651D01*
X92412Y315118D02*
X93478D01*
X92945D01*
Y318317D01*
X92412Y317784D01*
X97210Y315118D02*
X95077D01*
X97210Y317251D01*
Y317784D01*
X96677Y318317D01*
X95610D01*
X95077Y317784D01*
X100409Y318317D02*
X99343Y317784D01*
X98276Y316718D01*
Y315651D01*
X98809Y315118D01*
X99876D01*
X100409Y315651D01*
Y316184D01*
X99876Y316718D01*
X98276D01*
X91345Y324241D02*
X90812Y324774D01*
X89746D01*
X89213Y324241D01*
Y322108D01*
X89746Y321575D01*
X90812D01*
X91345Y322108D01*
X92412Y321575D02*
X93478D01*
X92945D01*
Y324774D01*
X92412Y324241D01*
X97210Y321575D02*
X95077D01*
X97210Y323707D01*
Y324241D01*
X96677Y324774D01*
X95610D01*
X95077Y324241D01*
X98276Y324774D02*
X100409D01*
Y324241D01*
X98276Y322108D01*
Y321575D01*
X249488Y322913D02*
X252687D01*
Y321314D01*
X252154Y320781D01*
X251088D01*
X250554Y321314D01*
Y322913D01*
Y321847D02*
X249488Y320781D01*
Y317582D02*
Y319714D01*
X251621Y317582D01*
X252154D01*
X252687Y318115D01*
Y319181D01*
X252154Y319714D01*
Y316515D02*
X252687Y315982D01*
Y314916D01*
X252154Y314383D01*
X251621D01*
X251088Y314916D01*
X250554Y314383D01*
X250021D01*
X249488Y314916D01*
Y315982D01*
X250021Y316515D01*
X250554D01*
X251088Y315982D01*
X251621Y316515D01*
X252154D01*
X251088Y315982D02*
Y314916D01*
X212126Y326732D02*
X208927D01*
Y328332D01*
X209460Y328865D01*
X210526D01*
X211060Y328332D01*
Y326732D01*
Y327799D02*
X212126Y328865D01*
X209460Y329931D02*
X208927Y330464D01*
Y331531D01*
X209460Y332064D01*
X209993D01*
X210526Y331531D01*
Y330998D01*
Y331531D01*
X211060Y332064D01*
X211593D01*
X212126Y331531D01*
Y330464D01*
X211593Y329931D01*
X212126Y335263D02*
Y333130D01*
X209993Y335263D01*
X209460D01*
X208927Y334730D01*
Y333663D01*
X209460Y333130D01*
X43819Y112638D02*
Y115837D01*
X45418D01*
X45952Y115304D01*
Y114237D01*
X45418Y113704D01*
X43819D01*
X44885D02*
X45952Y112638D01*
X47018Y115304D02*
X47551Y115837D01*
X48617D01*
X49150Y115304D01*
Y114770D01*
X48617Y114237D01*
X48084D01*
X48617D01*
X49150Y113704D01*
Y113171D01*
X48617Y112638D01*
X47551D01*
X47018Y113171D01*
X52350Y115837D02*
X50217D01*
Y114237D01*
X51283Y114770D01*
X51816D01*
X52350Y114237D01*
Y113171D01*
X51816Y112638D01*
X50750D01*
X50217Y113171D01*
X318409Y338302D02*
X320542D01*
X319476D01*
Y335103D01*
X321608D02*
Y338302D01*
X323208D01*
X323741Y337769D01*
Y336702D01*
X323208Y336169D01*
X321608D01*
X324807Y335103D02*
X325874D01*
X325341D01*
Y338302D01*
X324807Y337769D01*
X305575Y348145D02*
X307707D01*
X306641D01*
Y344946D01*
X308774D02*
Y348145D01*
X310373D01*
X310906Y347611D01*
Y346545D01*
X310373Y346012D01*
X308774D01*
X314105Y344946D02*
X311973D01*
X314105Y347078D01*
Y347611D01*
X313572Y348145D01*
X312506D01*
X311973Y347611D01*
X189882Y220443D02*
X192015D01*
X190948D01*
Y217244D01*
X193081D02*
Y220443D01*
X194680D01*
X195213Y219910D01*
Y218844D01*
X194680Y218310D01*
X193081D01*
X198413Y220443D02*
X197346Y219910D01*
X196280Y218844D01*
Y217777D01*
X196813Y217244D01*
X197879D01*
X198413Y217777D01*
Y218310D01*
X197879Y218844D01*
X196280D01*
X188622Y279341D02*
X190755D01*
X189688D01*
Y276142D01*
X191821D02*
Y279341D01*
X193421D01*
X193954Y278807D01*
Y277741D01*
X193421Y277208D01*
X191821D01*
X195020Y279341D02*
X197153D01*
Y278807D01*
X195020Y276675D01*
Y276142D01*
X195945Y324695D02*
X198077D01*
X197011D01*
Y321496D01*
X199144D02*
Y324695D01*
X200743D01*
X201276Y324162D01*
Y323095D01*
X200743Y322562D01*
X199144D01*
X202343Y322029D02*
X202876Y321496D01*
X203942D01*
X204475Y322029D01*
Y324162D01*
X203942Y324695D01*
X202876D01*
X202343Y324162D01*
Y323629D01*
X202876Y323095D01*
X204475D01*
X218629Y223138D02*
X218095Y223671D01*
X217029D01*
X216496Y223138D01*
Y221006D01*
X217029Y220472D01*
X218095D01*
X218629Y221006D01*
X219695Y220472D02*
X220761D01*
X220228D01*
Y223671D01*
X219695Y223138D01*
X222361D02*
X222894Y223671D01*
X223960D01*
X224494Y223138D01*
Y222605D01*
X223960Y222072D01*
X223427D01*
X223960D01*
X224494Y221539D01*
Y221006D01*
X223960Y220472D01*
X222894D01*
X222361Y221006D01*
X225560Y220472D02*
X226626D01*
X226093D01*
Y223671D01*
X225560Y223138D01*
X146803Y121692D02*
X146270Y122225D01*
X145203D01*
X144670Y121692D01*
Y119559D01*
X145203Y119026D01*
X146270D01*
X146803Y119559D01*
X147869Y119026D02*
X148935D01*
X148402D01*
Y122225D01*
X147869Y121692D01*
X150535D02*
X151068Y122225D01*
X152134D01*
X152667Y121692D01*
Y121158D01*
X152134Y120625D01*
X151601D01*
X152134D01*
X152667Y120092D01*
Y119559D01*
X152134Y119026D01*
X151068D01*
X150535Y119559D01*
X155866Y119026D02*
X153734D01*
X155866Y121158D01*
Y121692D01*
X155333Y122225D01*
X154267D01*
X153734Y121692D01*
X113786Y19437D02*
X113253Y19971D01*
X112187D01*
X111653Y19437D01*
Y18904D01*
X112187Y18371D01*
X113253D01*
X113786Y17838D01*
Y17305D01*
X113253Y16772D01*
X112187D01*
X111653Y17305D01*
X114852Y19971D02*
Y16772D01*
X116452D01*
X116985Y17305D01*
Y17838D01*
X116452Y18371D01*
X114852D01*
X116452D01*
X116985Y18904D01*
Y19437D01*
X116452Y19971D01*
X114852D01*
X118052D02*
Y16772D01*
X119118Y17838D01*
X120184Y16772D01*
Y19971D01*
D18*
X34472Y48686D02*
D03*
X79866Y34591D02*
D03*
X289511Y331442D02*
D03*
X178724Y34355D02*
D03*
X35772Y112544D02*
D03*
X95024Y34315D02*
D03*
X265979Y35890D02*
D03*
X193016Y34355D02*
D03*
X252357Y35890D02*
D03*
X289511Y339158D02*
D03*
D19*
X141598Y33882D02*
D03*
X141913Y125575D02*
D03*
X233764Y77229D02*
D03*
X237780Y197544D02*
D03*
X259591Y117032D02*
D03*
X218410Y42938D02*
D03*
X141598Y42937D02*
D03*
X152976Y87820D02*
D03*
D20*
X269229Y98892D02*
D03*
D21*
X213803Y299512D02*
D03*
X294317Y136756D02*
D03*
X301951Y257307D02*
D03*
X309591Y55774D02*
D03*
D22*
X251008Y331481D02*
D03*
X302820Y293512D02*
D03*
X228949Y156362D02*
D03*
X114275Y176795D02*
D03*
X114039Y160891D02*
D03*
X302820Y276938D02*
D03*
X216992Y330497D02*
D03*
X228947Y140693D02*
D03*
D23*
X193739Y49374D02*
D03*
X268931Y48528D02*
D03*
X162907Y40929D02*
D03*
X240033Y42504D02*
D03*
D24*
X191119Y97908D02*
D03*
D25*
X120286Y107239D02*
D03*
M02*
