M48
;Layer_Color=9474304
;FILE_FORMAT=2:5
INCH,LZ
;TYPE=PLATED
T1F00S00C0.01000
T2F00S00C0.01500
T3F00S00C0.02800
T4F00S00C0.03543
T5F00S00C0.03900
T6F00S00C0.03937
T7F00S00C0.12598
T8F00S00C0.13780
%
T01
X0019512Y0089906
X0005693Y0128686
X0032937Y0141402
X0117779Y0131283
X0128122Y0132887
X016737Y0124749
X0162402Y0119488
X0176024Y0114646
X0180772Y0109552
X0179472Y0121993
X0202307Y0117426
X019126Y0138622
X0189173Y0141402
X0178882Y0075024
X0161401Y0069591
X015026Y0051166
X0178921Y0039788
X0195496Y0040103
X0199277Y0039591
X0206401Y0036363
X0206953Y0026717
X0202031
X019711
X0195811Y0011678
X0185063Y0018292
X0138449Y0015772
X0134079Y0009434
X0142307Y0006757
X0147189Y0005103
X0111125Y0045142
X0100731Y0077582
X0084866Y0076008
X007711Y0087297
X0137874Y0087402
X0211756Y0076166
X0211283Y0071678
X0214433Y0071048
X0218252Y0071127
X0221638Y0068489
X0238212Y0067859
X0241401Y0071913
X025774Y0067662
X0264945Y0068095
X026879
X0272635
X027648
X0285511Y0064921
X0288652Y0062038
X0285192Y0059055
X0277819Y0048056
X0278595Y0029197
X0283145Y0027071
X028801Y0029197
X029256Y0027071
X0296795Y0029197
X027373Y0027071
X026918Y0029197
X0264315Y0027071
X024959Y0041929
X0240141Y0038803
X0231086Y0029197
X0226598Y0026599
X0221685Y0029197
X021711Y0026875
X0212283Y0029197
X0228449Y0053922
X0229354Y0099119
X022847Y0102898
X0228487Y0106244
X0240748Y0109591
X0246087
X0252425Y0109906
X0256874Y0111166
X0260063Y0121953
X0274433Y0130418
X0287268Y0120772
X0297732Y0114501
X0304961Y0111645
X0294866Y0105339
Y0102098
Y0098856
Y0095615
X0307268Y0090039
X0282292Y0084409
Y0081181
X0250693Y0090969
X025085Y0096953
X0235086Y0118819
Y0122599
Y0126379
Y0130158
X0223244Y0136535
X0240236Y0143346
X0238425Y0146102
X0295654Y0138804
X032559Y0043701
X0294787Y0005733
X0286598Y0007977
X0232385Y000278
X0236615Y0148858
X0234804Y0151615
X0237523Y0162638
Y0167362
X0243386Y016748
X0248543Y0162638
X0266102Y0168253
X027652
Y0171756
X027648Y016463
Y0160969
X0277031Y0154118
X0280455
X0281401Y0147859
X0295259Y0158252
X0299984Y0161384
X0306401Y0179749
X0306205Y020463
X0309709Y0212047
X0300811
X0289472Y0198686
X0279764Y0204173
X0265918Y0205142
X0252441Y0206417
X0252057Y0221335
X0244961Y023404
X0240984
X0235079Y0237795
X0225512Y0234495
X0227362Y0248071
X0208488Y0238843
X0212464Y0219512
X0220023Y0216882
X0225614Y0207623
X022274Y0200654
X0224433Y0196717
X0209591Y019963
X0209512Y0188764
X023563Y0188307
X0239488Y0190551
X0242352Y0185748
X0245354Y0183298
X0235574Y018085
X0221654Y0152992
X0218094Y0150812
X0215496Y0146953
X0278223Y01824
X0278226Y0185984
X0278228Y0189568
X0285378Y0238213
X0289079Y0240575
X0293764Y0239355
X0290933Y0250905
X0291085Y0255374
X0284409Y024874
X0279842
X0275276
X0280455Y0275039
X0285369
X0290303
X0295827Y0270866
X0309291Y0271772
X0308465Y0277244
X0313359Y0265706
Y026012
Y0248858
Y0235356
X0285369Y0282402
X0280455
X026874Y0275039
X0258354Y0270889
X0251024
Y0277464
X0260732Y0281678
X0243055Y0284867
X0224291Y0283371
X018715Y028278
X0188567Y0289473
X0199039Y0268686
X0179166Y0257771
X018522Y0235024
X0177504Y022093
X0176756Y0208764
X018648Y0208331
X0204157Y0206914
X0203921Y0201796
X0204354Y0194591
X0202583Y0184197
X0195693Y0181402
X0194236Y0191993
X0186559Y0167544
X0182465Y0166442
X0174945Y0163213
X0149197Y0160024
X0144511Y0167582
X0142149Y0169945
X0146283Y014904
X0147465Y0192268
X0156677Y0183686
X0120929Y0198725
X0115378Y02003
X0091873Y0202897
X0095892Y0235772
X0121126Y023719
X0111214Y0253637
X0108291Y0276245
X0115417Y0279827
X0133055Y027089
X0145072Y025159
X0151647Y0241196
X0082434Y0250488
X0060102Y0249276
Y0213686
X005463Y0207111
X0054Y0177386
X0084118Y0171442
X0081795Y0161166
X0077307Y0160969
X0204331Y0159867
Y0164473
Y0153536
Y014748
X0084521Y0286118
X0053449Y0289434
X0048291Y0271127
X0027858Y0270182
X0030575Y0259827
X0032228Y0237859
X0017386Y0234985
X0013213Y023782
X001337Y0228449
X0013094Y0217032
X0020338Y0188804
X0034709Y0189945
X0031598Y0194946
X000585Y0152938
X0003733Y0249897
X0011598Y0276481
X0034827Y0283371
X0028133Y0296716
X0003812Y0298834
X0071883Y0324543
X0084157Y0334867
X0087779Y0337621
X0124197Y0324512
X0148685Y0337662
X0153094Y0337662
X0183252Y0323961
X0183646Y0306087
X0209709Y0337623
X0223134Y0341835
X0241362Y0323568
X0244157Y030463
X0276795Y0306245
X0261205Y0328764
X0299197Y0330339
X029963Y0339512
T02
X0128879Y0012822
X0157543Y0021678
X0178331Y0013567
T03
X0030457Y0020024
X0049055Y0058071
X0006717Y006278
X0035378Y0120142
X0045654Y0128371
X0070181Y0108607
X0089512Y0060851
Y0054906
Y0048961
X0096047
Y0054906
Y0060851
X0136441Y0079473
X0166732Y0092126
X0166165Y0059741
Y0053091
Y0046442
X0155772Y0034434
X020152Y0012741
X0204196Y0130141
X0157874Y0124134
X0152086Y0114567
X0060866Y0031535
X0062268Y0019434
X0233842Y0034237
X0243252Y0048961
Y0054906
Y0060851
X024959
Y0054906
Y0048961
X0247583Y0072701
X0270462Y0111142
X0217464Y0110379
X0307268Y0078764
X0310945Y0024961
X0311323Y0164591
X0312307Y0223883
X0274055Y0229449
X0249268Y0178583
X0249157Y0288646
X0254747Y028896
X0255063Y0294552
Y0300457
X0249157
Y0294552
X0229064Y0268858
X0201535Y0224291
X0143173Y0244434
X0150299Y027904
Y0297072
X0112622Y0300536
X008463Y0301205
X0101165Y0281442
X0096205Y0243882
X0051756Y0228843
X0125181Y0163646
X0125654Y0158607
X0131264
X0131441Y0163646
X0136913
X0136874Y0158607
X0047818Y0322897
X0050811Y0343056
X0023173Y0314946
X0073173Y031156
X0093921Y0309394
X0094236Y0329591
X0074039Y0346204
X0136637Y0327267
X0136598Y032156
X0138764Y0303883
X0150102Y0307071
X021274Y0316875
X0207622Y0324906
X0217936Y0340614
X0247661Y0346166
X0266598Y033089
X0235693Y0306243
X0229786
X033215Y0314237
T04
X031959Y004904
Y005904
X032959
Y006904
X031959
Y007904
X032959
Y008904
X031959
Y009904
X032959
Y010904
X031959
Y011904
X032959
Y012904
X031959
Y013904
X032959
X033959
X034959
Y012904
X033959
Y011904
X034959
Y010904
X033959
Y009904
X034959
Y008904
X033959
Y007904
X034959
Y006904
X033959
Y005904
Y004904
X032959
X034959
Y005904
Y014904
Y015904
Y016904
Y017904
Y018904
Y019904
Y020904
Y021904
Y022904
Y023904
Y024904
Y025904
Y026904
Y027904
Y028904
Y029904
X0339571
X032959
Y028904
Y027904
Y026904
Y025904
X0339571
Y024904
X032959
Y023904
Y022904
Y021904
Y020904
Y019904
Y018904
Y017904
Y016904
Y015904
Y014904
X031959
Y015904
Y016904
Y017904
Y018904
Y019904
Y020904
Y0218942
Y022904
Y023904
Y024904
Y025904
Y026904
Y027904
Y028904
Y029904
X033959Y028904
Y027904
Y026904
Y023904
Y022904
Y0218942
Y020904
Y019904
Y018904
Y017904
Y016904
Y015904
Y014904
T05
X0308212Y0135969
Y0145969
Y0155969
T06
X0028567Y0031875
X0062563Y0114119
X0060417Y0131402
X0070417
Y0141402
X0060417
X0084905Y0134473
X0098842Y0137072
X0166647Y0081008
X0319488Y0024882
X0329764Y0024685
X0265496Y0238253
X0263803Y0257741
X0184039Y0272662
X0163803Y0271993
X0160693Y0238016
X0184709Y0218961
X0097071Y0222544
X0097228Y0208449
X0070417Y0171402
Y0161402
Y0151402
X0060417
Y0161402
Y0171402
X0027555Y0326181
X0028055Y0344079
X0079984Y0308135
X0165732Y0322977
X0190457Y0323174
X0199787Y0334827
X0310181Y0339512
X0320693Y0329394
X0333291Y0321757
T07
X017449Y0177979
T08
X0012303Y0019209
X0060391Y0047736
X0288591
X0349606Y0029052
X0012303Y0334268
X0060378Y0308174
X0288591Y0308136
X034957Y0319126
M30
